<svg xmlns="http://www.w3.org/2000/svg" viewBox="0 0 1055 451"><defs><style>.cls-1{fill:#fff;}</style></defs><title>envelope</title><g id="Layer_2" data-name="Layer 2"><g id="Layer_1-2" data-name="Layer 1"><path class="cls-1" d="M896.82,11.2,542,222.66,190.4,8.82A50.84,50.84,0,0,1,219.11,0H864.89A50.89,50.89,0,0,1,896.82,11.2Z"/><path class="cls-1" d="M1055,154a16,16,0,0,1-16,16H916V399.89A51.11,51.11,0,0,1,864.89,451H219.11A51.11,51.11,0,0,1,168,399.89V389H16a16,16,0,0,1,0-32H147.5a16,16,0,0,0,0-32H79a16,16,0,0,1,0-32h89V51.11a50.88,50.88,0,0,1,10.37-30.87L537.84,238.83a8,8,0,0,0,8.26,0L907.78,23.3A50.88,50.88,0,0,1,916,51.11V74h66a16,16,0,1,1,0,32H958.5a16,16,0,0,0,0,32H1039A16,16,0,0,1,1055,154Z"/></g></g></svg>