<svg xmlns="http://www.w3.org/2000/svg" viewBox="0 0 1594.45 988.68"><defs><style>.cls-1{fill:#34495e;}.cls-2{fill:#2980b9;}.cls-3{fill:#fff;}</style></defs><title>map-with-marker</title><g id="Layer_2" data-name="Layer 2"><g id="Layer_1-2" data-name="Layer 1"><path class="cls-1" d="M1224,300.39q-5.26-22.42-11.41-44.64l-32.51,6.2c-6.9,1.32-14.76,1.92-21.24,4.88-5,2.31-7,6.71-8,12.05-2.66,14.55-1.58,30.6-.56,45.28,2,28.68,7.7,56.91,13.32,85l81.64,0C1239.32,372.68,1232.45,336.38,1224,300.39Zm-61.09,211.54a365.36,365.36,0,0,0-4.21-45.16c-1.69-11.24-3.71-22.41-5.86-33.56l-79.71,0V540.16l29.28-.75,26.31-.68c5.72-.15,11.58,0,17.24-1s11.44-2.77,14.4-8S1163.06,517.79,1162.91,511.93Zm26.48-329c-13.72-37.81-29.51-75.09-37.66-114.63h-78.6v341l75,0c-2.28-11.39-4.53-22.79-6.52-34.23-5.25-30.16-9.24-61.3-6.5-92,1.29-14.47,6.46-26.36,20.66-31.52,7.11-2.59,14.9-3.47,22.29-4.88l21.9-4.18,8.4-1.6Q1199.75,211.58,1189.39,182.91Zm207.07,37.76-168.89,32.22q8.68,31.42,15.58,63.31c6.73,30.81,12.4,61.82,17.39,92.95l197.48-.09Zm-18.23-55.77A140.15,140.15,0,0,0,1245,68.28h-77.78c1.5,6.91,3.23,13.76,5.14,20.57,10.84,38.45,27,75.1,39.68,112.94q6,18,11.29,36.17,84.14-16,168.28-32.1ZM1515,884l-63.16-111.57c-2.2-3.88-.45-10.46,4.54-11.24l111-17.37L1521.73,604a227.38,227.38,0,0,1-27,6.3c-45.46,8.11-91.74,9.56-137.63,13.71a190.39,190.39,0,0,0-19,2.29c-.78.16-1.55.36-2.33.54-.38,4,.55,8,1.52,11.86,4.64,18.28,10.25,36.19,14.13,54.68s6.81,37,8.94,55.67,3.74,37.53,3.68,56.28c0,15.21-6.27,27.4-22,30.87a155,155,0,0,1-17.66,2.72q6.92,30.39,15.39,60.4c1.3,4.59,2.56,9.2,4,13.74.92,2.87,2,6.37,4.94,7.8,3.49,1.73,8.75.78,12.45.62q7.47-.3,14.94-.66,31.86-1.49,63.69-3.73,31.34-2.19,62.6-5.11,8.45-.79,16.87-1.63c1.7-.16,6.84-.14,7.88-1.79,1.58-2.51-3.51-9.37-4.64-11.36ZM1298.2,787.53c-15.15-80.81-24.35-162.57-34.41-244.13-4.53-36.78-9.26-73.58-14.8-110.24l-79.8,0h-.89c4.7,24.76,8.69,49.72,9.71,74.93.55,13.84-.18,28.81-11.93,37.9-10.57,8.16-24.73,7.89-37.36,8.21l-55.59,1.43V694.36q34.48-1.4,68.9-4.07c44.11-3.42,88.33-10.44,132.67-9,9.65.31,9.66,15.31,0,15-25-.83-49.93,1.24-74.79,3.68-42.24,4.15-84.49,7.26-126.78,9.06V837.54q104.56-2.31,208.89-10.6c7.79-.62,15.79-1,23.78-1.49Q1301.75,806.54,1298.2,787.53ZM931.87,694.89q38.18,1.26,76.37,1,20.46-.13,40.89-.71V556.29l-311.77,8c.3,5,.57,10,.78,15,.05,1.09.1,2.18.14,3.26s.08,2.27.11,3.4a2.08,2.08,0,0,1,0,.35c0,1.22.08,2.44.1,3.67,0,.82,0,1.63,0,2.45.07,3.44.09,6.89.05,10.33,0,1.13,0,2.26-.05,3.4s0,2.26-.09,3.39c0,.75,0,1.5-.08,2.25,0,.55,0,1.1-.07,1.66-.07,1.56-.16,3.13-.26,4.7q19.86-.36,39.77-1c14.29-.43,29.83.36,41.95,8.87,13,9.13,18.11,24.39,22.92,38.8Q861,719.63,879.22,774.45c4.89,14.66,8.9,30.27,16.73,43.72,3.68,6.32,8.44,12.2,15,15.67,6.88,3.63,14.72,3.94,22.33,4.12,38.59.93,77.25.64,115.85,0V709.94q-58.56,1.78-117.26-.05C922.22,709.57,922.21,694.57,931.87,694.89ZM1587.41,805l-14.07-43-1.13-3.46L1470.45,774.4l10.93,19.31,32.82,58,16.41,29c4.55,8,11.8,17.33,11.79,27s-7.46,15.64-16.35,17.15c-10.39,1.75-21.14,2.22-31.63,3.17q-32.76,3-65.6,5.13t-65.7,3.56c-9,.38-18.86,1.09-26.07-5.48-6.67-6.08-8.57-16-11-24.26-6.37-22.11-12-44.41-17.07-66.86-6.84.42-13.66.76-20.32,1.3q-29.36,2.39-58.75,4.3-78.32,5.1-156.81,6.84V988.68h381.06C1549.51,988.68,1617,895.59,1587.41,805ZM959.71,948.83a134.1,134.1,0,0,0-3.22-19.51c-1.34-5.1-3.54-8.42-8.91-9.6-5.67-1.24-11.87-.65-17.63-.65H751.71c7,23,17.59,44.76,32.58,63.8a9.18,9.18,0,0,1,2.12,5.79H960.54A230.65,230.65,0,0,0,959.71,948.83Zm37.46-95.39q-29.45,0-58.9-.4c-16-.24-31.4-1.49-43.82-12.7-10.39-9.38-16.24-22.87-20.9-35.77-6.12-17-11.49-34.23-17.19-51.34q-9-27.09-18.05-54.18l-10.08-30.24c-2.29-6.86-4.44-13.85-8-20.17-8.39-14.67-23.68-16.8-39.26-16.57-14.79.22-29.58,1-44.38,1.43a177.94,177.94,0,0,1-3.73,19.7c-3.73,14.87-10.6,29.41-11.07,44.93-.45,14.91,4.11,29.87-1.61,44.31a10.36,10.36,0,0,1-1.08,2,31.89,31.89,0,0,1,5.88,5.95c7,9.24,7.82,21,9.07,32.09,1.54,13.71,2.56,27.47,3.59,41.22,2,26.94,4,54,10.12,80.36H902c13.2,0,26.45-.38,39.64,0,10.71.34,21.45,3.48,26.6,13.74s5.86,23.51,6.9,34.78a229.47,229.47,0,0,1,.44,36h73.6V853Q1023.15,853.41,997.17,853.44Zm-65.3-158.55q38.18,1.26,76.37,1,20.46-.13,40.89-.71V556.29l-311.77,8c.3,5,.57,10,.78,15,.05,1.09.1,2.18.14,3.26s.08,2.27.11,3.4a2.08,2.08,0,0,1,0,.35c0,1.22.08,2.44.1,3.67,0,.82,0,1.63,0,2.45.07,3.44.09,6.89.05,10.33,0,1.13,0,2.26-.05,3.4s0,2.26-.09,3.39c0,.75,0,1.5-.08,2.25,0,.55,0,1.1-.07,1.66-.07,1.56-.16,3.13-.26,4.7q19.86-.36,39.77-1c14.29-.43,29.83.36,41.95,8.87,13,9.13,18.11,24.39,22.92,38.8Q861,719.63,879.22,774.45c4.89,14.66,8.9,30.27,16.73,43.72,3.68,6.32,8.44,12.2,15,15.67,6.88,3.63,14.72,3.94,22.33,4.12,38.59.93,77.25.64,115.85,0V709.94q-58.56,1.78-117.26-.05C922.22,709.57,922.21,694.57,931.87,694.89ZM721.94,815c-1-13.56-2-27.19-3.91-40.66-1.41-10-5-18.47-15.27-21.87-7-2.33-14.55-2.55-21.89-2.63-8.38-.09-16.76,0-25.14.06q-25.26.14-50.52.51-31.35.47-62.71,1.29c2.65,50.91,6.26,101.76,11.57,152.43l178.63,0C726.39,875,724.21,844.78,721.94,815ZM199.85,771.52q-19.65,1.77-39.27,3.68Q126.28,877.65,88.73,979a139.88,139.88,0,0,0,51.53,9.7H303.45q3-34.78,6-69.55H228c-9.67,0-9.65-15,0-15h82.77q.72-8.36,1.45-16.72,5.43-62.65,10.85-125.33c0-.07,0-.14,0-.21Q261.41,766,199.85,771.52ZM11.32,791.88,7,805c-20.48,62.66,5.5,126.51,55,159.93Q91.23,886,118.44,806.31q4.74-13.89,9.43-27.82Q69.52,784.55,11.32,791.88ZM928.94,68.28a97.7,97.7,0,0,1,3.69,10A113.07,113.07,0,0,1,936,126.53c-.93,6.55-3.16,18-12.35,38.18-11.33,24.84-24.11,42.8-35.93,58.4-9.14,12-20.5,26.38-34.22,42.32,56.36,2.92,98.22,13.78,98.22,26.74,0,15.19-57.56,27.51-128.57,27.51s-128.58-12.32-128.58-27.51c0-13.27,43.88-24.34,102.28-26.93l-2.34-2.83c-12.51-15.19-26.9-32.78-42.67-57.27-11.62-18-19-29.58-25.83-47.16-5.6-14.36-10.33-26.46-11.23-42.68a105.44,105.44,0,0,1,8.61-47H521.75l4.14,147.77q2.72,96.72,5.29,193.44l408.7-.19,109.25-.05v-341ZM501,399.45q-4.63-165.58-9.28-331.17H360.28c-2.58,33.63-13.11,66.36-21.82,98.77Q326.78,210.61,315,254.14l30.17-.45,29.5-.43c8.32-.13,18.66-1.82,26.62,1.13C416.48,260,413.9,283,414.71,295.85q3.59,56.76,2,113.69h3.21l81.36,0C501.22,406.15,501.12,402.8,501,399.45ZM216.22,164.9l-29.79,91.16,40.75-.61,56.6-.84c.72-2.63,1.43-5.25,2.14-7.88q12.88-47.62,25.66-95.28c7.24-27,16-54.38,18.54-81.84A140.18,140.18,0,0,0,216.22,164.9Zm182,110c-.74-6.34-2.59-6.93-8.79-6.86-4.92,0-9.84.14-14.75.22l-26.82.39-36.94.55-1.23,4.55q-18.46,68-37.47,135.86l129.52-.06q.31-10.94.42-21.87C402.52,350.35,402.57,312,398.21,274.9ZM181.5,271.13,136.23,409.67l104.8-.05q19.71-69.87,38.67-139.95Zm467.76,162.3-117.42.05q2.48,89.87,5.22,179.73c4,.32,8,.61,12,.9,58.08,4.17,116,5.07,174.06,4.26,1.43-20.45.09-41.18-1.17-61.55a6.3,6.3,0,0,1,4.22-6.73A7.44,7.44,0,0,1,730,549l222.64-5.72,96.49-2.47V433.25ZM507.1,625.65q-6.09-.57-12.18-1.18-29-2.9-57.88-6.65c-9.17-1.19-18.39-2.24-27.51-3.77-6.79-1.14-13.9-3.18-18.91-8.19-11.46-11.44-4.31-31.26-2.24-45q4.37-28.86,7.31-57.9,3.54-34.64,5.16-69.43l-135.41.07c-20.59,72.65-41.91,145.08-64.5,217.13q-4.89,15.62-9.87,31.2,44.16,6.1,88.15,13.5,15.48,2.61,30.95,5.38c8.92,1.59,20.89,1.74,27,9.48,5.78,7.35,3.89,17.33,3.15,25.92-.28,3.19-.55,6.39-.83,9.58q46.29-3,92.61-5.11,39.8-1.85,79.61-3.13Q508.84,681.64,507.1,625.65ZM501.94,433.5l-86.09,0q-2.12,45.27-7.47,90.3-3.37,28.38-8,56.58c-.64,4-2.31,9.61-.23,13.43,1.65,3,5.49,4,8.57,4.79,8.33,2.05,17.17,2.72,25.67,3.84q36,4.74,72.21,8.12C504.78,551.57,503.48,492.51,501.94,433.5ZM717.89,651a158.79,158.79,0,0,0,3.5-17.17q-92,1.53-183.86-5.62c0,.55,0,1.1.05,1.65,1.13,35.59,2.43,71.2,4.17,106.8q48.06-1.28,96.15-1.69c16.64-.14,33.46-.86,50.09,0a76,76,0,0,1,17.92,2.83c5.08-13.64,0-28.33,1-42.46C708,680,714,665.81,717.89,651ZM128.38,433.67,52.45,666q49.83,4.56,99.5,10.77l8.86,1.12q38.53-120.82,73-242.89c.13-.47.27-.93.4-1.4ZM47.69,680.59,16.44,776.23l7.9-1q54.3-6.72,108.73-12.29h0q11.74-35.25,23.11-70.62Q102.06,685.47,47.69,680.59Zm277.86,39.15c-1.76-2.34-8.07-2.41-10.68-2.89q-30.42-5.54-61-10.46-33.66-5.42-67.46-10-10.2,31.74-20.71,63.36,30.76-3,61.55-5.58,48.52-4.1,97.1-7.34.72-8.25,1.43-16.52C326.06,727.52,327.37,722.17,325.55,719.74Zm190.59,92.1q-2.05-29.64-3.65-59.3-55.53,1.77-111,4.66-31.67,1.65-63.31,3.69c-.21,2.39-.41,4.77-.62,7.16q-5.9,68-11.78,136.08H524.08Q519.28,858.06,516.14,811.84Zm9.55,107.27-201.22,0q-3,34.77-6,69.55H534.54Q529.52,954,525.69,919.11Zm234.54,55.55c-11-17.55-18.55-36.23-23.86-55.57l-180.68,0q3.9,34.86,9,69.57H770C766.54,984.14,763.27,979.49,760.23,974.66Zm705.51-542a13.87,13.87,0,0,1-3.25.37l-198.23.09c5.82,38.83,10.73,77.79,15.52,116.74,9.63,78.36,18.65,156.87,33.24,234.48q3.75,20,8,39.87c5.4-.55,10.75-1.28,16-2.3,9.7-1.89,11.9-7.19,11.93-16.61,0-8.43-.46-16.9-1-25.31a574.43,574.43,0,0,0-18.3-112.89c-2.38-8.94-5.52-17.77-7.52-26.8-1.43-6.39-2.75-14.38-.34-20.67,2-5.18,6.87-6.75,11.88-7.76,16.46-3.31,33.69-3.79,50.39-5,23.53-1.74,47.07-3.44,70.52-6,20.93-2.3,42.22-5,62.43-11.11ZM1333.58,627.43c.13,0,.35-.07.37-.19C1333.92,627.3,1333.72,627.36,1333.58,627.43Zm-.07,0h0l0-.06C1333.49,627.39,1333.49,627.41,1333.51,627.42Z"/><g id="marker"><path class="cls-2" d="M932.63,78.25a97.7,97.7,0,0,0-3.69-10A111.75,111.75,0,0,0,795.63,4.13a112.62,112.62,0,0,0-59.51,41.55,115,115,0,0,0-12.73,22.6,105.44,105.44,0,0,0-8.61,47c.9,16.22,5.63,28.32,11.23,42.68,6.87,17.58,14.21,29.11,25.83,47.16,15.77,24.49,30.16,42.08,42.67,57.27l2.34,2.83c7.78,9.36,14.86,17.47,20.84,24.13a9.71,9.71,0,0,0,14.38.09q11.55-12.51,21.43-24c13.72-15.94,25.08-30.27,34.22-42.32,11.82-15.6,24.6-33.56,35.93-58.4,9.19-20.15,11.42-31.63,12.35-38.18A113.07,113.07,0,0,0,932.63,78.25Zm-105.55,93.2a60.64,60.64,0,1,1,60.64-60.64A60.64,60.64,0,0,1,827.08,171.45Z"/><path class="cls-3" d="M870.3,68.28a60.64,60.64,0,1,0,17.42,42.53A60.44,60.44,0,0,0,870.3,68.28ZM827.08,149a38.18,38.18,0,1,1,38.18-38.18A38.18,38.18,0,0,1,827.08,149Z"/><circle class="cls-2" cx="827.08" cy="110.81" r="38.18"/></g></g></g></svg>