<svg xmlns="http://www.w3.org/2000/svg" viewBox="0 0 217 181"><defs><style>.cls-1{fill:#fff;stroke-width:3px;}.cls-1,.cls-3{stroke:#1abc9c;stroke-miterlimit:10;}.cls-2{fill:#1abc9c;}.cls-3{fill:none;stroke-width:2px;}</style></defs><title>feature-3</title><g id="Layer_2" data-name="Layer 2"><g id="Layer_1-2" data-name="Layer 1"><rect class="cls-1" x="1.5" y="1.5" width="214" height="178" rx="16" ry="16"/><path class="cls-1" d="M136,86.7v18.92a2.44,2.44,0,0,0,2.58,2.28h33.16l7.37,6.53V107.9h2.21a2.44,2.44,0,0,0,2.58-2.28V86.7a2.44,2.44,0,0,0-2.58-2.29H138.6A2.44,2.44,0,0,0,136,86.7Z"/><path class="cls-1" d="M174.91,69.66V95.23a3.25,3.25,0,0,1-3.4,3.09H127.78l-9.72,8.82V98.32h-2.92a3.25,3.25,0,0,1-3.4-3.09V69.66a3.25,3.25,0,0,1,3.4-3.09h56.37A3.25,3.25,0,0,1,174.91,69.66Z"/><circle class="cls-1" cx="67.92" cy="60.03" r="18.82"/><path class="cls-1" d="M102.77,125.35c0,19.25-69.69,19.25-69.69,0a34.85,34.85,0,0,1,69.69,0Z"/><rect class="cls-2" x="41.92" y="54.22" width="6.5" height="11" rx="3.25" ry="3.25"/><circle class="cls-2" cx="56.42" cy="84.72" r="3.5"/><path class="cls-3" d="M45.34,62.72c-1.75,12.78,1.94,20.43,12.58,21.5"/></g></g></svg>