<svg xmlns="http://www.w3.org/2000/svg" viewBox="0 0 217 181"><defs><style>.cls-1,.cls-2,.cls-4{fill:#fff;}.cls-1,.cls-2{stroke:#1abc9c;stroke-miterlimit:10;}.cls-1{stroke-width:3px;}.cls-2{stroke-width:6px;}.cls-3{fill:#1abc9c;}</style></defs><title>feature-5</title><g id="Layer_2" data-name="Layer 2"><g id="Layer_1-2" data-name="Layer 1"><rect class="cls-1" x="1.5" y="1.5" width="214" height="178" rx="16" ry="16"/><path class="cls-1" d="M84.18,82.67v39c0,2.6,2.37,4.7,5.31,4.7h68.26l15.17,13.43V126.32h4.55c2.93,0,5.31-2.1,5.31-4.7V82.67c0-2.6-2.38-4.7-5.31-4.7h-88C86.55,78,84.18,80.07,84.18,82.67Z"/><path class="cls-1" d="M164.22,47.6v52.64c0,3.52-3.13,6.36-7,6.36h-90l-20,18.15V106.6h-6c-3.87,0-7-2.84-7-6.36V47.6c0-3.51,3.13-6.35,7-6.35h116C161.09,41.25,164.22,44.09,164.22,47.6Z"/><path class="cls-2" d="M92.28,85.44V71.84c0-22.79,32.44-22.79,32.44,0v13.6"/><rect class="cls-3" x="86" y="83.87" width="45" height="42.38" rx="4" ry="4"/><rect class="cls-4" x="106.93" y="105.85" width="3.14" height="12.56" rx="1.5" ry="1.5"/><circle class="cls-4" cx="108.5" cy="104.28" r="4.19"/></g></g></svg>