<?xml version="1.0" encoding="utf-8"?>
<!-- Generator: Adobe Illustrator 23.0.1, SVG Export Plug-In . SVG Version: 6.00 Build 0)  -->
<svg version="1.1" id="Layer_1" xmlns="http://www.w3.org/2000/svg" xmlns:xlink="http://www.w3.org/1999/xlink" x="0px" y="0px"
	 viewBox="0 0 217 181" style="enable-background:new 0 0 217 181;" xml:space="preserve">
<style type="text/css">
	.st0{fill:#1ABC9C;}
	.st1{enable-background:new    ;}
</style>
<title>feature-2</title>
<g>
	<g id="Layer_1-2">
		<path class="st0" d="M199.5,0h-182C7.8,0,0,7.8,0,17.5v146c0,9.7,7.8,17.5,17.5,17.5h182c9.7,0,17.5-7.8,17.5-17.5v-146
			C217,7.8,209.2,0,199.5,0z M214,163.5c0,8-6.5,14.5-14.5,14.5h-182c-8,0-14.5-6.5-14.5-14.5v-146C3,9.5,9.5,3,17.5,3h182
			c8,0,14.5,6.5,14.5,14.5V163.5z"/>
		<g>
			<path class="st0" d="M177.5,76.5h-11.8V47.6c0-4.3-3.8-7.8-8.5-7.8h-116c-4.7,0-8.5,3.5-8.5,7.8v52.6c0,4.3,3.8,7.9,8.5,7.9h4.5
				v20l22.1-20h14.9v13.6c0,3.4,3.1,6.2,6.8,6.2h67.7l17.2,15.3v-15.3h3c3.8,0,6.8-2.8,6.8-6.2v-39
				C184.3,79.3,181.2,76.5,177.5,76.5z M66.6,105.1l-17.9,16.3v-16.3h-7.5c-3,0-5.5-2.2-5.5-4.9V47.6c0-2.7,2.5-4.8,5.5-4.8h116
				c3,0,5.5,2.2,5.5,4.8v52.6c0,2.7-2.5,4.9-5.5,4.9H66.6z M181.3,121.6c0,1.8-1.7,3.2-3.8,3.2h-6v11.6l-13.1-11.6H89.5
				c-2.1,0-3.8-1.4-3.8-3.2v-13.6h71.5c4.7,0,8.5-3.5,8.5-7.9V79.5h11.8c2.1,0,3.8,1.4,3.8,3.2V121.6z"/>
		</g>
		<g class="st1">
			<path class="st0" d="M97.3,79.5c0-0.5-0.1-1-0.2-1.5c-0.1-0.5-0.3-1-0.5-1.5c-1.3-2.9-4.4-4.8-9.7-6.1v-9.2
				c1.6,0.4,3.3,1.1,5,2.1c0.5,0.3,1,0.4,1.5,0.4c1.5,0,2.7-1.1,2.7-2.6c0-1.2-0.7-1.9-1.4-2.3c-2.2-1.4-4.6-2.3-7.5-2.6v-1.1
				c0-1.2-0.9-2.1-2.1-2.1c-1.2,0-2.1,0.9-2.1,2.1v1c-6,0.5-10.1,4-10.1,9.2c0,5.4,3.3,8.1,10.3,9.9v9.5c-0.1,0-0.3,0-0.4-0.1
				c-2.5-0.5-4.6-1.6-6.7-3.1c-0.4-0.3-1-0.5-1.6-0.5c-1.5,0-2.6,1.2-2.6,2.6c0,1,0.5,1.8,1.3,2.3c2.9,2,6.1,3.3,9.6,3.7
				c0.1,0,0.2,0,0.2,0v3c0,0.9,0.5,1.6,1.3,1.9c0.3,0.1,0.5,0.2,0.9,0.2c0.2,0,0.4,0,0.6-0.1c0.8-0.3,1.4-1,1.4-2v-2.9
				c6.1-0.6,10.3-4.1,10.3-9.4C97.3,80,97.3,79.8,97.3,79.5z M83.1,69.4c-3.7-1.2-4.6-2.5-4.6-4.5c0-2.1,1.5-3.8,4.6-4V69.4z
				 M86.9,84.8v-8.8c0.5,0.2,1,0.3,1.4,0.5c1.1,0.4,1.8,0.9,2.3,1.4c0.5,0.4,0.8,0.9,0.9,1.5c0.1,0.4,0.1,0.8,0.1,1.2
				C91.7,83,90,84.5,86.9,84.8z"/>
			<path class="st0" d="M127.7,79.5c0-0.5-0.1-1-0.2-1.5c-0.1-0.5-0.3-1-0.5-1.5c-1.3-2.9-4.4-4.8-9.7-6.1v-9.2
				c1.6,0.4,3.3,1.1,5,2.1c0.5,0.3,1,0.4,1.4,0.4c1.5,0,2.7-1.1,2.7-2.6c0-1.2-0.7-1.9-1.5-2.3c-2.2-1.4-4.6-2.3-7.4-2.6v-1.1
				c0-1.2-0.9-2.1-2.1-2.1c-1.2,0-2.1,0.9-2.1,2.1v1c-6,0.5-10.1,4-10.1,9.2c0,5.4,3.3,8.1,10.3,9.9v9.5c-2.7-0.5-4.9-1.6-7.1-3.2
				c-0.4-0.3-1-0.5-1.6-0.5c-1.5,0-2.7,1.2-2.7,2.6c0,1,0.5,1.8,1.3,2.3c2.9,2.1,6.3,3.4,9.9,3.8v3c0,1.2,1,2.1,2.1,2.1
				c1.1,0,2.1-0.9,2.1-2.1v-2.9c6.1-0.6,10.3-4.1,10.3-9.4C127.8,80,127.8,79.8,127.7,79.5z M113.5,69.4c-3.7-1.2-4.6-2.5-4.6-4.5
				c0-2.1,1.5-3.8,4.6-4V69.4z M117.3,84.8v-8.8c0.4,0.1,0.8,0.3,1.1,0.4c1.2,0.5,2,0.9,2.6,1.5c0.5,0.4,0.8,0.9,0.9,1.5
				c0.1,0.4,0.2,0.8,0.2,1.2C122.1,83,120.4,84.5,117.3,84.8z"/>
		</g>
	</g>
</g>
</svg>
