<?xml version="1.0" encoding="utf-8"?>
<!-- Generator: Adobe Illustrator 23.0.1, SVG Export Plug-In . SVG Version: 6.00 Build 0)  -->
<svg version="1.1" id="Layer_1" xmlns="http://www.w3.org/2000/svg" xmlns:xlink="http://www.w3.org/1999/xlink" x="0px" y="0px"
	 viewBox="0 0 217 181" style="enable-background:new 0 0 217 181;" xml:space="preserve">
<style type="text/css">
	.st0{fill:#1ABC9C;}
	.st1{enable-background:new    ;}
</style>
<title>feature-4</title>
<g>
	<g id="Layer_1-2">
		<g>
			<path class="st0" d="M178.3,52.1c-1.2,0.8-2.8,0.5-3.7-0.7l-10.8-16.2c-0.8-1.2-0.5-2.9,0.7-3.7c1.2-0.8,2.8-0.4,3.6,0.8
				L179,48.5C179.9,49.7,179.5,51.3,178.3,52.1z"/>
			<path class="st0" d="M183.3,59.6c-1.2,0.8-2.8,0.5-3.7-0.7l-0.5-0.8c-0.8-1.2-0.5-2.9,0.7-3.7c1.2-0.8,2.8-0.5,3.6,0.8l0.5,0.8
				C184.8,57.2,184.5,58.8,183.3,59.6z"/>
			<path class="st0" d="M199.5,0h-182C7.8,0,0,7.8,0,17.5v146c0,9.7,7.8,17.5,17.5,17.5h182c9.7,0,17.5-7.8,17.5-17.5v-146
				C217,7.8,209.2,0,199.5,0z M214,163.5c0,8-6.5,14.5-14.5,14.5h-182c-8,0-14.5-6.5-14.5-14.5v-146C3,9.5,9.5,3,17.5,3h182
				c8,0,14.5,6.5,14.5,14.5V163.5z"/>
		</g>
		<path class="st0" d="M159.5,46h-2.3c-4.3-1.9-9.3-2-13.7,0h-86C47.8,46,40,53.8,40,63.5v51.7c-0.5,0.2-1,0.5-1.5,0.8l-5.5,3.7
			c0,0,0,0,0,0c-0.1,0-0.1,0-0.1,0.1c-1.2,0.8-1.6,2.4-0.7,3.7L47.9,147c0.8,1.2,2.5,1.5,3.7,0.7c0,0,0-0.1,0.1-0.1c0,0,0,0,0.1,0
			l7.1-4.7c2.8-1.8,4.3-4.8,4.5-7.9h96.1c9.7,0,17.5-7.8,17.5-17.5v-54C177,53.8,169.2,46,159.5,46z M144,51.8
			c5.3-3.5,12.4-2.1,15.9,3.2c3,4.6,2.5,10.4-1.1,14.3c-0.2-0.1-0.5-0.2-0.8-0.2h-6.1l-10.4-15.5L144,51.8z M155.2,72l-0.9,0.6
			l-0.4-0.6H155.2z M42.3,129.1l-4.3-6.4l2.3-1.6c0.5,2.6,1.7,5,3.3,7.1L42.3,129.1z M43.2,119.8c1.4-0.2,2.8,0.4,3.6,1.7
			c1.1,1.6,0.8,3.8-0.6,5.1C44.6,124.6,43.6,122.3,43.2,119.8z M55.9,138.5l-5,3.4l-5.5-8.3l2.4-1.6c2.8,1.9,6.2,3,9.8,3H58
			C57.8,136.4,57.1,137.6,55.9,138.5z M50.4,130.1c2.3-1.4,5.3-0.8,6.8,1.4c0.1,0.1,0.2,0.3,0.3,0.4C54.9,132,52.5,131.3,50.4,130.1
			z M63.1,132c-0.3-1.2-0.8-2.3-1.5-3.4c-2-3-5.5-4.6-8.9-4.5c0.1-1.9-0.4-3.9-1.5-5.6c-1.9-2.8-5.1-4.3-8.2-4V63.5
			c0-8,6.5-14.5,14.5-14.5h81.1l-2.3,1.5c-1.2,0.8-1.6,2.4-0.7,3.7l9.9,14.8h-11l-6.3-9.3c-0.8-1.2-2.5-1.5-3.7-0.7
			c-1.2,0.8-1.5,2.4-0.7,3.6l4.3,6.4H59c-0.8,0-1.5,0.7-1.5,1.5S58.2,72,59,72h47.5c-0.1,0.7,0.1,1.3,0.5,1.8c0,0,0,0,0,0L117.1,89
			h-16l-9.3-6.7c-1-0.6-2.2-0.6-3,0c-0.9,0.6-1.4,1.7-1.2,2.8l0.9,3.8H75c-0.8,0-1.5,0.7-1.5,1.5S74.2,92,75,92h14.3l4,17H79.2
			c0.2-2.3-0.3-4.6-1.6-6.7c-3.2-4.8-9.6-6.1-14.3-2.9l-7.1,4.8c0,0,0,0,0,0c-1.2,0.8-1.5,2.4-0.7,3.7l15.8,23.6
			c0.1,0.2,0.3,0.3,0.4,0.5H63.1z M134.9,79l-19-7h14.3L134.9,79z M103.4,97.1l-6.5,4.3L94.7,92h1.5L103.4,97.1z M62.5,109l-1.2-1.8
			l4.9-3.3c2.3-1.5,5.4-0.9,6.9,1.4c0.8,1.1,1,2.5,0.7,3.7H62.5z M71.8,112c0,0-0.1,0.1-0.2,0.1l-4.9,3.3l-2.3-3.4H71.8z M174,117.5
			c0,8-6.5,14.5-14.5,14.5H75.1c1-0.9,1.2-2.4,0.5-3.5l-5.8-8.7l4.7-3.2c0.4-0.2,1.7-0.5,2.9-0.5c0.7,0,1.4,0.1,2,0.4
			c0.6,0.3,1.1,0.7,1.6,1.4c1.5,2.2,2.7,3.5,4,4.2c0.7,0.3,1.5,0.6,2.2,0.5c0.8,0,1.5-0.3,1.9-0.6c0,0,0,0,0,0
			c0.4-0.3,0.7-0.6,0.8-0.7c0.9-1.2,0.7-2.8-0.5-3.7c-0.7-0.5-1.5-0.7-2.3-0.4c-0.3-0.3-1-1-1.7-2.3c-0.9-1.3-2-2.3-3.2-2.9H94
			l0.6,2.6c0.4,1.4,1.8,2.3,3.2,2c0.3-0.1,0.6-0.2,0.8-0.4c0.9-0.6,1.4-1.7,1.1-2.8l-0.3-1.5H158c0.8,0,1.5-0.7,1.5-1.5
			s-0.7-1.5-1.5-1.5H98.8l-0.5-2l9.7-6.5l5.4,3.9c0.9,0.7,2.1,0.6,3,0c0.3-0.2,0.5-0.4,0.7-0.6c0.9-1.2,0.6-2.9-0.6-3.8l-11.1-8
			h13.8l3.4,5.1c0.8,1.2,2.4,1.5,3.7,0.7c1.2-0.8,1.5-2.4,0.7-3.6l-1.4-2.2H142c0.8,0,1.5-0.7,1.5-1.5S142.8,89,142,89h-18.5
			l-7.7-11.4l24.7,9.2c0.1,0,0.2,0.1,0.4,0.1c0.7,0.2,1.5,0.1,2.2-0.3c1.2-0.8,1.5-2.5,0.7-3.7L136.5,72h11l3.9,5.8
			c0.8,1.2,2.4,1.5,3.7,0.7l4.7-3.2c7.7-5.2,9.8-15.6,4.6-23.4c-0.7-1-1.5-1.9-2.3-2.8c6.8,1.2,12,7.1,12,14.3V117.5z"/>
		<g class="st1">
			<path class="st0" d="M184,55.9l-0.5-0.8c-0.8-1.2-2.4-1.5-3.6-0.8c-1.2,0.8-1.5,2.5-0.7,3.7l0.5,0.8c0.8,1.2,2.5,1.5,3.7,0.7
				C184.5,58.8,184.8,57.2,184,55.9z M179,48.5l-10.8-16.1c-0.8-1.2-2.4-1.6-3.6-0.8c-1.2,0.8-1.5,2.5-0.7,3.7l10.8,16.2
				c0.8,1.2,2.5,1.5,3.7,0.7C179.5,51.3,179.9,49.7,179,48.5z"/>
		</g>
	</g>
</g>
</svg>
