<svg xmlns="http://www.w3.org/2000/svg" viewBox="0 0 217 181"><defs><style>.cls-1,.cls-2{fill:#fff;stroke:#1abc9c;stroke-miterlimit:10;stroke-width:3px;}.cls-2{stroke-linecap:round;}</style></defs><title>feature-1</title><g id="Layer_2" data-name="Layer 2"><g id="Layer_1-2" data-name="Layer 1"><rect class="cls-1" x="1.5" y="1.5" width="214" height="178" rx="16" ry="16"/><circle class="cls-2" cx="71.06" cy="90.5" r="51.5"/><circle class="cls-2" cx="71.06" cy="90.5" r="35.17"/><circle class="cls-2" cx="71.06" cy="90.5" r="18.84"/><path class="cls-1" d="M132,73.06v34.18a.91.91,0,0,1-.91.9h-4.59a.91.91,0,0,0,.9-.9V72.16h3.69a.82.82,0,0,1,.57.21.22.22,0,0,1,.1.09A.87.87,0,0,1,132,73.06Z"/><path class="cls-1" d="M85.54,108.14H78.31a.9.9,0,0,1-.9-.9V73.06a.9.9,0,0,1,.9-.9h6.33v35.08A.9.9,0,0,0,85.54,108.14Z"/><path class="cls-1" d="M115.52,108.14H93.85a.61.61,0,0,1,.24,0h21.19A.61.61,0,0,1,115.52,108.14Z"/><path class="cls-1" d="M127.36,68.29v38.95a.91.91,0,0,1-.9.9H115.52a.61.61,0,0,0-.24,0H94.09a.61.61,0,0,0-.24,0H85.54a.9.9,0,0,1-.9-.9V68.29a.9.9,0,0,1,.9-.9h40.92A.91.91,0,0,1,127.36,68.29Z"/><path class="cls-1" d="M115.52,108.14H93.85a.61.61,0,0,1,.24,0h21.19A.61.61,0,0,1,115.52,108.14Z"/><rect class="cls-1" x="70.18" y="84.44" width="7.23" height="11.91" rx="0.9" ry="0.9"/><path class="cls-1" d="M116.19,109v9.41a.91.91,0,0,1-.91.9H94.09a.91.91,0,0,1-.91-.9V109a.88.88,0,0,1,.67-.86h21.67A.88.88,0,0,1,116.19,109Z"/><path class="cls-1" d="M115.52,108.14H93.85a.61.61,0,0,1,.24,0h21.19A.61.61,0,0,1,115.52,108.14Z"/><path class="cls-1" d="M167.11,51.87v77c0,.34-.16.44-.48.33L132,108.14V73.06a.87.87,0,0,0-.24-.6.22.22,0,0,0-.1-.09L166,51.31C166.64,51,167.07,51.06,167.11,51.87Z"/><line class="cls-2" x1="177.4" y1="86.91" x2="197.44" y2="86.91"/><line class="cls-2" x1="177.4" y1="67.7" x2="193.43" y2="51"/><line class="cls-2" x1="177.4" y1="105.28" x2="191.83" y2="120.32"/></g></g></svg>