<svg xmlns="http://www.w3.org/2000/svg" viewBox="0 0 820.5 713.75"><defs><style>.cls-1{fill:#fff;}</style></defs><title>Logistics-and-Smart</title><g id="Layer_2" data-name="Layer 2"><g id="Layer_2-2" data-name="Layer 2"><path class="cls-1" d="M723.5,331.25a97,97,0,1,0,97,97A97.1,97.1,0,0,0,723.5,331.25Zm0,184a87,87,0,1,1,87-87A87.1,87.1,0,0,1,723.5,515.25Z"/><path class="cls-1" d="M530.33,0a97,97,0,1,0,97,97A97.1,97.1,0,0,0,530.33,0Zm0,184a87,87,0,1,1,87-87A87.09,87.09,0,0,1,530.33,184Z"/><path class="cls-1" d="M397.5,397.75a108,108,0,1,0,108,108A108.12,108.12,0,0,0,397.5,397.75Zm0,206a98,98,0,1,1,98-98A98.11,98.11,0,0,1,397.5,603.75Z"/><path class="cls-1" d="M127.75,233.25a108,108,0,1,0,108,108A108.12,108.12,0,0,0,127.75,233.25Zm0,206a98,98,0,1,1,98-98A98.11,98.11,0,0,1,127.75,439.25Z"/><path class="cls-1" d="M574,577.75a48.5,48.5,0,1,0,48.5,48.5A48.56,48.56,0,0,0,574,577.75Zm0,92a43.5,43.5,0,1,1,43.5-43.5A43.54,43.54,0,0,1,574,669.75Z"/><path class="cls-1" d="M253,635.75a33.5,33.5,0,1,0,33.5,33.5A33.54,33.54,0,0,0,253,635.75Zm0,62a28.5,28.5,0,1,1,28.5-28.5A28.54,28.54,0,0,1,253,697.75Z"/><path class="cls-1" d="M747,79.75a33.5,33.5,0,1,0,33.5,33.5A33.54,33.54,0,0,0,747,79.75Zm0,62a28.5,28.5,0,1,1,28.5-28.5A28.54,28.54,0,0,1,747,141.75Z"/><path class="cls-1" d="M653,216.75a14.5,14.5,0,1,0,14.5,14.5A14.51,14.51,0,0,0,653,216.75Zm0,24a9.5,9.5,0,1,1,9.5-9.5A9.51,9.51,0,0,1,653,240.75Z"/><path class="cls-1" d="M762,258.75a14.5,14.5,0,1,0,14.5,14.5A14.51,14.51,0,0,0,762,258.75Zm0,24a9.5,9.5,0,1,1,9.5-9.5A9.51,9.51,0,0,1,762,282.75Z"/><path class="cls-1" d="M563,368.75a14.5,14.5,0,1,0,14.5,14.5A14.51,14.51,0,0,0,563,368.75Zm0,24a9.5,9.5,0,1,1,9.5-9.5A9.51,9.51,0,0,1,563,392.75Z"/><path class="cls-1" d="M376,234.75a14.5,14.5,0,1,0,14.5,14.5A14.51,14.51,0,0,0,376,234.75Zm0,24a9.5,9.5,0,1,1,9.5-9.5A9.51,9.51,0,0,1,376,258.75Z"/><path class="cls-1" d="M334,110.75a14.5,14.5,0,1,0,14.5,14.5A14.51,14.51,0,0,0,334,110.75Zm0,24a9.5,9.5,0,1,1,9.5-9.5A9.51,9.51,0,0,1,334,134.75Z"/><path class="cls-1" d="M265,197.75a14.5,14.5,0,1,0,14.5,14.5A14.51,14.51,0,0,0,265,197.75Zm0,24a9.5,9.5,0,1,1,9.5-9.5A9.51,9.51,0,0,1,265,221.75Z"/><path class="cls-1" d="M297,314.75a14.5,14.5,0,1,0,14.5,14.5A14.51,14.51,0,0,0,297,314.75Zm0,24a9.5,9.5,0,1,1,9.5-9.5A9.51,9.51,0,0,1,297,338.75Z"/><path class="cls-1" d="M222,463.75a14.5,14.5,0,1,0,14.5,14.5A14.51,14.51,0,0,0,222,463.75Zm0,24a9.5,9.5,0,1,1,9.5-9.5A9.51,9.51,0,0,1,222,487.75Z"/><path class="cls-1" d="M160,577.75a14.5,14.5,0,1,0,14.5,14.5A14.51,14.51,0,0,0,160,577.75Zm0,24a9.5,9.5,0,1,1,9.5-9.5A9.51,9.51,0,0,1,160,601.75Z"/><path class="cls-1" d="M397,684.75a14.5,14.5,0,1,0,14.5,14.5A14.51,14.51,0,0,0,397,684.75Zm0,24a9.5,9.5,0,1,1,9.5-9.5A9.51,9.51,0,0,1,397,708.75Z"/><path class="cls-1" d="M591,475.75a14.5,14.5,0,1,0,14.5,14.5A14.51,14.51,0,0,0,591,475.75Zm0,24a9.5,9.5,0,1,1,9.5-9.5A9.51,9.51,0,0,1,591,499.75Z"/><path class="cls-1" d="M191.88,52.7a46.5,46.5,0,1,0,46.5,46.5A46.55,46.55,0,0,0,191.88,52.7Zm0,88a41.5,41.5,0,1,1,41.5-41.5A41.55,41.55,0,0,1,191.88,140.7Z"/><path class="cls-1" d="M502,243.75a48.5,48.5,0,1,0,48.5,48.5A48.56,48.56,0,0,0,502,243.75Zm0,92a43.5,43.5,0,1,1,43.5-43.5A43.54,43.54,0,0,1,502,335.75Z"/><path class="cls-1" d="M741.83,387.25H705.67a7.43,7.43,0,0,0-7.42,7.43v69.15a7.43,7.43,0,0,0,7.42,7.42h36.16a7.43,7.43,0,0,0,7.42-7.42V394.68A7.43,7.43,0,0,0,741.83,387.25Zm2.42,76.58a2.43,2.43,0,0,1-2.42,2.42H705.67a2.43,2.43,0,0,1-2.42-2.42V394.68a2.43,2.43,0,0,1,2.42-2.43h36.16a2.43,2.43,0,0,1,2.42,2.43Z"/><circle class="cls-1" cx="723.75" cy="457.25" r="4"/><path class="cls-1" d="M440,466.75H358a4,4,0,0,0-4,4v14a4,4,0,0,0,4,4h82a4,4,0,0,0,4-4v-14A4,4,0,0,0,440,466.75Zm2,18a2,2,0,0,1-2,2H358a2,2,0,0,1-2-2v-14a2,2,0,0,1,2-2h82a2,2,0,0,1,2,2Z"/><path class="cls-1" d="M440,494.25H358a4,4,0,0,0-4,4v14a4,4,0,0,0,4,4h82a4,4,0,0,0,4-4v-14A4,4,0,0,0,440,494.25Zm2,18a2,2,0,0,1-2,2H358a2,2,0,0,1-2-2v-14a2,2,0,0,1,2-2h82a2,2,0,0,1,2,2Z"/><path class="cls-1" d="M440,521.75H358a4,4,0,0,0-4,4v14a4,4,0,0,0,4,4h82a4,4,0,0,0,4-4v-14A4,4,0,0,0,440,521.75Zm2,18a2,2,0,0,1-2,2H358a2,2,0,0,1-2-2v-14a2,2,0,0,1,2-2h82a2,2,0,0,1,2,2Z"/><path class="cls-1" d="M368.5,472.25a5.5,5.5,0,1,0,5.5,5.5A5.51,5.51,0,0,0,368.5,472.25Zm0,9a3.5,3.5,0,1,1,3.5-3.5A3.5,3.5,0,0,1,368.5,481.25Z"/><path class="cls-1" d="M380.5,472.25a5.5,5.5,0,1,0,5.5,5.5A5.51,5.51,0,0,0,380.5,472.25Zm0,9a3.5,3.5,0,1,1,3.5-3.5A3.5,3.5,0,0,1,380.5,481.25Z"/><path class="cls-1" d="M368.5,499.75a5.5,5.5,0,1,0,5.5,5.5A5.51,5.51,0,0,0,368.5,499.75Zm0,9a3.5,3.5,0,1,1,3.5-3.5A3.5,3.5,0,0,1,368.5,508.75Z"/><path class="cls-1" d="M380.5,499.75a5.5,5.5,0,1,0,5.5,5.5A5.51,5.51,0,0,0,380.5,499.75Zm0,9a3.5,3.5,0,1,1,3.5-3.5A3.5,3.5,0,0,1,380.5,508.75Z"/><path class="cls-1" d="M392.5,499.75a5.5,5.5,0,1,0,5.5,5.5A5.51,5.51,0,0,0,392.5,499.75Zm0,9a3.5,3.5,0,1,1,3.5-3.5A3.5,3.5,0,0,1,392.5,508.75Z"/><path class="cls-1" d="M368.5,527.25a5.5,5.5,0,1,0,5.5,5.5A5.51,5.51,0,0,0,368.5,527.25Zm0,9a3.5,3.5,0,1,1,3.5-3.5A3.5,3.5,0,0,1,368.5,536.25Z"/><path class="cls-1" d="M380.5,527.25a5.5,5.5,0,1,0,5.5,5.5A5.51,5.51,0,0,0,380.5,527.25Zm0,9a3.5,3.5,0,1,1,3.5-3.5A3.5,3.5,0,0,1,380.5,536.25Z"/><path class="cls-1" d="M393,527.25a5.5,5.5,0,1,0,5.5,5.5A5.51,5.51,0,0,0,393,527.25Zm0,9a3.5,3.5,0,1,1,3.5-3.5A3.5,3.5,0,0,1,393,536.25Z"/><path class="cls-1" d="M405,527.25a5.5,5.5,0,1,0,5.5,5.5A5.51,5.51,0,0,0,405,527.25Zm0,9a3.5,3.5,0,1,1,3.5-3.5A3.5,3.5,0,0,1,405,536.25Z"/><path class="cls-1" d="M587.76,608.75H560.24a3.75,3.75,0,0,0-3.74,3.74V630a3.75,3.75,0,0,0,3.74,3.74h5.26v8.71l8.71-8.71h13.55A3.75,3.75,0,0,0,591.5,630V612.49A3.75,3.75,0,0,0,587.76,608.75ZM590.5,630a2.74,2.74,0,0,1-2.74,2.74h-14L566.5,640v-7.29h-6.26A2.74,2.74,0,0,1,557.5,630V612.49a2.74,2.74,0,0,1,2.74-2.74h27.52a2.74,2.74,0,0,1,2.74,2.74Z"/><path class="cls-1" d="M44,513.25a44,44,0,1,0,44,44A44.05,44.05,0,0,0,44,513.25Zm0,83a39,39,0,1,1,39-39A39.05,39.05,0,0,1,44,596.25Z"/><path class="cls-1" d="M62.76,538.75H25.24a3.75,3.75,0,0,0-3.74,3.74V565a3.75,3.75,0,0,0,3.74,3.74H43.5v4H32a.5.5,0,0,0,0,1H56a.5.5,0,0,0,0-1H44.5v-4H62.76A3.75,3.75,0,0,0,66.5,565V542.49A3.75,3.75,0,0,0,62.76,538.75ZM65.5,565a2.74,2.74,0,0,1-2.74,2.74H25.24A2.74,2.74,0,0,1,22.5,565V542.49a2.74,2.74,0,0,1,2.74-2.74H62.76a2.74,2.74,0,0,1,2.74,2.74Z"/><path class="cls-1" d="M523.43,301.09a1.12,1.12,0,0,0-1.44-.68l-.82.29L507,305.78a5.34,5.34,0,0,0-5-2.51L495,283.88l-4.44-12.37a1.14,1.14,0,0,0-.58-.64,1.12,1.12,0,0,0-.86,0l-8.44,3a1.11,1.11,0,0,0-.68,1.44,1.12,1.12,0,0,0,1.44.68l.82-.29,6.56-2.35,3.06,8.54,7.91,22.06a5.36,5.36,0,0,0,.34,9.51,5.27,5.27,0,0,0,2.28.52,5.45,5.45,0,0,0,1.82-.32,5.38,5.38,0,0,0,3.5-5.75l15-5.37A1.12,1.12,0,0,0,523.43,301.09Zm-19.92,10.44a3.1,3.1,0,0,1-2.9-5.41,3.27,3.27,0,0,1,.8-.44l.22-.06a3,3,0,0,1,.82-.12,1.87,1.87,0,0,1,.34,0,3.07,3.07,0,0,1,2,1,3,3,0,0,1,.58,1,3,3,0,0,1,.18,1.14A3.12,3.12,0,0,1,503.51,311.53Z"/><path class="cls-1" d="M519,299.33a.59.59,0,0,1-.19.11l-11,3.93a.94.94,0,0,1-1.2-.57l-1.84-5.13a.93.93,0,0,1,.57-1.2l5.9-2.12,5.07-1.81a1,1,0,0,1,1.21.56l1.84,5.13A.94.94,0,0,1,519,299.33Z"/><path class="cls-1" d="M513.15,291.89l-3.64,1.31-4.15,1.49a.94.94,0,0,1-1.2-.57l-1.65-4.61a1,1,0,0,1,.56-1.2l7.79-2.79a1,1,0,0,1,1.21.57l1.64,4.6A.93.93,0,0,1,513.15,291.89Z"/><path class="cls-1" d="M168.58,314H145.25v23.33h-70v23.33h9.07a10.37,10.37,0,0,0,20.74,0h45.38a10.37,10.37,0,0,0,20.74,0h9.07V337.36ZM94.69,367.18a6.49,6.49,0,1,1,6.49-6.49A6.49,6.49,0,0,1,94.69,367.18Zm66.12,0a6.49,6.49,0,1,1,6.48-6.49A6.5,6.5,0,0,1,160.81,367.18Zm-9.62-35v-13h14.05l6.48,13Z"/><rect class="cls-1" x="88.21" y="324.4" width="20.74" height="10.37"/><rect class="cls-1" x="111.55" y="324.4" width="29.81" height="10.37"/><rect class="cls-1" x="127.1" y="311.44" width="14.26" height="10.37"/><rect class="cls-1" x="110.25" y="311.44" width="14.26" height="10.37"/><rect class="cls-1" x="93.4" y="311.44" width="14.26" height="10.37"/><path class="cls-1" d="M206.17,95.79h-1L203.1,88.7a2.62,2.62,0,0,0-3.26-1.79l-22.47,6.47a2.64,2.64,0,0,0-1.81,3.26l2.78,9.65a2.63,2.63,0,0,0,1.26,1.57,2.53,2.53,0,0,0,1,.32v1.28a2.14,2.14,0,0,0,2.14,2.14h23.4a2.14,2.14,0,0,0,2.14-2.14V97.93A2.14,2.14,0,0,0,206.17,95.79Zm-25.54,2.14v9.25a1.55,1.55,0,0,1-.55-.18,1.63,1.63,0,0,1-.79-1l-2.78-9.65a1.65,1.65,0,0,1,1.13-2l22.48-6.48a1.71,1.71,0,0,1,1.25.14,1.68,1.68,0,0,1,.78,1l2,6.81H182.77A2.14,2.14,0,0,0,180.63,97.93Zm16.56,1.32a.74.74,0,0,1-.74.74h-4a.74.74,0,0,1,0-1.48h4A.74.74,0,0,1,197.19,99.25Zm-7.42,0a.74.74,0,0,1-.74.74h-3.95a.74.74,0,0,1,0-1.48H189A.74.74,0,0,1,189.77,99.25Zm-5.43,4a.74.74,0,0,1,.74-.74h19.27a.74.74,0,1,1,0,1.48H185.08A.74.74,0,0,1,184.34,103.2Zm13.09,6.18h-4a.74.74,0,1,1,0-1.48h4a.74.74,0,1,1,0,1.48Zm7.42,0h-4a.74.74,0,1,1,0-1.48h4a.74.74,0,1,1,0,1.48Z"/><path class="cls-1" d="M567.85,69.08A1.49,1.49,0,0,0,566,70.16l-3.38,13-1.16,4.49-2,7.55-.78,3-.89,3.44-32,3.58A7.68,7.68,0,0,0,518.6,100h-.08l-.42-1.81-.71-3-6.5-27.72a1.54,1.54,0,0,0-.82-1l-2.3-1.11-13.94-6.71a1.5,1.5,0,0,0-1.3,2.71l10.61,5.11,5,2.4L514.3,95.2l.71,3,.57,2.43a7.67,7.67,0,0,0,0,14.11l-1.87,8.43a6.17,6.17,0,1,0,6.07,7.52h27.37a6.17,6.17,0,1,0,.08-3H519.72a6.19,6.19,0,0,0-3.07-3.8l1.9-8.53h.05a7.68,7.68,0,0,0,7.65-7.15l33-3.69a1.5,1.5,0,0,0,1.29-1.12l1.34-5.19.78-3,2.72-10.49L566.84,79l2.09-8A1.5,1.5,0,0,0,567.85,69.08Zm-17.35,58.6a3.15,3.15,0,1,1,2.68,4.81,3.17,3.17,0,0,1-2.85-1.8,3.08,3.08,0,0,1-.3-1.36A3.11,3.11,0,0,1,550.5,127.68Zm-33.56,1.65a3.09,3.09,0,0,1-.31,1.36,3.16,3.16,0,1,1-3.59-4.43,3.65,3.65,0,0,1,.74-.08A3.13,3.13,0,0,1,516,127a2.92,2.92,0,0,1,.52.64A3.11,3.11,0,0,1,516.94,129.33Zm1.56-16.58a5,5,0,1,1,5-5A5,5,0,0,1,518.5,112.75Z"/><path class="cls-1" d="M551.61,86.17h-23a2.34,2.34,0,0,0-2.34,2.33v8.88a2.26,2.26,0,0,0,.16.82,2.33,2.33,0,0,0,2.18,1.51h23a2.33,2.33,0,0,0,2.17-1.51,2.26,2.26,0,0,0,.16-.82V88.5A2.34,2.34,0,0,0,551.61,86.17Zm.52,11.21a.53.53,0,0,1-.52.52h-23a.53.53,0,0,1-.53-.52V88.5a.52.52,0,0,1,.53-.52h23a.52.52,0,0,1,.52.52Z"/><path class="cls-1" d="M555.21,72.94H541.83a2.33,2.33,0,0,0-2.33,2.33v5.86a2.34,2.34,0,0,0,2.33,2.34h13.38a2.34,2.34,0,0,0,2.34-2.34V75.27A2.33,2.33,0,0,0,555.21,72.94Zm.53,8.19a.53.53,0,0,1-.53.53H541.83a.53.53,0,0,1-.53-.53V75.27a.53.53,0,0,1,.53-.53h13.38a.53.53,0,0,1,.53.53Z"/></g></g></svg>