<svg xmlns="http://www.w3.org/2000/svg" viewBox="0 0 1159.57 993"><defs><style>.cls-1{fill:#34495e;}.cls-2{fill:#2980b9;}.cls-3{fill:#fff;}.cls-4{fill:#2c3e50;}</style></defs><title>health-care_1</title><g id="Layer_2" data-name="Layer 2"><g id="Layer_1-2" data-name="Layer 1"><line class="cls-1" x1="1081" y1="240.5" x2="1081" y2="355.5"/><path class="cls-1" d="M1081,357a1.5,1.5,0,0,1-1.5-1.5v-115a1.5,1.5,0,0,1,3,0v115A1.5,1.5,0,0,1,1081,357Z"/><path class="cls-2" d="M1103,289.34c0-1-1.18-1.74-3.52-2.18h0a11.3,11.3,0,0,1-2.7-.84,3.78,3.78,0,0,1-1.67-1.39,3.19,3.19,0,0,1-.53-1.75,3.41,3.41,0,0,1,1.53-2.86,5.93,5.93,0,0,1,5.33-.82,8,8,0,0,1,1.37.56l1.19.74a1.07,1.07,0,0,1,.43.66,1,1,0,0,1-.14.77,1,1,0,0,1-.65.44,1,1,0,0,1-.78-.15,11.87,11.87,0,0,0-1.67-1,3.91,3.91,0,0,0-1.55-.32,3.57,3.57,0,0,0-2.16.62,1.72,1.72,0,0,0-.84,1.32,1,1,0,0,0,.16.58c.37.62,1.38,1.08,3,1.38h0a13,13,0,0,1,2.76.84c1.65.82,2.48,1.94,2.48,3.36a3.63,3.63,0,0,1-1.64,3.05,6.25,6.25,0,0,1-3.78,1.19,8.25,8.25,0,0,1-5.12-2,1,1,0,0,1-.37-.7.94.94,0,0,1,.21-.76,1,1,0,0,1,.7-.37,1,1,0,0,1,.76.23,5.93,5.93,0,0,0,3.82,1.54,4,4,0,0,0,2.43-.69A1.9,1.9,0,0,0,1103,289.34Z"/><path class="cls-2" d="M1109,293.6l-.2,0a1.11,1.11,0,0,1-.62-.38,1,1,0,0,1-.24-.66v-7.86a1,1,0,0,1,.31-.77,1,1,0,0,1,.75-.31,1,1,0,0,1,1,.6,4.15,4.15,0,0,1,2.14-.6,4,4,0,0,1,3.14,1.38,3.78,3.78,0,0,1,3-1.38,4.15,4.15,0,0,1,3.06,1.23,4.08,4.08,0,0,1,1.22,3v4.74a1.07,1.07,0,0,1-1.82.75,1,1,0,0,1-.32-.75V287.8a2,2,0,0,0-.6-1.46,2,2,0,0,0-1.43-.6,2.08,2.08,0,0,0-2.07,2v4.8a1,1,0,0,1-.31.75,1,1,0,0,1-.74.31,1,1,0,0,1-.76-.32,1,1,0,0,1-.33-.74v-4.8a2,2,0,0,0-.62-1.41,2,2,0,0,0-1.43-.59,1.94,1.94,0,0,0-1.43.6,2,2,0,0,0-.6,1.46v4.74l0,.14v.06l-.06.12v.1A1.06,1.06,0,0,1,1109,293.6Z"/><path class="cls-2" d="M1127.28,292.14a5.25,5.25,0,0,1,0-7.07,4.44,4.44,0,0,1,3.39-1.47,4.58,4.58,0,0,1,2.66.88,1.21,1.21,0,0,1,.38-.63,1,1,0,0,1,1.41.07,1.1,1.1,0,0,1,.31.76v7.86a1,1,0,0,1-.31.75,1,1,0,0,1-.72.31,1,1,0,0,1-.69-.24,1.11,1.11,0,0,1-.38-.62,4.49,4.49,0,0,1-2.66.86A4.43,4.43,0,0,1,1127.28,292.14Zm.77-3.53a2.91,2.91,0,0,0,.73,2,2.38,2.38,0,0,0,1.88.82,2.46,2.46,0,0,0,1.9-.82,2.87,2.87,0,0,0,.75-2,3,3,0,0,0-.76-2,2.45,2.45,0,0,0-1.89-.84,2.39,2.39,0,0,0-1.87.83A3,3,0,0,0,1128.05,288.61Z"/><path class="cls-2" d="M1141.51,284.8a3.14,3.14,0,0,1,1.26-.87,3.83,3.83,0,0,1,1.46-.32,1.41,1.41,0,0,1,1,.31,1,1,0,0,1,.31.73,1.06,1.06,0,0,1-.31.75,1,1,0,0,1-.75.32c-1.24,0-2.22,1-2.94,3v3.8a1,1,0,0,1-.32.75,1.06,1.06,0,0,1-.77.31,1,1,0,0,1-.76-.31,1,1,0,0,1-.31-.75v-7.88a1,1,0,0,1,.31-.74,1,1,0,0,1,.76-.3,1.1,1.1,0,0,1,.77.3,1,1,0,0,1,.32.74Z"/><path class="cls-2" d="M1151.51,283.6a1.12,1.12,0,0,1,.79.32,1,1,0,0,1,.33.77,1.07,1.07,0,0,1-.33.78,1.09,1.09,0,0,1-.79.33h-.5v5.58a1.07,1.07,0,0,1,.78.33,1.12,1.12,0,0,1,.32.79,1.09,1.09,0,0,1-1.1,1.1,2.22,2.22,0,0,1-2.22-2.22V285.8h-.58a1.09,1.09,0,0,1-1.1-1.1,1.09,1.09,0,0,1,1.1-1.1h.58v-2.9a1.07,1.07,0,0,1,.33-.78,1.11,1.11,0,0,1,1.89.78v2.9Z"/><path class="cls-2" d="M1096.72,317.28a1.08,1.08,0,0,1-.79.32,1.09,1.09,0,0,1-1.1-1.1V304.7a1.09,1.09,0,0,1,1.1-1.1,1.12,1.12,0,0,1,.79.32,1.07,1.07,0,0,1,.33.78v4.8h5.18v-4.8a1.09,1.09,0,0,1,1.1-1.1,1.12,1.12,0,0,1,.79.32,1.07,1.07,0,0,1,.33.78v11.8a1,1,0,0,1-.33.78,1.08,1.08,0,0,1-.79.32,1.09,1.09,0,0,1-1.1-1.1v-4.8h-5.18v4.8A1,1,0,0,1,1096.72,317.28Z"/><path class="cls-2" d="M1113.15,317.66a4.51,4.51,0,0,1-3.42-1.48,4.92,4.92,0,0,1-1.4-3.54,5,5,0,0,1,1.41-3.55,4.51,4.51,0,0,1,3.39-1.49,4.44,4.44,0,0,1,3.37,1.51,5.17,5.17,0,0,1,1.39,3.59,4.59,4.59,0,0,1-1.4,3.44A4.22,4.22,0,0,1,1113.15,317.66Zm-1.92-7.12a3.1,3.1,0,0,0-.72,2.08,3.22,3.22,0,0,0,.72,2.12,2.76,2.76,0,0,0,3.76,0,3.07,3.07,0,0,0,.78-2.12,3,3,0,0,0-.78-2.08,2.71,2.71,0,0,0-3.76,0Z"/><path class="cls-2" d="M1122.35,317.6l-.2,0a1.11,1.11,0,0,1-.62-.38,1,1,0,0,1-.24-.66v-7.86a1,1,0,0,1,.31-.77,1,1,0,0,1,.75-.31,1,1,0,0,1,1,.6,4.15,4.15,0,0,1,2.14-.6,4,4,0,0,1,3.14,1.38,3.78,3.78,0,0,1,3-1.38,4.15,4.15,0,0,1,3.06,1.23,4.08,4.08,0,0,1,1.22,3v4.74a1.07,1.07,0,0,1-1.82.75,1,1,0,0,1-.32-.75V311.8a2,2,0,0,0-.6-1.46,2,2,0,0,0-1.43-.6,2.08,2.08,0,0,0-2.07,2v4.8a1,1,0,0,1-.31.75,1,1,0,0,1-.74.31,1,1,0,0,1-.76-.32,1,1,0,0,1-.33-.74v-4.8a2,2,0,0,0-.62-1.41,2,2,0,0,0-1.43-.59,1.94,1.94,0,0,0-1.43.6,2,2,0,0,0-.6,1.46v4.74l0,.14v.06l-.06.12v.1A1.06,1.06,0,0,1,1122.35,317.6Z"/><path class="cls-2" d="M1149.31,312.34a.93.93,0,0,1-.29.71,1.08,1.08,0,0,1-.77.27h-6.36a2.32,2.32,0,0,0,.68,1.32,2.79,2.79,0,0,0,1.87.89,2.92,2.92,0,0,0,2.13-.49,1.06,1.06,0,0,1,.8-.32.86.86,0,0,1,.7.26.9.9,0,0,1,0,1.3,5,5,0,0,1-3.53,1.31,4.64,4.64,0,0,1-3.5-1.47,4.93,4.93,0,0,1-1.43-3.52,5,5,0,0,1,1.43-3.53,4.56,4.56,0,0,1,3.41-1.47,4.7,4.7,0,0,1,3.37,1.31,4.87,4.87,0,0,1,1.49,3.33Zm-4.82-2.84a2.8,2.8,0,0,0-1.86.72,2.58,2.58,0,0,0-.84,1.4h5.66a2.8,2.8,0,0,0-1-1.36A3.5,3.5,0,0,0,1144.49,309.5Z"/><path class="cls-2" d="M1158.67,308.7a1,1,0,0,1,.45.67,1.14,1.14,0,0,1-.13.81,1,1,0,0,1-.67.45,1,1,0,0,1-.81-.17,3.7,3.7,0,0,0-1.85-.74,1.86,1.86,0,0,0-1.19.36c-.22.15-.32.28-.32.39a.41.41,0,0,0,0,.25.49.49,0,0,0,.21.18,3.91,3.91,0,0,0,1.46.48l0,0h0a9.36,9.36,0,0,1,1.94.6,2.91,2.91,0,0,1,1.3,1.1,2.69,2.69,0,0,1,.42,1.38,2.76,2.76,0,0,1-1.26,2.32,4.44,4.44,0,0,1-2.6.8,5.68,5.68,0,0,1-3.56-1.38,1,1,0,0,1-.37-.71.93.93,0,0,1,.23-.77,1,1,0,0,1,.72-.4,1.07,1.07,0,0,1,.78.24,3.29,3.29,0,0,0,2.2.88,2.45,2.45,0,0,0,1.36-.38q.36-.3.36-.51a.52.52,0,0,0-.06-.29.88.88,0,0,0-.26-.24,4.59,4.59,0,0,0-1.6-.56h0a6.94,6.94,0,0,1-1.85-.58,3.08,3.08,0,0,1-1.27-1.1,2.33,2.33,0,0,1-.34-1.26,2.69,2.69,0,0,1,1.18-2.2,4.28,4.28,0,0,1,2.47-.74A5.42,5.42,0,0,1,1158.67,308.7Z"/><line class="cls-1" x1="325" y1="5.5" x2="325" y2="120.5"/><path class="cls-1" d="M325,122a1.5,1.5,0,0,1-1.5-1.5V5.5a1.5,1.5,0,0,1,3,0v115A1.5,1.5,0,0,1,325,122Z"/><path class="cls-2" d="M347,54.34c0-1-1.18-1.74-3.52-2.18h0a11.3,11.3,0,0,1-2.7-.84,3.78,3.78,0,0,1-1.67-1.39,3.19,3.19,0,0,1-.53-1.75,3.41,3.41,0,0,1,1.53-2.86,5.93,5.93,0,0,1,5.33-.82,8,8,0,0,1,1.37.56l1.19.74a1.07,1.07,0,0,1,.43.66,1,1,0,0,1-.14.77,1,1,0,0,1-.65.44,1,1,0,0,1-.78-.15,11.87,11.87,0,0,0-1.67-1,3.91,3.91,0,0,0-1.55-.32,3.57,3.57,0,0,0-2.16.62,1.72,1.72,0,0,0-.84,1.32,1,1,0,0,0,.16.58c.37.62,1.38,1.08,3,1.38h0a13,13,0,0,1,2.76.84c1.65.82,2.48,1.94,2.48,3.36a3.63,3.63,0,0,1-1.64,3,6.25,6.25,0,0,1-3.78,1.19,8.25,8.25,0,0,1-5.12-2,1,1,0,0,1-.37-.7.94.94,0,0,1,.21-.76,1,1,0,0,1,.7-.37,1,1,0,0,1,.76.23,5.93,5.93,0,0,0,3.82,1.54,4,4,0,0,0,2.43-.69A1.9,1.9,0,0,0,347,54.34Z"/><path class="cls-2" d="M353,58.6l-.2,0a1.11,1.11,0,0,1-.62-.38,1,1,0,0,1-.24-.66V49.68a1,1,0,0,1,.31-.77,1,1,0,0,1,.75-.31,1,1,0,0,1,1,.6,4.15,4.15,0,0,1,2.14-.6A4,4,0,0,1,359.25,50a3.78,3.78,0,0,1,3-1.38,4.15,4.15,0,0,1,3.06,1.23,4.08,4.08,0,0,1,1.22,3v4.74a1.07,1.07,0,0,1-1.82.75,1,1,0,0,1-.32-.75V52.8a2,2,0,0,0-.6-1.46,2,2,0,0,0-1.43-.6,2.08,2.08,0,0,0-2.07,2v4.8a1,1,0,0,1-.31.75,1,1,0,0,1-.74.31,1,1,0,0,1-.76-.32,1,1,0,0,1-.33-.74v-4.8a2,2,0,0,0-.62-1.41,2,2,0,0,0-1.43-.59,1.94,1.94,0,0,0-1.43.6,2,2,0,0,0-.6,1.46v4.74l0,.14v.06l-.06.12V58A1.06,1.06,0,0,1,353,58.6Z"/><path class="cls-2" d="M371.28,57.14a5.25,5.25,0,0,1,0-7.07,4.44,4.44,0,0,1,3.39-1.47,4.58,4.58,0,0,1,2.66.88,1.21,1.21,0,0,1,.38-.63,1,1,0,0,1,1.41.07,1.1,1.1,0,0,1,.31.76v7.86a1,1,0,0,1-.31.75,1,1,0,0,1-.72.31,1,1,0,0,1-.69-.24,1.11,1.11,0,0,1-.38-.62,4.49,4.49,0,0,1-2.66.86A4.43,4.43,0,0,1,371.28,57.14Zm.77-3.53a2.91,2.91,0,0,0,.73,2,2.38,2.38,0,0,0,1.88.82,2.46,2.46,0,0,0,1.9-.82,2.87,2.87,0,0,0,.75-2,3,3,0,0,0-.76-2,2.45,2.45,0,0,0-1.89-.84,2.39,2.39,0,0,0-1.87.83A3,3,0,0,0,372.05,53.61Z"/><path class="cls-2" d="M385.51,49.8a3.14,3.14,0,0,1,1.26-.87,3.83,3.83,0,0,1,1.46-.32,1.41,1.41,0,0,1,1,.31,1,1,0,0,1,.31.73,1.06,1.06,0,0,1-.31.75,1,1,0,0,1-.75.32c-1.24,0-2.22,1-2.94,3v3.8a1,1,0,0,1-.32.75,1.06,1.06,0,0,1-.77.31,1,1,0,0,1-.76-.31,1,1,0,0,1-.31-.75V49.66a1,1,0,0,1,.31-.74,1,1,0,0,1,.76-.3,1.1,1.1,0,0,1,.77.3,1,1,0,0,1,.32.74Z"/><path class="cls-2" d="M395.51,48.6a1.12,1.12,0,0,1,.79.32,1,1,0,0,1,.33.77,1.07,1.07,0,0,1-.33.78,1.09,1.09,0,0,1-.79.33H395v5.58a1.07,1.07,0,0,1,.78.33,1.12,1.12,0,0,1,.32.79,1.09,1.09,0,0,1-1.1,1.1,2.22,2.22,0,0,1-2.22-2.22V50.8h-.58a1.09,1.09,0,0,1-1.1-1.1,1.09,1.09,0,0,1,1.1-1.1h.58V45.7a1.07,1.07,0,0,1,.33-.78,1.11,1.11,0,0,1,1.89.78v2.9Z"/><path class="cls-2" d="M350.61,80.1a1.05,1.05,0,0,1-.1.44v0a1,1,0,0,1-.38.48,7.48,7.48,0,0,1-9.76-.53,6.81,6.81,0,0,1-2.16-5.09,6.88,6.88,0,0,1,2.16-5.11,7.48,7.48,0,0,1,9.78-.55,1.09,1.09,0,0,1,.44.76,1.15,1.15,0,0,1-.22.85,1.08,1.08,0,0,1-.76.43,1.11,1.11,0,0,1-.86-.24,5.3,5.3,0,0,0-3.33-1.08A4.81,4.81,0,0,0,342,71.92a4.78,4.78,0,0,0,0,7,5,5,0,0,0,3.59,1.44,5.4,5.4,0,0,0,2.74-.76V76.82h-2.86a1.14,1.14,0,0,1-.81-1.94,1.13,1.13,0,0,1,.81-.32h4a1.17,1.17,0,0,1,.82.32,1.09,1.09,0,0,1,.34.8Z"/><path class="cls-2" d="M355.2,81.14a5.25,5.25,0,0,1,0-7.07,4.44,4.44,0,0,1,3.39-1.47,4.56,4.56,0,0,1,2.66.88,1.21,1.21,0,0,1,.38-.63,1,1,0,0,1,1.41.07,1.06,1.06,0,0,1,.31.76v7.86a1.06,1.06,0,0,1-1,1.06,1,1,0,0,1-.69-.24,1.11,1.11,0,0,1-.38-.62,4.49,4.49,0,0,1-2.66.86A4.43,4.43,0,0,1,355.2,81.14Zm.77-3.53a2.91,2.91,0,0,0,.73,2,2.38,2.38,0,0,0,1.88.82,2.46,2.46,0,0,0,1.9-.82,2.87,2.87,0,0,0,.75-2,3,3,0,0,0-.76-2,2.45,2.45,0,0,0-1.89-.84,2.41,2.41,0,0,0-1.87.83A3,3,0,0,0,356,77.61Z"/><path class="cls-2" d="M376.33,81.52a1,1,0,0,1-.32.76,1,1,0,0,1-.74.32,1,1,0,0,1-.71-.25,1.08,1.08,0,0,1-.37-.61,4.69,4.69,0,0,1-2.72.86A4.59,4.59,0,0,1,368,81.13a4.87,4.87,0,0,1-1.42-3.52A4.92,4.92,0,0,1,368,74.08a4.72,4.72,0,0,1,6.12-.64V69.68a1,1,0,0,1,.32-.76,1.06,1.06,0,0,1,.77-.32,1.09,1.09,0,0,1,1.09,1.08Zm-4.86-1.1a2.51,2.51,0,0,0,1.89-.83,2.79,2.79,0,0,0,.79-2,2.84,2.84,0,0,0-.78-2,2.57,2.57,0,0,0-3.8,0,2.84,2.84,0,0,0-.78,2,2.75,2.75,0,0,0,.79,2A2.48,2.48,0,0,0,371.47,80.42Z"/><path class="cls-2" d="M381.21,81.16a4.82,4.82,0,0,1-1.4-3.51,5,5,0,0,1,1.4-3.56,4.65,4.65,0,0,1,6.08-.65,1,1,0,0,1,.38-.6,1.09,1.09,0,0,1,.71-.24,1,1,0,0,1,.72.31,1.06,1.06,0,0,1,.31.75v7.72a4.81,4.81,0,0,1-4.8,4.8,4.4,4.4,0,0,1-2.1-.5.94.94,0,0,1-.54-.61,1,1,0,0,1,.06-.83,1.05,1.05,0,0,1,.61-.54,1.14,1.14,0,0,1,.83,0,2.68,2.68,0,0,0,1.31.28,2.35,2.35,0,0,0,1.52-.61,2.72,2.72,0,0,0,.93-1.53,4.48,4.48,0,0,1-2.62.8A4.41,4.41,0,0,1,381.21,81.16Zm.76-3.5a2.89,2.89,0,0,0,.76,2,2.43,2.43,0,0,0,1.89.84,2.47,2.47,0,0,0,1.89-.82,2.89,2.89,0,0,0,.76-2,3,3,0,0,0-.77-2.07,2.47,2.47,0,0,0-1.87-.85,2.43,2.43,0,0,0-1.88.87A3,3,0,0,0,382,77.66Z"/><path class="cls-2" d="M402.67,77.34a.93.93,0,0,1-.29.71,1.1,1.1,0,0,1-.77.27h-6.36a2.32,2.32,0,0,0,.68,1.32,2.77,2.77,0,0,0,1.87.89,2.92,2.92,0,0,0,2.13-.49,1,1,0,0,1,.8-.32.86.86,0,0,1,.7.26.9.9,0,0,1,0,1.3,5,5,0,0,1-3.53,1.31,4.64,4.64,0,0,1-3.5-1.47A4.93,4.93,0,0,1,393,77.6a5,5,0,0,1,1.43-3.53,4.54,4.54,0,0,1,3.41-1.47,4.72,4.72,0,0,1,3.37,1.31,4.87,4.87,0,0,1,1.49,3.33Zm-4.82-2.84a2.8,2.8,0,0,0-1.86.72,2.58,2.58,0,0,0-.84,1.4h5.66a2.8,2.8,0,0,0-1-1.36A3.5,3.5,0,0,0,397.85,74.5Z"/><path class="cls-2" d="M409.23,72.6a1.12,1.12,0,0,1,.79.32,1,1,0,0,1,.33.77,1.07,1.07,0,0,1-.33.78,1.09,1.09,0,0,1-.79.33h-.5v5.58a1.07,1.07,0,0,1,.78.33,1.12,1.12,0,0,1,.32.79,1.09,1.09,0,0,1-1.1,1.1,2.22,2.22,0,0,1-2.22-2.22V74.8h-.58a1.09,1.09,0,0,1-1.1-1.1,1.09,1.09,0,0,1,1.1-1.1h.58V69.7a1.07,1.07,0,0,1,.33-.78,1.11,1.11,0,0,1,1.89.78v2.9Z"/><path class="cls-2" d="M420,73.7a1,1,0,0,1,.45.67,1.14,1.14,0,0,1-.13.81,1,1,0,0,1-.67.45,1,1,0,0,1-.81-.17,3.7,3.7,0,0,0-1.85-.74,1.86,1.86,0,0,0-1.19.36c-.22.15-.32.28-.32.39a.41.41,0,0,0,.05.25.49.49,0,0,0,.21.18,3.91,3.91,0,0,0,1.46.48l0,0h0a9.36,9.36,0,0,1,1.94.6,2.91,2.91,0,0,1,1.3,1.1,2.69,2.69,0,0,1,.42,1.38,2.76,2.76,0,0,1-1.26,2.32,4.44,4.44,0,0,1-2.6.8,5.68,5.68,0,0,1-3.56-1.38,1,1,0,0,1-.37-.71.93.93,0,0,1,.23-.77,1,1,0,0,1,.72-.4,1.07,1.07,0,0,1,.78.24,3.29,3.29,0,0,0,2.2.88,2.45,2.45,0,0,0,1.36-.38q.36-.3.36-.51a.52.52,0,0,0-.06-.29.88.88,0,0,0-.26-.24,4.59,4.59,0,0,0-1.6-.56h0A6.94,6.94,0,0,1,415,77.9a3.08,3.08,0,0,1-1.27-1.1,2.33,2.33,0,0,1-.34-1.26,2.69,2.69,0,0,1,1.18-2.2A4.28,4.28,0,0,1,417,72.6,5.42,5.42,0,0,1,420,73.7Z"/><line class="cls-1" x1="90" y1="662.5" x2="90" y2="777.5"/><path class="cls-1" d="M90,779a1.5,1.5,0,0,1-1.5-1.5v-115a1.5,1.5,0,0,1,3,0v115A1.5,1.5,0,0,1,90,779Z"/><path class="cls-2" d="M105.2,713.48a7.48,7.48,0,0,1,0-10.16,6.58,6.58,0,0,1,9.7,0,7.27,7.27,0,0,1,2,5.07,7.07,7.07,0,0,1-2,5,6.4,6.4,0,0,1-2.16,1.57,6.31,6.31,0,0,1-2.62.57A6.4,6.4,0,0,1,105.2,713.48Zm.29-5.08a4.89,4.89,0,0,0,1.34,3.47,4.29,4.29,0,0,0,6.45,0,5.15,5.15,0,0,0,0-6.9,4.18,4.18,0,0,0-3.23-1.47,4.25,4.25,0,0,0-3.24,1.45A5,5,0,0,0,105.49,708.4Z"/><path class="cls-2" d="M122.77,714.54a1,1,0,0,1-.34.75,1.12,1.12,0,0,1-.77.31,1.06,1.06,0,0,1-1-1.06v-7.88a1,1,0,0,1,.31-.75,1.06,1.06,0,0,1,.75-.31,1,1,0,0,1,1,.62,3.91,3.91,0,0,1,2.12-.62,4.18,4.18,0,0,1,4.18,4.16v4.78a1,1,0,0,1-.3.75,1,1,0,0,1-.73.31,1,1,0,0,1-.75-.31,1,1,0,0,1-.32-.75v-4.78a2,2,0,0,0-.61-1.43,2.06,2.06,0,0,0-1.46-.59,1.92,1.92,0,0,0-1.43.59,2,2,0,0,0-.58,1.43Z"/><path class="cls-2" d="M133.51,710.66a1.2,1.2,0,0,1-1.18-1.19,1.2,1.2,0,0,1,1.18-1.19h3.76a1.16,1.16,0,0,1,.83.35,1.18,1.18,0,0,1,.35.84,1.15,1.15,0,0,1-.35.84,1.12,1.12,0,0,1-.83.35Z"/><path class="cls-2" d="M141,714.52V702.68a1,1,0,0,1,.32-.76,1.06,1.06,0,0,1,.77-.32,1.09,1.09,0,0,1,1.09,1.08v3.76a4.56,4.56,0,0,1,2.68-.84,4.63,4.63,0,0,1,3.44,1.48,5,5,0,0,1,1.42,3.53,4.91,4.91,0,0,1-1.42,3.52,4.62,4.62,0,0,1-3.44,1.47,4.67,4.67,0,0,1-2.72-.86,1.14,1.14,0,0,1-.37.61,1,1,0,0,1-.71.25,1,1,0,0,1-.74-.32A1,1,0,0,1,141,714.52Zm6.76-5.9a2.57,2.57,0,0,0-3.8,0,2.84,2.84,0,0,0-.78,2,2.75,2.75,0,0,0,.79,2,2.48,2.48,0,0,0,1.89.83,2.51,2.51,0,0,0,1.89-.83,2.79,2.79,0,0,0,.79-2A2.84,2.84,0,0,0,147.79,708.62Z"/><path class="cls-2" d="M158.59,715.66a4.51,4.51,0,0,1-3.42-1.48,4.92,4.92,0,0,1-1.4-3.54,5,5,0,0,1,1.41-3.55,4.51,4.51,0,0,1,3.39-1.49,4.44,4.44,0,0,1,3.37,1.51,5.17,5.17,0,0,1,1.39,3.59,4.59,4.59,0,0,1-1.4,3.44A4.22,4.22,0,0,1,158.59,715.66Zm-1.92-7.12a3.1,3.1,0,0,0-.72,2.08,3.22,3.22,0,0,0,.72,2.12,2.76,2.76,0,0,0,3.76,0,3.07,3.07,0,0,0,.78-2.12,3,3,0,0,0-.78-2.08,2.71,2.71,0,0,0-3.76,0Z"/><path class="cls-2" d="M175.79,714.52a1,1,0,0,1-.32.76,1,1,0,0,1-.74.32,1.09,1.09,0,0,1-1.08-.86,4.69,4.69,0,0,1-2.72.86,4.59,4.59,0,0,1-3.44-1.47,4.87,4.87,0,0,1-1.42-3.52,4.92,4.92,0,0,1,1.42-3.53,4.72,4.72,0,0,1,6.12-.64v-3.76a1,1,0,0,1,.32-.76,1.06,1.06,0,0,1,.77-.32,1.09,1.09,0,0,1,1.09,1.08Zm-4.86-1.1a2.51,2.51,0,0,0,1.89-.83,2.79,2.79,0,0,0,.79-2,2.84,2.84,0,0,0-.78-2,2.57,2.57,0,0,0-3.8,0,2.84,2.84,0,0,0-.78,2,2.75,2.75,0,0,0,.79,2A2.48,2.48,0,0,0,170.93,713.42Z"/><path class="cls-2" d="M185.65,705.9a1,1,0,0,1,.74-.3,1.1,1.1,0,0,1,.76.31,1,1,0,0,1,.32.75v7.56a4.75,4.75,0,0,1-4.78,4.78,4.44,4.44,0,0,1-2.06-.5.94.94,0,0,1-.56-.59,1.09,1.09,0,0,1,0-.83,1.07,1.07,0,0,1,.63-.5,1.19,1.19,0,0,1,.91.1,2.55,2.55,0,0,0,1.2.23,2.37,2.37,0,0,0,1.41-.52,2.48,2.48,0,0,0,.93-1.29,3.78,3.78,0,0,1-1.9.48,4,4,0,0,1-2.95-1.24,4,4,0,0,1-1.23-3v-4.72a1.06,1.06,0,0,1,1.8-.76,1,1,0,0,1,.3.76v4.72a1.91,1.91,0,0,0,.61,1.45,2.11,2.11,0,0,0,2.93,0,1.94,1.94,0,0,0,.6-1.45v-4.72A1,1,0,0,1,185.65,705.9Z"/><path class="cls-2" d="M112,735.34c0-1-1.18-1.74-3.52-2.18h0a11.3,11.3,0,0,1-2.7-.84,3.78,3.78,0,0,1-1.67-1.39,3.19,3.19,0,0,1-.53-1.75,3.41,3.41,0,0,1,1.53-2.86,5.93,5.93,0,0,1,5.33-.82,8,8,0,0,1,1.37.56l1.19.74a1.07,1.07,0,0,1,.43.66,1,1,0,0,1-.14.77,1,1,0,0,1-.65.44,1,1,0,0,1-.78-.15,11.87,11.87,0,0,0-1.67-1,3.91,3.91,0,0,0-1.55-.32,3.57,3.57,0,0,0-2.16.62,1.72,1.72,0,0,0-.84,1.32,1,1,0,0,0,.16.58c.37.62,1.38,1.08,3,1.38h0a13,13,0,0,1,2.76.84c1.65.82,2.48,1.94,2.48,3.36a3.63,3.63,0,0,1-1.64,3,6.25,6.25,0,0,1-3.78,1.19,8.25,8.25,0,0,1-5.12-2,1,1,0,0,1-.37-.7.94.94,0,0,1,.21-.76,1,1,0,0,1,.7-.37,1,1,0,0,1,.76.23,5.93,5.93,0,0,0,3.82,1.54,4,4,0,0,0,2.43-.69A1.9,1.9,0,0,0,112,735.34Z"/><path class="cls-2" d="M126,734.34a.93.93,0,0,1-.29.71,1.1,1.1,0,0,1-.77.27h-6.36a2.32,2.32,0,0,0,.68,1.32,2.77,2.77,0,0,0,1.87.89,2.92,2.92,0,0,0,2.13-.49,1,1,0,0,1,.8-.32.86.86,0,0,1,.7.26.9.9,0,0,1,0,1.3,5,5,0,0,1-3.53,1.31,4.64,4.64,0,0,1-3.5-1.47,4.93,4.93,0,0,1-1.43-3.52,5,5,0,0,1,1.43-3.53,4.54,4.54,0,0,1,3.41-1.47,4.72,4.72,0,0,1,3.37,1.31,4.87,4.87,0,0,1,1.49,3.33Zm-4.82-2.84a2.8,2.8,0,0,0-1.86.72,2.58,2.58,0,0,0-.84,1.4h5.66a2.8,2.8,0,0,0-1-1.36A3.5,3.5,0,0,0,121.13,731.5Z"/><path class="cls-2" d="M131.29,738.54a1,1,0,0,1-.34.75,1.12,1.12,0,0,1-.77.31,1.06,1.06,0,0,1-1.05-1.06v-7.88a1.07,1.07,0,0,1,2-.44,3.91,3.91,0,0,1,2.12-.62,4.18,4.18,0,0,1,4.18,4.16v4.78a1,1,0,0,1-.3.75,1,1,0,0,1-.73.31,1,1,0,0,1-.75-.31,1,1,0,0,1-.32-.75v-4.78a2,2,0,0,0-.61-1.43,2.06,2.06,0,0,0-1.46-.59,1.92,1.92,0,0,0-1.43.59,2,2,0,0,0-.58,1.43Z"/><path class="cls-2" d="M147.57,730.7a1,1,0,0,1,.45.67,1.14,1.14,0,0,1-.13.81,1,1,0,0,1-.67.45,1,1,0,0,1-.81-.17,3.7,3.7,0,0,0-1.85-.74,1.86,1.86,0,0,0-1.19.36c-.22.15-.32.28-.32.39a.41.41,0,0,0,0,.25.49.49,0,0,0,.21.18,3.91,3.91,0,0,0,1.46.48l0,0h0a9.36,9.36,0,0,1,1.94.6,2.91,2.91,0,0,1,1.3,1.1,2.69,2.69,0,0,1,.42,1.38,2.76,2.76,0,0,1-1.26,2.32,4.44,4.44,0,0,1-2.6.8,5.68,5.68,0,0,1-3.56-1.38,1,1,0,0,1-.37-.71.93.93,0,0,1,.23-.77,1,1,0,0,1,.72-.4,1.07,1.07,0,0,1,.78.24,3.29,3.29,0,0,0,2.2.88,2.45,2.45,0,0,0,1.36-.38q.36-.3.36-.51a.52.52,0,0,0-.06-.29A.88.88,0,0,0,146,736a4.59,4.59,0,0,0-1.6-.56h0a6.94,6.94,0,0,1-1.85-.58,3.08,3.08,0,0,1-1.27-1.1,2.33,2.33,0,0,1-.34-1.26,2.69,2.69,0,0,1,1.18-2.2,4.28,4.28,0,0,1,2.47-.74A5.42,5.42,0,0,1,147.57,730.7Z"/><path class="cls-2" d="M155.59,739.66a4.51,4.51,0,0,1-3.42-1.48,4.92,4.92,0,0,1-1.4-3.54,5,5,0,0,1,1.41-3.55,4.51,4.51,0,0,1,3.39-1.49,4.44,4.44,0,0,1,3.37,1.51,5.17,5.17,0,0,1,1.39,3.59,4.59,4.59,0,0,1-1.4,3.44A4.22,4.22,0,0,1,155.59,739.66Zm-1.92-7.12a3.1,3.1,0,0,0-.72,2.08,3.22,3.22,0,0,0,.72,2.12,2.76,2.76,0,0,0,3.76,0,3.07,3.07,0,0,0,.78-2.12,3,3,0,0,0-.78-2.08,2.71,2.71,0,0,0-3.76,0Z"/><path class="cls-2" d="M165.89,730.8a3.14,3.14,0,0,1,1.26-.87,3.83,3.83,0,0,1,1.46-.32,1.41,1.41,0,0,1,1,.31,1,1,0,0,1,.31.73,1.06,1.06,0,0,1-.31.75,1,1,0,0,1-.75.32c-1.24,0-2.22,1-2.94,3v3.8a1,1,0,0,1-.32.75,1.06,1.06,0,0,1-.77.31,1,1,0,0,1-.76-.31,1,1,0,0,1-.31-.75v-7.88a1,1,0,0,1,.31-.74,1,1,0,0,1,.76-.3,1.1,1.1,0,0,1,.77.3,1,1,0,0,1,.32.74Z"/><path class="cls-2" d="M178.69,730.7a1,1,0,0,1,.45.67,1.14,1.14,0,0,1-.13.81,1,1,0,0,1-.67.45,1,1,0,0,1-.81-.17,3.7,3.7,0,0,0-1.85-.74,1.86,1.86,0,0,0-1.19.36c-.22.15-.32.28-.32.39a.41.41,0,0,0,.05.25.49.49,0,0,0,.21.18,3.91,3.91,0,0,0,1.46.48l0,0h0a9.36,9.36,0,0,1,1.94.6,2.91,2.91,0,0,1,1.3,1.1,2.69,2.69,0,0,1,.42,1.38,2.76,2.76,0,0,1-1.26,2.32,4.44,4.44,0,0,1-2.6.8,5.68,5.68,0,0,1-3.56-1.38,1,1,0,0,1-.37-.71.93.93,0,0,1,.23-.77,1,1,0,0,1,.72-.4,1.07,1.07,0,0,1,.78.24,3.29,3.29,0,0,0,2.2.88,2.45,2.45,0,0,0,1.36-.38q.36-.3.36-.51a.52.52,0,0,0-.06-.29.88.88,0,0,0-.26-.24,4.59,4.59,0,0,0-1.6-.56h0a6.94,6.94,0,0,1-1.85-.58,3.08,3.08,0,0,1-1.27-1.1,2.33,2.33,0,0,1-.34-1.26,2.69,2.69,0,0,1,1.18-2.2,4.28,4.28,0,0,1,2.47-.74A5.42,5.42,0,0,1,178.69,730.7Z"/><line class="cls-1" x1="981" y1="577.5" x2="981" y2="692.5"/><path class="cls-1" d="M981,694a1.5,1.5,0,0,1-1.5-1.5v-115a1.5,1.5,0,0,1,3,0v115A1.5,1.5,0,0,1,981,694Z"/><path class="cls-2" d="M995.93,630.6a1.09,1.09,0,0,1-1.1-1.1V617.7a1.09,1.09,0,0,1,1.1-1.1h6.54a1.09,1.09,0,0,1,.77.32,1.12,1.12,0,0,1-.77,1.9h-5.42v3.66h4.66a1.13,1.13,0,0,1,1.1,1.11,1.1,1.1,0,0,1-.32.78,1.07,1.07,0,0,1-.78.33h-4.66v3.68h5.42a1.11,1.11,0,0,1,0,2.22H996l0,0Z"/><path class="cls-2" d="M1007.53,630.6l-.2,0a1.11,1.11,0,0,1-.62-.38,1,1,0,0,1-.24-.66v-7.86a1,1,0,0,1,.31-.77,1,1,0,0,1,.75-.31,1,1,0,0,1,1,.6,4.15,4.15,0,0,1,2.14-.6,4,4,0,0,1,3.14,1.38,3.78,3.78,0,0,1,3-1.38,4.15,4.15,0,0,1,3.06,1.23,4.08,4.08,0,0,1,1.22,3v4.74a1.07,1.07,0,0,1-1.82.75,1,1,0,0,1-.32-.75V624.8a2,2,0,0,0-.6-1.46,2,2,0,0,0-1.43-.6,2.08,2.08,0,0,0-2.07,2v4.8a1,1,0,0,1-.31.75,1,1,0,0,1-.74.31,1,1,0,0,1-.76-.32,1,1,0,0,1-.33-.74v-4.8a2,2,0,0,0-.62-1.41,2,2,0,0,0-1.43-.59,1.94,1.94,0,0,0-1.43.6,2,2,0,0,0-.6,1.46v4.74l0,.14v.06l-.06.12v.1A1.06,1.06,0,0,1,1007.53,630.6Z"/><path class="cls-2" d="M1034.49,625.34a.93.93,0,0,1-.29.71,1.1,1.1,0,0,1-.77.27h-6.36a2.32,2.32,0,0,0,.68,1.32,2.77,2.77,0,0,0,1.87.89,2.92,2.92,0,0,0,2.13-.49,1,1,0,0,1,.8-.32.86.86,0,0,1,.7.26.9.9,0,0,1,0,1.3,5,5,0,0,1-3.53,1.31,4.64,4.64,0,0,1-3.5-1.47,4.93,4.93,0,0,1-1.43-3.52,5,5,0,0,1,1.43-3.53,4.54,4.54,0,0,1,3.41-1.47,4.72,4.72,0,0,1,3.37,1.31,4.87,4.87,0,0,1,1.49,3.33Zm-4.82-2.84a2.8,2.8,0,0,0-1.86.72,2.58,2.58,0,0,0-.84,1.4h5.66a2.8,2.8,0,0,0-1-1.36A3.5,3.5,0,0,0,1029.67,622.5Z"/><path class="cls-2" d="M1039.83,621.8a3.14,3.14,0,0,1,1.26-.87,3.83,3.83,0,0,1,1.46-.32,1.41,1.41,0,0,1,1,.31,1,1,0,0,1,.31.73,1.06,1.06,0,0,1-.31.75,1,1,0,0,1-.75.32c-1.24,0-2.22,1-2.94,3v3.8a1,1,0,0,1-.32.75,1.06,1.06,0,0,1-.77.31,1,1,0,0,1-.76-.31,1,1,0,0,1-.31-.75v-7.88a1,1,0,0,1,.31-.74,1,1,0,0,1,.76-.3,1.1,1.1,0,0,1,.77.3,1,1,0,0,1,.32.74Z"/><path class="cls-2" d="M1047.19,629.16a4.82,4.82,0,0,1-1.4-3.51,5,5,0,0,1,1.4-3.56,4.65,4.65,0,0,1,6.08-.65,1,1,0,0,1,.38-.6,1.09,1.09,0,0,1,.71-.24,1,1,0,0,1,.72.31,1.06,1.06,0,0,1,.31.75v7.72a4.81,4.81,0,0,1-4.8,4.8,4.4,4.4,0,0,1-2.1-.5.94.94,0,0,1-.54-.61,1,1,0,0,1,.06-.83,1.05,1.05,0,0,1,.61-.54,1.14,1.14,0,0,1,.83,0,2.68,2.68,0,0,0,1.31.28,2.35,2.35,0,0,0,1.52-.61,2.72,2.72,0,0,0,.93-1.53,4.48,4.48,0,0,1-2.62.8A4.41,4.41,0,0,1,1047.19,629.16Zm.76-3.5a2.89,2.89,0,0,0,.76,2,2.43,2.43,0,0,0,1.89.84,2.47,2.47,0,0,0,1.89-.82,2.89,2.89,0,0,0,.76-2,3,3,0,0,0-.77-2.07,2.47,2.47,0,0,0-1.87-.85,2.43,2.43,0,0,0-1.88.87A3,3,0,0,0,1048,625.66Z"/><path class="cls-2" d="M1068.65,625.34a.93.93,0,0,1-.29.71,1.1,1.1,0,0,1-.77.27h-6.36a2.32,2.32,0,0,0,.68,1.32,2.77,2.77,0,0,0,1.87.89,2.92,2.92,0,0,0,2.13-.49,1,1,0,0,1,.8-.32.86.86,0,0,1,.7.26.9.9,0,0,1,0,1.3,5,5,0,0,1-3.53,1.31,4.64,4.64,0,0,1-3.5-1.47,4.93,4.93,0,0,1-1.43-3.52,5,5,0,0,1,1.43-3.53,4.54,4.54,0,0,1,3.41-1.47,4.72,4.72,0,0,1,3.37,1.31,4.87,4.87,0,0,1,1.49,3.33Zm-4.82-2.84a2.8,2.8,0,0,0-1.86.72,2.58,2.58,0,0,0-.84,1.4h5.66a2.8,2.8,0,0,0-1-1.36A3.5,3.5,0,0,0,1063.83,622.5Z"/><path class="cls-2" d="M1074,629.54a1,1,0,0,1-.34.75,1.12,1.12,0,0,1-.77.31,1.06,1.06,0,0,1-1.05-1.06v-7.88a1.07,1.07,0,0,1,2-.44,3.91,3.91,0,0,1,2.12-.62,4.18,4.18,0,0,1,4.18,4.16v4.78a1,1,0,0,1-.3.75,1,1,0,0,1-.73.31,1,1,0,0,1-.75-.31,1,1,0,0,1-.32-.75v-4.78a2,2,0,0,0-.61-1.43,2.06,2.06,0,0,0-1.46-.59,1.92,1.92,0,0,0-1.43.59,2,2,0,0,0-.58,1.43Z"/><path class="cls-2" d="M1084.89,629.13a4.89,4.89,0,0,1,0-7,5.06,5.06,0,0,1,3.58-1.48,5.14,5.14,0,0,1,3.18,1.1,1.07,1.07,0,0,1,.4.71,1,1,0,0,1-.21.79,1,1,0,0,1-.7.4.93.93,0,0,1-.77-.22,3.35,3.35,0,0,0-2-.64,2.78,2.78,0,0,0-2,.86,2.74,2.74,0,0,0-.88,2,2.7,2.7,0,0,0,.87,2,2.75,2.75,0,0,0,2,.85,3.31,3.31,0,0,0,2-.64,1,1,0,0,1,.76-.2,1.09,1.09,0,0,1,.71.4,1,1,0,0,1,.21.77,1.19,1.19,0,0,1-.4.73,5.35,5.35,0,0,1-3.18,1.06A4.93,4.93,0,0,1,1084.89,629.13Z"/><path class="cls-2" d="M1101.23,620.9a1,1,0,0,1,.74-.3,1.1,1.1,0,0,1,.76.31,1,1,0,0,1,.32.75v7.56a4.75,4.75,0,0,1-4.78,4.78,4.44,4.44,0,0,1-2.06-.5.94.94,0,0,1-.56-.59,1.09,1.09,0,0,1,0-.83,1.07,1.07,0,0,1,.63-.5,1.19,1.19,0,0,1,.91.1,2.55,2.55,0,0,0,1.2.23,2.37,2.37,0,0,0,1.41-.52,2.48,2.48,0,0,0,.93-1.29,3.78,3.78,0,0,1-1.9.48,4,4,0,0,1-2.95-1.24,4,4,0,0,1-1.23-3v-4.72a1.06,1.06,0,0,1,1.8-.76,1,1,0,0,1,.3.76v4.72a1.91,1.91,0,0,0,.61,1.45,2.11,2.11,0,0,0,2.93,0,1.94,1.94,0,0,0,.6-1.45v-4.72A1,1,0,0,1,1101.23,620.9Z"/><path class="cls-2" d="M1002,648.18a3.47,3.47,0,0,1,1.36,2.9,4.83,4.83,0,0,0,.08,1.18,1.05,1.05,0,0,1,.7.69,1,1,0,0,1-.16,1,1.14,1.14,0,0,1-1,.46h0a1.56,1.56,0,0,1-1.42-.92,5.62,5.62,0,0,1-.42-2.4,1.75,1.75,0,0,0-.84-1.44,3.83,3.83,0,0,0-1.12-.48h-2.36v4.34a1,1,0,0,1-.33.78,1.06,1.06,0,0,1-.79.32,1.09,1.09,0,0,1-1.1-1.1V641.7a1.09,1.09,0,0,1,1.1-1.1h3.58a4.12,4.12,0,0,1,3,1.26,4.3,4.3,0,0,1,1.25,3.14A4,4,0,0,1,1002,648.18Zm-2.72-1.24a2,2,0,0,0,1.46-.6,2,2,0,0,0,.6-1.45,2,2,0,0,0-.6-1.46,2,2,0,0,0-1.46-.61h-2.46v4.12Z"/><path class="cls-2" d="M1016.11,649.34a.93.93,0,0,1-.29.71,1.08,1.08,0,0,1-.77.27h-6.36a2.32,2.32,0,0,0,.68,1.32,2.77,2.77,0,0,0,1.87.89,2.92,2.92,0,0,0,2.13-.49,1,1,0,0,1,.8-.32.86.86,0,0,1,.7.26.9.9,0,0,1,0,1.3,5,5,0,0,1-3.53,1.31,4.64,4.64,0,0,1-3.5-1.47,4.93,4.93,0,0,1-1.43-3.52,5,5,0,0,1,1.43-3.53,4.56,4.56,0,0,1,3.41-1.47,4.7,4.7,0,0,1,3.37,1.31,4.87,4.87,0,0,1,1.49,3.33Zm-4.82-2.84a2.8,2.8,0,0,0-1.86.72,2.58,2.58,0,0,0-.84,1.4h5.66a2.8,2.8,0,0,0-1-1.36A3.5,3.5,0,0,0,1011.29,646.5Z"/><path class="cls-2" d="M1025.47,645.7a1,1,0,0,1,.45.67,1.14,1.14,0,0,1-.13.81,1,1,0,0,1-.67.45,1,1,0,0,1-.81-.17,3.7,3.7,0,0,0-1.85-.74,1.86,1.86,0,0,0-1.19.36c-.22.15-.32.28-.32.39a.41.41,0,0,0,0,.25.49.49,0,0,0,.21.18,3.91,3.91,0,0,0,1.46.48l0,0h0a9.36,9.36,0,0,1,1.94.6,2.91,2.91,0,0,1,1.3,1.1,2.69,2.69,0,0,1,.42,1.38,2.76,2.76,0,0,1-1.26,2.32,4.44,4.44,0,0,1-2.6.8,5.68,5.68,0,0,1-3.56-1.38,1,1,0,0,1-.37-.71.93.93,0,0,1,.23-.77,1,1,0,0,1,.72-.4,1.07,1.07,0,0,1,.78.24,3.29,3.29,0,0,0,2.2.88,2.45,2.45,0,0,0,1.36-.38q.36-.3.36-.51a.52.52,0,0,0-.06-.29.88.88,0,0,0-.26-.24,4.59,4.59,0,0,0-1.6-.56h0a6.94,6.94,0,0,1-1.85-.58,3.08,3.08,0,0,1-1.27-1.1,2.33,2.33,0,0,1-.34-1.26,2.69,2.69,0,0,1,1.18-2.2,4.28,4.28,0,0,1,2.47-.74A5.42,5.42,0,0,1,1025.47,645.7Z"/><path class="cls-2" d="M1031,658a1.07,1.07,0,0,1-.78.33,1.11,1.11,0,0,1-1.09-1.08V645.66a1.06,1.06,0,0,1,1-1.06,1.19,1.19,0,0,1,.74.24,1,1,0,0,1,.37.58,4.93,4.93,0,0,1,2.72-.82,4.6,4.6,0,0,1,3.42,1.48,5,5,0,0,1,1.42,3.54,4.84,4.84,0,0,1-1.42,3.51,4.61,4.61,0,0,1-3.42,1.45,4.44,4.44,0,0,1-2.68-.82v3.52A1,1,0,0,1,1031,658Zm4.89-10.43a2.56,2.56,0,0,0-1.9-.82,2.48,2.48,0,0,0-1.89.83,2.92,2.92,0,0,0-.77,2.07,2.46,2.46,0,0,0,.78,1.94,2.41,2.41,0,0,0,1.87.84,2.52,2.52,0,0,0,1.9-.84,2.83,2.83,0,0,0,.79-2A3,3,0,0,0,1035.89,647.6Z"/><path class="cls-2" d="M1046.69,654.66a4.51,4.51,0,0,1-3.42-1.48,4.92,4.92,0,0,1-1.4-3.54,5,5,0,0,1,1.41-3.55,4.51,4.51,0,0,1,3.39-1.49,4.44,4.44,0,0,1,3.37,1.51,5.17,5.17,0,0,1,1.39,3.59,4.59,4.59,0,0,1-1.4,3.44A4.22,4.22,0,0,1,1046.69,654.66Zm-1.92-7.12a3.1,3.1,0,0,0-.72,2.08,3.22,3.22,0,0,0,.72,2.12,2.76,2.76,0,0,0,3.76,0,3.07,3.07,0,0,0,.78-2.12,3,3,0,0,0-.78-2.08,2.71,2.71,0,0,0-3.76,0Z"/><path class="cls-2" d="M1057,653.54a1,1,0,0,1-.34.75,1.12,1.12,0,0,1-.77.31,1.06,1.06,0,0,1-1.05-1.06v-7.88a1.07,1.07,0,0,1,2-.44,3.91,3.91,0,0,1,2.12-.62,4.18,4.18,0,0,1,4.18,4.16v4.78a1,1,0,0,1-.3.75,1,1,0,0,1-.73.31,1,1,0,0,1-.75-.31,1,1,0,0,1-.32-.75v-4.78a2,2,0,0,0-.61-1.43,2.06,2.06,0,0,0-1.46-.59,1.92,1.92,0,0,0-1.43.59,2,2,0,0,0-.58,1.43Z"/><path class="cls-2" d="M1073.27,645.7a1,1,0,0,1,.45.67,1.14,1.14,0,0,1-.13.81,1,1,0,0,1-.67.45,1,1,0,0,1-.81-.17,3.7,3.7,0,0,0-1.85-.74,1.86,1.86,0,0,0-1.19.36c-.22.15-.32.28-.32.39a.41.41,0,0,0,0,.25.49.49,0,0,0,.21.18,3.91,3.91,0,0,0,1.46.48l0,0h0a9.36,9.36,0,0,1,1.94.6,2.91,2.91,0,0,1,1.3,1.1,2.69,2.69,0,0,1,.42,1.38,2.76,2.76,0,0,1-1.26,2.32,4.44,4.44,0,0,1-2.6.8,5.68,5.68,0,0,1-3.56-1.38,1,1,0,0,1-.37-.71.93.93,0,0,1,.23-.77,1,1,0,0,1,.72-.4,1.07,1.07,0,0,1,.78.24,3.29,3.29,0,0,0,2.2.88,2.45,2.45,0,0,0,1.36-.38q.36-.3.36-.51a.52.52,0,0,0-.06-.29.88.88,0,0,0-.26-.24,4.59,4.59,0,0,0-1.6-.56h0a6.94,6.94,0,0,1-1.85-.58,3.08,3.08,0,0,1-1.27-1.1,2.33,2.33,0,0,1-.34-1.26,2.69,2.69,0,0,1,1.18-2.2,4.28,4.28,0,0,1,2.47-.74A5.42,5.42,0,0,1,1073.27,645.7Z"/><path class="cls-2" d="M1085.93,649.34a.93.93,0,0,1-.29.71,1.1,1.1,0,0,1-.77.27h-6.36a2.32,2.32,0,0,0,.68,1.32,2.77,2.77,0,0,0,1.87.89,2.92,2.92,0,0,0,2.13-.49,1,1,0,0,1,.8-.32.86.86,0,0,1,.7.26.9.9,0,0,1,0,1.3,5,5,0,0,1-3.53,1.31,4.64,4.64,0,0,1-3.5-1.47,4.93,4.93,0,0,1-1.43-3.52,5,5,0,0,1,1.43-3.53,4.54,4.54,0,0,1,3.41-1.47,4.72,4.72,0,0,1,3.37,1.31,4.87,4.87,0,0,1,1.49,3.33Zm-4.82-2.84a2.8,2.8,0,0,0-1.86.72,2.58,2.58,0,0,0-.84,1.4h5.66a2.8,2.8,0,0,0-1-1.36A3.5,3.5,0,0,0,1081.11,646.5Z"/><line class="cls-1" x1="930" y1="866.99" x2="930" y2="791.99"/><path class="cls-1" d="M930,868.49a1.5,1.5,0,0,1-1.5-1.5V792a1.5,1.5,0,0,1,3,0v75A1.5,1.5,0,0,1,930,868.49Z"/><path class="cls-2" d="M946,826.71V835a1.09,1.09,0,0,1-.32.77,1,1,0,0,1-.77.33,1.09,1.09,0,0,1-1.09-1.1V823.37a.9.9,0,0,1,.39-.88,1.14,1.14,0,0,1,.87-.23,1.07,1.07,0,0,1,.7.43l6.46,8.94v-8.24a1.05,1.05,0,0,1,.32-.76,1,1,0,0,1,.76-.32,1.09,1.09,0,0,1,.77.32,1,1,0,0,1,.33.76V835a1,1,0,0,1-.33.78,1.12,1.12,0,0,1-.79.32,1,1,0,0,1-.8-.4.31.31,0,0,1-.1-.12Z"/><path class="cls-2" d="M967.21,832a4,4,0,0,1-1.25,2.93,4.16,4.16,0,0,1-5.9,0,4,4,0,0,1-1.23-2.94v-4.78a1,1,0,0,1,.31-.74,1,1,0,0,1,.75-.32,1,1,0,0,1,.75.32,1.05,1.05,0,0,1,.31.74V832a2,2,0,0,0,.59,1.45A2,2,0,0,0,963,834a2.08,2.08,0,0,0,2.1-2v-4.78a1,1,0,0,1,.3-.74,1,1,0,0,1,.73-.32,1.09,1.09,0,0,1,.76.32,1,1,0,0,1,.33.74Z"/><path class="cls-2" d="M973.45,827.31a3.14,3.14,0,0,1,1.26-.87,3.65,3.65,0,0,1,1.46-.32,1.41,1.41,0,0,1,1,.31,1,1,0,0,1,.31.73,1.06,1.06,0,0,1-.31.75,1,1,0,0,1-.75.32c-1.24,0-2.22,1-2.94,3v3.8a1,1,0,0,1-.32.75,1.06,1.06,0,0,1-.77.31,1.06,1.06,0,0,1-1.07-1.06v-7.88a1,1,0,0,1,.31-.74,1,1,0,0,1,.76-.3,1.1,1.1,0,0,1,.77.3,1,1,0,0,1,.32.74Z"/><path class="cls-2" d="M986.25,827.21a1,1,0,0,1,.45.67,1.14,1.14,0,0,1-.13.81,1,1,0,0,1-.67.45,1,1,0,0,1-.81-.17,3.7,3.7,0,0,0-1.85-.74,1.86,1.86,0,0,0-1.19.36c-.22.15-.32.28-.32.39a.43.43,0,0,0,0,.25.67.67,0,0,0,.21.18,3.91,3.91,0,0,0,1.46.48l0,0h0a8.29,8.29,0,0,1,1.94.6,2.85,2.85,0,0,1,1.3,1.1,2.69,2.69,0,0,1,.42,1.38,2.77,2.77,0,0,1-1.26,2.32,4.51,4.51,0,0,1-2.6.8,5.68,5.68,0,0,1-3.56-1.38,1,1,0,0,1-.37-.71.92.92,0,0,1,.23-.77,1,1,0,0,1,.72-.4,1,1,0,0,1,.78.24,3.34,3.34,0,0,0,2.2.88,2.53,2.53,0,0,0,1.36-.38q.36-.3.36-.51a.5.5,0,0,0-.06-.29.68.68,0,0,0-.26-.24,4.39,4.39,0,0,0-1.6-.56h0a7.32,7.32,0,0,1-1.85-.58,3.08,3.08,0,0,1-1.27-1.1,2.33,2.33,0,0,1-.34-1.26,2.67,2.67,0,0,1,1.18-2.2,4.28,4.28,0,0,1,2.47-.74A5.42,5.42,0,0,1,986.25,827.21Z"/><path class="cls-2" d="M998.91,830.85a.94.94,0,0,1-.29.71,1.1,1.1,0,0,1-.77.27h-6.36a2.39,2.39,0,0,0,.68,1.32A2.81,2.81,0,0,0,994,834a2.92,2.92,0,0,0,2.13-.49,1,1,0,0,1,.8-.32.86.86,0,0,1,.7.26.9.9,0,0,1,0,1.3,5,5,0,0,1-3.53,1.31,4.72,4.72,0,0,1-3.5-1.47,5.06,5.06,0,0,1,0-7,4.54,4.54,0,0,1,3.41-1.47,4.72,4.72,0,0,1,3.37,1.31,4.83,4.83,0,0,1,1.49,3.33ZM994.09,828a2.8,2.8,0,0,0-1.86.72,2.58,2.58,0,0,0-.84,1.4h5.66a2.75,2.75,0,0,0-1-1.36A3.5,3.5,0,0,0,994.09,828Z"/><line class="cls-1" x1="221" y1="357.49" x2="221" y2="454.49"/><path class="cls-1" d="M221,456a1.5,1.5,0,0,1-1.5-1.5v-97a1.5,1.5,0,0,1,3,0v97A1.5,1.5,0,0,1,221,456Z"/><path class="cls-2" d="M133.41,411.51v-11.8a1,1,0,0,1,.32-.78,1.06,1.06,0,0,1,.78-.32h2.36a6.7,6.7,0,0,1,4.94,2.05,7,7,0,0,1,0,9.9,6.7,6.7,0,0,1-4.94,2.05h-2.36a1.06,1.06,0,0,1-.78-.32A1,1,0,0,1,133.41,411.51Zm2.22-10.68v9.56h1.24a4.64,4.64,0,0,0,3.37-1.41,4.78,4.78,0,0,0-3.37-8.15Z"/><path class="cls-2" d="M151.93,412.67a4.51,4.51,0,0,1-3.42-1.48,5.17,5.17,0,0,1,0-7.09,4.51,4.51,0,0,1,3.39-1.49,4.41,4.41,0,0,1,3.37,1.51,5.15,5.15,0,0,1,1.39,3.59,4.61,4.61,0,0,1-1.4,3.44A4.25,4.25,0,0,1,151.93,412.67ZM150,405.55a3.08,3.08,0,0,0-.72,2.08,3.24,3.24,0,0,0,.72,2.12,2.76,2.76,0,0,0,3.76,0,3.09,3.09,0,0,0,.78-2.12,2.94,2.94,0,0,0-.78-2.08,2.71,2.71,0,0,0-3.76,0Z"/><path class="cls-2" d="M160.87,411.14a4.89,4.89,0,0,1,0-7.05,5.06,5.06,0,0,1,3.58-1.48,5.14,5.14,0,0,1,3.18,1.1,1,1,0,0,1,.4.71,1,1,0,0,1-.21.79,1,1,0,0,1-.7.4.93.93,0,0,1-.77-.22,3.28,3.28,0,0,0-2-.64,2.78,2.78,0,0,0-2,.86,2.76,2.76,0,0,0,0,4,2.75,2.75,0,0,0,2,.85,3.31,3.31,0,0,0,2-.64,1,1,0,0,1,.76-.2,1,1,0,0,1,.71.4,1,1,0,0,1,.21.77,1.19,1.19,0,0,1-.4.73,5.35,5.35,0,0,1-3.18,1.06A4.93,4.93,0,0,1,160.87,411.14Z"/><path class="cls-2" d="M174.87,402.61a1.12,1.12,0,0,1,.79.32,1,1,0,0,1,.33.77,1.07,1.07,0,0,1-.33.78,1.09,1.09,0,0,1-.79.33h-.5v5.58a1.07,1.07,0,0,1,.78.33,1.1,1.1,0,0,1,.32.79,1.06,1.06,0,0,1-.32.78,1.1,1.1,0,0,1-.78.32,2.14,2.14,0,0,1-1.57-.65,2.11,2.11,0,0,1-.65-1.57v-5.58h-.58a1.06,1.06,0,0,1-.78-.32,1.11,1.11,0,0,1,0-1.56,1.06,1.06,0,0,1,.78-.32h.58v-2.9a1,1,0,0,1,.33-.78,1.12,1.12,0,0,1,1.57,0,1.06,1.06,0,0,1,.32.78v2.9Z"/><path class="cls-2" d="M183.85,412.67a4.51,4.51,0,0,1-3.42-1.48,5.17,5.17,0,0,1,0-7.09,4.51,4.51,0,0,1,3.39-1.49,4.41,4.41,0,0,1,3.37,1.51,5.15,5.15,0,0,1,1.39,3.59,4.61,4.61,0,0,1-1.4,3.44A4.25,4.25,0,0,1,183.85,412.67Zm-1.92-7.12a3.08,3.08,0,0,0-.72,2.08,3.24,3.24,0,0,0,.72,2.12,2.76,2.76,0,0,0,3.76,0,3.09,3.09,0,0,0,.78-2.12,2.94,2.94,0,0,0-.78-2.08,2.71,2.71,0,0,0-3.76,0Z"/><path class="cls-2" d="M194.15,403.81a3.14,3.14,0,0,1,1.26-.87,3.65,3.65,0,0,1,1.46-.32,1.41,1.41,0,0,1,1,.31,1,1,0,0,1,.31.73,1.06,1.06,0,0,1-.31.75,1,1,0,0,1-.75.32c-1.24,0-2.22,1-2.94,3v3.8a1,1,0,0,1-.32.75,1.06,1.06,0,0,1-.77.31,1.06,1.06,0,0,1-1.07-1.06v-7.88a1,1,0,0,1,.31-.74,1,1,0,0,1,.76-.3,1.1,1.1,0,0,1,.77.3,1,1,0,0,1,.32.74Z"/><path class="cls-2" d="M207,403.71a1,1,0,0,1,.45.67,1.09,1.09,0,0,1-.13.81,1,1,0,0,1-.67.45,1,1,0,0,1-.81-.17,3.7,3.7,0,0,0-1.85-.74,1.86,1.86,0,0,0-1.19.36c-.21.15-.32.28-.32.39a.43.43,0,0,0,0,.25.67.67,0,0,0,.21.18,3.91,3.91,0,0,0,1.46.48l0,0h0a8.29,8.29,0,0,1,1.94.6,2.85,2.85,0,0,1,1.3,1.1,2.69,2.69,0,0,1,.42,1.38,2.77,2.77,0,0,1-1.26,2.32,4.51,4.51,0,0,1-2.6.8,5.68,5.68,0,0,1-3.56-1.38,1,1,0,0,1-.37-.71.92.92,0,0,1,.23-.77,1,1,0,0,1,.72-.4,1,1,0,0,1,.78.24,3.34,3.34,0,0,0,2.2.88,2.51,2.51,0,0,0,1.36-.38q.36-.3.36-.51a.5.5,0,0,0-.06-.29.61.61,0,0,0-.26-.24,4.32,4.32,0,0,0-1.6-.56h0a7.32,7.32,0,0,1-1.85-.58,3.08,3.08,0,0,1-1.27-1.1,2.33,2.33,0,0,1-.34-1.26,2.67,2.67,0,0,1,1.18-2.2,4.28,4.28,0,0,1,2.47-.74A5.42,5.42,0,0,1,207,403.71Z"/><line class="cls-1" x1="721" y1="1.5" x2="721" y2="116.5"/><path class="cls-1" d="M721,118a1.5,1.5,0,0,1-1.5-1.5V1.5a1.5,1.5,0,0,1,3,0v115A1.5,1.5,0,0,1,721,118Z"/><path class="cls-2" d="M657.51,50.34c0-1-1.18-1.74-3.52-2.18h0a11.3,11.3,0,0,1-2.7-.84,3.78,3.78,0,0,1-1.67-1.39,3.19,3.19,0,0,1-.53-1.75,3.41,3.41,0,0,1,1.53-2.86,5.87,5.87,0,0,1,3.53-1.12,5.8,5.8,0,0,1,1.8.3,8,8,0,0,1,1.37.56l1.19.74a1,1,0,0,1,.43.66,1,1,0,0,1-.14.77,1,1,0,0,1-.65.44,1,1,0,0,1-.78-.15,11.87,11.87,0,0,0-1.67-1,3.87,3.87,0,0,0-1.55-.32,3.57,3.57,0,0,0-2.16.62,1.72,1.72,0,0,0-.84,1.32,1,1,0,0,0,.16.58c.37.62,1.38,1.08,3,1.38h0a13,13,0,0,1,2.76.84c1.65.82,2.48,1.94,2.48,3.36a3.63,3.63,0,0,1-1.64,3,6.23,6.23,0,0,1-3.78,1.19,8.27,8.27,0,0,1-5.12-2,1,1,0,0,1-.37-.7,1,1,0,0,1,.21-.76,1.05,1.05,0,0,1,.7-.37,1,1,0,0,1,.76.23,5.93,5.93,0,0,0,3.82,1.54,4,4,0,0,0,2.43-.69A1.9,1.9,0,0,0,657.51,50.34Z"/><path class="cls-2" d="M663.49,54.6l-.2,0a1.15,1.15,0,0,1-.62-.38,1,1,0,0,1-.24-.66V45.68a1,1,0,0,1,.31-.77,1.06,1.06,0,0,1,.75-.31,1,1,0,0,1,1,.6,4.15,4.15,0,0,1,2.14-.6A4,4,0,0,1,669.73,46a3.78,3.78,0,0,1,3-1.38,4.14,4.14,0,0,1,3.06,1.23,4.08,4.08,0,0,1,1.22,3v4.74a1.07,1.07,0,0,1-1.82.75,1,1,0,0,1-.32-.75V48.8a2,2,0,0,0-.6-1.46,2,2,0,0,0-1.43-.6,2.08,2.08,0,0,0-2.07,2v4.8a1,1,0,0,1-.31.75,1,1,0,0,1-.74.31,1,1,0,0,1-.76-.32,1,1,0,0,1-.33-.74v-4.8a2,2,0,0,0-.62-1.41,2,2,0,0,0-1.43-.59,1.94,1.94,0,0,0-1.43.6,2,2,0,0,0-.6,1.46v4.74l0,.14v.06l-.06.12V54A1,1,0,0,1,663.49,54.6Z"/><path class="cls-2" d="M681.76,53.14a5.25,5.25,0,0,1,0-7.07,4.44,4.44,0,0,1,3.39-1.47,4.58,4.58,0,0,1,2.66.88,1.21,1.21,0,0,1,.38-.63,1,1,0,0,1,1.41.07,1.1,1.1,0,0,1,.31.76v7.86a1,1,0,0,1-.31.75,1,1,0,0,1-.72.31,1,1,0,0,1-.69-.24,1.11,1.11,0,0,1-.38-.62,4.49,4.49,0,0,1-2.66.86A4.43,4.43,0,0,1,681.76,53.14Zm.77-3.53a2.91,2.91,0,0,0,.73,2,2.38,2.38,0,0,0,1.88.82,2.46,2.46,0,0,0,1.9-.82,2.87,2.87,0,0,0,.75-2,3,3,0,0,0-.76-2,2.45,2.45,0,0,0-1.89-.84,2.39,2.39,0,0,0-1.87.83A3,3,0,0,0,682.53,49.61Z"/><path class="cls-2" d="M696,45.8a3.14,3.14,0,0,1,1.26-.87,3.83,3.83,0,0,1,1.46-.32,1.41,1.41,0,0,1,1,.31,1,1,0,0,1,.31.73,1.06,1.06,0,0,1-.31.75,1,1,0,0,1-.75.32c-1.24,0-2.22,1-2.94,3v3.8a1,1,0,0,1-.32.75,1.06,1.06,0,0,1-.77.31,1,1,0,0,1-.76-.31,1,1,0,0,1-.31-.75V45.66a1,1,0,0,1,.31-.74,1,1,0,0,1,.76-.3,1.1,1.1,0,0,1,.77.3,1,1,0,0,1,.32.74Z"/><path class="cls-2" d="M706,44.6a1.12,1.12,0,0,1,.79.32,1,1,0,0,1,.33.77,1.07,1.07,0,0,1-.33.78,1.09,1.09,0,0,1-.79.33h-.5v5.58a1.07,1.07,0,0,1,.78.33,1.12,1.12,0,0,1,.32.79,1.09,1.09,0,0,1-1.1,1.1,2.22,2.22,0,0,1-2.22-2.22V46.8h-.58a1.09,1.09,0,0,1-1.1-1.1,1.09,1.09,0,0,1,1.1-1.1h.58V41.7a1.07,1.07,0,0,1,.33-.78,1.1,1.1,0,0,1,.79-.32,1.08,1.08,0,0,1,.78.32,1.1,1.1,0,0,1,.32.78v2.9Z"/><path class="cls-2" d="M622.18,78.28a1.06,1.06,0,0,1-.79.32,1,1,0,0,1-.78-.32,1.06,1.06,0,0,1-.32-.78V65.7a1.1,1.1,0,0,1,.32-.78,1.06,1.06,0,0,1,.78-.32,1.1,1.1,0,0,1,.79.32,1.07,1.07,0,0,1,.33.78v4.8h5.18V65.7a1.1,1.1,0,0,1,.32-.78,1.06,1.06,0,0,1,.78-.32,1.1,1.1,0,0,1,.79.32,1.07,1.07,0,0,1,.33.78V77.5a1,1,0,0,1-.33.78,1.06,1.06,0,0,1-.79.32,1,1,0,0,1-.78-.32,1.06,1.06,0,0,1-.32-.78V72.7h-5.18v4.8A1,1,0,0,1,622.18,78.28Z"/><path class="cls-2" d="M638.61,78.66a4.51,4.51,0,0,1-3.42-1.48,4.92,4.92,0,0,1-1.4-3.54,5,5,0,0,1,1.41-3.55,4.51,4.51,0,0,1,3.39-1.49A4.44,4.44,0,0,1,642,70.11a5.17,5.17,0,0,1,1.39,3.59,4.59,4.59,0,0,1-1.4,3.44A4.21,4.21,0,0,1,638.61,78.66Zm-1.92-7.12a3.1,3.1,0,0,0-.72,2.08,3.22,3.22,0,0,0,.72,2.12,2.76,2.76,0,0,0,3.76,0,3.07,3.07,0,0,0,.78-2.12,3,3,0,0,0-.78-2.08,2.71,2.71,0,0,0-3.76,0Z"/><path class="cls-2" d="M652.93,69.7a1,1,0,0,1,.45.67,1.09,1.09,0,0,1-.13.81,1,1,0,0,1-.67.45,1,1,0,0,1-.81-.17,3.67,3.67,0,0,0-1.85-.74,1.87,1.87,0,0,0-1.19.36c-.21.15-.32.28-.32.39a.41.41,0,0,0,.05.25.49.49,0,0,0,.21.18,3.91,3.91,0,0,0,1.46.48l0,0h0a9.18,9.18,0,0,1,1.94.6,2.86,2.86,0,0,1,1.3,1.1,2.69,2.69,0,0,1,.42,1.38,2.76,2.76,0,0,1-1.26,2.32,4.44,4.44,0,0,1-2.6.8,5.68,5.68,0,0,1-3.56-1.38,1,1,0,0,1-.37-.71.93.93,0,0,1,.23-.77,1,1,0,0,1,.72-.4,1.06,1.06,0,0,1,.78.24,3.29,3.29,0,0,0,2.2.88,2.43,2.43,0,0,0,1.36-.38q.36-.3.36-.51a.52.52,0,0,0-.06-.29.77.77,0,0,0-.26-.24,4.51,4.51,0,0,0-1.6-.56h0a6.94,6.94,0,0,1-1.85-.58,3.08,3.08,0,0,1-1.27-1.1,2.33,2.33,0,0,1-.34-1.26,2.69,2.69,0,0,1,1.18-2.2,4.28,4.28,0,0,1,2.47-.74A5.39,5.39,0,0,1,652.93,69.7Z"/><path class="cls-2" d="M658.46,82a1.07,1.07,0,0,1-.78.33,1,1,0,0,1-.77-.33,1.06,1.06,0,0,1-.32-.75V69.66a1,1,0,0,1,.31-.75,1,1,0,0,1,.74-.31,1.19,1.19,0,0,1,.74.24,1,1,0,0,1,.37.58,5,5,0,0,1,2.72-.82,4.6,4.6,0,0,1,3.42,1.48,5,5,0,0,1,1.42,3.54,4.84,4.84,0,0,1-1.42,3.51,4.61,4.61,0,0,1-3.42,1.45,4.44,4.44,0,0,1-2.68-.82v3.52A1,1,0,0,1,658.46,82Zm4.89-10.43a2.54,2.54,0,0,0-1.9-.82,2.48,2.48,0,0,0-1.89.83,2.92,2.92,0,0,0-.77,2.07,2.46,2.46,0,0,0,.78,1.94,2.43,2.43,0,0,0,1.87.84,2.52,2.52,0,0,0,1.9-.84,2.79,2.79,0,0,0,.79-2A3,3,0,0,0,663.35,71.6Z"/><path class="cls-2" d="M672,65.68v.42a1.06,1.06,0,0,1-.31.78,1,1,0,0,1-.76.32,1,1,0,0,1-.77-.32,1.06,1.06,0,0,1-.32-.78v-.42a1.07,1.07,0,0,1,.32-.76,1.07,1.07,0,0,1,1.84.76Zm-1.85,3.25a1.08,1.08,0,0,1,1.85.79v7.8a1.07,1.07,0,0,1-1.84.76,1,1,0,0,1-.32-.76v-7.8A1.06,1.06,0,0,1,670.12,68.93Z"/><path class="cls-2" d="M678.79,68.6a1.1,1.1,0,0,1,.79.32,1,1,0,0,1,.33.77,1.13,1.13,0,0,1-1.12,1.11h-.5v5.58a1,1,0,0,1,.78.33,1.12,1.12,0,0,1,.32.79,1.06,1.06,0,0,1-.32.78,1,1,0,0,1-.78.32,2.11,2.11,0,0,1-1.57-.65,2.14,2.14,0,0,1-.65-1.57V70.8h-.58a1,1,0,0,1-.78-.32,1.06,1.06,0,0,1-.32-.78,1.1,1.1,0,0,1,.32-.78,1.06,1.06,0,0,1,.78-.32h.58V65.7a1.07,1.07,0,0,1,.33-.78,1.1,1.1,0,0,1,.79-.32,1.06,1.06,0,0,1,.78.32,1.1,1.1,0,0,1,.32.78v2.9Z"/><path class="cls-2" d="M683.72,77.14a5.25,5.25,0,0,1,0-7.07,4.44,4.44,0,0,1,3.39-1.47,4.58,4.58,0,0,1,2.66.88,1.21,1.21,0,0,1,.38-.63,1,1,0,0,1,1.41.07,1.1,1.1,0,0,1,.31.76v7.86a1,1,0,0,1-.31.75,1,1,0,0,1-.72.31,1,1,0,0,1-.69-.24,1.11,1.11,0,0,1-.38-.62,4.49,4.49,0,0,1-2.66.86A4.43,4.43,0,0,1,683.72,77.14Zm.77-3.53a2.91,2.91,0,0,0,.73,2,2.38,2.38,0,0,0,1.88.82,2.46,2.46,0,0,0,1.9-.82,2.87,2.87,0,0,0,.75-2,3,3,0,0,0-.76-2,2.45,2.45,0,0,0-1.89-.84,2.39,2.39,0,0,0-1.87.83A3,3,0,0,0,684.49,73.61Z"/><path class="cls-2" d="M695.93,65.7a1.09,1.09,0,0,1,1.1-1.1,1.12,1.12,0,0,1,.79.32,1.07,1.07,0,0,1,.33.78V77.5a1,1,0,0,1-.33.78,1.08,1.08,0,0,1-.79.32,1.09,1.09,0,0,1-1.1-1.1Z"/><path class="cls-2" d="M707,69.7a1,1,0,0,1,.45.67,1.09,1.09,0,0,1-.13.81,1,1,0,0,1-.67.45,1,1,0,0,1-.81-.17,3.7,3.7,0,0,0-1.85-.74,1.86,1.86,0,0,0-1.19.36c-.21.15-.32.28-.32.39a.41.41,0,0,0,.05.25.49.49,0,0,0,.21.18,3.91,3.91,0,0,0,1.46.48l0,0h0a9.36,9.36,0,0,1,1.94.6,2.91,2.91,0,0,1,1.3,1.1,2.69,2.69,0,0,1,.42,1.38,2.76,2.76,0,0,1-1.26,2.32,4.44,4.44,0,0,1-2.6.8,5.68,5.68,0,0,1-3.56-1.38,1,1,0,0,1-.37-.71.93.93,0,0,1,.23-.77,1,1,0,0,1,.72-.4,1.06,1.06,0,0,1,.78.24,3.29,3.29,0,0,0,2.2.88,2.43,2.43,0,0,0,1.36-.38q.36-.3.36-.51a.52.52,0,0,0-.06-.29.77.77,0,0,0-.26-.24,4.51,4.51,0,0,0-1.6-.56h0a6.94,6.94,0,0,1-1.85-.58,3.08,3.08,0,0,1-1.27-1.1,2.33,2.33,0,0,1-.34-1.26,2.69,2.69,0,0,1,1.18-2.2A4.28,4.28,0,0,1,704,68.6,5.42,5.42,0,0,1,707,69.7Z"/><path class="cls-3" d="M310.86,674.7a24.17,24.17,0,1,1-12.78-21.36,8,8,0,1,0,10.72,11.58A24,24,0,0,1,310.86,674.7Z"/><path class="cls-3" d="M323.89,820.86a2,2,0,0,1,.34,0v-2.94A13.35,13.35,0,0,1,323.89,820.86Z"/><path class="cls-4" d="M310.86,674.7a24.17,24.17,0,1,1-12.78-21.36,8,8,0,1,0,10.72,11.58A24,24,0,0,1,310.86,674.7Z"/><path class="cls-4" d="M324.23,817.88v2.94a2,2,0,0,0-.34,0A13.35,13.35,0,0,0,324.23,817.88Z"/><circle class="cls-4" cx="340.5" cy="792" r="8"/><path class="cls-4" d="M350.74,716.38v0a11.6,11.6,0,0,0-10.54-7.9H234.52c-.31,0-.62,0-.93,0h0c-.31,0-.63,0-1,0a10.3,10.3,0,0,0-10.3,10.3v82a10.3,10.3,0,0,0,20.59,0V731a3.15,3.15,0,1,1,6.3,0V919a15.5,15.5,0,1,0,31,0V828.77A6.41,6.41,0,0,1,286.6,823h.23a6.41,6.41,0,0,1,6.41,6.41V919a15.5,15.5,0,1,0,31,0V820.82a2,2,0,0,0-.34,0,13.35,13.35,0,0,0,.34-3V731a3.15,3.15,0,0,1,5.38-2.23,3.08,3.08,0,0,1,.81,1.4v70.58A10.16,10.16,0,0,0,332.5,807,10.29,10.29,0,0,0,351,800.79v-82A10.25,10.25,0,0,0,350.74,716.38ZM240.5,792.18a8.09,8.09,0,1,1,0-.18ZM264.5,916a8,8,0,1,1,8-8A8,8,0,0,1,264.5,916Zm30-176a8,8,0,1,1,8,8A8,8,0,0,1,294.5,740Zm16,176a8,8,0,1,1,8-8A8,8,0,0,1,310.5,916Zm30-116a8,8,0,1,1,8-8A8,8,0,0,1,340.5,800Z"/><path class="cls-2" d="M844.1,102.77H830.82V79.52a2.27,2.27,0,0,0-2.27-2.27H799a2.28,2.28,0,0,0-2.28,2.27v23.25h-13a1.8,1.8,0,0,0-1.8,1.8v30.68h64V104.57A1.81,1.81,0,0,0,844.1,102.77Zm-53.48,23.82a1,1,0,0,1-1,1H787a1,1,0,0,1-1-1V123a1,1,0,0,1,1-1h2.64a1,1,0,0,1,1,1Zm0-14.15a1,1,0,0,1-1,1H787a1,1,0,0,1-1-1v-3.57a1,1,0,0,1,1-1h2.64a1,1,0,0,1,1,1Zm8.59,14.15a1,1,0,0,1-.47.84h0a1,1,0,0,1-.53.15h-2.64a1,1,0,0,1-1-1V123a1,1,0,0,1,1-1h2.64a1,1,0,0,1,1,1Zm0-14.15a1,1,0,0,1-1,1h-2.64a1,1,0,0,1-1-1v-3.57a1,1,0,0,1,1-1h2.64a1,1,0,0,1,1,1Zm9.72-23.27a.94.94,0,0,1,.28-.66.87.87,0,0,1,.66-.28h2.42V85.86a1,1,0,0,1,1.65-.69.91.91,0,0,1,.29.69v2.37h2.42a.91.91,0,0,1,.67.28.93.93,0,0,1,.27.66.9.9,0,0,1-.27.66.94.94,0,0,1-.67.27h-2.42v2.37a.91.91,0,0,1-.29.69,1,1,0,0,1-1.65-.69V90.1h-2.42a.9.9,0,0,1-.66-.27A.91.91,0,0,1,808.93,89.17Zm8.88,34.75a.87.87,0,0,1-.28.66.91.91,0,0,1-.67.28.88.88,0,0,1-.67-.28.9.9,0,0,1-.27-.66v-4.09h-4.41v4.09a.91.91,0,0,1-.28.66.88.88,0,0,1-.39.23.71.71,0,0,1-.29,0,.87.87,0,0,1-.66-.28.9.9,0,0,1-.27-.66v-10a.9.9,0,0,1,.27-.66.87.87,0,0,1,.66-.28.93.93,0,0,1,.68.28.91.91,0,0,1,.28.66V118h4.41v-4.09a.9.9,0,0,1,.27-.66.88.88,0,0,1,.67-.28.91.91,0,0,1,.67.28.87.87,0,0,1,.28.66Zm14.57,2.67a.91.91,0,0,1-.09.41,1,1,0,0,1-.91.59h-2.64a1,1,0,0,1-.91-.59.91.91,0,0,1-.09-.41V123a1,1,0,0,1,1-1h2.64a1,1,0,0,1,1,1Zm0-14.15a1,1,0,0,1-1,1h-2.64a1,1,0,0,1-1-1v-3.57a1,1,0,0,1,1-1h2.64a1,1,0,0,1,1,1ZM841,126.59a.91.91,0,0,1-.09.41,1,1,0,0,1-.91.59h-2.64a1,1,0,0,1-.91-.59.91.91,0,0,1-.09-.41V123a1,1,0,0,1,1-1H840a1,1,0,0,1,1,1Zm0-14.15a1,1,0,0,1-1,1h-2.64a1,1,0,0,1-1-1v-3.57a1,1,0,0,1,1-1H840a1,1,0,0,1,1,1Z"/><path class="cls-2" d="M976.46,271.53a1.15,1.15,0,0,0,.33.74,2.46,2.46,0,0,0,1.22.85.81.81,0,0,1,.51,1,.79.79,0,0,1-.77.55.73.73,0,0,1-.25,0,4,4,0,0,1-2-1.42,2.38,2.38,0,0,1,.27-3.51,2.43,2.43,0,0,1,1-.54,2.49,2.49,0,0,0,.45-.2c.44-.26.92-.74.9-1s-.35-.48-.66-.72a2.41,2.41,0,0,0-.48-.3,3.1,3.1,0,0,0-1-.35.81.81,0,1,1,.31-1.59,5,5,0,0,1,2.13,1,4.39,4.39,0,0,1,1,1,1.93,1.93,0,0,1,.3.91c.09,1.4-1.4,2.35-1.7,2.53a3.32,3.32,0,0,1-.76.33,1,1,0,0,0-.4.21A1.07,1.07,0,0,0,976.46,271.53Z"/><path class="cls-2" d="M1008.88,295.83a2,2,0,0,1-1.45.64,2,2,0,0,1-1.32-.52L988.64,280l-.88-.8h0l-.89.8L970,295.19l-.73.66a2,2,0,0,1-1.32.51,1.94,1.94,0,0,1-1.43-.63l0,0a2,2,0,0,1,.14-2.77L981,280l5.53-5a1.93,1.93,0,0,1,1.22-.51h0A2,2,0,0,1,989,275l5.46,5,14.29,13.05A2,2,0,0,1,1008.88,295.83Z"/><path class="cls-2" d="M987.75,281l-15.66,13.9-.38.34,0,9.83,0,9.25a2.46,2.46,0,0,0,.8,1.13,2.33,2.33,0,0,0,1.13.49l11.2,0a1,1,0,0,1-1-1l0-10.27a1,1,0,0,1,1-1l5.72,0a1,1,0,0,1,1,1l0,10.27a1,1,0,0,1-1,1l11.2,0a2.39,2.39,0,0,0,1.13-.48,2.42,2.42,0,0,0,.81-1.13l.05-19.09Zm-7.35,28.57a.73.73,0,0,1-.73.73H976a.73.73,0,0,1-.72-.73v-3.72a.73.73,0,0,1,.73-.73h3.72a.73.73,0,0,1,.72.73Zm19.72.06a.73.73,0,0,1-.73.72h-3.72a.73.73,0,0,1-.73-.73v-3.72a.73.73,0,0,1,.73-.72h3.72a.73.73,0,0,1,.73.73Z"/><polygon class="cls-2" points="980.01 276.16 980 279.55 979.51 280 974.33 284.71 974.34 280 974.35 276.14 980.01 276.16"/><path class="cls-2" d="M931.58,522H886.05l-4.57,9.14h-4.4a3.07,3.07,0,0,0-3.07,3.07V537h60.64V525.07A3.07,3.07,0,0,0,931.58,522Zm-35,9.14h-13.1l3.74-7.48h9.36Zm21.9-2.49h-2.07v2.07h-1.66v-2.07h-2.08V527h2.08v-2.07h1.66V527h2.07Z"/><path class="cls-2" d="M927.59,539.45a5.55,5.55,0,0,0-5,0H886.87a5.51,5.51,0,0,0-5,0H874v1.08a3.07,3.07,0,0,0,3.07,3.07h1.81a4.57,4.57,0,0,0-.07.83,5.57,5.57,0,0,0,11.14,0,4.57,4.57,0,0,0-.07-.83H919.6a4.57,4.57,0,0,0-.07.83,5.47,5.47,0,0,0,.48,2.25,5.57,5.57,0,0,0,10.66-2.25,4.57,4.57,0,0,0-.07-.83h1a3.07,3.07,0,0,0,3.07-3.07v-1.08ZM884.39,548a3.58,3.58,0,0,1-3.57-3.57,3.2,3.2,0,0,1,.1-.83,3.57,3.57,0,0,1,3.47-2.74,3.53,3.53,0,0,1,2.82,1.39,3.46,3.46,0,0,1,.65,1.35,3.2,3.2,0,0,1,.1.83A3.57,3.57,0,0,1,884.39,548Zm40.71,0a3.58,3.58,0,0,1-3.57-3.57,3.2,3.2,0,0,1,.1-.83,3.57,3.57,0,0,1,6.94,0,3.2,3.2,0,0,1,.1.83A3.58,3.58,0,0,1,925.1,548Z"/><path class="cls-4" d="M529.91,126H491.09a5.6,5.6,0,0,0-5.59,5.59v24.82a5.6,5.6,0,0,0,5.59,5.59H509.5v7h-14a1,1,0,0,0,0,2h30a1,1,0,0,0,0-2h-14v-7h18.41a5.6,5.6,0,0,0,5.59-5.59V131.59A5.6,5.6,0,0,0,529.91,126Zm3.59,30.41a3.59,3.59,0,0,1-3.59,3.59H491.09a3.59,3.59,0,0,1-3.59-3.59V131.59a3.59,3.59,0,0,1,3.59-3.59h38.82a3.59,3.59,0,0,1,3.59,3.59Z"/><rect class="cls-2" x="487.5" y="128" width="46" height="32" rx="3.59"/><path class="cls-2" d="M813,866.92a29.86,29.86,0,0,0-5-10.71,1,1,0,0,1-.15-.67L808,855c.17-1,.35-2,.55-2.92a2.51,2.51,0,0,0-.55-2.19,12.8,12.8,0,0,0-4.75-3.63,24.81,24.81,0,0,0-8.71-2.21l-2.19-.2h-3c-.8.07-1.6.13-2.39.21a27.45,27.45,0,0,0-6.65,1.42,17.84,17.84,0,0,0-3.87,1.91,11.17,11.17,0,0,0-2.77,2.54,2.5,2.5,0,0,0-.53,2.16c.22,1,.38,1.93.54,2.91a.73.73,0,0,1-.13.54,26.21,26.21,0,0,0-5.4,11.84c-.21,1-.38,2.1-.5,3.16a42.5,42.5,0,0,0-.05,8.44q.08.82.18,1.65a49.88,49.88,0,0,0,1.67,8,.83.83,0,0,0,.52.6,23.76,23.76,0,0,0,11,1.91,1.35,1.35,0,0,1,.73.21,27,27,0,0,0,5.68,3,9.48,9.48,0,0,0,7.14,0,24.79,24.79,0,0,0,5.82-3.14,1.16,1.16,0,0,1,.82-.17,17.93,17.93,0,0,0,8.79-.38,18.61,18.61,0,0,0,2.33-1,1.12,1.12,0,0,0,.47-.58,41.69,41.69,0,0,0,1.57-9.74A42.14,42.14,0,0,0,813,866.92Zm-35.61-15.37a10.85,10.85,0,0,1,2.28-1.56,15,15,0,0,1,2.55-1,29.4,29.4,0,0,1,9.47-1.13,27.23,27.23,0,0,1,7.67,1.14,13.06,13.06,0,0,1,4.75,2.53.9.9,0,0,1,.33,1c-.17.85-.33,1.7-.49,2.55-.44,2.28-.88,4.57-1.3,6.86-.08.41-.21.67-.66.73-1.76.28-3.52.66-5.29.83-2,.2-4.05.2-5.39.26a65.07,65.07,0,0,1-9.8-.61,20.2,20.2,0,0,1-2.14-.52.66.66,0,0,1-.38-.42c-.65-3.28-1.26-6.57-1.9-9.85A.7.7,0,0,1,777.41,851.55Zm27.87,20.75a.63.63,0,0,0-.5.71,24.26,24.26,0,0,1-1.07,7.37,16.39,16.39,0,0,1-5.86,8,15.54,15.54,0,0,1-6.47,3.06,5.61,5.61,0,0,1-2.94-.49,17,17,0,0,1-8.75-7.35,17.89,17.89,0,0,1-2.79-8.19.59.59,0,0,0-.55-.62,5.93,5.93,0,0,1-2.84-1.42c-.17-.16-.3-.37-.51-.61.66-.12,1.22-.18,1.76-.32a13.18,13.18,0,0,0,6.9-4.05c.23-.26.46-.54.67-.83a.27.27,0,0,1,.07-.08q.58.3,1.29.6a36.71,36.71,0,0,0,8.92,2.48,35,35,0,0,0,7.93.3,32,32,0,0,0,7.64-1.57h.11l.38,0A7.46,7.46,0,0,1,805.28,872.3Z"/><path class="cls-2" d="M794.87,854.37v2.73h-2.71v2.71h-2.72V857.1h-2.72v-2.73c.79,0,1.55,0,2.32,0,.32,0,.41-.1.4-.41,0-.65,0-1.3,0-2,0-.12,0-.25,0-.38h2.71c0,.55,0,1.09,0,1.63,0,.36-.09.83.09,1s.66.07,1,.07Z"/><path class="cls-2" d="M800.6,876.51a2.88,2.88,0,1,1-2.88-2.87A2.9,2.9,0,0,1,800.6,876.51Z"/><path class="cls-2" d="M794.87,885.11c-2.76,2.15-5.31,2-7.7,0Z"/><path class="cls-2" d="M786.75,876.59a2.85,2.85,0,0,1-.32,1.2,2.81,2.81,0,0,1-2.64,1.6,3,3,0,0,1-2-.89,2.68,2.68,0,0,1-.8-2.07,2.88,2.88,0,0,1,5.75.16Z"/><path class="cls-2" d="M107.37,915.28a8.72,8.72,0,0,0-2.61,6.29,8.27,8.27,0,0,0,2.66,6.17,8.66,8.66,0,0,0,6.17,2.55,9.3,9.3,0,0,0,6-2A1.91,1.91,0,0,1,121,928a2,2,0,0,1,1.79,2.27,1.94,1.94,0,0,1-.75,1.34,13,13,0,0,1-8.26,2.79,12.72,12.72,0,0,1-9.22-3.78,12.51,12.51,0,0,1,0-18.15,12.83,12.83,0,0,1,9.22-3.81,13,13,0,0,1,8.26,2.79,2,2,0,0,1,.75,1.36,2,2,0,0,1-1.79,2.28,1.85,1.85,0,0,1-1.46-.39,9,9,0,0,0-5.92-2A8.9,8.9,0,0,0,107.37,915.28Z"/><path class="cls-2" d="M129.21,911.31a1.89,1.89,0,0,1,.57-1.39,1.92,1.92,0,0,1,1.4-.58,2,2,0,0,1,1.41.58,1.87,1.87,0,0,1,.59,1.39V932.4a1.87,1.87,0,0,1-.59,1.39,1.93,1.93,0,0,1-1.41.58,2,2,0,0,1-2-2Z"/><path class="cls-2" d="M145.65,934.47a8.11,8.11,0,0,1-6.11-2.64,9.25,9.25,0,0,1,0-12.67,8,8,0,0,1,6.06-2.67,7.88,7.88,0,0,1,6,2.7,9.15,9.15,0,0,1,2.49,6.42,8.21,8.21,0,0,1-2.51,6.15A7.55,7.55,0,0,1,145.65,934.47Zm-3.43-12.72a5.5,5.5,0,0,0-1.29,3.72,5.76,5.76,0,0,0,1.29,3.78,4.91,4.91,0,0,0,6.72,0,5.49,5.49,0,0,0,1.4-3.78,5.26,5.26,0,0,0-1.4-3.72,4.83,4.83,0,0,0-6.72,0Z"/><path class="cls-2" d="M174.82,926.93a7.1,7.1,0,0,1-2.23,5.24,7.33,7.33,0,0,1-5.29,2.2,7.48,7.48,0,0,1-7.46-7.44v-8.54a1.84,1.84,0,0,1,.56-1.32,1.84,1.84,0,0,1,2.68,0,1.83,1.83,0,0,1,.55,1.32v8.54a3.62,3.62,0,0,0,3.65,3.65,3.64,3.64,0,0,0,2.63-1.06,3.58,3.58,0,0,0,1.12-2.59v-8.54a1.86,1.86,0,0,1,.54-1.32,1.7,1.7,0,0,1,1.3-.58,1.85,1.85,0,0,1,1.36.58,1.76,1.76,0,0,1,.59,1.32Z"/><path class="cls-2" d="M198.31,932.44a1.82,1.82,0,0,1-.58,1.35,1.78,1.78,0,0,1-1.32.58,1.88,1.88,0,0,1-1.27-.45,2,2,0,0,1-.66-1.09,8.49,8.49,0,0,1-4.86,1.54,8.24,8.24,0,0,1-6.15-2.63,9.08,9.08,0,0,1,0-12.6A8.43,8.43,0,0,1,194.41,918v-6.72a1.85,1.85,0,0,1,.57-1.35,1.92,1.92,0,0,1,2.75,0,1.82,1.82,0,0,1,.58,1.35Zm-8.69-2A4.5,4.5,0,0,0,193,929a5,5,0,0,0,1.41-3.54,5.05,5.05,0,0,0-1.39-3.56,4.6,4.6,0,0,0-6.8,0,5.05,5.05,0,0,0-1.39,3.56,5,5,0,0,0,1.41,3.54A4.5,4.5,0,0,0,189.62,930.47Z"/><circle class="cls-3" cx="340.5" cy="792" r="8"/><path class="cls-4" d="M926.7,311.94a62,62,0,1,0,35.15-71.11H923.62a8.14,8.14,0,0,0-5.33,1.92,6.11,6.11,0,0,0-2.21,4.61c0,3.61,3.37,6.53,7.54,6.53h10.94a8,8,0,0,1,6,2.58,62.18,62.18,0,0,0-7.5,10.47h-34a8.14,8.14,0,0,0-5.33,1.92,6.11,6.11,0,0,0-2.21,4.61c0,3.61,3.38,6.53,7.54,6.53h28.47A61.65,61.65,0,0,0,925,297.5c0,1.54.06,3.06.17,4.56L718.73,333.67l74.51-169A62,62,0,0,0,872.3,127h50.76a6.53,6.53,0,1,0,0-13.06H892.11a6.53,6.53,0,1,1,0-13h5.68a6.53,6.53,0,1,0,0-13.06h-24.7a62,62,0,1,0-89,72.79L707,335.46l-4.78,10.85-222,503.45a74,74,0,0,0-27.15-5.14c-1.86,0-3.71.07-5.56.21l12.75-131.28L462,695.62,509.06,211l1.44,0a62,62,0,1,0-59-81.17H426.31a6.53,6.53,0,0,0,0,13.06h9.47a6.53,6.53,0,1,1,0,13.05H405A6.53,6.53,0,0,0,405,169h46.77A62.21,62.21,0,0,0,499.1,210L453.47,679.73,380.36,543.29a62,62,0,1,0-90.23-74.46H255.31a6.53,6.53,0,0,0,0,13.06h9.47a6.53,6.53,0,1,1,0,13.05H234A6.53,6.53,0,1,0,234,508h54.88a62,62,0,0,0,82.49,39.77l80.32,149.9L437.29,846.33a74.23,74.23,0,0,0-29.18,13.47,86.51,86.51,0,0,0-60.81-38.87c-2.2-.31-4.41-.53-6.65-.67A10.5,10.5,0,0,0,339,840.2q3,.16,6,.61a66.5,66.5,0,0,1,51.22,39,10,10,0,0,0,16.58,2.68,54.15,54.15,0,0,1,59.3-14.43,52.88,52.88,0,0,1,9,4.39,54.49,54.49,0,0,1,13.85,12,54.13,54.13,0,0,1,12.26,34.29c0,.45,0,.9,0,1.34h0A54.2,54.2,0,0,1,453.05,973H74.19a54.19,54.19,0,1,1,38.16-92.65,10,10,0,0,0,17-6.3c3.28-40.93,33.93-74.16,72.95-82.18q3.28-.69,6.64-1.12a10.5,10.5,0,0,0-3.8-19.69c-1.87.26-3.73.56-5.57.92a111.62,111.62,0,0,0-87.37,83.1A74.2,74.2,0,1,0,74.19,993H453.05a74.19,74.19,0,0,0,74.19-74.19c0-.57,0-1.13,0-1.69L730.37,886.3A62,62,0,1,0,850.3,855h31.76a6.53,6.53,0,1,0,0-13.06H851.11a6.53,6.53,0,1,1,0-13.05h5.68a6.53,6.53,0,1,0,0-13.06H816a62,62,0,0,0-87.16,56.67c0,1.31,0,2.62.13,3.91L526.32,907.15A73.68,73.68,0,0,0,516,879.5L860.61,578.75A62,62,0,0,0,964.74,547h53.32a6.53,6.53,0,0,0,0-13.06H987.11a6.53,6.53,0,1,1,0-13.05h5.68a6.53,6.53,0,1,0,0-13.06H960a62,62,0,1,0-105.92,63.36L510,871.37a74.62,74.62,0,0,0-20.8-17.3L714,344.51ZM938,280a52.09,52.09,0,0,1,49-34.5h1a52,52,0,1,1-51.37,64.91,51,51,0,0,1-1.54-9.88c-.06-1-.09-2-.09-3A51.77,51.77,0,0,1,938,280ZM761.88,106.25a52,52,0,1,1,52,52,51.48,51.48,0,0,1-16.59-2.72,50.7,50.7,0,0,1-9.13-4.1A52,52,0,0,1,761.88,106.25ZM462.5,169a52,52,0,1,1,48,32H510a51.05,51.05,0,0,1-10-1A52.23,52.23,0,0,1,462.5,169ZM366.65,538.89a52,52,0,0,1-70.16-44.5c-.11-1.37-.17-2.76-.17-4.16a52.37,52.37,0,0,1,.61-8,51.51,51.51,0,0,1,4-13.43,52,52,0,1,1,65.72,70.06ZM790.82,820.5a51.67,51.67,0,0,1,10,1,52,52,0,1,1-60.55,63.32,51.15,51.15,0,0,1-1.41-9.89q-.06-1.18-.06-2.4A52.06,52.06,0,0,1,790.82,820.5ZM852,534.5a52,52,0,0,1,96.62-26.67A51.75,51.75,0,0,1,956,533.1c0,.46,0,.93,0,1.4a52,52,0,0,1-104,0Z"/><path class="cls-2" d="M368,520.18H328.71a4.27,4.27,0,0,1-4.48-3.94,10.93,10.93,0,0,1,.2-2.48q.38-2.88.77-5.76c.28-2.08.57-4.17.87-6.24a5.05,5.05,0,0,1,2.11-3.52c.94-.66,1.92-1.25,2.92-1.89.3.85.58,1.61.83,2.37a.57.57,0,0,1-.16.45,4,4,0,0,0-1,4.06c.41,1.49.76,3,1.12,4.5.19.82.39,1.65.59,2.47.33,1.37,1,2.53,2.49,2.78a4.92,4.92,0,0,0,2-.18,1,1,0,0,0,.66-1.27,1,1,0,0,0-1.27-.71c-1.27.36-1.54-.1-1.81-1.2l-.69-2.83-1.08-4.43a2.08,2.08,0,0,1,1.66-2.39,5.66,5.66,0,0,1,1.3,0,1.33,1.33,0,0,1,.75.3,1.72,1.72,0,0,1,.41.5c1.22,2.15,2.47,4.29,3.71,6.44.06.12.14.23.2.36.44.86.32,1.27-.55,1.73a1,1,0,0,0-.63,1.16.93.93,0,0,0,.81.83,1.34,1.34,0,0,0,.63,0,3.06,3.06,0,0,0,1.94-3.83,6.83,6.83,0,0,0-.59-1.29c-1.17-2-2.41-4.05-3.51-6.13a3.84,3.84,0,0,0-3.42-2.21h-.58c-.6,0-.81-.17-1-.69a7.35,7.35,0,0,1-.34-1.15c-.11-.63.24-.77,1.41-1.22,1.59-.6,3.19-1.18,4.81-1.77l3.68,5.65c1.31,2,2.61,4,3.92,6a1.11,1.11,0,0,0,1.17.47,1.09,1.09,0,0,0,.67-.47q2.86-4.4,5.71-8.8l1.57-2.42.4-.6,2,.87,2.57,1.1a.47.47,0,0,1,.34.58,23.63,23.63,0,0,1-2.18,7.69,3.6,3.6,0,0,0-.88-.11h-.1a3.92,3.92,0,1,0,3.92,3.92,3.88,3.88,0,0,0-.88-2.47l0-.06a24.88,24.88,0,0,0,2.42-8c0-.08,0-.15.08-.32,1.86,1.06,4.06,1.38,5.41,3.23a6.92,6.92,0,0,1,1.12,3.28c.55,4.28,1.08,8.56,1.64,12.84A4.36,4.36,0,0,1,368,520.18Z"/><path class="cls-2" d="M364.52,483.09a16.21,16.21,0,0,1-9,6.29,10.15,10.15,0,0,1-2.14.41c.21-.3.4-.6.62-.89a18.32,18.32,0,0,0,3.62-8.61,17.2,17.2,0,0,0-1.13-9.43c-.29-.66-.68-.85-1.27-.48-3.22,2.05-6.91,2.66-10.52,3.54-1.25.31-2.51.55-3.77.84a2.27,2.27,0,0,0-2.07,2.64,18.71,18.71,0,0,0,4.27,12.13,3.92,3.92,0,0,1,.25.32.8.8,0,0,1,0,.15c-4.45-.92-8.3-2.75-11.05-6.46-1.27-1.71-1.34-1.89-.22-3.69A33.65,33.65,0,0,0,336.3,470a14.28,14.28,0,0,1,1.91-4.45,10.7,10.7,0,0,1,6.57-4.77,14.32,14.32,0,0,1,9.21.44,12,12,0,0,1,7.13,8.51c.35,1.3.58,2.63.82,4a13.53,13.53,0,0,0,1.75,4.89,14.55,14.55,0,0,0,.93,1.58A2.14,2.14,0,0,1,364.52,483.09Z"/><path class="cls-2" d="M352.36,495.47l-4.06,7-4.05-7A12.2,12.2,0,0,0,352.36,495.47Z"/></g></g></svg>