<?xml version="1.0" encoding="utf-8"?>
<!-- Generator: Adobe Illustrator 23.0.1, SVG Export Plug-In . SVG Version: 6.00 Build 0)  -->
<svg version="1.1" id="Layer_1" xmlns="http://www.w3.org/2000/svg" xmlns:xlink="http://www.w3.org/1999/xlink" x="0px" y="0px"
	 viewBox="0 0 644.6 326.2" style="enable-background:new 0 0 644.6 326.2;" xml:space="preserve">
<style type="text/css">
	.st0{fill:#1ABC9C;}
	.st1{fill:#FFFFFF;}
	.st2{fill:#16A085;}
</style>
<title>Asset 1</title>
<g>
	<g id="Layer_1-2">
		<path class="st0" d="M280.3,253.1h83.9c0.2-13.9-7.3-26.8-19.3-33.7l8.8-12.2l-2.4-1.8l-9.1,12.5c-12.8-6.1-27.6-6-40.3,0.2
			l-10-12.6l-2.3,1.9l9.7,12.2C287.4,226.6,280.2,239.4,280.3,253.1z M331.1,96.2c-0.4-0.7-1.1-1.1-1.9-1.3l-3.7-0.9l0.8-3.1
			c0.2-0.8,0.1-1.6-0.4-2.3c-0.4-0.7-1.2-1.2-2-1.4c-0.8-0.2-1.7-0.1-2.5,0.3c-0.7,0.4-1.2,1.1-1.4,1.9l-0.7,3.2l-2.4-0.6
			c-0.8-0.2-1.6-0.1-2.3,0.3c-0.6,0.3-1.1,1-1.3,1.7c-0.2,0.8-0.1,1.5,0.4,2.2c0.4,0.7,1.1,1.1,1.9,1.3l2.4,0.6l-3.2,13.6
			c-0.7,2.8-0.4,4.9,0.9,6.1c1.5,1.3,3.2,2.2,5.1,2.6c1.2,0.3,2.5,0.3,3.7-0.1c1-0.2,1.8-0.9,2.1-1.9c0.2-0.6,0.1-1.3-0.2-1.9
			c-0.2-0.5-0.6-0.9-1.2-1c-0.4-0.1-0.8-0.1-1.3,0c-0.4,0-0.8,0-1.2-0.1c-0.6-0.1-1.1-0.4-1.4-0.8c-0.3-0.5-0.4-1.1-0.2-1.6
			l3.1-13.4l3.7,0.9c0.8,0.2,1.6,0.1,2.3-0.3c0.7-0.4,1.1-1,1.3-1.7C331.7,97.6,331.5,96.8,331.1,96.2z M314.6,81.1
			c-0.9-0.8-2-1.3-3.2-1.5c-3.4-0.8-6.1-0.6-8.3,0.5c-2.1,1.1-3.6,3.1-4.1,5.4l-0.5,2.3l-2.8-0.7c-0.8-0.2-1.6-0.1-2.3,0.3
			c0,0-0.1,0-0.1,0.1c-1.3,0.8-1.6,2.5-0.8,3.8c0.4,0.7,1.1,1.1,1.9,1.3l2.8,0.7l-4.1,17.5c-0.2,0.8-0.1,1.7,0.4,2.3
			c1,1.5,2.9,1.9,4.5,1.1c0.7-0.4,1.2-1.1,1.4-1.9l4.1-17.5l4.8,1.1c0.8,0.2,1.6,0.1,2.3-0.3c0,0,0.1,0,0.1-0.1
			c1.3-0.8,1.6-2.5,0.8-3.8c-0.4-0.6-1.1-1.1-1.9-1.3l-4.8-1.1l0.5-2.3c0.2-0.8,0.6-1.4,1.2-1.9c0.8-0.6,1.8-0.7,2.7-0.4
			c0.7,0.2,1.4,0.5,2,0.8l0.6,0.2c0.2,0.1,0.3,0.1,0.5,0.2c0.7,0.2,1.4,0.1,2-0.3c0.6-0.4,1-1,1.2-1.8
			C315.8,82.7,315.4,81.7,314.6,81.1z M289.7,76.1c-1.4-1.1-3.3-1.5-5.1-1.2c-0.7,0.3-1.2,1-1.2,1.7l-0.2,0.9
			c-0.3,0.7-0.1,1.5,0.3,2.1c0.7,0.6,1.5,1,2.4,1.1c0.9,0.3,1.8,0.3,2.7,0.1c0.7-0.3,1.1-1,1.2-1.8l0.2-0.9
			C290.2,77.5,290.1,76.7,289.7,76.1z M287.2,85.5c-0.5-0.7-1.2-1.2-2-1.4c-0.8-0.2-1.7-0.1-2.4,0.3c-0.7,0.4-1.2,1.1-1.4,1.9
			l-4.8,20.4c-0.2,0.8-0.1,1.7,0.4,2.4c1,1.4,3,1.9,4.5,1c0.7-0.4,1.2-1.1,1.4-1.9l4.8-20.4C287.8,87,287.6,86.2,287.2,85.5z
			 M276.3,82.9c-0.4-0.7-1.1-1.2-1.9-1.4c-0.6-0.2-1.3-0.2-2,0c-0.6,0.2-1.1,0.6-1.4,1.2l-9,12.9l-1.5-11.2
			c-0.1-0.6-0.3-1.2-0.7-1.6c-0.4-0.4-1-0.7-1.6-0.8c-1.2-0.4-2.6,0.1-3.3,1.2l-6.6,9.6L246,76.8c0-0.6-0.3-1.2-0.7-1.7
			c-0.5-0.5-1.1-0.8-1.7-0.9c-0.9-0.2-1.8-0.1-2.5,0.4c-1,0.7-1.6,1.9-1.4,3.1l3.2,22.2c0.1,0.6,0.3,1.2,0.8,1.7
			c0.4,0.5,1,0.8,1.6,0.9l0.4,0c1.2,0.2,2.4-0.3,3.1-1.3l7.1-11.2l1.6,13.2c0.2,1.2,1.1,2.2,2.2,2.5l0.4,0.2
			c0.6,0.1,1.3,0.1,1.9-0.1c0.6-0.2,1.1-0.6,1.4-1.2l12.8-18.5c0.2-0.3,0.4-0.7,0.5-1.1C276.9,84.4,276.8,83.6,276.3,82.9z
			 M235.7,66.9c-1.2-1.5-2.6-2.7-4.3-3.6c-1.9-1.1-3.9-1.9-6-2.4c-2.3-0.6-4.6-0.7-6.9-0.4c-2,0.3-3.9,1.1-5.5,2.4
			c-1.5,1.3-2.6,3-3,5c-1.3,5.7,1.7,9.9,9.1,12.7c2.3,0.8,4.4,1.9,6.2,3.5c1.1,1,1.6,2.5,1.3,4c-0.4,1.3-1.5,2.3-2.8,2.6
			c-1.7,0.5-3.6,0.5-5.3,0c-1.6-0.3-3.1-1-4.5-1.8c-1.3-0.9-2.5-2-3.5-3.3c-0.4-0.5-1-0.9-1.6-1c-0.8-0.2-1.6-0.1-2.3,0.4
			c-0.7,0.4-1.2,1-1.4,1.8c-0.2,1.1,0.1,2.2,0.8,3c1.3,1.7,2.9,3.2,4.8,4.3c2,1.1,4.2,2,6.5,2.5c2.3,0.6,4.6,0.7,6.9,0.3
			c2.1-0.3,4.1-1.1,5.8-2.4c1.6-1.3,2.7-3,3.1-5c0.5-1.9,0.5-3.8-0.1-5.6c-0.7-1.7-1.8-3.1-3.3-4.1c-2.1-1.5-4.4-2.7-6.7-3.6
			c-2-0.7-3.8-1.8-5.4-3.2c-0.5-0.5-0.9-1-1.1-1.7c-0.6-2,0.5-4,2.5-4.6c1.8-0.5,3.6-0.5,5.4,0c1.5,0.4,2.9,1,4.2,1.9
			c1.2,0.8,2.4,1.7,3.3,2.8c0.3,0.4,0.8,0.7,1.3,0.8c0.8,0.2,1.6,0,2.3-0.4c0.7-0.4,1.2-1,1.4-1.8C236.8,68.8,236.5,67.6,235.7,66.9
			z M205.4,187l0,0.1C205.4,187.1,205.3,187,205.4,187c-1-0.9-2.5-0.9-3.4,0.1c-0.4,0.5-0.7,1.1-0.7,1.8v0.1
			c-0.8-0.8-1.8-1.5-2.9-1.9c-1.1-0.5-2.4-0.8-3.6-0.8c-1.8,0-3.5,0.5-5,1.5c-1.5,1.1-2.8,2.5-3.5,4.3c-0.9,1.9-1.3,4.1-1.3,6.2
			c0,2.1,0.4,4.3,1.3,6.2c0.8,1.7,2,3.2,3.6,4.3c1.5,1,3.3,1.5,5,1.5c1.3,0,2.5-0.3,3.6-0.9c1.1-0.5,2-1.3,2.7-2.1
			c0,0.7,0.3,1.3,0.7,1.8c0.4,0.5,1.1,0.8,1.7,0.7c0.7,0,1.3-0.3,1.7-0.8c0.5-0.5,0.7-1.2,0.7-1.9v-18.3
			C206.1,188.2,205.8,187.5,205.4,187z M199.8,203.4L199.8,203.4c-0.2,0.3-0.5,0.6-0.8,0.9c-2.3,1.9-5.8,1.5-7.7-0.9
			c-2.2-3.1-2.2-7.2,0-10.3c0.3-0.3,0.6-0.6,0.9-0.9c2.3-1.9,5.8-1.4,7.6,0.9c1.1,1.5,1.7,3.3,1.7,5.2
			C201.5,200.1,200.9,201.9,199.8,203.4z M181.8,187.4c-0.4-0.5-1-0.7-1.6-0.7c-0.5,0-0.9,0.1-1.3,0.4c-0.4,0.3-0.7,0.8-0.9,1.3
			l-5.5,13.6l-5.5-13.7c-0.2-0.5-0.5-0.9-1-1.2c-0.4-0.3-0.9-0.4-1.4-0.4c-0.6,0-1.3,0.3-1.7,0.7c-0.4,0.4-0.7,1-0.7,1.6
			c0,0.5,0.1,0.9,0.3,1.4l7.5,17.8c0.2,0.5,0.5,0.9,0.9,1.2c0.4,0.3,0.8,0.5,1.3,0.5h0.4c0.5,0,0.9-0.2,1.2-0.5
			c0.4-0.3,0.7-0.7,0.8-1.2l7.5-17.8c0.2-0.4,0.3-0.8,0.3-1.3C182.4,188.5,182.2,187.9,181.8,187.4z M158.1,187
			c-0.4-0.5-1.1-0.7-1.7-0.7c-0.7,0-1.3,0.3-1.7,0.8c-0.4,0.5-0.7,1.1-0.7,1.8v0.1c-0.8-0.8-1.8-1.5-2.9-1.9
			c-1.1-0.5-2.4-0.8-3.6-0.8c-1.8,0-3.5,0.5-5,1.5c-1.5,1.1-2.8,2.6-3.5,4.3c-0.9,1.9-1.3,4.1-1.3,6.2c0,2.1,0.4,4.3,1.3,6.2
			c0.8,1.7,2,3.2,3.6,4.3c1.5,1,3.3,1.5,5,1.5c1.3,0,2.5-0.3,3.6-0.9c1.1-0.5,2-1.3,2.7-2.1c0,0.7,0.3,1.3,0.7,1.8
			c0,0,0.1,0.1,0.1,0.1c1,0.9,2.5,0.8,3.3-0.1c0.5-0.5,0.7-1.2,0.7-1.9v-18.3C158.8,188.2,158.6,187.5,158.1,187z M152.5,203.4
			L152.5,203.4c-1,1.3-2.6,2.1-4.3,2c-1.7,0-3.2-0.7-4.3-2c-2.2-3.1-2.2-7.2,0-10.3c1-1.3,2.6-2.1,4.2-2.1c1.7,0,3.3,0.7,4.3,2.1
			c1.1,1.5,1.7,3.3,1.7,5.2C154.2,200.1,153.6,201.9,152.5,203.4z M149.9,69.6c0-0.8-0.3-1.6-0.9-2.1c-0.5-0.5-1.3-0.9-2.1-0.9
			c-1.7,0-3,1.3-3,3l0.5,37.4c-0.3,0-0.6-0.1-0.8-0.1c-3.4,0-6.3,2.5-6.8,5.8c-0.6,3.7,2,7.2,5.7,7.8c3.7,0.6,7.2-2,7.8-5.7
			c0.1-0.3,0.2-0.7,0.2-1.1L149.9,69.6z M132.5,180.4c-0.5-0.5-1.1-0.8-1.8-0.7c-0.7,0-1.3,0.3-1.8,0.8c-0.5,0.5-0.8,1.2-0.8,1.9
			v18.1c0,0.8-0.2,1.6-0.7,2.3c-0.4,0.7-1,1.3-1.7,1.8c-0.7,0.4-1.5,0.6-2.2,0.6c-0.6,0-1.2-0.1-1.8-0.3c-0.6-0.3-1.1-0.6-1.6-1.1
			c-0.5-0.7-1.4-1.2-2.3-1.3c-0.6,0-1.2,0.3-1.6,0.8c-0.5,0.5-0.8,1.1-0.8,1.8c0,0.5,0.2,1.1,0.5,1.5c0.8,1.2,1.9,2.2,3.2,2.8
			c1.3,0.7,2.8,1,4.3,1c1.7,0,3.4-0.5,4.8-1.4c1.5-0.9,2.7-2.2,3.5-3.7c0.8-1.5,1.3-3.2,1.3-4.9v-18.1
			C133.3,181.5,133,180.9,132.5,180.4z M118,98.6c0.3-0.5,0.4-1,0.4-1.5v-0.1C118.4,97.5,118.2,98.1,118,98.6z M104.8,96.1
			L104.8,96.1c-0.1,1.8,0.7,3.6,1.9,4.8C105.5,99.6,104.8,97.9,104.8,96.1z"/>
		<path class="st1" d="M632.4,55.8h-81.6c-6.7,0-12.2,5.5-12.2,12.2v133.1c0,6.7,5.5,12.2,12.2,12.2h33v24.1c0,1.6,1.3,2.8,2.8,2.8
			h3.1V258l-120,0.5l-0.4-122.8v-0.1c0-0.3-0.1-0.6-0.2-0.9c-0.1-0.2-0.1-0.3-0.2-0.4c-0.1-0.1-0.2-0.3-0.3-0.4
			c-0.1-0.1-0.2-0.2-0.4-0.3c-0.1-0.1-0.2-0.1-0.3-0.2l-0.3-0.1l-0.2,0c-0.2,0-0.4-0.1-0.6-0.1l-58.4-0.2V34.6
			c0-19.1-15.2-34.6-33.9-34.6H33.9C15.2,0,0,15.5,0,34.6v201.7c0,19.1,15.2,34.6,33.9,34.6h161.9v38.3h-46.4
			c-4.7,0-8.5,3.8-8.5,8.5s3.8,8.5,8.5,8.5H260c4.7,0,8.5-3.8,8.5-8.5s-3.8-8.5-8.5-8.5h-47.3v-38.3h161.9
			c18.7,0,33.9-15.5,33.9-34.6V138l55.8,0.2l0.4,122.8c0,0.7,0.3,1.3,0.7,1.8c0.5,0.5,1.1,0.7,1.8,0.7l125-0.5c0.1,0,0.1,0,0.2,0
			c0.1,0,0.1,0,0.2,0l0.4-0.1l0.3-0.1c0.1,0,0.2-0.1,0.3-0.2c0.1-0.1,0.3-0.2,0.4-0.3c0.5-0.5,0.7-1.1,0.7-1.8v-20.3h3.8
			c1.6,0,2.8-1.3,2.8-2.8v-24.1h31c6.7,0,12.2-5.5,12.2-12.2V68C644.6,61.2,639.1,55.8,632.4,55.8z M391.5,236.3
			c0,9.7-7.6,17.6-16.9,17.6H33.9c-1.7,0-3.4-0.3-5-0.8c-0.5-0.2-1-0.4-1.5-0.6c-0.5-0.2-1-0.5-1.5-0.7c-0.5-0.3-0.9-0.6-1.4-0.9
			c-0.9-0.6-1.7-1.4-2.5-2.2c-0.4-0.4-0.8-0.8-1.1-1.3c-0.5-0.6-1-1.3-1.4-2.1c0,0,0,0,0,0c-0.3-0.5-0.5-1-0.8-1.5
			c-1.1-2.3-1.7-4.9-1.7-7.6V34.6C17,24.9,24.6,17,33.9,17h340.7c9.3,0,16.9,7.9,16.9,17.6V236.3z M639.6,201.1c0,4-3.2,7.2-7.2,7.2
			h-81.6c-4,0-7.2-3.2-7.2-7.2V68c0-4,3.2-7.2,7.2-7.2h81.6c4,0,7.2,3.2,7.2,7.2V201.1z"/>
		<path class="st1" d="M598.1,194.2c-0.1,3.2-2.8,5.8-6,5.8s-5.8-2.8-5.8-6c0.1-3.2,2.7-5.8,5.9-5.8
			C595.5,188.3,598.1,190.9,598.1,194.2z"/>
		<path class="st2" d="M280.3,253.1h83.9c0.2-13.9-7.3-26.8-19.3-33.7l8.8-12.2l-2.4-1.8l-9.1,12.5c-12.8-6.1-27.6-6-40.3,0.2
			l-10-12.6l-2.3,1.9l9.7,12.2C287.4,226.6,280.2,239.4,280.3,253.1z M339.1,230.3c1.1,0,2,0.4,2.7,1.1c0.7,0.7,1.1,1.7,1.1,2.7
			c0,2.1-1.7,3.8-3.8,3.8s-3.8-1.7-3.8-3.8S337,230.3,339.1,230.3z M306.5,230.3c1.1,0,2,0.4,2.7,1.1c0.7,0.7,1.1,1.7,1.1,2.7
			c0,2.1-1.7,3.8-3.8,3.8c-2.1,0-3.8-1.7-3.8-3.8S304.3,230.3,306.5,230.3z"/>
		<path class="st2" d="M310.3,234.2c0,2.1-1.7,3.8-3.8,3.8c-2.1,0-3.8-1.7-3.8-3.8s1.7-3.8,3.8-3.8l0,0
			C308.6,230.3,310.3,232,310.3,234.2z"/>
		<path class="st2" d="M342.9,234.2c0,2.1-1.7,3.8-3.8,3.8c-2.1,0-3.8-1.7-3.8-3.8s1.7-3.8,3.8-3.8l0,0
			C341.2,230.3,342.9,232,342.9,234.2z"/>
		<path class="st0" d="M310.3,234.2c0,2.1-1.7,3.8-3.8,3.8c-2.1,0-3.8-1.7-3.8-3.8s1.7-3.8,3.8-3.8l0,0
			C308.6,230.3,310.3,232,310.3,234.2z"/>
		<path class="st0" d="M342.9,234.2c0,2.1-1.7,3.8-3.8,3.8c-2.1,0-3.8-1.7-3.8-3.8s1.7-3.8,3.8-3.8l0,0
			C341.2,230.3,342.9,232,342.9,234.2z"/>
		<path class="st1" d="M133.2,182.2v18.1c0,1.7-0.4,3.4-1.3,4.9c-0.8,1.5-2,2.8-3.5,3.7c-1.5,0.9-3.1,1.4-4.8,1.4
			c-1.5,0-3-0.3-4.3-1c-1.3-0.7-2.4-1.6-3.2-2.8c-0.3-0.5-0.5-1-0.5-1.5c0-0.7,0.3-1.3,0.8-1.8c0.4-0.5,1-0.7,1.6-0.8
			c0.9,0.1,1.7,0.6,2.3,1.3c0.5,0.5,1,0.8,1.6,1.1c0.6,0.2,1.2,0.3,1.8,0.3c0.8,0,1.6-0.2,2.2-0.6c0.7-0.4,1.3-1,1.7-1.8
			c0.4-0.7,0.7-1.5,0.7-2.3v-18.1c0-0.7,0.3-1.4,0.8-1.9c0.5-0.5,1.1-0.8,1.8-0.8c0.7,0,1.3,0.2,1.8,0.7
			C133,180.9,133.3,181.5,133.2,182.2z"/>
		<path class="st1" d="M158.1,187c-0.4-0.5-1.1-0.7-1.7-0.7c-0.7,0-1.3,0.3-1.7,0.8c-0.4,0.5-0.7,1.1-0.7,1.8v0.1
			c-0.8-0.8-1.8-1.5-2.9-1.9c-1.1-0.5-2.4-0.8-3.6-0.8c-1.8,0-3.5,0.5-5,1.5c-1.5,1.1-2.8,2.6-3.5,4.3c-0.9,1.9-1.3,4.1-1.3,6.2
			c0,2.1,0.4,4.3,1.3,6.2c0.8,1.7,2,3.2,3.6,4.3c1.5,1,3.3,1.5,5,1.5c1.3,0,2.5-0.3,3.6-0.9c1.1-0.5,2-1.3,2.7-2.1
			c0,0.7,0.3,1.3,0.7,1.8c0,0,0.1,0.1,0.1,0.1c1,0.9,2.5,0.8,3.3-0.1c0.5-0.5,0.7-1.2,0.7-1.9v-18.3
			C158.8,188.2,158.6,187.5,158.1,187z M152.5,203.4L152.5,203.4c-1,1.3-2.6,2.1-4.3,2c-1.7,0-3.2-0.7-4.3-2
			c-2.2-3.1-2.2-7.2,0-10.3c1-1.3,2.6-2.1,4.2-2.1c1.7,0,3.3,0.7,4.3,2.1c1.1,1.5,1.7,3.3,1.7,5.2
			C154.2,200.1,153.6,201.9,152.5,203.4z"/>
		<path class="st1" d="M182.4,189.1c0,0.5-0.1,0.9-0.3,1.3l-7.5,17.8c-0.2,0.5-0.5,0.9-0.8,1.2c-0.4,0.3-0.8,0.5-1.2,0.5h-0.4
			c-0.5,0-0.9-0.2-1.3-0.5c-0.4-0.3-0.7-0.7-0.9-1.2l-7.5-17.8c-0.2-0.4-0.3-0.9-0.3-1.4c0-0.6,0.3-1.2,0.7-1.6
			c0.4-0.5,1.1-0.7,1.7-0.7c0.5,0,1,0.2,1.4,0.4c0.5,0.3,0.8,0.7,1,1.2l5.5,13.7l5.5-13.6c0.2-0.5,0.5-0.9,0.9-1.3
			c0.3-0.3,0.8-0.4,1.3-0.4c0.6,0,1.2,0.2,1.6,0.7C182.2,187.9,182.4,188.5,182.4,189.1z"/>
		<path class="st1" d="M205.4,187l0,0.1C205.4,187.1,205.3,187,205.4,187c-1-0.9-2.5-0.9-3.4,0.1c-0.4,0.5-0.7,1.1-0.7,1.8v0.1
			c-0.8-0.8-1.8-1.5-2.9-1.9c-1.1-0.5-2.4-0.8-3.6-0.8c-1.8,0-3.5,0.5-5,1.5c-1.5,1.1-2.8,2.5-3.5,4.3c-0.9,1.9-1.3,4.1-1.3,6.2
			c0,2.1,0.4,4.3,1.3,6.2c0.8,1.7,2,3.2,3.6,4.3c1.5,1,3.3,1.5,5,1.5c1.3,0,2.5-0.3,3.6-0.9c1.1-0.5,2-1.3,2.7-2.1
			c0,0.7,0.3,1.3,0.7,1.8c0.4,0.5,1.1,0.8,1.7,0.7c0.7,0,1.3-0.3,1.7-0.8c0.5-0.5,0.7-1.2,0.7-1.9v-18.3
			C206.1,188.2,205.8,187.5,205.4,187z M199.8,203.4L199.8,203.4c-0.2,0.3-0.5,0.6-0.8,0.9c-2.3,1.9-5.8,1.5-7.7-0.9
			c-2.2-3.1-2.2-7.2,0-10.3c0.3-0.3,0.6-0.6,0.9-0.9c2.3-1.9,5.8-1.4,7.6,0.9c1.1,1.5,1.7,3.3,1.7,5.2
			C201.5,200.1,200.9,201.9,199.8,203.4z"/>
		<path class="st1" d="M236.6,69.9c-0.2,0.8-0.7,1.4-1.4,1.8c-0.7,0.4-1.5,0.6-2.3,0.4c-0.5-0.1-1-0.4-1.3-0.8c-1-1.1-2.1-2-3.3-2.8
			c-1.3-0.9-2.7-1.5-4.2-1.9c-1.8-0.5-3.6-0.5-5.4,0c-2,0.6-3.1,2.6-2.5,4.6c0.2,0.7,0.6,1.2,1.1,1.7c1.6,1.4,3.4,2.4,5.4,3.2
			c2.4,0.9,4.6,2.1,6.7,3.6c1.5,1,2.6,2.5,3.3,4.1c0.6,1.8,0.6,3.8,0.1,5.6c-0.4,2-1.5,3.7-3.1,5c-1.7,1.3-3.7,2.1-5.8,2.4
			c-2.3,0.4-4.7,0.3-6.9-0.3c-2.3-0.5-4.5-1.3-6.5-2.5c-1.9-1.1-3.5-2.6-4.8-4.3c-0.7-0.8-1-1.9-0.8-3c0.2-0.8,0.7-1.4,1.4-1.8
			c0.7-0.4,1.5-0.6,2.3-0.4c0.6,0.1,1.2,0.5,1.6,1c1,1.3,2.2,2.4,3.5,3.3c1.4,0.9,2.9,1.5,4.5,1.8c1.7,0.5,3.6,0.5,5.3,0
			c1.3-0.3,2.5-1.2,2.8-2.6c0.4-1.5-0.1-3-1.3-4c-1.8-1.5-3.9-2.7-6.2-3.5c-7.4-2.8-10.4-7.1-9.1-12.7c0.4-2,1.5-3.7,3-5
			c1.6-1.3,3.5-2.1,5.5-2.4c2.3-0.3,4.6-0.2,6.9,0.4c2.1,0.5,4.1,1.3,6,2.4c1.6,0.9,3.1,2.2,4.3,3.6
			C236.5,67.6,236.8,68.8,236.6,69.9z"/>
		<path class="st1" d="M276.7,85.3c-0.1,0.4-0.3,0.7-0.5,1.1l-12.8,18.5c-0.3,0.5-0.8,1-1.4,1.2c-0.6,0.2-1.3,0.3-1.9,0.1l-0.4-0.2
			c-1.2-0.3-2-1.3-2.2-2.5l-1.6-13.2l-7.1,11.2c-0.7,1-1.9,1.5-3.1,1.3l-0.4,0c-0.6-0.1-1.2-0.5-1.6-0.9c-0.5-0.4-0.7-1-0.8-1.7
			l-3.2-22.2c-0.2-1.2,0.4-2.5,1.4-3.1c0.7-0.5,1.6-0.6,2.5-0.4c0.6,0.1,1.2,0.4,1.7,0.9c0.4,0.4,0.7,1,0.7,1.7l2.2,15.8l6.6-9.6
			c0.7-1,2.1-1.5,3.3-1.2c0.6,0.1,1.2,0.4,1.6,0.8c0.4,0.5,0.6,1,0.7,1.6l1.5,11.2l9-12.9c0.3-0.5,0.8-1,1.4-1.2
			c0.7-0.2,1.4-0.2,2,0c0.8,0.2,1.5,0.7,1.9,1.4C276.8,83.6,276.9,84.4,276.7,85.3z"/>
		<path class="st1" d="M289.7,76.1c-1.4-1.1-3.3-1.5-5.1-1.2c-0.7,0.3-1.2,1-1.2,1.7l-0.2,0.9c-0.3,0.7-0.1,1.5,0.3,2.1
			c0.7,0.6,1.5,1,2.4,1.1c0.9,0.3,1.8,0.3,2.7,0.1c0.7-0.3,1.1-1,1.2-1.8l0.2-0.9C290.2,77.5,290.1,76.7,289.7,76.1z M287.2,85.5
			c-0.5-0.7-1.2-1.2-2-1.4c-0.8-0.2-1.7-0.1-2.4,0.3c-0.7,0.4-1.2,1.1-1.4,1.9l-4.8,20.4c-0.2,0.8-0.1,1.7,0.4,2.4
			c1,1.4,3,1.9,4.5,1c0.7-0.4,1.2-1.1,1.4-1.9l4.8-20.4C287.8,87,287.6,86.2,287.2,85.5z"/>
		<path class="st1" d="M315.5,83.7c-0.1,0.7-0.6,1.3-1.2,1.8c-0.6,0.4-1.3,0.5-2,0.3c-0.2,0-0.4-0.1-0.5-0.2l-0.6-0.2
			c-0.6-0.3-1.3-0.6-2-0.8c-0.9-0.3-1.9-0.2-2.7,0.4c-0.6,0.5-1.1,1.2-1.2,1.9l-0.5,2.3l4.8,1.1c0.8,0.2,1.5,0.6,1.9,1.3
			c0.8,1.3,0.5,3-0.8,3.8c0,0-0.1,0.1-0.1,0.1c-0.7,0.4-1.5,0.5-2.3,0.3l-4.8-1.1l-4.1,17.5c-0.2,0.8-0.6,1.5-1.4,1.9
			c-1.5,0.9-3.5,0.4-4.5-1.1c-0.5-0.7-0.6-1.5-0.4-2.3l4.1-17.5l-2.8-0.7c-0.8-0.1-1.5-0.6-1.9-1.3c-0.8-1.3-0.5-3,0.8-3.8
			c0,0,0.1-0.1,0.1-0.1c0.7-0.4,1.5-0.5,2.3-0.3l2.8,0.7l0.5-2.3c0.5-2.3,2-4.3,4.1-5.4c2.2-1.1,4.9-1.3,8.3-0.5
			c1.2,0.3,2.3,0.8,3.2,1.5C315.4,81.7,315.8,82.7,315.5,83.7z"/>
		<path class="st1" d="M331.5,98.3c-0.2,0.7-0.6,1.3-1.3,1.7c-0.7,0.4-1.5,0.5-2.3,0.3l-3.7-0.9l-3.1,13.4c-0.2,0.6-0.1,1.2,0.2,1.6
			c0.4,0.4,0.9,0.7,1.4,0.8c0.4,0.1,0.8,0.1,1.2,0.1c0.4-0.1,0.8-0.1,1.3,0c0.5,0.1,1,0.5,1.2,1c0.3,0.6,0.4,1.3,0.2,1.9
			c-0.3,1-1.1,1.7-2.1,1.9c-1.2,0.4-2.5,0.4-3.7,0.1c-1.9-0.4-3.7-1.3-5.1-2.6c-1.3-1.2-1.6-3.3-0.9-6.1l3.2-13.6l-2.4-0.6
			c-0.8-0.2-1.5-0.6-1.9-1.3c-0.4-0.6-0.6-1.4-0.4-2.2c0.2-0.7,0.6-1.4,1.3-1.7c0.7-0.4,1.5-0.5,2.3-0.3l2.4,0.6l0.7-3.2
			c0.2-0.8,0.7-1.5,1.4-1.9c0.8-0.4,1.6-0.6,2.5-0.3c0.8,0.2,1.6,0.7,2,1.4c0.5,0.7,0.6,1.5,0.4,2.3l-0.8,3.1l3.7,0.9
			c0.8,0.2,1.5,0.6,1.9,1.3C331.5,96.8,331.7,97.6,331.5,98.3z"/>
		<path class="st2" d="M118.5,51.1L118.5,51.1l0,45.1c0,0.1,0,0.2,0,0.3c0,0.3-0.1,0.6-0.1,0.9c-0.1,0.5-0.2,1-0.4,1.5
			c0,0.1-0.1,0.2-0.1,0.2c-1.2,2.4-3.6,3.9-6.2,3.9c-1,0-2-0.2-3-0.7c-0.2-0.1-0.3-0.2-0.5-0.2c-0.1-0.1-0.3-0.2-0.4-0.3
			c-0.1-0.1-0.3-0.2-0.4-0.3c-0.2-0.2-0.4-0.4-0.6-0.6c-1.3-1.3-2-3-2-4.8c0,0,0,0,0,0c0-0.2,0-0.5,0-0.7v0c0-0.2,0-0.3,0.1-0.5
			c0-0.2,0.1-0.4,0.1-0.6c0.1-0.4,0.3-0.7,0.4-1.1c1.1-2.4,3.5-3.9,6.2-3.9c0.3,0,0.6,0,0.8,0.1V55.5h0l-20.8,8.6v37.5
			c0.1,0.4,0.1,0.8,0.1,1.2c0,3.8-3.1,6.8-6.8,6.8c-3.8,0-6.8-3.1-6.8-6.8c0-3.8,3.1-6.8,6.8-6.8h0c0.2,0,0.5,0,0.7,0v-34
			c0-1.2,0.7-2.3,1.9-2.8l26.8-11c1.5-0.6,3.3,0.1,3.9,1.6C118.4,50.3,118.5,50.7,118.5,51.1z"/>
		<path class="st2" d="M118.4,96.1v0.9c0,0.5-0.1,1.1-0.4,1.5c0,0.1-0.1,0.2-0.2,0.2c0,0-0.1,0.1-0.1,0.1c0.2-0.5,0.4-1,0.5-1.6
			c0.1-0.3,0.1-0.6,0.1-0.9C118.4,96.3,118.4,96.2,118.4,96.1z"/>
		<path class="st2" d="M150.5,113.7c0,0.4-0.1,0.7-0.2,1.1c-0.6,3.7-4.1,6.3-7.8,5.7c-3.7-0.6-6.3-4.1-5.7-7.8
			c0.5-3.3,3.4-5.8,6.8-5.8c0.3,0,0.6,0,0.8,0.1l-0.5-37.4c0-1.7,1.3-3,3-3c0.8,0,1.6,0.3,2.1,0.9c0.5,0.5,0.9,1.3,0.9,2.1
			L150.5,113.7z"/>
	</g>
</g>
</svg>
