<svg xmlns="http://www.w3.org/2000/svg" viewBox="0 0 973.24 625.32"><defs><style>.cls-1{fill:#1abc9c;}.cls-1,.cls-2{stroke:#fff;stroke-width:4px;}.cls-1,.cls-2,.cls-3{stroke-miterlimit:10;}.cls-2,.cls-5{fill:#16a085;}.cls-3{fill:none;stroke:#1abc9c;stroke-width:5px;}.cls-4{fill:#fff;}</style></defs><title>geo-location</title><g id="Layer_2" data-name="Layer 2"><g id="Layer_2-2" data-name="Layer 2"><polygon class="cls-1" points="970.5 585.39 659.63 622.51 628.7 345.67 869.97 308.55 970.5 585.39"/><path class="cls-2" d="M659.63,622.52,416.81,548.28,433,368.14a847.19,847.19,0,0,0,56.51,79.61c1.55,1.93,3.07,3.82,4.58,5.67,8.6,10.56,16.51,19.74,23.26,27.36,6.77-7.63,14.69-16.84,23.31-27.43,1.49-1.83,3-3.69,4.53-5.6A855.41,855.41,0,0,0,617.29,342.3l11.41,3.37Z"/><path class="cls-1" d="M433,368.14,416.81,548.28,138.42,605.5,246.68,325.57l146.75-27c2.79,5.26,5.92,11.12,9.46,17.73C413,335.13,423.13,352.42,433,368.14Z"/><path class="cls-3" d="M594.67,473.65c0,11.75-34.45,21.27-76.94,21.27s-77-9.52-77-21.27c0-9.46,22.37-17.48,53.3-20.23,8.6,10.56,16.51,19.74,23.26,27.36,6.77-7.63,14.69-16.84,23.31-27.43C572,456,594.67,464.12,594.67,473.65Z"/><path class="cls-1" d="M661.18,115.23a146.72,146.72,0,0,0-12.65-21.64c-34.32-48.69-88.41-63.18-95.62-65a137.23,137.23,0,0,0-71.14,0c-7.21,1.79-61.29,16.28-95.61,65a145.85,145.85,0,0,0-12.65,21.64c-27.35,57.45-8.74,113.09,1.54,143.83,3.61,10.79,9,21.82,18.38,39.5,2.79,5.26,5.92,11.12,9.46,17.73,10.09,18.84,20.24,36.13,30.1,51.85a847.19,847.19,0,0,0,56.51,79.61c1.55,1.93,3.07,3.82,4.58,5.67,8.6,10.56,16.51,19.74,23.26,27.36,6.77-7.63,14.69-16.84,23.31-27.43,1.49-1.83,3-3.69,4.53-5.6A855.41,855.41,0,0,0,617.29,342.3q7.23-12.46,14.5-26c15.44-28.82,23.15-43.23,27.84-57.23C669.92,228.32,688.52,172.68,661.18,115.23ZM517.34,293.09A111.36,111.36,0,1,1,628.7,181.73,111.35,111.35,0,0,1,517.34,293.09Z"/><path class="cls-1" d="M628.7,181.73A111.36,111.36,0,1,1,517.34,70.37,111.36,111.36,0,0,1,628.7,181.73Z"/><path class="cls-4" d="M628.7,181.73A111.36,111.36,0,1,1,517.34,70.37,111.36,111.36,0,0,1,628.7,181.73Z"/><path class="cls-4" d="M866.1,120.64a7.74,7.74,0,0,1-7.73,7.73H751.65a7.74,7.74,0,0,1,0-15.47H776.4a7.73,7.73,0,1,0,0-15.46h-4.64a7.74,7.74,0,0,1,0-15.47h72.69a7.74,7.74,0,0,1,0,15.47h-6.19a7.73,7.73,0,1,0,0,15.46h20.11a7.7,7.7,0,0,1,7.73,7.74Z"/><path class="cls-4" d="M122.18,279.94a7.73,7.73,0,0,1-7.73,7.73H7.73a7.74,7.74,0,0,1,0-15.47H32.48a7.73,7.73,0,1,0,0-15.46H27.84a7.74,7.74,0,0,1,0-15.47h72.69a7.74,7.74,0,0,1,0,15.47H94.34a7.73,7.73,0,1,0,0,15.46h20.11a7.72,7.72,0,0,1,7.73,7.74Z"/><path class="cls-4" d="M287.67,38.67a7.74,7.74,0,0,1-7.73,7.73H173.22a7.74,7.74,0,0,1,0-15.47H198a7.73,7.73,0,1,0,0-15.46h-4.64a7.74,7.74,0,1,1,0-15.47H266a7.74,7.74,0,0,1,0,15.47h-6.19a7.73,7.73,0,1,0,0,15.46h20.11a7.72,7.72,0,0,1,7.73,7.74Z"/><path class="cls-5" d="M387.69,430.14c-.82,2.27-5.25,4.77-9.89,5.58l-116,20.16a11.11,11.11,0,0,1-5.52-.17c-1.24-.48-1.81-1.35-1.39-2.49.82-2.27,5.25-4.77,9.89-5.57L291.7,443c4.64-.81,9.07-3.3,9.89-5.58.42-1.13-.15-2-1.39-2.49a11.13,11.13,0,0,0-5.52-.16l-5,.87a11.13,11.13,0,0,1-5.52-.16c-1.24-.49-1.81-1.36-1.39-2.49.82-2.28,5.25-4.77,9.89-5.58l79-13.73a11.12,11.12,0,0,1,5.52.16c1.24.49,1.81,1.36,1.4,2.49-.83,2.27-5.26,4.77-9.9,5.58l-6.72,1.17c-4.64.81-9.07,3.3-9.89,5.58-.41,1.13.15,2,1.4,2.49a11.08,11.08,0,0,0,5.51.16l21.85-3.79a11.08,11.08,0,0,1,5.51.16C387.54,428.14,388.1,429,387.69,430.14Z"/><path class="cls-5" d="M359.85,518.3c-.82,2.27-5.25,4.77-9.89,5.58L234,544a11.18,11.18,0,0,1-5.51-.17c-1.25-.49-1.81-1.35-1.4-2.49.82-2.27,5.25-4.77,9.89-5.58l26.89-4.67c4.64-.81,9.07-3.31,9.9-5.58.41-1.14-.16-2-1.4-2.49a11.22,11.22,0,0,0-5.52-.17l-5,.88a11.06,11.06,0,0,1-5.51-.17c-1.25-.48-1.81-1.35-1.4-2.49.82-2.27,5.25-4.77,9.89-5.57l79-13.74a11.22,11.22,0,0,1,5.52.17c1.24.49,1.81,1.35,1.4,2.49-.82,2.27-5.26,4.77-9.9,5.58l-6.72,1.17c-4.64.8-9.07,3.3-9.89,5.57-.41,1.14.15,2,1.4,2.49a11.06,11.06,0,0,0,5.51.17l21.85-3.8a11.06,11.06,0,0,1,5.51.17C359.7,516.3,360.27,517.16,359.85,518.3Z"/><path class="cls-4" d="M871,349.52c.27,1.73-2.93,3.67-7.15,4.32l-105.45,16.4a14.93,14.93,0,0,1-5.55-.08c-1.47-.35-2.44-1-2.58-1.87-.27-1.73,2.94-3.67,7.16-4.33l24.45-3.8c4.22-.65,7.42-2.59,7.15-4.32-.13-.87-1.11-1.52-2.58-1.88a15,15,0,0,0-5.55-.07l-4.58.71a15,15,0,0,1-5.56-.08c-1.46-.35-2.44-1-2.57-1.87-.27-1.73,2.93-3.67,7.15-4.33l71.83-11.16a15,15,0,0,1,5.55.07c1.47.36,2.44,1,2.58,1.87.27,1.74-2.94,3.67-7.16,4.33l-6.11.95c-4.22.66-7.42,2.59-7.15,4.33.13.86,1.11,1.51,2.57,1.87a15.2,15.2,0,0,0,5.56.08l19.86-3.09a15,15,0,0,1,5.56.07C869.88,348,870.86,348.65,871,349.52Z"/><path class="cls-5" d="M781.29,433c.27,1.74-2.94,3.67-7.15,4.33l-105.45,16.4a15.14,15.14,0,0,1-5.55-.08c-1.47-.36-2.45-1-2.58-1.87-.27-1.73,2.93-3.67,7.15-4.33l24.45-3.8c4.22-.66,7.43-2.59,7.16-4.33-.14-.86-1.12-1.51-2.58-1.87a15.15,15.15,0,0,0-5.55-.08l-4.59.72a15.15,15.15,0,0,1-5.55-.08c-1.46-.36-2.44-1-2.58-1.87-.27-1.73,2.94-3.67,7.16-4.33l71.83-11.17a14.94,14.94,0,0,1,5.55.08c1.46.35,2.44,1,2.57,1.87.27,1.73-2.93,3.67-7.15,4.33l-6.11.95c-4.22.65-7.42,2.59-7.16,4.32.14.87,1.12,1.52,2.58,1.88a15,15,0,0,0,5.55.07l19.87-3.09a15.15,15.15,0,0,1,5.55.08C780.18,431.52,781.16,432.17,781.29,433Z"/><path class="cls-4" d="M926.74,530.86c.21,1.74-3,3.58-7.29,4.1L813.54,548a15.18,15.18,0,0,1-5.55-.25c-1.45-.41-2.41-1.09-2.52-2-.21-1.74,3-3.57,7.29-4.1l24.56-3c4.24-.53,7.5-2.36,7.29-4.1-.11-.87-1.07-1.55-2.52-2a15.18,15.18,0,0,0-5.55-.25l-4.6.57a15,15,0,0,1-5.55-.25c-1.45-.4-2.41-1.08-2.51-2-.22-1.74,3-3.58,7.28-4.1l72.15-8.89a14.69,14.69,0,0,1,5.54.25c1.46.4,2.41,1.08,2.52,2,.22,1.74-3,3.58-7.29,4.1l-6.14.76c-4.23.52-7.5,2.35-7.28,4.09.1.87,1.06,1.55,2.51,2a15.18,15.18,0,0,0,5.55.25l20-2.46a14.91,14.91,0,0,1,5.54.25C925.68,529.31,926.63,530,926.74,530.86Z"/></g></g></svg>