<svg xmlns="http://www.w3.org/2000/svg" viewBox="0 0 1044 856"><defs><style>.cls-1{fill:#fff;}.cls-2{fill:#1abc9c;}</style></defs><title>iot-wearables</title><g id="Layer_2" data-name="Layer 2"><g id="Layer_2-2" data-name="Layer 2"><path class="cls-1" d="M585,95a23.84,23.84,0,0,0,10.69-2.52,71,71,0,1,1,0-43A24,24,0,1,0,585,95Z"/><path class="cls-1" d="M508.88,522v8h-.32v-4.54A19.14,19.14,0,0,1,508.88,522Z"/><path class="cls-1" d="M547.49,525.46V530h-.32v-8A19.14,19.14,0,0,1,547.49,525.46Z"/><path class="cls-1" d="M508.88,522V556a19.14,19.14,0,0,1-.32-3.5V525.46A19.14,19.14,0,0,1,508.88,522Z"/><path class="cls-1" d="M547.49,525.46v27.08a19.14,19.14,0,0,1-.32,3.5V522A19.14,19.14,0,0,1,547.49,525.46Z"/><path class="cls-1" d="M675,421a24,24,0,0,0,42.07,15.78v3.94a30.28,30.28,0,1,1-60.55,0V233.85a9.27,9.27,0,0,0-18.22,2.42V765.73A24,24,0,1,0,634,806.82a45.57,45.57,0,0,1-86.81-19.39V556a19.14,19.14,0,0,0,.32-3.5V525.46a19.14,19.14,0,0,0-.32-3.5,19.46,19.46,0,0,0-38.29,0,19.14,19.14,0,0,0-.32,3.5v27.08a19.14,19.14,0,0,0,.32,3.5V787.43a45.57,45.57,0,1,1-91.13,0V514.15A23.94,23.94,0,0,0,427,516c.74,0,1.47,0,2.19-.1a24,24,0,1,0-11.44-46V236.27a9.27,9.27,0,1,0-18.54,0V440.72a30.28,30.28,0,1,1-60.55,0V257.14A23.72,23.72,0,0,0,345,258a24,24,0,0,0,23.57-19.5A23.76,23.76,0,0,0,369,234a24,24,0,0,0-24-24,23.12,23.12,0,0,0-4.59.45,17.11,17.11,0,0,0-1.75.41V200.28A30.27,30.27,0,0,1,368.94,170H684q.76,0,1.53,0A34,34,0,0,1,716.18,193a30.28,30.28,0,0,1,.89,7.3V405.22A24,24,0,0,0,675,421Z"/><path class="cls-2" d="M508.88,522V556a19.14,19.14,0,0,1-.32-3.5V525.46A19.14,19.14,0,0,1,508.88,522Z"/><path class="cls-2" d="M547.49,525.46v27.08a19.14,19.14,0,0,1-.32,3.5V522A19.14,19.14,0,0,1,547.49,525.46Z"/><path class="cls-1" d="M897.06,66.92l-2.2,10.76a3,3,0,0,1-5.2,1.4C886,85.86,879.57,88.86,871,89h-2c-3,0-3.81-3.35-4.23-6.29-1.31-4.76-2.91-7.07-4.77-7.12s-3.46,2.36-4.78,7.12C854.81,85.65,854,89,851,89h-2c-8.93-.15-15.56-3.39-19.1-10.8a3,3,0,0,1-5.74-.52L822,66.92a3,3,0,0,1,2.35-3.55,3,3,0,0,1,2.71.8c0-.64,0-1.3,0-2,.23-2.9,2.1-4.09,5-4.19h56c2.9.1,4.76,1.29,5,4.19,0,.45,0,.9,0,1.34a3,3,0,0,1,1.12-.22,3.05,3.05,0,0,1,.6.06A3,3,0,0,1,897.06,66.92Z"/><path class="cls-2" d="M897.06,66.92l-2.2,10.76a3,3,0,0,1-5.2,1.4C886,85.86,879.57,88.86,871,89h-2c-3,0-3.81-3.35-4.23-6.29-1.31-4.76-2.91-7.07-4.77-7.12s-3.46,2.36-4.78,7.12C854.81,85.65,854,89,851,89h-2c-8.93-.15-15.56-3.39-19.1-10.8a3,3,0,0,1-5.74-.52L822,66.92a3,3,0,0,1,2.35-3.55,3,3,0,0,1,2.71.8c0-.64,0-1.3,0-2,.23-2.9,2.1-4.09,5-4.19h56c2.9.1,4.76,1.29,5,4.19,0,.45,0,.9,0,1.34a3,3,0,0,1,1.12-.22,3.05,3.05,0,0,1,.6.06A3,3,0,0,1,897.06,66.92Z"/><path class="cls-1" d="M859,0a71,71,0,0,0-70.65,64H597.12a14,14,0,1,0,0,14H788.35A71,71,0,1,0,859,0Zm0,128a57,57,0,1,1,57-57A57,57,0,0,1,859,128Z"/><path class="cls-1" d="M977,404.58h-8V386a3,3,0,0,1,3-3h2a3,3,0,0,1,3,3Z"/><path class="cls-1" d="M969,437.42h8V456a3,3,0,0,1-3,3h-2a3,3,0,0,1-3-3Z"/><path class="cls-1" d="M970.92,416.34c-2-2,.11-4.12,2.12-2.11,2.09-2.09,4.19,0,2.1,2.1L973,418.44Z"/><path class="cls-1" d="M979.9,426.78a.31.31,0,0,1-.3.31H977l-1.44,1.44-.11.11,0,0-.11,0a.29.29,0,0,1-.21-.09l-.13-.13-3.75-3.74L968.92,427a.29.29,0,0,1-.22.1h-2.8a.31.31,0,0,1-.3-.31.3.3,0,0,1,.3-.29h2.68l2.32-2.33.08-.07a.29.29,0,0,1,.15-.09h.09a.43.43,0,0,1,.16.09l3.87,3.87,1.26-1.25.14-.15a.37.37,0,0,1,.12-.07h2.83A.3.3,0,0,1,979.9,426.78Z"/><path class="cls-1" d="M980.5,408h-15a4.49,4.49,0,0,0-4.5,4.5v17a4.49,4.49,0,0,0,4.5,4.5h15a4.49,4.49,0,0,0,4.5-4.5v-17A4.49,4.49,0,0,0,980.5,408Zm2.5,21.56a2.35,2.35,0,0,1-2.35,2.35h-15.3a2.35,2.35,0,0,1-2.35-2.35V412.44a2.35,2.35,0,0,1,2.35-2.35h15.3a2.35,2.35,0,0,1,2.35,2.35Z"/><path class="cls-2" d="M977,404.58h-8V386a3,3,0,0,1,3-3h2a3,3,0,0,1,3,3Z"/><path class="cls-2" d="M969,437.42h8V456a3,3,0,0,1-3,3h-2a3,3,0,0,1-3-3Z"/><path class="cls-2" d="M970.92,416.34c-2-2,.11-4.12,2.12-2.11,2.09-2.09,4.19,0,2.1,2.1L973,418.44Z"/><path class="cls-2" d="M979.9,426.78a.31.31,0,0,1-.3.31H977l-1.44,1.44-.11.11,0,0-.11,0a.29.29,0,0,1-.21-.09l-.13-.13-3.75-3.74L968.92,427a.29.29,0,0,1-.22.1h-2.8a.31.31,0,0,1-.3-.31.3.3,0,0,1,.3-.29h2.68l2.32-2.33.08-.07a.29.29,0,0,1,.15-.09h.09a.43.43,0,0,1,.16.09l3.87,3.87,1.26-1.25.14-.15a.37.37,0,0,1,.12-.07h2.83A.3.3,0,0,1,979.9,426.78Z"/><path class="cls-2" d="M980.5,408h-15a4.49,4.49,0,0,0-4.5,4.5v17a4.49,4.49,0,0,0,4.5,4.5h15a4.49,4.49,0,0,0,4.5-4.5v-17A4.49,4.49,0,0,0,980.5,408Zm2.5,21.56a2.35,2.35,0,0,1-2.35,2.35h-15.3a2.35,2.35,0,0,1-2.35-2.35V412.44a2.35,2.35,0,0,1,2.35-2.35h15.3a2.35,2.35,0,0,1,2.35,2.35Z"/><path class="cls-1" d="M973,350a71,71,0,0,0-70.65,64H711.12a14,14,0,1,0,0,14H902.35A71,71,0,1,0,973,350Zm0,128a57,57,0,1,1,57-57A57,57,0,0,1,973,478Z"/><circle class="cls-1" cx="153" cy="510" r="2"/><path class="cls-1" d="M164.5,466.22h-23a4.5,4.5,0,0,0-4.5,4.5v42.56a4.5,4.5,0,0,0,4.5,4.5h23a4.5,4.5,0,0,0,4.5-4.5V470.72A4.5,4.5,0,0,0,164.5,466.22Zm1.83,47.14a1.75,1.75,0,0,1-1.75,1.75H141.42a1.75,1.75,0,0,1-1.75-1.75V470.64a1.75,1.75,0,0,1,1.75-1.75h23.16a1.75,1.75,0,0,1,1.75,1.75Z"/><path class="cls-1" d="M427,478a13.94,13.94,0,0,0-9.25,3.5,13.67,13.67,0,0,0-2.87,3.5H223.65a71,71,0,1,0,0,14H414.88a13.67,13.67,0,0,0,2.87,3.5A14,14,0,1,0,427,478ZM153,549a57,57,0,1,1,57-57A57,57,0,0,1,153,549Z"/><circle class="cls-2" cx="153" cy="510" r="2"/><path class="cls-2" d="M164.5,466.22h-23a4.5,4.5,0,0,0-4.5,4.5v42.56a4.5,4.5,0,0,0,4.5,4.5h23a4.5,4.5,0,0,0,4.5-4.5V470.72A4.5,4.5,0,0,0,164.5,466.22Zm1.83,47.14a1.75,1.75,0,0,1-1.75,1.75H141.42a1.75,1.75,0,0,1-1.75-1.75V470.64a1.75,1.75,0,0,1,1.75-1.75h23.16a1.75,1.75,0,0,1,1.75,1.75Z"/><path class="cls-1" d="M345,220a13,13,0,0,0-1.4.07A14,14,0,0,0,332.88,227H141.65a71,71,0,1,0,0,14H332.88a14,14,0,0,0,26.06-5.65q.06-.66.06-1.35A14,14,0,0,0,345,220ZM71,291a57,57,0,1,1,57-57A57,57,0,0,1,71,291Z"/><path class="cls-1" d="M94,235a1,1,0,0,0,0-2H85v-8h9a1,1,0,0,0,0-2H85v-6.92a2.21,2.21,0,0,0-.08-.59l8.43-8.43a1,1,0,0,0,.29-.7,1,1,0,0,0-.29-.71,1,1,0,0,0-1.41,0l-8.43,8.43a2.21,2.21,0,0,0-.59-.08H59.08a2.21,2.21,0,0,0-.59.08l-8.43-8.43a1,1,0,0,0-.7-.29,1,1,0,0,0-.71.29,1,1,0,0,0,0,1.41l8.43,8.43a2.21,2.21,0,0,0-.08.59V223H48a1,1,0,0,0,0,2h9v8H48a1,1,0,0,0,0,2h9v8H48a1,1,0,0,0,0,2h9v6.92a2.21,2.21,0,0,0,.08.59l-8.43,8.43a1,1,0,0,0-.29.7,1,1,0,0,0,.29.71,1,1,0,0,0,1.41,0l8.43-8.43a2.21,2.21,0,0,0,.59.08H82.92a2.21,2.21,0,0,0,.59-.08l8.43,8.43a1,1,0,0,0,.7.29,1,1,0,0,0,.71-.29,1,1,0,0,0,0-1.41l-8.43-8.43a2.21,2.21,0,0,0,.08-.59V245h9a1,1,0,0,0,0-2H85v-8ZM83,251.33a.67.67,0,0,1-.67.67H59.67a.67.67,0,0,1-.67-.67V216.67a.67.67,0,0,1,.67-.67H82.33a.67.67,0,0,1,.67.67Z"/><path class="cls-1" d="M898,714a71,71,0,0,0-70.65,64H636.12a14,14,0,1,0,0,14H827.35A71,71,0,1,0,898,714Zm0,128a57,57,0,1,1,57-57A57,57,0,0,1,898,842Z"/><circle class="cls-1" cx="153" cy="510" r="2"/><path class="cls-1" d="M164.5,466.22h-23a4.5,4.5,0,0,0-4.5,4.5v42.56a4.5,4.5,0,0,0,4.5,4.5h23a4.5,4.5,0,0,0,4.5-4.5V470.72A4.5,4.5,0,0,0,164.5,466.22Zm1.83,47.14a1.75,1.75,0,0,1-1.75,1.75H141.42a1.75,1.75,0,0,1-1.75-1.75V470.64a1.75,1.75,0,0,1,1.75-1.75h23.16a1.75,1.75,0,0,1,1.75,1.75Z"/><circle class="cls-2" cx="153" cy="510" r="2"/><circle class="cls-1" cx="153" cy="510" r="2"/><path class="cls-1" d="M970.92,416.34c-2-2,.11-4.12,2.12-2.11,2.09-2.09,4.19,0,2.1,2.1L973,418.44Z"/><path class="cls-1" d="M979.9,426.78a.31.31,0,0,1-.3.31H977l-1.44,1.44-.11.11,0,0-.11,0a.29.29,0,0,1-.21-.09l-.13-.13-3.75-3.74L968.92,427a.29.29,0,0,1-.22.1h-2.8a.31.31,0,0,1-.3-.31.3.3,0,0,1,.3-.29h2.68l2.32-2.33.08-.07a.29.29,0,0,1,.15-.09h.09a.43.43,0,0,1,.16.09l3.87,3.87,1.26-1.25.14-.15a.37.37,0,0,1,.12-.07h2.83A.3.3,0,0,1,979.9,426.78Z"/><path class="cls-1" d="M980.5,408h-15a4.49,4.49,0,0,0-4.5,4.5v17a4.49,4.49,0,0,0,4.5,4.5h15a4.49,4.49,0,0,0,4.5-4.5v-17A4.49,4.49,0,0,0,980.5,408Zm2.5,21.56a2.35,2.35,0,0,1-2.35,2.35h-15.3a2.35,2.35,0,0,1-2.35-2.35V412.44a2.35,2.35,0,0,1,2.35-2.35h15.3a2.35,2.35,0,0,1,2.35,2.35Z"/><path class="cls-2" d="M970.92,416.34c-2-2,.11-4.12,2.12-2.11,2.09-2.09,4.19,0,2.1,2.1L973,418.44Z"/><path class="cls-2" d="M979.9,426.78a.31.31,0,0,1-.3.31H977l-1.44,1.44-.11.11,0,0-.11,0a.29.29,0,0,1-.21-.09l-.13-.13-3.75-3.74L968.92,427a.29.29,0,0,1-.22.1h-2.8a.31.31,0,0,1-.3-.31.3.3,0,0,1,.3-.29h2.68l2.32-2.33.08-.07a.29.29,0,0,1,.15-.09h.09a.43.43,0,0,1,.16.09l3.87,3.87,1.26-1.25.14-.15a.37.37,0,0,1,.12-.07h2.83A.3.3,0,0,1,979.9,426.78Z"/><path class="cls-1" d="M979.9,426.78a.31.31,0,0,1-.3.31H977l-1.44,1.44-.11.11,0,0-.11,0a.29.29,0,0,1-.21-.09l-.13-.13-3.75-3.74L968.92,427a.29.29,0,0,1-.22.1h-2.8a.31.31,0,0,1-.3-.31.3.3,0,0,1,.3-.29h2.68l2.32-2.33.08-.07a.29.29,0,0,1,.15-.09h.09a.43.43,0,0,1,.16.09l3.87,3.87,1.26-1.25.14-.15a.37.37,0,0,1,.12-.07h2.83A.3.3,0,0,1,979.9,426.78Z"/><path class="cls-1" d="M975.14,416.33,973,418.44l-2.1-2.1c-2-2,.11-4.12,2.12-2.11C975.13,412.14,977.23,414.24,975.14,416.33Z"/><path class="cls-1" d="M977,437.42V456a3,3,0,0,1-3,3h-2a3,3,0,0,1-3-3V437.42Z"/><path class="cls-1" d="M977,386v18.58h-8V386a3,3,0,0,1,3-3h2A3,3,0,0,1,977,386Z"/><path class="cls-1" d="M932,759c-6.34,2.88-13,3-20,0l-18,13-26,3c-16,2-18,22,1,24h42l4-4v4h17Q929,782.25,932,759Zm-3.4,37H917.38v-7.2L909.8,796H869.2c-13.84-1.39-13.42-16.53-.9-18.2L883.72,776a10,10,0,0,0,1.28,2,11.65,11.65,0,0,0,7,4,13,13,0,0,0,5,0,1.5,1.5,0,1,0,0-3,8.55,8.55,0,0,1-4,0,9.14,9.14,0,0,1-5.11-3.56l8.69-1,.57-.4a10.84,10.84,0,0,0,2.1,1.81,11.74,11.74,0,0,0,7.9,1.62,13,13,0,0,0,4.75-1.56A1.5,1.5,0,1,0,911,773a8.63,8.63,0,0,1-3.8,1.25,9.5,9.5,0,0,1-6.86-2.5L912.7,763c6.27,2.36,10.23,2.3,15.9,0C926.81,775.4,926.81,787.07,928.6,796Z"/><path class="cls-1" d="M887.92,62a3.79,3.79,0,0,1,1,.16,2.07,2.07,0,0,1,0,.23c0,.35,0,.71,0,1.08-.09,5.72-1,10.34-2.86,13.72-2.78,5.2-7.6,7.68-15.16,7.81H869.4a10.91,10.91,0,0,1-.67-2.86l0-.25-.06-.24c-.68-2.45-2.73-9.9-8.52-10.06h-.22c-5.78.16-7.85,7.6-8.52,10l-.08.26,0,.26a10.91,10.91,0,0,1-.67,2.84H849c-7.88-.14-12.81-2.85-15.52-8.53A30.84,30.84,0,0,1,831,64c0-.53,0-1.09,0-1.66,0-.09,0-.17,0-.22a3.79,3.79,0,0,1,1-.16h55.84m.08-4H832c-2.9.1-4.77,1.29-5,4.19,0,.68,0,1.34,0,2,.15,5.76,1.14,10.4,2.88,14,3.54,7.41,10.17,10.65,19.1,10.8h2c3,0,3.81-3.35,4.22-6.29,1.32-4.76,2.92-7.07,4.78-7.12s3.46,2.36,4.77,7.12C865.19,85.65,866,89,869,89h2c8.57-.14,15-3.14,18.66-9.92,2.08-3.89,3.23-9,3.33-15.55,0-.44,0-.89,0-1.34-.24-2.9-2.1-4.09-5-4.19Z"/><path class="cls-1" d="M824.91,63.31a3.05,3.05,0,0,0-.6.06A3,3,0,0,0,822,66.92l2.2,10.76a3,3,0,0,0,3,2.41,3.05,3.05,0,0,0,.6-.06,3,3,0,0,0,2.19-1.83,3,3,0,0,0,.16-1.72l-2.2-10.76a3,3,0,0,0-.84-1.55,3,3,0,0,0-2.11-.86Z"/><path class="cls-1" d="M894.11,63.31a3,3,0,0,0-1.12.22,3,3,0,0,0-1.83,2.19L889,76.48a3,3,0,0,0,.7,2.6,3,3,0,0,0,1.65,1,3.05,3.05,0,0,0,.6.06,3,3,0,0,0,3-2.41l2.2-10.76a3,3,0,0,0-2.35-3.55,3.05,3.05,0,0,0-.6-.06Z"/></g></g></svg>