<?xml version="1.0" encoding="utf-8"?>
<!-- Generator: Adobe Illustrator 23.0.1, SVG Export Plug-In . SVG Version: 6.00 Build 0)  -->
<svg version="1.1" id="Layer_1" xmlns="http://www.w3.org/2000/svg" xmlns:xlink="http://www.w3.org/1999/xlink" x="0px" y="0px"
	 viewBox="0 0 766.1 862.2" style="enable-background:new 0 0 766.1 862.2;" xml:space="preserve">
<style type="text/css">
	.st0{fill:#16A085;}
	.st1{fill:#FFFFFF;}
	.st2{fill:#1ABC9C;}
</style>
<title>landing-mobileapp</title>
<g>
	<g id="Layer_1-2">
		<path class="st0" d="M450.1,775.2c0,4.8-1,9.4-2.8,13.6c-0.2,0.5-0.5,1-0.7,1.6c-0.2,0.4-0.4,0.7-0.5,1.1
			c-0.1,0.3-0.3,0.6-0.5,0.8c-0.2,0.4-0.4,0.7-0.6,1.1c-0.3,0.5-0.6,1-0.9,1.4c-0.6,0.9-1.3,1.8-2,2.7c-0.4,0.4-0.7,0.9-1.1,1.3
			l-1.2,1.2c-0.4,0.4-0.8,0.8-1.2,1.2c-0.4,0.4-0.8,0.7-1.3,1.1c-0.9,0.7-1.8,1.4-2.7,2c-0.5,0.3-0.9,0.6-1.4,0.9
			c-0.3,0.2-0.7,0.4-1.1,0.6c-0.3,0.2-0.5,0.3-0.8,0.5c-0.4,0.2-0.7,0.4-1.1,0.5c-0.5,0.2-1,0.5-1.5,0.7c-4.2,1.8-8.8,2.8-13.6,2.8
			c-19.3,0-35-15.7-35-35s15.7-35,35-35C434.4,740.2,450.1,755.8,450.1,775.2z"/>
		<path class="st0" d="M560.1,610.2c0,0.5,0,0.9-0.1,1.4c0,0.2,0,0.4-0.1,0.5c0,0.2,0,0.4-0.1,0.6c0,0.3-0.1,0.6-0.1,0.8
			s-0.1,0.3-0.1,0.5c0,0.1,0,0.1,0,0.2c0,0.2-0.1,0.4-0.1,0.5c-0.8,2.9-2.3,5.5-4.4,7.6c-0.8,0.8-1.6,1.5-2.5,2.1
			c-0.2,0.2-0.5,0.3-0.7,0.4c-0.2,0.2-0.5,0.3-0.7,0.4c-0.1,0.1-0.3,0.2-0.5,0.2c-0.1,0.1-0.2,0.1-0.3,0.2c-0.3,0.1-0.5,0.2-0.8,0.3
			c-2,0.9-4.3,1.3-6.6,1.3H287.3c-7,0-13-4.2-15.7-10.2c-0.1-0.2-0.2-0.5-0.3-0.7c-0.2-0.5-0.3-0.9-0.5-1.4
			c-0.1-0.5-0.3-0.9-0.4-1.4c-0.2-1.1-0.3-2.3-0.3-3.4c0-1.2,0.1-2.3,0.3-3.5c0.1-0.3,0.1-0.6,0.2-0.8c0.1-0.2,0.2-0.5,0.2-0.8
			c0.1-0.3,0.2-0.5,0.3-0.8c0.1-0.3,0.2-0.5,0.3-0.8c0.1-0.3,0.2-0.5,0.3-0.8c0.4-0.8,0.8-1.5,1.2-2.2c3.1-4.6,8.3-7.6,14.2-7.6
			h255.7c5.9,0,11.2,3,14.2,7.6c0.5,0.7,0.9,1.4,1.2,2.2c0.1,0.3,0.2,0.5,0.3,0.8c0.1,0.3,0.2,0.5,0.3,0.8c0.1,0.3,0.2,0.5,0.3,0.8
			c0.1,0.3,0.2,0.5,0.2,0.8s0.1,0.5,0.2,0.8C560,607.8,560.1,609,560.1,610.2z"/>
		<path class="st0" d="M560.1,548.2c0,0.5,0,0.9-0.1,1.4c0,0.2,0,0.4-0.1,0.5c0,0.2,0,0.4-0.1,0.6c0,0.3-0.1,0.6-0.1,0.8
			s-0.1,0.3-0.1,0.5c0,0.1,0,0.1,0,0.2c0,0.2-0.1,0.4-0.1,0.5c-0.8,2.9-2.3,5.5-4.4,7.6c-0.8,0.8-1.6,1.5-2.5,2.1
			c-0.2,0.2-0.5,0.3-0.7,0.4c-0.2,0.2-0.5,0.3-0.7,0.4c-0.1,0.1-0.3,0.2-0.5,0.2c-0.1,0.1-0.2,0.1-0.3,0.2c-0.3,0.1-0.5,0.2-0.8,0.3
			c-2,0.9-4.3,1.3-6.6,1.3H287.3c-7,0-13-4.2-15.7-10.2c-0.1-0.2-0.2-0.5-0.3-0.7c-0.2-0.5-0.3-0.9-0.5-1.4
			c-0.1-0.5-0.3-0.9-0.4-1.4c-0.2-1.1-0.3-2.3-0.3-3.4c0-1.2,0.1-2.3,0.3-3.5c0.1-0.3,0.1-0.6,0.2-0.8c0.1-0.2,0.2-0.5,0.2-0.8
			c0.1-0.3,0.2-0.5,0.3-0.8c0.1-0.3,0.2-0.5,0.3-0.8c0.1-0.3,0.2-0.5,0.3-0.8c0.4-0.8,0.8-1.5,1.2-2.2c3.1-4.6,8.3-7.6,14.2-7.6
			h255.7c5.9,0,11.2,3,14.2,7.6c0.5,0.7,0.9,1.4,1.2,2.2c0.1,0.3,0.2,0.5,0.3,0.8c0.1,0.3,0.2,0.5,0.3,0.8c0.1,0.3,0.2,0.5,0.3,0.8
			c0.1,0.3,0.2,0.5,0.2,0.8s0.1,0.5,0.2,0.8C560,545.8,560.1,547,560.1,548.2z"/>
		<path class="st0" d="M560.1,486.1v1.2c0,0.2,0,0.4-0.1,0.6c0,0.2,0,0.4-0.1,0.6c0,0.3-0.1,0.6-0.1,0.8s-0.1,0.3-0.1,0.5
			c0,0,0,0.1,0,0.2c0,0.2-0.1,0.4-0.1,0.5c-0.3,1.1-0.7,2.2-1.3,3.2c-0.1,0.3-0.3,0.6-0.5,0.9c-0.7,1.3-1.6,2.5-2.7,3.5
			c-0.8,0.8-1.6,1.5-2.5,2.1c-0.2,0.2-0.4,0.3-0.7,0.4c-0.2,0.2-0.5,0.3-0.7,0.4c-0.1,0-0.2,0.1-0.3,0.1s-0.1,0.1-0.2,0.1
			c-0.1,0.1-0.2,0.1-0.3,0.2c-0.3,0.1-0.5,0.2-0.8,0.3c-2,0.9-4.3,1.3-6.6,1.3H287.3c-7,0-13-4.2-15.7-10.2
			c-0.1-0.2-0.2-0.5-0.3-0.7c-0.2-0.5-0.3-0.9-0.5-1.4c-0.1-0.5-0.3-1-0.4-1.4c-0.2-1.1-0.4-2.3-0.4-3.5v-1c0-0.3,0-0.5,0.1-0.8
			c0-0.2,0-0.4,0.1-0.6c0-0.1,0-0.2,0-0.2c0-0.2,0.1-0.5,0.1-0.7c0-0.3,0.1-0.6,0.2-0.9c0.1-0.5,0.3-1.1,0.5-1.6
			c2.4-6.6,8.7-11.3,16.1-11.3h255.7c5.9,0,11.2,3,14.2,7.6c0.5,0.7,0.9,1.4,1.2,2.2c0.1,0.3,0.2,0.5,0.3,0.8s0.2,0.5,0.3,0.8
			c0.1,0.3,0.2,0.5,0.3,0.8c0.1,0.3,0.2,0.5,0.2,0.8s0.1,0.5,0.2,0.8C560,483.8,560.1,485,560.1,486.1z"/>
		<path class="st0" d="M628.1,147v240.3c0,1-0.1,1.9-0.1,2.7c-0.1,0.9-0.2,1.8-0.4,2.7c-0.1,0.4-0.2,0.8-0.3,1.1
			c-0.1,0.4-0.2,0.7-0.3,1.1c-0.1,0.3-0.2,0.7-0.3,1c0,0.1,0,0.1-0.1,0.2c-0.1,0.3-0.2,0.7-0.4,1c-0.1,0.3-0.3,0.7-0.4,1
			c-0.3,0.7-0.6,1.4-1,2c-4.6,8.3-13.4,13.9-23.5,13.9H228.9c-10.1,0-19-5.6-23.5-13.9c-0.4-0.7-0.7-1.3-1-2c-0.2-0.4-0.3-0.7-0.4-1
			c-0.1-0.3-0.3-0.7-0.4-1c0,0,0-0.1-0.1-0.2c-0.1-0.3-0.2-0.7-0.3-1c-0.1-0.4-0.2-0.7-0.3-1.1c-0.1-0.4-0.2-0.8-0.3-1.1
			c-0.2-0.9-0.3-1.8-0.4-2.7c-0.1-0.9-0.1-1.8-0.1-2.7V147c0-14.8,12-26.8,26.8-26.8h372.3C616.1,120.2,628.1,132.2,628.1,147z"/>
		<path class="st1" d="M450.1,775.2c0,4.8-1,9.4-2.8,13.6c-0.2,0.5-0.5,1-0.7,1.6c-0.2,0.4-0.4,0.7-0.5,1.1
			c-0.1,0.3-0.3,0.6-0.5,0.8c-0.2,0.4-0.4,0.7-0.6,1.1c-0.3,0.5-0.6,1-0.9,1.4c-0.6,0.9-1.3,1.8-2,2.7c-0.4,0.4-0.7,0.9-1.1,1.3
			l-1.2,1.2c-0.4,0.4-0.8,0.8-1.2,1.2c-0.4,0.4-0.8,0.7-1.3,1.1c-0.9,0.7-1.8,1.4-2.7,2c-0.5,0.3-0.9,0.6-1.4,0.9
			c-0.3,0.2-0.7,0.4-1.1,0.6c-0.3,0.2-0.5,0.3-0.8,0.5c-0.4,0.2-0.7,0.4-1.1,0.5c-0.5,0.2-1,0.5-1.5,0.7c-4.2,1.8-8.8,2.8-13.6,2.8
			c-19.3,0-35-15.7-35-35s15.7-35,35-35C434.4,740.2,450.1,755.8,450.1,775.2z"/>
		<path class="st1" d="M560.1,610.2c0,0.5,0,0.9-0.1,1.4c0,0.2,0,0.4-0.1,0.5c0,0.2,0,0.4-0.1,0.6c0,0.3-0.1,0.6-0.1,0.8
			s-0.1,0.3-0.1,0.5c0,0.1,0,0.1,0,0.2c0,0.2-0.1,0.4-0.1,0.5c-0.8,2.9-2.3,5.5-4.4,7.6c-0.8,0.8-1.6,1.5-2.5,2.1
			c-0.2,0.2-0.5,0.3-0.7,0.4c-0.2,0.2-0.5,0.3-0.7,0.4c-0.1,0.1-0.3,0.2-0.5,0.2c-0.1,0.1-0.2,0.1-0.3,0.2c-0.3,0.1-0.5,0.2-0.8,0.3
			c-2,0.9-4.3,1.3-6.6,1.3H287.3c-7,0-13-4.2-15.7-10.2c-0.1-0.2-0.2-0.5-0.3-0.7c-0.2-0.5-0.3-0.9-0.5-1.4
			c-0.1-0.5-0.3-0.9-0.4-1.4c-0.2-1.1-0.3-2.3-0.3-3.4c0-1.2,0.1-2.3,0.3-3.5c0.1-0.3,0.1-0.6,0.2-0.8c0.1-0.2,0.2-0.5,0.2-0.8
			c0.1-0.3,0.2-0.5,0.3-0.8c0.1-0.3,0.2-0.5,0.3-0.8c0.1-0.3,0.2-0.5,0.3-0.8c0.4-0.8,0.8-1.5,1.2-2.2c3.1-4.6,8.3-7.6,14.2-7.6
			h255.7c5.9,0,11.2,3,14.2,7.6c0.5,0.7,0.9,1.4,1.2,2.2c0.1,0.3,0.2,0.5,0.3,0.8c0.1,0.3,0.2,0.5,0.3,0.8c0.1,0.3,0.2,0.5,0.3,0.8
			c0.1,0.3,0.2,0.5,0.2,0.8s0.1,0.5,0.2,0.8C560,607.8,560.1,609,560.1,610.2z"/>
		<path class="st1" d="M560.1,548.2c0,0.5,0,0.9-0.1,1.4c0,0.2,0,0.4-0.1,0.5c0,0.2,0,0.4-0.1,0.6c0,0.3-0.1,0.6-0.1,0.8
			s-0.1,0.3-0.1,0.5c0,0.1,0,0.1,0,0.2c0,0.2-0.1,0.4-0.1,0.5c-0.8,2.9-2.3,5.5-4.4,7.6c-0.8,0.8-1.6,1.5-2.5,2.1
			c-0.2,0.2-0.5,0.3-0.7,0.4c-0.2,0.2-0.5,0.3-0.7,0.4c-0.1,0.1-0.3,0.2-0.5,0.2c-0.1,0.1-0.2,0.1-0.3,0.2c-0.3,0.1-0.5,0.2-0.8,0.3
			c-2,0.9-4.3,1.3-6.6,1.3H287.3c-7,0-13-4.2-15.7-10.2c-0.1-0.2-0.2-0.5-0.3-0.7c-0.2-0.5-0.3-0.9-0.5-1.4
			c-0.1-0.5-0.3-0.9-0.4-1.4c-0.2-1.1-0.3-2.3-0.3-3.4c0-1.2,0.1-2.3,0.3-3.5c0.1-0.3,0.1-0.6,0.2-0.8c0.1-0.2,0.2-0.5,0.2-0.8
			c0.1-0.3,0.2-0.5,0.3-0.8c0.1-0.3,0.2-0.5,0.3-0.8c0.1-0.3,0.2-0.5,0.3-0.8c0.4-0.8,0.8-1.5,1.2-2.2c3.1-4.6,8.3-7.6,14.2-7.6
			h255.7c5.9,0,11.2,3,14.2,7.6c0.5,0.7,0.9,1.4,1.2,2.2c0.1,0.3,0.2,0.5,0.3,0.8c0.1,0.3,0.2,0.5,0.3,0.8c0.1,0.3,0.2,0.5,0.3,0.8
			c0.1,0.3,0.2,0.5,0.2,0.8s0.1,0.5,0.2,0.8C560,545.8,560.1,547,560.1,548.2z"/>
		<path class="st1" d="M560.1,486.1v1.2c0,0.2,0,0.4-0.1,0.6c0,0.2,0,0.4-0.1,0.6c0,0.3-0.1,0.6-0.1,0.8s-0.1,0.3-0.1,0.5
			c0,0,0,0.1,0,0.2c0,0.2-0.1,0.4-0.1,0.5c-0.3,1.1-0.7,2.2-1.3,3.2c-0.1,0.3-0.3,0.6-0.5,0.9c-0.7,1.3-1.6,2.5-2.7,3.5
			c-0.8,0.8-1.6,1.5-2.5,2.1c-0.2,0.2-0.4,0.3-0.7,0.4c-0.2,0.2-0.5,0.3-0.7,0.4c-0.1,0-0.2,0.1-0.3,0.1s-0.1,0.1-0.2,0.1
			c-0.1,0.1-0.2,0.1-0.3,0.2c-0.3,0.1-0.5,0.2-0.8,0.3c-2,0.9-4.3,1.3-6.6,1.3H287.3c-7,0-13-4.2-15.7-10.2
			c-0.1-0.2-0.2-0.5-0.3-0.7c-0.2-0.5-0.3-0.9-0.5-1.4c-0.1-0.5-0.3-1-0.4-1.4c-0.2-1.1-0.4-2.3-0.4-3.5v-1c0-0.3,0-0.5,0.1-0.8
			c0-0.2,0-0.4,0.1-0.6c0-0.1,0-0.2,0-0.2c0-0.2,0.1-0.5,0.1-0.7c0-0.3,0.1-0.6,0.2-0.9c0.1-0.5,0.3-1.1,0.5-1.6
			c2.4-6.6,8.7-11.3,16.1-11.3h255.7c5.9,0,11.2,3,14.2,7.6c0.5,0.7,0.9,1.4,1.2,2.2c0.1,0.3,0.2,0.5,0.3,0.8s0.2,0.5,0.3,0.8
			c0.1,0.3,0.2,0.5,0.3,0.8c0.1,0.3,0.2,0.5,0.2,0.8s0.1,0.5,0.2,0.8C560,483.8,560.1,485,560.1,486.1z"/>
		<path class="st1" d="M628.1,147v240.3c0,1-0.1,1.9-0.1,2.7c-0.1,0.9-0.2,1.8-0.4,2.7c-0.1,0.4-0.2,0.8-0.3,1.1
			c-0.1,0.4-0.2,0.7-0.3,1.1c-0.1,0.3-0.2,0.7-0.3,1c0,0.1,0,0.1-0.1,0.2c-0.1,0.3-0.2,0.7-0.4,1c-0.1,0.3-0.3,0.7-0.4,1
			c-0.3,0.7-0.6,1.4-1,2c-4.6,8.3-13.4,13.9-23.5,13.9H228.9c-10.1,0-19-5.6-23.5-13.9c-0.4-0.7-0.7-1.3-1-2c-0.2-0.4-0.3-0.7-0.4-1
			c-0.1-0.3-0.3-0.7-0.4-1c0,0,0-0.1-0.1-0.2c-0.1-0.3-0.2-0.7-0.3-1c-0.1-0.4-0.2-0.7-0.3-1.1c-0.1-0.4-0.2-0.8-0.3-1.1
			c-0.2-0.9-0.3-1.8-0.4-2.7c-0.1-0.9-0.1-1.8-0.1-2.7V147c0-14.8,12-26.8,26.8-26.8h372.3C616.1,120.2,628.1,132.2,628.1,147z"/>
		<path class="st0" d="M450.1,775.2c0,4.8-1,9.4-2.8,13.6c-0.2,0.5-0.5,1-0.7,1.6c-0.2,0.4-0.4,0.7-0.5,1.1
			c-0.1,0.3-0.3,0.6-0.5,0.8c-0.2,0.4-0.4,0.7-0.6,1.1c-0.3,0.5-0.6,1-0.9,1.4c-0.6,0.9-1.3,1.8-2,2.7c-0.4,0.4-0.7,0.9-1.1,1.3
			l-1.2,1.2c-0.4,0.4-0.8,0.8-1.2,1.2c-0.4,0.4-0.8,0.7-1.3,1.1c-0.9,0.7-1.8,1.4-2.7,2c-0.5,0.3-0.9,0.6-1.4,0.9
			c-0.3,0.2-0.7,0.4-1.1,0.6c-0.3,0.2-0.5,0.3-0.8,0.5c-0.4,0.2-0.7,0.4-1.1,0.5c-0.5,0.2-1,0.5-1.5,0.7c-4.2,1.8-8.8,2.8-13.6,2.8
			c-19.3,0-35-15.7-35-35s15.7-35,35-35C434.4,740.2,450.1,755.8,450.1,775.2z"/>
		<path class="st2" d="M628.1,147v240.3c0,1-0.1,1.9-0.1,2.7c-0.1,0.9-0.2,1.8-0.4,2.7c-0.1,0.4-0.2,0.8-0.3,1.1
			c-0.1,0.4-0.2,0.7-0.3,1.1c-0.1,0.3-0.2,0.7-0.3,1c0,0.1,0,0.1-0.1,0.2c-0.1,0.3-0.2,0.7-0.4,1c-0.1,0.3-0.3,0.7-0.4,1
			c-0.3,0.7-0.6,1.4-1,2c-4.6,8.3-13.4,13.9-23.5,13.9H228.9c-10.1,0-19-5.6-23.5-13.9c-0.4-0.7-0.7-1.3-1-2c-0.2-0.4-0.3-0.7-0.4-1
			c-0.1-0.3-0.3-0.7-0.4-1c0,0,0-0.1-0.1-0.2c-0.1-0.3-0.2-0.7-0.3-1c-0.1-0.4-0.2-0.7-0.3-1.1c-0.1-0.4-0.2-0.8-0.3-1.1
			c-0.2-0.9-0.3-1.8-0.4-2.7c-0.1-0.9-0.1-1.8-0.1-2.7V147c0-14.8,12-26.8,26.8-26.8h372.3C616.1,120.2,628.1,132.2,628.1,147z"/>
		<path class="st2" d="M560.1,486.1v1.2c0,0.2,0,0.4-0.1,0.6c0,0.2,0,0.4-0.1,0.6c0,0.3-0.1,0.6-0.1,0.8s-0.1,0.3-0.1,0.5
			c0,0,0,0.1,0,0.2c0,0.2-0.1,0.4-0.1,0.5c-0.3,1.1-0.7,2.2-1.3,3.2c-0.1,0.3-0.3,0.6-0.5,0.9c-0.7,1.3-1.6,2.5-2.7,3.5
			c-0.8,0.8-1.6,1.5-2.5,2.1c-0.2,0.2-0.4,0.3-0.7,0.4c-0.2,0.2-0.5,0.3-0.7,0.4c-0.1,0-0.2,0.1-0.3,0.1s-0.1,0.1-0.2,0.1
			c-0.1,0.1-0.2,0.1-0.3,0.2c-0.3,0.1-0.5,0.2-0.8,0.3c-2,0.9-4.3,1.3-6.6,1.3H287.3c-7,0-13-4.2-15.7-10.2
			c-0.1-0.2-0.2-0.5-0.3-0.7c-0.2-0.5-0.3-0.9-0.5-1.4c-0.1-0.5-0.3-1-0.4-1.4c-0.2-1.1-0.4-2.3-0.4-3.5v-1c0-0.3,0-0.5,0.1-0.8
			c0-0.2,0-0.4,0.1-0.6c0-0.1,0-0.2,0-0.2c0-0.2,0.1-0.5,0.1-0.7c0-0.3,0.1-0.6,0.2-0.9c0.1-0.5,0.3-1.1,0.5-1.6
			c2.4-6.6,8.7-11.3,16.1-11.3h255.7c5.9,0,11.2,3,14.2,7.6c0.5,0.7,0.9,1.4,1.2,2.2c0.1,0.3,0.2,0.5,0.3,0.8s0.2,0.5,0.3,0.8
			c0.1,0.3,0.2,0.5,0.3,0.8c0.1,0.3,0.2,0.5,0.2,0.8s0.1,0.5,0.2,0.8C560,483.8,560.1,485,560.1,486.1z"/>
		<path class="st0" d="M200.9,28.1c-0.3,0.2-0.5,0.4-0.7,0.6c0,0,0,0,0,0c-0.2,0.1-0.3,0.3-0.4,0.4c0.6-0.5,1.3-1.1,2-1.6
			C201.4,27.7,201.2,27.9,200.9,28.1z M196.6,829.9c0.4,0.5,0.8,1,1.2,1.5C197.4,830.9,197,830.4,196.6,829.9z"/>
		<path class="st0" d="M755.3,559.2c-0.7-0.1-1.4-0.1-2.2,0h-91v-514c0-24.8-20.2-45-45-45h-404c-16.7,0-32,9.2-39.8,24h-60.7
			c-7.2-0.6-13.4,4.7-14,11.9c-0.6,7.2,4.7,13.4,11.9,14c0.7,0.1,1.4,0.1,2.2,0h2.4c7.2-0.6,13.4,4.8,14,11.9
			c0.6,7.2-4.8,13.4-11.9,14H60.3c-7.1,0.6-12.5,6.9-11.9,14c0.5,6.3,5.5,11.3,11.9,11.9H168v593.3h-56.5c-7.2-0.6-13.4,4.7-14,11.9
			c-0.6,7.2,4.7,13.4,11.9,14c0.7,0.1,1.4,0.1,2.2,0h2.4c7.2-0.6,13.4,4.8,14,11.9c0.6,7.2-4.8,13.4-11.9,14H59.3
			c-7.2,0.2-12.9,6.1-12.7,13.3c0.1,5.5,3.7,10.3,8.9,12.1c0.6,0.2,1.3,0.3,1.9,0.4c0.6,0.1,1.3,0.1,1.9,0.1h73.3
			c6.8,2.2,10.5,9.6,8.3,16.4c-1.7,5.3-6.6,8.8-12.1,9H13c-7.2,0.6-12.5,6.9-11.9,14c0.5,6.3,5.5,11.3,11.9,11.9h155.6
			c3.5,21.9,22.3,38,44.5,38h404c24.8,0,45-20.1,45-45V636.9h65c7.1,0.6,13.4-4.7,14-11.9c0.6-7.2-4.7-13.4-11.9-14
			c-0.7-0.1-1.4-0.1-2.2,0h-18.8c-7.2,0.6-13.4-4.8-14-11.9c-0.6-7.1,4.8-13.4,11.9-14h46.8c7.2,0.6,13.4-4.7,14-11.9
			C767.8,566,762.5,559.8,755.3,559.2z M612.7,840.1h-395c-0.9,0-1.8,0-2.7-0.1c-0.5-0.1-0.9-0.1-1.3-0.2c-1.3-0.2-2.6-0.5-3.9-0.9
			c-0.8-0.3-1.7-0.6-2.5-0.9c-0.7-0.3-1.3-0.6-2-0.9c-0.3-0.1-0.5-0.3-0.8-0.4c-0.5-0.3-0.9-0.5-1.4-0.8c-0.5-0.3-1-0.7-1.5-1
			c-0.7-0.5-1.4-1.1-2-1.6c-0.6-0.6-1.3-1.2-1.8-1.8c-0.6-0.6-1.1-1.3-1.6-2c-0.4-0.5-0.7-1-1-1.5s-0.6-0.9-0.8-1.4
			c-0.2-0.3-0.3-0.5-0.4-0.8c-0.3-0.6-0.6-1.3-0.9-2c-0.3-0.8-0.6-1.6-0.9-2.5c-0.4-1.3-0.7-2.6-0.9-3.9c-0.1-0.4-0.1-0.9-0.2-1.3
			c-0.1-0.9-0.1-1.8-0.1-2.7V49c0-0.9,0-1.8,0.1-2.7c0-0.5,0.1-0.9,0.2-1.3c0.2-1.3,0.5-2.6,0.9-3.9c0.3-0.8,0.6-1.7,0.9-2.5
			c0.3-0.7,0.6-1.3,0.9-2c0.1-0.3,0.3-0.5,0.4-0.8c0.3-0.5,0.5-0.9,0.8-1.4s0.7-1,1-1.5c0.5-0.7,1.1-1.3,1.6-2
			c0.6-0.6,1.2-1.3,1.8-1.8c0.6-0.6,1.3-1.1,2-1.6c0.5-0.4,1-0.7,1.5-1s0.9-0.6,1.4-0.8c0.3-0.2,0.5-0.3,0.8-0.4
			c0.6-0.3,1.3-0.7,2-0.9c0.8-0.3,1.6-0.6,2.5-0.9c1.3-0.4,2.6-0.7,3.9-0.9c0.4-0.1,0.9-0.1,1.3-0.2c0.9-0.1,1.8-0.1,2.7-0.1h95.4
			c0,12.2,9.9,22,22.1,22H495c6.1,0,11.6-2.5,15.6-6.4c0.5-0.5,1-1,1.4-1.6c0.5-0.5,0.9-1.1,1.3-1.7c1.8-2.6,3-5.7,3.5-8.9
			c0-0.3,0.1-0.6,0.1-0.8c0.1-0.8,0.2-1.7,0.2-2.5h95.5c1.4,0,2.8,0.1,4.1,0.3s2.6,0.5,3.9,0.9c6.3,2,11.6,6.2,15,11.7
			c0.5,0.7,0.9,1.5,1.2,2.3c0.4,0.8,0.7,1.6,1,2.4c1.1,2.9,1.6,6,1.6,9.2v764.1h0.1C639.5,828.1,627.5,840.1,612.7,840.1z"/>
		<path class="st1" d="M639.4,813.3V49.2c0-3.2-0.5-6.3-1.6-9.2c-0.3-0.8-0.6-1.6-1-2.4c-0.3-0.8-0.7-1.6-1.2-2.3
			c-3.4-5.5-8.7-9.7-15-11.7c-1.3-0.4-2.6-0.7-3.9-0.9s-2.7-0.3-4.1-0.3h-95.5c0,0.8-0.1,1.7-0.2,2.5c0,0.2-0.1,0.5-0.1,0.8
			c-0.5,3.2-1.7,6.3-3.5,8.9c-0.4,0.6-0.8,1.2-1.3,1.7c-0.4,0.6-0.9,1.1-1.4,1.6c-4,3.9-9.5,6.4-15.6,6.4H335.2
			c-12.2,0-22.1-9.8-22.1-22h-95.4c-0.9,0-1.8,0-2.7,0.1c-0.4,0.1-0.9,0.1-1.3,0.2c-1.3,0.2-2.6,0.5-3.9,0.9
			c-0.9,0.3-1.7,0.6-2.5,0.9c-0.7,0.2-1.4,0.6-2,0.9c-0.3,0.1-0.5,0.2-0.8,0.4c-0.5,0.2-0.9,0.5-1.4,0.8s-1,0.6-1.5,1
			c-0.2,0.2-0.5,0.4-0.7,0.6c0.3-0.2,0.5-0.4,0.8-0.6c-0.7,0.5-1.4,1.1-2,1.6c0.1-0.1,0.3-0.3,0.4-0.4c-0.2,0.1-0.3,0.3-0.5,0.4
			c-0.6,0.5-1.2,1.2-1.8,1.8c-0.5,0.7-1.1,1.3-1.6,2c-0.3,0.5-0.7,1-1,1.5s-0.5,0.9-0.8,1.4c-0.1,0.3-0.3,0.5-0.4,0.8
			c-0.3,0.7-0.6,1.3-0.9,2c-0.3,0.8-0.6,1.7-0.9,2.5c-0.4,1.3-0.7,2.6-0.9,3.9c-0.1,0.4-0.2,0.8-0.2,1.3c-0.1,0.9-0.1,1.8-0.1,2.7
			v764.4c0,0.9,0,1.8,0.1,2.7c0.1,0.4,0.1,0.9,0.2,1.3c0.2,1.3,0.5,2.6,0.9,3.9c0.3,0.9,0.6,1.7,0.9,2.5c0.3,0.7,0.6,1.4,0.9,2
			c0.1,0.3,0.2,0.5,0.4,0.8c0.2,0.5,0.5,0.9,0.8,1.4s0.6,1,1,1.5c0.5,0.7,1,1.4,1.6,2c0.5,0.6,1.2,1.2,1.8,1.8
			c0.6,0.5,1.3,1.1,2,1.6c0.5,0.3,1,0.7,1.5,1c0.5,0.3,0.9,0.5,1.4,0.8c0.3,0.1,0.5,0.3,0.8,0.4c0.7,0.3,1.3,0.6,2,0.9
			c0.8,0.3,1.7,0.6,2.5,0.9c1.3,0.4,2.6,0.7,3.9,0.9c0.4,0.1,0.8,0.1,1.3,0.2c0.9,0.1,1.8,0.1,2.7,0.1h395
			C627.5,840.1,639.5,828.1,639.4,813.3L639.4,813.3z M196.2,829.4c0.1,0.2,0.3,0.3,0.4,0.5c0.4,0.5,0.8,1,1.2,1.5
			C197.2,830.8,196.7,830.1,196.2,829.4z M204.6,398.7c0.2,0.5,0.5,1,0.8,1.5C205.1,399.8,204.9,399.2,204.6,398.7z M271.6,617.1
			c1.9,4.3,5.6,7.7,10.1,9.3C277.2,624.8,273.5,621.4,271.6,617.1z M447.3,788.8c-0.2,0.5-0.5,1-0.7,1.6c-0.2,0.4-0.4,0.7-0.5,1.1
			c-0.1,0.3-0.3,0.6-0.5,0.8c-0.2,0.4-0.4,0.7-0.6,1.1c-0.3,0.5-0.6,1-0.9,1.4c-0.6,0.9-1.3,1.8-2,2.7c-0.4,0.4-0.7,0.9-1.1,1.3
			l-1.2,1.2c-0.4,0.4-0.8,0.8-1.2,1.2c-0.4,0.4-0.8,0.7-1.3,1.1c-0.9,0.7-1.8,1.4-2.7,2c-0.5,0.3-0.9,0.6-1.4,0.9
			c-0.3,0.2-0.7,0.4-1.1,0.6c-0.3,0.2-0.5,0.3-0.8,0.5c-0.4,0.2-0.7,0.4-1.1,0.5c-0.5,0.2-1,0.5-1.5,0.7c-4.2,1.8-8.8,2.8-13.6,2.8
			c-19.3,0-35-15.7-35-35s15.7-35,35-35c19.3-0.1,35,15.5,35,34.9C450.1,780,449.1,784.6,447.3,788.8z M544.8,627.2
			c1.7-0.2,3.3-0.6,4.8-1.2C548,626.7,546.4,627.1,544.8,627.2z M560,611.6c0,0.2,0,0.4-0.1,0.5c0,0.2,0,0.4-0.1,0.6
			c0,0.3-0.1,0.6-0.1,0.8s-0.1,0.3-0.1,0.5c0,0.1,0,0.1,0,0.2c0,0.2-0.1,0.4-0.1,0.5c-0.8,2.9-2.3,5.5-4.4,7.6
			c-0.8,0.8-1.6,1.5-2.5,2.1c-0.2,0.2-0.5,0.3-0.7,0.4c-0.2,0.2-0.5,0.3-0.7,0.4c-0.1,0.1-0.3,0.2-0.5,0.2c-0.1,0.1-0.2,0.1-0.3,0.2
			c-0.3,0.1-0.5,0.2-0.8,0.3c-2,0.9-4.3,1.3-6.6,1.3H287.3c-7,0-13-4.2-15.7-10.2c-0.1-0.2-0.2-0.5-0.3-0.7
			c-0.2-0.5-0.3-0.9-0.5-1.4c-0.1-0.5-0.3-0.9-0.4-1.4c-0.2-1.1-0.3-2.3-0.3-3.4c0-1.2,0.1-2.3,0.3-3.5c0.1-0.3,0.1-0.6,0.2-0.8
			c0.1-0.2,0.2-0.5,0.2-0.8c0.1-0.3,0.2-0.5,0.3-0.8c0.1-0.3,0.2-0.5,0.3-0.8c0.1-0.3,0.2-0.5,0.3-0.8c0.4-0.8,0.8-1.5,1.2-2.2
			c3.1-4.6,8.3-7.6,14.2-7.6h255.7c5.9,0,11.2,3,14.2,7.6c0.5,0.7,0.9,1.4,1.2,2.2c0.1,0.3,0.2,0.5,0.3,0.8c0.1,0.3,0.2,0.5,0.3,0.8
			c0.1,0.3,0.2,0.5,0.3,0.8c0.1,0.3,0.2,0.5,0.2,0.8s0.1,0.5,0.2,0.8c0.5,1.2,0.6,2.4,0.6,3.6C560.1,610.7,560.1,611.1,560,611.6z
			 M271.6,555.1c1.9,4.3,5.6,7.7,10.1,9.3C277.2,562.8,273.5,559.4,271.6,555.1z M544.8,565.2c1.7-0.2,3.3-0.6,4.8-1.2
			C548,564.7,546.4,565.1,544.8,565.2z M560,549.6c0,0.2,0,0.4-0.1,0.5c0,0.2,0,0.4-0.1,0.6c0,0.3-0.1,0.6-0.1,0.8s-0.1,0.3-0.1,0.5
			c0,0.1,0,0.1,0,0.2c0,0.2-0.1,0.4-0.1,0.5c-0.8,2.9-2.3,5.5-4.4,7.6c-0.8,0.8-1.6,1.5-2.5,2.1c-0.2,0.2-0.5,0.3-0.7,0.4
			c-0.2,0.2-0.5,0.3-0.7,0.4c-0.1,0.1-0.3,0.2-0.5,0.2c-0.1,0.1-0.2,0.1-0.3,0.2c-0.3,0.1-0.5,0.2-0.8,0.3c-2,0.9-4.3,1.3-6.6,1.3
			H287.3c-7,0-13-4.2-15.7-10.2c-0.1-0.2-0.2-0.5-0.3-0.7c-0.2-0.5-0.3-0.9-0.5-1.4c-0.1-0.5-0.3-0.9-0.4-1.4
			c-0.2-1.1-0.3-2.3-0.3-3.4c0-1.2,0.1-2.3,0.3-3.5c0.1-0.3,0.1-0.6,0.2-0.8c0.1-0.2,0.2-0.5,0.2-0.8c0.1-0.3,0.2-0.5,0.3-0.8
			c0.1-0.3,0.2-0.5,0.3-0.8c0.1-0.3,0.2-0.5,0.3-0.8c0.4-0.8,0.8-1.5,1.2-2.2c3.1-4.6,8.3-7.6,14.2-7.6h255.7c5.9,0,11.2,3,14.2,7.6
			c0.5,0.7,0.9,1.4,1.2,2.2c0.1,0.3,0.2,0.5,0.3,0.8c0.1,0.3,0.2,0.5,0.3,0.8c0.1,0.3,0.2,0.5,0.3,0.8c0.1,0.3,0.2,0.5,0.2,0.8
			s0.1,0.5,0.2,0.8c0.5,1.2,0.6,2.4,0.6,3.6C560.1,548.7,560.1,549.1,560,549.6z M271.6,493.1c1.9,4.3,5.6,7.7,10.1,9.3
			C277.2,500.8,273.5,497.4,271.6,493.1z M544.8,503.2c1.7-0.2,3.3-0.6,4.8-1.2C548,502.7,546.4,503.1,544.8,503.2z M560.1,487.3
			c0,0.2,0,0.4-0.1,0.6c0,0.2,0,0.4-0.1,0.6c0,0.3-0.1,0.6-0.1,0.8s-0.1,0.3-0.1,0.5c0,0,0,0.1,0,0.2c0,0.2-0.1,0.4-0.1,0.5
			c-0.3,1.1-0.7,2.2-1.3,3.2c-0.1,0.3-0.3,0.6-0.5,0.9c-0.7,1.3-1.6,2.5-2.7,3.5c-0.8,0.8-1.6,1.5-2.5,2.1c-0.2,0.2-0.4,0.3-0.7,0.4
			c-0.2,0.2-0.5,0.3-0.7,0.4c-0.1,0-0.2,0.1-0.3,0.1s-0.1,0.1-0.2,0.1c-0.1,0.1-0.2,0.1-0.3,0.2c-0.3,0.1-0.5,0.2-0.8,0.3
			c-2,0.9-4.3,1.3-6.6,1.3H287.3c-7,0-13-4.2-15.7-10.2c-0.1-0.2-0.2-0.5-0.3-0.7c-0.2-0.5-0.3-0.9-0.5-1.4c-0.1-0.5-0.3-1-0.4-1.4
			c-0.2-1.1-0.4-2.3-0.4-3.5v-1c0-0.3,0-0.5,0.1-0.8c0-0.2,0-0.4,0.1-0.6c0-0.1,0-0.2,0-0.2c0-0.2,0.1-0.5,0.1-0.7
			c0-0.3,0.1-0.6,0.2-0.9c0.1-0.5,0.3-1.1,0.5-1.6c2.4-6.6,8.7-11.3,16.1-11.3h255.7c5.9,0,11.2,3,14.2,7.6c0.5,0.7,0.9,1.4,1.2,2.2
			c0.1,0.3,0.2,0.5,0.3,0.8s0.2,0.5,0.3,0.8c0.1,0.3,0.2,0.5,0.3,0.8c0.1,0.3,0.2,0.5,0.2,0.8s0.1,0.5,0.2,0.8
			c0.5,1.3,0.6,2.5,0.6,3.6V487.3z M609.5,412.8c6.6-2.1,12-6.7,15.3-12.6C621.6,406.2,616,410.8,609.5,412.8z M628.1,387.3
			c0,0.9,0,1.8-0.1,2.7s-0.2,1.8-0.4,2.7c-0.1,0.4-0.2,0.8-0.3,1.1c-0.1,0.4-0.2,0.7-0.3,1.1c-0.1,0.3-0.2,0.7-0.3,1
			c0,0.1,0,0.1-0.1,0.2c-0.1,0.3-0.2,0.7-0.4,1c-0.1,0.3-0.3,0.7-0.4,1c-0.3,0.7-0.6,1.4-1,2c-4.6,8.3-13.4,13.9-23.5,13.9H228.9
			c-10.1,0-19-5.6-23.5-13.9c-0.4-0.7-0.7-1.3-1-2c-0.2-0.4-0.3-0.7-0.4-1c-0.1-0.3-0.3-0.7-0.4-1c0,0,0-0.1-0.1-0.2
			c-0.1-0.3-0.2-0.7-0.3-1c-0.1-0.4-0.2-0.7-0.3-1.1c-0.1-0.4-0.2-0.8-0.3-1.1c-0.2-0.9-0.3-1.8-0.4-2.7c-0.1-0.9-0.1-1.8-0.1-2.7
			V147c0-14.8,12-26.8,26.8-26.8h372.3c14.9,0,26.9,12,26.9,26.8V387.3z"/>
		<path class="st1" d="M196.6,829.9c-0.1-0.2-0.3-0.3-0.4-0.5c0.5,0.7,1,1.4,1.6,2C197.4,831,197,830.4,196.6,829.9z M199.6,29.1
			c0.2-0.1,0.4-0.3,0.5-0.4c0,0,0,0,0,0c0.2-0.2,0.5-0.4,0.7-0.6c0.3-0.2,0.5-0.4,0.7-0.6C200.9,28,200.2,28.6,199.6,29.1z
			 M204.6,398.7c0.2,0.5,0.5,1,0.8,1.5C205.1,399.7,204.9,399.2,204.6,398.7z M544.8,627.2c1.7-0.2,3.3-0.5,4.8-1.2
			C548.1,626.6,546.5,627,544.8,627.2z M271.6,617.1c1.9,4.3,5.6,7.7,10.1,9.3C277.2,624.8,273.5,621.4,271.6,617.1z M544.8,565.2
			c1.7-0.2,3.3-0.5,4.8-1.2C548.1,564.6,546.5,565,544.8,565.2z M271.6,555.1c1.9,4.3,5.6,7.7,10.1,9.3
			C277.2,562.8,273.5,559.4,271.6,555.1z M544.8,503.2c1.7-0.2,3.3-0.5,4.8-1.2C548.1,502.6,546.5,503,544.8,503.2z M271.6,493.1
			c1.9,4.3,5.6,7.7,10.1,9.3C277.2,500.8,273.5,497.4,271.6,493.1z M609.5,412.8c6.6-2.1,12.1-6.7,15.3-12.6
			C621.5,406.2,616,410.7,609.5,412.8z M628,390c0.1-0.9,0.1-1.8,0.1-2.7C628.1,388.3,628,389.2,628,390z"/>
		<path class="st0" d="M497.7,0.2H332.4c0.9-0.1,1.8-0.2,2.7-0.2H495C495.9,0,496.8,0.1,497.7,0.2z"/>
		<path class="st2" d="M560.1,548.2c0,0.5,0,0.9-0.1,1.4c0,0.2,0,0.4-0.1,0.5c0,0.2,0,0.4-0.1,0.6c0,0.3-0.1,0.6-0.1,0.8
			s-0.1,0.3-0.1,0.5c0,0.1,0,0.1,0,0.2c0,0.2-0.1,0.4-0.1,0.5c-0.8,2.9-2.3,5.5-4.4,7.6c-0.8,0.8-1.6,1.5-2.5,2.1
			c-0.2,0.2-0.5,0.3-0.7,0.4c-0.2,0.2-0.5,0.3-0.7,0.4c-0.1,0.1-0.3,0.2-0.5,0.2c-0.1,0.1-0.2,0.1-0.3,0.2c-0.3,0.1-0.5,0.2-0.8,0.3
			c-2,0.9-4.3,1.3-6.6,1.3H287.3c-7,0-13-4.2-15.7-10.2c-0.1-0.2-0.2-0.5-0.3-0.7c-0.2-0.5-0.3-0.9-0.5-1.4
			c-0.1-0.5-0.3-0.9-0.4-1.4c-0.2-1.1-0.3-2.3-0.3-3.4c0-1.2,0.1-2.3,0.3-3.5c0.1-0.3,0.1-0.6,0.2-0.8c0.1-0.2,0.2-0.5,0.2-0.8
			c0.1-0.3,0.2-0.5,0.3-0.8c0.1-0.3,0.2-0.5,0.3-0.8c0.1-0.3,0.2-0.5,0.3-0.8c0.4-0.8,0.8-1.5,1.2-2.2c3.1-4.6,8.3-7.6,14.2-7.6
			h255.7c5.9,0,11.2,3,14.2,7.6c0.5,0.7,0.9,1.4,1.2,2.2c0.1,0.3,0.2,0.5,0.3,0.8c0.1,0.3,0.2,0.5,0.3,0.8c0.1,0.3,0.2,0.5,0.3,0.8
			c0.1,0.3,0.2,0.5,0.2,0.8s0.1,0.5,0.2,0.8C560,545.8,560.1,547,560.1,548.2z"/>
		<path class="st2" d="M560.1,610.2c0,0.5,0,0.9-0.1,1.4c0,0.2,0,0.4-0.1,0.5c0,0.2,0,0.4-0.1,0.6c0,0.3-0.1,0.6-0.1,0.8
			s-0.1,0.3-0.1,0.5c0,0.1,0,0.1,0,0.2c0,0.2-0.1,0.4-0.1,0.5c-0.8,2.9-2.3,5.5-4.4,7.6c-0.8,0.8-1.6,1.5-2.5,2.1
			c-0.2,0.2-0.5,0.3-0.7,0.4c-0.2,0.2-0.5,0.3-0.7,0.4c-0.1,0.1-0.3,0.2-0.5,0.2c-0.1,0.1-0.2,0.1-0.3,0.2c-0.3,0.1-0.5,0.2-0.8,0.3
			c-2,0.9-4.3,1.3-6.6,1.3H287.3c-7,0-13-4.2-15.7-10.2c-0.1-0.2-0.2-0.5-0.3-0.7c-0.2-0.5-0.3-0.9-0.5-1.4
			c-0.1-0.5-0.3-0.9-0.4-1.4c-0.2-1.1-0.3-2.3-0.3-3.4c0-1.2,0.1-2.3,0.3-3.5c0.1-0.3,0.1-0.6,0.2-0.8c0.1-0.2,0.2-0.5,0.2-0.8
			c0.1-0.3,0.2-0.5,0.3-0.8c0.1-0.3,0.2-0.5,0.3-0.8c0.1-0.3,0.2-0.5,0.3-0.8c0.4-0.8,0.8-1.5,1.2-2.2c3.1-4.6,8.3-7.6,14.2-7.6
			h255.7c5.9,0,11.2,3,14.2,7.6c0.5,0.7,0.9,1.4,1.2,2.2c0.1,0.3,0.2,0.5,0.3,0.8c0.1,0.3,0.2,0.5,0.3,0.8c0.1,0.3,0.2,0.5,0.3,0.8
			c0.1,0.3,0.2,0.5,0.2,0.8s0.1,0.5,0.2,0.8C560,607.8,560.1,609,560.1,610.2z"/>
	</g>
</g>
</svg>
