<?xml version="1.0" encoding="utf-8"?>
<!-- Generator: Adobe Illustrator 23.0.1, SVG Export Plug-In . SVG Version: 6.00 Build 0)  -->
<svg version="1.1" id="Layer_1" xmlns="http://www.w3.org/2000/svg" xmlns:xlink="http://www.w3.org/1999/xlink" x="0px" y="0px"
	 viewBox="0 0 1499 760.2" style="enable-background:new 0 0 1499 760.2;" xml:space="preserve">
<style type="text/css">
	.st0{fill:#1ABC9C;}
	.st1{enable-background:new    ;}
</style>
<title>m-commerce</title>
<g>
	<g id="Layer_1-2">
		<path class="st0" d="M919.4,669c-0.5,0.1-1,0.2-1.5,0.3C918.4,669.2,918.9,669.1,919.4,669z"/>
		<path class="st0" d="M919.4,639c-0.5-0.1-1-0.2-1.5-0.3C918.4,638.8,918.9,638.9,919.4,639z"/>
		<g>
			<path class="st0" d="M645,80.2v10.4c0,0.3-0.1,0.5-0.4,0.5c-0.1,0-0.2-0.1-0.3-0.2c-0.1-0.1-0.2-0.2-0.2-0.3V80.2
				c0-1.8-0.6-3.3-1.9-4.6s-2.7-1.9-4.5-1.9c-1.7,0-3.2,0.6-4.5,1.8c-1.2,1.2-1.9,2.7-1.9,4.4v10.7c0,0.1,0,0.1,0,0.2l-0.1,0.2
				c-0.1,0.1-0.2,0.2-0.4,0.2c-0.3,0-0.5-0.2-0.5-0.5V80.2c0-1.8-0.6-3.3-1.9-4.6c-1.3-1.3-2.8-1.9-4.5-1.9s-3.2,0.6-4.5,1.8
				c-1.2,1.2-1.9,2.7-1.9,4.4v10.7l-0.1,0.3l-0.1,0c-0.1,0.1-0.2,0.1-0.3,0.1h-0.1c-0.3-0.1-0.4-0.2-0.4-0.5V80.2
				c0-0.2,0-0.5,0.1-0.9v-6c0-0.3,0.1-0.5,0.4-0.5c0.3,0,0.4,0.2,0.4,0.5v3.3c0.7-1.2,1.5-2.1,2.7-2.8c1.1-0.7,2.4-1,3.8-1
				s2.8,0.4,4,1.3c1.3,0.9,2.1,2,2.7,3.5c0.5-1.4,1.4-2.6,2.7-3.5s2.7-1.3,4.2-1.3c2,0,3.7,0.7,5.1,2.2
				C644.3,76.4,645,78.1,645,80.2z"/>
			<path class="st0" d="M673.5,87.5c0.2,0.2,0.2,0.4-0.1,0.7c-2.6,1.9-5.4,2.9-8.4,2.9c-3.7,0-6.9-1.3-9.6-3.9c-2.6-2.6-4-5.7-4-9.3
				c0-3.6,1.3-6.8,4-9.3c2.6-2.6,5.8-3.9,9.6-3.9c3.1,0,6,1,8.4,2.9c0.3,0.2,0.3,0.5,0.2,0.7c-0.3,0.3-0.5,0.3-0.7,0.1
				c-2.3-1.8-4.9-2.7-7.9-2.7c-3.5,0-6.4,1.2-8.9,3.6c-2.5,2.4-3.7,5.3-3.7,8.7c0,3.4,1.2,6.3,3.7,8.7c2.5,2.4,5.4,3.6,8.9,3.6
				c2.9,0,5.6-0.9,7.8-2.6C673,87.2,673.3,87.3,673.5,87.5z"/>
			<path class="st0" d="M694.7,75.5c-1.7-1.8-3.7-2.7-6.1-2.7c-2.4,0-4.4,0.9-6.1,2.7c-1.7,1.8-2.5,3.9-2.5,6.4
				c0,2.5,0.8,4.7,2.5,6.4c1.7,1.8,3.7,2.7,6.1,2.7c2.4,0,4.4-0.9,6.1-2.7c1.7-1.8,2.5-3.9,2.5-6.4
				C697.2,79.4,696.4,77.3,694.7,75.5z M694,87.7c-1.5,1.6-3.3,2.4-5.4,2.4c-2.1,0-3.9-0.8-5.4-2.4c-1.5-1.6-2.3-3.5-2.3-5.8
				c0-2.3,0.8-4.2,2.3-5.8c1.5-1.6,3.3-2.4,5.4-2.4c2.1,0,3.9,0.8,5.4,2.4c1.5,1.6,2.3,3.5,2.3,5.8C696.3,84.2,695.5,86.1,694,87.7z
				"/>
			<path class="st0" d="M732.5,80.2v10.4c0,0.3-0.1,0.5-0.4,0.5c-0.1,0-0.2-0.1-0.3-0.2c-0.1-0.1-0.1-0.2-0.1-0.3V80.2
				c0-1.8-0.6-3.3-1.9-4.6s-2.7-1.9-4.5-1.9s-3.2,0.6-4.5,1.8c-1.2,1.2-1.9,2.7-1.9,4.4v10.7c0,0.1,0,0.1,0,0.2l-0.1,0.2
				c-0.1,0.1-0.2,0.2-0.4,0.2c-0.3,0-0.5-0.2-0.5-0.5V80.2c0-1.8-0.6-3.3-1.9-4.6c-1.3-1.3-2.8-1.9-4.5-1.9c-1.7,0-3.2,0.6-4.5,1.8
				c-1.2,1.2-1.9,2.7-1.9,4.4v10.7l-0.1,0.3l-0.1,0c-0.1,0.1-0.2,0.1-0.3,0.1h-0.1c-0.3-0.1-0.4-0.2-0.4-0.5V80.2
				c0-0.2,0-0.5,0.1-0.9v-6c0-0.3,0.2-0.5,0.5-0.5s0.5,0.2,0.5,0.5v3.3c0.6-1.2,1.5-2.1,2.7-2.8c1.1-0.7,2.4-1,3.9-1s2.8,0.4,4,1.3
				c1.3,0.9,2.1,2,2.7,3.5c0.5-1.4,1.4-2.6,2.7-3.5c1.3-0.9,2.7-1.3,4.2-1.3c2,0,3.7,0.7,5.1,2.2C731.8,76.4,732.5,78.1,732.5,80.2z
				"/>
			<path class="st0" d="M767.9,80.2v10.4c0,0.3-0.2,0.5-0.5,0.5c-0.1,0-0.2-0.1-0.3-0.2c-0.1-0.1-0.1-0.2-0.1-0.3V80.2
				c0-1.8-0.6-3.3-1.9-4.6c-1.2-1.3-2.7-1.9-4.5-1.9s-3.2,0.6-4.5,1.8c-1.2,1.2-1.9,2.7-1.9,4.4v10.7c0,0.1,0,0.1,0,0.2l-0.1,0.2
				c-0.1,0.1-0.2,0.2-0.4,0.2c-0.3,0-0.5-0.2-0.5-0.5V80.2c0-1.8-0.6-3.3-1.9-4.6c-1.3-1.3-2.8-1.9-4.5-1.9s-3.2,0.6-4.5,1.8
				c-1.2,1.2-1.9,2.7-1.9,4.4v10.7l-0.1,0.3l-0.1,0c-0.1,0.1-0.2,0.1-0.3,0.1H740c-0.3-0.1-0.4-0.2-0.4-0.5V80.2
				c0-0.2,0-0.5,0.1-0.9v-6c0-0.3,0.2-0.5,0.5-0.5c0.3,0,0.4,0.2,0.4,0.5v3.3c0.6-1.2,1.5-2.1,2.7-2.8c1.1-0.7,2.4-1,3.9-1
				c1.4,0,2.8,0.4,4,1.3c1.3,0.9,2.1,2,2.7,3.5c0.5-1.4,1.4-2.6,2.7-3.5c1.3-0.9,2.7-1.3,4.2-1.3c2,0,3.7,0.7,5.1,2.2
				C767.2,76.4,767.9,78.1,767.9,80.2z"/>
			<path class="st0" d="M788.5,75.2c-1.7-1.6-3.7-2.4-6.1-2.4c-2.4,0-4.4,0.9-6.1,2.7c-1.7,1.8-2.6,3.9-2.7,6.5
				c0.1,2.5,0.9,4.6,2.7,6.4c1.7,1.8,3.8,2.7,6.2,2.7c1.5,0,2.9-0.4,4.2-1.1c1.3-0.8,2.4-1.8,3.2-3c0.2-0.3,0.1-0.5-0.1-0.6
				c-0.3-0.2-0.5-0.1-0.6,0.1c-0.7,1.2-1.6,2-2.8,2.7c-1.2,0.7-2.4,1-3.8,1c-2.2,0-4.1-0.8-5.6-2.4c-1.5-1.6-2.3-3.5-2.3-5.8v-0.1
				h16.2c0.2,0,0.4-0.1,0.4-0.4v-0.1C791.1,78.8,790.2,76.8,788.5,75.2z M774.6,80.9c0.3-2,1.1-3.7,2.6-5.1c1.5-1.4,3.3-2,5.3-2
				s3.7,0.7,5.2,2c1.5,1.4,2.3,3.1,2.6,5.1H774.6z"/>
			<path class="st0" d="M807.5,73.3c0,0.3-0.2,0.5-0.5,0.5c-3.7,0-6.5,2.8-8.4,8.3v8.5c0,0.3-0.1,0.5-0.4,0.5s-0.5-0.2-0.5-0.5V82
				c0-0.1,0-0.1,0-0.2v-8.5c0-0.1,0-0.2,0.1-0.3c0.1-0.1,0.2-0.1,0.3-0.1c0.3,0,0.4,0.2,0.4,0.5v6.2c0.3-0.8,0.7-1.5,1.2-2.2
				c2-3,4.4-4.5,7.3-4.5C807.3,72.8,807.5,72.9,807.5,73.3z"/>
			<path class="st0" d="M827.9,88.4c0.2,0.2,0.2,0.5,0,0.7c-1.7,1.3-3.7,2-5.8,2c-2.6,0-4.8-0.9-6.6-2.7c-1.8-1.8-2.8-3.9-2.8-6.4
				c0-2.5,0.9-4.7,2.8-6.4c1.8-1.8,3.9-2.7,6.3-2.7s4.4,0.7,6.1,2c0.2,0.2,0.2,0.4,0.1,0.7c-0.2,0.2-0.4,0.3-0.7,0.1
				c-1.5-1.2-3.4-1.8-5.5-1.8c-2.2,0-4,0.8-5.7,2.4c-1.6,1.6-2.5,3.5-2.5,5.8c0,2.3,0.8,4.2,2.5,5.8c1.6,1.6,3.6,2.4,6,2.4
				c1.9,0,3.6-0.6,5.2-1.8C827.5,88.1,827.7,88.2,827.9,88.4z"/>
			<path class="st0" d="M848.8,75.2c-1.7-1.6-3.7-2.4-6.1-2.4c-2.4,0-4.4,0.9-6.1,2.7c-1.7,1.8-2.6,3.9-2.7,6.5
				c0.1,2.5,0.9,4.6,2.7,6.4c1.7,1.8,3.8,2.7,6.2,2.7c1.5,0,2.9-0.4,4.2-1.1c1.3-0.8,2.3-1.8,3.1-3c0.2-0.3,0.1-0.5-0.1-0.6
				c-0.3-0.2-0.5-0.1-0.6,0.1c-0.7,1.2-1.6,2-2.8,2.7c-1.2,0.7-2.4,1-3.8,1c-2.2,0-4.1-0.8-5.6-2.4c-1.5-1.6-2.3-3.5-2.3-5.8v-0.1
				h16.2c0.3,0,0.4-0.1,0.5-0.4v-0.1C851.4,78.8,850.5,76.8,848.8,75.2z M834.9,80.9c0.3-2,1.1-3.7,2.6-5.1c1.5-1.4,3.3-2,5.3-2
				s3.7,0.7,5.2,2c1.5,1.4,2.4,3.1,2.6,5.1H834.9z"/>
			<path class="st0" d="M917.9,638.7c0.5,0.1,1,0.2,1.5,0.3C918.9,638.9,918.4,638.8,917.9,638.7z M917.9,669.3
				c0.5-0.1,1-0.2,1.5-0.3C918.9,669.1,918.4,669.2,917.9,669.3z"/>
			<path class="st0" d="M917.9,638.7c0.5,0.1,1,0.2,1.5,0.3C918.9,638.9,918.4,638.8,917.9,638.7z M917.9,669.3
				c0.5-0.1,1-0.2,1.5-0.3C918.9,669.1,918.4,669.2,917.9,669.3z M917.9,638.7c0.5,0.1,1,0.2,1.5,0.3
				C918.9,638.9,918.4,638.8,917.9,638.7z M917.9,669.3c0.5-0.1,1-0.2,1.5-0.3C918.9,669.1,918.4,669.2,917.9,669.3z"/>
		</g>
		<circle class="st0" cx="732.3" cy="684" r="30"/>
		<path class="st0" d="M1420.5,289c-41.4,0-75.5,32.3-78.3,73H936.8V243.3L1040.1,140h127.1c2.6,41,36.7,73.5,78.3,73.5
			c43.3,0,78.5-35.2,78.5-78.5s-35.2-78.5-78.5-78.5c-41.6,0-75.8,32.5-78.3,73.5h-131.2l-99.2,99.2v-163
			c0-27.8-22.6-50.3-50.3-50.3H578.1c-27.8,0-50.3,22.6-50.3,50.3V142l-96.9-68.1C430,73.3,429,73,428,73H167.8
			C165,32.3,130.9,0,89.5,0C46.2,0,11,35.2,11,78.5S46.2,157,89.5,157c41.8,0,76-32.8,78.4-74h258.5l101.3,71.2v19.3H474
			c-8.6,0-15.5,6.9-15.5,15.5s6.9,15.5,15.5,15.5h22.5c8.6,0,15.5,6.9,15.5,15.5s-6.9,15.5-15.5,15.5h-73c-8.6,0-15.5,6.9-15.5,15.5
			s6.9,15.5,15.5,15.5h104.3V362H339.9c-2.3-41.2-36.6-74-78.4-74c-43.3,0-78.5,35.2-78.5,78.5s35.2,78.5,78.5,78.5
			c41.4,0,75.5-32.3,78.3-73h188v188.1L438.9,649h-282c-2.3-41.2-36.6-74-78.4-74C35.2,575,0,610.2,0,653.5S35.2,732,78.5,732
			c41.4,0,75.5-32.3,78.3-73h284.1c1.3,0,2.6-0.5,3.5-1.5l83.3-83.3v135.6c0,27.8,22.6,50.3,50.3,50.3h308.3
			c27.8,0,50.3-22.6,50.3-50.3v-9.3h133.8c8.6,0,15.5-6.9,15.5-15.5s-6.9-15.5-15.5-15.5H997c-8.6,0-15.5-6.9-15.5-15.5
			s6.9-15.5,15.5-15.5h13.5c8.6,0,15.5-6.9,15.5-15.5s-6.9-15.5-15.5-15.5h-73.8V546h165.9l116.4,66.9c0,0.5,0,1.1,0,1.6
			c0,43.3,35.2,78.5,78.5,78.5s78.5-35.2,78.5-78.5s-35.2-78.5-78.5-78.5c-39,0-71.5,28.6-77.5,65.9l-113.5-65.3
			c-0.8-0.4-1.6-0.7-2.5-0.7H936.8V372h405.4c2.3,41.2,36.6,74,78.4,74c43.3,0,78.5-35.2,78.5-78.5S1463.8,289,1420.5,289z
			 M1245.5,66.5c37.8,0,68.5,30.7,68.5,68.5s-30.7,68.5-68.5,68.5S1177,172.8,1177,135S1207.7,66.5,1245.5,66.5z M89.5,147
			C51.7,147,21,116.3,21,78.5S51.7,10,89.5,10S158,40.7,158,78.5S127.3,147,89.5,147z M261.5,435c-37.8,0-68.5-30.7-68.5-68.5
			s30.7-68.5,68.5-68.5s68.5,30.7,68.5,68.5S299.3,435,261.5,435z M78.5,722C40.7,722,10,691.3,10,653.5S40.7,585,78.5,585
			s68.5,30.7,68.5,68.5S116.3,722,78.5,722z M916.8,709.8c0,16.7-13.6,30.3-30.3,30.3H578.1c-16.7,0-30.3-13.6-30.3-30.3V66.2
			c0-16.7,13.6-30.3,30.3-30.3h308.3c16.7,0,30.3,13.6,30.3,30.3V709.8z M917.9,669.3c0.5-0.1,1-0.2,1.5-0.3
			C918.9,669.1,918.4,669.3,917.9,669.3z M917.9,638.7c0.5,0.1,1,0.2,1.5,0.3C918.9,638.9,918.4,638.8,917.9,638.7z M1297.5,546
			c37.8,0,68.5,30.7,68.5,68.5s-30.7,68.5-68.5,68.5s-68.5-30.7-68.5-68.5S1259.7,546,1297.5,546z M1420.5,436
			c-37.8,0-68.5-30.7-68.5-68.5s30.7-68.5,68.5-68.5s68.5,30.7,68.5,68.5S1458.3,436,1420.5,436z"/>
		<g class="st1">
			<path class="st0" d="M642.9,74.9c-1.4-1.4-3.1-2.2-5.1-2.2c-1.6,0-3,0.4-4.2,1.3s-2.1,2-2.7,3.5c-0.5-1.4-1.4-2.6-2.7-3.5
				c-1.3-0.9-2.6-1.3-4-1.3s-2.7,0.3-3.8,1c-1.1,0.7-2,1.6-2.7,2.8v-3.3c0-0.3-0.1-0.5-0.4-0.5c-0.3,0-0.4,0.2-0.4,0.5v6
				c-0.1,0.4-0.1,0.7-0.1,0.9v10.4c0,0.3,0.1,0.4,0.4,0.5h0.1c0.1,0,0.2,0,0.3-0.1l0.1,0l0.1-0.3V79.9c0.1-1.7,0.7-3.2,1.9-4.4
				c1.2-1.2,2.7-1.8,4.5-1.8s3.2,0.6,4.5,1.9c1.3,1.3,1.9,2.8,1.9,4.6v10.4c0,0.3,0.2,0.5,0.5,0.5c0.1,0,0.3-0.1,0.4-0.2l0.1-0.2
				c0,0,0-0.1,0-0.2V79.9c0-1.7,0.7-3.2,1.9-4.4c1.2-1.2,2.7-1.8,4.5-1.8c1.7,0,3.2,0.6,4.5,1.9s1.9,2.8,1.9,4.6v10.4
				c0,0.1,0,0.2,0.2,0.3c0.1,0.1,0.2,0.2,0.3,0.2c0.3,0,0.4-0.2,0.4-0.5V80.2C645,78.1,644.3,76.4,642.9,74.9z"/>
			<path class="st0" d="M672.8,87.4c-2.3,1.8-4.9,2.6-7.8,2.6c-3.5,0-6.4-1.2-8.9-3.6c-2.5-2.4-3.7-5.3-3.7-8.7
				c0-3.4,1.2-6.3,3.7-8.7c2.5-2.4,5.4-3.6,8.9-3.6c3,0,5.6,0.9,7.9,2.7c0.2,0.2,0.4,0.2,0.7-0.1c0.2-0.2,0.1-0.5-0.2-0.7
				c-2.5-1.9-5.3-2.9-8.4-2.9c-3.7,0-6.9,1.3-9.6,3.9c-2.6,2.6-4,5.7-4,9.3c0,3.6,1.3,6.8,4,9.3c2.6,2.6,5.8,3.9,9.6,3.9
				c3.1,0,5.9-1,8.4-2.9c0.3-0.3,0.3-0.5,0.1-0.7C673.3,87.3,673,87.2,672.8,87.4z"/>
			<path class="st0" d="M694.7,75.5c-1.7-1.8-3.7-2.7-6.1-2.7c-2.4,0-4.4,0.9-6.1,2.7c-1.7,1.8-2.5,3.9-2.5,6.4
				c0,2.5,0.8,4.7,2.5,6.4c1.7,1.8,3.7,2.7,6.1,2.7c2.4,0,4.4-0.9,6.1-2.7c1.7-1.8,2.5-3.9,2.5-6.4
				C697.2,79.4,696.4,77.3,694.7,75.5z M694,87.7c-1.5,1.6-3.3,2.4-5.4,2.4c-2.1,0-3.9-0.8-5.4-2.4c-1.5-1.6-2.3-3.5-2.3-5.8
				c0-2.3,0.8-4.2,2.3-5.8c1.5-1.6,3.3-2.4,5.4-2.4c2.1,0,3.9,0.8,5.4,2.4c1.5,1.6,2.3,3.5,2.3,5.8C696.3,84.2,695.5,86.1,694,87.7z
				"/>
			<path class="st0" d="M730.3,74.9c-1.4-1.4-3.1-2.2-5.1-2.2c-1.6,0-3,0.4-4.2,1.3c-1.3,0.9-2.1,2-2.7,3.5
				c-0.5-1.4-1.4-2.6-2.7-3.5c-1.3-0.9-2.6-1.3-4-1.3s-2.7,0.3-3.9,1c-1.1,0.7-2,1.6-2.7,2.8v-3.3c0-0.3-0.2-0.5-0.5-0.5
				s-0.5,0.2-0.5,0.5v6c0,0.4-0.1,0.7-0.1,0.9v10.4c0,0.3,0.1,0.4,0.4,0.5h0.1c0.1,0,0.2,0,0.3-0.1l0.1,0l0.1-0.3V79.9
				c0-1.7,0.7-3.2,1.9-4.4c1.3-1.2,2.7-1.8,4.5-1.8c1.7,0,3.2,0.6,4.5,1.9c1.3,1.3,1.9,2.8,1.9,4.6v10.4c0,0.3,0.2,0.5,0.5,0.5
				c0.2,0,0.3-0.1,0.4-0.2l0.1-0.2c0,0,0-0.1,0-0.2V79.9c0-1.7,0.7-3.2,1.9-4.4c1.2-1.2,2.7-1.8,4.5-1.8s3.2,0.6,4.5,1.9
				s1.9,2.8,1.9,4.6v10.4c0,0.1,0,0.2,0.1,0.3c0.1,0.1,0.2,0.2,0.3,0.2c0.3,0,0.4-0.2,0.4-0.5V80.2
				C732.5,78.1,731.8,76.4,730.3,74.9z"/>
			<path class="st0" d="M765.8,74.9c-1.4-1.4-3.1-2.2-5.1-2.2c-1.6,0-3,0.4-4.2,1.3c-1.3,0.9-2.1,2-2.7,3.5
				c-0.5-1.4-1.4-2.6-2.7-3.5c-1.3-0.9-2.6-1.3-4-1.3c-1.4,0-2.7,0.3-3.9,1c-1.1,0.7-2,1.6-2.7,2.8v-3.3c0-0.3-0.2-0.5-0.4-0.5
				c-0.3,0-0.5,0.2-0.5,0.5v6c0,0.4-0.1,0.7-0.1,0.9v10.4c0,0.3,0.1,0.4,0.4,0.5h0.1c0.1,0,0.2,0,0.3-0.1l0.1,0l0.1-0.3V79.9
				c0-1.7,0.7-3.2,1.9-4.4c1.2-1.2,2.7-1.8,4.5-1.8s3.2,0.6,4.5,1.9c1.3,1.3,1.9,2.8,1.9,4.6v10.4c0,0.3,0.2,0.5,0.5,0.5
				c0.1,0,0.3-0.1,0.4-0.2l0.1-0.2c0,0,0-0.1,0-0.2V79.9c0.1-1.7,0.7-3.2,1.9-4.4c1.2-1.2,2.7-1.8,4.5-1.8s3.2,0.6,4.5,1.9
				c1.2,1.3,1.9,2.8,1.9,4.6v10.4c0,0.1,0,0.2,0.1,0.3c0.1,0.1,0.2,0.2,0.3,0.2c0.3,0,0.5-0.2,0.5-0.5V80.2
				C767.9,78.1,767.2,76.4,765.8,74.9z"/>
			<path class="st0" d="M788.5,75.2c-1.7-1.6-3.7-2.4-6.1-2.4c-2.4,0-4.4,0.9-6.1,2.7c-1.7,1.8-2.6,3.9-2.7,6.5
				c0.1,2.5,0.9,4.6,2.7,6.4c1.7,1.8,3.8,2.7,6.2,2.7c1.5,0,2.9-0.4,4.2-1.1c1.3-0.8,2.4-1.8,3.2-3c0.2-0.3,0.1-0.5-0.1-0.6
				c-0.3-0.2-0.5-0.1-0.6,0.1c-0.7,1.2-1.6,2-2.8,2.7c-1.2,0.7-2.4,1-3.8,1c-2.2,0-4.1-0.8-5.6-2.4c-1.5-1.6-2.3-3.5-2.3-5.8v-0.1
				h16.2c0.2,0,0.4-0.1,0.4-0.4v-0.1C791.1,78.8,790.2,76.8,788.5,75.2z M774.6,80.9c0.3-2,1.1-3.7,2.6-5.1c1.5-1.4,3.3-2,5.3-2
				s3.7,0.7,5.2,2c1.5,1.4,2.3,3.1,2.6,5.1H774.6z"/>
			<path class="st0" d="M807,72.8c-2.8,0-5.3,1.5-7.3,4.5c-0.4,0.6-0.8,1.3-1.2,2.2v-6.2c0-0.3-0.1-0.5-0.4-0.5
				c-0.1,0-0.2,0-0.3,0.1c-0.1,0.1-0.1,0.2-0.1,0.3v8.5c0,0.1,0,0.2,0,0.2v8.5c0,0.3,0.2,0.5,0.5,0.5s0.4-0.2,0.4-0.5V82
				c1.9-5.5,4.8-8.3,8.4-8.3c0.3,0,0.5-0.2,0.5-0.5S807.3,72.8,807,72.8z"/>
			<path class="st0" d="M827.3,88.3c-1.6,1.2-3.3,1.8-5.2,1.8c-2.4,0-4.4-0.8-6-2.4c-1.6-1.6-2.5-3.5-2.5-5.8c0-2.3,0.8-4.2,2.5-5.8
				c1.6-1.6,3.5-2.4,5.7-2.4c2.1,0,4,0.6,5.5,1.8c0.3,0.2,0.5,0.1,0.7-0.1c0.2-0.2,0.1-0.5-0.1-0.7c-1.7-1.3-3.7-2-6.1-2
				s-4.5,0.9-6.3,2.7c-1.8,1.8-2.8,3.9-2.8,6.4c0,2.5,0.9,4.6,2.8,6.4c1.8,1.8,4,2.7,6.6,2.7c2.2,0,4.1-0.7,5.8-2
				c0.2-0.2,0.2-0.4,0-0.7C827.7,88.2,827.5,88.1,827.3,88.3z"/>
			<path class="st0" d="M848.8,75.2c-1.7-1.6-3.7-2.4-6.1-2.4c-2.4,0-4.4,0.9-6.1,2.7c-1.7,1.8-2.6,3.9-2.7,6.5
				c0.1,2.5,0.9,4.6,2.7,6.4c1.7,1.8,3.8,2.7,6.2,2.7c1.5,0,2.9-0.4,4.2-1.1c1.3-0.8,2.3-1.8,3.1-3c0.2-0.3,0.1-0.5-0.1-0.6
				c-0.3-0.2-0.5-0.1-0.6,0.1c-0.7,1.2-1.6,2-2.8,2.7c-1.2,0.7-2.4,1-3.8,1c-2.2,0-4.1-0.8-5.6-2.4c-1.5-1.6-2.3-3.5-2.3-5.8v-0.1
				h16.2c0.3,0,0.4-0.1,0.5-0.4v-0.1C851.4,78.8,850.5,76.8,848.8,75.2z M834.9,80.9c0.3-2,1.1-3.7,2.6-5.1c1.5-1.4,3.3-2,5.3-2
				s3.7,0.7,5.2,2c1.5,1.4,2.4,3.1,2.6,5.1H834.9z"/>
		</g>
		<g class="st1">
			<path class="st0" d="M1215.3,137.9c-0.9-1.4-2.2-2.3-3.7-3.1c-1.5-0.7-3.2-1.2-5.1-1.6h-0.1c-2-0.4-3.7-1-4.7-1.6
				c-0.5-0.3-0.8-0.7-1-1c-0.2-0.3-0.3-0.6-0.3-1c0-0.8,0.4-1.6,1.4-2.3c1-0.8,2.5-1.3,4.2-1.3c2.3,0,4.1,1.1,6,2.4
				c0.9,0.6,2.1,0.3,2.6-0.6c0.6-0.9,0.3-2.1-0.5-2.7c-1.9-1.2-4.5-3-8.1-3c-2.4,0-4.7,0.7-6.4,2c-1.7,1.3-3,3.2-3,5.4
				c0,1.1,0.3,2.2,0.9,3.1c0.8,1.3,2.1,2.2,3.5,2.9c1.4,0.7,3.1,1.1,4.8,1.5h0.1c2.2,0.4,4,1,5.1,1.8c0.6,0.4,0.9,0.7,1.1,1.1
				c0.2,0.4,0.3,0.7,0.3,1.2c0,0.9-0.5,1.9-1.6,2.7c-1.1,0.8-2.8,1.4-4.7,1.4c-2.7,0-5.5-1.5-7.1-2.9c-0.8-0.7-2-0.6-2.7,0.3
				c-0.6,0.8-0.5,2,0.3,2.7c2.1,1.7,5.5,3.7,9.5,3.7c2.6,0,5.1-0.8,6.9-2.1c1.9-1.3,3.2-3.4,3.2-5.8
				C1216.2,139.9,1215.9,138.8,1215.3,137.9z"/>
		</g>
		<g class="st1">
			<path class="st0" d="M1240.3,146.2l-8.2-21.9c-0.3-0.8-1.1-1.3-2-1.3c-0.8,0-1.6,0.5-2,1.3l-8.2,21.9c-0.4,1.1,0.2,2.3,1.2,2.7
				c0.2,0.1,0.5,0.1,0.7,0.1c0.8,0,1.6-0.5,1.9-1.3l1.8-4.8h9l1.8,4.8c0.3,0.8,1.1,1.3,1.9,1.3c0.3,0,0.5,0,0.7-0.1
				C1240.2,148.5,1240.7,147.3,1240.3,146.2z M1227.1,138.8l3-8l3,8H1227.1z"/>
			<path class="st0" d="M1259.7,144.9h-10.1V125c0-1.1-0.9-2-2.1-2c-1.2,0-2.1,0.9-2.1,2v22c0,1.1,0.9,2.1,2.1,2.1c0,0,0,0,0,0
				c0,0,0,0,0.1,0h12.1c1.1,0,2-0.9,2-2.1C1261.7,145.8,1260.8,144.9,1259.7,144.9z"/>
			<path class="st0" d="M1280.7,144.9h-10.1V138h8.7c1.1,0,2.1-0.9,2.1-2.1c0-1.1-0.9-2.1-2.1-2.1h-8.7v-6.8h10.1
				c1.1,0,2.1-0.9,2.1-2.1c0-1.2-1-2-2.1-2h-12.1c-0.1,0-0.1,0-0.1,0h0c-1.2,0-2.1,0.9-2.1,2v22c0,1.1,0.9,2.1,2.1,2.1l0,0
				c0,0,0,0,0.1,0h12.1c1.1,0,2.1-0.9,2.1-2.1C1282.7,145.8,1281.7,144.9,1280.7,144.9z"/>
			<path class="st0" d="M1290.2,144.2c-1.1,0-2,0.9-2,2v0.7c0,1.2,0.9,2.1,2,2.1c1.1,0,2-0.9,2-2.1v-0.7
				C1292.2,145.1,1291.3,144.2,1290.2,144.2z M1290.2,123c-1.1,0-2,0.9-2,2v15c0,1.2,0.9,2,2,2c1.1,0,2-0.9,2-2v-15
				C1292.2,123.9,1291.3,123,1290.2,123z"/>
		</g>
		<path class="st0" d="M1277,109c0,1.1-0.9,2-2,2h-60c-1.1,0-2-0.9-2-2s0.9-2,2-2h60C1276.1,107,1277,107.9,1277,109z"/>
		<path class="st0" d="M1277,163c0,1.1-0.9,2-2,2h-60c-1.1,0-2-0.9-2-2s0.9-2,2-2h60C1276.1,161,1277,161.9,1277,163z"/>
		<path class="st0" d="M861.3,275.2c-2.7-0.7-5.4,0.9-6.1,3.6L844,322l-3.9,15l-6.5,25.1l-2.6,10l-3,11.4l-106.4,11.9
			c-3.4-10.1-13-17.3-24.2-17.3c-0.1,0-0.2,0-0.2,0l-1.4-6l-2.3-10l-21.6-92.1c-0.3-1.5-1.3-2.7-2.7-3.4l-7.6-3.7l-46.4-22.3
			c-2.5-1.2-5.5-0.2-6.7,2.3c-1.2,2.5-0.2,5.5,2.3,6.7l35.3,17l16.5,8l20.5,87.5l2.4,10l1.9,8.1C678.4,384,672,393,672,403.5
			c0,10.5,6.4,19.6,15.5,23.5l-6.2,28c0.1,0,0.1,0,0.2,0c3.4,0,6.7,0.8,9.5,2.4l6.3-28.4h0.2c13.5,0,24.5-10.5,25.4-23.8L832.6,393
			c2.1-0.2,3.8-1.7,4.3-3.7l4.5-17.3l2.6-10l9-34.9l5-19.1l6.9-26.8C865.5,278.6,863.9,275.8,861.3,275.2z M712.7,406.4
			c-1.2,6.5-6.5,11.6-13.1,12.5c-0.7,0.1-1.4,0.2-2.1,0.2c-2.8,0-5.5-0.8-7.7-2.1c-4.7-2.7-7.8-7.7-7.8-13.4
			c0-5.8,3.2-10.8,7.8-13.5c2.3-1.3,4.9-2,7.7-2c0.7,0,1.5,0,2.2,0.2c5.1,0.7,9.4,3.9,11.7,8.3c1.1,2.1,1.7,4.5,1.7,7
			C713,404.5,712.9,405.5,712.7,406.4z"/>
		<g>
			<path class="st0" d="M812.5,455c-9.4,0-17.3,6.4-19.7,15h-91.5c-1.5-5.5-5.3-10-10.2-12.6c-2.8-1.5-6.1-2.4-9.5-2.4
				c-0.1,0-0.1,0-0.2,0c-11.2,0.1-20.3,9.3-20.3,20.5c0,11.3,9.2,20.5,20.5,20.5c9.8,0,18-6.9,20-16h91c2,9.1,10.2,16,20,16
				c11.3,0,20.5-9.2,20.5-20.5S823.8,455,812.5,455z M691,480c-1.7,3.5-5.3,6-9.5,6c-5.8,0-10.5-4.7-10.5-10.5c0-4.9,3.4-9.1,8-10.2
				c0.8-0.2,1.6-0.3,2.5-0.3c2.8,0,5.3,1.1,7.2,2.9c0.7,0.6,1.3,1.3,1.7,2.1c1,1.6,1.6,3.5,1.6,5.5C692,477.1,691.6,478.6,691,480z
				 M812.5,486c-4.2,0-7.8-2.5-9.5-6c-0.7-1.4-1-2.9-1-4.5c0-2,0.6-3.9,1.6-5.5c1.8-3,5.2-5,8.9-5c5.8,0,10.5,4.7,10.5,10.5
				S818.3,486,812.5,486z"/>
		</g>
		<g>
			<path class="st0" d="M807.3,332h-76.5c-4.3,0-7.8,3.5-7.8,7.8v29.5c0,1,0.2,1.9,0.5,2.8c1.1,2.9,3.9,5,7.2,5h76.5
				c3.3,0,6.1-2.1,7.2-5c0.3-0.9,0.5-1.8,0.5-2.8v-29.5C815,335.5,811.5,332,807.3,332z M809,369.3c0,1-0.8,1.8-1.8,1.8h-76.5
				c-1,0-1.8-0.8-1.8-1.8v-29.5c0-1,0.8-1.8,1.8-1.8h76.5c1,0,1.8,0.8,1.8,1.8V369.3z"/>
		</g>
		<g>
			<path class="st0" d="M819.3,288h-44.5c-4.3,0-7.8,3.5-7.8,7.8v19.5c0,4.3,3.5,7.8,7.8,7.8h44.5c4.3,0,7.8-3.5,7.8-7.8v-19.5
				C827,291.5,823.5,288,819.3,288z M821,315.3c0,1-0.8,1.8-1.8,1.8h-44.5c-1,0-1.8-0.8-1.8-1.8v-19.5c0-1,0.8-1.8,1.8-1.8h44.5
				c1,0,1.8,0.8,1.8,1.8V315.3z"/>
		</g>
		<path class="st0" d="M277.4,352.2c-0.5,0.6-0.9,1.2-1.4,1.8h-7c1.3-1.2,2.9-2.8,4.4-4.8c3.4-4.4,4.8-8.1,5-9.7
			c-1.5,0.6-4.7,2.9-8.1,7.3c-2.2,2.8-3.5,5.3-4.3,7.2h-6.2c-0.8-1.9-2.1-4.4-4.3-7.2c-3.4-4.4-6.6-6.7-8.1-7.3
			c0.2,1.6,1.6,5.3,5,9.7c1.6,2,3.1,3.6,4.4,4.8h-7c-0.5-0.6-1-1.2-1.4-1.8c-4.6-5.9-8.5-13.9-4.4-17.1c0.8-0.6,1.7-0.9,2.6-0.9
			c4,0,9.1,4.7,12.8,9.5c1.3,1.6,2.4,3.4,3.4,5.2c0.9-1.7,2.1-3.5,3.4-5.2c4.6-5.9,11.3-11.7,15.4-8.6
			C285.9,338.3,282,346.3,277.4,352.2z"/>
		<g>
			<rect x="237" y="357" class="st0" width="23" height="15"/>
		</g>
		<g>
			<rect x="237" y="377" class="st0" width="23" height="15"/>
		</g>
		<g>
			<rect x="266" y="357" class="st0" width="23" height="15"/>
		</g>
		<g>
			<rect x="266" y="377" class="st0" width="23" height="15"/>
		</g>
		<path class="st0" d="M113.2,62.5h-2.1L107,48.2c-0.8-2.8-3.8-4.5-6.6-3.6L54.9,57.6c-2.8,0.8-4.5,3.8-3.6,6.6l5.6,19.5
			c0.6,2.2,2.5,3.6,4.6,3.8v2.6c0,2.4,1.9,4.3,4.3,4.3h47.3c2.4,0,4.3-1.9,4.3-4.3V66.8C117.5,64.4,115.6,62.5,113.2,62.5z
			 M61.5,66.8v18.7c-1.3-0.2-2.3-1.1-2.7-2.4l-5.6-19.5c-0.3-0.9-0.1-1.8,0.3-2.5c0.4-0.8,1.1-1.3,2-1.6l45.5-13.1
			c1.8-0.5,3.6,0.5,4.1,2.3l4,13.8H65.8C63.4,62.5,61.5,64.4,61.5,66.8z M95,69.5c0,0.8-0.7,1.5-1.5,1.5h-8c-0.8,0-1.5-0.7-1.5-1.5
			s0.7-1.5,1.5-1.5h8C94.3,68,95,68.7,95,69.5z M80,69.5c0,0.8-0.7,1.5-1.5,1.5h-8c-0.8,0-1.5-0.7-1.5-1.5s0.7-1.5,1.5-1.5h8
			C79.3,68,80,68.7,80,69.5z M69,77.5c0-0.8,0.7-1.5,1.5-1.5h39c0.8,0,1.5,0.7,1.5,1.5s-0.7,1.5-1.5,1.5h-39
			C69.7,79,69,78.3,69,77.5z M95.5,90h-8c-0.8,0-1.5-0.7-1.5-1.5s0.7-1.5,1.5-1.5h8c0.8,0,1.5,0.7,1.5,1.5S96.3,90,95.5,90z
			 M110.5,90h-8c-0.8,0-1.5-0.7-1.5-1.5s0.7-1.5,1.5-1.5h8c0.8,0,1.5,0.7,1.5,1.5S111.3,90,110.5,90z"/>
		<g>
			<path class="st0" d="M1333,596h-18v18h-54v18h7c0,4.4,3.6,8,8,8s8-3.6,8-8h35c0,4.4,3.6,8,8,8s8-3.6,8-8h7v-18L1333,596z
				 M1276,637c-2.8,0-5-2.2-5-5s2.2-5,5-5s5,2.2,5,5S1278.8,637,1276,637z M1327,637c-2.8,0-5-2.2-5-5s2.2-5,5-5s5,2.2,5,5
				S1329.8,637,1327,637z M1319.6,610v-10h10.8l5,10H1319.6z"/>
		</g>
		<rect x="1271" y="604" class="st0" width="16" height="8"/>
		<rect x="1289" y="604" class="st0" width="23" height="8"/>
		<rect x="1301" y="594" class="st0" width="11" height="8"/>
		<rect x="1288" y="594" class="st0" width="11" height="8"/>
		<rect x="1275" y="594" class="st0" width="11" height="8"/>
		<path class="st0" d="M87.5,651c0,2.5-2,4.5-4.5,4.5s-4.5-2-4.5-4.5c0-0.3,0.2-0.5,0.5-0.5s0.5,0.2,0.5,0.5c0,1.9,1.6,3.5,3.5,3.5
			s3.5-1.6,3.5-3.5c0-0.3,0.2-0.5,0.5-0.5S87.5,650.7,87.5,651z"/>
		<path class="st0" d="M98.3,635.2c-1.3-4.1-4.3-5.2-7.9-5.2H65.7c-3.6,0-6.6,1.1-7.9,5.2L51,673.8c0,2.9,3,5.2,6.6,5.2h40.8
			c3.6,0,6.6-2.3,6.6-5.2L98.3,635.2z M95.1,678.8H70.9c-2,0.1-3.8-1.4-3.9-3.5l4-25.7c0.4-2.2,2.5-3.7,4.7-3.5h14.6
			c2.2-0.2,4.3,1.3,4.7,3.5l4,25.7C98.9,677.4,97.1,678.9,95.1,678.8z"/>
		<path class="st0" d="M87.5,651c0,2.5-2,4.5-4.5,4.5s-4.5-2-4.5-4.5c0-0.3,0.2-0.5,0.5-0.5s0.5,0.2,0.5,0.5c0,1.9,1.6,3.5,3.5,3.5
			s3.5-1.6,3.5-3.5c0-0.3,0.2-0.5,0.5-0.5S87.5,650.7,87.5,651z"/>
		<path class="st0" d="M88,627c0,0.5-0.5,1-1,1c-0.5,0-1-0.5-1-1c0,0,0.2-4.2-2.3-6.8c-1.3-1.4-3.3-2.1-5.7-2.1s-4.3,0.7-5.7,2.1
			c-2.5,2.6-2.3,6.8-2.3,6.8c0,0.5-0.4,1-1,1h0c-0.5,0-1-0.4-1-1c0-0.2-0.2-5.1,2.9-8.3c1.7-1.8,4.1-2.8,7.1-2.8s5.4,0.9,7.1,2.8
			C88.2,622,88,626.8,88,627z"/>
		<path class="st0" d="M87.5,651c0,2.5-2,4.5-4.5,4.5s-4.5-2-4.5-4.5c0-0.3,0.2-0.5,0.5-0.5s0.5,0.2,0.5,0.5c0,1.9,1.6,3.5,3.5,3.5
			s3.5-1.6,3.5-3.5c0-0.3,0.2-0.5,0.5-0.5S87.5,650.7,87.5,651z"/>
		<path class="st0" d="M1450.9,381.9c-0.1,0.1-0.2,0.1-0.3,0.2l-19.4,7c-0.9,0.3-1.8-0.1-2.1-1l-3.3-9.1c-0.3-0.9,0.1-1.8,1-2.1
			l10.4-3.7l9-3.2c0.9-0.3,1.8,0.1,2.1,1l3.3,9.1C1451.8,380.7,1451.5,381.5,1450.9,381.9z"/>
		<path class="st0" d="M1440.5,368.7l-6.5,2.3l-7.3,2.6c-0.9,0.3-1.8-0.1-2.1-1l-2.9-8.2c-0.2-0.5-0.1-1,0.1-1.4
			c0.2-0.3,0.5-0.6,0.9-0.8l13.8-5c0.9-0.3,1.8,0.1,2.1,1l2.9,8.1C1441.8,367.5,1441.3,368.4,1440.5,368.7z"/>
		<g>
			<path class="st0" d="M1458.7,385.1c-0.4-1-1.5-1.6-2.5-1.2l-1.5,0.5l-25.1,9c-1.7-2.7-4.7-4.5-8.1-4.5c-0.3,0-0.6,0-0.8,0
				l-12.3-34.4l-7.9-21.9c-0.4-1-1.5-1.6-2.6-1.2l-15,5.4c-1,0.4-1.6,1.5-1.2,2.5c0.4,1,1.5,1.6,2.6,1.2l1.4-0.5l11.6-4.2l5.4,15.2
				l14,39.1c-2.9,1.6-4.8,4.7-4.8,8.3c0,5.2,4.3,9.5,9.5,9.5s9.5-4.3,9.5-9.5c0-0.4,0-0.8-0.1-1.3l26.6-9.5
				C1458.5,387.3,1459.1,386.1,1458.7,385.1z M1427,398.6c-0.1,3-2.5,5.3-5.5,5.3c-3,0-5.5-2.5-5.5-5.5c0-1.8,0.9-3.4,2.2-4.4
				c0.5-0.4,1.1-0.7,1.8-0.9c0.5-0.1,1-0.2,1.5-0.2c0.2,0,0.4,0,0.6,0c1.4,0.1,2.7,0.8,3.5,1.8c0.5,0.5,0.8,1.1,1,1.8
				c0.2,0.6,0.3,1.2,0.3,1.9C1427,398.5,1427,398.5,1427,398.6z"/>
		</g>
	</g>
</g>
</svg>
