<svg xmlns="http://www.w3.org/2000/svg" viewBox="0 0 697 744.34"><defs><style>.cls-1{fill:#1abc9c;}.cls-2,.cls-3{fill:#fff;stroke:#1abc9c;}.cls-2{stroke-miterlimit:10;stroke-width:20px;}.cls-3{stroke-linecap:round;stroke-linejoin:round;stroke-width:10px;}</style></defs><title>messaging</title><g id="Layer_2" data-name="Layer 2"><g id="Layer_1-2" data-name="Layer 1"><path class="cls-1" d="M697,122.67a15.5,15.5,0,0,1-15.5,15.5h-228a15.5,15.5,0,0,1,0-31h73a15.5,15.5,0,0,0,0-31H504a15.5,15.5,0,0,1,0-31H621.5a15.5,15.5,0,0,1,0,31H608a15.5,15.5,0,0,0,0,31h73.5A15.5,15.5,0,0,1,697,122.67Z"/><path class="cls-1" d="M259,660.67a15.5,15.5,0,0,1-15.5,15.5H15.5a15.5,15.5,0,0,1,0-31h73a15.5,15.5,0,0,0,0-31H66a15.5,15.5,0,0,1,0-31H183.5a15.5,15.5,0,0,1,0,31H170a15.5,15.5,0,0,0,0,31h73.5A15.5,15.5,0,0,1,259,660.67Z"/><rect class="cls-2" x="151" y="10" width="389" height="724.34" rx="40.33" ry="40.33"/><path class="cls-1" d="M309.26,97.84v59.65a33.68,33.68,0,0,1-19.87,30.72v41l-40.08-38H130.41a33.67,33.67,0,0,1-33.67-33.67V97.84a33.67,33.67,0,0,1,33.67-33.67H275.59A33.67,33.67,0,0,1,309.26,97.84Z"/><path class="cls-3" d="M587.26,223.26v68.82a29.08,29.08,0,0,1-29.09,29.08H434.7l-40.09,38v-39.5a29.09,29.09,0,0,1-19.87-27.59V223.26a29.08,29.08,0,0,1,29.09-29.09H558.17A29.08,29.08,0,0,1,587.26,223.26Z"/><path class="cls-1" d="M309,360.3V426a33.67,33.67,0,0,1-20.95,31.18v42.57l-42.26-40.08H76.67A33.67,33.67,0,0,1,43,426V360.3a33.66,33.66,0,0,1,33.67-33.67H275.33A33.66,33.66,0,0,1,309,360.3Z"/><path class="cls-3" d="M622.22,476.7v66.66a28.53,28.53,0,0,1-28.54,28.53H433.59l-39.32,37.28V570.42a28.52,28.52,0,0,1-19.49-27.06V476.7a28.53,28.53,0,0,1,28.54-28.53H593.68A28.53,28.53,0,0,1,622.22,476.7Z"/><circle class="cls-1" cx="346" cy="661.17" r="30"/></g></g></svg>