<svg xmlns="http://www.w3.org/2000/svg" viewBox="0 0 707 764"><defs><style>.cls-1{fill:#fff;}.cls-2,.cls-3{fill:#1abc9c;}.cls-3,.cls-4{stroke:#fff;stroke-miterlimit:10;stroke-width:5px;}.cls-4{fill:none;}</style></defs><title>mobile-player</title><g id="Layer_2" data-name="Layer 2"><g id="Layer_1-2" data-name="Layer 1"><path class="cls-1" d="M707,134a15.5,15.5,0,0,1-15.5,15.5h-228a15.5,15.5,0,0,1,0-31h73a15.5,15.5,0,0,0,0-31H514a15.5,15.5,0,0,1,0-31H631.5a15.5,15.5,0,0,1,0,31H618a15.5,15.5,0,0,0,0,31h73.5A15.5,15.5,0,0,1,707,134Z"/><path class="cls-1" d="M259,691a15.5,15.5,0,0,1-15.5,15.5H15.5a15.5,15.5,0,0,1,0-31h73a15.5,15.5,0,0,0,0-31H66a15.5,15.5,0,0,1,0-31H183.5a15.5,15.5,0,0,1,0,31H170a15.5,15.5,0,0,0,0,31h73.5A15.5,15.5,0,0,1,259,691Z"/><rect class="cls-2" x="162.71" y="10" width="381" height="744" rx="50.33" ry="50.33"/><path class="cls-1" d="M493.37,20a40.34,40.34,0,0,1,40.34,40.33V703.67A40.34,40.34,0,0,1,493.37,744H213a40.33,40.33,0,0,1-40.33-40.33V60.33A40.33,40.33,0,0,1,213,20H493.37m0-20H213a60.4,60.4,0,0,0-60.33,60.33V703.67A60.4,60.4,0,0,0,213,764H493.37a60.41,60.41,0,0,0,60.34-60.33V60.33A60.41,60.41,0,0,0,493.37,0Z"/><circle class="cls-1" cx="353.21" cy="680" r="30"/><path class="cls-1" d="M343,182.5v.5a4,4,0,0,1-.14,1A8.65,8.65,0,0,0,343,182.5Z"/><rect class="cls-3" x="261.71" y="59.5" width="183" height="183" rx="11.67" ry="11.67"/><path class="cls-1" d="M385,105.3V169a8.5,8.5,0,1,1-8.5-8.5h.5v-48.6l-32,15.68V188.5a8.65,8.65,0,0,1-.14,1.54h0A8.5,8.5,0,1,1,336.49,180h.5V125a4,4,0,0,1,1.45-3.08s0,0,0,0l.28-.16,1.27-.62h0l38.23-18.74,2.1-1a4.23,4.23,0,0,1,.63,0,4,4,0,0,1,4,4Z"/><circle class="cls-4" cx="352.87" cy="577.25" r="40"/><polygon class="cls-1" points="344.62 592.49 367.12 577.25 344.62 562.01 344.62 592.49"/><polygon class="cls-1" points="453.71 592.49 453.71 585.04 442.71 592.49 442.71 562.01 453.71 569.46 453.71 562.01 476.21 577.25 453.71 592.49"/><polygon class="cls-1" points="252.71 562.01 252.71 569.46 263.71 562.01 263.71 592.49 252.71 585.04 252.71 592.49 230.21 577.25 252.71 562.01"/><path class="cls-1" d="M533.71,401.5v56a9.5,9.5,0,1,1-19,0V424.84a9.5,9.5,0,0,0-19,0V449.5a9.5,9.5,0,1,1-19,0V424.84a9.5,9.5,0,0,0-19,0V457.5a9.5,9.5,0,1,1-19,0V445.84a9.5,9.5,0,0,0-19,0v2.66a9.5,9.5,0,1,1-19,0V421.84a9.5,9.5,0,0,0-19,0V458.5a9.5,9.5,0,1,1-19,0v-34a9.5,9.5,0,0,0-19,0v25a9.5,9.5,0,1,1-19,0V427.84a9.5,9.5,0,0,0-19,0V479.5a9.5,9.5,0,1,1-19,0v-62a9.5,9.5,0,0,0-19,0v32a9.5,9.5,0,1,1-19,0V427.84a9.5,9.5,0,0,0-19,0V455.5a9.5,9.5,0,1,1-19,0V437.84a9.5,9.5,0,0,0-19,0V469.5a9.5,9.5,0,1,1-19,0v-56a9.5,9.5,0,0,0,19,0v-28a9.5,9.5,0,0,1,19,0v14a9.5,9.5,0,0,0,19,0v-68a9.5,9.5,0,0,1,19,0v62a9.5,9.5,0,0,0,19,0v1a9.5,9.5,0,0,1,19,0v5a9.5,9.5,0,0,0,19,0v-24a9.5,9.5,0,0,1,19,0v18a9.5,9.5,0,0,0,19,0v-47a9.5,9.5,0,0,1,19,0v55a9.5,9.5,0,0,0,19,0v-32a9.5,9.5,0,0,1,19,0v23a9.5,9.5,0,0,0,19,0v1a9.5,9.5,0,0,1,19,0v8a9.5,9.5,0,0,0,19,0v-65a9.5,9.5,0,0,1,19,0v57a9.5,9.5,0,0,0,19,0v-37a9.5,9.5,0,0,1,19,0v45a9.5,9.5,0,0,0,19,0Z"/></g></g></svg>