<?xml version="1.0" encoding="utf-8"?>
<!-- Generator: Adobe Illustrator 23.0.1, SVG Export Plug-In . SVG Version: 6.00 Build 0)  -->
<svg version="1.1" id="Layer_1" xmlns="http://www.w3.org/2000/svg" xmlns:xlink="http://www.w3.org/1999/xlink" x="0px" y="0px"
	 viewBox="0 0 1095 531" style="enable-background:new 0 0 1095 531;" xml:space="preserve">
<style type="text/css">
	.st0{fill:#1ABC9C;}
	.st1{fill:#FFFFFF;}
	.st2{fill:#95A5A6;}
	.st3{enable-background:new    ;}
</style>
<title>video-conferencing</title>
<g>
	<g id="Layer_1-2">
		<circle class="st0" cx="547.5" cy="25" r="6"/>
		<path class="st0" d="M320,77v20c0,5.3-4.3,9.5-9.5,9.5h-20c-5.3,0-9.5-4.3-9.5-9.5V77c0-5.3,4.3-9.5,9.5-9.5h20
			C315.8,67.5,320,71.8,320,77z"/>
		<path class="st0" d="M320,134v20c0,5.3-4.3,9.5-9.5,9.5h-20c-5.3,0-9.5-4.3-9.5-9.5v-20c0-5.3,4.3-9.5,9.5-9.5h20
			C315.8,124.5,320,128.8,320,134z"/>
		<path class="st0" d="M320,191v20c0,5.3-4.3,9.5-9.5,9.5h-20c-5.3,0-9.5-4.3-9.5-9.5v-20c0-5.3,4.3-9.5,9.5-9.5h20
			C315.8,181.5,320,185.8,320,191z"/>
		<circle class="st0" cx="390.5" cy="90" r="4"/>
		<circle class="st0" cx="404.5" cy="90" r="4"/>
		<circle class="st0" cx="418.5" cy="90" r="4"/>
		<path class="st0" d="M388.8,121.5h73.3c1.6,0,2.8,1.3,2.8,2.8v10.3c0,1.6-1.3,2.8-2.8,2.8h-73.3c-1.6,0-2.8-1.3-2.8-2.8v-10.3
			C386,122.8,387.3,121.5,388.8,121.5z"/>
		<path class="st0" d="M388.8,147.5h73.3c1.6,0,2.8,1.3,2.8,2.8v10.3c0,1.6-1.3,2.8-2.8,2.8h-73.3c-1.6,0-2.8-1.3-2.8-2.8v-10.3
			C386,148.8,387.3,147.5,388.8,147.5z"/>
		<path class="st0" d="M462.2,173.5h-73.3c-1.6,0-2.8,1.3-2.8,2.8v10.3c0,1.6,1.3,2.8,2.8,2.8h73.3c1.6,0,2.8-1.3,2.8-2.8v-10.3
			C465,174.8,463.7,173.5,462.2,173.5z M463.8,186.7c0,0.9-0.7,1.6-1.6,1.6h-73.3c-0.9,0-1.6-0.7-1.6-1.6v-10.3
			c0-0.9,0.7-1.6,1.6-1.6h73.3c0.9,0,1.6,0.7,1.6,1.6V186.7z"/>
		<path class="st0" d="M462.2,199.5h-73.3c-1.6,0-2.8,1.3-2.8,2.8v10.3c0,1.6,1.3,2.8,2.8,2.8h73.3c1.6,0,2.8-1.3,2.8-2.8v-10.3
			C465,200.8,463.7,199.5,462.2,199.5z M463.8,212.7c0,0.9-0.7,1.6-1.6,1.6h-73.3c-0.9,0-1.6-0.7-1.6-1.6v-10.3
			c0-0.9,0.7-1.6,1.6-1.6h73.3c0.9,0,1.6,0.7,1.6,1.6V212.7z"/>
		<path class="st0" d="M462.2,225.5h-73.3c-1.6,0-2.8,1.3-2.8,2.8v10.3c0,1.6,1.3,2.8,2.8,2.8h73.3c1.6,0,2.8-1.3,2.8-2.8v-10.3
			C465,226.8,463.7,225.5,462.2,225.5z M463.8,238.7c0,0.9-0.7,1.6-1.6,1.6h-73.3c-0.9,0-1.6-0.7-1.6-1.6v-10.3
			c0-0.9,0.7-1.6,1.6-1.6h73.3c0.9,0,1.6,0.7,1.6,1.6V238.7z"/>
		<path class="st0" d="M462.2,251.5h-73.3c-1.6,0-2.8,1.3-2.8,2.8v10.3c0,1.6,1.3,2.8,2.8,2.8h73.3c1.6,0,2.8-1.3,2.8-2.8v-10.3
			C465,252.8,463.7,251.5,462.2,251.5z M463.8,264.7c0,0.9-0.7,1.6-1.6,1.6h-73.3c-0.9,0-1.6-0.7-1.6-1.6v-10.3
			c0-0.9,0.7-1.6,1.6-1.6h73.3c0.9,0,1.6,0.7,1.6,1.6V264.7z"/>
		<rect x="474.5" y="99" class="st0" width="1" height="236"/>
		<circle class="st0" cx="618.5" cy="186" r="27"/>
		<path class="st0" d="M668.5,276.9c0,27.6-100,27.6-100,0c0-27.6,22.4-50,50-50S668.5,249.2,668.5,276.9z"/>
		<path class="st1" d="M320,77v20c0,5.3-4.3,9.5-9.5,9.5h-20c-5.3,0-9.5-4.3-9.5-9.5V77c0-5.3,4.3-9.5,9.5-9.5h20
			C315.8,67.5,320,71.8,320,77z"/>
		<path class="st1" d="M320,134v20c0,5.3-4.3,9.5-9.5,9.5h-20c-5.3,0-9.5-4.3-9.5-9.5v-20c0-5.3,4.3-9.5,9.5-9.5h20
			C315.8,124.5,320,128.8,320,134z"/>
		<path class="st1" d="M320,191v20c0,5.3-4.3,9.5-9.5,9.5h-20c-5.3,0-9.5-4.3-9.5-9.5v-20c0-5.3,4.3-9.5,9.5-9.5h20
			C315.8,181.5,320,185.8,320,191z"/>
		<circle class="st1" cx="390.5" cy="90" r="4"/>
		<circle class="st1" cx="404.5" cy="90" r="4"/>
		<circle class="st1" cx="418.5" cy="90" r="4"/>
		<path class="st1" d="M388.8,121.5h73.3c1.6,0,2.8,1.3,2.8,2.8v10.3c0,1.6-1.3,2.8-2.8,2.8h-73.3c-1.6,0-2.8-1.3-2.8-2.8v-10.3
			C386,122.8,387.3,121.5,388.8,121.5z"/>
		<path class="st1" d="M388.8,147.5h73.3c1.6,0,2.8,1.3,2.8,2.8v10.3c0,1.6-1.3,2.8-2.8,2.8h-73.3c-1.6,0-2.8-1.3-2.8-2.8v-10.3
			C386,148.8,387.3,147.5,388.8,147.5z"/>
		<path class="st1" d="M462.2,173.5h-73.3c-1.6,0-2.8,1.3-2.8,2.8v10.3c0,1.6,1.3,2.8,2.8,2.8h73.3c1.6,0,2.8-1.3,2.8-2.8v-10.3
			C465,174.8,463.7,173.5,462.2,173.5z M463.8,186.7c0,0.9-0.7,1.6-1.6,1.6h-73.3c-0.9,0-1.6-0.7-1.6-1.6v-10.3
			c0-0.9,0.7-1.6,1.6-1.6h73.3c0.9,0,1.6,0.7,1.6,1.6V186.7z"/>
		<path class="st1" d="M462.2,199.5h-73.3c-1.6,0-2.8,1.3-2.8,2.8v10.3c0,1.6,1.3,2.8,2.8,2.8h73.3c1.6,0,2.8-1.3,2.8-2.8v-10.3
			C465,200.8,463.7,199.5,462.2,199.5z M463.8,212.7c0,0.9-0.7,1.6-1.6,1.6h-73.3c-0.9,0-1.6-0.7-1.6-1.6v-10.3
			c0-0.9,0.7-1.6,1.6-1.6h73.3c0.9,0,1.6,0.7,1.6,1.6V212.7z"/>
		<path class="st1" d="M462.2,225.5h-73.3c-1.6,0-2.8,1.3-2.8,2.8v10.3c0,1.6,1.3,2.8,2.8,2.8h73.3c1.6,0,2.8-1.3,2.8-2.8v-10.3
			C465,226.8,463.7,225.5,462.2,225.5z M463.8,238.7c0,0.9-0.7,1.6-1.6,1.6h-73.3c-0.9,0-1.6-0.7-1.6-1.6v-10.3
			c0-0.9,0.7-1.6,1.6-1.6h73.3c0.9,0,1.6,0.7,1.6,1.6V238.7z"/>
		<path class="st1" d="M462.2,251.5h-73.3c-1.6,0-2.8,1.3-2.8,2.8v10.3c0,1.6,1.3,2.8,2.8,2.8h73.3c1.6,0,2.8-1.3,2.8-2.8v-10.3
			C465,252.8,463.7,251.5,462.2,251.5z M463.8,264.7c0,0.9-0.7,1.6-1.6,1.6h-73.3c-0.9,0-1.6-0.7-1.6-1.6v-10.3
			c0-0.9,0.7-1.6,1.6-1.6h73.3c0.9,0,1.6,0.7,1.6,1.6V264.7z"/>
		<rect x="474.5" y="99" class="st1" width="1" height="236"/>
		<circle class="st1" cx="618.5" cy="186" r="27"/>
		<path class="st1" d="M668.5,276.9c0,27.6-100,27.6-100,0c0-27.6,22.4-50,50-50S668.5,249.2,668.5,276.9z"/>
		<circle class="st0" cx="390.5" cy="90" r="4"/>
		<circle class="st0" cx="404.5" cy="90" r="4"/>
		<circle class="st0" cx="418.5" cy="90" r="4"/>
		<path class="st0" d="M388.8,121.5h73.3c1.6,0,2.8,1.3,2.8,2.8v10.3c0,1.6-1.3,2.8-2.8,2.8h-73.3c-1.6,0-2.8-1.3-2.8-2.8v-10.3
			C386,122.8,387.3,121.5,388.8,121.5z"/>
		<path class="st0" d="M388.8,147.5h73.3c1.6,0,2.8,1.3,2.8,2.8v10.3c0,1.6-1.3,2.8-2.8,2.8h-73.3c-1.6,0-2.8-1.3-2.8-2.8v-10.3
			C386,148.8,387.3,147.5,388.8,147.5z"/>
		<path class="st0" d="M462.2,173.5h-73.3c-1.6,0-2.8,1.3-2.8,2.8v10.3c0,1.6,1.3,2.8,2.8,2.8h73.3c1.6,0,2.8-1.3,2.8-2.8v-10.3
			C465,174.8,463.7,173.5,462.2,173.5z M463.8,186.7c0,0.9-0.7,1.6-1.6,1.6h-73.3c-0.9,0-1.6-0.7-1.6-1.6v-10.3
			c0-0.9,0.7-1.6,1.6-1.6h73.3c0.9,0,1.6,0.7,1.6,1.6V186.7z"/>
		<path class="st0" d="M462.2,199.5h-73.3c-1.6,0-2.8,1.3-2.8,2.8v10.3c0,1.6,1.3,2.8,2.8,2.8h73.3c1.6,0,2.8-1.3,2.8-2.8v-10.3
			C465,200.8,463.7,199.5,462.2,199.5z M463.8,212.7c0,0.9-0.7,1.6-1.6,1.6h-73.3c-0.9,0-1.6-0.7-1.6-1.6v-10.3
			c0-0.9,0.7-1.6,1.6-1.6h73.3c0.9,0,1.6,0.7,1.6,1.6V212.7z"/>
		<path class="st0" d="M462.2,225.5h-73.3c-1.6,0-2.8,1.3-2.8,2.8v10.3c0,1.6,1.3,2.8,2.8,2.8h73.3c1.6,0,2.8-1.3,2.8-2.8v-10.3
			C465,226.8,463.7,225.5,462.2,225.5z M463.8,238.7c0,0.9-0.7,1.6-1.6,1.6h-73.3c-0.9,0-1.6-0.7-1.6-1.6v-10.3
			c0-0.9,0.7-1.6,1.6-1.6h73.3c0.9,0,1.6,0.7,1.6,1.6V238.7z"/>
		<path class="st0" d="M462.2,251.5h-73.3c-1.6,0-2.8,1.3-2.8,2.8v10.3c0,1.6,1.3,2.8,2.8,2.8h73.3c1.6,0,2.8-1.3,2.8-2.8v-10.3
			C465,252.8,463.7,251.5,462.2,251.5z M463.8,264.7c0,0.9-0.7,1.6-1.6,1.6h-73.3c-0.9,0-1.6-0.7-1.6-1.6v-10.3
			c0-0.9,0.7-1.6,1.6-1.6h73.3c0.9,0,1.6,0.7,1.6,1.6V264.7z"/>
		<rect x="474.5" y="99" class="st0" width="1" height="236"/>
		<circle class="st0" cx="618.5" cy="186" r="27"/>
		<path class="st0" d="M668.5,276.9c0,27.6-100,27.6-100,0c0-27.6,22.4-50,50-50S668.5,249.2,668.5,276.9z"/>
		<path class="st0" d="M767.5,74H388.2c-10.3,0-18.7,8.4-18.7,18.7v244.6c0,10.3,8.4,18.7,18.7,18.7h379.3
			c10.3,0,18.7-8.4,18.7-18.7c0,0,0,0,0,0V92.7C786.2,82.4,777.8,74,767.5,74z M781.2,127.7V145l0,192.2c0,7.6-6.2,13.8-13.8,13.8
			h-379c-7.6,0-13.8-6.2-13.8-13.8V92.8c0-7.6,6.2-13.8,13.8-13.8h379c7.6,0,13.8,6.2,13.8,13.8L781.2,127.7z"/>
		<circle class="st1" cx="390.5" cy="90" r="4"/>
		<circle class="st1" cx="404.5" cy="90" r="4"/>
		<circle class="st1" cx="418.5" cy="90" r="4"/>
		<path class="st1" d="M388.8,121.5h73.3c1.6,0,2.8,1.3,2.8,2.8v10.3c0,1.6-1.3,2.8-2.8,2.8h-73.3c-1.6,0-2.8-1.3-2.8-2.8v-10.3
			C386,122.8,387.3,121.5,388.8,121.5z"/>
		<path class="st1" d="M388.8,147.5h73.3c1.6,0,2.8,1.3,2.8,2.8v10.3c0,1.6-1.3,2.8-2.8,2.8h-73.3c-1.6,0-2.8-1.3-2.8-2.8v-10.3
			C386,148.8,387.3,147.5,388.8,147.5z"/>
		<path class="st1" d="M462.2,173.5h-73.3c-1.6,0-2.8,1.3-2.8,2.8v10.3c0,1.6,1.3,2.8,2.8,2.8h73.3c1.6,0,2.8-1.3,2.8-2.8v-10.3
			C465,174.8,463.7,173.5,462.2,173.5z M463.8,186.7c0,0.9-0.7,1.6-1.6,1.6h-73.3c-0.9,0-1.6-0.7-1.6-1.6v-10.3
			c0-0.9,0.7-1.6,1.6-1.6h73.3c0.9,0,1.6,0.7,1.6,1.6V186.7z"/>
		<path class="st1" d="M462.2,199.5h-73.3c-1.6,0-2.8,1.3-2.8,2.8v10.3c0,1.6,1.3,2.8,2.8,2.8h73.3c1.6,0,2.8-1.3,2.8-2.8v-10.3
			C465,200.8,463.7,199.5,462.2,199.5z M463.8,212.7c0,0.9-0.7,1.6-1.6,1.6h-73.3c-0.9,0-1.6-0.7-1.6-1.6v-10.3
			c0-0.9,0.7-1.6,1.6-1.6h73.3c0.9,0,1.6,0.7,1.6,1.6V212.7z"/>
		<path class="st1" d="M462.2,225.5h-73.3c-1.6,0-2.8,1.3-2.8,2.8v10.3c0,1.6,1.3,2.8,2.8,2.8h73.3c1.6,0,2.8-1.3,2.8-2.8v-10.3
			C465,226.8,463.7,225.5,462.2,225.5z M463.8,238.7c0,0.9-0.7,1.6-1.6,1.6h-73.3c-0.9,0-1.6-0.7-1.6-1.6v-10.3
			c0-0.9,0.7-1.6,1.6-1.6h73.3c0.9,0,1.6,0.7,1.6,1.6V238.7z"/>
		<path class="st1" d="M462.2,251.5h-73.3c-1.6,0-2.8,1.3-2.8,2.8v10.3c0,1.6,1.3,2.8,2.8,2.8h73.3c1.6,0,2.8-1.3,2.8-2.8v-10.3
			C465,252.8,463.7,251.5,462.2,251.5z M463.8,264.7c0,0.9-0.7,1.6-1.6,1.6h-73.3c-0.9,0-1.6-0.7-1.6-1.6v-10.3
			c0-0.9,0.7-1.6,1.6-1.6h73.3c0.9,0,1.6,0.7,1.6,1.6V264.7z"/>
		<rect x="474.5" y="99" class="st1" width="1" height="236"/>
		<circle class="st1" cx="618.5" cy="186" r="27"/>
		<path class="st1" d="M668.5,276.9c0,27.6-100,27.6-100,0c0-27.6,22.4-50,50-50S668.5,249.2,668.5,276.9z"/>
		<circle class="st0" cx="618.5" cy="186" r="27"/>
		<path class="st0" d="M668.5,276.9c0,27.6-100,27.6-100,0c0-27.6,22.4-50,50-50S668.5,249.2,668.5,276.9z"/>
		<path class="st2" d="M320,77v20c0,5.3-4.3,9.5-9.5,9.5h-20c-5.3,0-9.5-4.3-9.5-9.5V77c0-5.3,4.3-9.5,9.5-9.5h20
			C315.8,67.5,320,71.8,320,77z"/>
		<path class="st2" d="M320,134v20c0,5.3-4.3,9.5-9.5,9.5h-20c-5.3,0-9.5-4.3-9.5-9.5v-20c0-5.3,4.3-9.5,9.5-9.5h20
			C315.8,124.5,320,128.8,320,134z"/>
		<path class="st2" d="M320,191v20c0,5.3-4.3,9.5-9.5,9.5h-20c-5.3,0-9.5-4.3-9.5-9.5v-20c0-5.3,4.3-9.5,9.5-9.5h20
			C315.8,181.5,320,185.8,320,191z"/>
		<path class="st0" d="M134.5,350.5H9.5c-5.3,0-9.5,4.3-9.5,9.5v161c0,5.3,4.3,9.5,9.5,9.5h125c5.3,0,9.5-4.3,9.5-9.5V360
			C144,354.8,139.8,350.5,134.5,350.5z M72,506.5c-12.7,0-23-10.3-23-23s10.3-23,23-23s23,10.3,23,23S84.7,506.5,72,506.5z
			 M96.8,435.3c-6.3,6.3-15.1,10.3-24.8,10.3c-19.3,0-35-15.7-35-35s15.7-35,35-35s35,15.7,35,35C107,420.2,103.1,428.9,96.8,435.3z
			"/>
		<path class="st0" d="M1085.5,350.5h-125c-5.3,0-9.5,4.3-9.5,9.5v161c0,5.3,4.3,9.5,9.5,9.5h125c5.3,0,9.5-4.3,9.5-9.5V360
			C1095,354.8,1090.8,350.5,1085.5,350.5z M1023,506.5c-12.7,0-23-10.3-23-23s10.3-23,23-23c12.7,0,23,10.3,23,23
			S1035.7,506.5,1023,506.5z M1047.8,435.3c-6.3,6.3-15.1,10.3-24.8,10.3c-19.3,0-35-15.7-35-35s15.7-35,35-35c19.3,0,35,15.7,35,35
			C1058,420.2,1054.1,428.9,1047.8,435.3z"/>
		<path class="st0" d="M1006,124H933c-0.7,0-1.4-0.1-2.1-0.2c-5.9-1-10.4-6.1-10.4-12.3c0-3.5,1.4-6.6,3.7-8.8
			c2.3-2.3,5.4-3.7,8.8-3.7h22.5c3.5,0,6.6-1.4,8.8-3.7c2.3-2.3,3.7-5.4,3.7-8.8c0-6.9-5.6-12.5-12.5-12.5h-92V40.2
			c0-13.9-11.3-25.2-25.2-25.2H642.4c-5.5-12.7-20.3-18.5-32.9-12.9c-5.8,2.5-10.4,7.2-12.9,12.9H256.7c-13.9,0-25.2,11.3-25.2,25.2
			v211.3H155c-6.9,0-12.5,5.6-12.5,12.5c0,3.5,1.4,6.6,3.7,8.8c2.3,2.3,5.4,3.7,8.8,3.7h22.5c3.5,0,6.6,1.4,8.8,3.7
			c2.3,2.3,3.7,5.4,3.7,8.8c0,6.2-4.5,11.3-10.4,12.3c-0.7,0.1-1.4,0.2-2.1,0.2h-72.9c-5.9,1-10.4,6.1-10.4,12.3
			c0,3.5,1.4,6.6,3.7,8.8c2.3,2.3,5.4,3.7,8.8,3.7h124.8v63.5c0,13.9,11.3,25.2,25.2,25.2h250.8v73h-108c-6.1,0-11,4.9-11,11
			c0,4.3,2.5,8.2,6.4,10h-88.4c-6.1,0-11,4.9-11,11s4.9,11,11,11h482c6.1,0,11-4.9,11-11s-4.9-11-11-11h-88.4
			c5.5-2.5,7.9-9.1,5.4-14.6c-1.8-3.9-5.7-6.4-10-6.4h-108v-73h250.8c13.9,0,25.2-11.3,25.2-25.2v-241h140.4c3.5,0,6.6-1.4,8.8-3.7
			c2.3-2.3,3.7-5.4,3.7-8.8C1016.4,130.1,1011.9,125,1006,124z M608.8,15c5.5-5.9,14.8-6.2,20.7-0.7c5.9,5.5,6.2,14.8,0.7,20.7
			c-5.5,5.9-14.8,6.2-20.7,0.7c-2.9-2.8-4.6-6.6-4.6-10.7C604.8,21.3,606.3,17.7,608.8,15z M547.5,19c3.3,0,6,2.7,6,6s-2.7,6-6,6
			s-6-2.7-6-6S544.2,19,547.5,19z M843.5,124v260.1c0,6.5-5.3,11.8-11.8,11.8H263.3c-6.5,0-11.8-5.3-11.8-11.8V45.9
			c0-6.5,5.3-11.8,11.8-11.8h333c5,12.9,19.5,19.2,32.4,14.2c6.5-2.5,11.6-7.7,14.2-14.2h189c6.5,0,11.7,5.3,11.7,11.8v77.9V124z"/>
		<circle class="st1" cx="547.5" cy="25" r="6"/>
		<circle class="st0" cx="390.5" cy="90" r="4"/>
		<circle class="st2" cx="404.5" cy="90" r="4"/>
		<circle class="st2" cx="418.5" cy="90" r="4"/>
		<rect x="474.5" y="99" class="st0" width="1" height="236"/>
		<path class="st0" d="M388.8,121.5h73.3c1.6,0,2.8,1.3,2.8,2.8v10.3c0,1.6-1.3,2.8-2.8,2.8h-73.3c-1.6,0-2.8-1.3-2.8-2.8v-10.3
			C386,122.8,387.3,121.5,388.8,121.5z"/>
		<path class="st0" d="M388.8,147.5h73.3c1.6,0,2.8,1.3,2.8,2.8v10.3c0,1.6-1.3,2.8-2.8,2.8h-73.3c-1.6,0-2.8-1.3-2.8-2.8v-10.3
			C386,148.8,387.3,147.5,388.8,147.5z"/>
		<path class="st0" d="M462.2,173.5h-73.3c-1.6,0-2.8,1.3-2.8,2.8v10.3c0,1.6,1.3,2.8,2.8,2.8h73.3c1.6,0,2.8-1.3,2.8-2.8v-10.3
			C465,174.8,463.7,173.5,462.2,173.5z M463.8,186.7c0,0.9-0.7,1.6-1.6,1.6h-73.3c-0.9,0-1.6-0.7-1.6-1.6v-10.3
			c0-0.9,0.7-1.6,1.6-1.6h73.3c0.9,0,1.6,0.7,1.6,1.6V186.7z"/>
		<path class="st0" d="M462.2,199.5h-73.3c-1.6,0-2.8,1.3-2.8,2.8v10.3c0,1.6,1.3,2.8,2.8,2.8h73.3c1.6,0,2.8-1.3,2.8-2.8v-10.3
			C465,200.8,463.7,199.5,462.2,199.5z M463.8,212.7c0,0.9-0.7,1.6-1.6,1.6h-73.3c-0.9,0-1.6-0.7-1.6-1.6v-10.3
			c0-0.9,0.7-1.6,1.6-1.6h73.3c0.9,0,1.6,0.7,1.6,1.6V212.7z"/>
		<path class="st0" d="M462.2,225.5h-73.3c-1.6,0-2.8,1.3-2.8,2.8v10.3c0,1.6,1.3,2.8,2.8,2.8h73.3c1.6,0,2.8-1.3,2.8-2.8v-10.3
			C465,226.8,463.7,225.5,462.2,225.5z M463.8,238.7c0,0.9-0.7,1.6-1.6,1.6h-73.3c-0.9,0-1.6-0.7-1.6-1.6v-10.3
			c0-0.9,0.7-1.6,1.6-1.6h73.3c0.9,0,1.6,0.7,1.6,1.6V238.7z"/>
		<path class="st0" d="M462.2,251.5h-73.3c-1.6,0-2.8,1.3-2.8,2.8v10.3c0,1.6,1.3,2.8,2.8,2.8h73.3c1.6,0,2.8-1.3,2.8-2.8v-10.3
			C465,252.8,463.7,251.5,462.2,251.5z M463.8,264.7c0,0.9-0.7,1.6-1.6,1.6h-73.3c-0.9,0-1.6-0.7-1.6-1.6v-10.3
			c0-0.9,0.7-1.6,1.6-1.6h73.3c0.9,0,1.6,0.7,1.6,1.6V264.7z"/>
		<path class="st0" d="M751.7,113h-94.5c-4.3,0-7.8,3.5-7.8,7.8v34.4c0,4.3,3.5,7.8,7.8,7.8h1.7v21.5l13-21.5h79.7
			c4.3,0,7.8-3.5,7.8-7.8v-34.4C759.5,116.5,756,113,751.7,113z M751.5,161h-80.4l-1.2,2l-8.9,14.4v-16.4h-3.5c-3.3,0-6-2.7-6-6V121
			c0-3.3,2.7-6,6-6h93.9c3.3,0,6,2.7,6,6l0,34C757.5,158.3,754.8,161,751.5,161z"/>
		<g class="st3">
			<path class="st0" d="M693.9,126.3c-0.1-0.1-0.3-0.2-0.5-0.2s-0.4,0.1-0.5,0.2c-0.1,0.1-0.2,0.3-0.2,0.5v8.8h-10.5v-8.8
				c0-0.2-0.1-0.4-0.2-0.5c-0.1-0.1-0.3-0.2-0.5-0.2c-0.2,0-0.4,0.1-0.5,0.2c-0.1,0.1-0.2,0.3-0.2,0.5v19c0,0.2,0.1,0.4,0.2,0.5
				c0.1,0.1,0.3,0.2,0.5,0.2c0.2,0,0.4-0.1,0.5-0.2c0.1-0.1,0.2-0.3,0.2-0.5V137h10.5v8.8c0,0.2,0.1,0.4,0.2,0.5
				c0.1,0.1,0.3,0.2,0.5,0.2s0.4-0.1,0.5-0.2c0.2-0.1,0.2-0.3,0.2-0.5v-19C694.1,126.7,694,126.5,693.9,126.3z"/>
			<path class="st0" d="M711.7,134.2c-1.3-1.3-2.9-1.9-4.8-1.9s-3.5,0.7-4.8,2.1c-1.3,1.4-2,3.1-2,5.1c0,2,0.7,3.6,2,5
				c1.3,1.4,3,2.1,4.9,2.1c1.2,0,2.3-0.3,3.3-0.9c1-0.6,1.8-1.4,2.5-2.4c0.2-0.4,0.2-0.7-0.2-1c-0.4-0.2-0.7-0.1-0.9,0.2
				c-0.5,0.8-1.1,1.4-2,1.9c-0.8,0.5-1.7,0.7-2.6,0.7c-1.5,0-2.8-0.5-3.8-1.6c-1.1-1-1.6-2.3-1.7-3.9h11.7c0.2,0,0.4,0,0.5-0.2
				c0.1-0.1,0.2-0.3,0.2-0.5v-0.1C713.7,137,713,135.4,711.7,134.2z M701.5,138.3c0.3-1.4,0.9-2.5,1.9-3.3c1-0.9,2.2-1.3,3.5-1.3
				s2.5,0.4,3.5,1.3c1,0.9,1.6,2,1.9,3.3H701.5z"/>
			<path class="st0" d="M728.5,132.3h-0.2c0,0,0,0-0.1,0h-0.1c-0.2,0.1-0.3,0.1-0.3,0.2c0,0.1-0.1,0.1-0.1,0.1s-0.1,0.1-0.1,0.3v7.7
				c0,1.2-0.5,2.3-1.3,3.1c-0.9,0.8-1.9,1.3-3.1,1.3c-1.2,0-2.3-0.4-3.1-1.3c-0.9-0.9-1.3-1.9-1.3-3.1v-7.7c0-0.2-0.1-0.3-0.2-0.5
				c-0.1-0.1-0.3-0.2-0.5-0.2c-0.2,0-0.4,0.1-0.5,0.2c-0.1,0.1-0.2,0.3-0.2,0.5v7.7c0,1.6,0.6,3,1.7,4.1c1.1,1.1,2.5,1.7,4.2,1.7
				c1.7,0,3.1-0.7,4.3-2v0.9c0,1.5-0.5,2.7-1.6,3.8c-1,1-2.3,1.5-3.8,1.5c-0.8,0-1.6-0.2-2.3-0.5c-0.4-0.1-0.7,0-0.9,0.4
				c-0.2,0.4-0.1,0.7,0.3,0.9c1,0.4,2,0.7,2.9,0.7c1.9,0,3.5-0.7,4.8-2s2-2.9,2-4.7v-12.5C729.2,132.6,729,132.3,728.5,132.3z"/>
			<path class="st0" d="M737.1,144.6c-0.2-0.1-0.3-0.2-0.5-0.2c-0.2,0-0.4,0.1-0.5,0.2c-0.1,0.1-0.2,0.3-0.2,0.5v0.7
				c0,0.2,0.1,0.4,0.2,0.5c0.1,0.1,0.3,0.2,0.5,0.2c0.2,0,0.4-0.1,0.5-0.2c0.1-0.1,0.2-0.3,0.2-0.5v-0.7
				C737.3,144.9,737.2,144.8,737.1,144.6z M737.1,126.3c-0.2-0.1-0.3-0.2-0.5-0.2c-0.2,0-0.4,0.1-0.5,0.2c-0.1,0.1-0.2,0.3-0.2,0.5
				v14.6c0,0.2,0.1,0.4,0.2,0.5c0.1,0.1,0.3,0.2,0.5,0.2c0.2,0,0.4-0.1,0.5-0.2c0.1-0.2,0.2-0.3,0.2-0.5v-14.6
				C737.3,126.7,737.2,126.5,737.1,126.3z"/>
		</g>
	</g>
</g>
</svg>
