<svg xmlns="http://www.w3.org/2000/svg" viewBox="0 0 450 450"><defs><style>.cls-1{fill:#fff;}.cls-2{fill:#1abc9c;}.cls-3{fill:#bfbebb;}.cls-4{fill:#191919;}.cls-5{fill:#eeedeb;}.cls-6{fill:#eecfba;}</style></defs><title>MR</title><g id="Layer_2" data-name="Layer 2"><g id="Layer_1-2" data-name="Layer 1"><path class="cls-1" d="M439.75,209.17V416.86A26.78,26.78,0,0,1,413.26,440H349.92a10.18,10.18,0,0,1-10.17-10.17V209.17A10.18,10.18,0,0,1,349.92,199h79.66A10.18,10.18,0,0,1,439.75,209.17Z"/><path class="cls-1" d="M439.75,209.17V416.86A26.78,26.78,0,0,1,413.26,440H349.92a10.18,10.18,0,0,1-10.17-10.17V209.17A10.18,10.18,0,0,1,349.92,199h79.66A10.18,10.18,0,0,1,439.75,209.17Z"/><path class="cls-2" d="M413.26,0H36.74A36.74,36.74,0,0,0,0,36.74V413.26A36.74,36.74,0,0,0,36.74,450H413.26a36.73,36.73,0,0,0,36.49-32.48,35.31,35.31,0,0,0,.25-4.26V36.74A36.74,36.74,0,0,0,413.26,0Zm26.49,416.86A26.78,26.78,0,0,1,413.26,440H349.92a10.18,10.18,0,0,1-10.17-10.17V209.17A10.18,10.18,0,0,1,349.92,199h79.66a10.18,10.18,0,0,1,10.17,10.17Zm.25-225a20.07,20.07,0,0,0-10.42-2.9H349.92a20.17,20.17,0,0,0-20.17,20.17V429.83A19.94,19.94,0,0,0,332.51,440H36.74A26.78,26.78,0,0,1,10,413.26V219H35.75V326a3,3,0,0,0,6,0V219h166V326a3,3,0,0,0,6,0V219h27a3,3,0,0,0,0-6H160a3,3,0,0,0,.77-2,3,3,0,0,0-3-3h-26V197h65a3,3,0,0,0,3-3V112a3,3,0,0,0-3-3h-136a3,3,0,0,0-3,3v82a3,3,0,0,0,3,3h65v11h-27a3,3,0,0,0-3,3,3,3,0,0,0,.77,2H10V36.74A26.78,26.78,0,0,1,36.74,10H413.26A26.78,26.78,0,0,1,440,36.74ZM63.75,191V115h130v76Z"/><path class="cls-2" d="M387.75,45.06h-96a3,3,0,0,0-3,3v57.88a3,3,0,0,0,3,3h96a3,3,0,0,0,3-3V48.06A3,3,0,0,0,387.75,45.06Zm-3,57.88h-90V77.12l10-10,24.44,24.44a1.51,1.51,0,0,0,1.64.33l32-13.28,22,7.79Zm0-19.72-21.5-7.63a1.49,1.49,0,0,0-1.08,0L330.6,88.73,305.81,63.94a1.49,1.49,0,0,0-2.12,0l-8.94,8.94V51.06h90Z"/><circle class="cls-2" cx="369.75" cy="63" r="5"/><circle class="cls-2" cx="355.75" cy="319" r="6"/><path class="cls-3" d="M301,377H142.5a12.75,12.75,0,0,1-12.75-12.75s18-20.75,20-22.5S155.46,339,162.5,339H281c7,0,9.75-.5,12.75,2.75s20,22.5,20,22.5A12.75,12.75,0,0,1,301,377Z"/><path class="cls-4" d="M207,345.71v18.91a5.62,5.62,0,0,1-11.23,0V342.21A77.43,77.43,0,0,0,207,345.71Z"/><path class="cls-4" d="M189.24,339.29v13.5a5.62,5.62,0,1,1-11.23,0V332.4A78,78,0,0,0,189.24,339.29Z"/><path class="cls-4" d="M254.26,342.21v22.41a5.62,5.62,0,0,1-11.23,0V345.71A77.43,77.43,0,0,0,254.26,342.21Z"/><path class="cls-4" d="M272,332.4v20.39a5.62,5.62,0,1,1-11.23,0v-13.5A78,78,0,0,0,272,332.4Z"/><path class="cls-5" d="M225,188.77A79.5,79.5,0,0,0,178,332.4a78,78,0,0,0,11.23,6.89q3.16,1.6,6.5,2.92a77.43,77.43,0,0,0,11.23,3.5,79.93,79.93,0,0,0,36.06,0,77.43,77.43,0,0,0,11.23-3.5q3.33-1.32,6.5-2.92A78,78,0,0,0,272,332.4a79.5,79.5,0,0,0-47-143.63Zm50.82,69.44c-2.19,2.19-11.66,8.1-13.85,5.91l-4.23-8a66.06,66.06,0,0,1,2.43,16.56c0,20.24-14.56,36.65-32.51,36.65s-32.51-16.41-32.51-36.65a66.06,66.06,0,0,1,2.43-16.56l-4.23,8c-2.19,2.19-11.66-3.72-13.85-5.91a5.63,5.63,0,0,1,0-7.94l22.75-17.41c.18-9.36,11.49-16.9,25.41-16.9s25.23,7.55,25.41,16.91l22.75,17.4A5.62,5.62,0,0,1,275.82,258.21Z"/><path class="cls-5" d="M205.65,229.54c0-.19,0-.19,0,0Z"/><path class="cls-5" d="M249.67,229.56c0-.17,0-.21,0-.1A.41.41,0,0,1,249.67,229.56Z"/><path class="cls-5" d="M260.17,272.7c0,20.24-14.56,36.65-32.51,36.65s-32.51-16.41-32.51-36.65a66.06,66.06,0,0,1,2.43-16.56l7.82-14.76c4.33,5.28,12.67,8.86,22.26,8.86s17.93-3.58,22.26-8.86l7.82,14.76A66.06,66.06,0,0,1,260.17,272.7Z"/><path class="cls-6" d="M260.17,272.7c0,20.24-14.56,36.65-32.51,36.65s-32.51-16.41-32.51-36.65a66.06,66.06,0,0,1,2.43-16.56l7.82-14.76c4.33,5.28,12.67,8.86,22.26,8.86s17.93-3.58,22.26-8.86l7.82,14.76A66.06,66.06,0,0,1,260.17,272.7Z"/><path class="cls-4" d="M249.68,229.46a.41.41,0,0,1,0,.1C249.63,229.39,249.68,229.35,249.68,229.46Z"/><path class="cls-4" d="M275.82,258.21c-2.19,2.19-11.66,8.1-13.85,5.91l-4.23-8-7.82-14.76a14.08,14.08,0,0,0,1.44-2.08,12.2,12.2,0,0,0,1.72-6.2,1.77,1.77,0,0,0,0-.23l22.75,17.4A5.62,5.62,0,0,1,275.82,258.21Z"/><path class="cls-4" d="M205.65,229.54c0-.19,0-.19,0,0Z"/><path class="cls-4" d="M205.4,241.38l-7.82,14.76-4.23,8c-2.19,2.19-11.66-3.72-13.85-5.91a5.63,5.63,0,0,1,0-7.94l22.75-17.41a1.93,1.93,0,0,0,0,.24,12.2,12.2,0,0,0,1.72,6.2A14.08,14.08,0,0,0,205.4,241.38Z"/><path class="cls-1" d="M253.07,232.87c-.18-9.36-11.48-16.91-25.41-16.91s-25.23,7.54-25.41,16.9a1.93,1.93,0,0,0,0,.24,12.2,12.2,0,0,0,1.72,6.2,14.08,14.08,0,0,0,1.44,2.08c4.33,5.28,12.67,8.86,22.26,8.86s17.93-3.58,22.26-8.86a14.08,14.08,0,0,0,1.44-2.08,12.2,12.2,0,0,0,1.72-6.2A1.77,1.77,0,0,0,253.07,232.87Zm-47.42-3.33c0-.19,0-.19,0,0Zm44,0c0-.17,0-.21,0-.1A.41.41,0,0,1,249.67,229.56Z"/><path class="cls-1" d="M205.65,229.54c0-.19,0-.19,0,0Z"/><path class="cls-1" d="M249.68,229.46a.41.41,0,0,1,0,.1C249.63,229.39,249.68,229.35,249.68,229.46Z"/><circle class="cls-4" cx="233.57" cy="263.84" r="4.14"/><circle class="cls-4" cx="221.75" cy="263.84" r="4.14"/></g></g></svg>