<svg xmlns="http://www.w3.org/2000/svg" viewBox="0 0 450 450"><defs><style>.cls-1{fill:#fff;}.cls-2{fill:#1abc9c;}.cls-3{fill:#191919;}.cls-4{fill:#eeedeb;}.cls-5{fill:#eecfba;}</style></defs><title>AR</title><g id="Layer_2" data-name="Layer 2"><g id="Layer_1-2" data-name="Layer 1"><path class="cls-1" d="M335.5,27A24.5,24.5,0,1,0,360,51.5,24.53,24.53,0,0,0,335.5,27Zm0,43A18.5,18.5,0,1,1,354,51.5,18.52,18.52,0,0,1,335.5,70ZM275.32,250.27l-22.75-17.4c-.18-9.36-11.48-16.91-25.41-16.91s-25.23,7.54-25.41,16.9L179,250.27a5.63,5.63,0,0,0,0,7.94c2.19,2.19,11.66,8.1,13.85,5.91l4.23-8a66.06,66.06,0,0,0-2.43,16.56c0,20.24,14.56,36.65,32.51,36.65s32.51-16.41,32.51-36.65a66.06,66.06,0,0,0-2.43-16.56l4.23,8c2.19,2.19,11.66-3.72,13.85-5.91A5.62,5.62,0,0,0,275.32,250.27ZM260.26,352.79a5.62,5.62,0,1,0,11.23,0V332.4a78,78,0,0,1-11.23,6.89Zm-17.73,11.83a5.62,5.62,0,0,0,11.23,0V342.21a77.43,77.43,0,0,1-11.23,3.5Zm-18-175.85c-.87,0-1.73,0-2.59,0l14,.77A79.19,79.19,0,0,0,224.5,188.77ZM195.24,364.62a5.62,5.62,0,0,0,11.23,0V345.71a77.43,77.43,0,0,1-11.23-3.5Zm-17.73-11.83a5.62,5.62,0,1,0,11.23,0v-13.5a78,78,0,0,1-11.23-6.89Z"/><path class="cls-2" d="M413.26,0H36.74A36.74,36.74,0,0,0,0,36.74V413.26A36.74,36.74,0,0,0,36.74,450H413.26A36.74,36.74,0,0,0,450,413.26V36.74A36.74,36.74,0,0,0,413.26,0ZM440,213.81H391.4a8.9,8.9,0,1,0,0,17.79h12.81a8.9,8.9,0,0,1,0,17.8H372.9a8.9,8.9,0,1,0,0,17.79H440V413.26A26.78,26.78,0,0,1,413.26,440H386.19V390.4a8.9,8.9,0,1,0-17.79,0v12.81a8.9,8.9,0,0,1-17.8,0V371.9a8.9,8.9,0,1,0-17.79,0V440H92.19V390.4a8.9,8.9,0,1,0-17.79,0v12.81a8.9,8.9,0,0,1-17.8,0V371.9a8.9,8.9,0,1,0-17.79,0V440H36.74A26.78,26.78,0,0,1,10,413.26V170H95a3,3,0,0,0,0-6H10v-1.76l109-109,41.38,41.38a3,3,0,0,0,4.24,0L230.5,28.74,330.88,129.12a3,3,0,0,0,4.24,0L379.5,84.74l60.5,60.5Zm0-77.05L381.62,78.38a3,3,0,0,0-4.24,0L333,122.76,232.62,22.38a3,3,0,0,0-4.24,0L162.5,88.26,121.12,46.88a3,3,0,0,0-4.24,0L10,153.76v-117A26.78,26.78,0,0,1,36.74,10H413.26A26.78,26.78,0,0,1,440,36.74Z"/><path class="cls-2" d="M395,167a3,3,0,0,1-3,3H195.24a3,3,0,0,1,0-6H392A3,3,0,0,1,395,167Z"/><path class="cls-3" d="M206.47,345.71v18.91a5.62,5.62,0,0,1-11.23,0V342.21A77.43,77.43,0,0,0,206.47,345.71Z"/><path class="cls-3" d="M188.74,339.29v13.5a5.62,5.62,0,1,1-11.23,0V332.4A78,78,0,0,0,188.74,339.29Z"/><path class="cls-3" d="M253.76,342.21v22.41a5.62,5.62,0,0,1-11.23,0V345.71A77.43,77.43,0,0,0,253.76,342.21Z"/><path class="cls-3" d="M271.49,332.4v20.39a5.62,5.62,0,1,1-11.23,0v-13.5A78,78,0,0,0,271.49,332.4Z"/><path class="cls-4" d="M224.5,188.77c-.87,0-1.73,0-2.59,0l14,.77A79.19,79.19,0,0,0,224.5,188.77Z"/><path class="cls-4" d="M259.56,196.9h0a78.45,78.45,0,0,0-23.63-7.31h0l-14-.77h0A79.5,79.5,0,0,0,177.51,332.4a78,78,0,0,0,11.23,6.89q3.16,1.6,6.5,2.92a77.43,77.43,0,0,0,11.23,3.5,79.93,79.93,0,0,0,36.06,0,77.43,77.43,0,0,0,11.23-3.5q3.33-1.32,6.5-2.92a78,78,0,0,0,11.23-6.89,79.52,79.52,0,0,0-11.93-135.5Zm15.76,61.31c-2.19,2.19-11.66,8.1-13.85,5.91l-4.23-8a66.06,66.06,0,0,1,2.43,16.56c0,20.24-14.56,36.65-32.51,36.65s-32.51-16.41-32.51-36.65a66.06,66.06,0,0,1,2.43-16.56l-4.23,8c-2.19,2.19-11.66-3.72-13.85-5.91a5.63,5.63,0,0,1,0-7.94l22.75-17.41c.18-9.36,11.49-16.9,25.41-16.9s25.23,7.55,25.41,16.91l22.75,17.4A5.62,5.62,0,0,1,275.32,258.21Z"/><path class="cls-4" d="M205.15,229.54c0-.19,0-.19,0,0Z"/><path class="cls-4" d="M249.17,229.56c0-.17,0-.21,0-.1A.41.41,0,0,1,249.17,229.56Z"/><path class="cls-4" d="M259.67,272.7c0,20.24-14.56,36.65-32.51,36.65s-32.51-16.41-32.51-36.65a66.06,66.06,0,0,1,2.43-16.56l7.82-14.76c4.33,5.28,12.67,8.86,22.26,8.86s17.93-3.58,22.26-8.86l7.82,14.76A66.06,66.06,0,0,1,259.67,272.7Z"/><path class="cls-5" d="M259.67,272.7c0,20.24-14.56,36.65-32.51,36.65s-32.51-16.41-32.51-36.65a66.06,66.06,0,0,1,2.43-16.56l7.82-14.76c4.33,5.28,12.67,8.86,22.26,8.86s17.93-3.58,22.26-8.86l7.82,14.76A66.06,66.06,0,0,1,259.67,272.7Z"/><path class="cls-3" d="M249.18,229.46a.41.41,0,0,1,0,.1C249.13,229.39,249.18,229.35,249.18,229.46Z"/><path class="cls-3" d="M275.32,258.21c-2.19,2.19-11.66,8.1-13.85,5.91l-4.23-8-7.82-14.76a14.08,14.08,0,0,0,1.44-2.08,12.2,12.2,0,0,0,1.72-6.2,1.77,1.77,0,0,0,0-.23l22.75,17.4A5.62,5.62,0,0,1,275.32,258.21Z"/><path class="cls-3" d="M205.15,229.54c0-.19,0-.19,0,0Z"/><path class="cls-3" d="M204.9,241.38l-7.82,14.76-4.23,8c-2.19,2.19-11.66-3.72-13.85-5.91a5.63,5.63,0,0,1,0-7.94l22.75-17.41a1.93,1.93,0,0,0,0,.24,12.2,12.2,0,0,0,1.72,6.2A14.08,14.08,0,0,0,204.9,241.38Z"/><path class="cls-1" d="M252.57,232.87c-.18-9.36-11.48-16.91-25.41-16.91s-25.23,7.54-25.41,16.9a1.93,1.93,0,0,0,0,.24,12.2,12.2,0,0,0,1.72,6.2,14.08,14.08,0,0,0,1.44,2.08c4.33,5.28,12.67,8.86,22.26,8.86s17.93-3.58,22.26-8.86a14.08,14.08,0,0,0,1.44-2.08,12.2,12.2,0,0,0,1.72-6.2A1.77,1.77,0,0,0,252.57,232.87Zm-47.42-3.33c0-.19,0-.19,0,0Zm44,0c0-.17,0-.21,0-.1A.41.41,0,0,1,249.17,229.56Z"/><path class="cls-1" d="M205.15,229.54c0-.19,0-.19,0,0Z"/><path class="cls-1" d="M249.18,229.46a.41.41,0,0,1,0,.1C249.13,229.39,249.18,229.35,249.18,229.46Z"/><circle class="cls-3" cx="233.07" cy="263.84" r="4.14"/><circle class="cls-3" cx="221.25" cy="263.84" r="4.14"/><path class="cls-2" d="M335.5,27A24.5,24.5,0,1,0,360,51.5,24.53,24.53,0,0,0,335.5,27Zm0,43A18.5,18.5,0,1,1,354,51.5,18.52,18.52,0,0,1,335.5,70Z"/></g></g></svg>