<svg xmlns="http://www.w3.org/2000/svg" viewBox="0 0 1022.45 726.31"><defs><style>.cls-1{fill:#fff;}</style></defs><title>Asset 28</title><g id="Layer_2" data-name="Layer 2"><g id="Relation_Bulding_Little_graphics" data-name="Relation Bulding Little graphics"><path class="cls-1" d="M594.7,288.81a46.08,46.08,0,0,0-7.54-4.7c-.86-.43-1.75-.85-2.66-1.24q23.6,17.2,47.22,34.6Q613.18,303.11,594.7,288.81Z"/><path class="cls-1" d="M840.5,479.89l-12.77-9.95c.85-1.25,1.72-2.48,2.56-3.68l1.07-1.51c1.45-2.08,2.9-4.18,4.26-6.37a60.36,60.36,0,0,0,4.55-8.62C851.36,423.2,846.93,397.7,827,374q-29.43-35.12-58.73-70.28-17.5-21-35-41.92l-72.76-87.07c-21.76-26-52.37-36.78-79.89-28.16C539.34,159.5,498,172.92,460.94,185.06l-2.3-1.84c-2.18-1.75-4.27-3.45-6.32-5.11-4.15-3.37-8.1-6.57-12.12-9.71-29-22.62-64.81-18.48-87.16,10.09-55.74,71.27-102.23,131-146.3,187.84-23.09,29.81-18.65,64.26,11.32,87.77l.93.73,7.83,6.14c-3,2.5-6.15,4.94-9.4,7.49-5.65,4.42-11.49,9-17,14-22.11,20.2-24.64,52.85-5.89,76,16.75,20.66,45,26,68.49,14-1.7,14.84,1.32,32.18,18,47.12,15.45,13.88,39.26,25.06,70,8.69,0,17.65,5.26,34.1,23.58,46,23.5,15.28,44.27,10.27,59,2.13.2,12.71,3.72,23.18,13.06,32.83,10.86,11.23,23.87,17.11,37.75,17.11.76,0,1.53,0,2.3,0,16.31-.76,32.41-9.32,47-24.89l5.17,4a76.17,76.17,0,0,0,8.53,6,43.34,43.34,0,0,0,21.93,5.85c14.19,0,28.28-6.64,36.65-18.67,10.39-14.9,8.88-33.56-3.06-48,6.69,5.58,13.56,11.12,20.68,16.29,17.34,12.61,35.9,13.73,52.24,3.16,13.86-8.93,22.23-22.26,23-36.57.64-12.5-4.28-24.48-14-34.34l.65.48a128.86,128.86,0,0,0,34.75,18.44c19.48,6.68,39.9-1.15,53.29-20.41,8-11.52,14.2-29.92-2-52.17l-.38-.53q5.93,4.72,11.85,9.42c13.46,10.66,28.33,14.95,41.86,12.08,12.88-2.72,24-11.82,31.23-25.6C867.53,519.22,861.7,496.4,840.5,479.89ZM447.81,213c41.89-13.79,91.08-29.87,140.11-45.24,18.28-5.73,38.58,2.08,54.31,20.87L715,275.65q17.5,20.94,35,41.92,29.34,35.16,58.76,70.31c14.47,17.24,17.66,34.77,9.72,53.59v0a49.91,49.91,0,0,1-4.9,8.51c-.32.46-.63.94-1,1.41-.59-.41-1.16-.82-1.71-1.22q-26.68-19.79-53.34-39.59c-41.25-30.65-83.47-62-125.82-93.14q-23.61-17.37-47.22-34.6a68.87,68.87,0,0,0-12.26-4c-5.79-1.32-11.56-2.11-17.14-2.88a164.73,164.73,0,0,1-16.46-2.83c-9.8-2.38-16.8,0-22,3.49a39.22,39.22,0,0,0-4.74,3.72l-1,.88q-7.08,6.38-14.39,12.92c-15,13.42-30.61,27.19-46.22,40.49-12.62,10.76-26.31,16.66-40.08,17.7A61.41,61.41,0,0,1,378,345.9a81.94,81.94,0,0,1-18-12.21c-6.68-5.92-8.07-7.61-4.7-12.32.84-1.19,2-2.57,3.44-4.26l47.61-55.71ZM275.7,538.21c-2.38,1.78-4.53,3.42-6.53,4.95-4,3.07-7.51,5.72-11,8.15-15.88,11.11-35.93,8.66-47.67-5.84-12-14.74-10.38-34.82,3.77-47.74,5-4.52,10.24-8.66,15.84-13,4.22-3.31,8.57-6.72,12.79-10.32l.24.19c.53.44,1.07.88,1.6,1.29l23.42,18.34,32.38,25.33ZM439.2,646.68c-20.59,18.58-36.07,21.56-53.41,10.28-11.59-7.53-17.31-17.8-12.3-48l4.58-27.57-21.39,18c-24,20.23-43.13,21.7-61.95,4.8-14.13-12.69-15.18-28.65-3.52-53.37l13.31-28.22q47.57,37.23,95.14,74.44l50.6,39.65Zm46.54,59c-8.79.4-16.95-3.22-24.28-10.81-7-7.24-9.44-14.56-5.2-38.75l2.26-12.93,51,39.91q3.75,2.94,7.47,5.93C506.7,699.36,495.85,705.2,485.74,705.67ZM837.85,531.3h0c-3.07,5.85-8.57,13.21-17.25,15.05-7.54,1.59-16.11-1.2-24.8-8.07-25.83-20.48-51.94-41.53-77.19-61.88Q701,462.22,683.39,448.06L679.55,445c-7.65-6.16-15.31-12.32-23-18.4-4.15-3.3-10.42-8.31-18.55-7.33-3.37.39-8.31,2-12.71,7.6-4.75,6-5.22,11.57-4.77,15.19,1,7.92,6.78,13.23,11.06,16.53,32.74,25.33,71.53,55.41,111,86.45a64,64,0,0,1,12.24,12.63c7.68,10.57,8.2,19,1.73,28.3-3.86,5.55-14.47,17.9-29.69,12.69a107.78,107.78,0,0,1-29.1-15.46c-20.23-15.11-40.46-31-60-46.42q-13.26-10.44-26.57-20.85c-.39-.29-.77-.62-1.17-.94-2.67-2.21-6.71-5.55-12.18-5.88-4.64-.29-15.91-.08-20.46,7.92-3.9,6.83-2.61,16.57.58,22.25,2.68,4.76,6.91,7.7,10.3,10.07.9.62,1.79,1.23,2.62,1.88q12.32,9.64,24.67,19.21c16.77,13,34.11,26.48,50.92,40,8,6.41,12.16,14.26,11.76,22.11s-5.21,14.95-13.57,20.33c-5.79,3.74-15.08,7.56-28.94-2.52-10.21-7.42-20.18-15.89-29.83-24.07-4.33-3.68-8.67-7.36-13-11q-4.46-3.68-9-7.34c-4.08-3.35-8.17-6.69-12.23-10.06-2.23-1.85-9-7.48-17.47-6.62-3.47.35-8.54,1.95-13,7.58C535,606.45,533,618.39,545.78,629l15.61,12.94q10.71,8.87,21.43,17.73c9.71,8,12.16,18.7,6.23,27.21-6.61,9.5-21.22,12.69-31.25,6.82a60.82,60.82,0,0,1-6.31-4.54l-77.86-61Q352.19,533.06,230.78,437.88C210,421.57,207.09,399.54,223,379c44-56.86,90.51-116.52,146.23-187.76,8.78-11.22,19.69-16.91,31.18-16.91,8.92,0,18.18,3.43,27.07,10.37,3.37,2.62,6.68,5.3,10.12,8.09l.19.15c-.34.41-.68.82-1,1.21L390.76,248l-39,45.61-8.63,10.1c-4.77,5.57-7.86,10.77-9.26,15.78-2,6.94-.68,13.5,3.87,20.13a52.72,52.72,0,0,0,8.67,9.5q3.07,2.72,6.24,5.12a95,95,0,0,0,25.82,14.23c28.46,10.18,59,4.16,85.14-18.11,20.21-17.22,40.33-35.15,59.19-52.11l2.83-2.55c3.4-3.06,4.86-3.29,8.1-2.51a183.49,183.49,0,0,0,18.54,3.23c5.37.74,10.45,1.43,15.33,2.55l.77.18c39.65,28.91,79.5,58.33,118.83,87.49h0c40,31.09,80.87,62.93,123.72,96.33l16.87,13.15C841.26,506.61,844.64,518.44,837.85,531.3Z"/><path class="cls-1" d="M333.5,58.06c-16.38-13-34.94-27.68-53.48-41.61C248.38-7.32,207.8-2.08,183.53,28.92c-46,58.69-92.45,118.53-137.41,176.4L14.87,245.54C4.19,259.28-.66,273,.07,287.31c-.86,22.11,7.89,40.63,26,55.07,18.78,14.9,35.94,28.28,52.46,40.9,14.46,11,29.84,16.46,44.79,16.46,20.25,0,39.71-9.95,55-29.41,10.14-12.9,20.34-26.06,30.22-38.79q8.07-10.41,16.16-20.82,16.26-20.91,32.55-41.81C286,232,315.7,193.9,344.78,156.28,370,123.68,365.35,83.3,333.5,58.06Zm-5,85.61h0c-29.05,37.58-58.74,75.7-87.45,112.57l-32.55,41.82q-8.1,10.41-16.18,20.84c-9.85,12.7-20,25.83-30.14,38.68C142.6,382.47,116,386,91.07,366.9c-16.42-12.54-33.48-25.85-52.14-40.66-13.18-10.48-19-22.72-18.25-38.52l0-.55,0-.55c-.56-9.34,2.86-18.64,10.47-28.43L62.4,218c44.94-57.85,91.41-117.68,137.36-176.34,10.15-13,23.5-19.6,37.41-19.6,10.22,0,20.73,3.59,30.47,10.91C286,46.7,304.42,61.32,320.7,74.22,343.86,92.57,346.92,119.84,328.48,143.67Z"/><path class="cls-1" d="M679.85,60.31c15.85-13.61,33.81-29.06,51.77-43.72,30.66-25,71.42-21.41,96.91,8.59C876.82,82,925.67,139.91,972.91,195.93l32.84,38.93c11.22,13.3,16.62,26.76,16.46,41.14,1.75,22.06-6.25,40.92-23.8,56.07-18.16,15.64-34.77,29.7-50.77,43-14,11.61-29.16,17.65-44.1,18.25-20.23.81-40.07-8.35-56.14-27.18-10.65-12.48-21.37-25.22-31.75-37.55q-8.49-10.08-17-20.15-17.08-20.25-34.2-40.47c-30.17-35.7-61.37-72.61-91.94-109C646,127.35,649,86.81,679.85,60.31Zm8.46,85.34h0c30.53,36.39,61.73,73.29,91.89,109l34.2,40.48q8.52,10.08,17,20.18c10.35,12.29,21.06,25,31.66,37.44,20.54,24.07,47.23,26.48,71.4,6.45C950.38,346,966.9,332,985,316.46c12.75-11,18-23.46,16.69-39.22l-.06-.55,0-.55c.19-9.36-3.6-18.51-11.6-28l-32.85-38.94c-47.22-56-96.06-113.92-144.32-170.69C802.17,26,788.56,19.88,774.66,20.44c-10.21.41-20.57,4.42-30,12.12C726.9,47.06,709,62.4,693.29,76,670.89,95.21,668.92,122.58,688.31,145.65Z"/></g></g></svg>