<svg xmlns="http://www.w3.org/2000/svg" viewBox="0 0 1412.93 969"><defs><style>.cls-1{fill:#fff;}</style></defs><title>Asset 29</title><g id="Layer_2" data-name="Layer 2"><g id="Relation_Bulding_Little_graphics" data-name="Relation Bulding Little graphics"><path class="cls-1" d="M497.32,813.86c-32.47,0-64.26-10.26-94.56-30.53-27.48-18.37-53.17-44.57-76.37-77.85-41.1-59-71.16-136-80.41-206.21-2.46-18.72-7.06-53.56-2.47-95.71,5.66-52,23.63-98.08,53.4-136.94,24.26-31.68,92-105.21,197.17-103.83,50.36.67,124.44,19.32,191.35,104.37,71.68,91.1,60.24,196.78,56.48,231.5l0,.32c-7.44,68.74-35,144.73-73.59,203.27-21.85,33.11-46.34,59.44-72.8,78.28-30.09,21.43-62.06,32.63-95,33.3Zm-6.16-626.09c-92.34,0-152.64,65.63-174.41,94C253.43,364.49,266,460,270.77,496c8.62,65.4,37.79,140.19,76.13,195.18,31.18,44.74,82.45,97.68,150.39,97.68l2.66,0C568,787.45,617.7,733.5,647.42,688.48,684,633.1,710,561.26,717,496.29l0-.32c3.49-32.22,14.1-130.26-51.27-213.35-60.81-77.3-127.12-94.23-172-94.83Z"/><path class="cls-1" d="M12.51,969a12.5,12.5,0,0,1-7.07-22.81,866.53,866.53,0,0,1,347-140,12.5,12.5,0,0,1,4.13,24.65,841.77,841.77,0,0,0-337,136A12.45,12.45,0,0,1,12.51,969Z"/><path class="cls-1" d="M973.94,969a12.44,12.44,0,0,1-7.05-2.19,841.89,841.89,0,0,0-337-136A12.5,12.5,0,1,1,634,806.18a866.68,866.68,0,0,1,347,140A12.5,12.5,0,0,1,973.94,969Z"/><path class="cls-1" d="M1375.6,198H896.73a10,10,0,0,1,0-20H1375.6a17.35,17.35,0,0,0,17.33-17.34V37.33A17.34,17.34,0,0,0,1375.6,20H752.26a17.35,17.35,0,0,0-17.33,17.33V160.66A17.36,17.36,0,0,0,752.26,178H790a10,10,0,0,1,0,20H752.26a37.38,37.38,0,0,1-37.33-37.34V37.33A37.38,37.38,0,0,1,752.26,0H1375.6a37.37,37.37,0,0,1,37.33,37.33V160.66A37.37,37.37,0,0,1,1375.6,198Z"/><path class="cls-1" d="M773.26,281.44a10,10,0,0,1-9.8-12L780.2,186A10,10,0,0,1,799.81,190L787.86,249.5l103.27-69.79a10,10,0,1,1,11.2,16.58L778.86,279.73A10,10,0,0,1,773.26,281.44Z"/><path class="cls-1" d="M1304.93,79.83h-511a10,10,0,0,1,0-20h511a10,10,0,0,1,0,20Z"/><path class="cls-1" d="M1071.93,114.33h-278a10,10,0,0,1,0-20h278a10,10,0,0,1,0,20Z"/></g></g></svg>