<svg xmlns="http://www.w3.org/2000/svg" viewBox="0 0 807.12 957.86"><defs><style>.cls-1{fill:#fff;}</style></defs><title>Asset 29 (2)</title><g id="Layer_2" data-name="Layer 2"><g id="Relation_Bulding_Little_graphics" data-name="Relation Bulding Little graphics"><path class="cls-1" d="M492.5,957.86H18.65A18.66,18.66,0,0,1,0,939.22V860.36a18.66,18.66,0,0,1,18.65-18.64H492.5a18.67,18.67,0,0,1,18.65,18.64v78.86A18.67,18.67,0,0,1,492.5,957.86ZM18.65,858.31a2.05,2.05,0,0,0-2.06,2.05v78.86a2.05,2.05,0,0,0,2.06,2H492.5a2.05,2.05,0,0,0,2.05-2V860.36a2.05,2.05,0,0,0-2.05-2.05Z"/><path class="cls-1" d="M441.8,858.3a8.29,8.29,0,0,1-8.3-8.28C433.39,752.24,353.76,672.7,256,672.7S78.57,752.24,78.46,850a8.29,8.29,0,0,1-8.29,8.28h0a8.3,8.3,0,0,1-8.29-8.3,194.11,194.11,0,0,1,388.22,0,8.28,8.28,0,0,1-8.28,8.3Z"/><path class="cls-1" d="M187.23,685.83a8.32,8.32,0,0,1-8-6.3L75.25,259.64a8.3,8.3,0,0,1,16.11-4L195.29,675.54a8.3,8.3,0,0,1-6.06,10.05A8.61,8.61,0,0,1,187.23,685.83Z"/><path class="cls-1" d="M267.48,673.05a8.3,8.3,0,0,1-8.05-6.31L155,244.78a8.3,8.3,0,0,1,16.11-4l104.44,422a8.28,8.28,0,0,1-6,10A8.12,8.12,0,0,1,267.48,673.05Z"/><path class="cls-1" d="M183.79,186.11a8.3,8.3,0,0,1-4.85-15l81-58.3a8.3,8.3,0,1,1,9.45,13.64l-80.75,58.12A8.22,8.22,0,0,1,183.79,186.11Z"/><path class="cls-1" d="M130.56,128.57a8.3,8.3,0,0,1-4.86-15l95.37-68.63a8.29,8.29,0,1,1,9.69,13.46L135.4,127A8.32,8.32,0,0,1,130.56,128.57Z"/><path class="cls-1" d="M595.12,236.18a8.21,8.21,0,0,1-3-.58L306,122.27a8.29,8.29,0,1,1,6.11-15.42L598.18,220.17a8.3,8.3,0,0,1-3.06,16Z"/><path class="cls-1" d="M625.49,161.13a8.22,8.22,0,0,1-3-.59L326.64,43.36a8.29,8.29,0,1,1,6.11-15.42l295.8,117.18a8.3,8.3,0,0,1-3.06,16Z"/><path class="cls-1" d="M281.11,130.2a65.1,65.1,0,1,1,65.1-65.1A65.18,65.18,0,0,1,281.11,130.2Zm0-113.61A48.51,48.51,0,1,0,329.62,65.1,48.56,48.56,0,0,0,281.11,16.59Z"/><path class="cls-1" d="M112.1,271.87a81.13,81.13,0,1,1,81.13-81.13A81.22,81.22,0,0,1,112.1,271.87Zm0-145.66a64.53,64.53,0,1,0,64.53,64.53A64.61,64.61,0,0,0,112.1,126.21Z"/><path class="cls-1" d="M697,335.57A110.15,110.15,0,0,1,586.84,228.12c0-1,0-2,0-2.71a109.39,109.39,0,0,1,32.72-78.35l.41-.39a110.15,110.15,0,0,1,187.19,78.74c0,1.12,0,2.28,0,3.54a8.3,8.3,0,0,1-8.29,8.05h-.26a8.29,8.29,0,0,1-8-8.54c0-1.09,0-2.09,0-3a93.56,93.56,0,0,0-159.21-66.67l-.2.18a92.93,92.93,0,0,0-27.73,66.49c0,.74,0,1.48,0,2.21v.07C604.62,278,646.58,319,697,319a92.71,92.71,0,0,0,67.78-29.07,8.3,8.3,0,1,1,12,11.44A109.16,109.16,0,0,1,697,335.57Z"/><path class="cls-1" d="M697,297a71.57,71.57,0,1,1,70-86.55,8.29,8.29,0,1,1-16.22,3.45A55,55,0,1,0,726.21,272a8.3,8.3,0,0,1,8.84,14A71.44,71.44,0,0,1,697,297Z"/><path class="cls-1" d="M770.75,303.93a8.32,8.32,0,0,1-3.18-.64l-40.12-16.62a8.3,8.3,0,1,1,6.35-15.33L773.92,288a8.3,8.3,0,0,1-3.17,16Z"/><path class="cls-1" d="M798.77,237a8.26,8.26,0,0,1-3.17-.63l-39.92-16.54A8.29,8.29,0,0,1,762,204.5L802,221a8.3,8.3,0,0,1-3.18,16Z"/></g></g></svg>