<svg xmlns="http://www.w3.org/2000/svg" viewBox="0 0 557.63 963"><defs><style>.cls-1{fill:#fff;}</style></defs><title>Asset 30</title><g id="Layer_2" data-name="Layer 2"><g id="Relation_Bulding_Little_graphics" data-name="Relation Bulding Little graphics"><path class="cls-1" d="M486.21,963H71.42A71.5,71.5,0,0,1,0,891.58V71.42A71.5,71.5,0,0,1,71.42,0H486.21a71.5,71.5,0,0,1,71.42,71.42V891.58A71.5,71.5,0,0,1,486.21,963ZM71.42,25A46.47,46.47,0,0,0,25,71.42V891.58A46.47,46.47,0,0,0,71.42,938H486.21a46.47,46.47,0,0,0,46.42-46.42V71.42A46.47,46.47,0,0,0,486.21,25Z"/><circle class="cls-1" cx="287" cy="869.5" r="34.5"/><circle class="cls-1" cx="154.5" cy="147.09" r="26.16"/><path class="cls-1" d="M196.23,218.41c-7.33,18.89-76.13,18.89-83.46,0-4.79-12.34,13.14-41.73,41.73-41.73S201,206.07,196.23,218.41Z"/><circle class="cls-1" cx="154.5" cy="362.59" r="26.16"/><path class="cls-1" d="M196.23,433.91c-7.33,18.89-76.13,18.89-83.46,0-4.79-12.34,13.14-41.73,41.73-41.73S201,421.57,196.23,433.91Z"/><circle class="cls-1" cx="154.5" cy="577.09" r="26.16"/><path class="cls-1" d="M196.23,648.41c-7.33,18.89-76.13,18.89-83.46,0-4.79-12.34,13.14-41.73,41.73-41.73S201,636.07,196.23,648.41Z"/><path class="cls-1" d="M450.5,175h-209a12.5,12.5,0,0,1,0-25h209a12.5,12.5,0,0,1,0,25Z"/><path class="cls-1" d="M450.5,400h-209a12.5,12.5,0,0,1,0-25h209a12.5,12.5,0,0,1,0,25Z"/><path class="cls-1" d="M450.5,615h-209a12.5,12.5,0,0,1,0-25h209a12.5,12.5,0,0,1,0,25Z"/></g></g></svg>