<svg xmlns="http://www.w3.org/2000/svg" viewBox="0 0 85.77 133.26"><defs><style>.cls-1{fill:#2980b9;}</style></defs><title>balloon-peteriver</title><g id="Layer_2" data-name="Layer 2"><g id="Layer_1-2" data-name="Layer 1"><path class="cls-1" d="M52.83,1.16a36,36,0,0,1,8.51,5.67,43.86,43.86,0,0,1,9.49,12.85C75,28.42,75.12,36.2,75.19,42.07c0,.29,0,.57,0,.86s0,.63,0,.93,0,.59,0,.89v.13c0,.26,0,.52,0,.78s0,.59,0,.88c-.06,1.15-.15,2.26-.26,3.3-.08.72-.17,1.41-.26,2.08,0,.31-.08.6-.13.9l-.15.91c-.3,1.79-.64,3.34-1,4.62s-.62,2.3-.84,3c-.84,2.62-2.74,8.62-6,12.14-.23.26-1.84,2-4,4.36-1.5,1.67-2.25,2.49-2.59,3S59,82,58.43,82.87a19,19,0,0,0-2.22,4.95,18.74,18.74,0,0,0-.7,5.42H52a25.5,25.5,0,0,1,1.55-8.8C54,83.15,54.51,82,55,81A19.66,19.66,0,0,1,57,77.32c.84-1.13,1.31-1.45,2.18-2.65a19.22,19.22,0,0,0,1.89-3.36,68.22,68.22,0,0,0,3.36-9.07c.32-1.11.46-1.77.46-1.77A75.62,75.62,0,0,0,66.59,40a68.32,68.32,0,0,0-3.13-18.92C62.13,17,60.53,12.18,56.68,7.72a24.06,24.06,0,0,0-7.07-6.2C48.79,1.08,47.75.59,47,.2,46.34.13,45.71.09,45.07.06a18.94,18.94,0,0,1,3.07,2.88c2.71,3.18,3.76,6.56,5,12.91A125.79,125.79,0,0,1,55.75,42c0,5.12-.42,9.68-.72,13.5-.18,2.34-.44,5.09-.94,8.48-.17,1.17-.34,2.19-.5,3.07-.47,2.53-.85,3.95-1,4.6a52.91,52.91,0,0,1-1.82,5.3c-.48,1.14-.58,1.28-.89,2a24.17,24.17,0,0,0-1.61,6.5c-.06.48-.11.93-.16,1.37A35.54,35.54,0,0,0,48,93.44l-2.56-.09a53.31,53.31,0,0,1,.06-7.65,45.77,45.77,0,0,1,1.08-6.93C47,77,47.36,76,47.82,73.64c.31-1.59.52-3,.67-4.4.32-2.8.35-5.08.39-6.83.24-13.66.38-9.58.43-19.63.06-9.57-.09-13.25-.17-15.21,0-.91-.26-3.94-.71-10,0,0-.69-9.48-2.83-14.77A10.58,10.58,0,0,0,44,0c-.36,0-.72,0-1.08,0s-.73,0-1.09,0a10.58,10.58,0,0,0-1.63,2.8C38,8.11,37.34,17.59,37.34,17.59c-.45,6-.67,9.07-.71,10-.08,2-.22,5.64-.17,15.21,0,10,.19,6,.44,19.63,0,1.75.07,4,.38,6.83.15,1.35.37,2.81.68,4.4.46,2.36.82,3.39,1.24,5.13a45.77,45.77,0,0,1,1.08,6.93,54.68,54.68,0,0,1,.07,7.65l-2.57.09a35.54,35.54,0,0,0-.09-6.63c0-.44-.09-.89-.16-1.37a24.17,24.17,0,0,0-1.61-6.5c-.31-.75-.41-.89-.88-2a52.14,52.14,0,0,1-1.83-5.3c-.18-.65-.56-2.07-1-4.6-.17-.88-.34-1.9-.51-3.07-.5-3.39-.76-6.14-.94-8.48-.3-3.82-.67-8.38-.71-13.5a125.21,125.21,0,0,1,2.65-26.11c1.2-6.35,2.24-9.73,5-12.91A19.36,19.36,0,0,1,40.7.06c-.64,0-1.27.07-1.92.14C38,.59,37,1.08,36.16,1.52a24.06,24.06,0,0,0-7.07,6.2c-3.85,4.46-5.45,9.25-6.78,13.37A68.32,68.32,0,0,0,19.18,40a75.62,75.62,0,0,0,1.66,20.46s.14.66.46,1.77a68.22,68.22,0,0,0,3.36,9.07,20,20,0,0,0,1.89,3.36c.87,1.2,1.34,1.52,2.18,2.65A19.66,19.66,0,0,1,30.8,81c.46,1,1,2.12,1.45,3.41a25.53,25.53,0,0,1,1.14,4.2,25.75,25.75,0,0,1,.41,4.6H30.26a18.74,18.74,0,0,0-.7-5.42,18.34,18.34,0,0,0-2.22-4.95c-.52-.84-1-1.53-1.44-2.07s-1.09-1.28-2.59-3c-2.16-2.4-3.77-4.1-4-4.36C16,70,14.12,64,13.29,61.35c-.23-.7-.52-1.71-.85-3a62.81,62.81,0,0,1-1.87-15.42c0-.29,0-.57,0-.86.07-5.87.18-13.65,4.36-22.39A44.06,44.06,0,0,1,24.43,6.83,36.14,36.14,0,0,1,33,1.16,42.9,42.9,0,0,0,0,42.89a41.53,41.53,0,0,0,.43,6A42.91,42.91,0,0,0,18.56,78.21a34.18,34.18,0,0,1,4.64,6.42A24,24,0,0,1,26.5,94a27,27,0,0,1,.13,2.76,21.77,21.77,0,0,1-.45,3.93h-.52L30,114.88h0V120h.55l2.24,13.26h20L55.15,120h.55v-5.12h0l4.37-14.24h-.52a21,21,0,0,1-.44-3.93A22.28,22.28,0,0,1,59.28,94a23.71,23.71,0,0,1,3.3-9.32,33.73,33.73,0,0,1,4.63-6.42,42.9,42.9,0,0,0-14.38-77Zm-5,100.3h4.86l-.08.71c-.41,4-.84,7.93-1.26,11.89H47.38Zm-4.48,0H47l-.4,12.6H43.3Zm-.82,0v12.6H39.22l-.41-12.6Zm-4.49,0,.4,12.6H34.47q-.67-6.3-1.34-12.6Zm-11.21,0H32.3c.45,4.21.9,8.4,1.34,12.6h-3Zm25.43,31H33.56l-2-12H54.25Zm2.92-18.37h-3l1.26-11.81.08-.79H59Z"/><path class="cls-1" d="M46.55,114.06h0l.4-12.6Z"/></g></g></svg>