<svg xmlns="http://www.w3.org/2000/svg" viewBox="0 0 104.27 162"><defs><style>.cls-1{fill:#2c3e50;}</style></defs><title>balloon-midnight-blue</title><g id="Layer_2" data-name="Layer 2"><g id="Layer_1-2" data-name="Layer 1"><path class="cls-1" d="M64.22,1.41A44,44,0,0,1,74.57,8.3,53.44,53.44,0,0,1,86.11,23.92c5.08,10.63,5.21,20.09,5.3,27.23,0,.35,0,.69,0,1s0,.76,0,1.13,0,.72,0,1.08v.16c0,.32,0,.63,0,.95s0,.72,0,1.07c-.07,1.4-.18,2.74-.32,4-.09.87-.2,1.72-.31,2.53,0,.37-.1.73-.16,1.09s-.12.75-.18,1.11c-.37,2.18-.78,4.06-1.18,5.62s-.76,2.79-1,3.64c-1,3.19-3.32,10.48-7.32,14.76-.29.32-2.24,2.39-4.87,5.3-1.82,2-2.73,3-3.15,3.59s-1.11,1.49-1.75,2.51a22.87,22.87,0,0,0-3.55,12.61h-4.3a31.61,31.61,0,0,1,.5-5.59,30.44,30.44,0,0,1,1.39-5.11c.58-1.57,1.2-2.92,1.76-4.14A23.63,23.63,0,0,1,69.34,94c1-1.38,1.6-1.76,2.65-3.22a23.59,23.59,0,0,0,2.3-4.09,82.73,82.73,0,0,0,4.08-11c.39-1.36.57-2.16.57-2.16a92.27,92.27,0,0,0,2-24.87,83,83,0,0,0-3.8-23c-1.62-5-3.56-10.83-8.24-16.26C66.63,6.73,64.27,4,60.31,1.85c-1-.54-2.26-1.13-3.19-1.61C56.34.16,55.57.11,54.79.07a23.13,23.13,0,0,1,3.73,3.5c3.3,3.87,4.57,8,6,15.7A152.68,152.68,0,0,1,67.77,51c-.06,6.23-.5,11.77-.87,16.41-.22,2.85-.53,6.19-1.14,10.31-.21,1.42-.42,2.66-.61,3.73-.57,3.08-1,4.81-1.25,5.59a64.61,64.61,0,0,1-2.22,6.45C61.1,94.89,61,95.05,60.6,96a29.56,29.56,0,0,0-2,7.9c-.07.58-.13,1.13-.19,1.66a43.37,43.37,0,0,0-.11,8.07l-3.11-.11a64.65,64.65,0,0,1,.07-9.31,54.82,54.82,0,0,1,1.32-8.42c.51-2.12,1-3.37,1.51-6.24.38-1.93.64-3.71.82-5.34a82.23,82.23,0,0,0,.47-8.31c.29-16.61.47-11.65.53-23.86.07-11.64-.11-16.11-.21-18.49-.05-1.11-.32-4.79-.86-12.14,0,0-.84-11.52-3.44-17.95a13,13,0,0,0-2-3.41c-.44,0-.88,0-1.32,0s-.89,0-1.33,0a13,13,0,0,0-2,3.41c-2.59,6.43-3.44,18-3.44,18-.54,7.35-.81,11-.86,12.14-.1,2.38-.27,6.85-.21,18.49.06,12.21.24,7.25.54,23.86a81.76,81.76,0,0,0,.46,8.31c.18,1.63.45,3.41.83,5.34.56,2.87,1,4.12,1.5,6.24A54.82,54.82,0,0,1,49,104.18a66,66,0,0,1,.08,9.31l-3.12.11a43.37,43.37,0,0,0-.11-8.07c0-.53-.11-1.08-.19-1.66a29.56,29.56,0,0,0-2-7.9c-.38-.92-.5-1.08-1.07-2.47a63.84,63.84,0,0,1-2.23-6.45c-.22-.78-.68-2.51-1.24-5.59-.2-1.07-.41-2.31-.62-3.73-.61-4.12-.92-7.46-1.14-10.31C37,62.78,36.56,57.24,36.51,51a152.1,152.1,0,0,1,3.22-31.74c1.46-7.72,2.72-11.83,6-15.7A23.56,23.56,0,0,1,49.48.07c-.78,0-1.55.09-2.33.17C46.22.72,45,1.31,44,1.85,40,4,37.64,6.73,35.36,9.38c-4.68,5.43-6.62,11.25-8.24,16.26a83,83,0,0,0-3.8,23,92.27,92.27,0,0,0,2,24.87s.18.8.57,2.16a82.73,82.73,0,0,0,4.08,11,24.33,24.33,0,0,0,2.3,4.09c1.06,1.46,1.63,1.84,2.65,3.22a23.1,23.1,0,0,1,2.51,4.51c.56,1.22,1.19,2.57,1.76,4.14a30.44,30.44,0,0,1,1.39,5.11,31.61,31.61,0,0,1,.5,5.59h-4.3a22.89,22.89,0,0,0-.86-6.59,22.46,22.46,0,0,0-2.69-6c-.64-1-1.26-1.86-1.75-2.51s-1.33-1.56-3.15-3.59c-2.63-2.91-4.58-5-4.87-5.3-4-4.28-6.3-11.57-7.31-14.76-.28-.85-.64-2.08-1-3.64a76.82,76.82,0,0,1-2.27-18.75c0-.35,0-.69,0-1,.09-7.14.22-16.6,5.3-27.23A53.65,53.65,0,0,1,29.7,8.3,44.2,44.2,0,0,1,40.06,1.41,52.16,52.16,0,0,0,0,52.14,51,51,0,0,0,.52,59.5a51.9,51.9,0,0,0,13,27.68,52.76,52.76,0,0,0,9,7.9,41.1,41.1,0,0,1,5.64,7.8,29.08,29.08,0,0,1,4,11.33,28.31,28.31,0,0,1,.16,3.36,25.61,25.61,0,0,1-.54,4.78H31.2l5.31,17.31h.05v6.22h.66L40,162H64.32l2.73-16.12h.67v-6.22h0l5.31-17.31h-.63a25.7,25.7,0,0,1-.53-4.78,24.63,24.63,0,0,1,.16-3.36,28.76,28.76,0,0,1,4-11.33,40.65,40.65,0,0,1,5.63-7.8,52.76,52.76,0,0,0,9-7.9A52.15,52.15,0,0,0,64.22,1.41ZM58.09,123.35H64l-.09.86c-.5,4.81-1,9.64-1.53,14.45H57.6Zm-5.45,0h4.45l-.49,15.31h-4Zm-1,0v15.31h-4l-.5-15.31Zm-5.46,0,.49,15.31H41.9l-1.62-15.31Zm-13.62,0h6.71c.54,5.11,1.09,10.2,1.63,15.31H37.25ZM63.47,161H40.8l-2.48-14.62H66ZM67,138.66H63.37l1.53-14.35.1-1h6.71Z"/><path class="cls-1" d="M56.59,138.66h0l.49-15.31Z"/></g></g></svg>