<svg xmlns="http://www.w3.org/2000/svg" viewBox="0 0 697 117.45"><defs><style>.cls-1{fill:#2980b9;}.cls-2{fill:#3498db;}.cls-3{fill:#2c3e50;}</style></defs><title>smart-city-metro</title><g id="Layer_2" data-name="Layer 2"><g id="Layer_1-2" data-name="Layer 1"><path class="cls-1" d="M379,16.66V25H191.52c-8.33,0-5.8-3,0-8.34Z"/><path class="cls-1" d="M191.52,16.66H379V0H199.85a27.61,27.61,0,0,0-11.06,4.17h27.73v8.32H181.64q-3.85,8-2.62,20.84h8.29a4.11,4.11,0,0,0-4.12,4.12v.09a4.11,4.11,0,0,0,4.12,4.12h33.42a4.12,4.12,0,0,0,4.12-4.12V33.33h66.66v4.21a4.11,4.11,0,0,0,4.12,4.12h75.08a4.11,4.11,0,0,0,4.12-4.12v-.09a4.11,4.11,0,0,0-4.12-4.12H379V25H191.52C183.19,25,185.72,22,191.52,16.66ZM358.17,4.16h8.33V12.5h-8.33Zm-62.5,0H354V12.5H295.67ZM229,4.16h58.33V12.5H229Z"/><path class="cls-2" d="M379,16.66V25H191.52c-8.33,0-5.8-3,0-8.34Z"/><path class="cls-1" d="M569.2,25H381.72V16.66H569.2C575,22,577.53,25,569.2,25Z"/><path class="cls-1" d="M579.08,12.49H544.2V4.17h27.73A27.61,27.61,0,0,0,560.87,0H381.72V16.66H569.2C575,22,577.53,25,569.2,25H381.72v8.33H390a4.11,4.11,0,0,0-4.12,4.12v.09A4.11,4.11,0,0,0,390,41.66h75.08a4.11,4.11,0,0,0,4.12-4.12V33.33h66.66v4.21A4.12,4.12,0,0,0,540,41.66h33.42a4.11,4.11,0,0,0,4.12-4.12v-.09a4.11,4.11,0,0,0-4.12-4.12h8.29Q582.93,20.48,579.08,12.49Zm-176.53,0h-8.33V4.16h8.33Zm62.5,0H406.72V4.16h58.33Zm66.66,0H473.38V4.16h58.33Z"/><path class="cls-2" d="M569.2,25H381.72V16.66H569.2C575,22,577.53,25,569.2,25Z"/><path class="cls-3" d="M688,99.45H651.5v-48H666a5,5,0,0,0,0-10H53a5,5,0,0,0,0,10H63v48H9a9,9,0,0,0,0,18H688a9,9,0,0,0,0-18Zm-584,0H73v-48h31Zm40.5,0H114v-48h30.5Zm42.5,0H154.5v-48H187Zm40.5,0H197v-48h30.5Zm42.5,0H237.5v-48H270Zm40.5,0H280v-48h30.5Zm41.5,0H320.5v-48H352Zm40.5,0H362v-48h30.5Zm42.5,0H402.5v-48H435Zm40.5,0H445v-48h30.5Zm42.5,0H485.5v-48H518Zm40.5,0H528v-48h30.5Zm42.5,0H568.5v-48H601Zm40.5,0H611v-48h30.5Z"/></g></g></svg>