<svg xmlns="http://www.w3.org/2000/svg" viewBox="0 0 1036.51 470.18"><defs><style>.cls-1{fill:#2c3e50;}.cls-2{fill:#2980b9;}</style></defs><title>smart-city-left_1</title><g id="Layer_2" data-name="Layer 2"><g id="Layer_1-2" data-name="Layer 1"><path class="cls-1" d="M253.8,353.55l-.16,116.63L0,469.83.18,340.74l43,29.5,0-29.44,54.31,29.52,0-29.44L156.4,370.4l0-29.44,61.1,29.52,0-17a3.55,3.55,0,0,1,.16-1.13A4.51,4.51,0,0,1,222.1,349l27.18,0a4.52,4.52,0,0,1,4.36,3.41A3.59,3.59,0,0,1,253.8,353.55Z"/><path class="cls-1" d="M253.8,353.55a3.59,3.59,0,0,0-.16-1.13"/><rect class="cls-1" x="225.54" y="298.04" width="20.38" height="36.23" rx="2" transform="translate(-80.75 551.45) rotate(-89.92)"/><rect class="cls-1" x="225.6" y="259.54" width="20.38" height="36.23" rx="2" transform="translate(-42.2 513.06) rotate(-89.92)"/><rect class="cls-1" x="225.65" y="218.78" width="20.38" height="36.23" rx="2" transform="translate(-1.38 472.41) rotate(-89.92)"/><rect class="cls-1" x="225.71" y="178.02" width="20.38" height="36.23" rx="2" transform="translate(39.44 431.76) rotate(-89.92)"/><path class="cls-2" d="M216.69,171.2a11.33,11.33,0,0,1-22.43,2.21.78.78,0,0,1-.22,0h0a19.25,19.25,0,0,1-38.32,1.21,24.14,24.14,0,0,1-7,1,24.84,24.84,0,0,1-14.55-4.71,24.9,24.9,0,1,1-8.2-30.26,24.91,24.91,0,0,1,47.7,10.09c0,.77-.05,1.54-.12,2.31.41,0,.84,0,1.25,0a18.87,18.87,0,0,1,3.94.41,15.85,15.85,0,0,1,31.15,4.17,16.41,16.41,0,0,1-.3,3.08A11.35,11.35,0,0,1,216.69,171.2Z"/><path class="cls-1" d="M460.42,333.29a16.53,16.53,0,0,0-16.53-16.5l-17.47,0-.12-187.38a16.52,16.52,0,0,0-16.53-16.5H402.3l-.07-96.43A16.52,16.52,0,0,0,385.71,0L339.77,0a16.53,16.53,0,0,0-16.5,16.52l.07,96.43h-7.48a16.53,16.53,0,0,0-16.5,16.52l.13,187.38H282a16.52,16.52,0,0,0-16.5,16.53l.09,133.89a16.16,16.16,0,0,0,.21,2.62H460.27a15.65,15.65,0,0,0,.24-2.76Zm-174.9,11.34a3.73,3.73,0,0,1,3.73-3.74h7.52a3.75,3.75,0,0,1,3.74,3.74v9.51a3.73,3.73,0,0,1-3.73,3.74h-7.52a3.75,3.75,0,0,1-3.74-3.74Zm0,32a3.74,3.74,0,0,1,3.73-3.74h7.52a3.73,3.73,0,0,1,3.74,3.73v9.52a3.75,3.75,0,0,1-3.74,3.74h-7.52a3.75,3.75,0,0,1-3.74-3.73Zm0,32a3.76,3.76,0,0,1,3.74-3.74h7.51a3.75,3.75,0,0,1,3.74,3.73v9.52a3.75,3.75,0,0,1-3.74,3.74h-7.51a3.73,3.73,0,0,1-3.74-3.73Zm11.28,45.23h-7.51a3.75,3.75,0,0,1-3.74-3.74v-9.51a3.75,3.75,0,0,1,3.74-3.74h7.51a3.75,3.75,0,0,1,3.74,3.74v9.51A3.75,3.75,0,0,1,296.84,453.82Zm16.53-301.11a3.75,3.75,0,0,1,3.74-3.74h7.51a3.75,3.75,0,0,1,3.74,3.74v9.51a3.76,3.76,0,0,1-3.74,3.75h-7.51a3.75,3.75,0,0,1-3.74-3.74Zm0,32a3.75,3.75,0,0,1,3.74-3.74h7.51a3.74,3.74,0,0,1,3.74,3.73v9.52a3.75,3.75,0,0,1-3.73,3.74h-7.52a3.74,3.74,0,0,1-3.74-3.73Zm0,32a3.75,3.75,0,0,1,3.74-3.74h7.52a3.76,3.76,0,0,1,3.74,3.74v9.51a3.74,3.74,0,0,1-3.73,3.74h-7.52a3.75,3.75,0,0,1-3.74-3.74Zm0,32a3.73,3.73,0,0,1,3.73-3.74h7.52a3.75,3.75,0,0,1,3.74,3.74v9.51a3.73,3.73,0,0,1-3.73,3.74h-7.52a3.75,3.75,0,0,1-3.74-3.74Zm0,32a3.74,3.74,0,0,1,3.73-3.74h7.52a3.74,3.74,0,0,1,3.74,3.73v9.52a3.75,3.75,0,0,1-3.74,3.74H317.2a3.75,3.75,0,0,1-3.74-3.73Zm0,32a3.75,3.75,0,0,1,3.74-3.74h7.51a3.75,3.75,0,0,1,3.74,3.74v9.51a3.75,3.75,0,0,1-3.74,3.74h-7.51a3.75,3.75,0,0,1-3.74-3.74Zm0,32a3.75,3.75,0,0,1,3.74-3.74h7.51a3.75,3.75,0,0,1,3.74,3.74v9.51a3.75,3.75,0,0,1-3.74,3.74h-7.51a3.75,3.75,0,0,1-3.74-3.74Zm0,32a3.75,3.75,0,0,1,3.74-3.74h7.51a3.75,3.75,0,0,1,3.75,3.73v9.52a3.74,3.74,0,0,1-3.73,3.74h-7.52a3.74,3.74,0,0,1-3.74-3.73Zm0,32a3.76,3.76,0,0,1,3.74-3.75h7.52a3.75,3.75,0,0,1,3.74,3.74v9.51a3.74,3.74,0,0,1-3.73,3.74h-7.52a3.75,3.75,0,0,1-3.74-3.74Zm11.29,45.22h-7.52a3.75,3.75,0,0,1-3.74-3.74v-9.51a3.74,3.74,0,0,1,3.73-3.74h7.52a3.75,3.75,0,0,1,3.74,3.74v9.51A3.75,3.75,0,0,1,324.83,453.8Zm16.44-429A3.75,3.75,0,0,1,345,21h7.52a3.75,3.75,0,0,1,3.74,3.74v9.51A3.75,3.75,0,0,1,352.53,38H345a3.75,3.75,0,0,1-3.74-3.74Zm0,32A3.75,3.75,0,0,1,345,53h7.51a3.73,3.73,0,0,1,3.74,3.73v9.52A3.75,3.75,0,0,1,352.55,70H345a3.74,3.74,0,0,1-3.74-3.73Zm0,32A3.76,3.76,0,0,1,345.05,85h7.51a3.75,3.75,0,0,1,3.74,3.73v9.52a3.75,3.75,0,0,1-3.73,3.74h-7.52a3.73,3.73,0,0,1-3.74-3.73Zm0,32a3.75,3.75,0,0,1,3.74-3.74h7.52a3.76,3.76,0,0,1,3.74,3.74v9.51A3.74,3.74,0,0,1,352.6,134h-7.52a3.75,3.75,0,0,1-3.74-3.74Zm0,32a3.73,3.73,0,0,1,3.73-3.74h7.52a3.73,3.73,0,0,1,3.74,3.73v9.52a3.74,3.74,0,0,1-3.73,3.74H345.1a3.75,3.75,0,0,1-3.74-3.73Zm0,32a3.75,3.75,0,0,1,3.73-3.74h7.52a3.74,3.74,0,0,1,3.74,3.73v9.52a3.75,3.75,0,0,1-3.74,3.74h-7.52a3.74,3.74,0,0,1-3.74-3.73Zm0,32a3.75,3.75,0,0,1,3.73-3.74h7.52a3.75,3.75,0,0,1,3.74,3.74v9.51a3.75,3.75,0,0,1-3.74,3.74h-7.51a3.75,3.75,0,0,1-3.74-3.74Zm0,32a3.75,3.75,0,0,1,3.74-3.74h7.51a3.75,3.75,0,0,1,3.74,3.74v9.52a3.76,3.76,0,0,1-3.74,3.74h-7.51a3.75,3.75,0,0,1-3.74-3.73Zm0,32a3.75,3.75,0,0,1,3.74-3.74h7.51a3.75,3.75,0,0,1,3.75,3.73v9.52a3.74,3.74,0,0,1-3.73,3.74h-7.52a3.73,3.73,0,0,1-3.74-3.73Zm0,32a3.75,3.75,0,0,1,3.74-3.74h7.52a3.75,3.75,0,0,1,3.74,3.74v9.51a3.74,3.74,0,0,1-3.73,3.74h-7.52a3.75,3.75,0,0,1-3.74-3.74Zm0,32a3.74,3.74,0,0,1,3.73-3.74h7.52a3.75,3.75,0,0,1,3.74,3.74v9.51a3.76,3.76,0,0,1-3.74,3.75h-7.52a3.75,3.75,0,0,1-3.74-3.74Zm0,32a3.74,3.74,0,0,1,3.73-3.74h7.52a3.74,3.74,0,0,1,3.74,3.73v9.52a3.75,3.75,0,0,1-3.74,3.74h-7.51a3.75,3.75,0,0,1-3.75-3.73Zm0,32a3.75,3.75,0,0,1,3.74-3.74h7.51a3.75,3.75,0,0,1,3.74,3.74v9.51a3.75,3.75,0,0,1-3.74,3.74h-7.51a3.75,3.75,0,0,1-3.74-3.74Zm11.29,45.22H345.3a3.75,3.75,0,0,1-3.74-3.74v-9.51a3.75,3.75,0,0,1,3.74-3.74h7.51a3.75,3.75,0,0,1,3.74,3.74V450A3.75,3.75,0,0,1,352.82,453.78Zm16.43-429A3.75,3.75,0,0,1,373,21h7.52a3.76,3.76,0,0,1,3.74,3.74v9.51A3.74,3.74,0,0,1,380.52,38H373a3.75,3.75,0,0,1-3.74-3.74Zm0,32A3.73,3.73,0,0,1,373,53h7.52a3.74,3.74,0,0,1,3.74,3.73v9.52A3.73,3.73,0,0,1,380.54,70H373a3.74,3.74,0,0,1-3.74-3.73Zm0,32A3.75,3.75,0,0,1,373,85h7.52a3.75,3.75,0,0,1,3.74,3.74v9.51a3.75,3.75,0,0,1-3.74,3.74H373a3.76,3.76,0,0,1-3.74-3.74Zm0,32a3.75,3.75,0,0,1,3.73-3.74h7.52a3.75,3.75,0,0,1,3.74,3.74v9.51a3.75,3.75,0,0,1-3.74,3.74h-7.51a3.75,3.75,0,0,1-3.74-3.74Zm0,32a3.75,3.75,0,0,1,3.74-3.74h7.51a3.73,3.73,0,0,1,3.74,3.73v9.52a3.75,3.75,0,0,1-3.74,3.74h-7.51a3.74,3.74,0,0,1-3.74-3.73Zm0,32a3.76,3.76,0,0,1,3.74-3.74h7.51a3.76,3.76,0,0,1,3.75,3.73v9.52a3.74,3.74,0,0,1-3.73,3.74h-7.52a3.75,3.75,0,0,1-3.74-3.74Zm0,32a3.75,3.75,0,0,1,3.74-3.74h7.52a3.75,3.75,0,0,1,3.74,3.74v9.51a3.74,3.74,0,0,1-3.73,3.74h-7.52a3.75,3.75,0,0,1-3.74-3.74Zm0,32a3.74,3.74,0,0,1,3.73-3.74h7.52a3.73,3.73,0,0,1,3.74,3.73v9.52a3.75,3.75,0,0,1-3.74,3.74h-7.52a3.74,3.74,0,0,1-3.74-3.73Zm0,32a3.75,3.75,0,0,1,3.73-3.74h7.52a3.75,3.75,0,0,1,3.74,3.73v9.52a3.75,3.75,0,0,1-3.74,3.74h-7.51a3.75,3.75,0,0,1-3.75-3.73Zm0,32a3.75,3.75,0,0,1,3.74-3.74h7.51a3.75,3.75,0,0,1,3.74,3.74v9.51a3.75,3.75,0,0,1-3.74,3.74H373.2a3.75,3.75,0,0,1-3.74-3.74Zm0,32a3.75,3.75,0,0,1,3.74-3.74h7.51a3.73,3.73,0,0,1,3.74,3.73v9.52a3.76,3.76,0,0,1-3.73,3.74h-7.52a3.75,3.75,0,0,1-3.74-3.73Zm0,32a3.75,3.75,0,0,1,3.74-3.74h7.52a3.75,3.75,0,0,1,3.74,3.73v9.52a3.74,3.74,0,0,1-3.73,3.74h-7.52a3.73,3.73,0,0,1-3.74-3.73Zm0,32a3.73,3.73,0,0,1,3.73-3.74h7.52a3.75,3.75,0,0,1,3.74,3.74V418a3.73,3.73,0,0,1-3.73,3.74h-7.52a3.75,3.75,0,0,1-3.74-3.74Zm11.28,45.23h-7.52a3.76,3.76,0,0,1-3.74-3.73v-9.52a3.74,3.74,0,0,1,3.73-3.74h7.52a3.75,3.75,0,0,1,3.74,3.74V450A3.76,3.76,0,0,1,380.8,453.77Zm16.53-301.12a3.74,3.74,0,0,1,3.73-3.74h7.52a3.74,3.74,0,0,1,3.74,3.73v9.52a3.75,3.75,0,0,1-3.74,3.74h-7.52a3.74,3.74,0,0,1-3.74-3.73Zm0,32a3.74,3.74,0,0,1,3.73-3.74h7.52a3.75,3.75,0,0,1,3.74,3.74v9.51a3.75,3.75,0,0,1-3.74,3.74H401.1a3.76,3.76,0,0,1-3.75-3.74Zm0,32a3.75,3.75,0,0,1,3.74-3.74h7.51a3.75,3.75,0,0,1,3.74,3.74v9.51a3.75,3.75,0,0,1-3.74,3.74h-7.51a3.75,3.75,0,0,1-3.74-3.74Zm0,32a3.75,3.75,0,0,1,3.74-3.74h7.51a3.74,3.74,0,0,1,3.74,3.73v9.52a3.75,3.75,0,0,1-3.74,3.74h-7.51a3.74,3.74,0,0,1-3.74-3.73Zm0,32a3.76,3.76,0,0,1,3.74-3.75h7.52a3.76,3.76,0,0,1,3.74,3.74v9.51a3.74,3.74,0,0,1-3.73,3.74h-7.52a3.75,3.75,0,0,1-3.74-3.74Zm0,32a3.73,3.73,0,0,1,3.73-3.74h7.52a3.75,3.75,0,0,1,3.74,3.74v9.51a3.73,3.73,0,0,1-3.73,3.74h-7.52a3.75,3.75,0,0,1-3.74-3.74Zm0,32a3.74,3.74,0,0,1,3.73-3.74h7.52a3.73,3.73,0,0,1,3.74,3.73v9.52a3.75,3.75,0,0,1-3.74,3.74H401.2a3.75,3.75,0,0,1-3.74-3.73Zm0,32a3.76,3.76,0,0,1,3.73-3.74h7.52a3.75,3.75,0,0,1,3.74,3.73V386a3.75,3.75,0,0,1-3.74,3.74h-7.51a3.75,3.75,0,0,1-3.74-3.74Zm0,32a3.75,3.75,0,0,1,3.74-3.74h7.51a3.75,3.75,0,0,1,3.74,3.74V418a3.75,3.75,0,0,1-3.74,3.74h-7.51a3.75,3.75,0,0,1-3.74-3.74Zm11.29,45.23h-7.52a3.74,3.74,0,0,1-3.74-3.73V440.5a3.75,3.75,0,0,1,3.74-3.74h7.51a3.73,3.73,0,0,1,3.74,3.73V450A3.75,3.75,0,0,1,408.79,453.75Zm16.65-109.22a3.75,3.75,0,0,1,3.74-3.74h7.51a3.74,3.74,0,0,1,3.74,3.73V354a3.75,3.75,0,0,1-3.73,3.74h-7.52a3.74,3.74,0,0,1-3.74-3.73Zm0,32a3.75,3.75,0,0,1,3.74-3.74h7.52a3.76,3.76,0,0,1,3.74,3.74V386a3.74,3.74,0,0,1-3.73,3.74h-7.52a3.75,3.75,0,0,1-3.74-3.74Zm0,32a3.73,3.73,0,0,1,3.73-3.74h7.52a3.75,3.75,0,0,1,3.74,3.74V418a3.73,3.73,0,0,1-3.73,3.74h-7.52a3.75,3.75,0,0,1-3.74-3.74Zm11.28,45.23h-7.52a3.75,3.75,0,0,1-3.74-3.73v-9.52a3.74,3.74,0,0,1,3.73-3.74h7.52a3.74,3.74,0,0,1,3.74,3.73V450A3.75,3.75,0,0,1,436.77,453.73Z"/><path class="cls-1" d="M726.13,329.94H683.78V242.59a22.65,22.65,0,0,0-22.65-22.65H559.42a22.64,22.64,0,0,0-22.64,22.65v87.35H495.42a22.64,22.64,0,0,0-22.64,22.65V469.94h276V352.59A22.65,22.65,0,0,0,726.13,329.94Zm-215.62,103a4,4,0,0,1-4,4H494.55a4,4,0,0,1-4-4V417a4,4,0,0,1,4-4h11.92a4,4,0,0,1,4,4Zm0-61a4,4,0,0,1-4,4H494.55a4,4,0,0,1-4-4V356a4,4,0,0,1,4-4h11.92a4,4,0,0,1,4,4Zm37,61a4,4,0,0,1-4,4H531.55a4,4,0,0,1-4-4V417a4,4,0,0,1,4-4h11.92a4,4,0,0,1,4,4Zm0-61a4,4,0,0,1-4,4H531.55a4,4,0,0,1-4-4V356a4,4,0,0,1,4-4h11.92a4,4,0,0,1,4,4Zm41.94-100.57a4,4,0,0,1,1.17-2.86,3.82,3.82,0,0,1,2.86-1.21h10.43V257.05a4.13,4.13,0,0,1,4.15-4.18,4.1,4.1,0,0,1,3,1.21,4,4,0,0,1,1.25,3v10.21h10.43a3.82,3.82,0,0,1,2.86,1.21,4,4,0,0,1,1.17,2.86,4,4,0,0,1-4,4H612.28v10.21a4,4,0,0,1-1.25,3,4.1,4.1,0,0,1-3,1.21,4.13,4.13,0,0,1-4.15-4.18V275.33H593.48a4,4,0,0,1-4-4ZM627.7,421.1a3.81,3.81,0,0,1-1.21,2.86,4,4,0,0,1-2.9,1.18,4,4,0,0,1-4-4V403.48h-19V421.1a3.81,3.81,0,0,1-1.21,2.86,4,4,0,0,1-2.9,1.18,4,4,0,0,1-4-4V377.78a4,4,0,0,1,4-4,4,4,0,0,1,2.9,1.18,3.82,3.82,0,0,1,1.21,2.86V395.4h19V377.78a4,4,0,0,1,4-4,4.05,4.05,0,0,1,2.9,1.18,3.82,3.82,0,0,1,1.21,2.86Zm62.81,11.8a4,4,0,0,1-4,4H674.55a4,4,0,0,1-4-4V417a4,4,0,0,1,4-4h11.92a4,4,0,0,1,4,4Zm0-61a4,4,0,0,1-4,4H674.55a4,4,0,0,1-4-4V356a4,4,0,0,1,4-4h11.92a4,4,0,0,1,4,4Zm37,61a4,4,0,0,1-4,4H711.55a4,4,0,0,1-4-4V417a4,4,0,0,1,4-4h11.92a4,4,0,0,1,4,4Zm0-61a4,4,0,0,1-4,4H711.55a4,4,0,0,1-4-4V356a4,4,0,0,1,4-4h11.92a4,4,0,0,1,4,4Z"/><path class="cls-1" d="M864.24,273.41a1,1,0,0,1-.4-.09,15.67,15.67,0,0,1-.14-28.57,1,1,0,0,1,.83,1.82,13.68,13.68,0,0,0,.12,24.93,1,1,0,0,1-.41,1.91Z"/><path class="cls-1" d="M859.29,284.56a1,1,0,0,1-.4-.09,27.91,27.91,0,0,1-.25-50.86,1,1,0,1,1,.83,1.82,25.9,25.9,0,0,0,.23,47.21,1,1,0,0,1-.41,1.92Z"/><path class="cls-1" d="M853.79,294a1,1,0,0,1-.41-.09,38.25,38.25,0,0,1-.34-69.72,1,1,0,1,1,.84,1.82,36.24,36.24,0,0,0,.31,66.07,1,1,0,0,1-.4,1.92Z"/><path class="cls-1" d="M848.84,305.13a1,1,0,0,1-.41-.08,50.48,50.48,0,0,1-.44-92,1,1,0,0,1,1.32.49,1,1,0,0,1-.49,1.33,48.48,48.48,0,0,0,.43,88.37,1,1,0,0,1-.41,1.91Z"/><path class="cls-1" d="M870.15,253.24a5.29,5.29,0,1,0,5.29,5.28A5.29,5.29,0,0,0,870.15,253.24Zm0,8.57a3.29,3.29,0,1,1,3.29-3.29A3.28,3.28,0,0,1,870.15,261.81Z"/><path class="cls-1" d="M987.84,273.41a1,1,0,0,1-.42-1.91,13.68,13.68,0,0,0-.12-24.92,1,1,0,0,1,.81-1.83,15.68,15.68,0,0,1,.14,28.57A1,1,0,0,1,987.84,273.41Z"/><path class="cls-1" d="M992.89,284.56a1,1,0,0,1-.42-1.91,25.91,25.91,0,0,0-.22-47.22,1,1,0,1,1,.81-1.82,27.91,27.91,0,0,1,.25,50.86A1.06,1.06,0,0,1,992.89,284.56Z"/><path class="cls-1" d="M998.49,294a1,1,0,0,1-.42-1.91,36.25,36.25,0,0,0-.32-66.08,1,1,0,0,1,.82-1.83,38.25,38.25,0,0,1,.33,69.73A1,1,0,0,1,998.49,294Z"/><path class="cls-1" d="M1003.54,305.13a1,1,0,0,1-.91-.58,1,1,0,0,1,.5-1.33,48.48,48.48,0,0,0-.43-88.37,1,1,0,0,1,.82-1.82,50.48,50.48,0,0,1,.44,92A1,1,0,0,1,1003.54,305.13Z"/><path class="cls-1" d="M981.79,254.26a5.29,5.29,0,1,0,5.29,5.29A5.29,5.29,0,0,0,981.79,254.26Zm0,8.58a3.29,3.29,0,1,1,3.29-3.29A3.3,3.3,0,0,1,981.79,262.84Z"/><path class="cls-1" d="M1018.77,399.94h-56l-4.2-24-5.81-33.21h0l0-.08-.56-3.17a.41.41,0,0,0,0-.11.28.28,0,0,0,0-.09l-5.33-30.48-1.49-8.53v-.06L927,195.27a1,1,0,0,0-2,0l-8.81,51.84a.28.28,0,0,1,0,.09l-5,29.14h0a.44.44,0,0,0,0,.1.57.57,0,0,0,0,.13l-5.57,32.72-5.28,31.08-.24,1.44-6,35.35-.69,4.09-3.18,18.68h-112a17.74,17.74,0,0,0-17.74,17.74v52.26h26v-42a6,6,0,0,1,6-6h16a6,6,0,0,1,6,6v42h222V417.68A17.74,17.74,0,0,0,1018.77,399.94Zm-61.39-19.17-2.23-1.65,1.72-1.27Zm-.89-5.12-3,2.23-26.26-19.44,21.95-16.26,1.69,1.25Zm-31-18.45-21.61-16,22-16.26,21.61,16ZM950.09,339l-.91.67-21.62-16,17.57-13Zm-7.15-40.95-14.7-10.88,11.33-8.39Zm-6.63-37.9-8.13-6,6.27-4.64ZM926,201.33l8,46-7.55,5.6-8.22-6.09ZM917.91,249l6.92,5.12-8.91,6.59Zm-2.47,14.55,11.07-8.19,10.3,7.62,2.38,13.59h0L926.57,286l-13.26-9.81Zm-2.51,14.76,12,8.85-15.4,11.4ZM907.72,309l1.29-7.58,17.55-13,16.87,12.48,1.32,7.58-18.86,14L907.72,309Zm-.37,2.2,16.87,12.49L902.5,339.78ZM902,342.61l.23-.17,21.61,16L897.57,377.9l-1.38-1Zm-9.75,57.33,3-17.88,2.26-1.67,26.26,19.43.16.12Zm7-20.79,26.29-19.47,26.26,19.44-26.29,19.46Zm27.94,20.68,26.29-19.47,4.4,3.26,2.85,16.32H927Zm47.32,43.11a4,4,0,0,1-4,4h-14a4,4,0,0,1-4-4v-14a4,4,0,0,1,4-4h14a4,4,0,0,1,4,4Zm34,0a4,4,0,0,1-4,4h-14a4,4,0,0,1-4-4v-14a4,4,0,0,1,4-4h14a4,4,0,0,1,4,4Z"/><path class="cls-1" d="M887.45,238.44h-.37c-4.45,0-8.07,4.17-8.07,9.29v20.42c0,5.12,3.62,9.29,8.07,9.29h.37c4.44,0,8.06-4.17,8.06-9.29V247.73C895.51,242.61,891.89,238.44,887.45,238.44Zm6.33,29.71c0,4-2.84,7.29-6.33,7.29h-.37c-3.49,0-6.33-3.27-6.33-7.29V247.73c0-4,2.84-7.29,6.33-7.29h.37c3.49,0,6.33,3.27,6.33,7.29Z"/><path class="cls-1" d="M965.45,238.44h-.37c-4.45,0-8.07,4.17-8.07,9.29v20.42c0,5.12,3.62,9.29,8.07,9.29h.37c4.44,0,8.06-4.17,8.06-9.29V247.73C973.51,242.61,969.89,238.44,965.45,238.44Zm6.33,29.71c0,4-2.84,7.29-6.33,7.29h-.37c-3.49,0-6.33-3.27-6.33-7.29V247.73c0-4,2.84-7.29,6.33-7.29h.37c3.49,0,6.33,3.27,6.33,7.29Z"/><path class="cls-1" d="M952.33,240.49a1,1,0,0,0-1.12.35l-12,16a1,1,0,0,0,0,1.15l12,18a1,1,0,0,0,.83.45,1,1,0,0,0,.29,0,1,1,0,0,0,.71-1v-34A1,1,0,0,0,952.33,240.49ZM951,272.14l-9.78-14.67,9.78-13Z"/><path class="cls-1" d="M912.84,258.89l-12-18a1,1,0,0,0-1.12-.41,1,1,0,0,0-.71,1v34a1,1,0,0,0,.68.95,1.19,1.19,0,0,0,.32.05,1,1,0,0,0,.8-.4l12-16A1,1,0,0,0,912.84,258.89ZM901,272.44v-27.7l9.78,14.67Z"/></g></g></svg>