<svg xmlns="http://www.w3.org/2000/svg" viewBox="0 0 226 124"><defs><style>.cls-1{fill:#34495e;}</style></defs><title>the-sun</title><g id="Layer_2" data-name="Layer 2"><g id="Layer_1-2" data-name="Layer 1"><path class="cls-1" d="M142.16,76.17a3.58,3.58,0,0,0-.26.29l.27-.29Z"/><path class="cls-1" d="M142.17,76.17l-.27.29a3.58,3.58,0,0,1,.26-.29Z"/><path class="cls-1" d="M142.16,76.17a3.58,3.58,0,0,0-.26.29l.27-.29Zm0,0a3.58,3.58,0,0,0-.26.29l.27-.29Z"/><path class="cls-1" d="M219.5,98.5h-14a6.5,6.5,0,1,1,0-13H215a6.5,6.5,0,0,0,0-13H193.11c.14-.83.26-1.67.37-2.5a63,63,0,0,0,.52-8A62,62,0,0,0,74.8,38c-.13.32-.27.65-.39,1H29a6.5,6.5,0,0,0,0,13h4.5a6.5,6.5,0,1,1,0,13H6.5a6.5,6.5,0,0,0,0,13H72.1c.05.22.11.45.17.67A62,62,0,0,0,165.77,114h0l.63-.42,3.11-2.08h50a6.5,6.5,0,0,0,0-13ZM188.44,70H145a9,9,0,0,0,0,18h4.5a4,4,0,1,1,0,8h-27a9,9,0,0,0,0,18h32.88A57,57,0,1,1,189,62,57.93,57.93,0,0,1,188.44,70Zm-46.28,6.17a3.58,3.58,0,0,0-.26.29l.27-.29Z"/><path class="cls-1" d="M142.17,76.17l-.27.29a3.58,3.58,0,0,1,.26-.29Z"/></g></g></svg>