<svg id="Asset_18" data-name="Asset 18" xmlns="http://www.w3.org/2000/svg" width="618.282" height="537.833" viewBox="0 0 618.282 537.833">
  <g id="Aspiration_to_achivement" data-name="Aspiration to achivement">
    <path id="Path_4651" data-name="Path 4651" d="M1106.3,290.972c-14.666,6.6-27.687,7.4-29.082,1.8,0-.015-.008-.03-.011-.045-2.428-3.879-5.185-7.387-7.5-11.389-1.41-2.434-2.861-4.173-10.468-10.9-14.958-13.237-18.977-15.026-26.526-22.606a119.558,119.558,0,0,1-13.145-15.768c-8.857,5.169-15.811,9.295-20.022,11.8-11.03,6.569-17.306,10.417-26.681,14.077-6.9,2.695-11.447,3.712-16.657,3.172a31.043,31.043,0,0,1-8.094-2.064c-.328,25.19-19.837,68.939-19.837,68.939s-3.632,8.146-21.27,36.179a69.922,69.922,0,0,1,9.169-.587c15.465,0,28,4.794,28,10.708a4.727,4.727,0,0,1-.84,2.612h62.491V537.833H863.048V376.9H889a4.728,4.728,0,0,1-.84-2.612,5.816,5.816,0,0,1,2.327-4.278c.02-.117.041-.229.062-.338,1.981-9.939,19.133-37.373,26.125-53.84,8.731-20.559,12.382-49.344,20.016-63.608a25.639,25.639,0,0,1-3.19-3.6,37.689,37.689,0,0,1-5.749-12.492c-3.712-13.266-.912-25.786.295-30.338Q935.31,173.2,943.6,141.137a123.2,123.2,0,0,1-14.746,3.762,119.211,119.211,0,0,1-22.788,2.109,153.87,153.87,0,0,1-16.081,26.251c-8.479,11.061-9.294,8.655-17.543,19.366-6.089,7.9-20.425,28.391-24.964,28.6a1.6,1.6,0,0,1-1.459-.591c-1.177-1.655.634-6.29,1.23-7.737l52.921-76.7a4.662,4.662,0,0,1,2.784-1.929l44.865-9.142q1.228-4.583,2.478-9.153,1.338-4.9,2.7-9.784a54.765,54.765,0,0,1-36.445-51.469C916.563,24.5,941.29,0,971.788,0s55.225,24.5,55.225,54.716-24.725,54.717-55.225,54.717a56.254,56.254,0,0,1-8.483-.649q-2.078,8.24-4.046,16.769c6.029,5.217,12.28,10.985,18.678,17.359,9.019,8.986,17.125,17.982,24.364,26.673a110.515,110.515,0,0,1,17.371-7.549,124.436,124.436,0,0,1,17.165-4.229,164.35,164.35,0,0,0,30.807-9.682,5.141,5.141,0,0,1,5.941,4.852,5.716,5.716,0,0,1-2.481,4.476l-68.743,25.721a3.965,3.965,0,0,1-4.136-1.155,235.363,235.363,0,0,1-25.2-22.891c-6.311-6.606-11.922-13.206-16.877-19.538-4.049,19-7.647,39.008-10.614,60q-2,14.134-3.479,27.781a4.64,4.64,0,0,0,.175,2.085,3.355,3.355,0,0,0,1,1.54,25.76,25.76,0,0,0,8.113,6.121c6.121,2.821,11.626,1.8,17.985,0a142.427,142.427,0,0,0,25.3-9.909c17.574-8.923,19.238-12.289,25.56-11.9,8.628.529,14.791,7.367,20.7,14.126,11.049,12.637,25.627,30.054,42.605,52.4a69.94,69.94,0,0,1,17.772-11.178c14.668-6.6,27.688-7.4,29.082-1.794S1120.971,284.374,1106.3,290.972Z" transform="translate(-707.168)" fill="#fff"/>
    <rect id="Rectangle_1533" data-name="Rectangle 1533" width="142.781" height="93.448" transform="translate(0 444.381)" fill="#fff"/>
    <rect id="Rectangle_1534" data-name="Rectangle 1534" width="142.781" height="221.939" transform="translate(318.31 315.89)" fill="#fff"/>
    <rect id="Rectangle_1535" data-name="Rectangle 1535" width="142.781" height="325.77" transform="translate(475.501 212.059)" fill="#fff"/>
  </g>
</svg>
