<svg id="Asset_17" data-name="Asset 17" xmlns="http://www.w3.org/2000/svg" width="778.346" height="561.041" viewBox="0 0 778.346 561.041">
  <g id="Innovation_and_creation" data-name="Innovation and creation" transform="translate(0)">
    <path id="Path_4646" data-name="Path 4646" d="M360.46,315.325a19.566,19.566,0,0,1-6.25,9.681,5.094,5.094,0,0,1-.708.5,72.112,72.112,0,0,1-11.781,5.583q-2.926,1.071-5.936,1.886a5.042,5.042,0,0,1,.612,1.592l5.182,25.674a5.124,5.124,0,0,1-2.964,5.693l-7.4,3.29c4.146,3.115,7.11,6.846,6.4,11.266-.643,3.988-3.749,5.7-6.019,6.949a16.838,16.838,0,0,0-3.642,2.461c-3.04,2.869-3.559,6.847-4.215,13.6-.128,1.335-.263,2.715-.432,4.159-1.862,15.7-3.185,24.89-8.758,31.11-3.8,4.248-9.65,6.994-23.749,6.994a188.179,188.179,0,0,1-19.348-1.191c-29.6-3.081-44.452-4.649-56.565-12.163-27.688-17.171-35.061-49.274-36.947-62.279a5.182,5.182,0,0,1,10.261-1.458c1.679,11.588,8.178,40.144,32.169,55.029,10.085,6.258,24.143,7.726,52.149,10.656,29.367,3.081,33.064-1.054,34.28-2.4,3.168-3.536,4.426-10.41,6.219-25.489.159-1.335.287-2.66.411-3.944.691-7.079,1.382-14.4,7.38-20.057a26.021,26.021,0,0,1,5.583-3.906c-1.188-1.085-3.652-2.9-8.675-5.429a5.115,5.115,0,0,1,.228-9.263l12.663-5.648-4.371-21.655a5.152,5.152,0,0,1-.055-1.688,74.48,74.48,0,0,1-9.643.623h-.114a5.135,5.135,0,1,1,0-10.27h.107a62.432,62.432,0,0,0,21.587-3.789,61.2,61.2,0,0,0,9.674-4.532,9.483,9.483,0,0,0,2.691-4.347,10.939,10.939,0,0,0-.643-6.693c-7.1-19.536-32.846-65.658-33.105-66.12a20.936,20.936,0,0,1-2.982-10.345c0-3.368.881-5.724,2.5-10l.345-.887c.453-1.2.881-2.4,1.33-3.687.691-1.91,1.382-3.885,2.173-5.85,1.358-3.334,2.159-16.774-10.251-38.683-4.934-8.712-16.525-25.914-38.734-43.256a185.686,185.686,0,0,0-42.938-24.99c-60.648-21.8-133.058-6.395-176.138,37.46-29.993,30.542-38.855,61.769-41.007,82.586-6.274,60.667,32.328,122.576,98.349,157.722a5.126,5.126,0,0,1,2.726,4.758,208.843,208.843,0,0,1-4.25,33.688,209.909,209.909,0,0,1-21.245,57.363,5.208,5.208,0,0,1-9.013.182,5.094,5.094,0,0,1-.1-5.071A199.546,199.546,0,0,0,97.706,416.18a198.065,198.065,0,0,0,3.873-28.851C68.926,369.347,42.22,344.6,24.212,315.6,5.555,285.539-2.571,252.851.718,221.066c2.322-22.443,11.819-56.045,43.878-88.7C68.339,108.2,99.575,91.9,134.934,85.236c32.556-6.138,66.968-3.581,96.891,7.189.076.031.155.058.232.092a196.03,196.03,0,0,1,45.46,26.445c23.615,18.438,36.049,36.92,41.356,46.3,12.963,22.895,13.934,39.932,10.824,47.583-.691,1.742-1.337,3.522-2,5.4-.449,1.27-.912,2.585-1.406,3.889l-.345.9c-1.461,3.861-1.842,4.933-1.838,6.36a10.909,10.909,0,0,0,1.683,5.4c1.075,1.924,26.4,47.316,33.786,67.619A20.574,20.574,0,0,1,360.46,315.325Z" transform="translate(-0.005 -53.906)" fill="#fff"/>
    <ellipse id="Ellipse_451" data-name="Ellipse 451" cx="32.477" cy="32.178" rx="32.477" ry="32.178" transform="translate(59.372 159.403)" fill="#fff"/>
    <ellipse id="Ellipse_452" data-name="Ellipse 452" cx="12.438" cy="12.324" rx="12.438" ry="12.324" transform="translate(124.325 197.059)" fill="#fff"/>
    <ellipse id="Ellipse_453" data-name="Ellipse 453" cx="12.438" cy="12.324" rx="12.438" ry="12.324" transform="translate(156.802 198.428)" fill="#fff"/>
    <ellipse id="Ellipse_454" data-name="Ellipse 454" cx="13.129" cy="13.008" rx="13.129" ry="13.008" transform="translate(120.87 147.764)" fill="#fff"/>
    <ellipse id="Ellipse_455" data-name="Ellipse 455" cx="15.893" cy="15.747" rx="15.893" ry="15.747" transform="translate(147.819 160.772)" fill="#fff"/>
    <ellipse id="Ellipse_456" data-name="Ellipse 456" cx="27.64" cy="27.386" rx="27.64" ry="27.386" transform="translate(125.016 95.731)" fill="#fff"/>
    <ellipse id="Ellipse_457" data-name="Ellipse 457" cx="31.786" cy="31.494" rx="31.786" ry="31.494" transform="translate(188.588 101.208)" fill="#fff"/>
    <ellipse id="Ellipse_458" data-name="Ellipse 458" cx="18.657" cy="18.485" rx="18.657" ry="18.485" transform="translate(203.099 173.096)" fill="#fff"/>
    <ellipse id="Ellipse_459" data-name="Ellipse 459" cx="18.657" cy="18.485" rx="18.657" ry="18.485" transform="translate(66.973 96.415)" fill="#fff"/>
    <ellipse id="Ellipse_460" data-name="Ellipse 460" cx="17.275" cy="17.116" rx="17.275" ry="17.116" transform="translate(93.231 228.097)" fill="#fff"/>
    <ellipse id="Ellipse_461" data-name="Ellipse 461" cx="8.292" cy="8.216" rx="8.292" ry="8.216" transform="translate(73.192 234.03)" fill="#fff"/>
    <ellipse id="Ellipse_462" data-name="Ellipse 462" cx="17.043" cy="16.887" rx="17.043" ry="16.887" transform="translate(134.231 219.881)" fill="#fff"/>
    <ellipse id="Ellipse_463" data-name="Ellipse 463" cx="16.124" cy="15.976" rx="16.124" ry="15.976" transform="translate(189.97 214.175)" fill="#fff"/>
    <ellipse id="Ellipse_464" data-name="Ellipse 464" cx="6.506" cy="6.446" rx="6.506" ry="6.446" transform="translate(185.309 197.233)" fill="#fff"/>
    <ellipse id="Ellipse_465" data-name="Ellipse 465" cx="19.348" cy="19.17" rx="19.348" ry="19.17" transform="translate(247.094 146.395)" fill="#fff"/>
    <ellipse id="Ellipse_466" data-name="Ellipse 466" cx="7.601" cy="7.531" rx="7.601" ry="7.531" transform="translate(248.245 190.441)" fill="#fff"/>
    <ellipse id="Ellipse_467" data-name="Ellipse 467" cx="11.515" cy="11.41" rx="11.515" ry="11.41" transform="translate(49.47 137.268)" fill="#fff"/>
    <ellipse id="Ellipse_468" data-name="Ellipse 468" cx="7.601" cy="7.531" rx="7.601" ry="7.531" transform="translate(97.608 137.039)" fill="#fff"/>
    <ellipse id="Ellipse_469" data-name="Ellipse 469" cx="4.605" cy="4.563" rx="4.605" ry="4.563" transform="translate(81.487 147.309)" fill="#fff"/>
    <ellipse id="Ellipse_470" data-name="Ellipse 470" cx="3.914" cy="3.879" rx="3.914" ry="3.879" transform="translate(73.886 136.354)" fill="#fff"/>
    <ellipse id="Ellipse_471" data-name="Ellipse 471" cx="10.824" cy="10.725" rx="10.824" ry="10.725" transform="translate(102.445 78.159)" fill="#fff"/>
    <ellipse id="Ellipse_472" data-name="Ellipse 472" cx="7.832" cy="7.76" rx="7.832" ry="7.76" transform="translate(105.668 108.968)" fill="#fff"/>
    <ellipse id="Ellipse_473" data-name="Ellipse 473" cx="3.223" cy="3.194" rx="3.223" ry="3.194" transform="translate(120.642 96.645)" fill="#fff"/>
    <ellipse id="Ellipse_474" data-name="Ellipse 474" cx="8.292" cy="8.216" rx="8.292" ry="8.216" transform="translate(127.321 81.583)" fill="#fff"/>
    <ellipse id="Ellipse_475" data-name="Ellipse 475" cx="11.978" cy="11.868" rx="11.978" ry="11.868" transform="translate(147.819 71.768)" fill="#fff"/>
    <ellipse id="Ellipse_476" data-name="Ellipse 476" cx="6.219" cy="6.162" rx="6.219" ry="6.162" transform="translate(180.987 101.437)" fill="#fff"/>
    <ellipse id="Ellipse_477" data-name="Ellipse 477" cx="13.82" cy="13.693" rx="13.82" ry="13.693" transform="translate(179.145 71.542)" fill="#fff"/>
    <ellipse id="Ellipse_478" data-name="Ellipse 478" cx="6.45" cy="6.391" rx="6.45" ry="6.391" transform="translate(174.999 139.548)" fill="#fff"/>
    <ellipse id="Ellipse_479" data-name="Ellipse 479" cx="4.377" cy="4.337" rx="4.377" ry="4.337" transform="translate(162.098 149.589)" fill="#fff"/>
    <ellipse id="Ellipse_480" data-name="Ellipse 480" cx="8.751" cy="8.671" rx="8.751" ry="8.671" transform="translate(181.218 157.123)" fill="#fff"/>
    <ellipse id="Ellipse_481" data-name="Ellipse 481" cx="4.377" cy="4.337" rx="4.377" ry="4.337" transform="translate(192.792 175.434)" fill="#fff"/>
    <ellipse id="Ellipse_482" data-name="Ellipse 482" cx="4.377" cy="4.337" rx="4.377" ry="4.337" transform="translate(174.768 187.929)" fill="#fff"/>
    <ellipse id="Ellipse_483" data-name="Ellipse 483" cx="3.686" cy="3.653" rx="3.686" ry="3.653" transform="translate(182.082 177.005)" fill="#fff"/>
    <ellipse id="Ellipse_484" data-name="Ellipse 484" cx="5.987" cy="5.932" rx="5.987" ry="5.932" transform="translate(200.338 162.6)" fill="#fff"/>
    <ellipse id="Ellipse_485" data-name="Ellipse 485" cx="3.455" cy="3.423" rx="3.455" ry="3.423" transform="translate(223.369 165.565)" fill="#fff"/>
    <ellipse id="Ellipse_486" data-name="Ellipse 486" cx="2.304" cy="2.283" rx="2.304" ry="2.283" transform="translate(215.305 166.249)" fill="#fff"/>
    <ellipse id="Ellipse_487" data-name="Ellipse 487" cx="2.073" cy="2.054" rx="2.073" ry="2.054" transform="translate(238.802 158.718)" fill="#fff"/>
    <ellipse id="Ellipse_488" data-name="Ellipse 488" cx="6.219" cy="6.162" rx="6.219" ry="6.162" transform="translate(233.734 166.934)" fill="#fff"/>
    <ellipse id="Ellipse_489" data-name="Ellipse 489" cx="3.455" cy="3.423" rx="3.455" ry="3.423" transform="translate(243.867 181.541)" fill="#fff"/>
    <ellipse id="Ellipse_490" data-name="Ellipse 490" cx="3.455" cy="3.423" rx="3.455" ry="3.423" transform="translate(189.914 187.761)" fill="#fff"/>
    <ellipse id="Ellipse_491" data-name="Ellipse 491" cx="2.532" cy="2.509" rx="2.532" ry="2.509" transform="translate(204.139 207.616)" fill="#fff"/>
    <ellipse id="Ellipse_492" data-name="Ellipse 492" cx="5.528" cy="5.477" rx="5.528" ry="5.477" transform="translate(220.836 213.719)" fill="#fff"/>
    <ellipse id="Ellipse_493" data-name="Ellipse 493" cx="2.304" cy="2.283" rx="2.304" ry="2.283" transform="translate(231.198 207.328)" fill="#fff"/>
    <ellipse id="Ellipse_494" data-name="Ellipse 494" cx="5.987" cy="5.932" rx="5.987" ry="5.932" transform="translate(171.776 226.502)" fill="#fff"/>
    <ellipse id="Ellipse_495" data-name="Ellipse 495" cx="3.686" cy="3.653" rx="3.686" ry="3.653" transform="translate(184.096 214.459)" fill="#fff"/>
    <ellipse id="Ellipse_496" data-name="Ellipse 496" cx="4.605" cy="4.563" rx="4.605" ry="4.563" transform="translate(182.141 235.628)" fill="#fff"/>
    <ellipse id="Ellipse_497" data-name="Ellipse 497" cx="10.596" cy="10.499" rx="10.596" ry="10.499" transform="translate(258.724 125.171)" fill="#fff"/>
    <ellipse id="Ellipse_498" data-name="Ellipse 498" cx="7.487" cy="7.418" rx="7.487" ry="7.418" transform="translate(253.655 103.604)" fill="#fff"/>
    <ellipse id="Ellipse_499" data-name="Ellipse 499" cx="3.8" cy="3.766" rx="3.8" ry="3.766" transform="translate(272.198 117.297)" fill="#fff"/>
    <ellipse id="Ellipse_500" data-name="Ellipse 500" cx="4.032" cy="3.995" rx="4.032" ry="3.995" transform="translate(284.463 146.395)" fill="#fff"/>
    <ellipse id="Ellipse_501" data-name="Ellipse 501" cx="4.146" cy="4.108" rx="4.146" ry="4.108" transform="translate(280.49 132.246)" fill="#fff"/>
    <ellipse id="Ellipse_502" data-name="Ellipse 502" cx="2.187" cy="2.167" rx="2.187" ry="2.167" transform="translate(291.086 158.208)" fill="#fff"/>
    <ellipse id="Ellipse_503" data-name="Ellipse 503" cx="1.959" cy="1.941" rx="1.959" ry="1.941" transform="translate(289.991 172.524)" fill="#fff"/>
    <ellipse id="Ellipse_504" data-name="Ellipse 504" cx="3.914" cy="3.879" rx="3.914" ry="3.879" transform="translate(277.498 183.198)" fill="#fff"/>
    <ellipse id="Ellipse_505" data-name="Ellipse 505" cx="2.65" cy="2.626" rx="2.65" ry="2.626" transform="translate(270.125 191.694)" fill="#fff"/>
    <ellipse id="Ellipse_506" data-name="Ellipse 506" cx="1.496" cy="1.482" rx="1.496" ry="1.482" transform="translate(267.42 188.559)" fill="#fff"/>
    <ellipse id="Ellipse_507" data-name="Ellipse 507" cx="2.65" cy="2.626" rx="2.65" ry="2.626" transform="translate(240.008 200.424)" fill="#fff"/>
    <ellipse id="Ellipse_508" data-name="Ellipse 508" cx="9.905" cy="9.814" rx="9.905" ry="9.814" transform="translate(229.933 82.38)" fill="#fff"/>
    <ellipse id="Ellipse_509" data-name="Ellipse 509" cx="2.304" cy="2.283" rx="2.304" ry="2.283" transform="translate(247.436 104.631)" fill="#fff"/>
    <ellipse id="Ellipse_510" data-name="Ellipse 510" cx="6.105" cy="6.049" rx="6.105" ry="6.049" transform="translate(212.541 86.033)" fill="#fff"/>
    <ellipse id="Ellipse_511" data-name="Ellipse 511" cx="4.377" cy="4.337" rx="4.377" ry="4.337" transform="translate(211.505 73.935)" fill="#fff"/>
    <ellipse id="Ellipse_512" data-name="Ellipse 512" cx="3.8" cy="3.766" rx="3.8" ry="3.766" transform="translate(171.43 68.574)" fill="#fff"/>
    <ellipse id="Ellipse_513" data-name="Ellipse 513" cx="5.296" cy="5.248" rx="5.296" ry="5.248" transform="translate(132.044 69.146)" fill="#fff"/>
    <ellipse id="Ellipse_514" data-name="Ellipse 514" cx="2.764" cy="2.739" rx="2.764" ry="2.739" transform="translate(146.323 68.003)" fill="#fff"/>
    <ellipse id="Ellipse_515" data-name="Ellipse 515" cx="4.26" cy="4.221" rx="4.26" ry="4.221" transform="translate(90.816 86.604)" fill="#fff"/>
    <ellipse id="Ellipse_516" data-name="Ellipse 516" cx="5.642" cy="5.59" rx="5.642" ry="5.59" transform="translate(51.543 120.382)" fill="#fff"/>
    <ellipse id="Ellipse_517" data-name="Ellipse 517" cx="4.26" cy="4.221" rx="4.26" ry="4.221" transform="translate(116.496 135.786)" fill="#fff"/>
    <ellipse id="Ellipse_518" data-name="Ellipse 518" cx="2.418" cy="2.396" rx="2.418" ry="2.396" transform="translate(107.859 131.219)" fill="#fff"/>
    <ellipse id="Ellipse_519" data-name="Ellipse 519" cx="4.377" cy="4.337" rx="4.377" ry="4.337" transform="translate(115.802 123.688)" fill="#fff"/>
    <ellipse id="Ellipse_520" data-name="Ellipse 520" cx="2.995" cy="2.968" rx="2.995" ry="2.968" transform="translate(110.274 156.551)" fill="#fff"/>
    <ellipse id="Ellipse_521" data-name="Ellipse 521" cx="8.292" cy="8.216" rx="8.292" ry="8.216" transform="translate(126.284 176.978)" fill="#fff"/>
    <ellipse id="Ellipse_522" data-name="Ellipse 522" cx="7.946" cy="7.873" rx="7.946" ry="7.873" transform="translate(35.996 155.754)" fill="#fff"/>
    <ellipse id="Ellipse_523" data-name="Ellipse 523" cx="4.032" cy="3.995" rx="4.032" ry="3.995" transform="translate(55.457 164.538)" fill="#fff"/>
    <ellipse id="Ellipse_524" data-name="Ellipse 524" cx="3.569" cy="3.536" rx="3.569" ry="3.536" transform="translate(49.01 180.856)" fill="#fff"/>
    <ellipse id="Ellipse_525" data-name="Ellipse 525" cx="8.06" cy="7.986" rx="8.06" ry="7.986" transform="translate(32.541 174.352)" fill="#fff"/>
    <ellipse id="Ellipse_526" data-name="Ellipse 526" cx="6.219" cy="6.162" rx="6.219" ry="6.162" transform="translate(28.567 194.436)" fill="#fff"/>
    <ellipse id="Ellipse_527" data-name="Ellipse 527" cx="2.187" cy="2.167" rx="2.187" ry="2.167" transform="translate(50.62 194.436)" fill="#fff"/>
    <ellipse id="Ellipse_528" data-name="Ellipse 528" cx="5.182" cy="5.135" rx="5.182" ry="5.135" transform="translate(52.866 207.386)" fill="#fff"/>
    <ellipse id="Ellipse_529" data-name="Ellipse 529" cx="7.255" cy="7.189" rx="7.255" ry="7.189" transform="translate(36.224 210.868)" fill="#fff"/>
    <ellipse id="Ellipse_530" data-name="Ellipse 530" cx="2.65" cy="2.626" rx="2.65" ry="2.626" transform="translate(42.902 202.135)" fill="#fff"/>
    <ellipse id="Ellipse_531" data-name="Ellipse 531" cx="1.959" cy="1.941" rx="1.959" ry="1.941" transform="translate(53.498 225.471)" fill="#fff"/>
    <ellipse id="Ellipse_532" data-name="Ellipse 532" cx="6.333" cy="6.275" rx="6.333" ry="6.275" transform="translate(59.894 226.502)" fill="#fff"/>
    <ellipse id="Ellipse_533" data-name="Ellipse 533" cx="3.8" cy="3.766" rx="3.8" ry="3.766" transform="translate(74.518 223.876)" fill="#fff"/>
    <ellipse id="Ellipse_534" data-name="Ellipse 534" cx="3.8" cy="3.766" rx="3.8" ry="3.766" transform="translate(87.243 226.728)" fill="#fff"/>
    <ellipse id="Ellipse_535" data-name="Ellipse 535" cx="3.455" cy="3.423" rx="3.455" ry="3.423" transform="translate(105.786 220.337)" fill="#fff"/>
    <ellipse id="Ellipse_536" data-name="Ellipse 536" cx="5.068" cy="5.022" rx="5.068" ry="5.022" transform="translate(116.265 217.94)" fill="#fff"/>
    <ellipse id="Ellipse_537" data-name="Ellipse 537" cx="2.304" cy="2.283" rx="2.304" ry="2.283" transform="translate(118.566 211.207)" fill="#fff"/>
    <ellipse id="Ellipse_538" data-name="Ellipse 538" cx="3.109" cy="3.081" rx="3.109" ry="3.081" transform="translate(127.207 225.93)" fill="#fff"/>
    <ellipse id="Ellipse_539" data-name="Ellipse 539" cx="6.105" cy="6.049" rx="6.105" ry="6.049" transform="translate(123.175 254.114)" fill="#fff"/>
    <ellipse id="Ellipse_540" data-name="Ellipse 540" cx="4.951" cy="4.905" rx="4.951" ry="4.905" transform="translate(136.767 255.257)" fill="#fff"/>
    <ellipse id="Ellipse_541" data-name="Ellipse 541" cx="2.304" cy="2.283" rx="2.304" ry="2.283" transform="translate(117.301 266.321)" fill="#fff"/>
    <ellipse id="Ellipse_542" data-name="Ellipse 542" cx="6.333" cy="6.275" rx="6.333" ry="6.275" transform="translate(121.447 268.265)" fill="#fff"/>
    <ellipse id="Ellipse_543" data-name="Ellipse 543" cx="2.65" cy="2.626" rx="2.65" ry="2.626" transform="translate(134.804 266.663)" fill="#fff"/>
    <ellipse id="Ellipse_544" data-name="Ellipse 544" cx="2.418" cy="2.396" rx="2.418" ry="2.396" transform="translate(120.988 284.125)" fill="#fff"/>
    <ellipse id="Ellipse_545" data-name="Ellipse 545" cx="5.528" cy="5.477" rx="5.528" ry="5.477" transform="translate(109.814 274.995)" fill="#fff"/>
    <path id="Path_4647" data-name="Path 4647" d="M982.165,222.589a110.96,110.96,0,0,0-119.458-23.78,108.814,108.814,0,0,0-2.44,201.2v47.4l21.98,31.922h17.724a4.569,4.569,0,0,0-.024.49V676.2H383.833V472.044h3.614l8.907-9.678v-17.6h-4.529V427.357a3.058,3.058,0,0,0-6.115,0v17.414H371.8V427.357a3.059,3.059,0,0,0-6.112,0v17.414H360.73v17.6l8.907,9.678h3.832v209.29a5.159,5.159,0,0,0,5.182,5.135H905.129a5.159,5.159,0,0,0,5.182-5.135V479.818a4.621,4.621,0,0,0-.024-.49h15.924L948.2,447.407v-47.4a108.771,108.771,0,0,0,33.969-177.416Zm-46,170.96a100.967,100.967,0,0,1-57.055,2.02l-11.294-72.9c1.34-3.564,2.149-8.938,3.137-15.511a123.2,123.2,0,0,1,2.54-13.566,122.507,122.507,0,0,1,2.539,13.566c1.841,12.221,3.054,20.293,8.219,20.293s6.378-8.072,8.216-20.293a123.232,123.232,0,0,1,2.539-13.566,122.441,122.441,0,0,1,2.543,13.566c1.838,12.221,3.054,20.293,8.216,20.293s6.381-8.072,8.219-20.293a123.274,123.274,0,0,1,2.54-13.566,122.412,122.412,0,0,1,2.543,13.566c1.838,12.221,3.054,20.293,8.216,20.293s6.381-8.072,8.219-20.3a122.328,122.328,0,0,1,2.543-13.563,123.134,123.134,0,0,1,2.539,13.566c.929,6.162,1.7,11.3,2.9,14.829l-6.83,71.392ZM941.7,391.5l6.125-64.148.781-8.151c-.674-2.509-1.3-6.145-1.817-9.4-.2-1.239-.373-2.424-.532-3.471-1.838-12.224-3.054-20.3-8.216-20.3s-6.381,8.072-8.219,20.293a122.276,122.276,0,0,1-2.543,13.566,123.137,123.137,0,0,1-2.54-13.566c-1.838-12.221-3.054-20.293-8.219-20.293s-6.378,8.072-8.216,20.293a122.485,122.485,0,0,1-2.543,13.566,123.26,123.26,0,0,1-2.54-13.566c-1.838-12.221-3.054-20.293-8.219-20.293s-6.378,8.072-8.216,20.293a123.26,123.26,0,0,1-2.54,13.566,122.508,122.508,0,0,1-2.539-13.563c-1.842-12.224-3.054-20.3-8.219-20.3s-6.378,8.062-8.213,20.272v.024a123.317,123.317,0,0,1-2.539,13.563l.912,7.48,10.337,66.753q-.85-.267-1.7-.551c-39.445-13.227-67.911-50.253-67.911-93.742,0-54.549,44.79-98.931,99.849-98.931s99.849,44.382,99.849,98.931c.007,41.414-25.846,76.978-62.379,91.688Z" transform="translate(-236.101 -125.428)" fill="#fff"/>
    <path id="Path_4648" data-name="Path 4648" d="M2161.076,128.145a2.072,2.072,0,0,1-1.913-1.268,2.042,2.042,0,0,1,.448-2.237l25.913-25.674a2.086,2.086,0,0,1,2.931,0,2.041,2.041,0,0,1,0,2.9l-25.913,25.674A2.083,2.083,0,0,1,2161.076,128.145Z" transform="translate(-1413.078 -64.692)" fill="#fff"/>
    <path id="Path_4649" data-name="Path 4649" d="M1655.985,128.139a2.082,2.082,0,0,1-1.465-.6l-25.913-25.674a2.041,2.041,0,0,1,0-2.9,2.087,2.087,0,0,1,2.932,0l25.912,25.674a2.04,2.04,0,0,1,.449,2.237,2.073,2.073,0,0,1-1.914,1.268Z" transform="translate(-1065.533 -64.686)" fill="#fff"/>
    <path id="Path_4650" data-name="Path 4650" d="M1933.073,40.415A2.063,2.063,0,0,1,1931,38.361V2.054a2.073,2.073,0,0,1,4.146,0V38.361A2.063,2.063,0,0,1,1933.073,40.415Z" transform="translate(-1263.847)" fill="#fff"/>
  </g>
</svg>
