<?xml version="1.0" encoding="utf-8"?>
<!-- Generator: Adobe Illustrator 23.0.1, SVG Export Plug-In . SVG Version: 6.00 Build 0)  -->
<svg version="1.1" id="Asset_15" xmlns="http://www.w3.org/2000/svg" xmlns:xlink="http://www.w3.org/1999/xlink" x="0px" y="0px"
	 viewBox="0 0 595.9 647.9" style="enable-background:new 0 0 595.9 647.9;" xml:space="preserve">
<style type="text/css">
	.st0{fill:#8E44AD;}
	.st1{fill:#FFFFFF;}
</style>
<g id="Explore" transform="translate(0 0)">
	<g>
		<path id="Path_4643" class="st0" d="M205,248.6v1.6c0.2,24.4,5,48.6,14.3,71.2c-37.7,23.1-86.3,17.9-118.2-12.8
			c-0.3,0.1-0.6,0.2-0.8,0.3c-23.6,8.1-49.4-4.4-57.7-28c-0.1-0.2-0.1-0.4-0.2-0.6c-27.5-4.5-46.2-30.5-41.7-58
			c3-18.5,16-33.8,33.8-39.7c3-1,6.1-1.8,9.3-2.2c-5.6-13.8-5.1-29.3,1.5-42.7c13-26.1,44.6-36.8,70.9-24.1
			c8.8,4.2,16.3,10.9,21.5,19.1c1.9-13.3,10.4-24.8,22.7-30.3c12.3-5.6,26.6-4.7,38,2.5c9.8-17.3,25.6-30.4,44.5-36.7
			c23.1-7.9,48.4-5.1,69.2,7.7C248.6,107.8,205,173.2,205,248.6z"/>
		<path id="Path_4644" class="st0" d="M43.5,52.5c-1-5.6,0.6-11.3,4.3-15.6c3.7-4.3,9.2-6.7,14.9-6.6c-2.3-10,3.5-20,13.3-23.1
			c9.8-3.2,20.3,1.6,24.4,11c1.5-4.8,5.4-8.6,10.2-9.9c4.9-1.4,10.1-0.2,13.9,3.2c10.7-13.2,30-15.2,43.2-4.6
			c0.8,0.6,1.5,1.3,2.2,1.9c0.5-0.1,0.9-0.2,1.4-0.3c21.8-4,42.7,10.4,46.7,32.2s-10.4,42.7-32.2,46.7c-0.2,0-0.5,0.1-0.7,0.1
			c-7.4,1.3-15,0.5-22-2.3c-5.1,8.9-16.5,11.9-25.4,6.7c-2.8-1.6-5.2-4-6.8-6.9c-14.3,14.2-37.4,14-51.5-0.3
			c-1.1-1.2-2.2-2.4-3.2-3.7l-0.3,0.1c-9.2,1.6-18-4.5-19.7-13.8c0-0.1,0-0.2,0-0.2C49.5,65,44.7,59.3,43.5,52.5L43.5,52.5z"/>
	</g>
	<path id="Path_4645" class="st1" d="M400.5,55c-30.7-0.1-60.9,7.1-88.3,20.9c-63.5,32-107.1,97.3-107.1,172.7v1.6
		c0.2,24.4,5,48.6,14.3,71.2c1.6,4,3.4,7.9,5.3,11.8l22.9,35.9l84.6,133l9.3,14.7l4.5,7h0.2l-0.4,62.5h-0.6c-2.6,0-4.8,2.1-4.8,4.7
		c0,0,0,0,0,0v52.1c0,2.6,2.1,4.7,4.8,4.7h0h110.8c2.6,0,4.8-2.1,4.8-4.7c0,0,0,0,0,0V591c0-2.6-2.1-4.7-4.8-4.7h0h-1l0.1-11.7
		l57.2,1.1c0.1,0,0.1,0,0.2,0c0.9,0,1.5-1.1,2-3.7c0.7-5.1,0.7-10.4,0-15.5c-0.4-2.6-1-3.7-2-3.7c-0.1,0-0.1,0-0.2,0l-57.1,1.1
		l0.2-30.5l4.2-6.6l9.3-14.7l84.6-133l22.9-35.9c12.7-25.8,19.4-54.2,19.6-82.9c0-0.5,0-1.1,0-1.6C595.9,141.7,508.4,55,400.5,55z
		 M512.3,553.4L512.3,553.4c1,0,1.8,4.8,1.8,10.8s-0.8,10.8-1.8,10.8l0,0c-1,0-1.8-4.8-1.8-10.8S511.2,553.4,512.3,553.4z
		 M387.8,586.2l11.5-16.5l5.1,0.3l5.6,16.2L387.8,586.2z M412.4,586.2l-5.3-15.4l26.2,1.5l-7.5,13.9H412.4z M428.3,586.2l7.4-13.8
		l3.4,0.2l4.9,13.6H428.3z M452.6,586.2h-6.2l-4.9-13.4l7.7,0.4v1.2l3.5,0.1L452.6,586.2z M452.8,553.9l-3.6,0.1v1.1l-43,2.5v0.6
		l-26.6,1.7v0c-0.3,0-1,0.1-1,4.3s0.7,4.3,1,4.3v0l17.1,1.1l-11.6,16.7h-37.2l0.4-62.5H453L452.8,553.9z M380.1,564.2
		c0,2.1-0.3,3.9-0.6,3.9h0c-0.3,0-0.6-1.8-0.6-3.9s0.3-3.8,0.6-3.9h0C379.9,560.3,380.1,562,380.1,564.2L380.1,564.2z M571.7,278.6
		c-5.6,35.1-18.1,59.7-19.5,62.4l0,0l-87.5,161.1h-3.2l88.2-162.4c1.4-2.7,13.7-26.8,19.2-61.5c7.1-44.8-0.2-85.9-21.7-122
		c-27.5-46.2-69.7-68.6-97-78.9c-2,4.9-10.2,9.1-21.8,11.6c7.9,5.8,15.3,12.1,22.4,18.8c11.3,10.9,21.4,22.9,30,36
		c19.6,29.9,30.6,64.5,32.1,100.2c0.6,14.1-0.4,28.2-2.7,42.1c-2.9,17.4-8,34.4-15.2,50.5l-62.1,165.6h-3l62.5-166.7l0,0
		c9.4-20.7,29-75.7,9.4-140.2c-16.4-54-51.5-87.4-77.1-105.6c-2.6,0.4-5.4,0.8-8.3,1.1c-3.7,0.3-7.5,0.5-11.5,0.5
		c-4.9,0-9.9-0.3-14.7-0.9c-25.5,18.3-59.9,51.6-76.1,104.9c-13.4,44.1-8.5,83.8-1,111c2.7,10,6.2,19.7,10.4,29.1l0,0.1l62.5,166.6
		h-3l-62.1-165.6c-4.2-9.3-7.6-18.9-10.3-28.7c-2-7.2-3.6-14.5-4.9-21.8c-2.3-13.9-3.3-28-2.7-42.1c1.4-35.7,12.5-70.3,32.1-100.2
		c8.6-13.1,18.7-25.2,30-36c6.7-6.4,13.7-12.4,21.2-17.9c-16-2.5-27.1-8.2-27.1-14.8c0-0.2,0-0.4,0-0.6
		c-26.2,8.6-74.9,30.6-105.4,81.9c-21.5,36.1-28.8,77.2-21.7,122c1.5,9.5,3.6,18.9,6.3,28.1c3.2,11.5,7.6,22.7,12.9,33.4l88.2,162.4
		h-3.2L248.6,341c-5.2-10.4-9.4-21.2-12.7-32.4c-2.9-9.8-5.2-19.8-6.8-30c-3.2-19.3-3.4-39.1-0.8-58.5c3.2-23.1,11-45.3,22.9-65.4
		c9.1-15.2,20.3-29,33.4-40.9c11.1-10,23.2-18.8,36.3-26c11.6-6.5,23.8-11.8,36.4-16c1.1-0.3,2.1-0.7,3.1-1c5.1-7,23-12.1,44.4-12.1
		c24.7,0,44.9,6.9,45.8,15.6c10.1,3.7,19.9,8.2,29.3,13.5c13.1,7.2,25.2,16,36.3,26c13.1,11.9,24.4,25.7,33.4,40.9
		c11.9,20,19.7,42.3,22.9,65.4C575.1,239.5,574.8,259.2,571.7,278.6L571.7,278.6z"/>
</g>
</svg>
