<svg id="Asset_7" data-name="Asset 7" xmlns="http://www.w3.org/2000/svg" width="890.24" height="678.953" viewBox="0 0 890.24 678.953">
  <g id="Career_at" data-name="Career at" transform="translate(0 0)">
    <ellipse id="Ellipse_448" data-name="Ellipse 448" cx="12.594" cy="12.479" rx="12.594" ry="12.479" transform="translate(813.16 72.427)" fill="#fff"/>
    <path id="Path_4553" data-name="Path 4553" d="M1104.3,1.424a7.453,7.453,0,0,0-9.971,1.084,7.287,7.287,0,0,0,.269,9.935L1080.1,31.992c-13.3-6.422-51.525,25.711-86.919,73.451A389.216,389.216,0,0,0,961.388,155.4a48.586,48.586,0,0,0-39.4,2.282,47.818,47.818,0,0,0-24.461,30.682,48.493,48.493,0,0,1,49.938-6.082c.577.254,1.121.517,1.675.794l.358-.791c-2.393,7.068-3.694,13.141-3.777,17.932L796.761,389.547a30.757,30.757,0,0,0-41.969,5.259L597.684,305.98a30.2,30.2,0,0,0-15.264-31.074,30.789,30.789,0,0,0-34.716,3.335,30.1,30.1,0,0,0-8.954,33.4L349.125,490.078a30.731,30.731,0,0,0-38.686,10.1,30.081,30.081,0,0,0,4.542,39.382,30.777,30.777,0,0,0,39.988,1.19,30.093,30.093,0,0,0,6.918-39.041l187.241-176.2a30.765,30.765,0,0,0,41.116-4l157.892,89.269a30.181,30.181,0,0,0,13.372,28.195,30.8,30.8,0,0,0,31.4,1.586,30.245,30.245,0,0,0,16.2-26.7,29.921,29.921,0,0,0-1.692-9.959L959.073,211.125c4.758-1.334,10.57-4.474,17.107-9.142l-.484.431c.427.437.848.886,1.26,1.34A47.357,47.357,0,0,1,986.02,252.8a47.478,47.478,0,0,0,12.686-70.209,391.58,391.58,0,0,0,38.613-44.995c35.418-47.76,54.955-93.535,44.757-104.153l14.494-19.549a7.443,7.443,0,0,0,9.709-2.679,7.294,7.294,0,0,0-1.982-9.791Zm-58.767,99.734a16.859,16.859,0,1,1,14.258-19.221,16.736,16.736,0,0,1-3.107,12.539A17.038,17.038,0,0,1,1045.531,101.158Z" transform="translate(-217.134 0.006)" fill="#fff"/>
    <path id="Path_4554" data-name="Path 4554" d="M65.056,1793.471q0-1.054-.081-2.088l8.791-4.837a36.421,36.421,0,0,0-1.442-5.35l-10.048.163a27.6,27.6,0,0,0-2.113-3.614l5.167-8.539a37.523,37.523,0,0,0-3.956-3.919l-8.61,5.119a27.831,27.831,0,0,0-3.65-2.094l.167-9.953a36.722,36.722,0,0,0-5.4-1.428L39,1765.637c-.692-.054-1.4-.08-2.108-.08s-1.41.025-2.108.077l-4.879-8.7a36.556,36.556,0,0,0-5.4,1.428l.164,9.953a28.019,28.019,0,0,0-3.65,2.094l-8.618-5.119a37.524,37.524,0,0,0-3.956,3.919l5.167,8.539a27.266,27.266,0,0,0-2.113,3.614L1.442,1781.2A36.767,36.767,0,0,0,0,1786.546l8.785,4.839c-.052.686-.078,1.383-.078,2.086s.026,1.4.078,2.085L0,1800.393a36.516,36.516,0,0,0,1.442,5.351l10.048-.163a27.49,27.49,0,0,0,2.116,3.616l-5.167,8.537a37.824,37.824,0,0,0,3.959,3.919l8.615-5.12a28.312,28.312,0,0,0,3.647,2.091l-.153,9.956a37.391,37.391,0,0,0,5.4,1.428l4.879-8.7q1.041.077,2.1.077c.709,0,1.413-.026,2.1-.077l4.884,8.7a37.39,37.39,0,0,0,5.4-1.428l-.167-9.956a28.2,28.2,0,0,0,3.647-2.091l8.618,5.119a38.089,38.089,0,0,0,3.956-3.919l-5.167-8.539a27.953,27.953,0,0,0,2.116-3.614l10.045.163a36.434,36.434,0,0,0,1.442-5.351l-8.788-4.834Q65.056,1794.528,65.056,1793.471Zm-28.175,20.2a20.207,20.207,0,1,1,20.4-20.206,20.3,20.3,0,0,1-20.4,20.206Z" transform="translate(0 -1255.008)" fill="#fff"/>
    <path id="Path_4555" data-name="Path 4555" d="M441.494,1969.335q0-.8-.061-1.583l6.663-3.665a27.715,27.715,0,0,0-1.1-4.06l-7.618.126a21.1,21.1,0,0,0-1.6-2.74l3.933-6.474a28.49,28.49,0,0,0-3-2.971l-6.542,3.879a21.3,21.3,0,0,0-2.768-1.585l.124-7.548a27.891,27.891,0,0,0-4.094-1.085l-3.7,6.6c-.525-.04-1.058-.06-1.6-.06s-1.07.02-1.6.057l-3.7-6.6a27.9,27.9,0,0,0-4.094,1.085l.124,7.548a21.1,21.1,0,0,0-2.765,1.585l-6.531-3.879a28.763,28.763,0,0,0-3,2.968l3.933,6.476a20.8,20.8,0,0,0-1.6,2.74l-7.623-.135a27.724,27.724,0,0,0-1.1,4.06l6.663,3.668c-.04.52-.061,1.048-.061,1.58s.02,1.06.061,1.583l-6.672,3.679a27.725,27.725,0,0,0,1.1,4.059l7.618-.125a20.71,20.71,0,0,0,1.6,2.742l-3.918,6.465a28.19,28.19,0,0,0,3,2.971l6.531-3.88a21.214,21.214,0,0,0,2.765,1.586l-.124,7.548a28.363,28.363,0,0,0,4.094,1.086l3.7-6.6c.525.037,1.058.057,1.594.057s1.07-.02,1.6-.057l3.7,6.6a28.228,28.228,0,0,0,4.094-1.086l-.124-7.548a21.205,21.205,0,0,0,2.765-1.586l6.531,3.88a28.471,28.471,0,0,0,3.016-2.971l-3.918-6.473a21.11,21.11,0,0,0,1.6-2.74l7.618.126a27.687,27.687,0,0,0,1.1-4.057l-6.686-3.668C441.474,1970.4,441.494,1969.869,441.494,1969.335Zm-21.362,15.318a15.319,15.319,0,1,1,15.463-15.319,15.389,15.389,0,0,1-15.463,15.319Z" transform="translate(-279.096 -1386.943)" fill="#fff"/>
    <path id="Path_4556" data-name="Path 4556" d="M142.123,2042.07c0-1.071-.037-2.137-.121-3.186l13.407-7.376a55.5,55.5,0,0,0-2.2-8.165l-15.328.249a42.451,42.451,0,0,0-3.224-5.514l7.883-13.021a57.125,57.125,0,0,0-6.038-5.974l-13.142,7.8a42.719,42.719,0,0,0-5.571-3.194l.254-15.187a57,57,0,0,0-8.24-2.185l-7.448,13.284c-1.058-.08-2.134-.12-3.215-.12s-2.151.04-3.215.117l-7.453-13.281a56.961,56.961,0,0,0-8.238,2.185l.251,15.187a42.9,42.9,0,0,0-5.565,3.194l-13.13-7.8a57.62,57.62,0,0,0-6.038,5.977l7.883,13.027a42.131,42.131,0,0,0-3.224,5.513l-15.33-.249a55.5,55.5,0,0,0-2.2,8.165l13.4,7.382q-.115,1.575-.118,3.18t.118,3.182l-13.4,7.376a55.14,55.14,0,0,0,2.2,8.153l15.328-.249a42,42,0,0,0,3.226,5.518l-7.883,13.015a56.979,56.979,0,0,0,6.038,6l13.13-7.819a42.7,42.7,0,0,0,5.565,3.191l-.251,15.189a57.1,57.1,0,0,0,8.24,2.183l7.445-13.282q1.592.114,3.212.117c1.081,0,2.154-.04,3.212-.117l7.465,13.282a57.027,57.027,0,0,0,8.24-2.183l-.254-15.189a42.329,42.329,0,0,0,5.565-3.191l13.142,7.819a57.577,57.577,0,0,0,6.038-6l-7.883-13.027a42.43,42.43,0,0,0,3.226-5.514l15.325.249a55.437,55.437,0,0,0,2.2-8.159l-13.4-7.38C142.1,2044.222,142.123,2043.145,142.123,2042.07ZM99.139,2072.9a30.826,30.826,0,1,1,31.114-30.826A30.968,30.968,0,0,1,99.139,2072.9Z" transform="translate(-30.516 -1418.866)" fill="#fff"/>
  </g>
</svg>
