<svg xmlns="http://www.w3.org/2000/svg" viewBox="0 0 187 120"><defs><style>.cls-1{fill:#3498db;}.cls-2,.cls-3,.cls-4,.cls-5{fill:none;stroke:#3498db;}.cls-2,.cls-3,.cls-4{stroke-miterlimit:10;}.cls-2{stroke-width:3px;}.cls-4,.cls-5{stroke-linecap:round;}.cls-5{stroke-linejoin:round;}</style></defs><title>the-strategy</title><g id="Layer_2" data-name="Layer 2"><g id="Layer_1-2" data-name="Layer 1"><circle class="cls-1" cx="160.5" cy="51.79" r="5.67"/><path class="cls-1" d="M171.16,69.94a10.66,10.66,0,0,0-21.32,0C149.84,75.83,171.16,75.83,171.16,69.94Z"/><circle class="cls-1" cx="28.5" cy="51.79" r="5.67"/><path class="cls-1" d="M39.16,69.94a10.66,10.66,0,0,0-21.32,0C17.84,75.83,39.16,75.83,39.16,69.94Z"/><rect class="cls-2" x="1.5" y="1.5" width="184" height="117" rx="9.17" ry="9.17"/><rect class="cls-3" x="72" y="21.95" width="43" height="76.57" rx="2.38" ry="2.38"/><line class="cls-4" x1="78.5" y1="31.86" x2="108.5" y2="31.86"/><line class="cls-4" x1="79" y1="89.86" x2="109" y2="89.86"/><rect class="cls-3" x="78.5" y="38.86" width="30" height="10" rx="1.83" ry="1.83"/><polyline class="cls-5" points="82.5 64.86 89.5 59.86 98.5 65.86 104.5 59.86"/><polyline class="cls-5" points="82.5 71.86 89.5 66.86 98.5 72.86 104.5 66.86"/><polyline class="cls-5" points="82.5 78.86 89.5 73.86 98.5 79.86 104.5 73.86"/><polygon class="cls-1" points="135.6 50.49 135.6 47.61 125.5 47.61 125.5 41.61 135.6 41.61 135.6 38.73 143 44.61 135.6 50.49"/><polygon class="cls-1" points="135.6 82.49 135.6 79.61 125.5 79.61 125.5 73.61 135.6 73.61 135.6 70.73 143 76.61 135.6 82.49"/><polygon class="cls-1" points="62 41.61 62 47.61 51.9 47.61 51.9 50.49 44.5 44.61 51.9 38.73 51.9 41.61 62 41.61"/><polygon class="cls-1" points="62 73.61 62 79.61 51.9 79.61 51.9 82.49 44.5 76.61 51.9 70.73 51.9 73.61 62 73.61"/></g></g></svg>