<?xml version="1.0" encoding="utf-8"?>
<!-- Generator: Adobe Illustrator 23.0.1, SVG Export Plug-In . SVG Version: 6.00 Build 0)  -->
<svg version="1.1" id="Layer_1" xmlns="http://www.w3.org/2000/svg" xmlns:xlink="http://www.w3.org/1999/xlink" x="0px" y="0px"
	 viewBox="0 0 892.3 577" style="enable-background:new 0 0 892.3 577;" xml:space="preserve">
<style type="text/css">
	.st0{fill:#FFFFFF;}
	.st1{fill:#3498DB;}
	.st2{enable-background:new    ;}
	.st3{fill:none;stroke:#FFFFFF;stroke-width:10;stroke-linecap:round;stroke-linejoin:round;}
	.st4{fill:none;stroke:#FFFFFF;stroke-width:8;stroke-linecap:round;stroke-linejoin:round;}
</style>
<title>design-centeric-full-stack</title>
<g>
	<g id="Layer_1-2">
		<path class="st0" d="M888.3,304.4c-2.6-2.6-6-4-9.7-4H787v-257C787,19.4,767.6,0,743.7,0c0,0,0,0,0,0H174.3
			C150.4,0,131,19.4,131,43.3l0,0v21H13.7c-7.6-0.2-13.8,5.8-14,13.3c-0.2,7.6,5.8,13.8,13.3,14c0.2,0,0.5,0,0.7,0H61
			c7.6,0,13.7,6.1,13.7,13.7c0,7.6-6.1,13.7-13.7,13.7H41.1c-7.6,0.2-13.5,6.5-13.3,14c0.2,7.3,6,13.1,13.3,13.3H131v268.3
			c0,23.9,19.4,43.3,43.3,43.3H405v62h-57.5c-7.5,0-13.5,6-13.5,13.5s6,13.5,13.5,13.5H87c-8.3,0-15,6.7-15,15s6.7,15,15,15h734
			c8.3,0,15-6.7,15-15s-6.7-15-15-15H560.5c7.5,0,13.5-6,13.5-13.5s-6-13.5-13.5-13.5H503v-62h240.7c23.9,0,43.3-19.4,43.3-43.3l0,0
			v-32.3h36.5c7.6,0.2,13.8-5.8,14-13.3s-5.8-13.8-13.3-14c-0.2,0-0.5,0-0.7,0H821c-7.6,0-13.7-6.1-13.7-13.7
			c0-7.5,6.1-13.7,13.7-13.7h57.7c7.6,0,13.7-6.1,13.7-13.7C892.3,310.4,890.9,306.9,888.3,304.4L888.3,304.4z M758,409.8
			c0,9.5-7.7,17.3-17.3,17.3H177.3c-9.5,0-17.3-7.7-17.3-17.3V48.3c0-9.5,7.7-17.3,17.3-17.3h563.5c9.5,0,17.3,7.7,17.3,17.3V409.8z
			"/>
		<circle class="st0" cx="407" cy="123" r="8"/>
		<path class="st0" d="M405.1,65H278.8c-11.5,0-20.9,9.4-20.9,20.9c0,0,0,0,0,0V96h-35.3c-11.4,0-20.6,9.2-20.6,20.6v100.9
			c0,11.4,9.2,20.6,20.6,20.6h50.9c11.4,0,20.6-9.2,20.6-20.6v-36h111.1c11.5,0,20.9-9.4,20.9-20.9c0,0,0,0,0,0V85.9
			C426,74.4,416.6,65,405.1,65L405.1,65z M290,216.8c0,9.5-7.7,17.3-17.3,17.3l0,0h-49.5c-9.5,0-17.3-7.7-17.3-17.3l0,0v-99.5
			c0-9.5,7.7-17.3,17.3-17.3h49.5c9.5,0,17.3,7.7,17.3,17.3V216.8z M421,159.2c0,9.5-7.7,17.3-17.3,17.3H294v-59.9
			c0-11.4-9.2-20.6-20.6-20.6h-10.5v-8.8c0-9.5,7.7-17.3,17.3-17.3h123.6c9.5,0,17.3,7.7,17.3,17.3V159.2z"/>
		<circle class="st1" cx="407" cy="123" r="8"/>
		<circle class="st0" cx="248" cy="223" r="7"/>
		<circle class="st1" cx="248" cy="223" r="7"/>
		<g class="st2">
			<path class="st0" d="M199,376.5c0-8.7,7.3-15.7,16.1-15.8c3.9,0,7.4,1.3,10.1,3.4c1.1,0.9,1.2,2.4,0.4,3.5
				c-0.9,1.1-2.5,1.3-3.5,0.5c-1.9-1.6-4.3-2.4-7.1-2.4c-3,0-5.8,1.2-7.9,3.2c-2,2-3.2,4.6-3.2,7.6s1.2,5.7,3.2,7.6
				c2.1,1.9,4.9,3.2,7.9,3.2c2.7,0,5.1-0.8,7.1-2.4c1-0.7,2.6-0.6,3.5,0.5c0.8,1.1,0.6,2.7-0.4,3.5c-2.8,2.1-6.3,3.4-10.1,3.4
				C206.3,392.2,199,385.2,199,376.5z"/>
			<path class="st0" d="M233.2,384.6c0.8-1,2.2-1.1,3.2-0.3c1.9,1.6,5.3,3.4,8.4,3.4c2.2,0,4.2-0.7,5.5-1.6c1.3-1,1.9-2.1,1.9-3.2
				c0-0.6-0.1-1-0.4-1.4c-0.3-0.4-0.7-0.9-1.3-1.3c-1.3-0.8-3.4-1.6-6-2.1h-0.1c-2.1-0.4-4-0.9-5.7-1.7s-3.1-1.9-4.1-3.4
				c-0.7-1.1-1-2.3-1-3.6c0-2.6,1.5-4.9,3.5-6.4c2.1-1.5,4.7-2.3,7.6-2.3c4.2,0,7.3,2.1,9.6,3.5c1,0.7,1.3,2.1,0.6,3.1
				c-0.7,1.1-2.1,1.4-3.1,0.7c-2.2-1.5-4.4-2.8-7.1-2.8c-2,0-3.7,0.6-4.9,1.5c-1.2,0.9-1.7,1.8-1.7,2.8c0,0.5,0.1,0.9,0.3,1.2
				c0.2,0.4,0.6,0.7,1.2,1.1c1.1,0.8,3.1,1.5,5.5,1.9h0.1c2.2,0.4,4.3,1,6,1.8c1.8,0.9,3.4,2,4.4,3.6c0.7,1.1,1.1,2.4,1.1,3.7
				c0,2.8-1.6,5.2-3.8,6.8c-2.1,1.6-5,2.5-8.1,2.5c-4.7,0-8.7-2.4-11.2-4.4C232.5,387,232.4,385.6,233.2,384.6z"/>
			<path class="st0" d="M261.9,384.6c0.8-1,2.2-1.1,3.2-0.3c1.9,1.6,5.3,3.4,8.4,3.4c2.2,0,4.2-0.7,5.5-1.6c1.3-1,1.9-2.1,1.9-3.2
				c0-0.6-0.1-1-0.4-1.4c-0.3-0.4-0.7-0.9-1.3-1.3c-1.3-0.8-3.4-1.6-6-2.1h-0.1c-2.1-0.4-4-0.9-5.7-1.7c-1.7-0.8-3.1-1.9-4.1-3.4
				c-0.7-1.1-1-2.3-1-3.6c0-2.6,1.5-4.9,3.5-6.4c2.1-1.5,4.7-2.3,7.6-2.3c4.2,0,7.3,2.1,9.6,3.5c1,0.7,1.3,2.1,0.6,3.1
				c-0.7,1.1-2.1,1.4-3.1,0.7c-2.2-1.5-4.4-2.8-7.1-2.8c-2,0-3.7,0.6-4.9,1.5c-1.2,0.9-1.7,1.8-1.7,2.8c0,0.5,0.1,0.9,0.3,1.2
				c0.2,0.4,0.6,0.7,1.2,1.1c1.1,0.8,3.1,1.5,5.5,1.9h0.1c2.2,0.4,4.3,1,6,1.8c1.8,0.9,3.4,2,4.4,3.6c0.7,1.1,1.1,2.4,1.1,3.7
				c0,2.8-1.6,5.2-3.8,6.8c-2.1,1.6-5,2.5-8.1,2.5c-4.7,0-8.7-2.4-11.2-4.4C261.3,387,261.2,385.6,261.9,384.6z"/>
		</g>
		<circle class="st0" cx="248" cy="223" r="7"/>
		<circle class="st0" cx="407" cy="123" r="8"/>
		<polyline class="st3" points="309,317 376.5,249.5 417,290 506.5,200.5 546,240 666,120 		"/>
		<polyline class="st3" points="646.1,118 667.9,118 667.9,138 		"/>
		<polyline class="st4" points="688,296.3 692.1,300.3 719.4,327.7 727,335.3 688,374.2 		"/>
		<polyline class="st4" points="635.6,296.3 596.6,335.3 635.6,374.2 		"/>
		<line class="st4" x1="646" y1="392.5" x2="677.1" y2="276.5"/>
	</g>
</g>
</svg>
