<svg xmlns="http://www.w3.org/2000/svg" viewBox="0 0 686 814"><defs><style>.cls-1{fill:#2980b9;}</style></defs><title>landing-fullstack</title><g id="Layer_2" data-name="Layer 2"><g id="Layer_1-2" data-name="Layer 1"><path class="cls-1" d="M585.53,70.56a12.16,12.16,0,0,0,8.6,20.77h22a12.17,12.17,0,0,1,0,24.34H567.48a12.17,12.17,0,1,0,0,24.33H686V753.25A60.75,60.75,0,0,1,625.25,814H60.75A60.75,60.75,0,0,1,0,753.25V740H102.52a12.17,12.17,0,1,0,0-24.33H68.92a12.17,12.17,0,1,1,0-24.34h7a12.17,12.17,0,1,0,0-24.33H0V60.75A60.75,60.75,0,0,1,60.75,0h564.5A60.75,60.75,0,0,1,686,60.75V67H594.13A12.12,12.12,0,0,0,585.53,70.56Z"/></g></g></svg>