<?xml version="1.0" encoding="utf-8"?>
<!-- Generator: Adobe Illustrator 23.0.1, SVG Export Plug-In . SVG Version: 6.00 Build 0)  -->
<svg version="1.1" id="Layer_1" xmlns="http://www.w3.org/2000/svg" xmlns:xlink="http://www.w3.org/1999/xlink" x="0px" y="0px"
	 viewBox="0 0 1535 683.4" style="enable-background:new 0 0 1535 683.4;" xml:space="preserve">
<style type="text/css">
	.st0{fill:#FFFFFF;}
	.st1{enable-background:new    ;}
	.st2{fill:#3498DB;}
</style>
<title>cloud</title>
<g>
	<g id="Layer_1-2">
		<path class="st0" d="M1535,320.3c0,17.5-14.2,31.6-31.6,31.6h-300.9c-9.8,0-19-4.5-25-12.2l-79,32.3c21.1,57.8-8.6,121.9-66.5,143
			c-24,8.8-50.3,9-74.5,0.7c-18.8,7.8-39.9,7.7-58.6-0.1l82.9,72.9h54.5c17.5,0,31.6,14.1,31.6,31.6s-14.1,31.6-31.6,31.6
			c0,0,0,0,0,0h-105c-17.5,0-31.6-14.1-31.6-31.6c0-17.5,14.1-31.6,31.6-31.6c0,0,0,0,0,0h42.9l-96.7-85
			c-19.5,5.1-39.8,6.2-59.7,3.2c-45.1,33.4-104.4,40.6-156.2,19c-38.8,50.4-111.1,59.8-161.5,21c-9.5-7.3-17.8-16.1-24.6-26
			c-18.8,11.3-41.5,13.9-62.4,7.3l-84.4,92h165.9c17.5,0,31.6,14.1,31.6,31.6c0,17.5-14.1,31.6-31.6,31.6c0,0,0,0,0,0H157.1
			c-17.5,0-31.6-14.1-31.6-31.6s14.1-31.6,31.6-31.6c0,0,0,0,0,0H322l86.1-93.8c-14.8-5.9-27.4-16.3-36-29.6
			c-47.5,25.5-106.7,7.6-132.2-40c-21.6-40.3-12.3-90.3,22.4-120.1l-60.9-88.7H31.6C14.2,247.8,0,233.7,0,216.2s14.2-31.6,31.6-31.6
			h251.9c17.5,0,31.6,14.2,31.6,31.6s-14.2,31.6-31.6,31.6h-76l58.7,85.5c35.3-27.2,84.5-27,119.6,0.4c0-1,0-2,0-3.1
			c0.1-98.2,79.7-177.7,177.9-177.6c18.9,0,37.6,3,55.5,8.9l11.6-98.7H498.8c-17.5,0-31.6-14.2-31.6-31.6S481.3,0,498.7,0
			c0,0,0,0,0,0h278.4c17.5,0,31.6,14.2,31.6,31.6c0,17.5-14.2,31.6-31.6,31.6c0,0,0,0,0,0H636l-11.8,100.4
			c31,11.3,58.3,31,78.8,56.9c6.7-0.8,13.4-1.3,20.1-1.3c18,0,35.9,3,52.8,9c29.4-14.1,62.6-18.2,94.5-11.5l77.3-68.9
			c-12.9-11.8-13.8-31.8-2.1-44.7c6-6.6,14.4-10.3,23.3-10.3h313.1c17.5,0.3,31.4,14.7,31.1,32.2c-0.3,17-14,30.7-31.1,31.1H968.9
			c-6.1,0-12.1-1.8-17.2-5.1l-75.4,67.2c43.5,11.1,79.6,41.4,98.1,82.4c51.3-9,102.1,18.7,122.2,66.8l78.1-31.9
			c-8.4-15.3-2.7-34.5,12.6-42.9c4.6-2.5,9.9-3.9,15.1-3.9h300.9C1520.8,288.7,1535,302.8,1535,320.3z"/>
		<g class="st1">
			<path class="st2" d="M555.8,369.5c0.1-10.3,8.7-18.7,19.1-18.7c4.6,0,8.7,1.5,12,4.1c1.2,1,1.5,2.9,0.5,4.2c-1,1.3-3,1.5-4.2,0.6
				c-2.3-1.9-5.1-2.9-8.4-2.9c-3.6,0-6.9,1.5-9.4,3.7c-2.3,2.4-3.8,5.5-3.8,9s1.5,6.8,3.8,9c2.4,2.3,5.8,3.7,9.4,3.7
				c3.2,0,6-1,8.4-2.9c1.2-0.9,3.1-0.7,4.2,0.6c0.9,1.3,0.7,3.2-0.5,4.2c-3.3,2.5-7.4,4.1-12,4.1
				C564.5,388.2,555.8,379.8,555.8,369.5z"/>
		</g>
		<g class="st1">
			<path class="st2" d="M598.5,385.3v-30.7c0-1.6,1.2-2.9,2.9-2.9c1.6,0,2.9,1.3,2.9,2.9v27.8h14.1c1.5,0,2.9,1.3,2.9,2.9
				c0,1.6-1.4,2.9-2.9,2.9h-16.8c-0.1,0-0.1,0-0.1,0c-0.1,0-0.1,0-0.1,0C599.8,388.2,598.5,386.9,598.5,385.3z"/>
		</g>
		<g class="st1">
			<path class="st2" d="M655.5,356.3c3.2,3.4,5.3,8,5.3,13.2s-2,9.8-5.3,13.2c-3.1,3.4-7.6,5.6-12.4,5.6c-5,0-9.6-2.2-12.7-5.6
				c-3.2-3.4-5.1-8-5.1-13.2s1.9-9.7,5.1-13.2c3.2-3.4,7.7-5.6,12.7-5.6C647.8,350.8,652.4,352.9,655.5,356.3z M654.8,369.5
				c0-3.5-1.4-6.8-3.5-9.1c-2.2-2.3-5.1-3.7-8.2-3.7c-3.3,0-6.2,1.4-8.4,3.7c-2.2,2.3-3.5,5.6-3.5,9.1s1.4,6.8,3.5,9
				c2.2,2.3,5.1,3.7,8.4,3.7c3.1,0,6-1.4,8.2-3.7C653.4,376.3,654.8,373,654.8,369.5z"/>
		</g>
		<g class="st1">
			<path class="st2" d="M684.7,388.2c-8.4,0-15-6.8-15-15v-18.5c0-1.6,1.2-2.9,2.9-2.9c1.6,0,2.9,1.2,2.9,2.9v18.5
				c0,5.1,4.2,9.3,9.3,9.3c5.1,0,9.3-4.2,9.3-9.3v-18.5c0-1.6,1.3-2.9,2.9-2.9s2.9,1.2,2.9,2.9v18.5
				C699.8,381.4,693,388.2,684.7,388.2z"/>
		</g>
		<g class="st1">
			<path class="st2" d="M711.4,385.3v-30.7c0-1.6,1.2-2.9,2.9-2.9h6.1c10,0,18.1,8.2,18.1,18.1c0,10.1-8.1,18.3-18.1,18.3h-6.1
				C712.7,388.2,711.4,386.9,711.4,385.3z M717.2,382.4h3.2c6.9-0.1,12.4-5.6,12.4-12.5c0-6.8-5.5-12.4-12.4-12.4h-3.2V382.4z"/>
		</g>
		<g class="st1">
			<path class="st2" d="M1234.8,328.8h-0.1c-0.3,0-0.6-0.3-0.6-0.6v-17.3c0-0.3,0.3-0.6,0.6-0.6h0.1h3.4c5.1,0,9.3,4.2,9.3,9.3
				c0,5.1-4.2,9.3-9.3,9.3H1234.8z M1238.3,327.5c4.4,0,8-3.6,8-8c0-4.4-3.6-8-8-8h-2.8v16H1238.3z"/>
			<path class="st2" d="M1253.5,312.2c0-0.3,0.3-0.6,0.6-0.6c0.4,0,0.7,0.3,0.7,0.6v0.6c0,0.4-0.3,0.7-0.7,0.7
				c-0.3,0-0.6-0.3-0.6-0.7V312.2z M1253.5,316.5c0-0.4,0.3-0.6,0.6-0.6c0.4,0,0.7,0.3,0.7,0.6v11.7c0,0.3-0.3,0.6-0.7,0.6
				c-0.3,0-0.6-0.3-0.6-0.6V316.5z"/>
			<path class="st2" d="M1260.5,326.1c0.2-0.3,0.6-0.3,0.9-0.1c0.9,0.7,2.3,1.5,4,1.5c1,0,1.9-0.3,2.5-0.8c0.6-0.4,1-1,1-1.6
				c0-0.6-0.3-1-0.9-1.6c-0.6-0.4-1.5-0.7-2.8-1l-0.1,0c-1.2-0.2-2.2-0.5-2.9-1c-0.8-0.5-1.4-1.3-1.4-2.3c0-1,0.6-1.9,1.4-2.5
				c0.8-0.5,1.9-0.9,3.2-0.9c1.7,0,2.9,0.8,3.9,1.4c0.3,0.2,0.4,0.6,0.2,0.9s-0.6,0.4-0.9,0.2c-1-0.6-1.9-1.3-3.2-1.3
				c-1.1,0-1.9,0.3-2.5,0.7c-0.5,0.4-0.8,1-0.8,1.5c0,0.5,0.2,0.9,0.7,1.3c0.6,0.4,1.5,0.7,2.7,0.9h0.1c1.2,0.2,2.3,0.6,3.2,1.1
				c0.8,0.6,1.5,1.6,1.5,2.7c0,1.1-0.6,2-1.5,2.6c-0.9,0.7-2,1-3.2,1c-2.1,0-3.7-1-4.8-1.9C1260.3,326.7,1260.3,326.4,1260.5,326.1z
				"/>
			<path class="st2" d="M1285.8,316.5v11.7c0,0.3-0.3,0.6-0.6,0.6s-0.6-0.3-0.6-0.6v-1.9c-1.1,1.5-2.9,2.6-4.9,2.6
				c-3.4,0-6.2-2.9-6.2-6.5s2.7-6.5,6.2-6.5c2,0,3.8,1,4.9,2.5v-1.9c0-0.4,0.3-0.6,0.6-0.6S1285.8,316.1,1285.8,316.5z
				 M1284.6,322.3c0-2.9-2.2-5.3-4.9-5.3c-2.7,0-4.9,2.3-4.9,5.3s2.2,5.2,4.9,5.2C1282.4,327.5,1284.6,325.2,1284.6,322.3z"/>
		</g>
		<g class="st1">
			<path class="st2" d="M1291.1,326.1c0.2-0.3,0.6-0.3,0.9-0.1c0.9,0.7,2.3,1.5,4,1.5c1,0,1.9-0.3,2.5-0.8c0.6-0.4,1-1,1-1.6
				c0-0.6-0.3-1-0.9-1.6c-0.6-0.4-1.5-0.7-2.8-1l-0.1,0c-1.2-0.2-2.2-0.5-2.9-1c-0.8-0.5-1.4-1.3-1.4-2.3c0-1,0.6-1.9,1.4-2.5
				c0.8-0.5,1.9-0.9,3.2-0.9c1.7,0,2.9,0.8,3.9,1.4c0.3,0.2,0.4,0.6,0.2,0.9s-0.6,0.4-0.9,0.2c-1-0.6-1.9-1.3-3.2-1.3
				c-1.1,0-1.9,0.3-2.5,0.7c-0.5,0.4-0.8,1-0.8,1.5c0,0.5,0.2,0.9,0.7,1.3c0.6,0.4,1.5,0.7,2.7,0.9h0.1c1.2,0.2,2.3,0.6,3.2,1.1
				c0.8,0.6,1.5,1.6,1.5,2.7c0,1.1-0.6,2-1.5,2.6c-0.9,0.7-2,1-3.2,1c-2.1,0-3.7-1-4.8-1.9C1290.9,326.7,1290.9,326.4,1291.1,326.1z
				"/>
		</g>
		<g class="st1">
			<path class="st2" d="M1310.5,316.5c0,0.3-0.3,0.6-0.6,0.6h-1.7v9.5c0,0.6,0.6,1,1,1s0.7,0.3,0.7,0.7s-0.3,0.6-0.7,0.6
				c-1.3,0-2.3-1-2.3-2.3v-9.5h-1.6c-0.6,0-0.6-0.3-0.6-0.6s0-0.6,0.6-0.6h1.6V311c0-0.3,0.3-0.6,0.6-0.6c0.3,0,0.7,0.3,0.7,0.6v4.8
				h1.7C1310.2,315.8,1310.5,316.1,1310.5,316.5z"/>
		</g>
		<g class="st1">
			<path class="st2" d="M1315.1,322.3c0-3.6,2.8-6.5,6.3-6.5c3.3,0,6,2.7,6.3,6v0v0.1c0,0.3-0.3,0.6-0.6,0.6h-10.7
				c0.1,2.8,2.4,5,5,5c1.7,0,3.3-0.9,4.2-2.4c0.2-0.3,0.6-0.4,0.8-0.2c0.3,0.2,0.4,0.6,0.2,0.9c-1.1,1.8-3,2.9-5.3,2.9
				C1317.9,328.8,1315.1,325.9,1315.1,322.3z M1316.4,321.3h9.8c-0.4-2.4-2.5-4.2-4.9-4.2C1319,317.1,1316.9,318.8,1316.4,321.3z"/>
		</g>
		<g class="st1">
			<path class="st2" d="M1332.1,316.5c0-0.4,0.3-0.6,0.7-0.6c0.3,0,0.6,0.3,0.6,0.6v2.9c0.1-0.1,0.1-0.2,0.2-0.3
				c1-1.5,2.7-3.2,5.2-3.2c0.3,0,0.6,0.3,0.6,0.6c0,0.3-0.3,0.6-0.6,0.6c-1.7,0-2.9,1-3.8,2.1c-0.9,1.2-1.4,2.5-1.6,3
				c-0.1,0.1-0.1,0.2-0.1,0.2v5.7c0,0.4-0.3,0.6-0.6,0.6c-0.4,0-0.7-0.3-0.7-0.6V316.5z"/>
		</g>
		<g class="st1">
			<path class="st2" d="M1362.3,324.6c0-1.4-0.7-2.2-1.5-2.8c-0.8-0.6-1.8-0.9-2.1-0.9c-0.1,0-0.1-0.1-0.1-0.1h-4.5v7.3
				c0,0.3-0.3,0.6-0.7,0.6c-0.3,0-0.6-0.3-0.6-0.6v-17.3c0-0.3,0.3-0.6,0.6-0.6h0.1h0.1h5.2c2.9,0,5.3,2.4,5.3,5.3
				c0,2.1-1.2,4-3,4.8c0.1,0.1,0.2,0.1,0.3,0.1c1.2,0.7,2.5,2,2.5,4.1c0,1.1,0.1,1.8,0.2,2.1c0.1,0.3,0.2,0.4,0.3,0.5
				c0.3,0,0.6,0.1,0.7,0.4c0.1,0.3-0.1,0.7-0.4,0.8c0,0-0.2,0-0.3,0h-0.1c-0.3,0-0.9-0.3-1.2-0.8
				C1362.5,327.1,1362.3,326.2,1362.3,324.6z M1358.6,311.5h-4.6v8h4.5h0.2c2.1-0.1,3.9-1.8,3.9-4
				C1362.6,313.3,1360.8,311.5,1358.6,311.5z"/>
		</g>
		<g class="st1">
			<path class="st2" d="M1368.7,322.3c0-3.6,2.8-6.5,6.3-6.5c3.3,0,6,2.7,6.3,6v0v0.1c0,0.3-0.3,0.6-0.6,0.6H1370c0.1,2.8,2.4,5,5,5
				c1.7,0,3.3-0.9,4.2-2.4c0.2-0.3,0.6-0.4,0.8-0.2c0.3,0.2,0.4,0.6,0.2,0.9c-1.1,1.8-3,2.9-5.3,2.9
				C1371.5,328.8,1368.7,325.9,1368.7,322.3z M1370.1,321.3h9.8c-0.4-2.4-2.5-4.2-4.9-4.2C1372.6,317.1,1370.5,318.8,1370.1,321.3z"
				/>
		</g>
		<g class="st1">
			<path class="st2" d="M1385.4,322.3c0-3.6,3-6.5,6.7-6.5c1.5,0,3,0.5,4.1,1.4c0.3,0.2,0.3,0.6,0.1,0.9c-0.2,0.2-0.6,0.3-0.9,0.1
				c-0.9-0.7-2.1-1.2-3.3-1.2c-3,0-5.4,2.4-5.4,5.2c0,2.9,2.4,5.3,5.4,5.3c1.2,0,2.4-0.4,3.3-1.1c0.3-0.2,0.7-0.1,0.9,0.1
				c0.2,0.3,0.2,0.7-0.1,0.9c-1.1,0.8-2.5,1.4-4.1,1.4C1388.4,328.8,1385.4,325.9,1385.4,322.3z"/>
		</g>
		<g class="st1">
			<path class="st2" d="M1407.1,315.8c3.4,0,6.2,3,6.2,6.5c0,3.5-2.7,6.5-6.2,6.5c-3.4,0-6.2-3-6.2-6.5
				C1401,318.8,1403.7,315.8,1407.1,315.8z M1407.1,327.5c2.7,0,4.9-2.3,4.9-5.2s-2.2-5.3-4.9-5.3c-2.7,0-4.9,2.4-4.9,5.3
				S1404.5,327.5,1407.1,327.5z"/>
			<path class="st2" d="M1421.3,328.7c-0.1-0.1-0.2-0.2-0.2-0.3l-4.9-11.6c-0.1-0.3,0-0.7,0.3-0.8c0.3-0.1,0.7,0,0.8,0.3l4.3,10.2
				l4.3-10.2c0.1-0.3,0.5-0.5,0.8-0.3c0.3,0.1,0.5,0.5,0.3,0.8l-4.9,11.5c0,0.1-0.1,0.2-0.2,0.3c-0.1,0.1-0.3,0.2-0.4,0.2
				c-0.1,0-0.1,0-0.2,0c0,0,0,0-0.1,0C1421.4,328.8,1421.4,328.7,1421.3,328.7z"/>
		</g>
		<g class="st1">
			<path class="st2" d="M1432.1,322.3c0-3.6,2.8-6.5,6.3-6.5c3.3,0,6,2.7,6.3,6v0v0.1c0,0.3-0.3,0.6-0.6,0.6h-10.7
				c0.1,2.8,2.4,5,5,5c1.7,0,3.3-0.9,4.2-2.4c0.2-0.3,0.6-0.4,0.8-0.2c0.3,0.2,0.4,0.6,0.2,0.9c-1.1,1.8-3,2.9-5.3,2.9
				C1434.9,328.8,1432.1,325.9,1432.1,322.3z M1433.5,321.3h9.8c-0.4-2.4-2.5-4.2-4.9-4.2C1436,317.1,1434,318.8,1433.5,321.3z"/>
		</g>
		<g class="st1">
			<path class="st2" d="M1449.2,316.5c0-0.4,0.3-0.6,0.7-0.6c0.3,0,0.6,0.3,0.6,0.6v2.9c0.1-0.1,0.1-0.2,0.2-0.3
				c1-1.5,2.7-3.2,5.2-3.2c0.3,0,0.6,0.3,0.6,0.6c0,0.3-0.3,0.6-0.6,0.6c-1.7,0-2.9,1-3.8,2.1c-0.9,1.2-1.4,2.5-1.6,3
				c-0.1,0.1-0.1,0.2-0.1,0.2v5.7c0,0.4-0.3,0.6-0.6,0.6c-0.4,0-0.7-0.3-0.7-0.6V316.5z"/>
			<path class="st2" d="M1460.3,316.4c0-0.3,0.3-0.6,0.6-0.6c0.4,0,0.7,0.3,0.7,0.6v7.1c0,2.2,1.8,4,4,4c2.2,0,4-1.8,4-4v-7.1
				c0-0.1,0-0.2,0.1-0.3c0,0,0-0.1,0-0.1c0,0,0,0,0.1,0c0.1-0.1,0.2-0.1,0.2-0.2h0.1c0,0,0.1,0,0.1,0h0.1h0.1c0.1,0,0.2,0.1,0.3,0.1
				c0.1,0.1,0.1,0.1,0.2,0.2c0.1,0.1,0.1,0.2,0.1,0.3v7.1v0.2v4.1c0,3.4-2.8,6.1-6.2,6.1c-1,0-1.9-0.2-2.7-0.6
				c-0.3-0.2-0.4-0.6-0.3-0.8c0.2-0.3,0.5-0.4,0.8-0.3c0.6,0.3,1.4,0.5,2.1,0.5c2.7,0,4.9-2.1,4.9-4.8v-0.8c-1,1.1-2.4,1.9-4,1.9
				c-2.9,0-5.3-2.4-5.3-5.3V316.4z"/>
		</g>
		<g class="st1">
			<path class="st2" d="M529,39l8.7-7.8c1-1,1.6-2.2,1.6-3.6c0-1.1-0.4-2.3-1.2-3.2c-0.9-1-2.2-1.6-3.5-1.6c-1.2,0-2.3,0.4-3.2,1.2
				l-0.9,0.8c-0.3,0.3-0.7,0.2-0.9,0c-0.3-0.3-0.2-0.7,0-0.9l0.9-0.8c1.2-1,2.7-1.6,4.1-1.6c1.6,0,3.3,0.6,4.5,2
				c1.1,1.2,1.6,2.6,1.6,4.1c0,1.6-0.7,3.3-2,4.5l-7.4,6.7h8.8c0.3,0,0.6,0.3,0.6,0.7c0,0.3-0.3,0.6-0.6,0.6h-10.3h-0.1
				c-0.2,0-0.4-0.1-0.5-0.2C528.7,39.7,528.7,39.3,529,39z"/>
		</g>
		<g class="st1">
			<path class="st2" d="M555,36.4H545h0h-0.1c-0.1,0-0.3,0-0.4-0.1c-0.3-0.2-0.3-0.6-0.1-0.9L555.1,22l0,0c0.2-0.3,0.6-0.3,0.9-0.1
				c0.1,0.1,0.2,0.2,0.2,0.3c0,0.1,0,0.1,0,0.1v0.1v12.7h1.2c0.4,0,0.7,0.3,0.7,0.6s-0.3,0.6-0.7,0.6h-1.2v3.2
				c0,0.3-0.3,0.6-0.7,0.6c-0.3,0-0.6-0.3-0.6-0.6V36.4z M555,35.1V24.2l-8.8,10.9H555z"/>
			<path class="st2" d="M563,39.2l4-5.4l-4-5.5c-0.2-0.3-0.1-0.7,0.1-0.9c0.3-0.2,0.7-0.1,0.9,0.2l3.8,5.1l3.7-5.1
				c0.2-0.3,0.6-0.3,0.8-0.2c0.3,0.2,0.4,0.6,0.2,0.9l-4,5.5l4,5.4c0.2,0.3,0.1,0.7-0.2,0.9c-0.1,0.1-0.2,0.1-0.3,0.1
				c-0.2,0-0.4-0.1-0.5-0.3l-3.7-5.1l-3.8,5.1c-0.1,0.2-0.3,0.3-0.5,0.3c-0.1,0-0.2-0.1-0.4-0.1C562.9,39.8,562.8,39.5,563,39.2z"/>
			<path class="st2" d="M581.1,39.3l6.9-16.3h-9c-0.3,0-0.6-0.3-0.6-0.6s0.3-0.6,0.6-0.6h9.8c0.1,0,0.3,0,0.4,0
				c0.2,0.1,0.3,0.2,0.3,0.4c0,0.1,0.1,0.1,0.1,0.2c0,0.1,0,0.2-0.1,0.3l-7.2,17.1c-0.1,0.2-0.3,0.4-0.6,0.4c-0.1,0-0.2,0-0.3-0.1
				C581.1,40,581,39.6,581.1,39.3z"/>
		</g>
		<g class="st1">
			<path class="st2" d="M614.2,35.4h-8.5l-1.6,4.4c-0.1,0.3-0.3,0.4-0.6,0.4c-0.1,0-0.2,0-0.2,0c-0.3-0.1-0.5-0.5-0.4-0.8l6.4-17.2
				c0.1-0.2,0.4-0.4,0.6-0.4c0.3,0,0.6,0.2,0.6,0.4l6.4,17.2c0.1,0.3,0,0.7-0.3,0.8c-0.1,0-0.2,0-0.2,0c-0.2,0-0.5-0.2-0.6-0.4
				L614.2,35.4z M606.2,34.1h7.5l-3.7-10L606.2,34.1z"/>
		</g>
		<g class="st1">
			<path class="st2" d="M624,40.1c-0.1-0.1-0.2-0.2-0.2-0.3l-4.9-11.6c-0.1-0.3,0-0.7,0.3-0.8c0.3-0.1,0.7,0,0.8,0.3l4.3,10.2
				l4.3-10.2c0.1-0.3,0.5-0.5,0.8-0.3c0.3,0.1,0.5,0.5,0.3,0.8L625,39.7c0,0.1-0.1,0.2-0.2,0.3c-0.1,0.1-0.3,0.2-0.4,0.2
				c-0.1,0-0.1,0-0.2,0c0,0,0,0-0.1,0C624.1,40.1,624,40.1,624,40.1z"/>
		</g>
		<g class="st1">
			<path class="st2" d="M646,27.8v11.7c0,0.3-0.3,0.6-0.6,0.6s-0.6-0.3-0.6-0.6v-1.9c-1.1,1.5-2.9,2.6-4.9,2.6
				c-3.4,0-6.2-2.9-6.2-6.5s2.7-6.5,6.2-6.5c2,0,3.8,1,4.9,2.5v-1.9c0-0.4,0.3-0.6,0.6-0.6S646,27.4,646,27.8z M644.7,33.7
				c0-2.9-2.2-5.3-4.9-5.3c-2.7,0-4.9,2.3-4.9,5.3s2.2,5.2,4.9,5.2C642.5,38.9,644.7,36.6,644.7,33.7z"/>
		</g>
		<g class="st1">
			<path class="st2" d="M652.1,23.6c0-0.3,0.3-0.6,0.6-0.6c0.4,0,0.7,0.3,0.7,0.6v0.6c0,0.4-0.3,0.7-0.7,0.7c-0.3,0-0.6-0.3-0.6-0.7
				V23.6z M652.1,27.8c0-0.4,0.3-0.6,0.6-0.6c0.4,0,0.7,0.3,0.7,0.6v11.7c0,0.3-0.3,0.6-0.7,0.6c-0.3,0-0.6-0.3-0.6-0.6V27.8z"/>
		</g>
		<g class="st1">
			<path class="st2" d="M659.7,22.2c0-0.3,0.3-0.6,0.6-0.6c0.4,0,0.7,0.3,0.7,0.6v17.3c0,0.3-0.3,0.6-0.7,0.6
				c-0.3,0-0.6-0.3-0.6-0.6V22.2z"/>
			<path class="st2" d="M677.5,27.8v11.7c0,0.3-0.3,0.6-0.6,0.6s-0.6-0.3-0.6-0.6v-1.9c-1.1,1.5-2.9,2.6-4.9,2.6
				c-3.4,0-6.2-2.9-6.2-6.5s2.7-6.5,6.2-6.5c2,0,3.8,1,4.9,2.5v-1.9c0-0.4,0.3-0.6,0.6-0.6S677.5,27.4,677.5,27.8z M676.2,33.7
				c0-2.9-2.2-5.3-4.9-5.3c-2.7,0-4.9,2.3-4.9,5.3s2.2,5.2,4.9,5.2C674,38.9,676.2,36.6,676.2,33.7z"/>
			<path class="st2" d="M683.5,34v-0.3v-0.3V22.2c0-0.3,0.3-0.6,0.6-0.6c0.4,0,0.7,0.3,0.7,0.6v7.5c1.1-1.5,2.9-2.5,5-2.5
				c3.5,0,6.3,2.9,6.3,6.5c0,3.6-2.8,6.5-6.3,6.5c-2,0-3.8-1-5-2.5v1.9c0,0.3-0.3,0.6-0.7,0.6c-0.3,0-0.6-0.3-0.6-0.6V34z
				 M684.8,33.7c0,2.9,2.3,5.2,5,5.2c2.8,0,5-2.3,5-5.2c0-2.9-2.2-5.2-5-5.2c-2.7,0-4.9,2.2-5,5V33.7z"/>
		</g>
		<g class="st1">
			<path class="st2" d="M701.6,23.6c0-0.3,0.3-0.6,0.6-0.6c0.4,0,0.7,0.3,0.7,0.6v0.6c0,0.4-0.3,0.7-0.7,0.7c-0.3,0-0.6-0.3-0.6-0.7
				V23.6z M701.6,27.8c0-0.4,0.3-0.6,0.6-0.6c0.4,0,0.7,0.3,0.7,0.6v11.7c0,0.3-0.3,0.6-0.7,0.6c-0.3,0-0.6-0.3-0.6-0.6V27.8z"/>
		</g>
		<g class="st1">
			<path class="st2" d="M709.2,22.2c0-0.3,0.3-0.6,0.6-0.6c0.4,0,0.7,0.3,0.7,0.6v17.3c0,0.3-0.3,0.6-0.7,0.6
				c-0.3,0-0.6-0.3-0.6-0.6V22.2z"/>
			<path class="st2" d="M716.1,23.6c0-0.3,0.3-0.6,0.6-0.6c0.4,0,0.7,0.3,0.7,0.6v0.6c0,0.4-0.3,0.7-0.7,0.7c-0.3,0-0.6-0.3-0.6-0.7
				V23.6z M716.1,27.8c0-0.4,0.3-0.6,0.6-0.6c0.4,0,0.7,0.3,0.7,0.6v11.7c0,0.3-0.3,0.6-0.7,0.6c-0.3,0-0.6-0.3-0.6-0.6V27.8z"/>
			<path class="st2" d="M728.6,27.8c0,0.3-0.3,0.6-0.6,0.6h-1.7v9.5c0,0.6,0.6,1,1,1s0.7,0.3,0.7,0.7s-0.3,0.6-0.7,0.6
				c-1.3,0-2.3-1-2.3-2.3v-9.5h-1.6c-0.6,0-0.6-0.3-0.6-0.6s0-0.6,0.6-0.6h1.6v-4.8c0-0.3,0.3-0.6,0.6-0.6c0.3,0,0.7,0.3,0.7,0.6
				v4.8h1.7C728.3,27.2,728.6,27.5,728.6,27.8z"/>
			<path class="st2" d="M734.1,27.8c0-0.3,0.3-0.6,0.6-0.6c0.4,0,0.7,0.3,0.7,0.6v7.1c0,2.2,1.8,4,4,4c2.2,0,4-1.8,4-4v-7.1
				c0-0.1,0-0.2,0.1-0.3c0,0,0-0.1,0-0.1c0,0,0,0,0.1,0c0.1-0.1,0.2-0.1,0.2-0.2h0.1c0,0,0.1,0,0.1,0h0.1h0.1c0.1,0,0.2,0.1,0.3,0.1
				c0.1,0.1,0.1,0.1,0.2,0.2c0.1,0.1,0.1,0.2,0.1,0.3v7.1v0.2v4.1c0,3.4-2.8,6.1-6.2,6.1c-1,0-1.9-0.2-2.7-0.6
				c-0.3-0.2-0.4-0.6-0.3-0.8c0.2-0.3,0.5-0.4,0.8-0.3c0.6,0.3,1.4,0.5,2.1,0.5c2.7,0,4.9-2.1,4.9-4.8v-0.8c-1,1.1-2.4,1.9-4,1.9
				c-2.9,0-5.3-2.4-5.3-5.3V27.8z"/>
		</g>
		<g class="st1">
			<path class="st2" d="M73.2,206.9c0-0.3,0.3-0.6,0.6-0.6h0.1h5.2c2.9,0,5.3,2.4,5.3,5.3s-2.4,5.3-5.3,5.3l-4.6,0.1v7.3
				c0,0.3-0.3,0.6-0.7,0.6c-0.3,0-0.6-0.3-0.6-0.6V206.9z M79.1,215.6c2.2,0,4-1.8,4-4s-1.8-4-4-4h-4.6v8H79.1z"/>
		</g>
		<g class="st1">
			<path class="st2" d="M99.8,212.4v11.7c0,0.3-0.3,0.6-0.6,0.6s-0.6-0.3-0.6-0.6v-1.9c-1.1,1.5-2.9,2.6-4.9,2.6
				c-3.4,0-6.2-2.9-6.2-6.5s2.7-6.5,6.2-6.5c2,0,3.8,1,4.9,2.5v-1.9c0-0.4,0.3-0.6,0.6-0.6S99.8,212.1,99.8,212.4z M98.5,218.3
				c0-2.9-2.2-5.3-4.9-5.3c-2.7,0-4.9,2.3-4.9,5.3s2.2,5.2,4.9,5.2C96.3,223.5,98.5,221.2,98.5,218.3z"/>
		</g>
		<g class="st1">
			<path class="st2" d="M105.5,212.4c0-0.3,0.3-0.6,0.6-0.6c0.4,0,0.7,0.3,0.7,0.6v7.1c0,2.2,1.8,4,4,4c2.2,0,4-1.8,4-4v-7.1
				c0-0.1,0-0.2,0.1-0.3c0,0,0-0.1,0-0.1c0,0,0,0,0.1,0c0.1-0.1,0.2-0.1,0.2-0.2h0.1c0,0,0.1,0,0.1,0h0.1h0.1c0.1,0,0.2,0.1,0.3,0.1
				c0.1,0.1,0.1,0.1,0.2,0.2c0.1,0.1,0.1,0.2,0.1,0.3v7.1v0.2v4.1c0,3.4-2.8,6.1-6.2,6.1c-1,0-1.9-0.2-2.7-0.6
				c-0.3-0.2-0.4-0.6-0.3-0.8c0.2-0.3,0.5-0.4,0.8-0.3c0.6,0.3,1.4,0.5,2.1,0.5c2.7,0,4.9-2.1,4.9-4.8v-0.8c-1,1.1-2.4,1.9-4,1.9
				c-2.9,0-5.3-2.4-5.3-5.3V212.4z"/>
		</g>
		<g class="st1">
			<path class="st2" d="M131.5,206.9c0-0.3,0.3-0.6,0.6-0.6h0.1h5.2c2.9,0,5.3,2.4,5.3,5.3s-2.4,5.3-5.3,5.3l-4.6,0.1v7.3
				c0,0.3-0.3,0.6-0.7,0.6c-0.3,0-0.6-0.3-0.6-0.6V206.9z M137.4,215.6c2.2,0,4-1.8,4-4s-1.8-4-4-4h-4.6v8H137.4z"/>
		</g>
		<g class="st1">
			<path class="st2" d="M146,218.3c0-3.6,2.8-6.5,6.3-6.5c3.3,0,6,2.7,6.3,6v0v0.1c0,0.3-0.3,0.6-0.6,0.6h-10.7c0.1,2.8,2.4,5,5,5
				c1.7,0,3.3-0.9,4.2-2.4c0.2-0.3,0.6-0.4,0.8-0.2c0.3,0.2,0.4,0.6,0.2,0.9c-1.1,1.8-3,2.9-5.3,2.9
				C148.8,224.8,146,221.9,146,218.3z M147.4,217.3h9.8c-0.4-2.4-2.5-4.2-4.9-4.2C149.9,213.1,147.9,214.8,147.4,217.3z"/>
		</g>
		<g class="st1">
			<path class="st2" d="M163.1,212.4c0-0.4,0.3-0.6,0.7-0.6c0.3,0,0.6,0.3,0.6,0.6v2.9c0.1-0.1,0.1-0.2,0.2-0.3
				c1-1.5,2.7-3.2,5.2-3.2c0.3,0,0.6,0.3,0.6,0.6c0,0.3-0.3,0.6-0.6,0.6c-1.7,0-2.9,1-3.8,2.1c-0.9,1.2-1.4,2.5-1.6,3
				c-0.1,0.1-0.1,0.2-0.1,0.2v5.7c0,0.4-0.3,0.6-0.6,0.6c-0.4,0-0.7-0.3-0.7-0.6V212.4z"/>
			<path class="st2" d="M184,206.9c0-0.3,0.3-0.6,0.6-0.6c0.4,0,0.7,0.3,0.7,0.6v10.4c0,3.4,2.8,6.2,6.2,6.2c3.4,0,6.2-2.8,6.2-6.2
				v-10.4c0-0.3,0.3-0.6,0.6-0.6c0.4,0,0.7,0.3,0.7,0.6v10.4c0,4.1-3.4,7.5-7.5,7.5c-4.1,0-7.5-3.4-7.5-7.5V206.9z"/>
			<path class="st2" d="M204.9,222.1c0.2-0.3,0.6-0.3,0.9-0.1c0.9,0.7,2.3,1.5,4,1.5c1,0,1.9-0.3,2.5-0.8c0.6-0.4,1-1,1-1.6
				c0-0.6-0.3-1-0.9-1.6c-0.6-0.4-1.5-0.7-2.8-1l-0.1,0c-1.2-0.2-2.2-0.5-2.9-1c-0.8-0.5-1.4-1.3-1.4-2.3c0-1,0.6-1.9,1.4-2.5
				c0.8-0.5,1.9-0.9,3.2-0.9c1.7,0,2.9,0.8,3.9,1.4c0.3,0.2,0.4,0.6,0.2,0.9s-0.6,0.4-0.9,0.2c-1-0.6-1.9-1.3-3.2-1.3
				c-1.1,0-1.9,0.3-2.5,0.7c-0.5,0.4-0.8,1-0.8,1.5c0,0.5,0.2,0.9,0.7,1.3c0.6,0.4,1.5,0.7,2.7,0.9h0.1c1.2,0.2,2.3,0.6,3.2,1.1
				c0.8,0.6,1.5,1.6,1.5,2.7c0,1.1-0.6,2-1.5,2.6c-0.9,0.7-2,1-3.2,1c-2.1,0-3.7-1-4.8-1.9C204.7,222.7,204.7,222.3,204.9,222.1z"/>
		</g>
		<g class="st1">
			<path class="st2" d="M218.5,218.3c0-3.6,2.8-6.5,6.3-6.5c3.3,0,6,2.7,6.3,6v0v0.1c0,0.3-0.3,0.6-0.6,0.6h-10.7c0.1,2.8,2.4,5,5,5
				c1.7,0,3.3-0.9,4.2-2.4c0.2-0.3,0.6-0.4,0.8-0.2c0.3,0.2,0.4,0.6,0.2,0.9c-1.1,1.8-3,2.9-5.3,2.9
				C221.3,224.8,218.5,221.9,218.5,218.3z M219.9,217.3h9.8c-0.4-2.4-2.5-4.2-4.9-4.2C222.4,213.1,220.3,214.8,219.9,217.3z"/>
		</g>
		<g class="st1">
			<path class="st2" d="M235.6,212.4c0-0.4,0.3-0.6,0.7-0.6c0.3,0,0.6,0.3,0.6,0.6v2.9c0.1-0.1,0.1-0.2,0.2-0.3
				c1-1.5,2.7-3.2,5.2-3.2c0.3,0,0.6,0.3,0.6,0.6c0,0.3-0.3,0.6-0.6,0.6c-1.7,0-2.9,1-3.8,2.1c-0.9,1.2-1.4,2.5-1.6,3
				c-0.1,0.1-0.1,0.2-0.1,0.2v5.7c0,0.4-0.3,0.6-0.6,0.6c-0.4,0-0.7-0.3-0.7-0.6V212.4z"/>
		</g>
		<g class="st1">
			<path class="st2" d="M183.1,660.3H183c-0.3,0-0.6-0.3-0.6-0.6v-17.3c0-0.3,0.3-0.6,0.6-0.6h0.1h3.4c5.1,0,9.3,4.2,9.3,9.3
				c0,5.1-4.2,9.3-9.3,9.3H183.1z M186.5,659c4.4,0,8-3.6,8-8c0-4.4-3.6-8-8-8h-2.8v16H186.5z"/>
		</g>
		<g class="st1">
			<path class="st2" d="M200.8,653.8c0-3.6,2.8-6.5,6.3-6.5c3.3,0,6,2.7,6.3,6v0v0.1c0,0.3-0.3,0.6-0.6,0.6h-10.7c0.1,2.8,2.4,5,5,5
				c1.7,0,3.3-0.9,4.2-2.4c0.2-0.3,0.6-0.4,0.8-0.2c0.3,0.2,0.4,0.6,0.2,0.9c-1.1,1.8-3,2.9-5.3,2.9
				C203.6,660.3,200.8,657.4,200.8,653.8z M202.2,652.8h9.8c-0.4-2.4-2.5-4.2-4.9-4.2C204.7,648.6,202.6,650.3,202.2,652.8z"/>
		</g>
		<g class="st1">
			<path class="st2" d="M221.9,660.2c-0.1-0.1-0.2-0.2-0.2-0.3l-4.9-11.6c-0.1-0.3,0-0.7,0.3-0.8c0.3-0.1,0.7,0,0.8,0.3l4.3,10.2
				l4.3-10.2c0.1-0.3,0.5-0.5,0.8-0.3c0.3,0.1,0.5,0.5,0.3,0.8l-4.9,11.5c0,0.1-0.1,0.2-0.2,0.3c-0.1,0.1-0.3,0.2-0.4,0.2
				c-0.1,0-0.1,0-0.2,0c0,0,0,0-0.1,0C222,660.2,222,660.2,221.9,660.2z"/>
			<path class="st2" d="M233.7,643.7c0-0.3,0.3-0.6,0.6-0.6c0.4,0,0.7,0.3,0.7,0.6v0.6c0,0.4-0.3,0.7-0.7,0.7
				c-0.3,0-0.6-0.3-0.6-0.7V643.7z M233.7,647.9c0-0.4,0.3-0.6,0.6-0.6c0.4,0,0.7,0.3,0.7,0.6v11.7c0,0.3-0.3,0.6-0.7,0.6
				c-0.3,0-0.6-0.3-0.6-0.6V647.9z"/>
		</g>
		<g class="st1">
			<path class="st2" d="M240.8,653.8c0-3.6,3-6.5,6.7-6.5c1.5,0,3,0.5,4.1,1.4c0.3,0.2,0.3,0.6,0.1,0.9c-0.2,0.2-0.6,0.3-0.9,0.1
				c-0.9-0.7-2.1-1.2-3.3-1.2c-3,0-5.4,2.4-5.4,5.2c0,2.9,2.4,5.3,5.4,5.3c1.2,0,2.4-0.4,3.3-1.1c0.3-0.2,0.7-0.1,0.9,0.1
				c0.2,0.3,0.2,0.7-0.1,0.9c-1.1,0.8-2.5,1.4-4.1,1.4C243.7,660.3,240.8,657.4,240.8,653.8z"/>
		</g>
		<g class="st1">
			<path class="st2" d="M256,653.8c0-3.6,2.8-6.5,6.3-6.5c3.3,0,6,2.7,6.3,6v0v0.1c0,0.3-0.3,0.6-0.6,0.6h-10.7c0.1,2.8,2.4,5,5,5
				c1.7,0,3.3-0.9,4.2-2.4c0.2-0.3,0.6-0.4,0.8-0.2c0.3,0.2,0.4,0.6,0.2,0.9c-1.1,1.8-3,2.9-5.3,2.9
				C258.8,660.3,256,657.4,256,653.8z M257.4,652.8h9.8c-0.4-2.4-2.5-4.2-4.9-4.2C259.9,648.6,257.9,650.3,257.4,652.8z"/>
			<path class="st2" d="M282.5,642.4c0-0.3,0.3-0.6,0.6-0.6c0.4,0,0.7,0.3,0.7,0.6v17.3c0,0.3-0.3,0.6-0.7,0.6
				c-0.3,0-0.6-0.3-0.6-0.6V642.4z"/>
		</g>
		<g class="st1">
			<path class="st2" d="M300,652.6c0-2.2-1.8-4-4-4c-2.2,0-4,1.8-4,4v7.1v0.1c0,0.1-0.1,0.2-0.1,0.3c-0.1,0.2-0.3,0.2-0.5,0.2h-0.2
				c-0.2-0.1-0.3-0.2-0.4-0.3c0,0,0-0.1,0-0.1c0,0,0-0.1,0-0.1v-0.2v-7.1v-0.2V648c0-0.3,0.3-0.6,0.6-0.6c0.3,0,0.6,0.3,0.6,0.6v1.2
				c1-1.1,2.4-1.9,4-1.9c2.9,0,5.3,2.4,5.3,5.3v7.1c0,0.4-0.3,0.6-0.6,0.6s-0.6-0.3-0.6-0.6V652.6z"/>
		</g>
		<g class="st1">
			<path class="st2" d="M317.4,657.8c-1.1,1.5-2.9,2.5-5,2.5c-3.5,0-6.3-2.9-6.3-6.5c0-3.6,2.8-6.5,6.3-6.5c2,0,3.8,1,5,2.5v-7.5
				c0-0.3,0.3-0.6,0.7-0.6c0.3,0,0.6,0.3,0.6,0.6v11.2v0.3v5.8c0,0.3-0.3,0.6-0.6,0.6c-0.4,0-0.7-0.3-0.7-0.6V657.8z M317.4,654
				v-0.4c-0.1-2.8-2.3-5-5-5c-2.7,0-5,2.3-5,5.2c0,2.9,2.3,5.2,5,5.2C315.1,659,317.3,656.8,317.4,654z"/>
		</g>
		<g class="st1">
			<path class="st2" d="M323.7,653.8c0-3.6,2.8-6.5,6.3-6.5c3.3,0,6,2.7,6.3,6v0v0.1c0,0.3-0.3,0.6-0.6,0.6H325c0.1,2.8,2.4,5,5,5
				c1.7,0,3.3-0.9,4.2-2.4c0.2-0.3,0.6-0.4,0.8-0.2c0.3,0.2,0.4,0.6,0.2,0.9c-1.1,1.8-3,2.9-5.3,2.9
				C326.5,660.3,323.7,657.4,323.7,653.8z M325.1,652.8h9.8c-0.4-2.4-2.5-4.2-4.9-4.2C327.6,648.6,325.5,650.3,325.1,652.8z"/>
		</g>
		<g class="st1">
			<path class="st2" d="M341.3,654v-0.3v-0.3v-5.5c0-0.3,0.3-0.6,0.6-0.6c0.4,0,0.7,0.3,0.7,0.6v1.9c1.1-1.5,2.9-2.5,4.9-2.5
				c3.5,0,6.3,2.9,6.3,6.4c0,3.5-2.8,6.5-6.3,6.5c-2,0-3.8-1-4.9-2.5v7.4c0,0.3-0.3,0.6-0.7,0.6c-0.3,0-0.6-0.3-0.6-0.6V654z
				 M342.6,653.7c0,2.9,2.3,5.2,4.9,5.2c2.8,0,5-2.3,5-5.2c0-2.9-2.2-5.1-5-5.1c-2.6,0-4.8,2.2-4.9,4.9V653.7z"/>
		</g>
		<g class="st1">
			<path class="st2" d="M358.1,653.8c0-3.6,2.8-6.5,6.3-6.5c3.3,0,6,2.7,6.3,6v0v0.1c0,0.3-0.3,0.6-0.6,0.6h-10.7c0.1,2.8,2.4,5,5,5
				c1.7,0,3.3-0.9,4.2-2.4c0.2-0.3,0.6-0.4,0.8-0.2c0.3,0.2,0.4,0.6,0.2,0.9c-1.1,1.8-3,2.9-5.3,2.9
				C361,660.3,358.1,657.4,358.1,653.8z M359.5,652.8h9.8c-0.4-2.4-2.5-4.2-4.9-4.2C362,648.6,360,650.3,359.5,652.8z"/>
		</g>
		<g class="st1">
			<path class="st2" d="M385,652.6c0-2.2-1.8-4-4-4c-2.2,0-4,1.8-4,4v7.1v0.1c0,0.1-0.1,0.2-0.1,0.3c-0.1,0.2-0.3,0.2-0.5,0.2h-0.2
				c-0.2-0.1-0.3-0.2-0.4-0.3c0,0,0-0.1,0-0.1c0,0,0-0.1,0-0.1v-0.2v-7.1v-0.2V648c0-0.3,0.3-0.6,0.6-0.6c0.3,0,0.6,0.3,0.6,0.6v1.2
				c1-1.1,2.4-1.9,4-1.9c2.9,0,5.3,2.4,5.3,5.3v7.1c0,0.4-0.3,0.6-0.6,0.6s-0.6-0.3-0.6-0.6V652.6z"/>
		</g>
		<g class="st1">
			<path class="st2" d="M402.4,657.8c-1.1,1.5-2.9,2.5-5,2.5c-3.5,0-6.3-2.9-6.3-6.5c0-3.6,2.8-6.5,6.3-6.5c2,0,3.8,1,5,2.5v-7.5
				c0-0.3,0.3-0.6,0.7-0.6c0.3,0,0.6,0.3,0.6,0.6v11.2v0.3v5.8c0,0.3-0.3,0.6-0.6,0.6c-0.4,0-0.7-0.3-0.7-0.6V657.8z M402.4,654
				v-0.4c-0.1-2.8-2.3-5-5-5c-2.7,0-5,2.3-5,5.2c0,2.9,2.3,5.2,5,5.2C400.1,659,402.3,656.8,402.4,654z"/>
		</g>
		<g class="st1">
			<path class="st2" d="M408.7,653.8c0-3.6,2.8-6.5,6.3-6.5c3.3,0,6,2.7,6.3,6v0v0.1c0,0.3-0.3,0.6-0.6,0.6H410c0.1,2.8,2.4,5,5,5
				c1.7,0,3.3-0.9,4.2-2.4c0.2-0.3,0.6-0.4,0.8-0.2c0.3,0.2,0.4,0.6,0.2,0.9c-1.1,1.8-3,2.9-5.3,2.9
				C411.5,660.3,408.7,657.4,408.7,653.8z M410.1,652.8h9.8c-0.4-2.4-2.5-4.2-4.9-4.2C412.6,648.6,410.5,650.3,410.1,652.8z"/>
			<path class="st2" d="M435.6,652.6c0-2.2-1.8-4-4-4c-2.2,0-4,1.8-4,4v7.1v0.1c0,0.1-0.1,0.2-0.1,0.3c-0.1,0.2-0.3,0.2-0.5,0.2
				h-0.2c-0.2-0.1-0.3-0.2-0.4-0.3c0,0,0-0.1,0-0.1c0,0,0-0.1,0-0.1v-0.2v-7.1v-0.2V648c0-0.3,0.3-0.6,0.6-0.6
				c0.3,0,0.6,0.3,0.6,0.6v1.2c1-1.1,2.4-1.9,4-1.9c2.9,0,5.3,2.4,5.3,5.3v7.1c0,0.4-0.3,0.6-0.6,0.6s-0.6-0.3-0.6-0.6V652.6z"/>
		</g>
		<g class="st1">
			<path class="st2" d="M442.2,653.8c0-3.6,3-6.5,6.7-6.5c1.5,0,3,0.5,4.1,1.4c0.3,0.2,0.3,0.6,0.1,0.9c-0.2,0.2-0.6,0.3-0.9,0.1
				c-0.9-0.7-2.1-1.2-3.3-1.2c-3,0-5.4,2.4-5.4,5.2c0,2.9,2.4,5.3,5.4,5.3c1.2,0,2.4-0.4,3.3-1.1c0.3-0.2,0.7-0.1,0.9,0.1
				c0.2,0.3,0.2,0.7-0.1,0.9c-1.1,0.8-2.5,1.4-4.1,1.4C445.2,660.3,442.2,657.4,442.2,653.8z"/>
		</g>
		<g class="st1">
			<path class="st2" d="M457.5,653.8c0-3.6,2.8-6.5,6.3-6.5c3.3,0,6,2.7,6.3,6v0v0.1c0,0.3-0.3,0.6-0.6,0.6h-10.7c0.1,2.8,2.4,5,5,5
				c1.7,0,3.3-0.9,4.2-2.4c0.2-0.3,0.6-0.4,0.8-0.2c0.3,0.2,0.4,0.6,0.2,0.9c-1.1,1.8-3,2.9-5.3,2.9
				C460.3,660.3,457.5,657.4,457.5,653.8z M458.8,652.8h9.8c-0.4-2.4-2.5-4.2-4.9-4.2C461.3,648.6,459.3,650.3,458.8,652.8z"/>
		</g>
		<g class="st1">
			<path class="st2" d="M963,623.9h-8.5l-1.6,4.4c-0.1,0.3-0.3,0.4-0.6,0.4c-0.1,0-0.2,0-0.2,0c-0.3-0.1-0.5-0.5-0.4-0.8l6.4-17.2
				c0.1-0.2,0.4-0.4,0.6-0.4c0.3,0,0.6,0.2,0.6,0.4l6.4,17.2c0.1,0.3,0,0.7-0.3,0.8c-0.1,0-0.2,0-0.2,0c-0.2,0-0.5-0.2-0.6-0.4
				L963,623.9z M955.1,622.6h7.5l-3.7-10L955.1,622.6z"/>
		</g>
		<g class="st1">
			<path class="st2" d="M980.9,627.6c0,3.4-2.7,6.1-6.1,6.1c-1,0-1.9-0.2-2.7-0.6c-0.3-0.2-0.4-0.6-0.3-0.8c0.2-0.3,0.5-0.5,0.8-0.3
				c0.7,0.3,1.3,0.5,2.1,0.5c2.7,0,4.9-2.1,4.9-4.8V626c-1.1,1.6-2.9,2.5-4.9,2.5c-3.4,0-6.1-2.9-6.1-6.5c0-3.5,2.7-6.4,6.1-6.4
				c2,0,3.8,1,4.9,2.5v-1.9c0-0.3,0.3-0.6,0.7-0.6c0.3,0,0.6,0.3,0.6,0.6V627.6z M979.7,622.1c0-2.9-2.2-5.2-4.9-5.2
				c-2.7,0-4.8,2.3-4.8,5.2c0,2.9,2.2,5.2,4.8,5.2C977.5,627.3,979.7,625,979.7,622.1z"/>
		</g>
		<g class="st1">
			<path class="st2" d="M987.7,612.1c0-0.3,0.3-0.6,0.6-0.6c0.4,0,0.7,0.3,0.7,0.6v0.6c0,0.4-0.3,0.7-0.7,0.7
				c-0.3,0-0.6-0.3-0.6-0.7V612.1z M987.7,616.3c0-0.4,0.3-0.6,0.6-0.6c0.4,0,0.7,0.3,0.7,0.6V628c0,0.3-0.3,0.6-0.7,0.6
				c-0.3,0-0.6-0.3-0.6-0.6V616.3z"/>
		</g>
		<g class="st1">
			<path class="st2" d="M995.2,610.7c0-0.3,0.3-0.6,0.6-0.6c0.4,0,0.7,0.3,0.7,0.6V628c0,0.3-0.3,0.6-0.7,0.6
				c-0.3,0-0.6-0.3-0.6-0.6V610.7z"/>
		</g>
		<g class="st1">
			<path class="st2" d="M1002.4,622.2c0-3.6,2.8-6.5,6.3-6.5c3.3,0,6,2.7,6.3,6v0v0.1c0,0.3-0.3,0.6-0.6,0.6h-10.7
				c0.1,2.8,2.4,5,5,5c1.7,0,3.3-0.9,4.2-2.4c0.2-0.3,0.6-0.4,0.8-0.2c0.3,0.2,0.4,0.6,0.2,0.9c-1.1,1.8-3,2.9-5.3,2.9
				C1005.3,628.7,1002.4,625.8,1002.4,622.2z M1003.8,621.2h9.8c-0.4-2.4-2.5-4.2-4.9-4.2C1006.3,616.9,1004.3,618.7,1003.8,621.2z"
				/>
		</g>
		<g class="st1">
			<path class="st2" d="M999.3,114.2c5,0,8.9,4.2,8.9,9.4c0,5.2-3.9,9.4-8.9,9.4c-5,0-8.9-4.2-9-9.4
				C990.3,118.4,994.3,114.2,999.3,114.2z M999.3,131.7c4.1,0,7.5-3.6,7.6-8.1c0-4.6-3.5-8.1-7.6-8.1c-4.2,0-7.7,3.5-7.7,8.1
				C991.6,128.1,995.1,131.7,999.3,131.7z"/>
			<path class="st2" d="M1013.9,126.7v-0.3v-0.3v-5.5c0-0.3,0.3-0.6,0.6-0.6c0.4,0,0.7,0.3,0.7,0.6v1.9c1.1-1.5,2.9-2.5,4.9-2.5
				c3.5,0,6.3,2.9,6.3,6.4c0,3.5-2.8,6.5-6.3,6.5c-2,0-3.8-1-4.9-2.5v7.4c0,0.3-0.3,0.6-0.7,0.6c-0.3,0-0.6-0.3-0.6-0.6V126.7z
				 M1015.2,126.4c0,2.9,2.3,5.2,4.9,5.2c2.8,0,5-2.3,5-5.2c0-2.9-2.2-5.1-5-5.1c-2.6,0-4.8,2.2-4.9,4.9V126.4z"/>
			<path class="st2" d="M1036.4,120.6c0,0.3-0.3,0.6-0.6,0.6h-1.7v9.5c0,0.6,0.6,1,1,1s0.7,0.3,0.7,0.7s-0.3,0.6-0.7,0.6
				c-1.3,0-2.3-1-2.3-2.3v-9.5h-1.6c-0.6,0-0.6-0.3-0.6-0.6s0-0.6,0.6-0.6h1.6v-4.8c0-0.3,0.3-0.6,0.6-0.6c0.3,0,0.7,0.3,0.7,0.6
				v4.8h1.7C1036.1,120,1036.4,120.3,1036.4,120.6z"/>
			<path class="st2" d="M1043,116.4c0-0.3,0.3-0.6,0.6-0.6c0.4,0,0.7,0.3,0.7,0.6v0.6c0,0.4-0.3,0.7-0.7,0.7c-0.3,0-0.6-0.3-0.6-0.7
				V116.4z M1043,120.6c0-0.4,0.3-0.6,0.6-0.6c0.4,0,0.7,0.3,0.7,0.6v11.7c0,0.3-0.3,0.6-0.7,0.6c-0.3,0-0.6-0.3-0.6-0.6V120.6z"/>
			<path class="st2" d="M1069.6,125.3c-0.1-2.2-1.8-4-4-4c-2.2,0-4,1.8-4,4v7.1v0.1c0,0,0,0.1,0,0.1v0.1c-0.1,0.2-0.2,0.3-0.3,0.3
				c-0.1,0.1-0.2,0.1-0.3,0.1h-0.1h-0.1c0,0-0.1,0-0.1,0c-0.1,0-0.1-0.1-0.2-0.1c0,0-0.1,0-0.1-0.1l-0.1-0.1c0,0,0-0.1-0.1-0.1
				c0,0,0,0,0-0.1c0,0,0,0,0-0.1c0,0,0-0.1,0-0.1v-0.1v-0.1v-7.1c0-2.2-1.8-4-4-4s-4,1.8-4,4v7.1c0,0.2-0.1,0.4-0.3,0.5
				c0,0-0.1,0.1-0.2,0.1c0,0-0.1,0-0.1,0h-0.1h-0.1c-0.2,0-0.5-0.2-0.5-0.5v-0.1v-7.1v-0.2v-4.5c0-0.3,0.3-0.6,0.6-0.6
				c0.4,0,0.6,0.3,0.6,0.6v1.2c1-1.1,2.4-1.9,4-1.9c2,0,3.7,1.1,4.6,2.8c0.9-1.6,2.7-2.8,4.7-2.8c2.9,0,5.3,2.4,5.3,5.3v7.1
				c0,0.3-0.3,0.6-0.6,0.6c-0.3,0-0.6-0.3-0.6-0.6V125.3z"/>
			<path class="st2" d="M1076.7,116.4c0-0.3,0.3-0.6,0.6-0.6c0.4,0,0.7,0.3,0.7,0.6v0.6c0,0.4-0.3,0.7-0.7,0.7
				c-0.3,0-0.6-0.3-0.6-0.7V116.4z M1076.7,120.6c0-0.4,0.3-0.6,0.6-0.6c0.4,0,0.7,0.3,0.7,0.6v11.7c0,0.3-0.3,0.6-0.7,0.6
				c-0.3,0-0.6-0.3-0.6-0.6V120.6z"/>
			<path class="st2" d="M1083.7,130.3c0.2-0.3,0.6-0.3,0.9-0.1c0.9,0.7,2.3,1.5,4,1.5c1,0,1.9-0.3,2.5-0.8c0.6-0.4,1-1,1-1.6
				c0-0.6-0.3-1-0.9-1.6c-0.6-0.4-1.5-0.7-2.8-1l-0.1,0c-1.2-0.2-2.2-0.5-2.9-1c-0.8-0.5-1.4-1.3-1.4-2.3c0-1,0.6-1.9,1.4-2.5
				c0.8-0.5,1.9-0.9,3.2-0.9c1.7,0,2.9,0.8,3.9,1.4c0.3,0.2,0.4,0.6,0.2,0.9s-0.6,0.4-0.9,0.2c-1-0.6-1.9-1.3-3.2-1.3
				c-1.1,0-1.9,0.3-2.5,0.7c-0.5,0.4-0.8,1-0.8,1.5c0,0.5,0.2,0.9,0.7,1.3c0.6,0.4,1.5,0.7,2.7,0.9h0.1c1.2,0.2,2.3,0.6,3.2,1.1
				c0.8,0.6,1.5,1.6,1.5,2.7c0,1.1-0.6,2-1.5,2.6c-0.9,0.7-2,1-3.2,1c-2.1,0-3.7-1-4.8-1.9C1083.6,130.9,1083.5,130.6,1083.7,130.3z
				"/>
			<path class="st2" d="M1097.3,126.5c0-3.6,2.8-6.5,6.3-6.5c3.3,0,6,2.7,6.3,6v0v0.1c0,0.3-0.3,0.6-0.6,0.6h-10.7
				c0.1,2.8,2.4,5,5,5c1.7,0,3.3-0.9,4.2-2.4c0.2-0.3,0.6-0.4,0.8-0.2c0.3,0.2,0.4,0.6,0.2,0.9c-1.1,1.8-3,2.9-5.3,2.9
				C1100.1,133,1097.3,130.1,1097.3,126.5z M1098.6,125.5h9.8c-0.4-2.4-2.5-4.2-4.9-4.2C1101.1,121.3,1099.1,123,1098.6,125.5z"/>
			<path class="st2" d="M1125.2,130.5c-1.1,1.5-2.9,2.5-5,2.5c-3.5,0-6.3-2.9-6.3-6.5c0-3.6,2.8-6.5,6.3-6.5c2,0,3.8,1,5,2.5v-7.5
				c0-0.3,0.3-0.6,0.7-0.6c0.3,0,0.6,0.3,0.6,0.6v11.2v0.3v5.8c0,0.3-0.3,0.6-0.6,0.6c-0.4,0-0.7-0.3-0.7-0.6V130.5z M1125.2,126.7
				v-0.4c-0.1-2.8-2.3-5-5-5c-2.7,0-5,2.3-5,5.2c0,2.9,2.3,5.2,5,5.2C1122.9,131.7,1125.1,129.5,1125.2,126.7z"/>
		</g>
		<g class="st1">
			<path class="st2" d="M1151.1,128.8c0-1.4-0.7-2.2-1.5-2.8c-0.8-0.6-1.8-0.9-2.1-0.9c-0.1,0-0.1-0.1-0.1-0.1h-4.5v7.3
				c0,0.3-0.3,0.6-0.7,0.6c-0.3,0-0.6-0.3-0.6-0.6v-17.3c0-0.3,0.3-0.6,0.6-0.6h0.1h0.1h5.2c2.9,0,5.3,2.4,5.3,5.3
				c0,2.1-1.2,4-3,4.8c0.1,0.1,0.2,0.1,0.3,0.1c1.2,0.7,2.5,2,2.5,4.1c0,1.1,0.1,1.8,0.2,2.1c0.1,0.3,0.2,0.4,0.3,0.5
				c0.3,0,0.6,0.1,0.7,0.4c0.1,0.3-0.1,0.7-0.4,0.8c0,0-0.2,0-0.3,0h-0.1c-0.3,0-0.9-0.3-1.2-0.8
				C1151.3,131.2,1151.1,130.4,1151.1,128.8z M1147.4,115.7h-4.6v8h4.5h0.2c2.1-0.1,3.9-1.8,3.9-4
				C1151.4,117.5,1149.6,115.7,1147.4,115.7z"/>
		</g>
		<g class="st1">
			<path class="st2" d="M1157.5,126.5c0-3.6,2.8-6.5,6.3-6.5c3.3,0,6,2.7,6.3,6v0v0.1c0,0.3-0.3,0.6-0.6,0.6h-10.7
				c0.1,2.8,2.4,5,5,5c1.7,0,3.3-0.9,4.2-2.4c0.2-0.3,0.6-0.4,0.8-0.2c0.3,0.2,0.4,0.6,0.2,0.9c-1.1,1.8-3,2.9-5.3,2.9
				C1160.3,133,1157.5,130.1,1157.5,126.5z M1158.8,125.5h9.8c-0.4-2.4-2.5-4.2-4.9-4.2C1161.4,121.3,1159.3,123,1158.8,125.5z"/>
			<path class="st2" d="M1174.2,130.3c0.2-0.3,0.6-0.3,0.9-0.1c0.9,0.7,2.3,1.5,4,1.5c1,0,1.9-0.3,2.5-0.8c0.6-0.4,1-1,1-1.6
				c0-0.6-0.3-1-0.9-1.6c-0.6-0.4-1.5-0.7-2.8-1l-0.1,0c-1.2-0.2-2.2-0.5-2.9-1c-0.8-0.5-1.4-1.3-1.4-2.3c0-1,0.6-1.9,1.4-2.5
				c0.8-0.5,1.9-0.9,3.2-0.9c1.7,0,2.9,0.8,3.9,1.4c0.3,0.2,0.4,0.6,0.2,0.9s-0.6,0.4-0.9,0.2c-1-0.6-1.9-1.3-3.2-1.3
				c-1.1,0-1.9,0.3-2.5,0.7c-0.5,0.4-0.8,1-0.8,1.5c0,0.5,0.2,0.9,0.7,1.3c0.6,0.4,1.5,0.7,2.7,0.9h0.1c1.2,0.2,2.3,0.6,3.2,1.1
				c0.8,0.6,1.5,1.6,1.5,2.7c0,1.1-0.6,2-1.5,2.6c-0.9,0.7-2,1-3.2,1c-2.1,0-3.7-1-4.8-1.9C1174,130.9,1174,130.6,1174.2,130.3z"/>
		</g>
		<g class="st1">
			<path class="st2" d="M1194.2,120c3.4,0,6.2,3,6.2,6.5c0,3.5-2.7,6.5-6.2,6.5c-3.4,0-6.2-3-6.2-6.5
				C1188.1,123,1190.8,120,1194.2,120z M1194.2,131.7c2.7,0,4.9-2.3,4.9-5.2s-2.2-5.3-4.9-5.3s-4.9,2.4-4.9,5.3
				S1191.6,131.7,1194.2,131.7z"/>
		</g>
		<g class="st1">
			<path class="st2" d="M1205.1,120.6c0-0.4,0.3-0.6,0.6-0.6s0.6,0.3,0.6,0.6v7.1c0,2.2,1.8,4,4,4c2.2,0,4-1.8,4-4v-7.1
				c0-0.4,0.3-0.6,0.6-0.6c0.4,0,0.7,0.3,0.7,0.6v7.1c0,2.9-2.4,5.3-5.3,5.3c-2.9,0-5.3-2.4-5.3-5.3V120.6z"/>
		</g>
		<g class="st1">
			<path class="st2" d="M1222.1,120.7c0-0.4,0.3-0.6,0.7-0.6c0.3,0,0.6,0.3,0.6,0.6v2.9c0.1-0.1,0.1-0.2,0.2-0.3
				c1-1.5,2.7-3.2,5.2-3.2c0.3,0,0.6,0.3,0.6,0.6c0,0.3-0.3,0.6-0.6,0.6c-1.7,0-2.9,1-3.8,2.1c-0.9,1.2-1.4,2.5-1.6,3
				c-0.1,0.1-0.1,0.2-0.1,0.2v5.7c0,0.4-0.3,0.6-0.6,0.6c-0.4,0-0.7-0.3-0.7-0.6V120.7z"/>
		</g>
		<g class="st1">
			<path class="st2" d="M1232.7,126.5c0-3.6,3-6.5,6.7-6.5c1.5,0,3,0.5,4.1,1.4c0.3,0.2,0.3,0.6,0.1,0.9c-0.2,0.2-0.6,0.3-0.9,0.1
				c-0.9-0.7-2.1-1.2-3.3-1.2c-3,0-5.4,2.4-5.4,5.2c0,2.9,2.4,5.3,5.4,5.3c1.2,0,2.4-0.4,3.3-1.1c0.3-0.2,0.7-0.1,0.9,0.1
				c0.2,0.3,0.2,0.7-0.1,0.9c-1.1,0.8-2.5,1.4-4.1,1.4C1235.7,133,1232.7,130.1,1232.7,126.5z"/>
		</g>
		<g class="st1">
			<path class="st2" d="M1248,126.5c0-3.6,2.8-6.5,6.3-6.5c3.3,0,6,2.7,6.3,6v0v0.1c0,0.3-0.3,0.6-0.6,0.6h-10.7c0.1,2.8,2.4,5,5,5
				c1.7,0,3.3-0.9,4.2-2.4c0.2-0.3,0.6-0.4,0.8-0.2c0.3,0.2,0.4,0.6,0.2,0.9c-1.1,1.8-3,2.9-5.3,2.9
				C1250.8,133,1248,130.1,1248,126.5z M1249.3,125.5h9.8c-0.4-2.4-2.5-4.2-4.9-4.2C1251.9,121.3,1249.8,123,1249.3,125.5z"/>
		</g>
	</g>
</g>
</svg>
