<?xml version="1.0" encoding="utf-8"?>
<!-- Generator: Adobe Illustrator 23.0.1, SVG Export Plug-In . SVG Version: 6.00 Build 0)  -->
<svg version="1.1" id="Layer_1" xmlns="http://www.w3.org/2000/svg" xmlns:xlink="http://www.w3.org/1999/xlink" x="0px" y="0px"
	 viewBox="0 0 1018 1038.9" style="enable-background:new 0 0 1018 1038.9;" xml:space="preserve">
<style type="text/css">
	.st0{fill:#34495E;}
	.st1{enable-background:new    ;}
	.st2{fill:#2980B9;}
</style>
<title>smart-retail</title>
<g>
	<g id="Layer_1-2">
		<path class="st0" d="M342.4,485h-50.3c-3.8,0-6.9-1.3-9-3.5c-1.8-2-2.6-4.8-2.3-7.5c0,0,0-0.1,0-0.1l8.2-44.4l-14.1,0.4
			c-1.9,0.1-3.7-0.7-4.9-2.2c-1.7-2.2-2.2-5.1-1.5-7.8l2-9.7c1.1-5.2,5.3-9.3,9.5-9.4l18.5-0.5c1.9-0.1,3.7,0.7,4.9,2.2
			c1.6,2.2,2.2,5.1,1.5,7.7l-0.6,2.9c0.5,0,1-0.1,1.5-0.1h60.6c4.1,0,7.7,1.5,9.7,4.1c1.6,2,2.1,4.7,1.4,7.2c0,0.1,0,0.2-0.1,0.2
			L358,475C355.1,481,349.1,484.9,342.4,485z M284.9,474.6c-0.2,1.6,0.3,3.1,1.3,4.3c1.6,1.5,3.8,2.3,6,2.2h50.3
			c5.4,0,10.4-3.9,11.9-7.5l19.6-50.2c0.3-1.3,0-2.6-0.8-3.6c-1.3-1.6-3.7-2.6-6.6-2.6H306c-1.2,0-2.4,0.2-3.6,0.5
			c-0.7,0.2-1.4,0-1.9-0.5c-0.5-0.5-0.7-1.2-0.6-1.9l1.2-5.8c0.4-1.5,0.2-3.1-0.7-4.4c-0.4-0.5-1-0.8-1.7-0.8l-18.5,0.5
			c-2.1,0.1-4.9,2.6-5.7,6.3l-2,9.7c-0.4,1.5-0.2,3.1,0.6,4.4c0.4,0.5,1,0.8,1.7,0.8l16.6-0.4c1.1,0,2,0.9,2,2c0,0.1,0,0.3,0,0.4
			L284.9,474.6z M375.8,423.9L375.8,423.9z"/>
		<path class="st0" d="M290.7,516.5c-6.4,0-11.6-5.2-11.6-11.6c0-6.4,5.2-11.6,11.6-11.6c6.4,0,11.6,5.2,11.6,11.6c0,0,0,0,0,0
			C302.3,511.3,297.1,516.5,290.7,516.5z M290.7,497.3c-4.2,0-7.6,3.4-7.6,7.6s3.4,7.6,7.6,7.6s7.6-3.4,7.6-7.6
			C298.3,500.7,294.9,497.3,290.7,497.3z"/>
		<path class="st0" d="M330.5,516.5c-6.4,0-11.6-5.2-11.6-11.6c0-6.4,5.2-11.6,11.6-11.6c6.4,0,11.6,5.2,11.6,11.6c0,0,0,0,0,0
			C342.2,511.3,337,516.5,330.5,516.5z M330.5,497.3c-4.2,0-7.6,3.4-7.6,7.6s3.4,7.6,7.6,7.6s7.6-3.4,7.6-7.6
			C338.2,500.7,334.8,497.3,330.5,497.3z"/>
		<path class="st0" d="M418,503c-1.1,0-2-0.9-2-2v-85c0-1.1,0.9-2,2-2s2,0.9,2,2v85C420,502.1,419.1,503,418,503z"/>
		<g class="st1">
			<path class="st2" d="M431.1,451.3c0.3-0.4,0.8-0.4,1.2-0.1c0.7,0.6,2,1.3,3.1,1.3c0.8,0,1.6-0.2,2-0.6c0.5-0.4,0.7-0.8,0.7-1.2
				c0-0.2,0-0.4-0.1-0.5c-0.1-0.2-0.2-0.3-0.5-0.5c-0.5-0.3-1.3-0.6-2.2-0.8h0c-0.8-0.1-1.5-0.3-2.1-0.6c-0.6-0.3-1.2-0.7-1.5-1.3
				c-0.2-0.4-0.4-0.9-0.4-1.3c0-1,0.6-1.8,1.3-2.4c0.8-0.6,1.8-0.9,2.8-0.9c1.6,0,2.7,0.8,3.6,1.3c0.4,0.3,0.5,0.8,0.2,1.2
				c-0.2,0.4-0.8,0.5-1.2,0.2c-0.8-0.6-1.6-1-2.6-1c-0.7,0-1.4,0.2-1.8,0.6s-0.6,0.7-0.6,1c0,0.2,0,0.3,0.1,0.5
				c0.1,0.1,0.2,0.3,0.4,0.4c0.4,0.3,1.2,0.6,2,0.7h0c0.8,0.2,1.6,0.4,2.3,0.7c0.7,0.3,1.3,0.8,1.6,1.4c0.2,0.4,0.4,0.9,0.4,1.4
				c0,1-0.6,1.9-1.4,2.5c-0.8,0.6-1.9,0.9-3,0.9c-1.8,0-3.3-0.9-4.2-1.6C430.9,452.2,430.8,451.6,431.1,451.3z"/>
			<path class="st2" d="M449,449.3C449,449.3,449,449.3,449,449.3v3.9c0,0.5-0.4,0.9-0.9,0.9c-0.5,0-0.9-0.4-0.9-0.9v-3.9
				c0,0,0,0,0,0c0-0.9-0.8-1.6-1.7-1.6c-0.9,0-1.7,0.8-1.7,1.7v3.9c0,0,0,0.1,0,0.1c0,0,0,0,0,0c0,0,0,0.1,0,0.1c0,0,0,0,0,0.1
				c-0.1,0.3-0.5,0.5-0.8,0.5c-0.1,0-0.1,0-0.2,0c-0.4-0.1-0.7-0.4-0.7-0.9v-3.9c0,0,0,0,0,0v-2.5c0-0.5,0.4-0.9,0.9-0.9
				c0.3,0,0.7,0.2,0.8,0.5c0.5-0.3,1.1-0.5,1.8-0.5c1,0,1.9,0.4,2.6,1.1c0.6-0.7,1.5-1.1,2.6-1.1c1.9,0,3.4,1.5,3.4,3.4v3.9
				c0,0.5-0.4,0.9-0.9,0.9s-0.9-0.4-0.9-0.9v-3.9c0-0.9-0.8-1.7-1.7-1.7C449.8,447.7,449,448.4,449,449.3z"/>
			<path class="st2" d="M464.6,450v3.2c0,0.5-0.4,0.9-0.9,0.9c-0.4,0-0.8-0.3-0.9-0.7c-0.6,0.4-1.4,0.7-2.2,0.7
				c-1.1,0-2.1-0.5-2.8-1.2c-0.7-0.8-1.1-1.8-1.1-2.9c0-1.1,0.4-2.1,1.1-2.9c0.7-0.8,1.7-1.2,2.8-1.2c0.8,0,1.6,0.3,2.2,0.7
				c0.1-0.4,0.4-0.7,0.9-0.7c0.5,0,0.9,0.4,0.9,0.9V450z M462.9,450c0-0.7-0.2-1.3-0.6-1.7c-0.4-0.4-0.9-0.7-1.5-0.7
				c-0.6,0-1.1,0.2-1.5,0.7c-0.4,0.4-0.6,1-0.6,1.7c0,0.7,0.2,1.3,0.6,1.7c0.4,0.4,0.9,0.6,1.5,0.6c0.6,0,1.1-0.2,1.5-0.6
				C462.7,451.3,462.9,450.7,462.9,450z"/>
			<path class="st2" d="M472.9,446.8c0,0.5-0.4,0.9-0.9,0.9c-0.4,0-0.7,0.1-1,0.3c-0.3,0.2-0.6,0.5-0.8,0.8
				c-0.4,0.5-0.6,1.1-0.7,1.4v3.1c0,0.5-0.4,0.9-0.9,0.9c-0.5,0-0.9-0.4-0.9-0.9v-6.4c0-0.5,0.4-0.9,0.9-0.9c0.5,0,0.9,0.4,0.9,0.9
				v0.1c0.1-0.1,0.2-0.2,0.3-0.3c0.5-0.4,1.2-0.7,2.1-0.6C472.5,445.9,472.9,446.3,472.9,446.8z"/>
			<path class="st2" d="M478.7,446.8c0,0.5-0.4,0.9-0.9,0.9h-0.4v4.6c0.5,0,0.9,0.4,0.9,0.9s-0.4,0.9-0.9,0.9c-1,0-1.8-0.8-1.8-1.8
				v-4.6h-0.5c-0.5,0-0.9-0.4-0.9-0.9c0-0.5,0.4-0.9,0.9-0.9h0.5v-2.4c0-0.5,0.4-0.9,0.9-0.9s0.9,0.4,0.9,0.9v2.4h0.4
				C478.3,445.9,478.7,446.3,478.7,446.8z"/>
		</g>
		<g class="st1">
			<path class="st2" d="M430.9,467.8c0-3.2,2.7-5.9,6-5.9c1.4,0,2.7,0.5,3.8,1.3c0.4,0.3,0.5,0.9,0.2,1.3c-0.3,0.4-0.9,0.5-1.3,0.2
				c-0.7-0.6-1.6-0.9-2.6-0.9c-1.1,0-2.2,0.5-2.9,1.2c-0.7,0.8-1.2,1.7-1.2,2.8s0.5,2.1,1.2,2.8c0.8,0.7,1.8,1.2,2.9,1.2
				c1,0,1.9-0.3,2.6-0.9c0.4-0.3,1-0.2,1.3,0.2c0.3,0.4,0.2,1-0.2,1.3c-1,0.8-2.3,1.3-3.8,1.3C433.7,473.7,431,471.1,430.9,467.8z"
				/>
			<path class="st2" d="M450.8,469.6v3.2c0,0.5-0.4,0.9-0.9,0.9c-0.4,0-0.8-0.3-0.9-0.7c-0.6,0.4-1.4,0.7-2.2,0.7
				c-1.1,0-2.1-0.5-2.8-1.2c-0.7-0.8-1.1-1.8-1.1-2.9c0-1.1,0.4-2.1,1.1-2.9c0.7-0.8,1.7-1.2,2.8-1.2c0.8,0,1.6,0.3,2.2,0.7
				c0.1-0.4,0.4-0.7,0.9-0.7c0.5,0,0.9,0.4,0.9,0.9V469.6z M449.1,469.6c0-0.7-0.2-1.3-0.6-1.7c-0.4-0.4-0.9-0.7-1.5-0.7
				c-0.6,0-1.1,0.2-1.5,0.7c-0.4,0.4-0.6,1-0.6,1.7c0,0.7,0.2,1.3,0.6,1.7c0.4,0.4,0.9,0.6,1.5,0.6c0.6,0,1.1-0.2,1.5-0.6
				C448.8,470.9,449.1,470.3,449.1,469.6z"/>
			<path class="st2" d="M459,466.4c0,0.5-0.4,0.9-0.9,0.9c-0.4,0-0.7,0.1-1,0.3c-0.3,0.2-0.6,0.5-0.8,0.8c-0.4,0.5-0.6,1.1-0.7,1.4
				v3.1c0,0.5-0.4,0.9-0.9,0.9c-0.5,0-0.9-0.4-0.9-0.9v-6.4c0-0.5,0.4-0.9,0.9-0.9c0.5,0,0.9,0.4,0.9,0.9v0.1
				c0.1-0.1,0.2-0.2,0.3-0.3c0.5-0.4,1.2-0.7,2.1-0.6C458.7,465.6,459,465.9,459,466.4z"/>
			<path class="st2" d="M464.9,466.4c0,0.5-0.4,0.9-0.9,0.9h-0.4v4.6c0.5,0,0.9,0.4,0.9,0.9s-0.4,0.9-0.9,0.9c-1,0-1.8-0.8-1.8-1.8
				v-4.6h-0.5c-0.5,0-0.9-0.4-0.9-0.9c0-0.5,0.4-0.9,0.9-0.9h0.5v-2.4c0-0.5,0.4-0.9,0.9-0.9s0.9,0.4,0.9,0.9v2.4h0.4
				C464.4,465.5,464.9,465.9,464.9,466.4z"/>
		</g>
		<path class="st0" d="M820,248c-1.1,0-2-0.9-2-2v-97c0-1.1,0.9-2,2-2s2,0.9,2,2v97C822,247.1,821.1,248,820,248z"/>
		<g class="st1">
			<path class="st2" d="M848.5,192.8l-4,9.5c0,0,0,0.1-0.1,0.1l0,0c0,0,0,0.1-0.1,0.1c0,0,0,0,0,0c0,0-0.1,0-0.1,0.1h0
				c0,0-0.1,0.1-0.1,0.1h0c0,0,0,0,0,0c0,0-0.1,0-0.1,0c0,0,0,0,0,0c0,0-0.1,0-0.2,0c0,0-0.1,0-0.1,0c0,0,0,0,0,0c0,0-0.1,0-0.1,0
				c0,0,0,0,0,0c-0.1,0-0.1-0.1-0.1-0.1c0,0,0,0,0,0c0,0-0.1-0.1-0.1-0.1c0,0,0,0,0,0c0,0,0-0.1-0.1-0.1c0,0,0,0,0,0
				c0,0,0-0.1-0.1-0.1l-2.1-5.1l-2.1,5.1c0,0,0,0.1-0.1,0.1c0,0,0,0,0,0c0,0-0.1,0.1-0.1,0.1c0,0,0,0,0,0c0,0-0.1,0-0.1,0.1
				c0,0,0,0,0,0c0,0-0.1,0.1-0.1,0.1c0,0,0,0,0,0s0,0,0,0c-0.1,0-0.1,0-0.1,0c0,0,0,0,0,0c0,0-0.1,0-0.1,0s-0.1,0-0.2,0c0,0,0,0,0,0
				c0,0-0.1,0-0.1,0c0,0,0,0,0,0c0,0-0.1-0.1-0.1-0.1c0,0,0,0,0,0c0,0-0.1-0.1-0.1-0.1c0,0,0,0,0,0c0,0,0-0.1-0.1-0.1v0
				c0,0,0-0.1-0.1-0.1l-4-9.5c-0.2-0.4,0-1,0.5-1.2c0.4-0.2,1,0,1.2,0.5l3.2,7.6l2.1-5c0.1-0.4,0.5-0.6,0.9-0.6
				c0.3,0,0.7,0.2,0.9,0.6l2.1,5l3.2-7.6c0.2-0.5,0.7-0.7,1.2-0.5C848.5,191.8,848.7,192.4,848.5,192.8z"/>
			<path class="st2" d="M857.1,198.8v3.2c0,0.5-0.4,0.9-0.9,0.9c-0.4,0-0.8-0.3-0.9-0.7c-0.6,0.4-1.4,0.7-2.2,0.7
				c-1.1,0-2.1-0.5-2.8-1.2c-0.7-0.8-1.1-1.8-1.1-2.9c0-1.1,0.4-2.1,1.1-2.9c0.7-0.8,1.7-1.2,2.8-1.2c0.8,0,1.6,0.3,2.2,0.7
				c0.1-0.4,0.4-0.7,0.9-0.7c0.5,0,0.9,0.4,0.9,0.9V198.8z M855.3,198.8c0-0.7-0.2-1.3-0.6-1.7c-0.4-0.4-0.9-0.7-1.5-0.7
				c-0.6,0-1.1,0.2-1.5,0.7c-0.4,0.4-0.6,1-0.6,1.7c0,0.7,0.2,1.3,0.6,1.7c0.4,0.4,0.9,0.6,1.5,0.6c0.6,0,1.1-0.2,1.5-0.6
				C855.1,200.1,855.3,199.5,855.3,198.8z"/>
			<path class="st2" d="M865.3,195.6c0,0.5-0.4,0.9-0.9,0.9c-0.4,0-0.7,0.1-1,0.3c-0.3,0.2-0.6,0.5-0.8,0.8
				c-0.4,0.5-0.6,1.1-0.7,1.4v3.1c0,0.5-0.4,0.9-0.9,0.9c-0.5,0-0.9-0.4-0.9-0.9v-6.4c0-0.5,0.4-0.9,0.9-0.9c0.5,0,0.9,0.4,0.9,0.9
				v0.1c0.1-0.1,0.2-0.2,0.3-0.3c0.5-0.4,1.2-0.7,2.1-0.6C864.9,194.7,865.3,195.1,865.3,195.6z"/>
			<path class="st2" d="M866.1,198.8c0-2.2,1.8-4.1,4-4.1c2.1,0,3.8,1.6,3.9,3.8c0,0,0,0,0,0.1c0,0,0,0.1,0,0.1
				c0,0.4-0.4,0.7-0.9,0.7h-5.2c0.1,0.4,0.3,0.8,0.6,1.1c0.3,0.4,1,0.7,1.6,0.7c0.6,0,1.3-0.1,1.7-0.4c0.3-0.4,1-0.3,1.2,0
				c0.2,0.2,0.4,0.7,0,1.1c-0.8,0.7-1.8,1.1-2.9,1.1C867.8,202.9,866.1,201,866.1,198.8z M867.8,198h4.6c-0.2-0.7-1-1.6-2.4-1.7
				C868.7,196.4,868,197.3,867.8,198z"/>
			<path class="st2" d="M878.4,202c0,0.5-0.4,0.9-0.9,0.9c-0.4,0-0.8-0.3-0.9-0.7c0-0.1,0-0.1,0-0.2v-9.7c0-0.5,0.4-0.9,0.9-0.9
				c0.5,0,0.9,0.4,0.9,0.9v2.8c0.5-0.3,1.1-0.5,1.8-0.5c2,0,3.6,1.6,3.6,3.6v3.7c0,0.5-0.4,0.9-0.9,0.9s-0.9-0.4-0.9-0.9v-3.7
				c0-1-0.8-1.8-1.8-1.8c-1,0-1.7,0.8-1.8,1.8V202z"/>
			<path class="st2" d="M887.4,201.7c-0.7-0.7-1.1-1.7-1.1-2.9c0-1.1,0.4-2.1,1.1-2.9c0.7-0.8,1.7-1.2,2.8-1.2
				c1.1,0,2.1,0.5,2.7,1.2c0.7,0.8,1.1,1.8,1.1,2.9c0,1.1-0.4,2.2-1.1,2.9c-0.7,0.8-1.7,1.2-2.7,1.2
				C889,203,888.1,202.5,887.4,201.7z M888,198.8c0,0.7,0.2,1.3,0.6,1.7c0.4,0.4,0.9,0.6,1.6,0.6c0.6,0,1.1-0.2,1.5-0.6
				c0.4-0.5,0.6-1,0.6-1.7c0-0.7-0.2-1.3-0.6-1.7c-0.4-0.4-0.9-0.6-1.5-0.6c-0.6,0-1.2,0.3-1.6,0.6C888.2,197.6,888,198.2,888,198.8
				z"/>
			<path class="st2" d="M899.8,202.9c-1.9,0-3.4-1.5-3.4-3.4v-3.9c0-0.5,0.4-0.9,0.9-0.9c0.5,0,0.9,0.4,0.9,0.9v3.9
				c0,0.9,0.7,1.7,1.7,1.7c0.9,0,1.7-0.7,1.7-1.7v-3.9c0-0.5,0.4-0.9,0.9-0.9c0.5,0,0.9,0.4,0.9,0.9v3.9
				C903.3,201.4,901.7,202.9,899.8,202.9z"/>
			<path class="st2" d="M906.2,200.6c0.3-0.4,0.9-0.4,1.2-0.1c0.4,0.4,1.2,0.7,1.8,0.7c0.4,0,0.9-0.1,1.1-0.3
				c0.2-0.2,0.3-0.4,0.3-0.5c0-0.1,0-0.1,0-0.2c0,0-0.1-0.1-0.2-0.2c-0.2-0.2-0.7-0.3-1.3-0.5h0c-0.5-0.1-1-0.2-1.4-0.4
				c-0.4-0.2-0.8-0.5-1.1-0.9c-0.2-0.3-0.3-0.7-0.3-1c0-0.8,0.4-1.4,1-1.8c0.6-0.4,1.3-0.6,2-0.6c1.1,0,1.9,0.5,2.5,0.9
				c0.4,0.3,0.5,0.8,0.3,1.2c-0.3,0.4-0.8,0.5-1.2,0.2c-0.5-0.3-1-0.6-1.5-0.6c-0.4,0-0.8,0.1-1,0.3c-0.2,0.1-0.3,0.3-0.3,0.4
				c0,0.1,0,0.1,0,0.1c0,0,0.1,0.1,0.2,0.2c0.2,0.1,0.6,0.3,1.2,0.4l0,0h0c0.5,0.1,1,0.2,1.5,0.5c0.4,0.2,0.9,0.5,1.2,1
				c0.2,0.3,0.3,0.7,0.3,1.1c0,0.8-0.4,1.5-1,1.9c-0.6,0.4-1.3,0.7-2.1,0.7c-1.3,0-2.3-0.6-2.9-1.1
				C905.9,201.5,905.9,200.9,906.2,200.6z"/>
			<path class="st2" d="M914.1,198.8c0-2.2,1.8-4.1,4-4.1c2.1,0,3.8,1.6,3.9,3.8c0,0,0,0,0,0.1c0,0,0,0.1,0,0.1
				c0,0.4-0.4,0.7-0.9,0.7h-5.2c0.1,0.4,0.3,0.8,0.6,1.1c0.3,0.4,1,0.7,1.6,0.7c0.6,0,1.3-0.1,1.7-0.4c0.3-0.4,1-0.3,1.2,0
				c0.2,0.2,0.4,0.7,0,1.1c-0.8,0.7-1.8,1.1-2.9,1.1C915.8,202.9,914.1,201,914.1,198.8z M915.8,198h4.6c-0.2-0.7-1-1.6-2.4-1.7
				C916.7,196.4,916,197.3,915.8,198z"/>
		</g>
		<path class="st0" d="M544,123c-1.1,0-2-0.9-2-2V24c0-1.1,0.9-2,2-2s2,0.9,2,2v97C546,122.1,545.1,123,544,123z"/>
		<g class="st1">
			<path class="st2" d="M556.9,72c0-3.2,2.7-5.9,6-5.9c1.4,0,2.7,0.5,3.8,1.3c0.4,0.3,0.5,0.9,0.2,1.3c-0.3,0.4-0.9,0.5-1.3,0.2
				c-0.7-0.6-1.6-0.9-2.6-0.9c-1.1,0-2.2,0.5-2.9,1.2c-0.7,0.8-1.2,1.7-1.2,2.8s0.5,2.1,1.2,2.8c0.8,0.7,1.8,1.2,2.9,1.2
				c1,0,1.9-0.3,2.6-0.9c0.4-0.3,1-0.2,1.3,0.2c0.3,0.4,0.2,1-0.2,1.3c-1,0.8-2.3,1.3-3.8,1.3C559.7,77.9,557,75.3,556.9,72z"/>
			<path class="st2" d="M573.1,77.9c-1.9,0-3.4-1.5-3.4-3.4v-3.9c0-0.5,0.4-0.9,0.9-0.9c0.5,0,0.9,0.4,0.9,0.9v3.9
				c0,0.9,0.7,1.7,1.7,1.7c0.9,0,1.7-0.7,1.7-1.7v-3.9c0-0.5,0.4-0.9,0.8-0.9c0.5,0,0.9,0.4,0.9,0.9v3.9
				C576.6,76.4,575,77.9,573.1,77.9z"/>
			<path class="st2" d="M579.5,75.6c0.3-0.4,0.9-0.4,1.2-0.1c0.4,0.4,1.2,0.7,1.8,0.7c0.4,0,0.9-0.1,1.1-0.3
				c0.2-0.2,0.3-0.4,0.3-0.5c0-0.1,0-0.1,0-0.2c0,0-0.1-0.1-0.2-0.2c-0.2-0.2-0.7-0.3-1.3-0.5h0c-0.5-0.1-1-0.2-1.4-0.4
				c-0.4-0.2-0.8-0.5-1.1-0.9c-0.2-0.3-0.3-0.7-0.3-1c0-0.8,0.4-1.4,1-1.8c0.6-0.4,1.3-0.6,2-0.6c1.1,0,1.9,0.5,2.5,0.9
				c0.4,0.3,0.5,0.8,0.3,1.2c-0.3,0.4-0.8,0.5-1.2,0.2c-0.5-0.3-1-0.6-1.5-0.6c-0.4,0-0.8,0.1-1,0.3c-0.2,0.1-0.3,0.3-0.3,0.4
				c0,0.1,0,0.1,0,0.1c0,0,0.1,0.1,0.2,0.2c0.2,0.1,0.6,0.3,1.2,0.4l0,0h0c0.5,0.1,1,0.2,1.5,0.5c0.4,0.2,0.9,0.5,1.2,1
				c0.2,0.3,0.3,0.7,0.3,1.1c0,0.8-0.4,1.5-1,1.9c-0.6,0.4-1.3,0.7-2.1,0.7c-1.3,0-2.3-0.6-2.9-1.1
				C579.3,76.5,579.2,75.9,579.5,75.6z"/>
			<path class="st2" d="M591.9,70.6c0,0.5-0.4,0.9-0.9,0.9h-0.4v4.6c0.5,0,0.9,0.4,0.9,0.9s-0.4,0.9-0.9,0.9c-1,0-1.8-0.8-1.8-1.8
				v-4.6h-0.5c-0.5,0-0.9-0.4-0.9-0.9c0-0.5,0.4-0.9,0.9-0.9h0.5v-2.4c0-0.5,0.4-0.9,0.9-0.9s0.9,0.4,0.9,0.9v2.4h0.4
				C591.4,69.7,591.9,70.1,591.9,70.6z"/>
			<path class="st2" d="M595.2,76.7c-0.7-0.7-1.1-1.7-1.1-2.9c0-1.1,0.4-2.1,1.1-2.9c0.7-0.8,1.7-1.2,2.8-1.2c1.1,0,2.1,0.5,2.7,1.2
				c0.7,0.8,1.1,1.8,1.1,2.9c0,1.1-0.4,2.2-1.1,2.9c-0.7,0.8-1.7,1.2-2.7,1.2C596.9,78,596,77.5,595.2,76.7z M595.9,73.8
				c0,0.7,0.2,1.3,0.6,1.7c0.4,0.4,0.9,0.6,1.6,0.6c0.6,0,1.1-0.2,1.5-0.6c0.4-0.5,0.6-1,0.6-1.7c0-0.7-0.2-1.3-0.6-1.7
				c-0.4-0.4-0.9-0.6-1.5-0.6c-0.6,0-1.2,0.3-1.6,0.6C596.1,72.6,595.9,73.2,595.9,73.8z"/>
			<path class="st2" d="M611.5,73.1C611.5,73.1,611.5,73.2,611.5,73.1V77c0,0.5-0.4,0.9-0.9,0.9c-0.5,0-0.9-0.4-0.9-0.9v-3.9
				c0,0,0,0,0,0c0-0.9-0.8-1.6-1.7-1.6c-0.9,0-1.7,0.8-1.7,1.7V77c0,0,0,0.1,0,0.1c0,0,0,0,0,0c0,0,0,0.1,0,0.1c0,0,0,0,0,0.1
				c-0.1,0.3-0.5,0.5-0.8,0.5c-0.1,0-0.1,0-0.2,0c-0.4-0.1-0.7-0.4-0.7-0.9v-3.9c0,0,0,0,0,0v-2.5c0-0.5,0.4-0.9,0.9-0.9
				c0.3,0,0.7,0.2,0.8,0.5c0.5-0.3,1.1-0.5,1.8-0.5c1,0,1.9,0.4,2.6,1.1c0.6-0.7,1.5-1.1,2.6-1.1c1.9,0,3.4,1.5,3.4,3.4V77
				c0,0.5-0.4,0.9-0.9,0.9c-0.5,0-0.9-0.4-0.9-0.9v-3.9c0-0.9-0.8-1.7-1.7-1.7C612.3,71.5,611.6,72.2,611.5,73.1z"/>
			<path class="st2" d="M619.7,73.8c0-2.2,1.8-4.1,4-4.1c2.1,0,3.8,1.6,3.9,3.8c0,0,0,0,0,0.1c0,0,0,0.1,0,0.1
				c0,0.4-0.4,0.7-0.9,0.7h-5.2c0.1,0.4,0.3,0.8,0.6,1.1c0.3,0.4,1,0.7,1.6,0.7c0.6,0,1.3-0.1,1.7-0.4c0.3-0.4,1-0.3,1.2,0
				c0.2,0.2,0.4,0.7,0,1.1c-0.8,0.7-1.8,1.1-2.9,1.1C621.4,77.9,619.7,76,619.7,73.8z M621.5,73h4.6c-0.2-0.7-1-1.6-2.4-1.7
				C622.3,71.4,621.6,72.3,621.5,73z"/>
			<path class="st2" d="M634.9,70.6c0,0.5-0.4,0.9-0.9,0.9c-0.4,0-0.7,0.1-1,0.3c-0.3,0.2-0.6,0.5-0.8,0.8c-0.4,0.5-0.6,1.1-0.7,1.4
				V77c0,0.5-0.4,0.9-0.9,0.9c-0.5,0-0.9-0.4-0.9-0.9v-6.4c0-0.5,0.4-0.9,0.9-0.9c0.5,0,0.9,0.4,0.9,0.9v0.1
				c0.1-0.1,0.2-0.2,0.3-0.3c0.5-0.4,1.2-0.7,2.1-0.6C634.5,69.7,634.9,70.1,634.9,70.6z"/>
		</g>
		<path class="st0" d="M223,706c-1.1,0-2-0.9-2-2v-85c0-1.1,0.9-2,2-2s2,0.9,2,2v85C225,705.1,224.1,706,223,706z"/>
		<g class="st1">
			<path class="st2" d="M236.1,654.3c0.3-0.4,0.8-0.4,1.2-0.1c0.7,0.6,2,1.3,3.1,1.3c0.8,0,1.6-0.2,2-0.6c0.5-0.4,0.7-0.8,0.7-1.2
				c0-0.2,0-0.4-0.1-0.5c-0.1-0.2-0.2-0.3-0.5-0.5c-0.5-0.3-1.3-0.6-2.2-0.8h0c-0.8-0.1-1.5-0.3-2.1-0.6c-0.6-0.3-1.2-0.7-1.5-1.3
				c-0.2-0.4-0.4-0.9-0.4-1.3c0-1,0.6-1.8,1.3-2.4c0.8-0.6,1.8-0.9,2.8-0.9c1.6,0,2.7,0.8,3.6,1.3c0.4,0.3,0.5,0.8,0.2,1.2
				c-0.2,0.4-0.8,0.5-1.2,0.2c-0.8-0.6-1.6-1-2.6-1c-0.7,0-1.4,0.2-1.8,0.6s-0.6,0.7-0.6,1c0,0.2,0,0.3,0.1,0.5
				c0.1,0.1,0.2,0.3,0.4,0.4c0.4,0.3,1.2,0.6,2,0.7h0c0.8,0.2,1.6,0.4,2.3,0.7c0.7,0.3,1.3,0.8,1.6,1.4c0.2,0.4,0.4,0.9,0.4,1.4
				c0,1-0.6,1.9-1.4,2.5c-0.8,0.6-1.9,0.9-3,0.9c-1.8,0-3.3-0.9-4.2-1.6C235.9,655.2,235.8,654.6,236.1,654.3z"/>
			<path class="st2" d="M254,652.3C254,652.3,254,652.3,254,652.3v3.9c0,0.5-0.4,0.9-0.9,0.9c-0.5,0-0.9-0.4-0.9-0.9v-3.9
				c0,0,0,0,0,0c0-0.9-0.8-1.6-1.7-1.6c-0.9,0-1.7,0.8-1.7,1.7v3.9c0,0,0,0.1,0,0.1c0,0,0,0,0,0c0,0,0,0.1,0,0.1c0,0,0,0,0,0.1
				c-0.1,0.3-0.5,0.5-0.8,0.5c-0.1,0-0.1,0-0.2,0c-0.4-0.1-0.7-0.4-0.7-0.9v-3.9c0,0,0,0,0,0v-2.5c0-0.5,0.4-0.9,0.9-0.9
				c0.3,0,0.7,0.2,0.8,0.5c0.5-0.3,1.1-0.5,1.8-0.5c1,0,1.9,0.4,2.6,1.1c0.6-0.7,1.5-1.1,2.6-1.1c1.9,0,3.4,1.5,3.4,3.4v3.9
				c0,0.5-0.4,0.9-0.9,0.9s-0.9-0.4-0.9-0.9v-3.9c0-0.9-0.8-1.7-1.7-1.7C254.8,650.7,254,651.4,254,652.3z"/>
			<path class="st2" d="M269.6,653v3.2c0,0.5-0.4,0.9-0.9,0.9c-0.4,0-0.8-0.3-0.9-0.7c-0.6,0.4-1.4,0.7-2.2,0.7
				c-1.1,0-2.1-0.5-2.8-1.2c-0.7-0.8-1.1-1.8-1.1-2.9c0-1.1,0.4-2.1,1.1-2.9c0.7-0.8,1.7-1.2,2.8-1.2c0.8,0,1.6,0.3,2.2,0.7
				c0.1-0.4,0.4-0.7,0.9-0.7c0.5,0,0.9,0.4,0.9,0.9V653z M267.9,653c0-0.7-0.2-1.3-0.6-1.7c-0.4-0.4-0.9-0.7-1.5-0.7
				c-0.6,0-1.1,0.2-1.5,0.7c-0.4,0.4-0.6,1-0.6,1.7c0,0.7,0.2,1.3,0.6,1.7c0.4,0.4,0.9,0.6,1.5,0.6c0.6,0,1.1-0.2,1.5-0.6
				C267.7,654.3,267.9,653.7,267.9,653z"/>
			<path class="st2" d="M277.9,649.8c0,0.5-0.4,0.9-0.9,0.9c-0.4,0-0.7,0.1-1,0.3c-0.3,0.2-0.6,0.5-0.8,0.8
				c-0.4,0.5-0.6,1.1-0.7,1.4v3.1c0,0.5-0.4,0.9-0.9,0.9c-0.5,0-0.9-0.4-0.9-0.9v-6.4c0-0.5,0.4-0.9,0.9-0.9c0.5,0,0.9,0.4,0.9,0.9
				v0.1c0.1-0.1,0.2-0.2,0.3-0.3c0.5-0.4,1.2-0.7,2.1-0.6C277.5,648.9,277.9,649.3,277.9,649.8z"/>
			<path class="st2" d="M283.7,649.8c0,0.5-0.4,0.9-0.9,0.9h-0.4v4.6c0.5,0,0.9,0.4,0.9,0.9s-0.4,0.9-0.9,0.9c-1,0-1.8-0.8-1.8-1.8
				v-4.6h-0.5c-0.5,0-0.9-0.4-0.9-0.9c0-0.5,0.4-0.9,0.9-0.9h0.5v-2.4c0-0.5,0.4-0.9,0.9-0.9s0.9,0.4,0.9,0.9v2.4h0.4
				C283.3,648.9,283.7,649.3,283.7,649.8z"/>
		</g>
		<g class="st1">
			<path class="st2" d="M236.1,673.9c0.3-0.4,0.8-0.4,1.2-0.1c0.7,0.6,2,1.3,3.1,1.3c0.8,0,1.6-0.2,2-0.6c0.5-0.4,0.7-0.8,0.7-1.2
				c0-0.2,0-0.4-0.1-0.5c-0.1-0.2-0.2-0.3-0.5-0.5c-0.5-0.3-1.3-0.6-2.2-0.8h0c-0.8-0.1-1.5-0.3-2.1-0.6c-0.6-0.3-1.2-0.7-1.5-1.3
				c-0.2-0.4-0.4-0.9-0.4-1.3c0-1,0.6-1.8,1.3-2.4c0.8-0.6,1.8-0.9,2.8-0.9c1.6,0,2.7,0.8,3.6,1.3c0.4,0.3,0.5,0.8,0.2,1.2
				c-0.2,0.4-0.8,0.5-1.2,0.2c-0.8-0.6-1.6-1-2.6-1c-0.7,0-1.4,0.2-1.8,0.6s-0.6,0.7-0.6,1c0,0.2,0,0.3,0.1,0.5
				c0.1,0.1,0.2,0.3,0.4,0.4c0.4,0.3,1.2,0.6,2,0.7h0c0.8,0.2,1.6,0.4,2.3,0.7c0.7,0.3,1.3,0.8,1.6,1.4c0.2,0.4,0.4,0.9,0.4,1.4
				c0,1-0.6,1.9-1.4,2.5c-0.8,0.6-1.9,0.9-3,0.9c-1.8,0-3.3-0.9-4.2-1.6C235.9,674.8,235.8,674.2,236.1,673.9z"/>
			<path class="st2" d="M250.4,676.7c-1.9,0-3.4-1.5-3.4-3.4v-3.9c0-0.5,0.4-0.9,0.9-0.9c0.5,0,0.9,0.4,0.9,0.9v3.9
				c0,0.9,0.7,1.7,1.7,1.7c0.9,0,1.7-0.7,1.7-1.7v-3.9c0-0.5,0.4-0.9,0.9-0.9c0.5,0,0.9,0.4,0.9,0.9v3.9
				C253.9,675.2,252.3,676.7,250.4,676.7z"/>
			<path class="st2" d="M262.2,669.4c0,0.5-0.4,0.9-0.9,0.9c-0.4,0-0.7,0.1-1,0.3c-0.3,0.2-0.6,0.5-0.8,0.8
				c-0.4,0.5-0.6,1.1-0.7,1.4v3.1c0,0.5-0.4,0.9-0.9,0.9c-0.5,0-0.9-0.4-0.9-0.9v-6.4c0-0.5,0.4-0.9,0.9-0.9c0.5,0,0.9,0.4,0.9,0.9
				v0.1c0.1-0.1,0.2-0.2,0.3-0.3c0.5-0.4,1.2-0.7,2.1-0.6C261.9,668.6,262.2,668.9,262.2,669.4z"/>
			<path class="st2" d="M270.8,669.8l-2.7,6.3c0,0,0,0.1-0.1,0.1c0,0,0,0,0,0c0,0-0.1,0.1-0.1,0.1c0,0,0,0,0,0c0,0-0.1,0.1-0.1,0.1
				c0,0,0,0,0,0c0,0-0.1,0.1-0.1,0.1c0,0,0,0,0,0c0,0,0,0,0,0c0,0-0.1,0-0.1,0c0,0,0,0,0,0c-0.1,0-0.1,0-0.2,0c0,0-0.1,0-0.1,0
				c0,0,0,0,0,0c0,0-0.1,0-0.1,0c0,0,0,0,0,0c0,0,0,0,0,0c0,0-0.1,0-0.1-0.1c0,0,0,0,0,0c0,0-0.1,0-0.1-0.1c0,0,0,0,0,0
				c0,0,0-0.1-0.1-0.1c0,0,0,0,0,0c0,0,0-0.1-0.1-0.1l-2.6-6.3c-0.2-0.4,0-0.9,0.5-1.1c0.4-0.2,0.9,0,1.1,0.5l1.9,4.4l1.9-4.4
				c0.2-0.4,0.7-0.7,1.1-0.5C270.8,668.9,271,669.4,270.8,669.8z"/>
			<path class="st2" d="M272.8,672.6c0-2.2,1.8-4.1,4-4.1c2.1,0,3.8,1.6,3.9,3.8c0,0,0,0,0,0.1c0,0,0,0.1,0,0.1
				c0,0.4-0.4,0.7-0.9,0.7h-5.2c0.1,0.4,0.3,0.8,0.6,1.1c0.3,0.4,1,0.7,1.6,0.7c0.6,0,1.3-0.1,1.7-0.4c0.3-0.4,1-0.3,1.2,0
				c0.2,0.2,0.4,0.7,0,1.1c-0.8,0.7-1.8,1.1-2.9,1.1C274.6,676.7,272.8,674.9,272.8,672.6z M274.6,671.8h4.6c-0.2-0.7-1-1.6-2.4-1.7
				C275.4,670.2,274.7,671.2,274.6,671.8z"/>
			<path class="st2" d="M285.1,666.5c0,0.5-0.4,0.9-0.9,0.9c-0.5,0-0.9-0.4-0.9-0.9v-0.3c0-0.5,0.4-0.9,0.9-0.9
				c0.5,0,0.9,0.4,0.9,0.9V666.5z M285.1,669.5v6.4c0,0.5-0.4,0.9-0.9,0.9c-0.5,0-0.9-0.4-0.9-0.9v-6.4c0-0.5,0.4-0.9,0.9-0.9
				C284.8,668.6,285.1,668.9,285.1,669.5z"/>
			<path class="st2" d="M288.6,665.3c0.5,0,0.9,0.4,0.9,0.9v9.7c0,0.5-0.4,0.9-0.9,0.9c-0.5,0-0.9-0.4-0.9-0.9v-9.7
				C287.7,665.7,288.1,665.3,288.6,665.3z"/>
			<path class="st2" d="M292.7,665.3c0.5,0,0.9,0.4,0.9,0.9v9.7c0,0.5-0.4,0.9-0.9,0.9c-0.5,0-0.9-0.4-0.9-0.9v-9.7
				C291.8,665.7,292.2,665.3,292.7,665.3z"/>
			<path class="st2" d="M295.9,672.6c0-2.2,1.8-4.1,4-4.1c2.1,0,3.8,1.6,3.9,3.8c0,0,0,0,0,0.1c0,0,0,0.1,0,0.1
				c0,0.4-0.4,0.7-0.9,0.7h-5.2c0.1,0.4,0.3,0.8,0.6,1.1c0.3,0.4,1,0.7,1.6,0.7c0.6,0,1.3-0.1,1.7-0.4c0.3-0.4,1-0.3,1.2,0
				c0.2,0.2,0.4,0.7,0,1.1c-0.8,0.7-1.8,1.1-2.9,1.1C297.7,676.7,295.9,674.9,295.9,672.6z M297.7,671.8h4.6c-0.2-0.7-1-1.6-2.4-1.7
				C298.5,670.2,297.8,671.2,297.7,671.8z"/>
			<path class="st2" d="M313.4,672.6v3.2c0,0.5-0.4,0.9-0.9,0.9c-0.4,0-0.8-0.3-0.9-0.7c-0.6,0.4-1.4,0.7-2.2,0.7
				c-1.1,0-2.1-0.5-2.8-1.2c-0.7-0.8-1.1-1.8-1.1-2.9c0-1.1,0.4-2.1,1.1-2.9c0.7-0.8,1.7-1.2,2.8-1.2c0.8,0,1.6,0.3,2.2,0.7
				c0.1-0.4,0.4-0.7,0.9-0.7c0.5,0,0.9,0.4,0.9,0.9V672.6z M311.6,672.6c0-0.7-0.2-1.3-0.6-1.7c-0.4-0.4-0.9-0.7-1.5-0.7
				c-0.6,0-1.1,0.2-1.5,0.7c-0.4,0.4-0.6,1-0.6,1.7c0,0.7,0.2,1.3,0.6,1.7c0.4,0.4,0.9,0.6,1.5,0.6c0.6,0,1.1-0.2,1.5-0.6
				C311.4,673.9,311.6,673.3,311.6,672.6z"/>
			<path class="st2" d="M323.2,671.9v3.9c0,0.5-0.4,0.9-0.9,0.9c-0.5,0-0.9-0.4-0.9-0.9v-3.9c0-0.9-0.8-1.7-1.7-1.7
				c-0.9,0-1.6,0.7-1.6,1.7v3.9c0,0,0,0.1,0,0.2c-0.1,0.4-0.4,0.7-0.9,0.7c-0.5,0-0.9-0.4-0.9-0.9v-3.9v-2.5c0-0.5,0.4-0.9,0.9-0.9
				c0.3,0,0.7,0.2,0.8,0.5c0.5-0.3,1.1-0.5,1.7-0.5C321.7,668.5,323.2,670.1,323.2,671.9z"/>
			<path class="st2" d="M325.9,672.6c0-2.3,1.9-4.1,4.2-4.1c1,0,1.9,0.4,2.6,0.9c0.4,0.3,0.4,0.9,0.2,1.2c-0.3,0.4-0.9,0.5-1.2,0.2
				c-0.4-0.3-0.9-0.5-1.6-0.5c-1.3,0-2.4,1.1-2.4,2.4c0,1.3,1.1,2.3,2.4,2.3c0.6,0,1.1-0.2,1.6-0.5c0.4-0.3,0.9-0.2,1.2,0.2
				c0.3,0.4,0.2,0.9-0.2,1.2c-0.7,0.5-1.6,0.9-2.6,0.9C327.7,676.7,325.9,674.9,325.9,672.6z"/>
			<path class="st2" d="M334.9,672.6c0-2.2,1.8-4.1,4-4.1c2.1,0,3.8,1.6,3.9,3.8c0,0,0,0,0,0.1c0,0,0,0.1,0,0.1
				c0,0.4-0.4,0.7-0.9,0.7h-5.2c0.1,0.4,0.3,0.8,0.6,1.1c0.3,0.4,1,0.7,1.6,0.7c0.6,0,1.3-0.1,1.7-0.4c0.3-0.4,1-0.3,1.2,0
				c0.2,0.2,0.4,0.7,0,1.1c-0.8,0.7-1.8,1.1-2.9,1.1C336.7,676.7,335,674.9,334.9,672.6z M336.7,671.8h4.6c-0.2-0.7-1-1.6-2.4-1.7
				C337.5,670.2,336.9,671.2,336.7,671.8z"/>
		</g>
		<path class="st0" d="M775,1038.9c-1.1,0-2-0.9-2-2v-125c0-1.1,0.9-2,2-2s2,0.9,2,2v125C777,1038,776.1,1038.9,775,1038.9z"/>
		<g class="st1">
			<path class="st2" d="M788.5,959.3v-9.7c0-0.5,0.4-0.9,0.9-0.9h0c0,0,0,0,0,0h5.3c0.5,0,0.9,0.4,0.9,0.9c0,0.5-0.4,0.9-0.9,0.9
				h-4.4v3h3.8c0.5,0,0.9,0.4,0.9,0.9c0,0.5-0.4,0.9-0.9,0.9h-3.8v3h4.4c0.5,0,0.9,0.4,0.9,0.9c0,0.5-0.4,0.9-0.9,0.9h-5.3
				c0,0,0,0,0,0l0,0C788.8,960.2,788.5,959.8,788.5,959.3z"/>
			<path class="st2" d="M804.8,955.4v3.9c0,0.5-0.4,0.9-0.8,0.9c-0.5,0-0.9-0.4-0.9-0.9v-3.9c0-0.9-0.8-1.7-1.7-1.7
				c-0.9,0-1.6,0.7-1.6,1.7v3.9c0,0,0,0.1,0,0.2c-0.1,0.4-0.4,0.7-0.9,0.7c-0.5,0-0.9-0.4-0.9-0.9v-3.9v-2.5c0-0.5,0.4-0.9,0.9-0.9
				c0.3,0,0.7,0.2,0.8,0.5c0.5-0.3,1.1-0.5,1.7-0.5C803.3,952,804.8,953.6,804.8,955.4z"/>
			<path class="st2" d="M811.7,952.9c0,0.5-0.4,0.9-0.9,0.9h-0.4v4.6c0.5,0,0.9,0.4,0.9,0.9s-0.4,0.9-0.9,0.9c-1,0-1.8-0.8-1.8-1.8
				v-4.6h-0.5c-0.5,0-0.9-0.4-0.9-0.9c0-0.5,0.4-0.9,0.9-0.9h0.5v-2.4c0-0.5,0.4-0.9,0.9-0.9c0.5,0,0.9,0.4,0.9,0.9v2.4h0.4
				C811.2,952,811.7,952.4,811.7,952.9z"/>
			<path class="st2" d="M813.3,956.1c0-2.2,1.8-4.1,4-4.1c2.1,0,3.8,1.6,3.9,3.8c0,0,0,0,0,0.1c0,0,0,0.1,0,0.1
				c0,0.4-0.4,0.7-0.8,0.7h-5.2c0.1,0.4,0.3,0.8,0.6,1.1c0.3,0.4,1,0.7,1.6,0.7c0.6,0,1.3-0.1,1.7-0.4c0.3-0.4,1-0.3,1.2,0
				c0.2,0.2,0.4,0.7,0,1.1c-0.8,0.7-1.8,1.1-2.9,1.1C815.1,960.2,813.3,958.3,813.3,956.1z M815.1,955.3h4.6c-0.2-0.7-1-1.6-2.4-1.7
				C815.9,953.6,815.2,954.6,815.1,955.3z"/>
			<path class="st2" d="M828.5,952.9c0,0.5-0.4,0.9-0.9,0.9c-0.4,0-0.7,0.1-1,0.3c-0.3,0.2-0.6,0.5-0.8,0.8
				c-0.4,0.5-0.6,1.1-0.7,1.4v3.1c0,0.5-0.4,0.9-0.9,0.9c-0.5,0-0.9-0.4-0.9-0.9v-6.4c0-0.5,0.4-0.9,0.9-0.9c0.5,0,0.9,0.4,0.9,0.9
				v0.1c0.1-0.1,0.2-0.2,0.3-0.3c0.5-0.4,1.2-0.7,2.1-0.6C828.2,952,828.5,952.4,828.5,952.9z"/>
			<path class="st2" d="M830.7,962.4v-6.2c0,0,0,0,0,0v-3.2c0-0.5,0.4-0.9,0.9-0.9c0.5,0,0.8,0.3,0.9,0.7c0.6-0.4,1.4-0.7,2.2-0.7
				c2.2,0,4,1.9,4,4.1s-1.8,4.1-4,4.1c-0.8,0-1.6-0.2-2.2-0.7v2.9c0,0.5-0.4,0.9-0.9,0.9C831.1,963.3,830.7,962.9,830.7,962.4z
				 M832.5,956.1c0,0.6,0.2,1.3,0.6,1.6c0.4,0.5,0.9,0.7,1.6,0.7c0.6,0,1.1-0.2,1.5-0.7c0.4-0.4,0.6-1,0.6-1.6s-0.3-1.2-0.6-1.7
				c-0.4-0.4-1-0.7-1.5-0.7c-0.6,0-1.1,0.2-1.6,0.7C832.7,954.9,832.5,955.5,832.5,956.1z"/>
			<path class="st2" d="M846.5,952.9c0,0.5-0.4,0.9-0.9,0.9c-0.4,0-0.7,0.1-1,0.3c-0.3,0.2-0.6,0.5-0.8,0.8
				c-0.4,0.5-0.6,1.1-0.7,1.4v3.1c0,0.5-0.4,0.9-0.9,0.9c-0.5,0-0.9-0.4-0.9-0.9v-6.4c0-0.5,0.4-0.9,0.9-0.9c0.5,0,0.9,0.4,0.9,0.9
				v0.1c0.1-0.1,0.2-0.2,0.3-0.3c0.5-0.4,1.2-0.7,2.1-0.6C846.1,952,846.5,952.4,846.5,952.9z"/>
			<path class="st2" d="M850.4,950c0,0.5-0.4,0.9-0.9,0.9c-0.5,0-0.9-0.4-0.9-0.9v-0.3c0-0.5,0.4-0.9,0.9-0.9c0.5,0,0.9,0.4,0.9,0.9
				V950z M850.4,952.9v6.4c0,0.5-0.4,0.9-0.9,0.9c-0.5,0-0.9-0.4-0.9-0.9v-6.4c0-0.5,0.4-0.9,0.9-0.9
				C850,952,850.4,952.4,850.4,952.9z"/>
			<path class="st2" d="M852.8,957.9c0.3-0.4,0.9-0.4,1.2-0.1c0.4,0.4,1.2,0.7,1.8,0.7c0.4,0,0.9-0.1,1.1-0.3
				c0.2-0.2,0.3-0.4,0.3-0.5c0-0.1,0-0.1,0-0.2c0,0-0.1-0.1-0.2-0.2c-0.2-0.2-0.7-0.3-1.3-0.5h0c-0.5-0.1-1-0.2-1.4-0.4
				c-0.4-0.2-0.8-0.5-1.1-0.9c-0.2-0.3-0.3-0.7-0.3-1c0-0.8,0.4-1.4,1-1.8c0.6-0.4,1.3-0.6,2-0.6c1.1,0,1.9,0.5,2.5,0.9
				c0.4,0.3,0.5,0.8,0.3,1.2c-0.3,0.4-0.8,0.5-1.2,0.2c-0.5-0.3-1-0.6-1.5-0.6c-0.4,0-0.8,0.1-1,0.3c-0.2,0.1-0.3,0.3-0.3,0.4
				c0,0.1,0,0.1,0,0.1c0,0,0.1,0.1,0.2,0.2c0.2,0.1,0.6,0.3,1.2,0.4l0,0h0c0.5,0.1,1,0.2,1.5,0.5c0.4,0.2,0.9,0.5,1.2,1
				c0.2,0.3,0.3,0.7,0.3,1.1c0,0.8-0.4,1.5-1,1.9c-0.6,0.4-1.3,0.7-2.1,0.7c-1.3,0-2.3-0.6-2.9-1.1
				C852.6,958.8,852.5,958.2,852.8,957.9z"/>
			<path class="st2" d="M860.7,956.1c0-2.2,1.8-4.1,4-4.1c2.1,0,3.8,1.6,3.9,3.8c0,0,0,0,0,0.1c0,0,0,0.1,0,0.1
				c0,0.4-0.4,0.7-0.9,0.7h-5.2c0.1,0.4,0.3,0.8,0.6,1.1c0.3,0.4,1,0.7,1.6,0.7c0.6,0,1.3-0.1,1.7-0.4c0.3-0.4,1-0.3,1.2,0
				c0.2,0.2,0.4,0.7,0,1.1c-0.8,0.7-1.8,1.1-2.9,1.1C862.5,960.2,860.7,958.3,860.7,956.1z M862.5,955.3h4.6c-0.2-0.7-1-1.6-2.4-1.7
				C863.3,953.6,862.6,954.6,862.5,955.3z"/>
		</g>
		<g class="st1">
			<path class="st2" d="M796,978.5c0.2,0.5-0.1,1-0.6,1.1c-0.1,0-0.2,0-0.4,0c0,0,0,0,0,0c-0.2,0-0.4,0-0.6-0.2
				c-0.2-0.1-0.4-0.3-0.5-0.6c-0.2-0.5-0.3-1.1-0.3-2c0-0.3-0.1-0.5-0.2-0.7c-0.1-0.2-0.3-0.3-0.5-0.5c-0.3-0.2-0.8-0.4-0.9-0.4H790
				v3.5c0,0.5-0.4,0.9-0.9,0.9s-0.9-0.4-0.9-0.9v-9.7c0-0.5,0.4-0.9,0.9-0.9c0,0,0,0,0,0h2.9c1.9,0,3.5,1.6,3.5,3.5
				c0,1.1-0.5,2-1.3,2.7c0.2,0.2,0.4,0.4,0.6,0.6c0.3,0.5,0.5,1.1,0.5,1.8c0,0.5,0,0.8,0.1,1C795.7,978,795.9,978.2,796,978.5z
				 M793.7,971.9c0-0.9-0.8-1.7-1.7-1.7h-2v3.4h2C793,973.6,793.7,972.8,793.7,971.9z"/>
			<path class="st2" d="M797.8,975.7c0-2.2,1.8-4.1,4-4.1c2.1,0,3.8,1.6,3.9,3.8c0,0,0,0,0,0.1c0,0,0,0.1,0,0.1
				c0,0.4-0.4,0.7-0.9,0.7h-5.2c0.1,0.4,0.3,0.8,0.6,1.1c0.3,0.4,1,0.7,1.6,0.7c0.6,0,1.3-0.1,1.7-0.4c0.3-0.4,1-0.3,1.2,0
				c0.2,0.2,0.4,0.7,0,1.1c-0.8,0.7-1.8,1.1-2.9,1.1C799.5,979.8,797.8,978,797.8,975.7z M799.5,974.9h4.6c-0.2-0.7-1-1.6-2.4-1.7
				C800.4,973.3,799.7,974.3,799.5,974.9z"/>
			<path class="st2" d="M807.9,977.5c0.3-0.4,0.9-0.4,1.2-0.1c0.4,0.4,1.2,0.7,1.8,0.7c0.4,0,0.9-0.1,1.1-0.3
				c0.2-0.2,0.3-0.4,0.3-0.5c0-0.1,0-0.1,0-0.2c0,0-0.1-0.1-0.2-0.2c-0.2-0.2-0.7-0.3-1.3-0.5h0c-0.5-0.1-1-0.2-1.4-0.4
				c-0.4-0.2-0.8-0.5-1.1-0.9c-0.2-0.3-0.3-0.7-0.3-1c0-0.8,0.4-1.4,1-1.8c0.6-0.4,1.3-0.6,2-0.6c1.1,0,1.9,0.5,2.5,0.9
				c0.4,0.3,0.5,0.8,0.3,1.2c-0.3,0.4-0.8,0.5-1.2,0.2c-0.5-0.3-1-0.6-1.5-0.6c-0.4,0-0.8,0.1-1,0.3c-0.2,0.1-0.3,0.3-0.3,0.4
				c0,0.1,0,0.1,0,0.1c0,0,0.1,0.1,0.2,0.2c0.2,0.1,0.6,0.3,1.2,0.4l0,0h0c0.5,0.1,1,0.2,1.5,0.5c0.4,0.2,0.9,0.5,1.2,1
				c0.2,0.3,0.3,0.7,0.3,1.1c0,0.8-0.4,1.5-1,1.9c-0.6,0.4-1.3,0.7-2.1,0.7c-1.3,0-2.3-0.6-2.9-1.1
				C807.6,978.4,807.6,977.8,807.9,977.5z"/>
			<path class="st2" d="M817.1,978.6c-0.7-0.7-1.1-1.7-1.1-2.9c0-1.1,0.4-2.1,1.1-2.9c0.7-0.8,1.7-1.2,2.8-1.2
				c1.1,0,2.1,0.5,2.7,1.2c0.7,0.8,1.1,1.8,1.1,2.9c0,1.1-0.4,2.2-1.1,2.9c-0.7,0.8-1.7,1.2-2.7,1.2
				C818.8,979.9,817.8,979.4,817.1,978.6z M817.7,975.7c0,0.7,0.2,1.3,0.6,1.7c0.4,0.4,0.9,0.6,1.6,0.6c0.6,0,1.1-0.2,1.5-0.6
				c0.4-0.5,0.6-1,0.6-1.7c0-0.7-0.2-1.3-0.6-1.7c-0.4-0.4-0.9-0.6-1.5-0.6c-0.6,0-1.2,0.3-1.6,0.6
				C817.9,974.5,817.7,975.1,817.7,975.7z"/>
			<path class="st2" d="M829.5,979.8c-1.9,0-3.4-1.5-3.4-3.4v-3.9c0-0.5,0.4-0.9,0.9-0.9c0.5,0,0.9,0.4,0.9,0.9v3.9
				c0,0.9,0.7,1.7,1.7,1.7c0.9,0,1.7-0.7,1.7-1.7v-3.9c0-0.5,0.4-0.9,0.9-0.9c0.5,0,0.9,0.4,0.9,0.9v3.9
				C833,978.3,831.4,979.8,829.5,979.8z"/>
			<path class="st2" d="M841.3,972.5c0,0.5-0.4,0.9-0.9,0.9c-0.4,0-0.7,0.1-1,0.3c-0.3,0.2-0.6,0.5-0.8,0.8
				c-0.4,0.5-0.6,1.1-0.7,1.4v3.1c0,0.5-0.4,0.9-0.9,0.9c-0.5,0-0.9-0.4-0.9-0.9v-6.4c0-0.5,0.4-0.9,0.9-0.9c0.5,0,0.9,0.4,0.9,0.9
				v0.1c0.1-0.1,0.2-0.2,0.3-0.3c0.5-0.4,1.2-0.7,2.1-0.6C841,971.7,841.3,972,841.3,972.5z"/>
			<path class="st2" d="M842.5,975.7c0-2.3,1.9-4.1,4.2-4.1c1,0,1.9,0.4,2.6,0.9c0.4,0.3,0.4,0.9,0.2,1.2c-0.3,0.4-0.9,0.5-1.2,0.2
				c-0.4-0.3-0.9-0.5-1.6-0.5c-1.3,0-2.4,1.1-2.4,2.4c0,1.3,1.1,2.3,2.4,2.3c0.6,0,1.1-0.2,1.6-0.5c0.4-0.3,0.9-0.2,1.2,0.2
				c0.3,0.4,0.2,0.9-0.2,1.2c-0.7,0.5-1.6,0.9-2.6,0.9C844.4,979.8,842.5,978,842.5,975.7z"/>
			<path class="st2" d="M851.6,975.7c0-2.2,1.8-4.1,4-4.1c2.1,0,3.8,1.6,3.9,3.8c0,0,0,0,0,0.1c0,0,0,0.1,0,0.1
				c0,0.4-0.4,0.7-0.9,0.7h-5.2c0.1,0.4,0.3,0.8,0.6,1.1c0.3,0.4,1,0.7,1.6,0.7c0.6,0,1.3-0.1,1.7-0.4c0.3-0.4,1-0.3,1.2,0
				c0.2,0.2,0.4,0.7,0,1.1c-0.8,0.7-1.8,1.1-2.9,1.1C853.3,979.8,851.6,978,851.6,975.7z M853.4,974.9h4.6c-0.2-0.7-1-1.6-2.4-1.7
				C854.2,973.3,853.5,974.3,853.4,974.9z"/>
		</g>
		<g class="st1">
			<path class="st2" d="M792.3,995h-2v3.5c0,0.5-0.4,0.9-0.9,0.9c-0.5,0-0.9-0.4-0.9-0.9v-9.7c0-0.5,0.4-0.9,0.9-0.9h0h2.9
				c1.9,0,3.5,1.6,3.5,3.5C795.8,993.4,794.2,995,792.3,995z M790.3,993.2h2c0.9,0,1.7-0.8,1.7-1.7c0-0.9-0.8-1.7-1.7-1.7h-2V993.2z
				"/>
			<path class="st2" d="M798.8,988c0.5,0,0.9,0.4,0.9,0.9v9.7c0,0.5-0.4,0.9-0.9,0.9c-0.5,0-0.9-0.4-0.9-0.9v-9.7
				C797.9,988.4,798.3,988,798.8,988z"/>
			<path class="st2" d="M808.8,995.4v3.2c0,0.5-0.4,0.9-0.9,0.9c-0.4,0-0.8-0.3-0.9-0.7c-0.6,0.4-1.4,0.7-2.2,0.7
				c-1.1,0-2.1-0.5-2.8-1.2c-0.7-0.8-1.1-1.8-1.1-2.9c0-1.1,0.4-2.1,1.1-2.9c0.7-0.8,1.7-1.2,2.8-1.2c0.8,0,1.6,0.3,2.2,0.7
				c0.1-0.4,0.4-0.7,0.9-0.7c0.5,0,0.9,0.4,0.9,0.9V995.4z M807.1,995.4c0-0.7-0.2-1.3-0.6-1.7c-0.4-0.4-0.9-0.7-1.5-0.7
				c-0.6,0-1.1,0.2-1.5,0.7c-0.4,0.4-0.6,1-0.6,1.7c0,0.7,0.2,1.3,0.6,1.7c0.4,0.4,0.9,0.6,1.5,0.6c0.6,0,1.1-0.2,1.5-0.6
				C806.8,996.6,807.1,996,807.1,995.4z"/>
			<path class="st2" d="M818.7,994.7v3.9c0,0.5-0.4,0.9-0.9,0.9c-0.5,0-0.9-0.4-0.9-0.9v-3.9c0-0.9-0.8-1.7-1.7-1.7
				c-0.9,0-1.6,0.7-1.6,1.7v3.9c0,0,0,0.1,0,0.2c-0.1,0.4-0.4,0.7-0.9,0.7c-0.5,0-0.9-0.4-0.9-0.9v-3.9v-2.5c0-0.5,0.4-0.9,0.9-0.9
				c0.3,0,0.7,0.2,0.8,0.5c0.5-0.3,1.1-0.5,1.7-0.5C817.1,991.3,818.7,992.8,818.7,994.7z"/>
			<path class="st2" d="M828.7,994.7v3.9c0,0.5-0.4,0.9-0.9,0.9c-0.5,0-0.9-0.4-0.9-0.9v-3.9c0-0.9-0.8-1.7-1.7-1.7
				c-0.9,0-1.6,0.7-1.6,1.7v3.9c0,0,0,0.1,0,0.2c-0.1,0.4-0.4,0.7-0.9,0.7c-0.5,0-0.9-0.4-0.9-0.9v-3.9v-2.5c0-0.5,0.4-0.9,0.9-0.9
				c0.3,0,0.7,0.2,0.8,0.5c0.5-0.3,1.1-0.5,1.7-0.5C827.2,991.3,828.7,992.8,828.7,994.7z"/>
			<path class="st2" d="M833.7,989.2c0,0.5-0.4,0.9-0.9,0.9c-0.5,0-0.9-0.4-0.9-0.9v-0.3c0-0.5,0.4-0.9,0.9-0.9
				c0.5,0,0.9,0.4,0.9,0.9V989.2z M833.7,992.2v6.4c0,0.5-0.4,0.9-0.9,0.9c-0.5,0-0.9-0.4-0.9-0.9v-6.4c0-0.5,0.4-0.9,0.9-0.9
				C833.3,991.3,833.7,991.6,833.7,992.2z"/>
			<path class="st2" d="M843.3,994.7v3.9c0,0.5-0.4,0.9-0.8,0.9c-0.5,0-0.9-0.4-0.9-0.9v-3.9c0-0.9-0.8-1.7-1.7-1.7
				c-0.9,0-1.6,0.7-1.6,1.7v3.9c0,0,0,0.1,0,0.2c-0.1,0.4-0.4,0.7-0.9,0.7c-0.5,0-0.9-0.4-0.9-0.9v-3.9v-2.5c0-0.5,0.4-0.9,0.9-0.9
				c0.3,0,0.7,0.2,0.8,0.5c0.5-0.3,1.1-0.5,1.7-0.5C841.8,991.3,843.3,992.8,843.3,994.7z"/>
			<path class="st2" d="M853.8,995.4v3c0,2.1-1.8,3.9-3.9,3.9c-0.6,0-1.2-0.1-1.7-0.4c-0.4-0.2-0.6-0.7-0.4-1.2
				c0.2-0.4,0.7-0.6,1.2-0.4c0.3,0.1,0.6,0.2,0.9,0.2c1.1,0,1.9-0.8,2.1-1.8c-0.6,0.4-1.3,0.7-2.1,0.7c-1.1,0-2.1-0.5-2.8-1.2
				c-0.7-0.7-1.1-1.7-1.1-2.9c0-1.1,0.4-2.1,1.1-2.9c0.7-0.7,1.7-1.2,2.8-1.2c0.8,0,1.6,0.3,2.2,0.7c0.1-0.4,0.4-0.7,0.9-0.7
				c0.5,0,0.9,0.4,0.9,0.9V995.4L853.8,995.4z M852.1,995.4c0-0.7-0.3-1.3-0.6-1.7c-0.4-0.5-0.9-0.7-1.6-0.7c-0.6,0-1.1,0.2-1.5,0.7
				c-0.4,0.4-0.7,1-0.7,1.7c0,0.7,0.3,1.3,0.7,1.7c0.4,0.4,0.9,0.7,1.5,0.7c0.6,0,1.1-0.2,1.6-0.7
				C851.8,996.7,852.1,996.1,852.1,995.4z"/>
			<path class="st2" d="M862,996.6c0.3-0.4,0.8-0.4,1.2-0.1c0.7,0.6,2,1.3,3.1,1.3c0.8,0,1.6-0.2,2-0.6c0.5-0.4,0.7-0.8,0.7-1.2
				c0-0.2,0-0.4-0.1-0.5c-0.1-0.2-0.2-0.3-0.5-0.5c-0.5-0.3-1.3-0.6-2.2-0.8h0c-0.8-0.1-1.5-0.3-2.1-0.6c-0.6-0.3-1.2-0.7-1.5-1.3
				c-0.2-0.4-0.4-0.9-0.4-1.3c0-1,0.6-1.8,1.3-2.4c0.8-0.6,1.8-0.9,2.8-0.9c1.6,0,2.7,0.8,3.6,1.3c0.4,0.3,0.5,0.8,0.2,1.2
				c-0.2,0.4-0.8,0.5-1.2,0.2c-0.8-0.6-1.6-1-2.6-1c-0.7,0-1.4,0.2-1.8,0.6s-0.6,0.7-0.6,1c0,0.2,0,0.3,0.1,0.5s0.2,0.3,0.4,0.4
				c0.4,0.3,1.2,0.6,2,0.7h0c0.8,0.2,1.6,0.4,2.3,0.7c0.7,0.3,1.3,0.8,1.6,1.4c0.2,0.4,0.4,0.9,0.4,1.4c0,1-0.6,1.9-1.4,2.5
				c-0.8,0.6-1.9,0.9-3,0.9c-1.8,0-3.3-0.9-4.2-1.6C861.8,997.5,861.7,996.9,862,996.6z"/>
			<path class="st2" d="M879,992.1v3.9v2.3c0,2.2-1.7,3.9-3.9,3.9c-0.6,0-1.2-0.2-1.7-0.4c-0.5-0.2-0.6-0.7-0.4-1.2
				c0.2-0.4,0.8-0.6,1.2-0.4c0.3,0.1,0.6,0.2,0.9,0.2c1,0,1.8-0.6,2-1.5c-0.5,0.3-1,0.4-1.6,0.4c-1.9,0-3.4-1.6-3.4-3.4v-3.9
				c0-0.5,0.4-0.9,0.9-0.9c0.5,0,0.9,0.4,0.9,0.9v3.9c0,0.9,0.8,1.7,1.7,1.7s1.7-0.7,1.7-1.7v-3.9c0-0.5,0.4-0.9,0.9-0.9
				C878.6,991.3,879,991.6,879,992.1z"/>
			<path class="st2" d="M881.7,997.1c0.3-0.4,0.9-0.4,1.2-0.1c0.4,0.4,1.2,0.7,1.8,0.7c0.4,0,0.8-0.1,1.1-0.3
				c0.2-0.2,0.3-0.4,0.3-0.5c0-0.1,0-0.1,0-0.2c0,0-0.1-0.1-0.2-0.2c-0.2-0.2-0.7-0.3-1.3-0.5h0c-0.5-0.1-1-0.2-1.4-0.4
				c-0.4-0.2-0.8-0.5-1.1-0.9c-0.2-0.3-0.3-0.7-0.3-1c0-0.8,0.4-1.4,1-1.8c0.6-0.4,1.3-0.6,2-0.6c1.1,0,1.9,0.5,2.5,0.9
				c0.4,0.3,0.5,0.8,0.3,1.2c-0.3,0.4-0.8,0.5-1.2,0.2c-0.5-0.3-1-0.6-1.5-0.6c-0.4,0-0.8,0.1-1,0.3c-0.2,0.1-0.3,0.3-0.3,0.4
				c0,0.1,0,0.1,0,0.1c0,0,0.1,0.1,0.2,0.2c0.2,0.1,0.6,0.3,1.2,0.4l0,0h0c0.5,0.1,1,0.2,1.5,0.5c0.4,0.2,0.9,0.5,1.2,1
				c0.2,0.3,0.3,0.7,0.3,1.1c0,0.8-0.4,1.5-1,1.9c-0.6,0.4-1.3,0.7-2.1,0.7c-1.3,0-2.3-0.6-2.9-1.1
				C881.5,998,881.4,997.5,881.7,997.1z"/>
			<path class="st2" d="M894.1,992.2c0,0.5-0.4,0.9-0.9,0.9h-0.4v4.6c0.5,0,0.9,0.4,0.9,0.9s-0.4,0.9-0.9,0.9c-1,0-1.8-0.8-1.8-1.8
				v-4.6h-0.5c-0.5,0-0.9-0.4-0.9-0.9c0-0.5,0.4-0.9,0.9-0.9h0.5v-2.4c0-0.5,0.4-0.9,0.9-0.9c0.5,0,0.9,0.4,0.9,0.9v2.4h0.4
				C893.7,991.3,894.1,991.6,894.1,992.2z"/>
			<path class="st2" d="M895.7,995.3c0-2.2,1.8-4.1,4-4.1c2.1,0,3.8,1.6,3.9,3.8c0,0,0,0,0,0.1c0,0,0,0.1,0,0.1
				c0,0.4-0.4,0.7-0.8,0.7h-5.2c0.1,0.4,0.3,0.8,0.6,1.1c0.3,0.4,1,0.7,1.6,0.7c0.6,0,1.3-0.1,1.7-0.4c0.3-0.4,1-0.3,1.2,0
				c0.2,0.2,0.4,0.7,0,1.1c-0.8,0.7-1.8,1.1-2.9,1.1C897.5,999.4,895.8,997.6,895.7,995.3z M897.5,994.5h4.6c-0.2-0.7-1-1.6-2.4-1.7
				C898.3,992.9,897.7,993.9,897.5,994.5z"/>
			<path class="st2" d="M913.1,994.6C913.1,994.7,913.1,994.7,913.1,994.6v3.9c0,0.5-0.4,0.9-0.9,0.9c-0.5,0-0.9-0.4-0.9-0.9v-3.9
				c0,0,0,0,0,0c0-0.9-0.8-1.6-1.7-1.6c-0.9,0-1.7,0.8-1.7,1.7v3.9c0,0,0,0.1,0,0.1c0,0,0,0,0,0c0,0,0,0.1,0,0.1c0,0,0,0,0,0.1
				c-0.1,0.3-0.5,0.5-0.8,0.5c-0.1,0-0.1,0-0.2,0c-0.4-0.1-0.7-0.4-0.7-0.9v-3.9c0,0,0,0,0,0v-2.5c0-0.5,0.4-0.9,0.9-0.9
				c0.3,0,0.7,0.2,0.8,0.5c0.5-0.3,1.1-0.5,1.8-0.5c1,0,1.9,0.4,2.6,1.1c0.6-0.7,1.5-1.1,2.6-1.1c1.9,0,3.4,1.5,3.4,3.4v3.9
				c0,0.5-0.4,0.9-0.9,0.9c-0.5,0-0.9-0.4-0.9-0.9v-3.9c0-0.9-0.8-1.7-1.7-1.7C913.9,993,913.1,993.7,913.1,994.6z"/>
		</g>
		<path class="st0" d="M211,938c-1.1,0-2-0.9-2-2v-85c0-1.1,0.9-2,2-2s2,0.9,2,2v85C213,937.1,212.1,938,211,938z"/>
		<g class="st1">
			<path class="st2" d="M234.3,878.5v9.7c0,0.5-0.4,0.9-0.9,0.9c-0.5,0-0.9-0.4-0.9-0.9v-6.9l-2.4,3.3c-0.2,0.2-0.4,0.4-0.7,0.4h0h0
				c-0.3,0-0.6-0.1-0.8-0.4l-2.3-3.3v6.9c0,0.5-0.4,0.9-0.9,0.9c-0.5,0-0.9-0.4-0.9-0.9v-9.7c0-0.5,0.4-0.9,0.9-0.9c0,0,0,0,0,0
				c0.3,0,0.6,0.1,0.7,0.4l3.3,4.5l3.3-4.5c0.2-0.2,0.4-0.4,0.7-0.4c0,0,0,0,0,0C233.9,877.7,234.3,878.1,234.3,878.5z"/>
			<path class="st2" d="M245,885v3.2c0,0.5-0.4,0.9-0.9,0.9c-0.4,0-0.8-0.3-0.9-0.7c-0.6,0.4-1.4,0.7-2.2,0.7
				c-1.1,0-2.1-0.5-2.8-1.2c-0.7-0.8-1.1-1.8-1.1-2.9c0-1.1,0.4-2.1,1.1-2.9c0.7-0.8,1.7-1.2,2.8-1.2c0.8,0,1.6,0.3,2.2,0.7
				c0.1-0.4,0.4-0.7,0.9-0.7c0.5,0,0.9,0.4,0.9,0.9V885z M243.3,885c0-0.7-0.2-1.3-0.6-1.7c-0.4-0.4-0.9-0.7-1.5-0.7
				c-0.6,0-1.1,0.2-1.5,0.7c-0.4,0.4-0.6,1-0.6,1.7c0,0.7,0.2,1.3,0.6,1.7c0.4,0.4,0.9,0.6,1.5,0.6c0.6,0,1.1-0.2,1.5-0.6
				C243,886.3,243.3,885.7,243.3,885z"/>
			<path class="st2" d="M253.2,881.8c0,0.5-0.4,0.9-0.9,0.9c-0.4,0-0.7,0.1-1,0.3c-0.3,0.2-0.6,0.5-0.8,0.8
				c-0.4,0.5-0.6,1.1-0.7,1.4v3.1c0,0.5-0.4,0.9-0.9,0.9c-0.5,0-0.9-0.4-0.9-0.9v-6.4c0-0.5,0.4-0.9,0.9-0.9c0.5,0,0.9,0.4,0.9,0.9
				v0.1c0.1-0.1,0.2-0.2,0.3-0.3c0.5-0.4,1.2-0.7,2.1-0.6C252.9,880.9,253.2,881.3,253.2,881.8z"/>
			<path class="st2" d="M255.4,888.2v-9.7c0-0.5,0.4-0.9,0.9-0.9s0.9,0.4,0.9,0.9v5.7l3.4-3.4c0.3-0.3,0.9-0.3,1.3,0
				c0.4,0.4,0.4,0.9,0,1.3l-2.5,2.5l2.5,3c0.3,0.4,0.3,1-0.1,1.3c-0.2,0.1-0.4,0.2-0.6,0.2c-0.3,0-0.5-0.1-0.7-0.3l-2.4-2.9
				l-0.9,0.9v1.4c0,0.5-0.4,0.9-0.9,0.9S255.4,888.7,255.4,888.2z"/>
			<path class="st2" d="M263.5,885c0-2.2,1.8-4.1,4-4.1c2.1,0,3.8,1.6,3.9,3.8c0,0,0,0,0,0.1c0,0,0,0.1,0,0.1c0,0.4-0.4,0.7-0.9,0.7
				h-5.2c0.1,0.4,0.3,0.8,0.6,1.1c0.3,0.4,1,0.7,1.6,0.7c0.6,0,1.3-0.1,1.7-0.4c0.3-0.4,1-0.3,1.2,0c0.2,0.2,0.4,0.7,0,1.1
				c-0.8,0.7-1.8,1.1-2.9,1.1C265.3,889.1,263.6,887.2,263.5,885z M265.3,884.2h4.6c-0.2-0.7-1-1.6-2.4-1.7
				C266.1,882.5,265.5,883.5,265.3,884.2z"/>
			<path class="st2" d="M277.1,881.8c0,0.5-0.4,0.9-0.9,0.9h-0.4v4.6c0.5,0,0.9,0.4,0.9,0.9s-0.4,0.9-0.9,0.9c-1,0-1.8-0.8-1.8-1.8
				v-4.6h-0.5c-0.5,0-0.9-0.4-0.9-0.9c0-0.5,0.4-0.9,0.9-0.9h0.5v-2.4c0-0.5,0.4-0.9,0.9-0.9s0.9,0.4,0.9,0.9v2.4h0.4
				C276.7,880.9,277.1,881.3,277.1,881.8z"/>
			<path class="st2" d="M282.6,881.8c0,0.5-0.4,0.9-0.9,0.9h-0.4v4.6c0.5,0,0.9,0.4,0.9,0.9s-0.4,0.9-0.9,0.9c-1,0-1.8-0.8-1.8-1.8
				v-4.6H279c-0.5,0-0.9-0.4-0.9-0.9c0-0.5,0.4-0.9,0.9-0.9h0.5v-2.4c0-0.5,0.4-0.9,0.9-0.9s0.9,0.4,0.9,0.9v2.4h0.4
				C282.2,880.9,282.6,881.3,282.6,881.8z"/>
			<path class="st2" d="M287.3,878.9c0,0.5-0.4,0.9-0.9,0.9c-0.5,0-0.9-0.4-0.9-0.9v-0.3c0-0.5,0.4-0.9,0.9-0.9
				c0.5,0,0.9,0.4,0.9,0.9V878.9z M287.3,881.8v6.4c0,0.5-0.4,0.9-0.9,0.9c-0.5,0-0.9-0.4-0.9-0.9v-6.4c0-0.5,0.4-0.9,0.9-0.9
				C286.9,880.9,287.3,881.3,287.3,881.8z"/>
			<path class="st2" d="M296.9,884.3v3.9c0,0.5-0.4,0.9-0.9,0.9c-0.5,0-0.9-0.4-0.9-0.9v-3.9c0-0.9-0.8-1.7-1.7-1.7
				c-0.9,0-1.6,0.7-1.6,1.7v3.9c0,0,0,0.1,0,0.2c-0.1,0.4-0.4,0.7-0.9,0.7c-0.5,0-0.9-0.4-0.9-0.9v-3.9v-2.5c0-0.5,0.4-0.9,0.9-0.9
				c0.3,0,0.7,0.2,0.8,0.5c0.5-0.3,1.1-0.5,1.7-0.5C295.4,880.9,296.9,882.5,296.9,884.3z"/>
			<path class="st2" d="M307.4,885.1v3c0,2.1-1.8,3.9-3.9,3.9c-0.6,0-1.2-0.1-1.7-0.4c-0.4-0.2-0.6-0.7-0.4-1.2
				c0.2-0.4,0.7-0.6,1.2-0.4c0.3,0.1,0.6,0.2,0.9,0.2c1.1,0,1.9-0.8,2.1-1.8c-0.6,0.4-1.3,0.7-2.1,0.7c-1.1,0-2.1-0.5-2.8-1.2
				c-0.7-0.7-1.1-1.7-1.1-2.9c0-1.1,0.4-2.1,1.1-2.9c0.7-0.7,1.7-1.2,2.8-1.2c0.9,0,1.6,0.3,2.2,0.7c0.1-0.4,0.4-0.7,0.9-0.7
				c0.5,0,0.9,0.4,0.9,0.9V885.1L307.4,885.1z M305.6,885c0-0.7-0.3-1.3-0.6-1.7c-0.4-0.5-0.9-0.7-1.6-0.7c-0.6,0-1.1,0.2-1.5,0.7
				c-0.4,0.4-0.7,1-0.7,1.7c0,0.7,0.3,1.3,0.7,1.7c0.4,0.4,0.9,0.7,1.5,0.7c0.6,0,1.1-0.2,1.6-0.7
				C305.4,886.4,305.6,885.7,305.6,885z"/>
		</g>
		<g class="st1">
			<path class="st2" d="M230.3,906h-4l-0.8,2.1c-0.1,0.4-0.5,0.6-0.9,0.6c-0.1,0-0.2,0-0.3,0c-0.5-0.2-0.7-0.7-0.5-1.2l3.6-9.6
				c0.1-0.4,0.5-0.6,0.9-0.6c0.4,0,0.7,0.2,0.9,0.6l3.6,9.6c0.2,0.5-0.1,1-0.5,1.2c-0.1,0-0.2,0-0.3,0c-0.4,0-0.7-0.2-0.8-0.6
				L230.3,906z M229.6,904.2l-1.3-3.5l-1.3,3.5H229.6z"/>
			<path class="st2" d="M241.7,903.9v3.9c0,0.5-0.4,0.9-0.9,0.9c-0.5,0-0.9-0.4-0.9-0.9v-3.9c0-0.9-0.8-1.7-1.7-1.7
				c-0.9,0-1.6,0.7-1.6,1.7v3.9c0,0,0,0.1,0,0.2c-0.1,0.4-0.4,0.7-0.9,0.7c-0.5,0-0.9-0.4-0.9-0.9v-3.9v-2.5c0-0.5,0.4-0.9,0.9-0.9
				c0.3,0,0.7,0.2,0.8,0.5c0.5-0.3,1.1-0.5,1.7-0.5C240.1,900.5,241.7,902.1,241.7,903.9z"/>
			<path class="st2" d="M251.8,904.6v3.2c0,0.5-0.4,0.9-0.9,0.9c-0.4,0-0.8-0.3-0.9-0.7c-0.6,0.4-1.4,0.7-2.2,0.7
				c-1.1,0-2.1-0.5-2.8-1.2c-0.7-0.8-1.1-1.8-1.1-2.9c0-1.1,0.4-2.1,1.1-2.9c0.7-0.8,1.7-1.2,2.8-1.2c0.8,0,1.6,0.3,2.2,0.7
				c0.1-0.4,0.4-0.7,0.9-0.7c0.5,0,0.9,0.4,0.9,0.9V904.6z M250,904.6c0-0.7-0.2-1.3-0.6-1.7c-0.4-0.4-0.9-0.7-1.5-0.7
				c-0.6,0-1.1,0.2-1.5,0.7c-0.4,0.4-0.6,1-0.6,1.7c0,0.7,0.2,1.3,0.6,1.7c0.4,0.4,0.9,0.6,1.5,0.6c0.6,0,1.1-0.2,1.5-0.6
				C249.8,905.9,250,905.3,250,904.6z"/>
			<path class="st2" d="M256.2,897.3c0.5,0,0.9,0.4,0.9,0.9v9.7c0,0.5-0.4,0.9-0.9,0.9c-0.5,0-0.9-0.4-0.9-0.9v-9.7
				C255.3,897.7,255.7,897.3,256.2,897.3z"/>
			<path class="st2" d="M266.5,901.4v3.9v2.3c0,2.2-1.7,3.9-3.9,3.9c-0.6,0-1.2-0.2-1.7-0.4c-0.5-0.2-0.6-0.7-0.4-1.2
				c0.2-0.4,0.8-0.6,1.2-0.4c0.3,0.1,0.6,0.2,0.9,0.2c1,0,1.8-0.6,2-1.5c-0.5,0.3-1,0.4-1.6,0.4c-1.9,0-3.4-1.6-3.4-3.4v-3.9
				c0-0.5,0.4-0.9,0.9-0.9c0.5,0,0.9,0.4,0.9,0.9v3.9c0,0.9,0.8,1.7,1.7,1.7c0.9,0,1.7-0.7,1.7-1.7v-3.9c0-0.5,0.4-0.9,0.9-0.9
				C266.1,900.5,266.5,900.9,266.5,901.4z"/>
			<path class="st2" d="M269.2,906.4c0.3-0.4,0.9-0.4,1.2-0.1c0.4,0.4,1.2,0.7,1.8,0.7c0.4,0,0.9-0.1,1.1-0.3
				c0.2-0.2,0.3-0.4,0.3-0.5c0-0.1,0-0.1,0-0.2c0,0-0.1-0.1-0.2-0.2c-0.2-0.2-0.7-0.3-1.3-0.5h0c-0.5-0.1-1-0.2-1.4-0.4
				c-0.4-0.2-0.8-0.5-1.1-0.9c-0.2-0.3-0.3-0.7-0.3-1c0-0.8,0.4-1.4,1-1.8c0.6-0.4,1.3-0.6,2-0.6c1.1,0,1.9,0.5,2.5,0.9
				c0.4,0.3,0.5,0.8,0.3,1.2c-0.3,0.4-0.8,0.5-1.2,0.2c-0.5-0.3-1-0.6-1.5-0.6c-0.4,0-0.8,0.1-1,0.3c-0.2,0.1-0.3,0.3-0.3,0.4
				c0,0.1,0,0.1,0,0.1c0,0,0.1,0.1,0.2,0.2c0.2,0.1,0.6,0.3,1.2,0.4l0,0h0c0.5,0.1,1,0.2,1.5,0.5c0.4,0.2,0.9,0.5,1.2,1
				c0.2,0.3,0.3,0.7,0.3,1.1c0,0.8-0.4,1.5-1,1.9c-0.6,0.4-1.3,0.7-2.1,0.7c-1.3,0-2.3-0.6-2.9-1.1
				C269,907.3,268.9,906.7,269.2,906.4z"/>
			<path class="st2" d="M279.5,898.5c0,0.5-0.4,0.9-0.9,0.9c-0.5,0-0.9-0.4-0.9-0.9v-0.3c0-0.5,0.4-0.9,0.9-0.9
				c0.5,0,0.9,0.4,0.9,0.9V898.5z M279.5,901.5v6.4c0,0.5-0.4,0.9-0.9,0.9c-0.5,0-0.9-0.4-0.9-0.9v-6.4c0-0.5,0.4-0.9,0.9-0.9
				C279.1,900.6,279.5,900.9,279.5,901.5z"/>
			<path class="st2" d="M281.9,906.4c0.3-0.4,0.9-0.4,1.2-0.1c0.4,0.4,1.2,0.7,1.8,0.7c0.4,0,0.9-0.1,1.1-0.3
				c0.2-0.2,0.3-0.4,0.3-0.5c0-0.1,0-0.1,0-0.2c0,0-0.1-0.1-0.2-0.2c-0.2-0.2-0.7-0.3-1.3-0.5h0c-0.5-0.1-1-0.2-1.4-0.4
				c-0.4-0.2-0.8-0.5-1.1-0.9c-0.2-0.3-0.3-0.7-0.3-1c0-0.8,0.4-1.4,1-1.8c0.6-0.4,1.3-0.6,2-0.6c1.1,0,1.9,0.5,2.5,0.9
				c0.4,0.3,0.5,0.8,0.3,1.2c-0.3,0.4-0.8,0.5-1.2,0.2c-0.5-0.3-1-0.6-1.5-0.6c-0.4,0-0.8,0.1-1,0.3c-0.2,0.1-0.3,0.3-0.3,0.4
				c0,0.1,0,0.1,0,0.1c0,0,0.1,0.1,0.2,0.2c0.2,0.1,0.6,0.3,1.2,0.4l0,0h0c0.5,0.1,1,0.2,1.5,0.5c0.4,0.2,0.9,0.5,1.2,1
				c0.2,0.3,0.3,0.7,0.3,1.1c0,0.8-0.4,1.5-1,1.9c-0.6,0.4-1.3,0.7-2.1,0.7c-1.3,0-2.3-0.6-2.9-1.1
				C281.6,907.3,281.6,906.7,281.9,906.4z"/>
		</g>
		<path class="st0" d="M260.3,530.5l-105.1,87.4l11.8-0.4c1.1,0,2,0.8,2,1.8c0,0,0,0,0,0.1c0,1.1-0.8,2-1.9,2l-16.3,0.5h-0.1
			c-1.1,0-1.9-0.9-1.9-1.9l-0.5-16.7c0-1.1,0.8-1.9,1.9-2s1.9,0.8,2,1.9l0.3,11.6l105.2-87.5c0.9-0.7,2.1-0.6,2.8,0.3
			S261.2,529.8,260.3,530.5L260.3,530.5z"/>
		<path class="st0" d="M314.5,798.7l-15.9,6c-1,0.4-2.2-0.1-2.6-1.1c0,0,0,0,0,0c-0.4-1,0.1-2.2,1.2-2.6c0,0,0,0,0,0l11.5-4.4
			l-166.5-71.8c-1-0.4-1.5-1.6-1-2.6c0.4-1,1.6-1.5,2.6-1l166.4,71.7l-4.3-11.2c-0.4-1,0.1-2.2,1.2-2.6c1-0.4,2.2,0.1,2.6,1.2
			l6,15.9C316.1,797.2,315.5,798.3,314.5,798.7C314.5,798.7,314.5,798.7,314.5,798.7z"/>
		<path class="st0" d="M735.8,674.8L524,766.7l11.5,4.4c1,0.4,1.6,1.5,1.2,2.6c0,0,0,0,0,0c-0.4,1-1.6,1.5-2.6,1.2c0,0,0,0,0,0
			l-15.8-6c-1-0.4-1.6-1.5-1.2-2.6c0,0,0,0,0,0l6-15.9c0.4-1,1.5-1.6,2.6-1.2c1,0.4,1.6,1.5,1.2,2.6l0,0l-4.3,11.2l211.6-91.8
			c1-0.5,2.2-0.1,2.7,0.9c0.5,1,0.1,2.2-0.9,2.7C735.9,674.8,735.9,674.8,735.8,674.8L735.8,674.8z"/>
		<path class="st0" d="M956.4,765.4l-10,10c-0.8,0.8-2,0.8-2.8,0l-10-10c-0.7-0.8-0.6-2.1,0.2-2.8c0.7-0.6,1.9-0.6,2.6,0l6.6,6.6
			V354c0-1.1,0.9-2,2-2s2,0.9,2,2v415.2l6.6-6.6c0.8-0.7,2.1-0.6,2.8,0.2C957.1,763.6,957.1,764.7,956.4,765.4L956.4,765.4z"/>
		<path class="st0" d="M744.4,434.4l-10,10c-0.8,0.8-2,0.8-2.8,0l-10-10c-0.7-0.8-0.6-2.1,0.2-2.8c0.7-0.6,1.9-0.6,2.6,0l6.6,6.6
			V354c0-1.1,0.9-2,2-2s2,0.9,2,2v84.2l6.6-6.6c0.7-0.8,2-0.9,2.8-0.2s0.9,2,0.2,2.8C744.6,434.3,744.5,434.3,744.4,434.4
			L744.4,434.4z"/>
		<path class="st0" d="M366.4,371.4l-10,10c-0.8,0.8-2,0.8-2.8,0l-10-10c-0.7-0.8-0.6-2.1,0.2-2.8c0.7-0.6,1.9-0.6,2.6,0l6.6,6.6
			V203c0-1.1,0.9-2,2-2s2,0.9,2,2v172.2l6.6-6.6c0.8-0.7,2.1-0.6,2.8,0.2C367.1,369.6,367.1,370.7,366.4,371.4L366.4,371.4z"/>
		<path class="st0" d="M839.4,869.4l-10,10c-0.8,0.7-2.1,0.6-2.8-0.2c-0.6-0.7-0.6-1.9,0-2.6l6.6-6.6H535c-1.1,0-2-0.9-2-2
			s0.9-2,2-2h298.2l-6.6-6.6c-0.7-0.8-0.6-2.1,0.2-2.8c0.7-0.6,1.9-0.6,2.6,0l10,10C840.2,867.4,840.2,868.6,839.4,869.4z"/>
		<g class="st1">
			<path class="st0" d="M915.6,878.9v-22c0-1.2,0.9-2.1,2.1-2.1h0c0,0,0,0,0.1,0h12.1c1.1,0,2.1,0.9,2.1,2.1s-1,2.1-2.1,2.1h-10.1
				v6.8h8.7c1.1,0,2.1,1,2.1,2.1c0,1.2-0.9,2.1-2.1,2.1h-8.7v6.9h10.1c1.1,0,2.1,0.9,2.1,2.1c0,1.1-1,2.1-2.1,2.1h-12.1
				c-0.1,0-0.1,0-0.1,0l0,0C916.5,881,915.6,880.1,915.6,878.9z"/>
			<path class="st0" d="M955.7,877.9c0.4,1.1-0.2,2.2-1.3,2.6c-0.1,0-0.4,0.1-0.8,0.1c0,0,0,0,0,0c-0.4,0-0.9-0.1-1.5-0.4
				c-0.5-0.3-0.9-0.8-1.2-1.3c-0.5-1.1-0.8-2.4-0.8-4.5c0-0.7-0.2-1.2-0.4-1.6c-0.2-0.4-0.7-0.8-1.1-1.1c-0.8-0.5-1.8-0.8-2.1-0.9
				h-4.4v8.1c0,1.1-0.9,2.1-2.1,2.1s-2.1-0.9-2.1-2.1v-22c0-1.2,0.9-2.1,2.1-2.1c0,0,0,0,0,0h6.6c4.4,0,8,3.6,8,8
				c0,2.5-1.1,4.6-2.9,6.1c0.5,0.4,0.9,0.8,1.3,1.4c0.7,1.1,1.2,2.5,1.2,4c0,1.1,0.1,1.8,0.1,2.2C955,876.8,955.5,877.3,955.7,877.9
				z M950.5,862.9c0-2.2-1.7-3.9-3.8-3.9h-4.6v7.7h4.6C948.8,866.7,950.5,865,950.5,862.9z"/>
			<path class="st0" d="M970.5,870.8h-4.6v8.1c0,1.1-0.9,2.1-2.1,2.1c-1.1,0-2.1-0.9-2.1-2.1v-22c0-1.2,0.9-2.1,2.1-2.1h0h6.6
				c4.4,0,8,3.6,8,8C978.5,867.3,974.9,870.8,970.5,870.8z M965.9,866.7h4.6c2.2,0,3.8-1.7,3.9-3.8c0-2.2-1.7-3.9-3.9-3.9h-4.6
				V866.7z"/>
		</g>
		<path class="st0" d="M945,937c-38.1,0-69-30.9-69-69s30.9-69,69-69s69,30.9,69,69l0,0C1014,906.1,983.1,937,945,937z M945,803
			c-35.9,0-65,29.1-65,65s29.1,65,65,65s65-29.1,65-65C1010,832.1,980.9,803,945,803z"/>
		<path class="st0" d="M945,920.5c-29,0-52.5-23.5-52.5-52.5s23.5-52.5,52.5-52.5s52.5,23.5,52.5,52.5l0,0
			C997.5,897,974,920.5,945,920.5z M945,818.5c-27.3,0-49.5,22.2-49.5,49.5s22.2,49.5,49.5,49.5s49.5-22.2,49.5-49.5l0,0
			C994.5,840.7,972.3,818.5,945,818.5z"/>
		<path class="st0" d="M496.5,841H336.5c-5.2,0-9.4-4.2-9.5-9.5v-24.1c0-5.2,4.2-9.4,9.5-9.5h160.1c5.2,0,9.4,4.2,9.5,9.5v24.1
			C506,836.8,501.8,841,496.5,841z M336.4,801c-3.6,0-6.5,2.9-6.5,6.5l0,0v24.1c0,3.6,2.9,6.5,6.4,6.5h0h160.1
			c3.6,0,6.5-2.9,6.5-6.5l0,0v-24.1c0-3.6-2.9-6.5-6.4-6.5h0H336.4z"/>
		<path class="st0" d="M496.5,896H336.5c-5.2,0-9.4-4.2-9.5-9.5v-24.1c0-5.2,4.2-9.4,9.5-9.5h160.1c5.2,0,9.4,4.2,9.5,9.5v24.1
			C506,891.8,501.8,896,496.5,896z M336.4,856c-3.6,0-6.5,2.9-6.5,6.5l0,0v24.1c0,3.6,2.9,6.5,6.4,6.5h0h160.1
			c3.6,0,6.5-2.9,6.5-6.5l0,0v-24.1c0-3.6-2.9-6.5-6.4-6.5h0H336.4z"/>
		<path class="st0" d="M496.5,951H336.5c-5.2,0-9.4-4.2-9.5-9.5v-24.1c0-5.2,4.2-9.4,9.5-9.5h160.1c5.2,0,9.4,4.2,9.5,9.5v24.1
			C506,946.8,501.8,951,496.5,951z M336.4,911c-3.6,0-6.5,2.9-6.5,6.5l0,0v24.1c0,3.6,2.9,6.5,6.4,6.5h0h160.1
			c3.6,0,6.5-2.9,6.5-6.5l0,0v-24.1c0-3.6-2.9-6.5-6.4-6.5h0H336.4z"/>
		<path class="st0" d="M355.5,830c-5.8,0-10.5-4.7-10.5-10.5s4.7-10.5,10.5-10.5s10.5,4.7,10.5,10.5l0,0
			C366,825.3,361.3,830,355.5,830z M355.5,812c-4.1,0-7.5,3.4-7.5,7.5s3.4,7.5,7.5,7.5s7.5-3.4,7.5-7.5S359.6,812,355.5,812
			L355.5,812z"/>
		<path class="st0" d="M379.5,830c-5.8,0-10.5-4.7-10.5-10.5s4.7-10.5,10.5-10.5s10.5,4.7,10.5,10.5l0,0
			C390,825.3,385.3,830,379.5,830z M379.5,812c-4.1,0-7.5,3.4-7.5,7.5s3.4,7.5,7.5,7.5s7.5-3.4,7.5-7.5S383.6,812,379.5,812
			L379.5,812z"/>
		<path class="st0" d="M355.5,885c-5.8,0-10.5-4.7-10.5-10.5s4.7-10.5,10.5-10.5s10.5,4.7,10.5,10.5l0,0
			C366,880.3,361.3,885,355.5,885z M355.5,867c-4.1,0-7.5,3.4-7.5,7.5s3.4,7.5,7.5,7.5s7.5-3.4,7.5-7.5S359.6,867,355.5,867
			L355.5,867z"/>
		<path class="st0" d="M379.5,885c-5.8,0-10.5-4.7-10.5-10.5s4.7-10.5,10.5-10.5s10.5,4.7,10.5,10.5l0,0
			C390,880.3,385.3,885,379.5,885z M379.5,867c-4.1,0-7.5,3.4-7.5,7.5s3.4,7.5,7.5,7.5s7.5-3.4,7.5-7.5S383.6,867,379.5,867
			L379.5,867z"/>
		<path class="st0" d="M403.5,885c-5.8,0-10.5-4.7-10.5-10.5s4.7-10.5,10.5-10.5s10.5,4.7,10.5,10.5l0,0
			C414,880.3,409.3,885,403.5,885z M403.5,867c-4.1,0-7.5,3.4-7.5,7.5s3.4,7.5,7.5,7.5s7.5-3.4,7.5-7.5S407.6,867,403.5,867
			L403.5,867z"/>
		<path class="st0" d="M355.5,940c-5.8,0-10.5-4.7-10.5-10.5s4.7-10.5,10.5-10.5s10.5,4.7,10.5,10.5l0,0
			C366,935.3,361.3,940,355.5,940z M355.5,922c-4.1,0-7.5,3.4-7.5,7.5s3.4,7.5,7.5,7.5s7.5-3.4,7.5-7.5l0,0
			C363,925.4,359.6,922,355.5,922z"/>
		<path class="st0" d="M379.5,940c-5.8,0-10.5-4.7-10.5-10.5s4.7-10.5,10.5-10.5s10.5,4.7,10.5,10.5l0,0
			C390,935.3,385.3,940,379.5,940z M379.5,922c-4.1,0-7.5,3.4-7.5,7.5s3.4,7.5,7.5,7.5s7.5-3.4,7.5-7.5l0,0
			C387,925.4,383.6,922,379.5,922z"/>
		<path class="st0" d="M404.5,940c-5.8,0-10.5-4.7-10.5-10.5s4.7-10.5,10.5-10.5s10.5,4.7,10.5,10.5l0,0
			C415,935.3,410.3,940,404.5,940z M404.5,922c-4.1,0-7.5,3.4-7.5,7.5s3.4,7.5,7.5,7.5s7.5-3.4,7.5-7.5l0,0
			C412,925.4,408.6,922,404.5,922z"/>
		<path class="st0" d="M428.5,940c-5.8,0-10.5-4.7-10.5-10.5s4.7-10.5,10.5-10.5s10.5,4.7,10.5,10.5l0,0
			C439,935.3,434.3,940,428.5,940z M428.5,922c-4.1,0-7.5,3.4-7.5,7.5s3.4,7.5,7.5,7.5s7.5-3.4,7.5-7.5l0,0
			C436,925.4,432.6,922,428.5,922z"/>
		<path class="st0" d="M1014,274.7c-0.8-1-1.7-1.9-2.7-2.7c-3.2-2.6-7.2-4-11.3-4H739c-4.1,0-8.1,1.4-11.3,4c-1,0.8-1.9,1.7-2.7,2.7
			c-2.6,3.2-4,7.2-4,11.3v38c0,1.1,0.9,2,2,2h37v-38.4h25V326h231c1.1,0,2-0.9,2-2v-38C1018,281.9,1016.6,277.9,1014,274.7z
			 M1014,322H789v-36.7c0.1-1.2-0.8-2.2-2-2.3h-29c-1.2,0.1-2.1,1.1-2,2.3V322h-31v-36c0-7.7,6.3-14,14-14h261c7.7,0,14,6.3,14,14
			V322z"/>
		<path class="st0" d="M949,283h-17.8c-1.1,0-2,0.9-2,2v24c0,1.1,0.9,2,2,2H949c1.1,0,2-0.9,2-2v-24C951,283.9,950.1,283,949,283z
			 M947,307h-13.8v-20H947V307z"/>
		<path class="st0" d="M983,283h-17.8c-1.1,0-2,0.9-2,2v24c0,1.1,0.9,2,2,2H983c1.1,0,2-0.9,2-2v-24C985,283.9,984.1,283,983,283z
			 M981,307h-13.8v-20H981V307z"/>
		<path class="st0" d="M393,55c-12.2,0-22,9.8-22,22s9.8,22,22,22s22-9.8,22-22S405.2,55,393,55z M393,95c-9.9,0-18-8.1-18-18
			s8.1-18,18-18s18,8.1,18,18S402.9,95,393,95z"/>
		<path class="st0" d="M282.9,135.5c0.3,0.4,0.6,0.6,1,0.9C283.5,136.1,283.2,135.8,282.9,135.5z"/>
		<path class="st0" d="M510,122h-16V18.2c0-10-8.1-18.2-18.2-18.2H310.2c-10,0-18.2,8.1-18.2,18.2V39h-21.9
			c-6.7,0-12.1,5.4-12.1,12.1v80.8c0,6.7,5.4,12.1,12.1,12.1h83c0,0.7,0,1.3,0,2c0,4,2.3,9.7,13.2,13.7c7.1,2.6,16.6,4.1,26.8,4.1
			c19.9,0,40-5.5,40-17.7c0-0.7,0-1.3,0-2h59c11,0,20-9,20-20C512,122.9,511.1,122,510,122z M310,131.9c0,4.5-3.6,8.1-8.1,8.1h-31.8
			c-4.5,0-8.1-3.6-8.1-8.1V51.1c0-4.5,3.6-8.1,8.1-8.1h3.9c0.4,2.9,2.8,5,5.7,5h12.6c1.3,0,2.6-0.5,3.7-1.3c1.1-0.9,1.8-2.2,2-3.7
			h3.9c4.5,0,8.1,3.6,8.1,8.1c0,0,0,0,0,0V131.9z M301.9,39H296V18.2c0-7.8,6.3-14.2,14.2-14.2h165.7c7.8,0,14.2,6.3,14.2,14.2V122
			h-65c-13.3-17.7-38.3-21.3-56-8c-3,2.3-5.7,5-8,8h-47V51.1C314,44.4,308.6,39,301.9,39z M354.3,136c-0.3,1.3-0.6,2.7-0.8,4h-42.6
			c2-2.2,3.1-5.1,3.1-8.1V126h44.4C356.5,129.1,355.2,132.5,354.3,136z M393,159.7c-17.5,0-36-4.8-36-13.7c0-0.7,0-1.3,0.1-2
			c0.1-2.7,0.6-5.4,1.4-8c5.5-19.1,25.5-30.1,44.6-24.6c11.9,3.4,21.1,12.7,24.6,24.6c0.8,2.6,1.2,5.3,1.4,8c0,0.7,0.1,1.3,0.1,2
			C429,154.9,410.5,159.7,393,159.7z M492,140h-59.5c-0.7-4.9-2.4-9.7-4.9-14h80.2C506.9,134,500.1,140,492,140z"/>
		<path class="st0" d="M290,133c0,2.2-1.8,4-4,4c-0.7,0-1.5-0.2-2.1-0.6l0,0c-0.4-0.2-0.7-0.5-1-0.9l0,0c-1.4-1.7-1.1-4.2,0.6-5.6
			c1.7-1.4,4.2-1.1,5.6,0.6C289.7,131.2,290,132.1,290,133z"/>
		<path class="st0" d="M128.2,638H120c0-2.2-1.9-4-4.1-4H107v-2.2c0-2.7-2.2-4.8-4.8-4.8c0,0,0,0,0,0H27.8c-2.7,0-4.8,2.2-4.8,4.8
			l0,0v28.3c0,2.7,2.2,4.8,4.8,4.8H58v12.8c-1.2,0.9-2.2,2-3,3.2H19v-10c0-9.4-7.6-17-17-17l0,0c-1.1,0-2,0.9-2,2v67
			c0,1.1,0.9,2,2,2c9.4,0,17-7.6,17-17v-12h36.8c4.4,5.7,12.5,6.7,18.2,2.4s6.7-12.5,2.4-18.2c-0.4-0.5-0.9-1-1.4-1.5V665h27.2
			c2.7,0,4.8-2.2,4.8-4.8l0,0V658h8.9c2.2,0,4-1.8,4.1-4h8.2c2.1,0,3.8-1.7,3.8-3.8v-8.3C132,639.7,130.3,638,128.2,638z M15,708
			c0,6.4-4.7,11.9-11,12.8v-62.7c6.3,1,11,6.4,11,12.9V708z M19,692v-7h34.3c-0.2,1-0.4,2-0.3,3c0,1.4,0.2,2.7,0.6,4H19z M75,689
			c0,0.3-0.1,0.6-0.2,0.8l0,0c-0.4,2-1.5,3.7-3,5c-0.5,0.5-1.1,0.9-1.7,1.2c-2.6,1.3-5.7,1.3-8.2,0c-3-1.5-4.9-4.6-4.9-8
			c0-1,0.2-2,0.5-3c0.1-0.4,0.3-0.8,0.5-1.1c0.9-1.7,2.3-3.1,4-4c4.5-2.2,9.9-0.4,12.1,4.1c0.6,1.2,0.9,2.6,0.9,4V689z M71,676
			c-1.6-0.7-3.3-1-5-1c-1.4,0-2.7,0.2-4,0.6V665h9V676z M103,660.2c0,0.5-0.4,0.8-0.8,0.8H27.8c-0.5,0-0.8-0.4-0.8-0.8v-28.3
			c0-0.5,0.4-0.8,0.8-0.8h74.3c0.5,0,0.8,0.4,0.8,0.8V660.2z M116,653.9C116,654,116,654,116,653.9l-9,0.1v-16h8.9
			c0,0,0.1,0,0.1,0.1V653.9z M128,650h-8v-8h8V650z"/>
		<path class="st0" d="M72.8,689.8c0.1-0.3,0.2-0.5,0.2-0.8v-1C73,688.6,72.9,689.2,72.8,689.8z"/>
		<path class="st0" d="M72.8,689.8c0.1-0.3,0.2-0.5,0.2-0.8v-1C73,688.6,72.9,689.2,72.8,689.8z"/>
		<path class="st0" d="M775.5,582.3L775.5,582.3c0-0.1,0-0.2,0-0.3C775.6,582.1,775.6,582.2,775.5,582.3z M770.7,526.5L770.7,526.5
			l4.8,54.5L770.7,526.5z"/>
		<path class="st0" d="M759.7,526.5L759.7,526.5l4.8,55.1L759.7,526.5z"/>
		<path class="st0" d="M775.6,582c0,0.1,0,0.2,0,0.3l0,0C775.6,582.2,775.6,582.1,775.6,582z"/>
		<path class="st0" d="M748.7,526.5L748.7,526.5l4.8,55.1L748.7,526.5z M748.7,526.5L748.7,526.5l4.8,55.1L748.7,526.5z
			 M748.7,526.5L748.7,526.5l4.8,55.1L748.7,526.5z M748.7,526.5L748.7,526.5l4.8,55.1L748.7,526.5z M748.7,526.5L748.7,526.5
			l4.8,55.1L748.7,526.5z M748.7,526.5L748.7,526.5l4.8,55.1L748.7,526.5z M748.7,526.5L748.7,526.5l4.8,55.1L748.7,526.5z
			 M748.7,526.5L748.7,526.5l4.8,55.1L748.7,526.5z"/>
		<path class="st0" d="M737.7,526.5L737.7,526.5l4.8,55.1L737.7,526.5z"/>
		<path class="st0" d="M672.3,526.5l-3.8,43L672.3,526.5L672.3,526.5z"/>
		<path class="st0" d="M716.3,526.5l-4.8,55.1L716.3,526.5L716.3,526.5z M716.3,526.5l-4.8,55.1L716.3,526.5L716.3,526.5z
			 M716.3,526.5l-4.8,55.1L716.3,526.5L716.3,526.5z"/>
		<path class="st0" d="M705.3,526.5l-4.4,50.7L705.3,526.5L705.3,526.5z M705.3,526.5l-4.4,50.7L705.3,526.5L705.3,526.5z
			 M705.3,526.5l-4.4,50.7L705.3,526.5L705.3,526.5z M705.3,526.5l-4.4,50.7L705.3,526.5L705.3,526.5z M705.3,526.5l-4.4,50.7
			L705.3,526.5L705.3,526.5z"/>
		<path class="st0" d="M694.3,526.5l-4.4,50.7L694.3,526.5L694.3,526.5z M694.3,526.5l-4.4,50.7L694.3,526.5L694.3,526.5z
			 M694.3,526.5l-4.4,50.7L694.3,526.5L694.3,526.5z"/>
		<path class="st0" d="M750.5,581.5L750.5,581.5c0,0,0,0.1,0,0.1C750.5,581.6,750.5,581.6,750.5,581.5z"/>
		<path class="st0" d="M683.3,526.5l-4.4,50.7L683.3,526.5L683.3,526.5z M683.3,526.5l-4.4,50.7L683.3,526.5L683.3,526.5z
			 M683.3,526.5l-4.4,50.7L683.3,526.5L683.3,526.5z M683.3,526.5l-4.4,50.7L683.3,526.5L683.3,526.5z"/>
		<path class="st0" d="M702,586.2c-0.4,0.5-0.8,0.9-1.2,1.3C701.2,587.1,701.6,586.7,702,586.2c0.6,0.8,1.4,1.5,2.3,2
			C703.4,587.7,702.6,587,702,586.2z M728.7,583.5L728.7,583.5l0.1,0.3C728.8,583.7,728.7,583.6,728.7,583.5z M737.1,588.8
			c0.4-0.1,0.8-0.2,1.1-0.4C737.9,588.5,737.5,588.7,737.1,588.8L737.1,588.8z M738.3,588.4c0.6-0.3,1.1-0.6,1.6-1
			C739.4,587.8,738.8,588.1,738.3,588.4L738.3,588.4z M752,586.2c-0.3,0.4-0.7,0.8-1.1,1.1C751.3,587,751.7,586.7,752,586.2
			c0.1,0.1,0.2,0.2,0.3,0.3C752.2,586.5,752.1,586.3,752,586.2z M752.6,586.9c0.3,0.3,0.6,0.6,0.9,0.8
			C753.2,587.5,752.9,587.2,752.6,586.9L752.6,586.9z M759.1,588.8c0.4-0.1,0.8-0.2,1.1-0.4C759.9,588.5,759.5,588.7,759.1,588.8
			L759.1,588.8z M760.3,588.4c0.6-0.3,1.1-0.6,1.6-1C761.4,587.8,760.8,588.1,760.3,588.4L760.3,588.4z M763,586.2
			c-0.3,0.4-0.7,0.8-1.1,1.1C762.3,587,762.7,586.7,763,586.2c0,0.1,0.1,0.1,0.1,0.2L763,586.2z M749.3,588.4c0.6-0.3,1.1-0.6,1.6-1
			C750.4,587.8,749.8,588.1,749.3,588.4L749.3,588.4z M748.1,588.8c0.4-0.1,0.8-0.2,1.1-0.4C748.9,588.5,748.5,588.7,748.1,588.8
			L748.1,588.8z M741.6,586.9c0.3,0.3,0.6,0.6,0.9,0.8C742.2,587.5,741.9,587.2,741.6,586.9L741.6,586.9z M741,586.2
			c-0.3,0.4-0.7,0.8-1.1,1.1C740.3,587,740.7,586.7,741,586.2c0.1,0.1,0.2,0.2,0.3,0.3C741.2,586.5,741.1,586.3,741,586.2z
			 M691,586.2c-0.4,0.5-0.8,0.9-1.2,1.3C690.2,587.1,690.6,586.7,691,586.2c0.6,0.8,1.4,1.5,2.3,2C692.4,587.7,691.6,587,691,586.2z
			 M680,586.2c-0.4,0.5-0.8,0.9-1.2,1.3C679.2,587.1,679.6,586.7,680,586.2c0.6,0.8,1.4,1.5,2.3,2C681.4,587.7,680.6,587,680,586.2z
			 M691,586.2c-0.4,0.5-0.8,0.9-1.2,1.3C690.2,587.1,690.6,586.7,691,586.2c0.6,0.8,1.4,1.5,2.3,2C692.4,587.7,691.6,587,691,586.2z
			 M702,586.2c-0.4,0.5-0.8,0.9-1.2,1.3C701.2,587.1,701.6,586.7,702,586.2c0.6,0.8,1.4,1.5,2.3,2C703.4,587.7,702.6,587,702,586.2z
			 M728.7,583.5L728.7,583.5l0.1,0.3C728.8,583.7,728.7,583.6,728.7,583.5z M737.1,588.8c0.4-0.1,0.8-0.2,1.1-0.4
			C737.9,588.5,737.5,588.7,737.1,588.8L737.1,588.8z M738.3,588.4c0.6-0.3,1.1-0.6,1.6-1C739.4,587.8,738.8,588.1,738.3,588.4
			L738.3,588.4z M741.6,586.9c0.3,0.3,0.6,0.6,0.9,0.8C742.2,587.5,741.9,587.2,741.6,586.9L741.6,586.9z M741,586.2
			c-0.3,0.4-0.7,0.8-1.1,1.1C740.3,587,740.7,586.7,741,586.2c0.1,0.1,0.2,0.2,0.3,0.3C741.2,586.5,741.1,586.3,741,586.2L741,586.2
			z M748.1,588.8c0.4-0.1,0.8-0.2,1.1-0.4C748.9,588.5,748.5,588.7,748.1,588.8L748.1,588.8z M749.3,588.4c0.6-0.3,1.1-0.6,1.6-1
			C750.4,587.8,749.8,588.1,749.3,588.4L749.3,588.4z M752,586.2c-0.3,0.4-0.7,0.8-1.1,1.1C751.3,587,751.7,586.7,752,586.2
			c0.1,0.1,0.2,0.2,0.3,0.3C752.2,586.5,752.1,586.3,752,586.2L752,586.2z M752.6,586.9c0.3,0.3,0.6,0.6,0.9,0.8
			C753.2,587.5,752.9,587.2,752.6,586.9L752.6,586.9z M759.1,588.8c0.4-0.1,0.8-0.2,1.1-0.4C759.9,588.5,759.5,588.7,759.1,588.8
			L759.1,588.8z M760.3,588.4c0.6-0.3,1.1-0.6,1.6-1C761.4,587.8,760.8,588.1,760.3,588.4L760.3,588.4z M763,586.2
			c-0.3,0.4-0.7,0.8-1.1,1.1C762.3,587,762.7,586.7,763,586.2c0,0.1,0.1,0.1,0.1,0.2L763,586.2z"/>
		<path class="st0" d="M755,599.5h-29c-0.8,0-1.5,0.7-1.5,1.5v29c0,0.8,0.7,1.5,1.5,1.5h29c0.8,0,1.5-0.7,1.5-1.5v-29
			C756.5,600.2,755.8,599.5,755,599.5z M753.5,628.5h-26v-26h26V628.5z"/>
		<path class="st0" d="M726.7,526.5L726.7,526.5l4.8,55.1L726.7,526.5z"/>
		<path class="st0" d="M790.5,517.5c0-5-4-9-9-9h-31v-7h13.3c3.7,0,6.7-3,6.7-6.7v-19.5c0-3.7-3-6.7-6.7-6.7h-83.5
			c-3.7,0-6.7,3-6.7,6.7v19.5c0,3.7,3,6.7,6.7,6.7h14.3v7h-31c-5,0-9,4.1-9,9c0,4.1,2.8,7.7,6.8,8.7l-4.9,55.7c0,0.3,0,0.6,0.2,0.8
			c0.4,3.8,3.8,6.6,7.6,6.2c1.6-0.2,3.2-0.9,4.3-2.1V634c0,4.7,3.8,8.5,8.5,8.5c0,0,0,0,0,0h9c0.8,0,1.5-0.7,1.5-1.5v-40.5h25V641
			c0,0.8,0.7,1.5,1.5,1.5h53c4.7,0,8.5-3.8,8.5-8.5c0,0,0,0,0,0v-46.3c1.2,0.8,2.6,1.3,4,1.3c3.6,0,6.5-2.7,6.9-6.3
			c0.1-0.3,0.2-0.5,0.2-0.8l-4.8-55.4C786.6,526.4,790.5,522.4,790.5,517.5L790.5,517.5z M680.2,498.5c-2.1,0-3.7-1.7-3.7-3.7v-19.5
			c0-2.1,1.7-3.7,3.7-3.7h83.5c2.1,0,3.7,1.7,3.7,3.7v19.5c0,2.1-1.7,3.7-3.7,3.7L680.2,498.5z M747.5,501.5v7h-50v-7H747.5z
			 M668.5,569.6l-1,12.1l0,0v0.2c0,0,0,0.1,0,0.2c0,0.1,0,0.2,0,0.2c-0.2,2.2-2,3.8-4.2,3.7c-2.1-0.1-3.7-1.8-3.7-3.9
			c0-0.2,0-0.3-0.1-0.5l4.8-55h8L668.5,569.6C668.5,569.5,668.5,569.5,668.5,569.6z M671.2,584.2c-0.4-0.6-0.6-1.4-0.7-2.2
			c0-0.2,0-0.3-0.1-0.5l1-11.7c0,0,0,0,0-0.1l3.8-43.2h8l-4.4,50.7l-0.4,4.4l0,0c0,0.1,0,0.2,0,0.3c0,0.1,0,0.2,0,0.2
			c0,0.2,0,0.4-0.1,0.6c0,0.1,0,0.2-0.1,0.3c0,0.1-0.1,0.3-0.2,0.4c0,0,0,0.1,0,0.1c0,0.1-0.1,0.1-0.1,0.2c0,0.1-0.1,0.1-0.1,0.2
			c-0.1,0.1-0.2,0.3-0.3,0.4l0,0c-0.1,0.1-0.2,0.2-0.3,0.3c-0.3,0.2-0.5,0.5-0.8,0.6c-0.1,0.1-0.2,0.1-0.3,0.2
			c-0.1,0.1-0.3,0.1-0.5,0.2l-0.2,0.1l-0.3,0.1H675c-0.1,0-0.3,0-0.4,0c-0.8,0-1.6-0.2-2.3-0.7c-0.1-0.1-0.3-0.2-0.4-0.3
			C671.7,584.6,671.5,584.4,671.2,584.2L671.2,584.2z M753.5,582L753.5,582c0-0.1,0-0.2,0-0.3l0,0l-4.8-55.1h8l4.8,55l0,0
			c-0.1,0.2-0.1,0.3-0.1,0.5c0,0.2,0,0.4,0,0.6c0,0.2-0.1,0.3-0.1,0.5c0,0.2-0.1,0.3-0.2,0.5c-0.1,0.2-0.2,0.3-0.3,0.5v0.1
			c0,0.1-0.1,0.2-0.2,0.2c0,0.1-0.1,0.1-0.1,0.2c-0.1,0.1-0.2,0.2-0.3,0.3c-0.1,0.1-0.1,0.1-0.2,0.2c-0.1,0.1-0.2,0.2-0.3,0.2
			c-0.1,0.1-0.1,0.1-0.2,0.1c-0.1,0.1-0.3,0.2-0.5,0.3c-0.2,0.1-0.3,0.1-0.5,0.2c-0.1,0-0.2,0.1-0.3,0.1h-0.2H758h-0.4h-0.4h-0.2
			l-0.3-0.1h-0.1c-0.1,0-0.2-0.1-0.3-0.1c-0.2-0.1-0.4-0.2-0.6-0.3c-0.1-0.1-0.2-0.1-0.4-0.2l0,0c-0.1-0.1-0.2-0.2-0.3-0.3
			c-0.1-0.1-0.2-0.2-0.3-0.3c-0.1-0.1-0.2-0.2-0.2-0.3c-0.1-0.1-0.1-0.2-0.2-0.3c-0.1-0.2-0.2-0.3-0.3-0.5c-0.1-0.2-0.2-0.5-0.2-0.7
			c0-0.1,0-0.2,0-0.3c0-0.1,0-0.2,0-0.3v-0.1C753.6,582.2,753.6,582.1,753.5,582z M750.5,581.5L750.5,581.5c0,0,0,0.1,0,0.1
			c0,0.1,0,0.2,0,0.3c0,0.2,0,0.4,0,0.6c0,0.2-0.1,0.3-0.1,0.5c0,0.2-0.1,0.3-0.2,0.5c-0.1,0.2-0.2,0.3-0.3,0.5v0.1
			c0,0.1-0.1,0.2-0.2,0.2c0,0.1-0.1,0.1-0.1,0.2c-0.1,0.1-0.2,0.2-0.3,0.3c-0.1,0.1-0.1,0.1-0.2,0.2c-0.1,0.1-0.2,0.2-0.3,0.2
			l-0.2,0.1c-0.1,0.1-0.3,0.2-0.5,0.3c-0.2,0.1-0.3,0.1-0.5,0.2c-0.1,0-0.2,0.1-0.3,0.1h-0.2h-0.3h-0.4h-0.4H746l-0.3-0.1h-0.1
			l-0.3-0.1c-0.2-0.1-0.4-0.2-0.6-0.3c-0.1-0.1-0.2-0.2-0.4-0.2l0,0c-0.1-0.1-0.2-0.2-0.3-0.3c-0.1-0.1-0.2-0.2-0.3-0.3
			c-0.1-0.1-0.2-0.2-0.2-0.3c-0.1-0.1-0.1-0.2-0.2-0.3c-0.1-0.2-0.2-0.3-0.3-0.5c0-0.1-0.1-0.2-0.1-0.2c0-0.1-0.1-0.2-0.1-0.3
			c0-0.1,0-0.2-0.1-0.3s0-0.2,0-0.3c0-0.1,0-0.2,0-0.3v-0.1c0-0.1,0-0.1,0-0.2c0,0,0-0.1,0-0.2v-0.2l0,0l-4.8-55.1h8L750.5,581.5z
			 M739.5,581.5c0,0.1,0,0.1,0,0.2c0,0.1,0,0.2,0,0.3c0,0.2,0,0.4,0,0.6c0,0.2-0.1,0.3-0.1,0.5c0,0.2-0.1,0.3-0.2,0.5
			c-0.1,0.2-0.2,0.3-0.3,0.5v0.1c0,0.1-0.1,0.2-0.2,0.2c0,0.1-0.1,0.1-0.1,0.2c-0.1,0.1-0.2,0.2-0.3,0.3c-0.1,0.1-0.1,0.1-0.2,0.2
			c-0.1,0.1-0.2,0.2-0.3,0.2l-0.2,0.1c-0.1,0.1-0.3,0.2-0.5,0.3c-0.2,0.1-0.3,0.1-0.5,0.2c-0.1,0-0.2,0.1-0.3,0.1h-0.2h-0.3h-0.4
			h-0.4c-0.2,0-0.4-0.1-0.6-0.1l-0.3-0.1c-0.2-0.1-0.4-0.2-0.6-0.3c-0.2-0.1-0.4-0.2-0.5-0.3c-0.2-0.1-0.3-0.3-0.4-0.4
			c-0.1-0.2-0.3-0.3-0.4-0.5c-0.1-0.1-0.1-0.2-0.2-0.3c-0.1-0.2-0.2-0.4-0.3-0.6c0-0.1-0.1-0.2-0.1-0.3s0-0.1,0-0.2s0-0.2-0.1-0.3
			c0-0.1,0-0.2,0-0.3v-0.1c0-0.1,0-0.1,0-0.2c0,0,0-0.1,0-0.2v-0.2l0,0l-4.8-55.1h8L739.5,581.5z M728.5,580.5h-1.6
			c-0.5,0-0.9,0.2-1.2,0.6c-0.3,0.4-0.4,0.8-0.3,1.3c0,0.2,0.1,0.5,0.1,0.7c-0.3,2.2-2.4,3.7-4.6,3.3c-1.7-0.3-3-1.6-3.3-3.3
			c0-0.2,0-0.5,0.1-0.7c0.1-0.4,0-0.9-0.3-1.3c-0.3-0.4-0.7-0.6-1.2-0.6h-1.6l4.7-54h4.4L728.5,580.5z M711.5,581.7L711.5,581.7v0.2
			c0,0,0,0.1,0,0.2c0,0.1,0,0.1,0,0.2l0,0c0,0.1,0,0.2,0,0.3c0,0,0,0,0,0.1c0,0.1-0.1,0.3-0.1,0.4c0,0,0,0,0,0.1
			c-0.1,0.3-0.2,0.6-0.4,0.9c0,0.1-0.1,0.1-0.1,0.2c-0.4,0.7-1.1,1.2-1.8,1.5c-0.1,0.1-0.2,0.1-0.3,0.1l-0.2,0.1h-0.2H708h-0.4h-0.4
			h-0.3h-0.2c-0.1,0-0.2,0-0.3-0.1c-0.3-0.1-0.6-0.2-0.9-0.4c-0.1-0.1-0.2-0.1-0.3-0.2l-0.1-0.1c-0.1-0.1-0.2-0.2-0.3-0.2
			c-0.2-0.1-0.3-0.3-0.4-0.5c-0.1-0.1-0.2-0.3-0.3-0.4c-0.1-0.1-0.2-0.3-0.2-0.5c0-0.1-0.1-0.1-0.1-0.2v-0.1c0-0.1-0.1-0.2-0.1-0.2
			c-0.1-0.2-0.1-0.3-0.1-0.5c0-0.2,0-0.4,0-0.5c0-0.1,0-0.2,0-0.3c0,0,0-0.1,0-0.1c0,0,0,0,0-0.1l0,0l4.8-55h8L711.5,581.7z
			 M700.8,577.2l-0.4,4.4l0,0c0,0.1,0,0.2,0,0.3c0,0.1,0,0.2,0,0.2c0,0.2,0,0.4-0.1,0.6c0,0.1,0,0.2-0.1,0.3c0,0.1-0.1,0.3-0.2,0.4
			c0,0,0,0.1,0,0.1c0,0.1-0.1,0.1-0.1,0.2c0,0.1-0.1,0.1-0.1,0.2c-0.1,0.1-0.2,0.3-0.3,0.4l0,0c-0.1,0.1-0.2,0.2-0.3,0.3
			c-0.3,0.2-0.5,0.5-0.8,0.6c-0.1,0.1-0.2,0.1-0.3,0.2c-0.1,0.1-0.3,0.1-0.5,0.2l-0.2,0.1l-0.3,0.1H697c-0.1,0-0.3,0-0.4,0h-0.4
			h-0.3h-0.2c-0.1,0-0.2,0-0.3-0.1c-0.3-0.1-0.6-0.2-0.9-0.4c-0.1-0.1-0.2-0.1-0.3-0.2l-0.1-0.1c-0.1-0.1-0.2-0.2-0.3-0.2
			c-0.2-0.1-0.3-0.3-0.4-0.5c-0.1-0.1-0.2-0.3-0.3-0.4c-0.1-0.1-0.2-0.3-0.2-0.5c0-0.1-0.1-0.1-0.1-0.2v-0.1c0-0.1-0.1-0.2-0.1-0.2
			c-0.1-0.2-0.1-0.3-0.1-0.5c0-0.2,0-0.4,0-0.5c0-0.1,0-0.2,0-0.3c0,0,0-0.1,0-0.1c0,0,0,0,0-0.1l0,0l4.8-55h8L700.8,577.2z
			 M689.8,577.2l-0.4,4.4l0,0c0,0.1,0,0.2,0,0.3c0,0.1,0,0.2,0,0.2c0,0.2,0,0.4-0.1,0.6c0,0.1,0,0.2-0.1,0.3c0,0.1-0.1,0.3-0.2,0.4
			c0,0,0,0.1,0,0.1c0,0.1-0.1,0.1-0.1,0.2c0,0.1-0.1,0.1-0.1,0.2c-0.1,0.1-0.2,0.3-0.3,0.4l0,0c-0.1,0.1-0.2,0.2-0.3,0.3
			c-0.3,0.2-0.5,0.5-0.8,0.6c-0.1,0.1-0.2,0.1-0.3,0.2c-0.1,0.1-0.3,0.1-0.5,0.2l-0.2,0.1l-0.3,0.1H686c-0.1,0-0.3,0-0.4,0h-0.4
			h-0.3h-0.2c-0.1,0-0.2,0-0.3-0.1c-0.3-0.1-0.6-0.2-0.9-0.4c-0.1-0.1-0.2-0.1-0.3-0.2l-0.1-0.1c-0.1-0.1-0.2-0.2-0.3-0.2
			c-0.2-0.1-0.3-0.3-0.4-0.5c-0.1-0.1-0.2-0.3-0.3-0.4c-0.1-0.1-0.2-0.3-0.2-0.5c0-0.1-0.1-0.1-0.1-0.2v-0.1c0-0.1-0.1-0.2-0.1-0.2
			c-0.1-0.2-0.1-0.3-0.1-0.5c0-0.2,0-0.4,0-0.5c0-0.1,0-0.2,0-0.3c0,0,0-0.1,0-0.1c0,0,0,0,0-0.1l0,0l4.8-55h8L689.8,577.2z
			 M772.5,634c0,3-2.4,5.5-5.5,5.5c0,0,0,0,0,0h-51.5V599c0-0.8-0.7-1.5-1.5-1.5h-28c-0.8,0-1.5,0.7-1.5,1.5v40.5H677
			c-3,0-5.5-2.4-5.5-5.5c0,0,0,0,0,0v-45.7l0,0l0.5,0.2l0.2,0.1l0.5,0.1c0.2,0.1,0.4,0.1,0.6,0.1h0.1c0.2,0,0.4,0.1,0.5,0.1
			c0.2,0,0.4,0,0.6,0c0.4,0,0.8,0,1.2-0.1c0.2,0,0.5-0.1,0.7-0.2c0.3-0.1,0.5-0.2,0.8-0.3l0.2-0.1l0.2-0.1c0.2-0.1,0.5-0.3,0.7-0.4
			c0.2-0.1,0.3-0.2,0.5-0.3c0.5-0.4,0.9-0.8,1.2-1.3c0.6,0.8,1.4,1.5,2.3,2l0.4,0.2l0,0c0.4,0.2,0.7,0.3,1.1,0.4l0.4,0.1h0.3
			c0.3,0,0.6,0.1,0.9,0.1c0.4,0,0.8,0,1.2-0.1c0.2,0,0.5-0.1,0.7-0.2c0.3-0.1,0.5-0.2,0.8-0.3l0.2-0.1l0.2-0.1
			c0.2-0.1,0.5-0.3,0.7-0.4c0.2-0.1,0.3-0.2,0.5-0.3c0.5-0.4,0.9-0.8,1.2-1.3c0.6,0.8,1.4,1.5,2.3,2l0.4,0.2l0,0
			c0.4,0.2,0.7,0.3,1.1,0.4l0.4,0.1h0.3c0.3,0,0.6,0.1,0.9,0.1c0.4,0,0.8,0,1.2-0.1c0.2,0,0.5-0.1,0.7-0.2c0.3-0.1,0.5-0.2,0.8-0.3
			l0.2-0.1l0.2-0.1c0.2-0.1,0.5-0.3,0.7-0.4c0.2-0.1,0.3-0.2,0.5-0.3c0.5-0.4,0.9-0.8,1.2-1.3c0.6,0.8,1.4,1.5,2.3,2l0.4,0.2l0,0
			c0.4,0.2,0.7,0.3,1.1,0.4l0.4,0.1h0.3c0.3,0,0.6,0.1,0.9,0.1c0.2,0,0.4,0,0.6,0c0.3,0,0.5-0.1,0.8-0.1c0.1,0,0.2,0,0.4-0.1l0,0
			c0.2,0,0.4-0.1,0.5-0.2c0.2-0.1,0.4-0.1,0.5-0.2l0,0c0.2-0.1,0.3-0.2,0.5-0.3l0.4-0.2l0.3-0.2l0.3-0.3c0.1-0.1,0.2-0.2,0.3-0.3
			l0,0c0.1-0.1,0.3-0.3,0.4-0.4c0.1-0.1,0.2-0.3,0.3-0.4c0,0,0,0,0-0.1c0.1-0.1,0.2-0.2,0.2-0.3c0.1-0.2,0.3-0.4,0.4-0.7
			c0.1-0.1,0.1-0.2,0.2-0.3c0.1-0.3,0.2-0.6,0.3-0.8c0-0.1,0.1-0.3,0.1-0.4h0.3c0.3,3.8,3.6,6.7,7.5,6.4c3.4-0.3,6.1-3,6.4-6.4h0.3
			c0,0.1,0,0.2,0.1,0.3c0,0,0,0,0,0.1c0,0.2,0.1,0.4,0.2,0.5c0.1,0.2,0.1,0.4,0.2,0.5s0.2,0.3,0.3,0.5l0,0c0.1,0.1,0.2,0.3,0.3,0.4
			c0,0,0,0.1,0.1,0.1l0.2,0.3c0.1,0.1,0.2,0.3,0.3,0.4c0.1,0.1,0.2,0.2,0.3,0.3l0.1,0.1l0.3,0.3l0.3,0.3l0.3,0.2l0.4,0.2
			c0.2,0.1,0.3,0.2,0.5,0.3l0,0c0.2,0.1,0.3,0.2,0.5,0.2c0.2,0.1,0.4,0.1,0.5,0.2l0,0c0.1,0,0.2,0.1,0.4,0.1
			c0.3,0.1,0.5,0.1,0.8,0.1c0.2,0,0.4,0,0.6,0c0.3,0,0.6,0,0.9-0.1h0.3l0.4-0.1c0.4-0.1,0.8-0.2,1.1-0.4c0.6-0.3,1.1-0.6,1.6-1l0,0
			c0.4-0.3,0.8-0.7,1.1-1.1c0.1,0.1,0.2,0.2,0.3,0.3l0.3,0.3c0.3,0.3,0.6,0.6,0.9,0.8c0.1,0.1,0.2,0.2,0.3,0.2l0.5,0.3l0.4,0.2l0,0
			c0.4,0.2,0.7,0.3,1.1,0.4l0.4,0.1h0.3c0.3,0,0.6,0.1,0.9,0.1c0.3,0,0.6,0,0.9-0.1h0.3l0.4-0.1c0.4-0.1,0.8-0.2,1.1-0.4
			c0.6-0.3,1.1-0.6,1.6-1l0,0c0.4-0.3,0.8-0.7,1.1-1.1c0.1,0.1,0.2,0.2,0.3,0.3c0.1,0.1,0.2,0.2,0.3,0.3c0.3,0.3,0.6,0.6,0.9,0.8
			c0.1,0.1,0.2,0.2,0.3,0.2l0.5,0.3l0.4,0.2l0,0c0.4,0.2,0.7,0.3,1.1,0.4l0.4,0.1h0.3c0.3,0,0.6,0.1,0.9,0.1c0.3,0,0.6,0,0.9-0.1
			h0.3l0.4-0.1c0.4-0.1,0.8-0.2,1.1-0.4c0.6-0.3,1.1-0.6,1.6-1l0,0c0.4-0.3,0.8-0.7,1.1-1.1l0.1,0.2c0.1,0.2,0.3,0.3,0.5,0.5
			s0.3,0.3,0.5,0.5l0,0c0.2,0.1,0.3,0.3,0.5,0.4c0.3,0.2,0.6,0.3,0.9,0.5c0.3,0.1,0.6,0.3,0.9,0.4l0,0c0.2,0.1,0.4,0.1,0.7,0.2
			c0.2,0,0.4,0.1,0.6,0.1h0.1c0.2,0,0.5,0,0.7,0c0.3,0,0.5,0,0.8,0c0.2,0,0.3,0,0.5-0.1l0,0c0.2,0,0.4-0.1,0.6-0.2h0.2
			c0.4-0.1,0.7-0.3,1.1-0.5c0.3-0.1,0.5-0.3,0.8-0.5L772.5,634z M772.5,581.6L772.5,581.6C772.5,581.6,772.5,581.7,772.5,581.6
			c0,0.2,0,0.3,0,0.4c0,0.2,0,0.4,0,0.6c0,0.2-0.1,0.3-0.1,0.5c0,0.2-0.1,0.3-0.2,0.5c-0.1,0.2-0.2,0.3-0.3,0.5v0.1
			c0,0.1-0.1,0.2-0.2,0.2c0,0.1-0.1,0.1-0.1,0.2c-0.1,0.1-0.2,0.2-0.3,0.3c-0.1,0.1-0.1,0.1-0.2,0.2c-0.1,0.1-0.2,0.2-0.3,0.2
			c-0.1,0.1-0.1,0.1-0.2,0.1c-0.1,0.1-0.3,0.2-0.5,0.3c-0.2,0.1-0.3,0.1-0.5,0.2c-0.1,0-0.2,0.1-0.3,0.1h-0.2H769h-0.4h-0.4H768
			l-0.3-0.1h-0.1c-0.1,0-0.2-0.1-0.3-0.1c-0.2-0.1-0.4-0.2-0.6-0.3c-0.1-0.1-0.2-0.1-0.4-0.2l0,0c-0.1-0.1-0.2-0.2-0.3-0.3
			c-0.1-0.1-0.2-0.2-0.3-0.3c-0.1-0.1-0.2-0.2-0.2-0.3c-0.1-0.1-0.1-0.2-0.2-0.3c-0.1-0.2-0.2-0.3-0.3-0.5c-0.1-0.2-0.2-0.5-0.2-0.7
			c0-0.1,0-0.2,0-0.3c0-0.1,0-0.2,0-0.3v-0.1l0,0c0-0.1,0-0.1,0-0.2l0,0c0-0.1,0-0.2,0-0.3l0,0l-4.8-55.1h8l4.8,54.6L772.5,581.6z
			 M783.5,581.5c-0.1,0.2-0.1,0.3-0.1,0.5c0,2.2-1.8,3.9-4,3.9c-2.1,0-3.8-1.6-3.9-3.7l0,0c0-0.1,0-0.2,0-0.3c0,0,0-0.1,0-0.2v-0.2
			v-0.6V581l0,0l-4.8-54.5h8L783.5,581.5z M785.7,521.7c-1.1,1.1-2.6,1.8-4.2,1.8H663c-3.3-0.1-5.9-2.9-5.8-6.2s2.9-5.9,6.2-5.8h118
			c3.3,0,6,2.7,6,6C787.5,519.1,786.8,520.6,785.7,521.7L785.7,521.7z"/>
		<g class="st1">
			<path class="st0" d="M696.2,487.9c0.3-0.4,0.8-0.4,1.2-0.1c0.7,0.6,2,1.3,3.1,1.3c0.8,0,1.6-0.2,2-0.6c0.5-0.4,0.7-0.8,0.7-1.2
				c0-0.2,0-0.4-0.1-0.5c-0.1-0.2-0.2-0.3-0.5-0.5c-0.5-0.3-1.3-0.6-2.2-0.8h0c-0.8-0.1-1.5-0.3-2.1-0.6c-0.6-0.3-1.2-0.7-1.5-1.3
				c-0.2-0.4-0.4-0.9-0.4-1.3c0-1,0.6-1.8,1.3-2.4c0.8-0.6,1.8-0.9,2.8-0.9c1.6,0,2.7,0.8,3.6,1.3c0.4,0.3,0.5,0.8,0.2,1.2
				c-0.2,0.4-0.8,0.5-1.2,0.2c-0.8-0.6-1.6-1-2.6-1c-0.7,0-1.4,0.2-1.8,0.6s-0.6,0.7-0.6,1c0,0.2,0,0.3,0.1,0.5
				c0.1,0.1,0.2,0.3,0.4,0.4c0.4,0.3,1.2,0.6,2,0.7h0c0.8,0.2,1.6,0.4,2.3,0.7c0.7,0.3,1.3,0.8,1.6,1.4c0.2,0.4,0.4,0.9,0.4,1.4
				c0,1-0.6,1.9-1.4,2.5c-0.8,0.6-1.9,0.9-3,0.9c-1.8,0-3.3-0.9-4.2-1.6C695.9,488.8,695.9,488.2,696.2,487.9z"/>
			<path class="st0" d="M714.2,481.1h-2.6v8.7c0,0.5-0.4,0.9-0.9,0.9c-0.5,0-0.9-0.4-0.9-0.9v-8.7h-2.6c-0.5,0-0.9-0.4-0.9-0.9
				c0-0.5,0.4-0.9,0.9-0.9h7c0.5,0,0.9,0.4,0.9,0.9C715.1,480.6,714.7,481.1,714.2,481.1z"/>
			<path class="st0" d="M725.9,480.7c1,1.1,1.7,2.5,1.7,4.1s-0.6,3.1-1.7,4.1c-1,1.1-2.4,1.8-3.9,1.8c-1.6,0-3-0.7-4-1.8
				c-1-1.1-1.6-2.5-1.6-4.1s0.6-3.1,1.6-4.1c1-1.1,2.4-1.8,4-1.8C723.5,478.9,724.9,479.6,725.9,480.7z M725.7,484.8
				c0-1.1-0.4-2.1-1.1-2.9c-0.7-0.7-1.6-1.2-2.6-1.2c-1,0-2,0.4-2.7,1.2c-0.7,0.7-1.1,1.8-1.1,2.9s0.4,2.1,1.1,2.8
				c0.7,0.7,1.6,1.2,2.7,1.2c1,0,1.9-0.4,2.6-1.2C725.3,487,725.7,485.9,725.7,484.8z"/>
			<path class="st0" d="M738.3,489.3c0.2,0.5-0.1,1-0.6,1.1c-0.1,0-0.2,0-0.4,0c0,0,0,0,0,0c-0.2,0-0.4,0-0.6-0.2
				c-0.2-0.1-0.4-0.3-0.5-0.6c-0.2-0.5-0.3-1.1-0.3-2c0-0.3-0.1-0.5-0.2-0.7c-0.1-0.2-0.3-0.3-0.5-0.5c-0.3-0.2-0.8-0.4-0.9-0.4
				h-1.9v3.5c0,0.5-0.4,0.9-0.9,0.9c-0.5,0-0.9-0.4-0.9-0.9v-9.7c0-0.5,0.4-0.9,0.9-0.9c0,0,0,0,0,0h2.9c1.9,0,3.5,1.6,3.5,3.5
				c0,1.1-0.5,2-1.3,2.7c0.2,0.2,0.4,0.4,0.6,0.6c0.3,0.5,0.5,1.1,0.5,1.8c0,0.5,0,0.8,0.1,1C738,488.9,738.3,489.1,738.3,489.3z
				 M736.1,482.8c0-0.9-0.8-1.7-1.7-1.7h-2v3.4h2C735.3,484.4,736.1,483.7,736.1,482.8z"/>
			<path class="st0" d="M741,489.8v-9.7c0-0.5,0.4-0.9,0.9-0.9h0c0,0,0,0,0,0h5.3c0.5,0,0.9,0.4,0.9,0.9c0,0.5-0.4,0.9-0.9,0.9h-4.4
				v3h3.8c0.5,0,0.9,0.4,0.9,0.9c0,0.5-0.4,0.9-0.9,0.9h-3.8v3h4.4c0.5,0,0.9,0.4,0.9,0.9c0,0.5-0.4,0.9-0.9,0.9h-5.3c0,0,0,0,0,0
				l0,0C741.4,490.7,741,490.3,741,489.8z"/>
		</g>
	</g>
</g>
</svg>
