<svg xmlns="http://www.w3.org/2000/svg" viewBox="0 0 1184.9 522.92"><defs><style>.cls-1{fill:#f39c12;}</style></defs><title>be-on-cloud</title><g id="Layer_2" data-name="Layer 2"><g id="Layer_1-2" data-name="Layer 1"><path class="cls-1" d="M1169.53,446.71h-72.91a15.38,15.38,0,0,1,0-30.75H1110a15.38,15.38,0,1,0,0-30.75h-37.7c-2.48-71.17-61.15-128.29-132.91-128.29a133.2,133.2,0,0,0-88.52,33.75A156.73,156.73,0,0,0,690,211.74V139.46h66.78a8.64,8.64,0,0,0,0-17.28h-41a8.65,8.65,0,0,1,0-17.29h7.53a8.64,8.64,0,1,0,0-17.28H690V28.83A28.87,28.87,0,0,0,661.15,0H491.93A28.86,28.86,0,0,0,463.1,28.83v87.41A204.63,204.63,0,0,0,292.47,283a133,133,0,0,0-132.68-14.74H65.47a15.38,15.38,0,1,0,0,30.75H87.78a15.39,15.39,0,0,1,15.38,15.38q0,.69-.06,1.35h0a129.73,129.73,0,0,0-7,11.55,15.24,15.24,0,0,1-8.34,2.46H15.38a15.38,15.38,0,1,0,0,30.75H83.69a133.07,133.07,0,0,0-3.29,29.46c0,73.34,59.66,133,133,133h726a132.1,132.1,0,0,0,94-39q3.16-3.16,6.08-6.5h130a15.38,15.38,0,0,0,0-30.75ZM473.1,28.83A18.86,18.86,0,0,1,491.93,10H661.15A18.86,18.86,0,0,1,680,28.83V385a18.86,18.86,0,0,1-18.83,18.83H491.93A18.86,18.86,0,0,1,473.1,385Zm546.2,441c-2.7,2.7-5.52,5.25-8.43,7.64a112.07,112.07,0,0,1-71.47,25.46h-726A113,113,0,1,1,293,309.72a10,10,0,0,0,17-6.3c6.79-84.63,71.57-152.93,153.09-166.89V303.37H424.2a8.64,8.64,0,1,0,0,17.28h12.54a8.65,8.65,0,0,1,0,17.29H396a8.64,8.64,0,1,0,0,17.28H463.1V385a28.86,28.86,0,0,0,28.83,28.83H661.15A28.87,28.87,0,0,0,690,385V232a136.64,136.64,0,0,1,148.94,79.53,10,10,0,0,0,16.58,2.68,113,113,0,0,1,196.79,71c.08,1.56.11,3.13.11,4.71A112.21,112.21,0,0,1,1019.3,469.82Z"/><circle class="cls-1" cx="576.9" cy="369.92" r="15"/><path class="cls-1" d="M387.59,123.78a2,2,0,0,0-2.81-.19l-1.17,1-20,17.6a9.53,9.53,0,0,0-9.94-.86l-24.08-27.43L314.19,96.4a2,2,0,0,0-1.37-.67,2,2,0,0,0-1.45.5l-11.95,10.49a2,2,0,0,0,2.64,3l1.16-1,9.29-8.16,10.62,12.1,27.4,31.21a9.51,9.51,0,0,0,6.77,15.46,9.31,9.31,0,0,0,4.1-.64,9.81,9.81,0,0,0,2.79-1.7,9.53,9.53,0,0,0,2-11.76l21.21-18.62A2,2,0,0,0,387.59,123.78Zm-26,30.19a5.5,5.5,0,0,1-8.31-7,5.57,5.57,0,0,1,1-1.24,2.6,2.6,0,0,1,.32-.26,5.43,5.43,0,0,1,1.28-.72,3.89,3.89,0,0,1,.58-.18,5.48,5.48,0,0,1,5.59,1.66,5.25,5.25,0,0,1,1,1.76A5.5,5.5,0,0,1,361.55,154Z"/><path class="cls-1" d="M379.21,123.74a.93.93,0,0,1-.26.3l-15.52,13.64a1.66,1.66,0,0,1-2.35-.15l-6.39-7.27a1.66,1.66,0,0,1,.16-2.35l8.36-7.33,7.17-6.3a1.66,1.66,0,0,1,2.35.14l6.38,7.27A1.64,1.64,0,0,1,379.21,123.74Z"/><path class="cls-1" d="M364.65,115.32l-5.15,4.52L353.62,125a1.66,1.66,0,0,1-2.35-.16l-5.71-6.51a1.61,1.61,0,0,1-.4-1.33,1.58,1.58,0,0,1,.54-1l11-9.68a1.66,1.66,0,0,1,2.35.16l5.71,6.51A1.67,1.67,0,0,1,364.65,115.32Z"/><path class="cls-1" d="M348.12,453.12H328.57v19.55H269.9v19.56h7.6a8.7,8.7,0,0,0,17.39,0h38a8.7,8.7,0,0,0,17.39,0h7.6V472.67ZM286.2,497.66a5.43,5.43,0,1,1,5.43-5.43A5.44,5.44,0,0,1,286.2,497.66Zm55.4,0a5.43,5.43,0,1,1,5.44-5.43A5.44,5.44,0,0,1,341.6,497.66Zm-8.06-29.33V457.46h11.78l5.43,10.87Z"/><rect class="cls-1" x="280.76" y="461.81" width="17.39" height="8.69"/><rect class="cls-1" x="300.32" y="461.81" width="24.99" height="8.69"/><rect class="cls-1" x="313.36" y="450.94" width="11.95" height="8.7"/><rect class="cls-1" x="299.23" y="450.94" width="11.95" height="8.7"/><rect class="cls-1" x="285.11" y="450.94" width="11.95" height="8.7"/><path class="cls-1" d="M1041.26,186.26a2,2,0,0,0-2.69.83l-8.29,15.74-2.87,5.45-4.81,9.13-1.92,3.64-2.19,4.15-42.34-5.09a10.18,10.18,0,0,0-7.79-8.92l-.09,0v-6.55l0-37.71a2,2,0,0,0-.74-1.55l-2.63-2.13L949,150.34a2,2,0,0,0-2.51,3.1l12.14,9.81,5.69,4.61,0,35.82v7.39a10.15,10.15,0,0,0-4.26,18.2l-5,10.31a8.16,8.16,0,1,0,5.54,11.53l35.31,8.31a8.17,8.17,0,1,0,1-3.85l-35.5-8.36a8.21,8.21,0,0,0-2.8-5.83l5-10.43.06,0a10.18,10.18,0,0,0,12-6.89l43.64,5.25a2,2,0,0,0,2-1.05l3.3-6.29,1.92-3.64,6.69-12.69,3.67-7,5.14-9.74A2,2,0,0,0,1041.26,186.26ZM1000,258.55a4.1,4.1,0,0,1,1.1-2,4.19,4.19,0,1,1-1.12,3.83A4,4,0,0,1,1000,258.55ZM957.33,248.5a4.12,4.12,0,0,1-.81,1.65,4.18,4.18,0,1,1-2.31-6.68,4.13,4.13,0,0,1,2.53,1.77,4.05,4.05,0,0,1,.48,1A4.19,4.19,0,0,1,957.33,248.5Zm14.88-27.25a5.48,5.48,0,0,1-.05.57,1,1,0,0,1,0,.16.77.77,0,0,1,0,.15c0,.12,0,.24-.08.36a4.46,4.46,0,0,1-.26.83,2,2,0,0,1-.11.26,2.39,2.39,0,0,1-.13.28,1.3,1.3,0,0,1-.08.17l-.12.21c-.08.13-.16.26-.25.38l-.15.21-.24.29-.13.15-.13.13-.24.23-.27.24-.18.14c-.13.1-.26.18-.39.27a2.25,2.25,0,0,1-.21.12l-.21.12-.21.11a5.56,5.56,0,0,1-.88.35,5.94,5.94,0,0,1-.7.17,5.23,5.23,0,0,1-1,.1h-.49l-.24,0a5.74,5.74,0,0,1-.83-.13l-.35-.1-.28-.08-.2-.08-.18-.08a2,2,0,0,1-.33-.15.76.76,0,0,1-.18-.09l-.33-.19a2.57,2.57,0,0,1-.32-.22,4.08,4.08,0,0,1-.33-.25.81.81,0,0,1-.14-.12l-.12-.1-.05,0-.1-.11a1.21,1.21,0,0,1-.16-.16l-.19-.21-.12-.15a3.25,3.25,0,0,1-.23-.29l-.23-.34-.18-.32c-.07-.13-.13-.25-.19-.38s-.12-.27-.17-.41a2.25,2.25,0,0,1-.08-.24s0-.1,0-.15a2.1,2.1,0,0,1-.06-.24c0-.1,0-.2-.07-.3a2.38,2.38,0,0,1-.06-.37l0-.19c0-.1,0-.19,0-.28a1,1,0,0,1,0-.17v-.38c0-.1,0-.21,0-.31a1.71,1.71,0,0,1,0-.31l0-.21,0-.17a2,2,0,0,1,0-.24,1.55,1.55,0,0,1,.07-.23c0-.06,0-.11,0-.17a1.84,1.84,0,0,1,.09-.25c0-.09.06-.18.1-.27a4.3,4.3,0,0,1,.25-.53,3.1,3.1,0,0,1,.29-.5,1.85,1.85,0,0,1,.19-.27,1.59,1.59,0,0,1,.15-.21c.06-.07.11-.14.17-.2l.15-.17c.13-.13.26-.26.4-.38a2.75,2.75,0,0,1,.26-.22,3.65,3.65,0,0,1,.31-.24l.34-.22a6.27,6.27,0,0,1,1.45-.64h0l.28-.07.24-.06a6.49,6.49,0,0,1,1.08-.12h.72a3,3,0,0,1,.42.06l.17,0,.24,0a.86.86,0,0,1,.23.06l.16.05.43.14.11.05a1.45,1.45,0,0,1,.22.09l.51.26.23.14a1.88,1.88,0,0,1,.23.16l.35.25.26.23.18.17.13.14a0,0,0,0,1,0,0,2.41,2.41,0,0,1,.21.24l.11.12a4.56,4.56,0,0,1,.31.42c.07.1.13.2.19.3s.12.21.18.31.09.19.13.28l.12.27a5,5,0,0,1,.21.62l0,.1,0,.13a0,0,0,0,1,0,0c0,.07,0,.14.05.22s0,.3.07.44a1.84,1.84,0,0,1,0,.33c0,.1,0,.21,0,.31Z"/><path class="cls-1" d="M1015.13,203.37l-29.67-7a3.1,3.1,0,0,0-3.72,2.3l-2.69,11.44a3,3,0,0,0,0,1.12,3.09,3.09,0,0,0,2.35,2.6l29.67,7a3.07,3.07,0,0,0,3.26-1.28,2.94,2.94,0,0,0,.45-1l2.7-11.44A3.1,3.1,0,0,0,1015.13,203.37Zm0,3.17L1012.4,218a.7.7,0,0,1-.83.52l-29.67-7a.7.7,0,0,1-.52-.84l2.69-11.44a.71.71,0,0,1,.84-.52l29.67,7A.7.7,0,0,1,1015.1,206.54Z"/><path class="cls-1" d="M1023.8,187.4l-17.26-4.06a3.09,3.09,0,0,0-3.71,2.29l-1.78,7.57a3.09,3.09,0,0,0,2.29,3.71L1020.6,201a3.1,3.1,0,0,0,3.72-2.29l1.78-7.57A3.09,3.09,0,0,0,1023.8,187.4Zm0,3.17-1.78,7.56a.71.71,0,0,1-.84.52l-17.26-4.07a.7.7,0,0,1-.52-.83l1.78-7.57a.71.71,0,0,1,.84-.52l17.26,4.07A.7.7,0,0,1,1023.77,190.57Z"/></g></g></svg>