<svg xmlns="http://www.w3.org/2000/svg" viewBox="0 0 1396.39 733"><defs><style>.cls-1{fill:#f39c12;}</style></defs><title>delivery-app</title><g id="Layer_2" data-name="Layer 2"><g id="Layer_1-2" data-name="Layer 1"><path class="cls-1" d="M267,87.62a5,5,0,0,1-5-5V53.38a5,5,0,1,1,10,0V82.62A5,5,0,0,1,267,87.62Z"/><path class="cls-1" d="M267,35a5,5,0,0,1-5-5V0h30a5,5,0,0,1,0,10H272V30A5,5,0,0,1,267,35Z"/><path class="cls-1" d="M382,0H332a5,5,0,0,0,0,10h50a5,5,0,0,0,0-10Zm90,0H422a5,5,0,0,0,0,10h50a5,5,0,0,0,0-10Zm90,0H512a5,5,0,0,0,0,10h50a5,5,0,0,0,0-10Zm90,0H602a5,5,0,0,0,0,10h50a5,5,0,0,0,0-10Z"/><path class="cls-1" d="M717,35a5,5,0,0,1-5-5V10H692a5,5,0,0,1,0-10h30V30A5,5,0,0,1,717,35Z"/><path class="cls-1" d="M717,607.6a5,5,0,0,0-5,5v50.22a5,5,0,1,0,10,0V612.6A5,5,0,0,0,717,607.6Zm0-90.41a5,5,0,0,0-5,5v50.23a5,5,0,1,0,10,0V522.19A5,5,0,0,0,717,517.19Zm0-361.61a5,5,0,0,0-5,5v50.23a5,5,0,0,0,10,0V160.58A5,5,0,0,0,717,155.58Zm0-90.4a5,5,0,0,0-5,5V120.4a5,5,0,0,0,10,0V70.18A5,5,0,0,0,717,65.18Z"/><path class="cls-1" d="M742,733H712V703a5,5,0,0,1,10,0v20h20a5,5,0,0,1,0,10Z"/><path class="cls-1" d="M840.33,723H785.7a5,5,0,0,0,0,10h54.63a5,5,0,0,0,0-10Zm98.32,0H884a5,5,0,0,0,0,10h54.62a5,5,0,1,0,0-10Zm98.33,0H982.35a5,5,0,1,0,0,10H1037a5,5,0,0,0,0-10Zm98.32,0h-54.63a5,5,0,0,0,0,10h54.63a5,5,0,0,0,0-10Z"/><path class="cls-1" d="M1209,733h-30a5,5,0,0,1,0-10h20V703a5,5,0,0,1,10,0Z"/><path class="cls-1" d="M1204,681.54a5,5,0,0,1-5-5V643.46a5,5,0,0,1,10,0v33.08A5,5,0,0,1,1204,681.54Z"/><path class="cls-1" d="M1389.74,236.68a8.87,8.87,0,0,0-10.8,6.37l-19.88,76.65-6.87,26.51-11.54,44.48-4.59,17.74-5.25,20.23-188.65,21.12a45.29,45.29,0,0,0-42.83-30.71h-.42l-2.5-10.65-4.15-17.74-38.38-163.4a8.87,8.87,0,0,0-4.79-6l-13.56-6.53-82.2-39.58a8.86,8.86,0,0,0-7.7,16l62.6,30.15,29.35,14.13L1074,390.69l4.17,17.74,3.36,14.29a45.2,45.2,0,0,0,.13,83.19l-11,49.73A36.35,36.35,0,1,0,1106.41,600H1199v17a5,5,0,0,0,10,0V600h58.83a36.34,36.34,0,1,0,.44-17.74H1106a36.47,36.47,0,0,0-18.09-22.41l11.17-50.3h.28a45.29,45.29,0,0,0,45.12-42.13l194.41-21.76a8.87,8.87,0,0,0,7.59-6.6l7.93-30.59,4.59-17.74,16-61.82,8.8-33.91,12.3-47.47A8.86,8.86,0,0,0,1389.74,236.68ZM1287.43,582.22a18.63,18.63,0,1,1-1,17.74,18.25,18.25,0,0,1-1.81-8A18.45,18.45,0,0,1,1287.43,582.22ZM1089.58,592a18.25,18.25,0,0,1-1.81,8,18.62,18.62,0,1,1-21.17-26.09,18.64,18.64,0,0,1,17.13,4.58,17.77,17.77,0,0,1,3.08,3.77A18.45,18.45,0,0,1,1089.58,592Zm37-123.82c0,.4-.12.83-.21,1.24a10.94,10.94,0,0,1-.29,1.33c0,.26-.12.53-.19.8s-.2.69-.3,1c-.22.66-.45,1.3-.7,1.92-.12.35-.28.69-.44,1-.23.52-.48,1-.74,1.53-.15.25-.27.5-.41.74a6.65,6.65,0,0,1-.43.73,12.82,12.82,0,0,1-.8,1.22,14.48,14.48,0,0,1-.94,1.32l-.63.79c-.46.55-.94,1.07-1.42,1.58-.25.25-.5.52-.77.75s-.51.48-.78.71l-.79.69a26.19,26.19,0,0,1-3.5,2.41,21.63,21.63,0,0,1-2.83,1.46,24.89,24.89,0,0,1-4.08,1.41c-.36.09-.71.18-1.07.25s-.71.16-1.08.22-.71.12-1.08.17a25.69,25.69,0,0,1-3.73.27c-.53,0-1.08,0-1.61,0s-.85-.06-1.28-.11a7.74,7.74,0,0,1-1-.13,7.53,7.53,0,0,1-.87-.14A10.53,10.53,0,0,1,1093,491a6.87,6.87,0,0,1-.87-.21,15.68,15.68,0,0,1-1.65-.5c-.55-.17-1.08-.39-1.6-.6s-1.11-.48-1.66-.74c-.25-.11-.5-.25-.75-.38s-.41-.21-.6-.33l-.27-.14-.55-.34c-.28-.16-.56-.34-.83-.53a13,13,0,0,1-1.08-.75l-.66-.5c-.44-.33-.87-.69-1.27-1s-.91-.82-1.35-1.24-.75-.78-1.1-1.19-.84-1-1.23-1.47-.78-1.05-1.15-1.6c-.19-.3-.41-.62-.58-.94a6,6,0,0,1-.36-.6c-.19-.34-.39-.66-.55-1s-.41-.81-.58-1.22-.46-1-.66-1.52c-.11-.27-.21-.54-.3-.82s-.27-.78-.37-1.17a7.08,7.08,0,0,1-.22-.75c-.07-.23-.12-.46-.17-.69a9.21,9.21,0,0,1-.22-.94c-.1-.44-.17-.9-.24-1.34a13.57,13.57,0,0,1-.18-1.39c0-.3-.06-.62-.07-.94s0-.51,0-.78,0-.73,0-1.08,0-.73,0-1.08,0-.52,0-.78a11.54,11.54,0,0,1,.1-1.17c0-.43.09-.85.16-1.28q.21-1.31.54-2.55a24.24,24.24,0,0,1,.76-2.47c.16-.46.33-.92.53-1.36a10,10,0,0,1,.48-1.05c.16-.36.34-.71.51-1.05s.32-.58.5-.87a20.55,20.55,0,0,1,1.31-2.07c.29-.43.59-.83.91-1.22a16,16,0,0,1,1.11-1.33c.39-.45.8-.87,1.23-1.3a27.25,27.25,0,0,1,5.65-4.29.15.15,0,0,1,.08,0c.37-.21.72-.4,1.11-.6s.68-.32,1-.48a27.25,27.25,0,0,1,4.57-1.63c.44-.12.89-.21,1.33-.3a5.31,5.31,0,0,1,.76-.14h.06a7.85,7.85,0,0,1,1-.16c.62-.09,1.24-.16,1.88-.2l.78,0a14.74,14.74,0,0,1,2.17,0l.74,0c.67,0,1.33.11,2,.2l.53.09a6.25,6.25,0,0,1,1,.19,21,21,0,0,1,2.46.6c.39.11.78.23,1.17.38a12,12,0,0,1,1.14.42c.58.23,1.17.48,1.75.76l1.37.71c.32.18.65.38,1,.57a7.94,7.94,0,0,1,.72.46s.07,0,.11.07c.39.25.78.52,1.15.8.2.14.37.29.57.43a21.21,21.21,0,0,1,1.79,1.5c.39.36.78.73,1.15,1.12a14.84,14.84,0,0,1,1.07,1.17l.87,1.07c.26.35.53.69.78,1.06a22.94,22.94,0,0,1,1.56,2.45q.11.18.21.39a4.52,4.52,0,0,1,.28.53.67.67,0,0,0,.06.12c.16.31.3.61.44.93.28.6.53,1.22.76,1.84q.27.69.48,1.38c.14.43.27.87.37,1.32s.22.88.31,1.33a25.06,25.06,0,0,1,.39,2.5c0,.23,0,.46.07.69a5.65,5.65,0,0,1,0,.71c0,.53,0,1.08,0,1.63A26,26,0,0,1,1126.54,468.16Z"/><path class="cls-1" d="M1262.75,337H1144.62a17.19,17.19,0,0,0-17.17,17.17V406.8A17.19,17.19,0,0,0,1144.62,424h118.13a17.19,17.19,0,0,0,17.17-17.17V354.13A17.19,17.19,0,0,0,1262.75,337Zm2.17,69.84a2.17,2.17,0,0,1-2.17,2.17H1144.62a2.17,2.17,0,0,1-2.17-2.17V354.13a2.17,2.17,0,0,1,2.17-2.17h118.13a2.17,2.17,0,0,1,2.17,2.17Z"/><path class="cls-1" d="M1317.58,242h-91.13a17.19,17.19,0,0,0-17.17,17.17v47a17.18,17.18,0,0,0,17.17,17.16h91.13a17.19,17.19,0,0,0,17.17-17.16v-47A17.19,17.19,0,0,0,1317.58,242Zm2.17,64.12a2.17,2.17,0,0,1-2.17,2.16h-91.13a2.17,2.17,0,0,1-2.17-2.16v-47a2.17,2.17,0,0,1,2.17-2.17h91.13a2.18,2.18,0,0,1,2.17,2.17Z"/><path class="cls-1" d="M547.2,633.84H486.49a12.8,12.8,0,0,1,0-25.6h11.15a12.81,12.81,0,0,0,0-25.61H434.92V127.33a32.67,32.67,0,0,0-32.63-32.64h-271a32.67,32.67,0,0,0-32.63,32.64v96.84H54.51a12.8,12.8,0,1,0,0,25.6H73.1a12.8,12.8,0,0,1,0,25.6H12.8a12.81,12.81,0,0,0,0,25.61H98.63V675.34A32.67,32.67,0,0,0,131.26,708h271a32.67,32.67,0,0,0,32.63-32.63V659.45H547.2a12.81,12.81,0,0,0,0-25.61Zm-127.28,41.5A17.65,17.65,0,0,1,402.29,693h-271a17.65,17.65,0,0,1-17.63-17.63v-548a17.66,17.66,0,0,1,17.63-17.64h271a17.66,17.66,0,0,1,17.63,17.64Z"/><path class="cls-1" d="M209,389.47a26.14,26.14,0,0,0-8.86-9.29,23.89,23.89,0,0,0,4.58-14.71q0-8.57-6.69-15.26a22.09,22.09,0,0,0-16.22-6.69H164.64a6.59,6.59,0,0,0-6.63,6.63V421.3a6.59,6.59,0,0,0,6.63,6.63.92.92,0,0,1,.36-.12l.12.12h21.34a24.78,24.78,0,0,0,18.27-7.59A25.08,25.08,0,0,0,212.27,402,24.72,24.72,0,0,0,209,389.47Zm-37.56-32.56h10.37a9.47,9.47,0,0,1,9.53,9.52,9.6,9.6,0,0,1-2.78,6.88,9,9,0,0,1-6.75,2.89H171.39Zm23.88,53.9a12.43,12.43,0,0,1-8.81,3.74H171.39v-25h15.07a12.53,12.53,0,0,1,8.81,3.67,11.82,11.82,0,0,1,3.62,8.75A12,12,0,0,1,195.27,410.81Z"/><path class="cls-1" d="M291.55,645.82A24.78,24.78,0,1,1,266.78,621,24.78,24.78,0,0,1,291.55,645.82Z"/><path class="cls-1" d="M299.46,350.15v42.93a34.86,34.86,0,1,1-69.71,0V350.15a6.59,6.59,0,0,1,6.64-6.63,6.62,6.62,0,0,1,4.76,1.93,6.3,6.3,0,0,1,2,4.7v42.93a21.47,21.47,0,1,0,42.93,0V350.15a6.3,6.3,0,0,1,2-4.7,6.62,6.62,0,0,1,4.76-1.93,6.59,6.59,0,0,1,6.64,6.63Z"/><path class="cls-1" d="M386.52,354.86,361.8,388.74V421.3a6.41,6.41,0,0,1-1.93,4.7,6.31,6.31,0,0,1-4.64,1.93,6.54,6.54,0,0,1-4.71-1.93,6.31,6.31,0,0,1-2-4.7V388.74l-24.48-33.88a6.37,6.37,0,0,1,1.33-9.17,6.39,6.39,0,0,1,4.94-1.26,6.07,6.07,0,0,1,4.22,2.71l20.63,28.22,20.62-28.22a6.51,6.51,0,0,1,4.4-2.71,6.25,6.25,0,0,1,4.88,1.2,6.48,6.48,0,0,1,2.59,4.34A6.4,6.4,0,0,1,386.52,354.86Z"/><path class="cls-1" d="M291.55,645.82A24.78,24.78,0,1,1,266.78,621,24.78,24.78,0,0,1,291.55,645.82Z"/><path class="cls-1" d="M209,389.47a26.14,26.14,0,0,0-8.86-9.29,23.89,23.89,0,0,0,4.58-14.71q0-8.57-6.69-15.26a22.09,22.09,0,0,0-16.22-6.69H164.64a6.59,6.59,0,0,0-6.63,6.63V421.3a6.59,6.59,0,0,0,6.63,6.63.92.92,0,0,1,.36-.12l.12.12h21.34a24.78,24.78,0,0,0,18.27-7.59A25.08,25.08,0,0,0,212.27,402,24.72,24.72,0,0,0,209,389.47Zm-37.56-32.56h10.37a9.47,9.47,0,0,1,9.53,9.52,9.6,9.6,0,0,1-2.78,6.88,9,9,0,0,1-6.75,2.89H171.39Zm23.88,53.9a12.43,12.43,0,0,1-8.81,3.74H171.39v-25h15.07a12.53,12.53,0,0,1,8.81,3.67,11.82,11.82,0,0,1,3.62,8.75A12,12,0,0,1,195.27,410.81Z"/><path class="cls-1" d="M297.53,345.45a6.44,6.44,0,0,0-4.71-1.93,6.62,6.62,0,0,0-4.76,1.93,6.3,6.3,0,0,0-2,4.7v42.93a21.47,21.47,0,0,1-42.93,0V350.15a6.3,6.3,0,0,0-2-4.7,6.62,6.62,0,0,0-4.76-1.93,6.59,6.59,0,0,0-6.64,6.63v42.93a34.86,34.86,0,0,0,69.71,0V350.15A6.44,6.44,0,0,0,297.53,345.45Z"/><path class="cls-1" d="M387.66,350a6.48,6.48,0,0,0-2.59-4.34,6.25,6.25,0,0,0-4.88-1.2,6.51,6.51,0,0,0-4.4,2.71l-20.62,28.22-20.63-28.22a6.07,6.07,0,0,0-4.22-2.71,6.39,6.39,0,0,0-4.94,1.26,6.37,6.37,0,0,0-1.33,9.17l24.48,33.88V421.3a6.31,6.31,0,0,0,2,4.7,6.54,6.54,0,0,0,4.71,1.93,6.31,6.31,0,0,0,4.64-1.93,6.41,6.41,0,0,0,1.93-4.7V388.74l24.72-33.88A6.4,6.4,0,0,0,387.66,350Z"/><rect class="cls-1" x="690.75" y="342.83" width="11" height="8"/><rect class="cls-1" x="686.75" y="352.83" width="16" height="8"/><path class="cls-1" d="M722,271V251a5,5,0,0,0-10,0v20a95,95,0,0,0,0,189.72V482a5,5,0,0,0,10,0v-21.3A95,95,0,0,0,722,271Zm0,179.75c-1.57.09-3.16.13-4.75.13-1.76,0-3.51-.05-5.25-.17A85,85,0,0,1,712,281c1.74-.12,3.49-.17,5.25-.17,1.59,0,3.18,0,4.75.13a85,85,0,0,1,0,169.74Z"/><path class="cls-1" d="M748.75,344.83h-18v18h-54v18h7a8,8,0,0,0,16,0h35a8,8,0,0,0,16,0h7v-18Zm-57,41a5,5,0,1,1,5-5A5,5,0,0,1,691.75,385.83Zm51,0a5,5,0,1,1,5-5A5,5,0,0,1,742.75,385.83Zm-7.42-27v-10h10.84l5,10Z"/><rect class="cls-1" x="686.75" y="352.83" width="16" height="8"/><rect class="cls-1" x="704.75" y="352.83" width="23" height="8"/><rect class="cls-1" x="716.75" y="342.83" width="11" height="8"/><rect class="cls-1" x="703.75" y="342.83" width="11" height="8"/><rect class="cls-1" x="690.75" y="342.83" width="11" height="8"/></g></g></svg>