<svg xmlns="http://www.w3.org/2000/svg" viewBox="0 0 1199 758.84"><defs><style>.cls-1,.cls-2{fill:#f39c12;}.cls-1{fill-rule:evenodd;}</style></defs><title>go-live-quickly</title><g id="Layer_2" data-name="Layer 2"><g id="Layer_1-2" data-name="Layer 1"><path class="cls-1" d="M1022.33,359H991.67a12,12,0,1,1,0-24h-3.34a12,12,0,0,0,0-24H942V37.3A37.3,37.3,0,0,0,904.7,0H304.3A37.3,37.3,0,0,0,267,37.3V58H208.67a12,12,0,1,0,0,24h-3.34a12,12,0,1,1,0,24H157a12,12,0,1,0,0,24H267V267h-4a5,5,0,0,0,0,10h4V389.7A37.3,37.3,0,0,0,304.3,427H594.5v45H471a10,10,0,0,0,0,20H362a10,10,0,0,0,0,20H847a10,10,0,0,0,0-20H738a10,10,0,0,0,0-20H614.5V427H904.7A37.3,37.3,0,0,0,942,389.7V383h80.33a12,12,0,0,0,0-24ZM922,389.7A17.32,17.32,0,0,1,904.7,407H304.3A17.32,17.32,0,0,1,287,389.7V37.3A17.32,17.32,0,0,1,304.3,20H904.7A17.32,17.32,0,0,1,922,37.3Z"/><path class="cls-2" d="M631,74a10,10,0,0,1-10,10H354a10,10,0,0,1-10-10,10,10,0,0,1,10-10H621A10,10,0,0,1,631,74Z"/><path class="cls-2" d="M631,216a10,10,0,0,1-10,10H354a10,10,0,0,1,0-20H621A10,10,0,0,1,631,216Z"/><path class="cls-2" d="M743,145a10,10,0,0,1-10,10H503a10,10,0,0,1,0-20H733A10,10,0,0,1,743,145Z"/><path class="cls-2" d="M790.67,315.37a7,7,0,0,1-6.41,9.81,7.13,7.13,0,0,1-2.92-.63,7.37,7.37,0,0,1-.87-.48,7.7,7.7,0,0,1-.81-.6l-.37-.35a7.11,7.11,0,0,1-1.45-2.13L764.6,290.76l-23.81,10.43,4.15-72.78,56.3,46.3-23.81,10.43Z"/><path class="cls-2" d="M114.75,713.67c0,.11,0,.22,0,.33h.38Zm0,10.33c0,.31.09.62.14.93l1-.93Z"/><path class="cls-2" d="M323,667a5,5,0,0,1-5,5H300.16l.17,14.51A7,7,0,0,1,295,693.4a5.17,5.17,0,0,1-1.64.24l-87.48,1.1a7,7,0,0,1-7.13-7l-.53-40.94a7,7,0,0,1,7-7.13l47.08-.56,40.42-.48a7,7,0,0,1,7.15,6.94L300,662h18A5,5,0,0,1,323,667Z"/><path class="cls-2" d="M271.37,626.19l-29,.35-33.1.41a7,7,0,0,1-7.13-7l-.43-36.69a6.89,6.89,0,0,1,2.39-5.36,6.75,6.75,0,0,1,4.55-1.78l62.1-.76a7.07,7.07,0,0,1,7.14,7l.42,36.69A7.06,7.06,0,0,1,271.37,626.19Z"/><path class="cls-2" d="M78.67,724H49.33a5,5,0,0,1,0-10H78.67a5,5,0,0,1,0,10Z"/><path class="cls-2" d="M20,724H5a5,5,0,0,1-5-5V704a5,5,0,0,1,10,0v10H20a5,5,0,0,1,0,10Z"/><path class="cls-2" d="M5,314.08a5,5,0,0,0-5,5v32.07a5,5,0,0,0,10,0V319.08A5,5,0,0,0,5,314.08Zm0,64.15a5,5,0,0,0-5,5v32.08a5,5,0,0,0,10,0V383.23A5,5,0,0,0,5,378.23Zm0,64.15a5,5,0,0,0-5,5v32.08a5,5,0,0,0,10,0V447.38A5,5,0,0,0,5,442.38Zm0,64.16a5,5,0,0,0-5,5v32.08a5,5,0,0,0,10,0V511.54A5,5,0,0,0,5,506.54Zm0,64.15a5,5,0,0,0-5,5v32.08a5,5,0,0,0,10,0V575.69A5,5,0,0,0,5,570.69Zm0,64.16a5,5,0,0,0-5,5v32.07a5,5,0,0,0,10,0V639.85A5,5,0,0,0,5,634.85Z"/><path class="cls-2" d="M5,292a5,5,0,0,1-5-5V272a5,5,0,0,1,5-5H20a5,5,0,0,1,0,10H10v10A5,5,0,0,1,5,292Z"/><path class="cls-2" d="M74,267H47a5,5,0,0,0,0,10H74a5,5,0,0,0,0-10Zm54,0H101a5,5,0,0,0,0,10h27a5,5,0,0,0,0-10Zm54,0H155a5,5,0,0,0,0,10h27a5,5,0,0,0,0-10Zm54,0H209a5,5,0,0,0,0,10h27a5,5,0,0,0,0-10Z"/><path class="cls-2" d="M115.08,714h-.38c0-.11,0-.22,0-.33Z"/><path class="cls-2" d="M313.3,708.22l-6.56.07-112.87,1.39a40.36,40.36,0,0,0-29.56-30.12l-1.86-154.5-1.18-98.66a8.61,8.61,0,0,0-2.56-5.94,8.42,8.42,0,0,0-6-2.39l-67.31.79a8.48,8.48,0,0,0,.2,17l6.56-.07,52.3-.64.83,68.12,2.12,175.82a40.24,40.24,0,0,0-32.63,34.62l.33.33h-.38c0-.11,0-.22,0-.33L87.54,686.46a5,5,0,0,0-7.08,7.08l23.12,23.12a5,5,0,0,0,.13,4.91l-23,20.71a5,5,0,1,0,6.68,7.44l27.59-24.79c-.05-.31-.1-.62-.14-.93H116l-1,.93a40.2,40.2,0,0,0,79.1,1.68l119.47-1.43a8.48,8.48,0,0,0-.2-17ZM176.4,726.85a23.19,23.19,0,1,1-22.05-31.52,12.4,12.4,0,0,1,1.73.06,22.25,22.25,0,0,1,6.11,1.22,17.15,17.15,0,0,1,2.35,1,23.23,23.23,0,0,1,13.4,20.75A22.3,22.3,0,0,1,176.4,726.85Z"/><path class="cls-2" d="M116,724l-1,.93c-.05-.31-.1-.62-.14-.93Z"/><rect class="cls-2" x="1104.95" y="611.98" width="57.88" height="28.94"/><rect class="cls-2" x="1014.52" y="611.98" width="83.2" height="28.94"/><rect class="cls-2" x="1014.52" y="575.8" width="39.79" height="28.94"/><rect class="cls-2" x="1061.54" y="575.8" width="39.79" height="28.94"/><path class="cls-2" d="M378,662H348a5,5,0,0,0,0,10h30a5,5,0,0,0,0-10Zm60,0H408a5,5,0,0,0,0,10h30a5,5,0,0,0,0-10Zm60,0H468a5,5,0,0,0,0,10h30a5,5,0,0,0,0-10Zm60,0H528a5,5,0,0,0,0,10h30a5,5,0,0,0,0-10Zm60,0H588a5,5,0,0,0,0,10h30a5,5,0,0,0,0-10Zm60,0H648a5,5,0,0,0,0,10h30a5,5,0,0,0,0-10Zm60,0H708a5,5,0,0,0,0,10h30a5,5,0,0,0,0-10Zm60,0H768a5,5,0,0,0,0,10h30a5,5,0,0,0,0-10Zm60,0H828a5,5,0,0,0,0,10h30a5,5,0,0,0,0-10Z"/><path class="cls-2" d="M1003.67,648.15V583H938.56L906,648.15v11.77l-24.46-24.46a5,5,0,0,0-7.08,7.08L893.92,662H888a5,5,0,0,0,0,10h8.12l-21.46,19.28a5,5,0,1,0,6.68,7.44L906,676.57v36.69h25.32a28.94,28.94,0,0,0,57.88,0h126.6a28.94,28.94,0,0,0,57.88,0H1199V648.15Zm-43.41,83.2a18.09,18.09,0,1,1,18.09-18.09A18.1,18.1,0,0,1,960.26,731.35Zm26.84-97.67H929.8l18.09-36.17H987.1Zm157.64,97.67a18.09,18.09,0,1,1,18.09-18.09A18.1,18.1,0,0,1,1144.74,731.35Z"/><path class="cls-2" d="M1151,200a5,5,0,0,1-3.72-1.66l-23-25.57-25.77,25.77a5,5,0,0,1-7.08-7.08L1121,162a5,5,0,0,1,7.26.2l26.5,29.5A5,5,0,0,1,1151,200Z"/><path class="cls-2" d="M1123,482a5,5,0,0,0-5,5v30a5,5,0,0,0,10,0V487A5,5,0,0,0,1123,482Zm0-60a5,5,0,0,0-5,5v30a5,5,0,0,0,10,0V427A5,5,0,0,0,1123,422Zm0-60a5,5,0,0,0-5,5v30a5,5,0,0,0,10,0V367A5,5,0,0,0,1123,362Zm0-60a5,5,0,0,0-5,5v30a5,5,0,0,0,10,0V307A5,5,0,0,0,1123,302Zm0-60a5,5,0,0,0-5,5v30a5,5,0,0,0,10,0V247A5,5,0,0,0,1123,242Zm0-60a5,5,0,0,0-5,5v30a5,5,0,0,0,10,0V187A5,5,0,0,0,1123,182Z"/><path class="cls-2" d="M1148.36,575.8v28.94h-39.79V575.8H1118V547a5,5,0,0,1,10,0v28.8Z"/></g></g></svg>