<?xml version="1.0" encoding="utf-8"?>
<!-- Generator: Adobe Illustrator 23.0.1, SVG Export Plug-In . SVG Version: 6.00 Build 0)  -->
<svg version="1.1" id="Layer_1" xmlns="http://www.w3.org/2000/svg" xmlns:xlink="http://www.w3.org/1999/xlink" x="0px" y="0px"
	 viewBox="0 0 1810.3 920.1" style="enable-background:new 0 0 1810.3 920.1;" xml:space="preserve">
<style type="text/css">
	.st0{opacity:0.35;}
	.st1{fill:#E67E22;}
</style>
<title>landing-ecommerce</title>
<g class="st0">
	<g>
		<g>
			<path class="st1" d="M1392.8,427.6c0.9,3.2,1.8,6.4,2.8,9.5c4.5,12.8,7.6,25.8,5.3,39.5c-0.7,4.2-2.6,9.3,4.8,9.5
				c0.3,0,0.7,0.3,0.8,0.5c3.5,6.7,11.2,11.5,8.9,20.7c-0.6,2.3,0.5,4.6,1.8,6.6c3.1,4.7,7,8.8,12.2,11.3c2.2,1,4.1,2.1,5.2,4.3
				c0.8,1.6,2.1,3.6,4.1,2.6c2-1,1-3.2,0.5-4.9c-0.2-0.6-0.5-1.2-0.8-1.8c-3-5.9-6.6-11.5-5.7-18.6c0.1-0.9-0.4-2-1-2.7
				c-4.4-5.6-8.7-11.2-14.9-15.1c-2.9-1.9-11.1-18.6-10.7-22c0-0.3,0-0.7,0.1-1c1.6-4.9,2.8-9.8,3.5-14.9c0.2-1.6,0.5-3.6,2.8-3.4
				c1.8,0.2,2.2,1.8,2.4,3.3c0.2,1.5,0.2,3.5,2.2,3.2c4.5-0.6,6.1,3.1,8.9,5.3c4.1,3.2,5.5,9.4,11.7,10.4c1.4,0.2,1.9,1.7,1.7,3.2
				c-0.3,2.1-1.4,4.8,0.8,5.9c2.2,1.1,3.5-1.8,5.2-2.9c1.4-0.8,2.8-2,3.5-3.4c1.8-3.4,4.6-5.2,8-6.9c4.7-2.3,7.9-5.9,7.8-12
				c-0.1-9.7-3.2-17.7-10.1-24.4c-4.7-4.6-9.5-9.2-13.5-14.5c-4.1-5.3-4-9.3,0.6-14.1c2-2,3.9-4.1,6-5.9c4.9-4.2,10.4-2.5,12,3.7
				c0.4,1.5,0.9,3,2.8,2.9c1.7-0.1,1.8-1.6,2.1-2.9c1-4,4.7-6.8,8.9-6.3c1.5,0.2,3,0.6,4.2-0.6c2-2.2,5-2.5,7.3-3.9
				c4-2.4,9.4-2.5,12.4-5.8c6.7-7.5,14.3-14.5,16.9-25.2c1.7-6.7,3.1-13.5,4.6-20.3c0.7-3.2-0.1-4-3.2-2.4c-1.6,0.8-4.3,1.4-3-1.9
				c2.2-5.3-1.2-9.4-3.6-12.5c-4.7-5.8-8.7-12.5-15.8-16.1c-2.5-1.3-2.6-3.3-1-5.4c3.1-4,5.2-8.9,10.3-11.1c1.9-0.8,1.6-2.3-0.3-2.6
				c-4.8-0.7-9.7-2.7-14.2,1.1c-1.1,1-3.2,2-3.9,0.4c-2-4.1-5.9-5-9.4-6.7c-1.9-1-2.4-3-0.5-3.9c5.1-2.3,7.8-7,11.5-10.7
				c1-0.9,2-1.9,3.5-1c1.2,0.8,2.1,2,1.4,3.4c-1.4,2.8,0.4,5.1,1.1,7.6c0.5,2.2,1.7,2.2,3.2,0.9c1-0.9,1.8-1.9,2.9-2.7
				c5.7-4.8,13.4-2.3,14.4,4.9c0.6,3.8,2.5,5.3,5.9,6c3.5,0.8,8.5,0.5,6.9,6.7c-0.1,0.3,0.3,1,0.7,1.3c3.4,2.9,4.3,6.4,3.3,10.7
				c-0.6,2.7,1.4,4.3,3.6,4.3c5.1-0.1,9.5-2.4,13.2-5.9c1.3-1.2,0.6-2.7,0.1-4.2c-2.4-7.5-6.1-13.8-13.6-17.4c-2.2-1-4-2.9-6-4.3
				c-2.8-1.9-2.7-3.9-0.1-5.9c3.3-2.6,4.4-5.9,4.2-10c-0.2-3.2,0.8-6.2,3.4-8.4c1.6-1.3,3.3-1.9,5.5-1c5,2.1,10.3-0.3,12-5.4
				c1.2-3.7,2.9-7.6,3.1-11.5c0.6-10.2,3-20.7-2.7-30.5c-2.3-4-4.4-8.2-6.4-12.3c-3.7-7.4-9.8-11.8-17.4-14.2c-2.1-0.7-4.4-1-6,1
				c-2.4,2.9-4.1,1.8-5.7-0.8c-0.9-1.4-1.8-2.7-3.1-4.7c-0.6,3.3-1.7,4.6-4.2,2c-0.6-0.6-1.8-0.7-2.8-1c-4.8-1.3-5.2-2.5-1.8-6.2
				c2.6-2.7,3.6-5.8,4-9.3c0.3-2.1,0.7-4.2,1.1-6.3c0.7-4.1,3.2-6.1,7.4-6.7c10.8-1.6,21.8-1.1,32.6-1.1c1.1,0,2.5,0.2,3.3,0.8
				c5.3,3.9,10.8,1.7,16.2,0.7c2.1-0.4,2.4-2.4,0.5-3c-6.5-2.1-4.1-6.6-3.5-10.8c0.4-2.4,1.6-3.4,3.9-3.6c5.2-0.6,9.3,0.6,12.4,5.3
				c1.2,1.9,3.5,4.4,6.1,2.1c2-1.8,6.2-3.2,3.2-7.4c-0.6-0.9-0.7-1.9,0.2-2.7c1.1-0.9,2.2-0.5,3.1,0.4c1.9,1.9,3.6,4.3,3.5,6.9
				c-0.3,6.4-2.1,12.7-4.4,18.6c-1,2.6-3.6,4.4-2,7.8c1.2,2.6,1.3,5.9,3.8,7.9c8.9,7.2,17.1,15.1,25.2,23.1c2,2,4.3,3.7,6.4,5.4
				c2.4,1.9,3.9,1.3,4.6-1.6c0.4-1.8,0.8-3.7-0.4-5.3c-2-2.5-1.4-3.7,1-5.9c1.7-1.6-3.2-3.8-2.2-6.8c0.1-0.3,0.2-0.8,0.5-0.8
				c4.3-1.7,0.9-3.1,0-4.7c-1-1.9-4.7-3.7-0.3-6.2c1.7-1-0.1-1.8-1.1-2.3c-2.7-1.2-6.2-1.9-7.4-4.7c-1.5-3.4-3.8-4.3-6.9-4.6
				c-2.8-0.3-4.1-1.8-4-4.6c0-1.2,0.3-2.4-0.5-3.3c-2.5-3.2-0.5-4.3,2.3-5.1c2.4-0.7,4.9-1.3,7,0.6c1.4,1.3,2.7,1,3.9-0.3
				c3.2-3.4,6.7-3,10.4-1.1c2.7,1.5,4.2,1.8,5.7-2c3.8-9.4,10.8-12.7,20.9-10.8c1,0.2,2.1,0.6,2.5-0.7c0.4-1.3-0.6-2.2-1.7-2.7
				c-4-1.7-8-3.1-11.9-4.8c-2.1-0.9-4.8-1.8-5.8-3.5c-1.1-1.9,2.3-2.7,3-4.4c0.3-0.8,0.5-1.5,0.6-2.4c0.2-1.2,0.9-1.8,2-1.6
				c5.1,1.2,10.9,0.5,15.2,3.7c4.9,3.6,10.2,4.3,15.9,4.5c1,0,2.1,0.4,2.7-0.7c0.7-1.3-0.2-2.2-1-3c-0.8-0.8-2.1-1.6-0.8-2.8
				c3.1-2.8,0.2-3.8-1.5-4.5c-2.9-1.2-5.9-2.2-9-2.5c-11.4-1.3-22.3-4.4-33.4-7.2c-13.3-3.3-26.1-8.5-39.9-9.5
				c-10.8-0.7-21.3-4-32.4-3.8c0.7,3.2,4.8,3.2,5.3,6.7c-1-0.1-1.8,0-2.5-0.2c-13.2-2.7-26.4-4.1-39.9-3.3
				c-4.9,0.3-9.6,0.1-12.9-4.4c-0.8-1.1-2.2-1.3-3.6-1.5c-6.8-1.3-13.6-2.5-20.6-2.1c-8.5,0.5-17.4,0.7-25-2.4
				c-14-5.5-28.7-3.8-42.9-6.3c-2.5-0.4-5.6-1.2-7.5,0.9c-1.6,1.8,2.3,2.5,1.6,5c-7.8-0.7-15.7,0.9-23.5-1c-2.2-0.6-3.1,0.1-3.3,2.3
				c-0.1,2.1-0.9,3.9-3.4,2.7c-4.5-2.1-9.6-3-13.3-6.5c-8.2-8-19.1-7.2-29.1-9.4c-1.2-0.2-3.4-0.1-2.9,1.6c1.7,5.2-1.8,2.6-3.6,2.6
				c-1.6,0-3.3-0.3-4.9-0.3c-10.3-0.1-20.1-4.6-30.6-3.3c-1.2,0.2-2.9-0.9-3.9-1.8c-4.1-3.5-7.9-2.9-11.4,0.5
				c-3.1,3-6.5,2.9-11.3,1.9c3.9-2.3,7-3.8,9.8-5.7c1.7-1.1,4.3-1.8,3.6-4.7c-0.7-2.5-2.8-3.2-5.2-4c-7.6-2.3-15.4-1.8-23.1-1.9
				c-1.8,0-4.1,0.6-5.2-0.9c-4.9-6.6-11.7-3.8-17.8-3.5c-3.1,0.2-6.5,0.6-7.6,5c-0.4,1.9-3,2.4-5.1,2.4c-2.6,0-5.3,0.1-7.9,0
				c-10.1-0.5-19.5,3.5-29.3,4.7c-1.7,0.2-5.1,0.7-3.7,3.9c1.5,3.4-0.5,3.3-2.5,3.3c-4.1,0.1-8.3,0-12.4,0.1c-1.1,0-2.5,0.1-2.9,1.4
				c-0.3,1.2,0.9,1.6,1.6,2.2c3.2,2.6,5.6,6.8,11.1,4.9c-2.6,3.1-5.2,2.2-7.7,1c-4.1-2-8.4-2.9-13-2.7c-1.7,0.1-3.6,0.2-3.9,2.3
				c-0.3,2.2,1.3,3.1,3.5,3.3c0.4,0,0.8,0.4,1.2,0.7c-3.4,2.7-7.1,1.6-9.3-2.8c-1.1-2-1.8-4.2-2.9-6.3c-0.7-1.3-1.9-2.1-3.3-1.2
				c-1.7,1.2-0.5,2.3,0.6,3.1c1.8,1.4,2.8,2.8,0.6,4.7c-2.1,1.8-1.5,3.4,0.8,4.6c2.5,1.3,4,3,4.5,6c0.9,4.7,4.1,6.1,8.8,4.4
				c0.9-0.3,1.9-0.7,2.8-0.9c0.9-0.2,2.3-0.4,2.6,0.7c0.3,1.6-1.2,1.9-2.3,1.8c-4.4-0.3-4.5,1.5-2.4,4.7c1.8,2.8-0.8,4.6-1.9,6.6
				c-1.2,2.1-3.4,2.7-5.6,2.3c-2-0.3-2.9-1.1-1.2-3.3c4.2-5.6,3.5-6.4-1.3-11.4c-4.9-5.2-9.8-10.9-11.6-18.2
				c-0.6-2.5-11.4-6.9-13.5-5.6c-0.1,0.1-0.3,0.2-0.4,0.3c-4,3.2-2.8,8.9-6.1,12.4c-0.1,0.1,0.1,0.6,0.3,0.9
				c2.8,3.4,3.7,8.7,9.4,9.2c0.9,0.1,1.8,0.8,2.6,1.3c1.2,0.8,2,1.9,1.4,3.4c-0.8,1.9-2.3,1-3.3,0.4c-12.5-7.4-27.8-5-40.5-11.7
				c-0.7-0.4-1.7-0.5-2.3,0.4c-0.7,1.1,0.1,1.9,0.9,2.4c2,1.1,4.2,1.9,6.2,3c1.3,0.7,1.7,2.1,0.7,3.4c-1.1,1.5-2.3,1.1-3.2-0.3
				c-1-1.4-2.1-3-3.9-1.9c-4.8,2.8-10.8,1.8-15.5,4.9c-1.1,0.7-2.7,1.3-2.9-0.9c-0.3-3.7-2.8-2.8-4.7-2.1
				c-7.5,2.8-15.5,4.3-21.6,10.2c-1.6,1.5-3.7,1.3-5.6,0.3c-2.2-1.2-0.7-2.7-0.2-4.2c0.9-2.8-1.2-4-3.3-4.6
				c-2.6-0.7-5.4-0.8-8.7,0.2c3,3,2.1,7,4.7,9.7c1.4,1.5-0.3,2.9-1.5,2.3c-5.8-2.8-8.6,2.7-12.8,4.2c-1.2,0.4-2.1,1.1-1.7,2.5
				c1.1,4-1.2,3.3-3.5,2.5c-3-1-5.9-2.4-9.1-1.4c-0.8,0.2-1.7,0.5-1.8,1.5c-0.2,1,0.6,1.3,1.3,1.8c1.4,1,5,0.7,3.6,3.4
				c-1.1,2.2-3.5-0.2-5.2-0.8c-2.2-0.8-4.3-1.8-6.3-2.9c-1.6-0.9-3.5-2.3-3.4-4c0.1-3.1-1.1-5.1-3.7-6.7c3.9,0,7.6,0.4,11.2,0.9
				c5.9,0.9,11.8,1.7,17.2-2.1c1.6-1.1,3-2.1,2.8-4.3c-0.2-2.3-1.8-3-3.7-3.4c-13-3.1-26.1-6.1-38.8-10.2c-3-1-7.9,1.2-8.3-4.6
				c0-0.3-0.8-0.5-1.3-0.7c-4.2-1.2-8.4-3.3-12.9-1c-2.4,1.2-5.2,1.2-7.8,0.6c-4.4-1-8.5-0.2-12.7,0.8c-5.5,1.3-10.9,2.6-16.4,4.1
				c-6.5,1.8-12.6,4.7-19.5,8.1c5.7,1.8,3.7,4.2,1.5,6.6c-0.9,1-1.9,1.8-3,2.5c-5.2,3.4-8.4,8.1-10.1,14.1c-1,3.7-3.4,6.5-8.2,4.6
				c-1.1-0.4-2.6-0.2-3.9,0c-7.2,1.1-12.5,5-16.1,11.1c-4,6.8,2.5,12.8,1.7,19.4c0,0.4,0.8,1,1.3,1.4c4.5,3.1,10.2,5.8,15.6,0.3
				c1.8-1.8,4-2.9,6.3-3.8c1-0.3,2.3-0.8,2.5,0.4c1,5.1,5.4,8.3,7,13c1.2,3.5-1.1,4.8-3.8,5.7c-2.6,0.8-5,1-4.6-3
				c0.1-0.9-0.8-1.8-1.1-2.7c-1.6-4.9-3-5.5-7.5-2.8c-3.1,1.9-4.4,4.8-4.7,8.3c-0.2,3,1.4,5.4,2.6,7.9c2,4.1,1.4,5.6-3.1,6.6
				c-3.7,0.8-7.5,1.3-11.2,2.1c-3.6,0.8-6.3,2.6-6.6,6.9c-0.3,3.7-3,5.8-6,7.3c-4.6,2.2-10.2,2.9-12.3,8.8c-0.2,0.5-1.1,0.6-1.7,1
				c-4.4,2.9-9,3.2-14-1.1c2.3,8.1,2.3,8.1-4.5,7c-1.5-0.2-3-0.2-4.4-0.2c-2.4,0.1-5,0.6-5.6,3.2c-0.6,2.8,2.1,3.4,4.1,4.1
				c6.4,2.3,10.2,6.8,12.4,13.2c2.5,7.3-1.3,15.8-7.5,16c-8.2,0.3-16.4-0.7-24.5-2.1c-6.8-1.2-11.5,2.5-10.3,9.2
				c0.9,5.1,0.6,9.9-2.2,14.3c-2.5,4-2.9,8-0.6,12.2c0.6,1.1,1,2.6,0.9,3.8c-0.6,5,2.2,4.9,5.4,3.5c2.5-1,4.7-1,6.2,1.2
				c2.6,3.9,5.1,7.4,2.4,13c-2.7,5.6-6.9,8.8-11.6,11.7c-6.9,4.2-10.3,9.9-9.9,18c0.1,2.1,0.5,4.6-1.4,6
				c-5.4,4.2-8.9,10.9-16.4,12.2c-0.7,0.1-1.7,0.7-2,1.3c-3.5,6.8-11.7,10.6-12.1,19.3c-0.1,1.4-1.4,2.2-2.5,3
				c-6.8,5.2-5.8,14.4-10.9,20.5c-0.3,0.4-0.3,1.4,0,1.9c2.4,4.2,2.4,8.8,3.2,13.4c1.7,10.2-0.5,19.2-5.6,27.8c-1,1.6-1.6,3-0.1,4.4
				c2.5,2.4,2.4,5.2,1.8,8.3c-0.8,4.3,0.5,8.5,4.1,10.4c10,5.3,15.2,13.8,18,24.2c0.6,2.1,2,3.3,3.5,4.7c7.3,6.6,16,11.1,23.6,17.2
				c3.1,2.5,6.1,2.9,9.5,0.8c7.3-4.6,15.5-4.2,23.1-2.4c5.3,1.3,9.2,0.3,13.6-1.6c2.4-1.1,5-2,7.1-3.5c5.4-4,11.4-3.7,17.6-3.5
				c5.1,0.2,8.7,2.4,11,7c3.8,7.5,3.9,7.4,12.1,6.3c1.6-0.2,3.3-0.4,4.9-0.3c4.2,0.3,8.9,4.8,9.1,9c0.3,6.3-0.1,12.7-2.9,18.4
				c-2.6,5.3-2.2,9.6,1.3,14.2c9.4,12,15.7,25.5,20.6,39.8c0.6,1.7,1.8,3.5,0.8,5.2c-2,3.3-0.7,6.1,0.7,8.9
				c1.6,3.4,2.1,6.8,1.5,10.6c-0.7,4.8-2.4,9.2-4.5,13.6c-6.9,14.2-8.5,28.3,0.1,42.5c2.7,4.5,4.3,9.6,6.7,14.3
				c3.5,6.8,5.1,13.8,4.6,21.5c-0.3,4.2,0.2,8.6,2.4,12.5c5.2,9.2,9.3,18.9,13.7,28.5c1.4-9.5,9.5-16.8,19.4-16.8
				c10.8,0,19.6,8.8,19.6,19.6c0,7.7-4.4,14.3-10.9,17.5c2.3-0.1,4.6,0,7,0.6c1.9,0.4,3.6,0.1,5.2-1c2.4-1.7,5.1-2.3,8-2.3
				c1.9,0,3.6-0.3,5-1.7c5-4.7,10.6-8.9,14.8-14.5c3.8-5,7.1-10.5,12-14.4c5.1-4.1,7.4-9.9,7.3-15.6c-0.2-7.7,3.4-11.6,9.6-14.3
				c4-1.7,5.9-4.6,6.8-8.9c1.4-6.3-0.4-12.1-1.9-18c-0.7-2.5-1.4-5.1,0.7-7c7.4-6.6,13.1-15.1,23.1-19c5-1.9,10.1-5.6,10.4-11.6
				c0.6-13,1.6-26.1-3.6-38.6c-2.5-6-3.4-12.4-4.6-18.7c-0.5-2.5-0.3-4.9,0.5-7.3c3.1-9.8,7.2-18.9,14.4-26.7
				c9.1-9.8,17.2-20.5,28.1-28.4c1.2-0.8,2.1-2.1,2.8-3.4c5.8-9.3,11.7-18.4,17.1-27.9c4.8-8.6,8.9-17.7,8.5-28
				c-0.1-3.3-1.4-4.5-4.2-2.7c-2.5,1.6-5.3,2-8,2.1c-7.7,0.3-14.8,3.1-22.1,5.3c-6.5,2-11.3-1.2-11.4-8.1c0-2.1-0.8-3.4-2-4.8
				c-6.7-8.4-14.8-15.6-22.3-23.2c-1.6-1.6-3.4-3.2-3.9-5.6c-2.1-10.1-12.3-17.2-11-28.7c0-0.3-0.2-0.6-0.4-0.9
				c-7.9-12.4-14.5-25.6-20.1-39.2c-0.6-1.5-3-3.1-0.8-4.7c1.8-1.3,4.2-0.9,6,0.5c1.2,0.9,2.2,2,3.2,3.1
				c8.1,8.5,12.2,19.6,19.3,28.7c0.6,0.8,0.7,2.2,0.8,3.3c0.3,7.2,3.7,12.5,9.3,16.7c1.7,1.3,3.6,2.6,4.1,4.8
				c1.2,4.8,4.3,8.1,7.6,11.3c1.9,1.8,3.5,3.9,3.3,6.7c-2.1,0.8-3.3-3.2-4.8-1c-1.4,2,0.9,3.6,2.3,4.9c4.5,4.1,5.3,9.8,6.9,15.1
				c2.4,8,8.3,9.9,14.8,4.4c1.8-1.6,3.6-2.1,5.9-2.1c2.5,0.1,4.7-1.1,7.1-1.7c6.2-1.6,10.6-6.5,16.5-8.7c4.3-1.6,9.4-2.7,10.9-8.3
				c0.2-0.6,1.2-1.1,1.9-1.4c5.9-2.4,12.2-3,16.8-9.1c3.6-4.6,10.3-6.7,10.9-13.8c0.1-1.2,1.1-2,2.4-2.1c1.3-0.1,2.4-0.7,2.3-2.1
				c-0.3-3.7,2.1-6.1,3.8-8.9c0.9-1.6,2.5-3.6,1-4.9c-3.5-3.1-6-7.5-11.2-8.5c-6.3-1.2-8.9-4.4-9.7-10.6c-0.2-1.6,0.8-3.8-1-4.5
				c-1.7-0.7-2.5,1.7-3.8,2.6c-5.3,3.6-8.9,9.9-16.3,10.5c-3.6,0.3-5.7-0.6-6.3-4.4c-0.3-2.4-0.4-5-2.2-7c-1.1-1.3-2.2-2.5-3.4-0.4
				c-2.5,4.3-3.9,0.8-4.5-1c-2.1-6.1-5.7-11-10.1-15.7c-3.5-3.7-2.4-8.5,1.7-11c3.7-2.3,7.3-1.1,9.8,3.1c3,5.1,5.2,10.9,10.8,13.8
				c7.1,3.7,13.7,10.7,22.8,3.6c2.2-1.7,5.6-0.6,6.1,2.8c0.6,3.8,3.1,4.8,6.1,5.4c12.3,2.4,24.7,5.1,37.3,3.9
				c8.2-0.8,14.9,1.1,19.8,8.1c0.8,1.2,2.1,2.1,3.2,3.1c3.1,2.6,9.2,2.4,7,9.6c-0.9,2.9,3.9,4.9,6.5,6.9c3.6,2.7,8.4,1.2,10.2-2.9
				c0.5-1.2-0.1-3.7,1.9-3.4c2,0.3,1.3,2.7,1.4,4.3c1,14.8,5,29,10.9,42.5c6,13.7,12.7,27.2,17.2,41.6c0.8,2.7,2.6,4.1,5.2,4.7
				c2.9,0.6,4.2-1.5,5.4-3.5c1.2-2,2.4-4.2,5.3-3.3c3.2,0.9,3.6,3.4,3.7,6.2c0.1,3.1,0.6,6.2,0.9,9.4c0.2,2.3,1.3,4.1,3.6,4.9
				c2.7,1,3.9-1.2,5.3-2.7c0.9-0.9,1.5-2.2,2-3.4c2.7-7.2-2.2-11.4-6.4-15.8c-1.3-1.4-2.8-3-5-1c-0.9,0.8-1.9,0.5-2.6-0.3
				c-0.7-0.8-1.1-2.3-0.5-2.7c4.3-3.3,2.4-8.2,3.1-12.3c1.2-7.1,1.9-14.4-0.7-21.5c-1.1-3.1,0.9-4.6,3.4-5.6
				c2.4-0.9,4.5-1.8,5.9-4.2c5-8.8,15.3-13,19.9-22.3c0.2-0.5,1.1-0.7,1.7-0.9c3.6-1.2,5.2-3.5,5.2-7.4c0-4,2.7-5.4,6.5-4.6
				c6.2,1.2,12,0.2,16.8-4.1c1.5-1.4,2.4-0.9,3.1,0.3c0.8,1.4,1.3,3,1.8,4.6c1.9,5.5,4,10.8,10.5,12.4c0.7,0.2,1.3,0.7,1.1,1.3
				c-1.2,4.1,2,5.8,4.3,8.1c2,2,2.5,4.5,2.2,7.3c-0.2,1.6-0.3,3.3-0.1,4.9c0.7,5.4,4.8,7,9.3,3.8c2-1.4,4-2.9,6-4.4
				C1390.8,424.3,1392.1,425.1,1392.8,427.6z M903.4,170c-4-4.9-1.2-6.2,2.9-6.7c3.7-0.5,5.4-3.5,4.8-6.4c-1.3-6,1.8-8.8,6.3-11.4
				c5-2.9,4.9-4.2-0.1-7.4c-5.7-3.7-6.4-8.1-2.2-13.5c2.8-3.7,5.8-7.1,10.8-8c2.9-0.6,4.5-2.9,5.3-5.9c1.2-5,10.5-8.3,14.6-5.4
				c1.9,1.4,0.6,2.5-0.6,3.5c-3.4,2.9-6.6,6-10.8,7.9c-3,1.3-4.2,3.5-4,6.6c0.2,3.3,0.1,6.6,0.4,9.9c0.5,5.1,6.4,8,12.4,6.4
				c6.1-1.6,12.4-1.6,18.5-3.3c1.9-0.5,5.4-0.6,5.5,2.5c0.1,2.9-2.9,4-5.5,3.7c-5.1-0.6-10.2-0.9-15.1,0.9c-1.5,0.6-3.5,0.7-4.1,2.4
				c-0.8,2.2,1.5,2.7,2.7,3.6c2,1.5,2.5,3.4,1.7,5.7c-0.9,2.5-2.4,3.8-4.7,1.5c-2.3-2.2-4.8-4.1-7.8-1.7c-2.8,2.3-3.1,5.8-2.4,9.1
				c0.6,2.6,2.3,5.3-1.3,6.7c-3.6,1.4-6.9,6.2-11.3,1.2c-1.6-1.8-3.6-1.1-5.5-0.4c-2.9,1.2-5.8,2.4-8.6,3.6
				c-3.3,1.5-6.5,3.6-9.2-1.2c-1-1.7-3-0.5-4.4,0.4c-1.6,1-3,2.7-5.3,1.4C892.2,166.5,892.2,166.5,903.4,170z M919.3,210.7
				c0,3.4-2.7,6.1-6.1,6.1s-6.1-2.7-6.1-6.1s2.7-6.1,6.1-6.1S919.3,207.3,919.3,210.7z M840.8,207.5c8.2,0,14.9,6.7,14.9,14.9
				s-6.7,14.9-14.9,14.9s-14.9-6.7-14.9-14.9S832.6,207.5,840.8,207.5z M793.5,413.6c-10.8,0-19.6-8.8-19.6-19.6s8.8-19.6,19.6-19.6
				c10.8,0,19.6,8.8,19.6,19.6S804.4,413.6,793.5,413.6z M928.4,560.5c-15.6,0-28.2-12.7-28.2-28.2c0-15.6,12.7-28.2,28.2-28.2
				c15.6,0,28.2,12.7,28.2,28.2C956.6,547.8,944,560.5,928.4,560.5z M943.8,378.6c-10.8,0-19.6-8.8-19.6-19.6
				c0-10.8,8.8-19.6,19.6-19.6c10.8,0,19.6,8.8,19.6,19.6C963.4,369.8,954.6,378.6,943.8,378.6z M1026.6,441.8
				c0,15.6-12.7,28.2-28.2,28.2s-28.2-12.7-28.2-28.2s12.7-28.2,28.2-28.2S1026.6,426.2,1026.6,441.8z M1024.1,300.9
				c-0.6,8.6-5,16-9,23.3c-1.3,2.4-4,3.5-6.8,3.2c-7.9-0.8-15.7-1.2-23.5,1.2c-3.6,1.1-7.1-1-10.5-2.2c-8.5-3.1-16.6-7.4-25.3-10.1
				c-5.2-1.6-9,0.6-12.7,3.3c-3,2.3-5.1,5.3-2.8,9.4c0.7,1.3,0.2,2.6-1,3.5c-1.5,1.1-3.1,1.4-4.6,0.2c-3.4-2.8-7.4-3.4-11.5-4
				c-3.4-0.4-6-1.8-8.4-4.5c-3.7-4.3-8.4-7.5-14.6-7.3c-6.1,0.3-8.9-5.3-13.4-7.7c-1.4-0.8-0.4-2.4,0.3-3.5c2.4-4.1,3-7.8,0.5-12.5
				c-3.4-6.4-3.8-6.6-11.8-6.3c-13.3,0.6-26,5.1-39.4,5.4c-6,0.1-11.6,2.5-15.4,7.9c-0.4,0.6-1.3,1.4-2,1.4
				c-5.9,0.1-11.9,0.6-17.5-1.3c-3.8-1.4-2.1-4.3-0.2-6.3c2.2-2.1,5.1-3.2,8.1-3.5c8.5-0.9,14.5-5.5,19.3-12.3
				c1.6-2.2,0.3-4.8,1.7-7.1c3.1-4.9,5.9-9.9,11.9-12c3.8-1.4,6.4-3.7,6.1-8.5c-0.2-3.1,4.9-6.1,8.9-4.3c7.9,3.7,12.8-1.4,18.3-4.8
				c4.2-2.6,6.2-2.6,8.4,1.5c4.9,8.8,11.5,15.5,21.2,19.2c3.4,1.2,6.2,3.8,8.6,6.6c1.9,2.3,4.1,4.8,1.9,8c-2.2,3.1-4.4,6.2-9.2,5
				c-2.7-0.6-7.1-1.9-8,1.2c-1,3.4,3.9,2.9,6.1,4.3c1.4,0.9,2.9,1.6,4.4,2.2c2.7,1.1,4.7,0.5,5-2.6c0.3-2.7,1.6-3.9,4.2-4.8
				c3.7-1.3,6-7.4,4.4-10.7c-0.8-1.6-1.6-2.9-0.1-4.5c1.4-1.4,2.9-1.1,4.6-0.5c1.2,0.4,2.8,2.2,3.6-0.1c0.5-1.5-0.9-3-2.3-3.3
				c-6-1.6-10.8-5.4-16.2-8.3c-7-3.8-10.6-10.6-14.4-17.1c-1.1-1.9-0.2-4.2,1.3-5.9c1.7-2,3.2-2.3,4.6,0.2
				c5.7,10.8,15.3,17,25.7,22.4c4.4,2.3,9.1,4.8,7.5,10.8c-0.4,5.2,3.1,11.5,7.5,13.2c2.7,1.1,4.5,2.5,4.8,5.6
				c0.2,1.8,1,3.6,2.3,4.8c1.9,1.8,4.4,2.4,6,0c1.6-2.4,3.6-4.1,5.7-6c2.9-2.5,0.5-4.8-1.4-6.6c-1.8-1.7-4-3-4.6-5.6
				c-0.2-1-0.5-2.1,0.3-2.8c1-0.9,1.9-0.2,2.6,0.5c1.8,1.8,2.9,1.1,4.4-0.6c4.2-4.7,8-3.7,9.9,2.5c1.7,5.5,3.2,11.1,6,16.2
				c0.6,1.2,0.9,2.8,2.4,3c4.7,0.6,8.6,3,12.7,5.2c1.5,0.8,2.9,0.2,3.9-1.1c2.6-3.2,5.8-2.5,8.3-0.5c4,3.3,7.5,3.5,11.6,0.5
				c2.6-1.9,6.2-3.7,8.7-2C1023.9,293.2,1024.4,297.4,1024.1,300.9z M1048.5,257.4c-1.6,2.3-3.3,5-6.5,4.7
				c-8.5-0.7-17.2-0.4-24.9-5.3c-2.8-1.8-5.8-2.1-9.1-1.3c-5.3,1.3-10.6,2.3-15.6,4.8c-3.4,1.7-14.9-1.5-16.8-4.7
				c-1.3-2.4-1.1-5.7-0.2-7.5c3.7-7.2,6.7-15,13-20.5c1.8-1.6,11.7,0.1,11,1.4c-2.6,5,2.7,5.9,4.1,8.7c0.7,1.5,2.4,2.4,3.7,1.1
				c2.5-2.5,6-2.4,9-4.3c-1-2.4-4.9-1.9-3.9-4.9c0.9-2.7,2.7-4.9,5.8-5.6c0.5-0.1,1-0.3,1.4-0.4c2.7-0.5,6.7-3.1,7.7-1
				c1.1,2.3-1.5,6.2-3.8,8.2c-3.9,3.4-2.8,4.9,1.3,6.3c9.3,3,15.5,10.5,22.6,16.5C1048.7,254.5,1049.5,255.9,1048.5,257.4z
				 M1070.8,183.3c-13.2,0-24-10.8-24-24c0-13.2,10.8-24,24-24s24,10.8,24,24C1094.8,172.5,1084.1,183.3,1070.8,183.3z
				 M1118.1,289.6c-2.9,0.5-5.9,0.9-8.4,1.3c-1.9,0.1-3.4-0.2-4.6-1.1c-3.2-2.3-6.2-4.4-10.2-5.4c-3.7-0.9-3.7-4.5-1.2-7.1
				c3-3.1,0.6-7.7,3.6-10.8c0.7-0.7-1.1-2.2-2.1-3c-4.2-3.7-8.3-7.5-12.5-11.2c-1.4-1.2-2.7-2.8-2.7-4.6c0.1-3.1-0.9-5.1-3.3-7.2
				c-2-1.6-1.2-4.1,0.7-5.6c5.7-4.2,11.2-8.6,17.3-12c3.4-1.9,6.8,1.5,9.8,3.2c1.9,1.1,0.7,3.3,0.4,5c-0.4,1.9-1.3,3-3.4,2.7
				c-3.6-0.6-5.3,1.9-7,4.4c-1.2,1.6-0.8,2.7,0.5,3.8c2.6,2.3,5,4.8,7.8,6.8c3,2.2,5,4.4,5.1,8.4c0.1,2.8,1.8,3.5,3.7,1
				c1.1-1.5,2.1-2.7,3.9-1.1c1.7,1.5,3.8,3.2,3.3,5.7c-0.4,2.1-2.6,1.5-4.2,1.5c-1.2,0-2.8-0.8-3.6,0.8c-0.9,1.7,0.1,3.2,1.1,4.5
				c0.3,0.4,0.6,0.9,1,1.1c7.7,3,5.8,10.2,7.2,16C1121.1,288.7,1119.6,289.3,1118.1,289.6z M1280.1,66.3c13.2,0,24,10.8,24,24
				c0,13.2-10.8,24-24,24s-24-10.8-24-24C1256.1,77,1266.9,66.3,1280.1,66.3z M1229.8,256.6c0-13.2,10.8-24,24-24s24,10.8,24,24
				c0,13.2-10.8,24-24,24S1229.8,269.9,1229.8,256.6z M1280.1,427.5c-18.5,0-33.6-15.1-33.6-33.6c0-18.5,15.1-33.6,33.6-33.6
				c18.5,0,33.6,15.1,33.6,33.6C1313.7,412.5,1298.7,427.5,1280.1,427.5z M1434.8,135.3c13.2,0,24,10.8,24,24c0,13.2-10.8,24-24,24
				s-24-10.8-24-24C1410.8,146.1,1421.6,135.3,1434.8,135.3z M1362.8,295.1c0-13.2,10.8-24,24-24s24,10.8,24,24
				c0,13.2-10.8,24-24,24S1362.8,308.4,1362.8,295.1z"/>
			<path class="st1" d="M605.5,574c-4.1-0.4-6.7-3.2-9.5-5.7c-4.3-3.9-8.8-7.5-13.2-11.2c-1.2-1-2.6-2.1-4-1.5
				c-7.6,3.3-15-0.5-22.5-0.6c-1.9,0-2.8-0.8-2.8-2.6c0.1-3.1-2-4.2-4.4-5.2c-2.9-1.2-5.8-2.4-8.6-3.8c-2.8-1.5-5.4-2.4-8.1,0.4
				c-1.6,1.7-2.5,1-2.7-1.2c-0.1-0.8,0-2-0.5-2.3c-5.1-3.2-6.6-8.4-9-13.6c-1.7-3.8-3.8-7.3-4.7-11.5c-1.7-7.8-11.3-15.7-19.3-15.8
				c-4,0-7.9-0.3-11.7-1.4c-11.6-3.5-16.2-16-26.8-20.7c-0.1-0.1-0.2-0.3-0.2-0.4c-1-3.3-3.6-5-6.5-6.4c-2.6-1.2-4.5-2.6-0.1-6.3
				c-5.9,1.9-10.8,0.6-14.7,3.9c-1.4,1.2-2.8,0.6-4.1-0.2c-3.1-1.8-6.5-2.1-10-2.3c-6.3-0.4-12.5-1.4-16.3-7.6
				c-0.6-1-1.8-1.5-2.3-0.2c-2.1,4.8-8.7,6.6-8.7,12.8c0,0.8-0.1,1.9-1.2,1.8c-1.1-0.1-2.1-1.2-1.7-2c1.8-3.4,1.5-7.4,3-10.8
				c0.6-1.2,2.8-2.1,1.2-3.7c-1.7-1.7-3.4-0.2-4.8,0.9c-3.4,2.7-7.2,4.9-11.4,5.9c-5.9,1.4-8.7,4.9-10.3,10.6
				c-2.1,7.3-7.9,9.2-13,4.3c-5.3-5.1-10.6-2.7-16.1-1.3c-1.9,0.5-3.5,1.6-5.7,0.8c-5.3-2-10.2-9.2-10.6-15
				c-0.4-5.9,1.5-11.4,2.8-17c2.3-10-0.9-13.8-11.1-13.8c-4.6,0-9.3-0.1-13.9,0c-3.7,0.1-4.1-1.3-2.7-4.5c4-9.6,7.7-19.3,11.5-29
				c0.4-1.1,1-2-0.3-3c-5.1-3.6-17.7-0.6-18.9,5.2c-1.7,8.1-6.7,11-13.9,12.2c-2,0.3-3.9,0.8-5.8,1.4c-5,1.8-8.9-0.1-11.8-3.8
				c-2.9-3.6-5.6-7.3-6.8-12c-1-4-2.7-7.7-1.2-12c3.2-9,6.9-17.9,7.7-27.6c0.2-2.5,1.4-4.3,3.6-5.6c6.5-4.2,13.1-8.3,19.5-12.8
				c4.8-3.4,9.9-2.7,14.5-0.4c4.3,2.2,7.5,1.6,10.8-1.4c1.7-1.5,3.2-4.2,5.6-3.7c6.2,1.4,13.3-2.8,18.9,2.9c1.1,1.1,2.9,0.7,4.3,0.1
				c3.2-1.4,5.1-0.1,7.1,2.4c2.3,2.9,2.5,5.9,1.8,9.3c-1.4,6.7,0.9,12.4,5.5,17.2c1.2,1.3,3.3,2.8,4.3,0.1c1.7-4.4,4.3-8.6,3.2-13.8
				c-0.9-4.4-1.4-8.8-2.3-13.2c-0.7-3.8,0-6.9,2.4-10.2c7.4-10.2,17.6-16.6,28-23.1c6.8-4.2,14-8.7,13-18.7c-0.2-1.8,0.8-3.2,2.4-4
				c1.6-0.7,2.5-2.1,3.2-3.6c1.2-2.8,2.7-5.2,6.2-5.7c1.7-0.3,2.9-1.7,3.7-3.1c2.8-4.8,7.2-7.1,12.4-8.3c3.8-1,7.7-2.1,11.5-3.1
				c1.8-0.5,4-1.2,3.3-3.5c-1.9-5.8,2.2-9.7,5.5-11.4c8.6-4.5,17.8-8.1,27.6-9.8c-0.9,1.1-1.9,1.8-3,2.6c-1.6,1.1-3,2.4-2,4.5
				c1,2.1,3,1.6,4.8,1.2c1-0.2,2-0.4,2.8-0.9c8.6-4.7,18.5-6.3,26.8-11.8c1.2-0.8,2.2-1.4,2-3c-0.2-1.3,0.1-2.9-1.3-3.6
				c-1.4-0.7-2.5,0.3-3.5,1.2c-1.4,1.2-2.6,2.6-3.9,3.8c-3.1,2.6-9.4,2.4-12.4-0.4c-3.6-3.4-3.6-6.7-0.1-10.2c1-1,1.6-2.5,2.3-3.8
				c2.2-4.4,0.2-7.3-4.9-6.8c-1.9,0.2-3.8,1-5.7,1.7c-4,1.6-8,3.3-12.3,5.1c0.5-2.1,1.9-2.5,2.8-3.5c2.6-2.9,7.3-2.2,9.6-4.7
				c4.4-4.7,9.6-4.5,15.1-4.4c4.1,0.1,8.3,0,12.4,0c8.6,0,16.7-1.3,24.1-6.1c1.7-1.1,3.5-2.5,5.8-2.3c0.4,0.5,0.8,0.9,1.1,1.4
				c-4.6,4.3-9.4,8.3-13.6,12.9c-2.5,2.7-7.5,5.9-6.3,8.7c1.4,3.3,6.9,0.9,10.5,1.4c0.8,0.1,1.7-0.1,2.5,0.1c4,1,8.5,0.9,11.7,4.3
				c1.2,1.3,2.3,0.5,3.6-0.1c5.1-2.5,2.9-6.9,3.2-10.8c0.3-3.8-0.1-5.8-4.4-5.4c-1.8,0.1-2.9-0.8-3.9-2.4c-3.3-5.3,0.2-9.7,2.4-13.6
				c3.5-6.4,1.6-15.8-5.1-19.2c-3.7-1.8-6.3-4.8-8.7-8c-1.6-2.1,0.9-4.3,1.1-6.5c0.1-1,0.1-2-0.1-2.9c-0.8-4.2-1.7-8.4-2.3-12.6
				c-0.6-3.6-1.9-4.3-4.8-1.8c-4.1,3.6-8.5,6.7-13.6,9c-2.3,1-4.2,1.4-6.4-0.3c-2.2-1.7-4.2-4.4-2.7-6.3c6.9-8.6-3.2-10-5.9-14.4
				c-1-1.7-3.1-3.9-5.8-3c-3.6,1.2-7.2,0.7-10.7,0.1c-5.1-1-8.9,0.2-11.1,5.6c-2.6,6.5-5.1,13.2-11.7,17.2c-1.9,1.1-0.8,3,0.4,4.2
				c1.8,1.8,1.4,3.6,0.8,5.9c-2.5,8.3-10.2,10.5-16.6,12.7c-6.3,2.1-8.8,5.4-9.7,11.2c-0.2,1.6-0.8,3.2-1.2,4.8
				c-1.2,4.9-5.6,7-9.4,7.8c-3.3,0.7-2.2-4.3-4-6.3c-0.4-0.4-0.4-1.2-0.6-1.8c1.4-1.3,5.9-1.1,4.1-2.6c-4.9-4-1-6.6,0.3-9.5
				c1.4-3.1,0.2-3.9-2.5-3.9c-3.1-0.1-6.3,0.2-9-1.9c-4.3-3.2-9.7-4.4-13.6-8.4c-1.8-1.8-4.6-2.7-7.3-2.6c-4.1,0.2-5.2-2.1-4.8-5.7
				c0.3-2.2,1.2-4.5-2.3-5.4c-2.4-0.6-0.7-2,0.1-2.8c3.8-3.9,7.5-7.8,12.6-10.2c7.4-3.3,14.4-7.3,21.8-10.7c3.2-1.5,5-5.3,8.6-5.6
				c4.3-0.4,7.8-2.5,11.6-4c4.9-1.9,8.8-5.6,14-7.2c-3.8,3.5-6.8,7.7-11.4,10.2c2.8,4.8,6.4,5.2,10.2,1.9c3.5-3,6.5-3.2,10.1-0.4
				c1.9,1.5,4.6,1.9,6.3-0.3c1.8-2.5-0.3-4.2-2.2-5.6c-2.8-2.1-5.6-4.1-8.3-6.2c-0.9-0.7-1.9-1.7-0.8-2.9c0.7-0.9,1.8-0.5,2.8-0.1
				c1.4,0.5,2.9,2.6,3.9,1.6c3.8-3.6,9.1-2.5,13.2-5.1c4.6-3,8.5-9.5,8.8-15.3c0.1-1.5,1.1-1.5,2-1.5c6.1-0.3,12.2-0.1,18.3-0.6
				c3.4-0.3,7.3,2.5,7.7,5.8c0.4,3.5-3.9,2.2-6.2,2.9c-0.6,0.2-1.3,0.3-1.9,0.4c-1.9,0.4-3.5,1.1-4.1,3.1c-0.4,1.1,0,1.9,1.1,2.4
				c1.9,0.8,3.9,1.2,5.7-0.1c1.6-1.2,2.9-2.8,4.5-3.8c2.3-1.5,5.1-2.3,7,0.6c1.8,2.8,0,4.5-2.6,5.7c-3.1,1.5-7.4,2.6-8.8,5.2
				c-2.8,5.3-6.7,4.9-11.2,4.4c-3.1-0.3-6.3-0.7-9.2,1.2c-1.1,0.7-2.3,1.6-1.9,3.2c0.4,1.4,1.6,2,3,2.3c1.5,0.2,2.9-0.3,4.3-0.9
				c7.6-3.2,10-2.3,14.1,4.9c1.1,1.8,1.6,4.1,3.9,4.9c4.9,1.6,9.8,3,14.7,4.5c1.1,0.3,2.4,0.7,3.1-0.5c0.7-1.2,0.1-2.2-0.6-3.2
				c-1.1-1.7-3.3-2.8-2.9-5.7c3.4,0.1,5,3.1,7.5,4.3c1.3,0.6,2.5,1.8,4.1,1.1c4.6-2.2,6-9.2,2.6-13.2c-2.3-2.7-3.7-5.5-0.4-8.1
				c3.5-2.7,4.4,1.3,5.9,3c1.8,2,3.5,5,6.3,3.8c4.8-2.1,9.3-5,13.9-7.7c1.3-0.8,0.4-1.7-0.3-2.4c-3.5-3.3-6.7-6.7-12-7.3
				c-4.4-0.5-4.9-2-2.5-5.8c1.7-2.7,2.5-5.5-0.5-7.4c-3.6-2.4-7.4-5.2-11.5-6.1c-4.2-1-6.7-3.1-9.1-6.2c-1.5-2-2.9-4.5-5.5-4.7
				c-7.3-0.4-14.7-0.8-21.9-0.3c-4.7,0.3-9.5,1.6-13.2,5.2c-0.7,0.7-1.7,1.4-2.5,0.3c-0.6-1,0.2-1.8,0.8-2.6c0.9-1.2,3-1.4,3.1-3.8
				c-9.7,0.2-17.2,4.5-24,10.6c-1.8,1.6-2.5,3.4-2.1,5.7c0.5,2.7,2.8,2.8,4.9,3.3c1.6,0.4,4.3-0.6,4.6,1.8c0.3,2.1-1,4.2-2.8,5.5
				c-4.1,2.8-8.2,5.6-12.4,8.2c-1.3,0.8-3.2,2-4.5,0.4c-1.5-1.7,0.4-2.9,1.4-4.1c2.9-3.6,2.2-6.1-2.3-7.3c-2-0.5-2.7-1.6-2.8-3.5
				c-0.1-2.3,0-4.7-0.4-6.9c-0.8-3.5,0.9-5.4,3.9-6.4c2.2-0.7,4.5-1.1,6.8-1.4c5.2-0.9,9-4.1,13.1-7.1c-5.3-0.5-10.3-0.6-15.4-0.5
				c-2.1,0-3.7,1.3-5,2.9c-4.9,6-11.3,10.1-17.8,14c-1.8,1.1-4.2,1.9-4.8,4.1c-1.4,4.5-4.3,4.3-8.1,3.8c-4.7-0.6-10.4,0.6-12.1,4.8
				c-1.9,4.8-4.6,4.7-8.3,4.7c-4.5,0-8.9,0-13.4,0c-2.2,0-4.6-0.1-5.9-2c-2.9-4.1-6.5-3.3-10.6-2.3c-3.9,0.9-6.4,4.4-9.9,5
				c-6.6,1.1-13.5,0.9-20.2,1c-1.1,0-2.7,0-3.3-1.4c0.7-1.6,3.7-1.3,3.1-3.5c-0.4-1.7-2.5-2-4-2.5c-0.6-0.2-1.3-0.3-1.9-0.5
				c-9.4-3.1-19.7-1.9-29-5.6c-0.6-0.2-1.6,0.1-2.4,0.5c-2.5,1.3-4.6,1.5-6-1.7c-0.7-1.5-2.1-1.2-3.5-0.6
				c-7.1,2.9-14.7,3.7-22.1,5.4c-1.6,0.4-3.3,0.6-4.9-0.1c-2.7-1.2-4.9-0.3-7.6,0.4c-5.3,1.4-10.9,3.8-16.3,0.7
				c-3-1.7-6.1-2.5-9.2-3.5c-5.1-1.7-10.2,0.6-15.2-0.3c-12.3-2.2-25-2.8-36.8-7.5c-1.5-0.6-2.9-0.4-4.4-0.1
				c-9.5,2-19.2,3.3-28.4,6.7c-8.8,3.3-17.9,5.9-27.2,7.6c-6.4,1.1-6.5,1.5-5.3,7.8c0.3,1.7,1.3,3.7-0.9,4.8c-2,0.9-4.2,1.4-6-0.3
				c-0.9-0.8-1.4-1.8-2.8-1.4c-6.5,1.8-13.1,3.6-19.6,5.5c-2.4,0.7-2.5,2.9-2.4,4.9c0.1,2.1,2,1.8,3.4,1.9c3,0.3,5.9,0.6,8.9,0.9
				c1.4,0.2,3.7-1.5,4.1,1.1c0.3,2.3-1.2,4.7-3.6,4.5c-6.7-0.6-12.5,2.5-18.8,3.6c-9.2,1.5-17.4,5.1-22.6,13.4
				c-1,1.5-2.1,3.3-1.1,5.1c1,1.8,2.9,0.8,4.5,0.6c2.2-0.3,3,0.4,1.6,2.4c-2.5,3.6-0.4,4.1,2.7,4.2c3,0,6.1-0.5,9.5,2
				c-10.8,5.5-21.7,8.8-32.2,13c-10.5,4.2-21.2,7.8-31.9,11.7c7.3,0.8,14-1.2,20.6-2.9c12.9-3.3,26.1-5.8,37.8-13
				c3.9-2.4,8.3-3.6,13-4.3c6.5-0.9,13-2.3,18.7-6.2c1.2-0.8,3.1-1.6,2.3-3.3c-1.7-3.5,0.7-3.7,2.9-3.8c3.9,0,7.4-1.6,10.9-3
				c1.5-0.6,3.1-1.6,5.8-1.1c-3.5,2.5-6.4,4.6-10.4,7.5c10.4-0.9,18.9-2.8,27-6.7c2.6-1.2,5.1-1.7,7.5-0.2c5.3,3.1,11.2,3.7,17,4.9
				c7.3,1.5,10.7,6.3,9.5,13.5c-0.7,4-0.5,7.9-0.6,11.9c-0.1,2.9,0.7,4.8,4.1,4.8c2,0,3.9,0.6,3.4,3.1c-1.1,6.6-0.3,13.2-0.6,19.8
				c-0.1,1.8-0.2,3.2-2.7,3.1c-4.2-0.1-5.6,2.4-3.2,5.9c1.5,2.1,3.6,3.9,5.4,5.8c1.1,1.2,2.5,2.4,1.5,4.3c-4.8,9-7.2,19.1-15.1,26.5
				c-3.1,2.9-6.8,6-8,10.5c-1.4,5.4-3.8,10.1-7.9,14c-0.9,0.8-1.3,1.9-1.3,3.1c-0.5,10.2,1.2,20.3,2.1,30.5
				c0.4,5.3,2.8,8.4,7.3,10.7c4.6,2.3,6.7,6.2,7.3,11.5c1,8.1-0.3,16.6,4.4,24.1c0.9,1.4,0.5,2.9-1,3.8c-2.3,1.5-1.8,3.1-0.5,5
				c1.6,2.3,3.1,4.6,5.7,6c2.3,1.3,4.8,3.5,4,6.2c-1.3,4.5,0.7,7.1,3.7,9.7c1.4,1.3,2.2,3.3,3.4,4.8c1,1.2,0.9,4.3,3.5,3.1
				c2.6-1.2,2.1-3.7,1-6c-1.7-3.6-4-6.9-4.7-10.9c-1.8-9.7-6.2-18.4-9.6-27.6c-1.2-3.2-1.1-6-0.4-9.2c0.5-2,1.3-3.4,3.6-3.3
				c2.1,0.1,3.9,0.9,4.4,3.2c0.4,1.8,0.9,3.6,1,5.4c0.4,5.6,1.9,10.6,5.6,15c3.4,4,6.8,8.3,5.1,14.3c-0.4,1.6,1,2.7,1.9,3.8
				c4.5,5.3,8.9,10.6,13.4,15.9c3.7,4.3,3.7,9,1.3,13.8c-2.3,4.5-1.2,8,2.6,10.8c5.1,3.8,10.8,6.9,16.1,10.4c6,4,12.2,7.2,18.6,10.3
				c4,2,8.5,4.2,12.8,2.3c8.5-3.6,13.8,0.1,18.5,6.6c2.7,3.7,6.2,6,10.9,7.1c5.6,1.2,11.1,3.3,16.6,4.9c1.2,0.4,2.3,0.9,2.6,2.1
				c1.4,5.8,7.9,9.2,7.2,15.9c-0.1,1.2,1.2,1.8,2.1,2.6c2.1,1.8,4.2,3.7,6.3,5.6c3.5,3.3,6.3,7.7,12.2,7.2c1.9-0.1,3.5,1.6,5,3
				c1.4,1.3,2.5,3.3,5,2.5c2.6-0.8,2.1-2.9,2.1-4.9c0-2.9,1.9-4.5,4.6-5c2.5-0.5,4.5,0.4,5.7,2.9c3.8,8.1,6.2,16.4,5.5,25.6
				c-0.5,5.8-2.3,10.2-6.7,13.7c-1.4,1.1-3.1,2.2-3.2,4.2c-0.2,2.8-1.3,4.6-4,5.7c-1.9,0.7-2.4,2.6-3,4.3c-1.1,2.9-2.1,5.9-3.5,8.7
				c-2,3.9-1.5,7.6,1.4,10.5c2.6,2.6,2.1,4.3-0.2,6.5c-3.6,3.3-4.2,7.1-2.9,12.1c1.4,5.7,6.4,8.8,8.5,13.5
				c6.7,14.4,17,26.8,23.4,41.4c3.3,7.6,7.6,14.4,15.2,18.9c6.5,3.9,12.4,8.8,18.6,13.2c2.4,1.7,4,3.8,4.6,6.8
				c2.3,12.2,4.8,24.2,4.5,36.8c-0.3,11.5,0.5,23.1,0.9,34.6c0.1,2,0.4,4,1.1,5.8c5,14,1.6,28.1,0.7,42.1c-0.2,2.9-0.3,5.4,1.1,8.1
				c1.8,3.3,4.2,6.5,3.9,10.6c-0.4,6.4,1.1,12.5,3.1,18.4c0.5,1.6,0.5,4.3,2.9,3.9c2.7-0.5,1.4-2.8,1-4.4c-0.2-0.8-0.4-1.7,0.6-2.1
				c1-0.3,1.6,0.4,1.9,1.2c0.7,2.5,1.3,5.1,1.9,7.7c0.6,2.6,1.5,5.2-2.7,5.9c-1.7,0.3-3.1,2.3-2,3.8c2.2,3,0.7,5.7,0.2,8.5
				c-0.4,2.7-0.4,4.7,3,5.6c2.9,0.8,4.6,2.9,2.5,6c-1.4,2.1-0.5,3.7,0.6,5.5c4.3,7.3,9,14.4,14.6,20.6c6.6,7.3,13,15.2,23.2,17.8
				c5.6,1.5,11.3,2.7,16.8,4.3c3.8,1.1,7.2,0.4,10.2-2c1.1-0.9,2.9-1.4,2.6-3.3c-0.3-1.5-1.8-1.9-3.1-2.2
				c-8.3-1.9-14.5-6.9-19.7-13.3c-3.2-3.9-6.5-7.8-2.6-13.2c0.6-0.8,0.5-2.2,0.5-3.4c0-2.9,0.6-5.6,2.6-7.8c2.2-2.4,2.2-4.2-0.9-6.3
				c-3.1-2.2-7.6-4.5-7-8.9c1.1-6.6,4.9-12.5,5.8-19.2c0.1-0.4,0.6-0.8,1-1.1c2.6-2.5,2-3.8-1.4-4.4c-0.9-0.1-2-0.6-2.6-1.3
				c-1.8-1.7-3.8-3.7-2.9-6.4c0.9-2.8,3.4-1.1,5.2-1.1c5.4,0,7.9-2.7,7.4-8.5c-0.4-4.1,1-6.5,5.4-6.1c4.3,0.4,8.2-1,12.1-2.2
				c5.4-1.5,8.8-14.6,4.4-17.8c-4.4-3.2-4.8-8.2-8.3-11.8c2.4-0.7,3.5,0.6,4.6,1.4c9.4,6.2,17.5,3.9,21.9-6.4
				c2.2-5.2,4.6-10.2,5.7-15.8c0.4-2.1,1-4.4,3.6-4.8c2.9-0.4,4.1-2.4,5.3-4.7c3.4-6.6,5.7-13.3,3.8-20.9c-0.9-3.6-0.4-7.1,3-9.3
				c8-5.2,15.4-11.5,25-13.9c8.5-2.1,13.6-8.4,15.5-16c3.5-14.4,7.3-28.9,5.7-44c-0.3-2.6,0.5-4.9,2-7c7.1-9.7,12.8-20.3,18.3-31.1
				c3.8-7.3,0.7-12.6-1.4-18.7C608.2,574.8,606.9,574.1,605.5,574z M376.7,193.6c15.8,0,28.7,12.9,28.7,28.7
				c0,15.8-12.9,28.7-28.7,28.7c-15.8,0-28.7-12.9-28.7-28.7C348,206.5,360.8,193.6,376.7,193.6z M308.3,310.5
				c0,10.8-8.8,19.6-19.6,19.6c-10.8,0-19.6-8.8-19.6-19.6c0-10.8,8.8-19.6,19.6-19.6C299.5,290.9,308.3,299.7,308.3,310.5z
				 M277.8,125.3c10.8,0,19.6,8.8,19.6,19.6c0,10.8-8.8,19.6-19.6,19.6s-19.6-8.8-19.6-19.6C258.2,134.1,267,125.3,277.8,125.3z
				 M136.5,129.5c-10.8,0-19.6-8.8-19.6-19.6c0-10.8,8.8-19.6,19.6-19.6s19.6,8.8,19.6,19.6C156.1,120.7,147.3,129.5,136.5,129.5z
				 M189.8,310.5c-10.8,0-19.6-8.8-19.6-19.6c0-10.8,8.8-19.6,19.6-19.6c10.8,0,19.6,8.8,19.6,19.6
				C209.4,301.7,200.6,310.5,189.8,310.5z M373.8,551.9c-10.8,0-19.6-8.8-19.6-19.6c0-10.8,8.8-19.6,19.6-19.6
				c10.8,0,19.6,8.8,19.6,19.6C393.4,543.1,384.6,551.9,373.8,551.9z M453.8,751.7c-18.5,0-33.6-15.1-33.6-33.6
				c0-18.5,15.1-33.6,33.6-33.6c18.5,0,33.6,15.1,33.6,33.6C487.4,736.6,472.3,751.7,453.8,751.7z M497.7,567.2
				c-10.8,0-19.6-8.8-19.6-19.6c0-10.8,8.8-19.6,19.6-19.6c10.8,0,19.6,8.8,19.6,19.6C517.3,558.4,508.5,567.2,497.7,567.2z"/>
			<path class="st1" d="M1695.4,689.3c-0.3-1-1.2-2.2-2.2-2.6c-3.4-1.4-4.1-4.4-3.8-7.4c0.3-3.2-0.7-5.4-2.9-7.4
				c-7.6-7.4-12.4-16.1-11.8-27.2c0.2-2.7-1.1-5.5-1.9-8.2c-0.4-1.5-1.2-3-3-2.8c-4.3,0.5-4.7-2.5-4.7-5.3c0.1-5.1-1.5-9.8-3-14.5
				c-0.3-1.1-0.5-2.5-1.9-2.6c-1.7-0.2-2,1.4-2.5,2.6c-1.5,3.2-2.1,6.6-2.7,10c-1.7,9.7-2.2,19.7-8.6,28.1c-3.4,4.4-5,5.1-9.8,2.4
				c-7.2-4.1-11.4-11.3-17.7-16.3c-1.6-1.3-1.6-3.3-0.3-4.9c2.4-3,3.7-6.6,6.6-9.2c1.6-1.4,3.4-2.9,1.7-5.4c-1.7-2.6-4-1.9-6.1-0.8
				c-3.4,1.7-6.6,1.5-9.8-0.4c-2.3-1.4-4.7-2.4-6.6-4.3c-1-1-2.1-2.5-3.8-1.6c-1.4,0.8-1,2.3-0.7,3.6c0.8,3-0.8,4.6-3.4,4.9
				c-7.3,0.8-10.5,6.2-12.4,12c-1.3,4.2-3.8,5.2-7.4,5.9c-3.4,0.7-4-2.1-5.5-4c-1.7-2.3-3.9-3.7-6.8-3.2c-3,0.6-4.4,2.7-4.7,5.7
				c-0.2,1.8-0.7,3.3-2.9,3.2c-3-0.2-4.4,1.8-5.7,4c-1.9,3.3-6.3,6.8-8.1,6.3c-6.1-1.6-6.4,2.6-7.3,5.9c-1.8,6.6-6.5,10.5-12,13.7
				c-11.8,6.8-27,5.9-37.2,16.5c-0.3,0.4-1.2,0.3-1.9,0.3c-3-0.3-3.9,1.8-4,3.9c-0.2,4-0.4,7.9-3.2,11.2c-0.9,1.1-0.5,2.5-0.1,3.8
				c0.9,2.8,0.9,5.2-2.4,6.6c-1.4,0.6-2,1.9-1.2,3.3c2.5,4.7,2.6,9.8,3.1,14.9c1,9.5,1.3,18.8-2,28c-1,2.7-2.4,5-4.6,7
				c-3.1,2.7-2.7,5.6,1.1,7.5c4.9,2.5,10,3.1,14.7,0c7.8-5.1,16.2-7.1,25.4-6.1c2.4,0.3,4.6-0.2,6.4-2.1c2.5-2.8,6-4,9.2-5.7
				c6.9-3.6,14.9-2.9,21.8-6c5.9-2.6,11.7-1.6,17.5-0.7c5.4,0.9,9.1,5.1,13.3,8.2c2.6,1.9,1.9,5.1,2.1,7.9c0.1,1.6,0.6,3,2.2,3.6
				c1.5,0.5,2.5-0.6,3.4-1.5c3.3-3.3,6.6-6.7,11.4-8.4c-0.6,5.2-6.2,6.3-7.6,10.7c1.4,0.6,2,0,2.8-0.3c1.3-0.5,2.5-3.2,4-0.9
				c1.1,1.8-0.3,3.5-2.1,4.4c-2.2,1.1-4.5,2-6.8,3c-1.4,0.6-2.5,1.3-1.5,2.9c0.9,1.5,2.3,2,3.7,0.7c0.9-0.8,1.5-1.8,2.4-2.5
				c1.3-1.1,2.3-3.5,4.4-2c1.6,1.2,2.2,3.3,1.3,5.4c-0.7,1.7-1,3.4-0.4,5.3c2.8,9,15.1,13.5,23,8.3c1.9-1.3,3.1-1.8,4.1,0.7
				c2.1,5.2,4,4.6,8.1,1.2c4-3.4,8-7.1,13.8-7.1c3.9,0,6.3-2,8.7-4.8c9.1-10.4,16-22.8,27.8-30.6c0.8-0.5,1.3-1.5,1.9-2.2
				c10.1-12.7,14.1-27.9,17.7-43.2c0.4-1.8,0.2-3.7-0.9-5.2C1700,700.2,1697.1,695.1,1695.4,689.3z M1527.1,725.6
				c-10.8,0-19.6-8.8-19.6-19.6c0-10.8,8.8-19.6,19.6-19.6s19.6,8.8,19.6,19.6C1546.7,716.8,1537.9,725.6,1527.1,725.6z
				 M1636.6,776.9c-10.8,0-19.6-8.8-19.6-19.6c0-10.8,8.8-19.6,19.6-19.6c10.8,0,19.6,8.8,19.6,19.6
				C1656.2,768.1,1647.4,776.9,1636.6,776.9z"/>
			<path class="st1" d="M742.9,72.2c-0.6-5.9,2.7-9.2,7.3-11.7c2.2-1.2,4.4-2.3,6.6-3.4c2.1-1,3.6-1.8,1.8-4.7
				c-1.6-2.5-1.5-5.8,1.9-7c4.4-1.5,4.2-3.6,2.1-7c-2.8-4.5-2-5.9,3.1-7.2c1.3-0.3,2.6-0.5,3.9-0.9c8-2.2,15.1-6.1,22.7-9.7
				c-1.6-1.5-2.7-0.9-3.8-0.8c-8.5,0.4-16.3,2.8-25.5-1.4c-10.2-4.7-22-6.7-33.8-6c-12,0.7-24.1,0.8-36.1,1.1
				c-6.7,0.2-13.6-0.9-19.6,3.3c-0.9,0.6-2.2,0.7-3.4,0.6c-13.6-0.5-27,0.8-40.5,2.2c-10.2,1-20.3,2.7-30.4,4.2
				c-1.2,0.2-3.7,0.3-2.6,2.5c2.6,5-0.9,4.8-4,5.2c-8,1-16,2-24.1,3c-2.4,0.3-4.9,1-5.2,3.7c-0.3,2.5,2,3.6,4,4.5
				c1.9,0.8,4.1,1.2,6.1,1.8c9.6,3.1,20.1,1.6,29.4,6.4c6.4,3.3,8.2,7.5,4.2,13.5c-2.5,3.8-2.8,5.7,2.4,6.2c1.1,0.1,2.4,0.8,2.3,2.2
				c-0.1,1.2-1.5,1.1-2.4,1.3c-0.8,0.2-1.6,0.4-2.4,0.6c-2,0.5-4,1.3-3.5,3.9c0.6,2.9,2.8,1.4,4.4,1.4c1.2,0,3-1.1,3.5,0.6
				c0.6,2-1.5,2.2-2.9,2.6c-5.9,1.6-10,6.2-10.6,11.3c-1.5,12.3-1.4,24.8,3.9,36.5c0.8,1.8,1.9,3.2,3.9,3.4c3.4,0.4,6.2,2.2,9.1,3.8
				c4.2,2.4,11.2,2.1,13.4-1.2c6.1-9.3,15.3-16,21.6-25c2.2-3.2,5.1-5.1,8.8-6c3.5-0.9,7.1-1.3,10.7-2.3c5.4-1.5,11.3-1.5,15.9-5.1
				c8.2-6.5,17.8-10,27.7-12.7c7.9-2.2,15.4-6.2,23.8-6.5C741.4,78.9,743.4,76.9,742.9,72.2z"/>
			<path class="st1" d="M1702.5,600.1c-4.6-3.2-7.7-7.6-10.6-12.2c-0.7-1.1-2.3-3.1,0.4-4.1c5.9-2,2.1-6.2,0.4-6.7
				c-6.8-2.3-9.5-8.9-14.6-12.5c-8.3-5.9-17.7-10.2-27.2-14c-9.6-3.8-17.5-4.3-23.3,5.8c-0.3,0.6-0.8,1-1.3,1.4
				c-1.8,1.5-4,1.6-5.2-0.3c-2.6-4-7.7-6.6-6.6-12.6c0.4-2.1-0.8-3.3-3.2-3.2c-2.1,0.1-4.3-0.2-7.2-0.4c-0.4,0.1-1.6,0.1-2.6,0.4
				c-2.2,0.7-5.8-0.1-6,3.1c-0.2,2.9,2.6,4.3,5.1,5.4c0.1,0.1,0.3,0.1,0.5,0.2c3.2,1.5,5.4,3.2,5.3,7.4c-0.1,3.1,1.5,6.5,5.2,6.9
				c7.3,0.9,13.8,4.3,20.8,6.3c7.7,2.3,10.3,12.3,5.3,18.5c-0.5,0.6-1.2,1.3-0.9,2.2c0.4,1.2,1.6,1.2,2.5,1.1
				c5.1-0.8,9.3,1.9,13.5,4c7.2,3.6,11.9,2.9,17.7-2.8c6.1-6.1,10.7-5.7,15.3,1.7c3.4,5.6,7.7,9.3,14.2,10.5
				c2.6,0.5,6.6,3.2,7.6,1.1C1708.8,604.2,1705.1,601.8,1702.5,600.1z"/>
			<path class="st1" d="M1523.4,508.5c2.9-3.5,3.6-6.9-0.5-10.2c-2.1-1.6-3.9-3.6-5.6-5.6c-3-3.6-4.8-2.7-6.6,1.2
				c-4.6,9.9-15.7,13.2-21.7,21.8c-0.3,0.4-1.2,0.5-1.8,0.7c-3.4,1-5.9,3.2-7.1,6.4c-1.3,3.8-3.3,5.5-7.4,4.1
				c-1.2-0.4-2.5-0.5-3.5,0.8c-2.9,3.8-3.3,12.1,0,15.9c3,3.4,4.4,6.9,3.2,11.1c-0.2,4.1,2.9,7.7,6.7,6.8c5.8-1.3,10.7,0.4,15.8,2.5
				c2.7,1.1,5.8,1.4,8.7,1.4c4.5,0.1,6.6-2.6,6.1-7.3c-0.5-4.2-0.1-7.8,4.1-10.2c2.9-1.8,3.6-4.9,3.7-8.2c0-2.3,0.2-5.2,2.7-5.9
				c6.5-2,3.2-5.5,1-7.9c-2.9-3.4-3-6.6-1.7-10.5C1520.3,512.8,1521.7,510.6,1523.4,508.5z"/>
			<path class="st1" d="M444.5,53.1c3.6,0.3,7.6-0.5,10.8,0.6c5.9,2.1,9.8,0.9,12.8-4.5c1.3-2.3,3.7-2,4.1,0c0.7,4.3,3.9,4,6.8,4.9
				c5.7,1.9,11.3,1.8,17,1c5.9-0.9,11.8-1.1,17.8-1.2c1.7,0,3.6-0.8,3.7-2.7c0.2-2-2-1.8-3.3-2.1c-6.7-1.3-13.4-2.1-20.1-0.5
				c-1.2,0.3-2.5,1.1-3.8-0.6c2.4-2.9,5.5-3.9,9.1-3.8c6.9,0.3,13.7-0.9,20.7-0.1c3.1,0.4,7.1-0.1,10.2-1.2
				c6.7-2.3,13.2-5.3,19.4-8.7c12.1-6.5,25.4-9.1,38.6-11.3c8.6-1.4,16.6-4.9,25.5-5c-0.1-0.5-0.2-1-0.3-1.5
				c-0.2-0.2-0.5-0.6-0.7-0.5c-13.4,0.9-26.7,0.5-40-0.5c-15-1.2-29.3,4.3-44.2,4.5c-8.4,0.1-16.6,2.6-25.1,1.5
				c-2.7-0.4-4.7,0.8-6.7,2.5c-2,1.7-4.6,4.1-7,2.8c-4.2-2.1-4,0.7-4.4,3c-0.8,5.4,4.2,9.7,9.8,8.4c1.3-0.3,3.2-1.6,3.8,0.4
				c0.5,1.7-1.5,2.4-2.9,2.8c-4,1.2-8.1,1.8-11.9,3.3c-3.8,1.4-6.6,1.3-9.9-1.4c-5-4.1-10.5-2.3-12.3,3.5c-0.7,2.4-2.2,3.5-4.7,3.5
				c-2.6,0-4.3-0.5-5-3.5c-0.8-3.3-7-5.5-9.8-3.5c-2.3,1.7-4.6,4.1-4.1,6.9C438.8,53.1,442.1,52.9,444.5,53.1z"/>
			<path class="st1" d="M1111.6,620.8c-3-1-4.4,3.2-6.3,5.3c-0.6,0.8-1.2,1.6-1.7,2.5c-4.5,7.3-10,13.2-18.6,16.2
				c-7.1,2.4-9.8,9.1-7.8,16.3c1.9,6.7,2.6,13.5-1.9,19.4c-3.2,4.2-4.9,8.5-4.4,12.4c0,2,0.1,2.7,0,3.3c-1.4,8.5,5.1,13.2,10.2,14.9
				c4,1.3,12.2-3.4,14-8.4c4.3-12.3,7.7-24.9,10.6-37.5c1.6-6.9,3.2-14.4,6.4-19.9c3.3-5.7,3.3-10.6,3.4-16.1
				C1115.7,626,1114.5,621.8,1111.6,620.8z"/>
			<path class="st1" d="M321.4,74c5.2-0.5,10.5-0.8,14.8-4.7c1.5-1.4,3.2-2.9,6.3-2.5c-1.4,3.9-3.3,6.8-5.6,9.7
				c-1.3,1.7-3.4,4.7-1.9,6.1c3.2,3.1,7.3,5.2,11.1,7.7c0.2,0.2,0.9-0.3,1.3-0.5c10-5.2,20.9-5.2,31.7-5.5c3.5-0.1,6.5,1.1,9.6,2
				c4.6,1.3,7.6-1.8,10.6-4.1c2.5-2-0.4-4.1-1.3-6c-0.7-1.5-0.6-2.8,0.2-4.2c1.9-3.5,3.4-8.5,0.3-10.4c-3.4-2.1-7.5,1.2-9.9,4.5
				c-2.2,3-3.8,3.7-6.2,0.3c-0.9-1.3-2.7-1.1-4.1-1.4c-6.2-1.4-13.4-0.8-16.6-8.5c-0.7-1.7-2.8-2.2-4.7-2.2
				c-5.4,0.1-10.9-0.3-16.3,0.4c-4,0.6-7.4,1.3-8.9,5.7c-0.5,1.6-2.4,2.1-4,2.7c-3.3,1.1-6.5,2.4-9.9,3.3c-4.6,1.2-3.4,3.3-1.4,5.9
				C317.8,74,319.6,74.2,321.4,74z"/>
			<path class="st1" d="M1447.6,569.2c-0.6-3.8,0.3-6.9,2.4-9.8c1.7-2.5,2.3-4.4-1.8-4.2c-2,0.1-3.2-0.7-3.9-2.4
				c-1.6-3.9-4.6-6.3-8-8.5c-1.3-0.9-3.3-1.9-2-3.8c1.9-2.7,0.4-4.3-1.5-5.8c-3.6-2.9-6.8-6.2-11-8.4c-4.6-2.4-8.3-5.7-11.3-10.1
				c-5.7-8.2-15.6-10-23.8-14.4c-1.2-0.6-2.6,0.2-3.4,1.5c-0.6,1-0.5,2.2,0.6,2.5c6.7,2.3,10.1,7.5,13,13.4c0.6,1.3,2.6,2,3.9,2.9
				c1.1,0.7,2.7,1.2,3.3,2.2c5,8.5,11.3,16.6,12.9,26.5c1.9,12.3,11.2,18.1,19.4,25c1.2,1,3.1,1.1,4.2,1.4
				C1445,577.6,1448.3,573.8,1447.6,569.2z"/>
			<path class="st1" d="M1807.6,791.1c-4.1,2.3-6.2,1.6-8-3.2c-1.5-3.9-3-7.4-1.9-11.7c0.6-2.3-1.2-3.8-3.3-4.2
				c-2.7-0.6-2.8,1.9-3,3.5c-0.3,2.8,0,5.6-0.4,8.4c-1,6.9-1.8,13.9-9.9,16.6c-2.5,0.8-2.5,2.5-0.6,4c2.7,2.2,2,4.3-0.3,6.1
				c-2.1,1.6-4.1,5.2-7.1,1c-0.2-0.3-1-0.3-1.4-0.2c-5.7,1.3-11.6,1.9-15.7,7c-0.9,1.1-2.3,2-3.6,2.6c-13.2,6.2-25.2,14.5-37.6,22.1
				c-1.8,1.1-5.4,1.5-4.8,4.2c0.7,2.9,4.3,3.2,6.9,4c1.1,0.3,2.6-0.4,3.8-0.8c5-1.9,9.3-5,13.4-8.3c5.2-4,10-8.7,17-9.5
				c1.5-0.2,2.6-1.3,3.4-2.7c3.8-6.4,11.8-7.5,16.5-12.9c0.3-0.3,0.9-0.3,1.4-0.3c10.2,0,17.9-4.6,23.2-13.1
				c0.9-1.4,2.4-1.6,3.7-2.2c4.9-2,8.6-5.2,10.9-11.3C1808.8,790.8,1808.1,790.8,1807.6,791.1z"/>
			<path class="st1" d="M1565.8,492.3c3.3-0.2,3-2.3,2.7-4.5c-0.5-3.1-2-6.2-1.2-9.2c1.2-4.2-0.4-7.1-3.7-9.3
				c-2-1.3-2.9-3.2-2.7-5.5c0.7-6.3-2.4-10-8.3-11.6c-1.2-0.3-2.4-0.4-1.8-2.1c2.1-6-2-7.7-6.3-8c-10-0.6-10.7-5.9-8-13
				c1.8-4.6,1.1-8.7-0.2-13c-0.8-2.6-1.5-5.5-4.9-5.1c-3.1,0.4-4,3-4.2,5.9c-0.3,3.4-0.4,7-2,10.1c-2.5,5-2,8.7,2.1,12.7
				c1.2,1.2,2.6,2.3,2.3,4.1c-0.8,4.1,2.1,6.2,4.4,9c2.2-2-0.2-5.8,3.2-6.1c3-0.2,5.8,0.8,7.9,3.4c1.8,2.3,3.9,4.5,5.8,6.7
				c0.9,1,3.1,1.5,1.9,3.4c-1,1.6-2.9,1.6-4.5,1.1c-1.3-0.3-2.4-1-3.6-1.6c-1.1-0.6-2.3-1.7-3.6-0.7c-1.2,1-0.7,2.4-0.7,3.7
				c0.2,3.9,3.6,5.7,5.2,8.5c2.1,3.6,3.9,5.2,7.7,2.7c3.8-2.5,1.5-4.7-0.4-6.9c-1.7-1.9-1-3.3,0.8-4.5c2-1.2,3.2-0.1,3.9,1.6
				c0.9,2.1,1.5,4.4,2.2,6.6c1.5,5.2-1,8.5-6.6,8.6c-5.5,0-9.7,5-8.6,11.4c0.6-0.3,0.7-1,1-1.6c1.5-3.2,4.5-2.4,7-2.3
				c2.8,0.1,2.2,2.8,2.4,4.7c0.3,3.3,2.8,5.1,4.9,7.2c0.8,0.8,1.6,2,2.9,1.5c1.6-0.6,0.9-2.2,1.2-3.5
				C1564.3,495.2,1562.3,492.5,1565.8,492.3z"/>
			<path class="st1" d="M798.7,166.4c3.1,1.7,4,6.3,8.8,6c3.4-0.2,3.5,3.4,4,5.9c0.5,2.8-1.8,2.5-3.5,3c-1.7,0.5-4.2,1.2-3,3.4
				c1.5,2.7,0.1,3.1-1.7,3.9c-0.9,0.4-2.1,0.7-2.1,1.8c0,1.5,1.5,1.5,2.5,1.9c1,0.4,2.3,0,2.9,1.5c-2.9,2.1-5.4,4.7-8.5,8.4
				c10.3-2.2,19.1-5.8,28.6-3.9c1.9,0.4,5.3-0.3,5.7-2.2c0.7-3.5,2.8-6.3,3.4-9.7c0.2-1.5-1.3-2.3-2.7-2.3c-2.6-0.1-3.4-1.8-4.6-3.7
				c-3.6-5.5-6.3-11.6-11.3-16.1c-2.2-1.9-1-3.4,0.5-5c1.1-1.2,2.7-2.3,2-4.2c-0.7-1.9-2.6-1.6-4.2-1.8c-0.9-0.1-2,0.1-2.7-1.3
				c0.8-1,1.9-2.1,2.6-3.3c0.8-1.3,2.3-2.4,1.9-4.7c-2.8,0.2-3.8,3.4-6.3,3.2c-4.8-0.3-7.4,3.2-10.5,5.8
				C798.3,154.8,796.8,165.3,798.7,166.4z M822,183.3c2.9,0,5.3,2.4,5.3,5.3c0,2.9-2.4,5.3-5.3,5.3s-5.3-2.4-5.3-5.3
				C816.7,185.7,819.1,183.3,822,183.3z"/>
			<path class="st1" d="M1524.9,598.3c2.5,0.2,5.6-2,7.7-1.2c7.7,2.9,15,0,22.4-0.6c1.2-0.1,2.5-1.2,3.7,0.2
				c-2.3,4.1-8.8,4.4-9.3,10.8c3-1,4.7-2.9,6.6-4.4c3.5-2.8,6.6-6,10.7-7.9c1.2-0.5,3.6-0.6,3.1-2.5c-0.5-1.8-2.7-1.5-4.3-1.5
				c-1.1,0-2.3,0.4-3.4,0.6c-5.3,1.2-10.6,2.7-16,0.1c-1.4-0.7-3-0.3-4.3,0.4c-5,2.7-10.1,2.2-15.4,1c-5-1.1-10.4-3.7-15-2.1
				c-6.7,2.2-11.9-1-17.8-2c-1.8-0.3-3.2-1.4-1.3-3.4c2.4-2.6,0.2-2.9-1.7-3.1c-3.1-0.4-6.4,0.7-9.3-1c-3.2-1.9-6.3-4.2-8.9,0.9
				c-0.3,0.6-1.7,0.9-2.7,0.9c-3.8,0.3-7.3,0.3-10.3-3.1c-3.6-4-8.2-4.3-12-1.6c-1,0.7-2.5,1.5-2.2,3c0.3,1.3,1.8,1.4,2.8,1.5
				c3.3,0.4,5.9,1.9,8.3,4.1c1.9,1.8,4.3,3.2,6.9,3.7c12.2,2.6,24.9,3.1,36.8,7.2C1508.4,595.1,1516.7,597.7,1524.9,598.3z"/>
			<path class="st1" d="M1540.7,532.9c3,0.9,5.8,2.5,8.7,3.4c5.2,1.7,11.7-1,13.1-5.2c0.4-1.3,0.7-2.6-0.3-3.7
				c-0.7-0.7-1.6-0.3-2.3,0.2c-6.3,5.1-13.3,2.9-19.9,1.4c-6.9-1.5-9,2-9.5,7.4c-0.5,5.1-1.7,9.7-3.8,14.2c-1.6,3.6-1.7,7-0.2,10.6
				c1.2,3.1,2,6.2,1.5,9.7c-0.3,2-1.9,5.1,1.8,5.4c3.3,0.3,5.1-1.9,5.3-5.3c0.2-3.3-0.1-6.6-0.7-9.9c-0.3-1.4-0.6-3.3,1.5-3.6
				c1.9-0.2,3.5,1.3,3.3,3c-0.4,3.6,2.3,6.1,2.9,9.4c0.6,3.1,2.8,4.8,5.7,3.9c3-0.9,3.7-3.7,2.7-6.5c-0.7-2.2-2.1-4.1-2.9-6.3
				c-1.3-3.3-3.1-6.7-3.5-10.1c-0.3-2.4,3.5-2.6,4.9-4.4c1.5-1.9,1.5-3.2-1.1-4c-2-0.6-3.9-0.3-5.6,0.9c-1.7,1.2-3.4,3.2-5.7,1.4
				c-2-1.5-3.1-3.8-3.2-6.2C1533.5,534.3,1536.7,531.7,1540.7,532.9z"/>
			<path class="st1" d="M362,48.2c2.1,0.2,4.4,0,6,1.7c4.5,4.7,11.7,3.8,16.5,7.9c0.4,0.4,1.6,0.1,2.4-0.2
				c8.3-3.1,16.7-4.9,25.6-4.6c2.1,0.1,4.6-0.5,5.3-2.9c0.7-2.5-1.6-4.3-3-5.8c-1.7-1.9-3.6,0.1-5.2,1.1c-8.2,5-14.1,4.9-21.8-0.4
				c-0.8-0.6-1.2-1.2-0.8-2c1.8-4.9-0.9-4.3-4.2-3.9c-9.3,1.4-17.7,5.7-27.7,6.8C357.3,48.8,359.8,48,362,48.2z"/>
			<path class="st1" d="M785.5,172.1c-1,2-1.9,3.4-4.3,2.7c-4-0.1-5.5,2.5-3.4,6.4c1,1.8,1.9,3-0.3,4.4c-1.8,1.1-4.1,2.5-2.8,5
				c1.3,2.6,4.1,2.4,6.6,2.2c3.4-0.3,5.9-3.1,9.2-3.4c3.9-0.4,5.5-2.7,6.4-5.8c1-3.3,0.6-6.8,2.6-9.9c0.7-1.1-0.1-2.6-1.2-3.5
				C794.7,166.9,787.7,167.8,785.5,172.1z"/>
			<path class="st1" d="M418.2,62.6c-1.2-0.9-2.1-0.4-3,0.5c-0.6,0.7-0.7,1.4-0.3,2.2c2.3,4.5,7.5,6.6,12.5,4.8
				c2.2-0.8,4.2-1.9,6.4-2.5c3.8-1.1,4.9-4,5.3-6.9c0.9-2.3,0.2-3.3-1.7-3.5c-4.3-0.4-8.5,0.8-12.7,1.2c-1.3,0.1-1.8,1.2-2.1,2.5
				C422.1,63.8,420.7,64.6,418.2,62.6z"/>
			<path class="st1" d="M1522.5,388c3.1,0.3,2.5-3.6,3.3-5.7c0.7-1.7,1-3.5,1.3-4.8c-0.5-2.9-0.8-5.4-1.4-7.7
				c-0.8-3.1-2.9-3.3-4.5-1c-2.7,3.8-4.4,8.2-3.5,13C1518.2,384.4,1519.9,387.7,1522.5,388z"/>
			<path class="st1" d="M1466.9,403.8c-3.6-2.1-10.8,2-10.9,6.2c0,2.1,0.6,4.1,2.9,4.6c3.6,0.8,6.1-1.3,7.5-4.3
				c0.9-1.9,2.9-3.9,1-6.3C1467.2,403.9,1467,403.9,1466.9,403.8z"/>
			<path class="st1" d="M446.1,35.7c3.7,1.4,7.4,2.7,11.3,3c1.7,0.2,3.3-0.2,4.7-1.2c1.5-1,2.1-2.4,0-3.3c-4.9-2-9.9-3.4-15.3-2.8
				c-1.2,0.1-2.3,0.5-2.6,1.8C443.8,34.8,445,35.3,446.1,35.7z"/>
			<path class="st1" d="M474.5,40.1c3.2-0.1,3.6-2.3,3.6-5.1c-0.2-2.4-0.4-5.5-4.1-5c-2.2,0.3-5.2,0.6-5.8,3.6
				C467.7,36,471.9,40.1,474.5,40.1z"/>
			<path class="st1" d="M419.3,36.3c1.1-0.8,3.1-1.5,2.1-3.3c-0.9-1.8-2.8-1.3-4.4-0.7c-4.4,1.5-7.6,4.7-11.6,8.3
				C411.5,42.1,415.4,39.1,419.3,36.3z"/>
		</g>
	</g>
	<g>
		<path class="st1" d="M1214.4,386.3l-0.5,0.1l-218.5,49.7L1214.4,386.3z"/>
		<g>
			<path class="st1" d="M923,757.6c-0.4,3.5,2.3,6.5,3.5,9.6c1.5,3.9,4.3,5.4,8.7,4c1.5-0.5,3-0.9,4.4-1.4
				C932.1,769.2,925.7,764.3,923,757.6z"/>
		</g>
		
			<ellipse transform="matrix(0.9732 -0.2298 0.2298 0.9732 -25.4194 294.9232)" class="st1" cx="1253.8" cy="256.6" rx="18.8" ry="18.8"/>
		<circle class="st1" cx="998.4" cy="441.8" r="22.1"/>
		<circle class="st1" cx="1070.8" cy="159.3" r="18.8"/>
		<circle class="st1" cx="1280.1" cy="90.3" r="18.8"/>
		
			<ellipse transform="matrix(0.9732 -0.2298 0.2298 0.9732 -23.9788 215.4325)" class="st1" cx="913.1" cy="210.7" rx="4.8" ry="4.8"/>
		<circle class="st1" cx="941.2" cy="750.3" r="15.4"/>
		<circle class="st1" cx="943.8" cy="358.9" r="15.4"/>
		<circle class="st1" cx="840.8" cy="222.4" r="11.7"/>
		<circle class="st1" cx="928.4" cy="532.3" r="22.1"/>
		<circle class="st1" cx="793.5" cy="393.9" r="15.4"/>
		<circle class="st1" cx="1386.8" cy="295.1" r="18.8"/>
		<circle class="st1" cx="1434.8" cy="159.3" r="18.8"/>
		<circle class="st1" cx="1280.1" cy="393.9" r="26.3"/>
		<circle class="st1" cx="497.7" cy="547.6" r="15.4"/>
		<circle class="st1" cx="376.7" cy="222.4" r="22.5"/>
		<circle class="st1" cx="288.7" cy="310.5" r="15.4"/>
		
			<ellipse transform="matrix(0.9871 -0.1602 0.1602 0.9871 -44.1426 34.1537)" class="st1" cx="189.8" cy="290.9" rx="15.4" ry="15.4"/>
		<circle class="st1" cx="373.8" cy="532.3" r="15.4"/>
		<circle class="st1" cx="453.8" cy="718.1" r="26.3"/>
		<circle class="st1" cx="277.8" cy="144.9" r="15.4"/>
		<circle class="st1" cx="136.5" cy="109.9" r="15.4"/>
		
			<ellipse transform="matrix(0.9239 -0.3827 0.3827 0.9239 -165.239 683.9321)" class="st1" cx="1636.6" cy="757.3" rx="15.4" ry="15.4"/>
		<circle class="st1" cx="1527.1" cy="705.9" r="15.4"/>
		<circle class="st1" cx="822" cy="188.6" r="4.2"/>
	</g>
</g>
<g id="CART">
	<path class="st1" d="M1267.8,348.5h-0.5c-1.2,0-2.3,0.2-3.4,0.5c-0.8,0-1.6,0.1-2.4,0.3l-41.1,9.4L1182.6,193
		c-1.5-6.7-8.2-10.9-14.9-9.4l-218.5,49.8c-6.7,1.5-10.9,8.2-9.4,14.9c0,0,0,0,0,0l37.7,165.6l-35.1,8l-25.3-111.1
		c-1.6-7.1-8.7-11.6-15.8-10c0,0,0,0,0,0l-117.8,26.8c-7.1,1.6-11.6,8.7-10,15.8c0,0,0,0,0,0l25.3,111.1l-49.5,11.3
		c-0.3,0.1-0.7,0.2-1,0.3l-131.4-249c-0.2-0.4-0.4-0.8-0.7-1.2l-0.3-0.4c0,0,0-0.1-0.1-0.1c-3-4.2-8.3-6.2-13.3-5.1l-178.1,40.5
		c-6.9,1.6-11.3,8.5-9.7,15.4c1.6,6.9,8.5,11.3,15.4,9.7l168.5-38.3l292.8,554.9c2.2,4.2,6.6,6.9,11.4,6.9c1.9,0,3.9-0.4,5.6-1.3
		l345.7-78.7l5.6-1.3l0,0c4.3-2.1,7.1-6.3,7.3-11l0.3-8.9l12.8-336.2C1280.4,354.8,1274.9,348.8,1267.8,348.5
		C1267.8,348.5,1267.8,348.5,1267.8,348.5z M1241.7,695.8l-332.3,75.6L760.7,489.6l56.6-12.9h0.1l117.8-26.8h0.1l60-13.7l219-49.9
		l39.4-9L1241.7,695.8z"/>
	<circle class="st1" cx="998.4" cy="864.7" r="55.4"/>
	<circle class="st1" cx="1201.2" cy="818.5" r="55.4"/>
	<path class="st1" d="M908,50l117.8-26.8c7.1-1.6,14.2,2.8,15.8,10l28.1,123.3c1.6,7.1-2.8,14.2-10,15.8l-117.8,26.8
		c-7.1,1.6-14.2-2.8-15.8-10L898,65.8C896.4,58.7,900.8,51.6,908,50z"/>
	<path class="st1" d="M1121.1,132.7l14.1-121c0.8-7.3,7.4-12.5,14.7-11.6l130.1,15.2c7.3,0.8,12.5,7.4,11.6,14.7l-14.1,121
		c-0.8,7.3-7.4,12.5-14.7,11.6l-130.1-15.2C1125.4,146.6,1120.2,140,1121.1,132.7z"/>
</g>
</svg>
