<svg xmlns="http://www.w3.org/2000/svg" viewBox="0 0 1055.18 835.47"><defs><style>.cls-1{fill:none;stroke:#e67e22;stroke-linecap:round;stroke-linejoin:round;stroke-width:5px;stroke-dasharray:30 30;}.cls-2,.cls-3{fill:#fff;}.cls-2{fill-rule:evenodd;}.cls-4{fill:#eaeaea;}.cls-5{fill:#db6e1d;}.cls-6{fill:#e67e22;}</style></defs><title>marketplace</title><g id="Layer_2" data-name="Layer 2"><g id="Layer_1-2" data-name="Layer 1"><polygon class="cls-1" points="49.5 122.97 1012.5 346.1 164 589.47 49.5 122.97"/><line class="cls-1" x1="989.5" y1="315.97" x2="896.5" y2="38.97"/><line class="cls-1" x1="998" y1="697.47" x2="1024" y2="373.47"/><line class="cls-1" x1="211.5" y1="832.97" x2="169" y2="625.47"/><line class="cls-1" x1="221.5" y1="11.97" x2="81" y2="90.47"/><path class="cls-2" d="M353.65,264.76l-7.46,42.29L342,331l-8.46,48-15,85.25-3.12,17.7H259.25l1.54-8.77L277.4,379H218.17a12,12,0,1,1,0-24h30.66a12,12,0,1,0,0-24h3.34a12,12,0,1,1,0-24h37.92l7.45-42.21Z"/><polygon class="cls-3" points="464.19 264.76 431.18 451.97 425.9 481.92 370.63 481.92 375.91 451.97 393.01 354.97 397.24 330.97 408.92 264.76 464.19 264.76"/><polygon class="cls-3" points="756.41 481.92 701.14 481.92 695.86 451.97 662.85 264.76 718.12 264.76 753.29 464.22 756.41 481.92"/><polygon class="cls-3" points="645.87 481.92 590.6 481.92 585.32 451.97 552.31 264.76 607.58 264.76 640.59 451.97 645.87 481.92"/><path class="cls-4" d="M315.36,481.92l-.14.79v0h0a26.19,26.19,0,0,1-.4,4,27.68,27.68,0,0,1-4.19,10.58,28,28,0,0,1-51.48-14.57.19.19,0,0,1,0-.08.25.25,0,0,1,0-.08l.12-.67Z"/><path class="cls-4" d="M425.9,481.92l-.14.79v0h0a26.19,26.19,0,0,1-.4,4,28.05,28.05,0,0,1-55.27,0,26.19,26.19,0,0,0,.4-4h0v0l.14-.79Z"/><path class="cls-4" d="M535.89,481.92v.41l-.2,3.12-.19,3.14a28,28,0,0,1-54.88-1.88,27.11,27.11,0,0,0,.39-4h0v0l.14-.79Z"/><path class="cls-4" d="M757,486.74a28.05,28.05,0,0,1-55.27,0,26.19,26.19,0,0,1-.4-4h0v0l-.14-.79h55.27l.14.79v0h0A26.19,26.19,0,0,0,757,486.74Z"/><path class="cls-4" d="M646.43,486.75v0a28.06,28.06,0,0,1-55.28,0,27.24,27.24,0,0,1-.39-4h0v0l-.14-.79h55.27l.14.79v0h0A26.32,26.32,0,0,0,646.43,486.75Z"/><path class="cls-5" d="M370.63,481.92l-.14.79v0h0a26.19,26.19,0,0,1-.4,4,28.05,28.05,0,0,1-55.27,0,26.19,26.19,0,0,0,.4-4h0v0l.14-.79Z"/><path class="cls-5" d="M481.17,481.92l-.14.79v0h0a27.11,27.11,0,0,1-.39,4,28.06,28.06,0,0,1-55.28,0,26.19,26.19,0,0,0,.4-4h0v0l.14-.79Z"/><path class="cls-5" d="M812.65,482.67s0,.06,0,.08a28,28,0,0,1-51.48,14.57A27.68,27.68,0,0,1,757,486.74a26.19,26.19,0,0,1-.4-4h0v0l-.14-.79h56.11l.12.67S812.65,482.65,812.65,482.67Z"/><path class="cls-5" d="M701.7,486.74a28.06,28.06,0,0,1-55.27,0v0a26.32,26.32,0,0,1-.4-4h0v0l-.14-.79h55.27l.14.79v0h0A26.19,26.19,0,0,0,701.7,486.74Z"/><path class="cls-5" d="M591.15,486.72a27.32,27.32,0,0,1-3.22,9,28,28,0,0,1-48.82,0,27.23,27.23,0,0,1-3.22-9c-.08-.42-.15-.83-.2-1.26l.2-3.12v-.41H590.6l.14.79v0h0A27.24,27.24,0,0,0,591.15,486.72Z"/><path class="cls-6" d="M847.83,694H817.17a12,12,0,1,1,0-24h-3.34a12,12,0,1,0,0-24H761.16V497.32A27.68,27.68,0,0,1,757,486.74a28.05,28.05,0,0,1-55.27,0,28.06,28.06,0,0,1-55.27,0,28.06,28.06,0,0,1-55.28,0,27.32,27.32,0,0,1-3.22,9,28,28,0,0,1-48.82,0,27.23,27.23,0,0,1-3.22-9c-.08-.42-.15-.83-.2-1.26l-.19,3.14a28,28,0,0,1-54.88-1.88,28.06,28.06,0,0,1-55.28,0,28.05,28.05,0,0,1-55.27,0,28.05,28.05,0,0,1-55.27,0,27.68,27.68,0,0,1-4.19,10.58V799.47a34,34,0,0,0,34,34h11.62v-234a14,14,0,0,1,14-14h93.31a14,14,0,0,1,14,14v234H727.16a34,34,0,0,0,34-34V718h86.67a12,12,0,1,0,0-24ZM695.54,709a14,14,0,0,1-14,14H588.23a14,14,0,0,1-14-14v-60.5a14,14,0,0,1,14-14h93.31a14,14,0,0,1,14,14Z"/><polygon class="cls-3" points="535.89 264.76 535.89 481.92 481.17 481.92 486.45 451.97 519.46 264.76 535.89 264.76"/><path class="cls-6" d="M821.45,207.82H726.82V169.16h.34a34,34,0,0,0,34-34V34a34,34,0,0,0-34-34H344.61a34,34,0,0,0-34,34V135.16a34,34,0,0,0,34,34H345v38.66H250.32a28.47,28.47,0,1,0,0,56.94H353.65l-7.46,42.29L342,331l-8.46,48-15,85.25-3.12,17.7h55.27L375.91,452,393,355l4.23-24,11.68-66.21h55.27L431.18,452l-5.28,29.95h55.27L486.45,452l33-187.21h16.43V481.92H590.6L585.32,452l-33-187.21h55.27l33,187.21,5.28,29.95h55.27L695.86,452l-33-187.21h55.27l35.17,199.46,3.12,17.7h56.11L811,473.15,774.23,264.76h47.22a28.47,28.47,0,0,0,0-56.94Zm-108,0H358.35V169.16H713.42Z"/><path class="cls-3" d="M428.12,56.4A4.64,4.64,0,0,0,425,55h-.08a4.26,4.26,0,0,0-3.6,1.84L405.35,79,389.42,56.88A3.94,3.94,0,0,0,385.89,55h-.24a4.37,4.37,0,0,0-4.4,4.4v47.24a4.37,4.37,0,0,0,4.4,4.4,4.39,4.39,0,0,0,3.16-1.28,4.17,4.17,0,0,0,1.33-3.12V73l11.44,16a4.35,4.35,0,0,0,3.69,1.84h.16A4.26,4.26,0,0,0,409,89l11.53-16v33.71a4.41,4.41,0,0,0,7.56,3.08,4.2,4.2,0,0,0,1.33-3.08V59.44A4.07,4.07,0,0,0,428.12,56.4Z"/><path class="cls-3" d="M489.57,105.07,471.88,57.92a4,4,0,0,0-4.25-2.8,3.85,3.85,0,0,0-2.52.72,4.78,4.78,0,0,0-1.72,2.08L445.7,105.07a4.57,4.57,0,0,0,.48,4.05,4.27,4.27,0,0,0,4,2,3.94,3.94,0,0,0,3.88-2.8L458,97.87H477.4l3.92,10.41a3.82,3.82,0,0,0,3.81,2.8,4.27,4.27,0,0,0,4-2A4.57,4.57,0,0,0,489.57,105.07Zm-28.42-16,6.48-17.21,6.49,17.21Z"/><path class="cls-3" d="M537.61,104.47a4.12,4.12,0,0,0-2.81-2.76,22.31,22.31,0,0,1-.32-4.72q0-7.45-5.44-11.61a16,16,0,0,0,6.25-12.73,17.11,17.11,0,0,0-5-12.57,16.45,16.45,0,0,0-12.13-5H503.82a4.37,4.37,0,0,0-4.4,4.4v47.24a4.37,4.37,0,0,0,4.4,4.4A4.39,4.39,0,0,0,507,109.8a4.17,4.17,0,0,0,1.32-3.12V89.3h9.45a14.28,14.28,0,0,1,4.49,1.92A6.93,6.93,0,0,1,525.6,97a22.62,22.62,0,0,0,1.68,9.6q2.09,3.69,5.68,3.69H533a4.61,4.61,0,0,0,3.93-1.84A4.13,4.13,0,0,0,537.61,104.47ZM524,78a8,8,0,0,1-5.85,2.41H508.3V63.92h9.85A7.92,7.92,0,0,1,524,66.36a8.06,8.06,0,0,1,2.4,5.85A7.9,7.9,0,0,1,524,78Z"/><path class="cls-3" d="M574,80.57,591.57,63a4.42,4.42,0,0,0-6.25-6.24l-25.94,26v-23a4.26,4.26,0,0,0-1.28-3.08,4.35,4.35,0,0,0-6.24,0,4.26,4.26,0,0,0-1.28,3.08v46.84a4.4,4.4,0,1,0,8.8,0V95.31l8.33-8.49L585,109.48a4.54,4.54,0,0,0,3.65,1.6,4,4,0,0,0,3.6-2.52,3.89,3.89,0,0,0-.52-4.69Z"/><path class="cls-3" d="M638.4,102.19H616.71V87.46h18.65a4.17,4.17,0,0,0,3.12-1.32,4.41,4.41,0,0,0,0-6.25,4.21,4.21,0,0,0-3.08-1.32H616.71V63.92H638.4a4.23,4.23,0,0,0,3.09-1.32,4.31,4.31,0,0,0,1.32-3.16,4.17,4.17,0,0,0-1.32-3.12A4.27,4.27,0,0,0,638.4,55H612.22a4.37,4.37,0,0,0-4.4,4.4v47.24a4.37,4.37,0,0,0,4.4,4.4l.08-.08.16.08H638.4a4.45,4.45,0,0,0,0-8.89Z"/><path class="cls-3" d="M692.68,56.32A4.21,4.21,0,0,0,689.56,55H655.38a4.37,4.37,0,0,0-4.41,4.4,4.39,4.39,0,0,0,1.28,3.16,4.21,4.21,0,0,0,3.13,1.32H668v42.76a4.4,4.4,0,1,0,8.8,0V63.92h12.73a4.23,4.23,0,0,0,3.08-1.32A4.31,4.31,0,0,0,694,59.44,4.21,4.21,0,0,0,692.68,56.32Z"/><path class="cls-6" d="M160,571.09v8.51a9,9,0,0,1-3.66-1.87,3.67,3.67,0,0,1-1-2.63,3.55,3.55,0,0,1,1.18-2.71A5.57,5.57,0,0,1,160,571.09Z"/><path class="cls-6" d="M168.55,590.91a3.6,3.6,0,0,1-1.23,2.79,6.09,6.09,0,0,1-3.54,1.35v-8.76a8.93,8.93,0,0,1,3.73,1.88A3.75,3.75,0,0,1,168.55,590.91Z"/><path class="cls-6" d="M160.9,533.48A50.5,50.5,0,1,0,211.4,584,50.49,50.49,0,0,0,160.9,533.48ZM171.43,597a12.51,12.51,0,0,1-7.46,3v2.89a2,2,0,0,1-2.06,2.06,2.1,2.1,0,0,1-1.5-.6,2,2,0,0,1-.62-1.46v-3a20.7,20.7,0,0,1-9.86-3.75,2.43,2.43,0,0,1-1.3-2.12,2.79,2.79,0,0,1,.77-2.07,2.44,2.44,0,0,1,1.78-.77,2.66,2.66,0,0,1,1.68.53,17.26,17.26,0,0,0,7.12,3.23v-9.48c-3.59-.93-6.21-2.15-7.84-3.66a8,8,0,0,1-2.46-6.18,8.19,8.19,0,0,1,2.79-6.4,12.24,12.24,0,0,1,7.32-2.86v-1a2,2,0,0,1,.62-1.46,2.1,2.1,0,0,1,1.5-.6,2,2,0,0,1,2.06,2.06v1.06a18,18,0,0,1,7.46,2.65,2.43,2.43,0,0,1,1.45,2.12,2.77,2.77,0,0,1-.8,2.07,2.44,2.44,0,0,1-1.7.77,3.1,3.1,0,0,1-1.64-.44,16.45,16.45,0,0,0-5-2.11v9.23c3.66.94,6.31,2.18,8,3.73a8.14,8.14,0,0,1,2.47,6.21A8.27,8.27,0,0,1,171.43,597Z"/><path class="cls-4" d="M171.75,584.34c-1.66-1.55-4.31-2.79-8-3.73v-9.23a16.45,16.45,0,0,1,5,2.11,3.1,3.1,0,0,0,1.64.44,2.44,2.44,0,0,0,1.7-.77,2.77,2.77,0,0,0,.8-2.07,2.43,2.43,0,0,0-1.45-2.12,18,18,0,0,0-7.46-2.65v-1.06a2,2,0,0,0-2.06-2.06,2.1,2.1,0,0,0-1.5.6,2,2,0,0,0-.62,1.46v1a12.24,12.24,0,0,0-7.32,2.86,8.19,8.19,0,0,0-2.79,6.4,8,8,0,0,0,2.46,6.18c1.63,1.51,4.25,2.73,7.84,3.66v9.48a17.26,17.26,0,0,1-7.12-3.23,2.66,2.66,0,0,0-1.68-.53,2.44,2.44,0,0,0-1.78.77,2.79,2.79,0,0,0-.77,2.07,2.43,2.43,0,0,0,1.3,2.12,20.7,20.7,0,0,0,9.86,3.75v3a2,2,0,0,0,.62,1.46,2.1,2.1,0,0,0,1.5.6A2,2,0,0,0,164,602.8v-2.89a12.51,12.51,0,0,0,7.46-3,8.27,8.27,0,0,0,2.79-6.4A8.14,8.14,0,0,0,171.75,584.34ZM160,579.6a9,9,0,0,1-3.66-1.87,3.67,3.67,0,0,1-1-2.63,3.55,3.55,0,0,1,1.18-2.71,5.57,5.57,0,0,1,3.44-1.3Zm7.34,14.1a6.09,6.09,0,0,1-3.54,1.35v-8.76a8.93,8.93,0,0,1,3.73,1.88,3.75,3.75,0,0,1,1,2.74A3.6,3.6,0,0,1,167.32,593.7Z"/><path class="cls-6" d="M1004.68,294.12a50.5,50.5,0,1,0,50.5,50.5A50.49,50.49,0,0,0,1004.68,294.12Zm19.48,44.75a19.1,19.1,0,0,1-.33,3.15c-.32,1.14-.75,2.53-1.25,4.09-3.05,9.3-9.29,24.26-17.9,24.26s-14.86-15-17.91-24.26c-.5-1.56-.93-2.95-1.25-4.09a18.08,18.08,0,0,1-.32-3.15,4.1,4.1,0,0,1,0-.5,19.5,19.5,0,0,1,39,0A4.1,4.1,0,0,1,1024.16,338.87Z"/><path class="cls-3" d="M1004.68,318.87a19.49,19.49,0,0,0-19.5,19.5,4.1,4.1,0,0,0,0,.5,18.08,18.08,0,0,0,.32,3.15c.32,1.14.75,2.53,1.25,4.09,3.05,9.3,9.29,24.26,17.91,24.26s14.85-15,17.9-24.26c.5-1.56.93-2.95,1.25-4.09a19.1,19.1,0,0,0,.33-3.15,4.1,4.1,0,0,0,0-.5A19.5,19.5,0,0,0,1004.68,318.87Zm.32,26.6a7,7,0,1,1,7-7A7,7,0,0,1,1005,345.47Z"/><circle class="cls-6" cx="1005" cy="338.47" r="7"/><path class="cls-6" d="M50.5,78.47A50.5,50.5,0,1,0,101,129,50.5,50.5,0,0,0,50.5,78.47Zm17,74.44A5.07,5.07,0,0,1,62.44,158H37.56a5.07,5.07,0,0,1-5.06-5.06V104A5.07,5.07,0,0,1,37.56,99H62.44A5.07,5.07,0,0,1,67.5,104Z"/><path class="cls-3" d="M62.44,99H37.56A5.07,5.07,0,0,0,32.5,104v48.88A5.07,5.07,0,0,0,37.56,158H62.44a5.07,5.07,0,0,0,5.06-5.06V104A5.07,5.07,0,0,0,62.44,99Zm2.06,53.94A2.06,2.06,0,0,1,62.44,155H37.56a2.06,2.06,0,0,1-2.06-2.06V104A2.06,2.06,0,0,1,37.56,102H62.44A2.06,2.06,0,0,1,64.5,104Z"/><path class="cls-6" d="M62.44,102H37.56A2.06,2.06,0,0,0,35.5,104v48.88A2.06,2.06,0,0,0,37.56,155H62.44a2.06,2.06,0,0,0,2.06-2.06V104A2.06,2.06,0,0,0,62.44,102ZM50,152.47a3.75,3.75,0,1,1,3.75-3.75A3.75,3.75,0,0,1,50,152.47Z"/><circle class="cls-3" cx="50" cy="148.72" r="3.75"/></g></g></svg>