<svg xmlns="http://www.w3.org/2000/svg" viewBox="0 0 1499 760.17"><defs><style>.cls-1{fill:#f39c12;}</style></defs><title>mobile-commerce</title><g id="Layer_2" data-name="Layer 2"><g id="Layer_1-2" data-name="Layer 1"><path class="cls-1" d="M645,80.15V90.54c0,.33-.15.49-.44.49a.51.51,0,0,1-.49-.49V80.15a6.23,6.23,0,0,0-1.86-4.56,6.08,6.08,0,0,0-4.47-1.88,6.39,6.39,0,0,0-6.41,6.18V90.54a.24.24,0,0,1,0,.15l-.08.19a.5.5,0,0,1-.37.15c-.3,0-.45-.16-.45-.49V80.15a6.39,6.39,0,0,0-12.77-.26V90.54l-.12.34-.07,0a.36.36,0,0,1-.26.11h-.11a.44.44,0,0,1-.41-.49V80.15a7.56,7.56,0,0,1,.07-.89v-6q0-.48.45-.48t.45.48v3.32a7.23,7.23,0,0,1,6.52-3.8,6.94,6.94,0,0,1,4,1.32,7.16,7.16,0,0,1,2.66,3.44,7.31,7.31,0,0,1,6.89-4.76,6.93,6.93,0,0,1,5.14,2.16A7.15,7.15,0,0,1,645,80.15Z"/><path class="cls-1" d="M673.46,87.47c.2.21.16.44-.11.69A13.81,13.81,0,0,1,664.9,91a13.36,13.36,0,0,1-9.56-3.91,13,13,0,0,1,0-18.66,13.17,13.17,0,0,1,9.56-3.88,13.5,13.5,0,0,1,8.45,2.87c.27.22.32.45.15.67s-.51.3-.71.08a12.5,12.5,0,0,0-7.89-2.65A12.27,12.27,0,0,0,656,69.13a12,12,0,0,0,0,17.34,12.28,12.28,0,0,0,8.87,3.59,12.55,12.55,0,0,0,7.86-2.64A.49.49,0,0,1,673.46,87.47Z"/><path class="cls-1" d="M694.7,75.46a8.1,8.1,0,0,0-6.11-2.68,8,8,0,0,0-6.09,2.68,9.5,9.5,0,0,0,0,12.89A8,8,0,0,0,688.59,91a8.14,8.14,0,0,0,6.11-2.68,9.47,9.47,0,0,0,0-12.89ZM694,87.7a7.24,7.24,0,0,1-5.44,2.4,7.17,7.17,0,0,1-5.42-2.4,8.56,8.56,0,0,1,0-11.59,7.17,7.17,0,0,1,5.42-2.4,7.24,7.24,0,0,1,5.44,2.4,8.53,8.53,0,0,1,0,11.59Z"/><path class="cls-1" d="M732.46,80.15V90.54c0,.33-.14.49-.44.49a.51.51,0,0,1-.49-.49V80.15a6.23,6.23,0,0,0-1.86-4.56,6.08,6.08,0,0,0-4.47-1.88,6.39,6.39,0,0,0-6.41,6.18V90.54a.24.24,0,0,1,0,.15l-.08.19a.5.5,0,0,1-.37.15c-.3,0-.45-.16-.45-.49V80.15a6.39,6.39,0,0,0-12.77-.26V90.54l-.11.34-.08,0a.36.36,0,0,1-.26.11h-.11a.45.45,0,0,1-.41-.49V80.15a7.56,7.56,0,0,1,.07-.89v-6q0-.48.45-.48t.45.48v3.32a7.25,7.25,0,0,1,2.66-2.78,7.35,7.35,0,0,1,3.86-1,6.91,6.91,0,0,1,4,1.32,7.16,7.16,0,0,1,2.66,3.44,7.31,7.31,0,0,1,6.89-4.76,6.93,6.93,0,0,1,5.14,2.16A7.15,7.15,0,0,1,732.46,80.15Z"/><path class="cls-1" d="M767.89,80.15V90.54c0,.33-.15.49-.45.49a.46.46,0,0,1-.33-.15.46.46,0,0,1-.15-.34V80.15a6.2,6.2,0,0,0-1.87-4.56,6.08,6.08,0,0,0-4.47-1.88,6.19,6.19,0,0,0-4.46,1.8,6.13,6.13,0,0,0-1.94,4.38V90.54c0,.08,0,.13,0,.15l-.07.19a.52.52,0,0,1-.38.15c-.29,0-.44-.16-.44-.49V80.15a6.39,6.39,0,0,0-12.78-.26V90.54l-.11.34-.08,0a.36.36,0,0,1-.26.11H740a.45.45,0,0,1-.41-.49V80.15a8.11,8.11,0,0,1,.08-.89v-6c0-.32.15-.48.44-.48s.45.16.45.48v3.32a7.23,7.23,0,0,1,6.52-3.8,6.89,6.89,0,0,1,4,1.32,7.16,7.16,0,0,1,2.66,3.44,7.33,7.33,0,0,1,6.89-4.76,6.92,6.92,0,0,1,5.14,2.16A7.16,7.16,0,0,1,767.89,80.15Z"/><path class="cls-1" d="M788.5,75.2a8.4,8.4,0,0,0-6.07-2.42,8.22,8.22,0,0,0-6.12,2.66,9.16,9.16,0,0,0,0,12.89,8.48,8.48,0,0,0,6.22,2.7,8.2,8.2,0,0,0,4.19-1.14,8.94,8.94,0,0,0,3.14-3,.39.39,0,0,0-.13-.63.42.42,0,0,0-.65.11,7.68,7.68,0,0,1-2.77,2.72,7.43,7.43,0,0,1-3.78,1,7.68,7.68,0,0,1-5.61-2.44,8,8,0,0,1-2.33-5.76v-.11h16.24q.38,0,.45-.45V81.2A8.9,8.9,0,0,0,788.5,75.2Zm-13.87,5.7a8,8,0,0,1,2.63-5.11,7.75,7.75,0,0,1,10.48,0,8.05,8.05,0,0,1,2.61,5.11Z"/><path class="cls-1" d="M807.48,73.26a.43.43,0,0,1-.48.49q-5.52,0-8.42,8.26v8.53c0,.33-.15.49-.45.49s-.44-.16-.44-.49V82a.27.27,0,0,1,0-.22V73.26a.48.48,0,0,1,.13-.33.39.39,0,0,1,.31-.15q.45,0,.45.48v6.18a13.22,13.22,0,0,1,1.15-2.16q3-4.5,7.27-4.5A.42.42,0,0,1,807.48,73.26Z"/><path class="cls-1" d="M827.91,88.4a.43.43,0,0,1,0,.65,9.27,9.27,0,0,1-5.81,2,9.39,9.39,0,0,1-6.63-2.7,8.9,8.9,0,0,1,0-12.87,8.85,8.85,0,0,1,6.35-2.68,9.53,9.53,0,0,1,6.09,2,.46.46,0,0,1,.06.65.42.42,0,0,1-.65.1,8.71,8.71,0,0,0-5.53-1.79,7.89,7.89,0,0,0-5.68,2.4,8.06,8.06,0,0,0,0,11.59,8.25,8.25,0,0,0,6,2.4,8.39,8.39,0,0,0,5.22-1.83A.41.41,0,0,1,827.91,88.4Z"/><path class="cls-1" d="M848.81,75.2a8.42,8.42,0,0,0-6.07-2.42,8.24,8.24,0,0,0-6.13,2.66,9.19,9.19,0,0,0,0,12.89,8.49,8.49,0,0,0,6.22,2.7A8.17,8.17,0,0,0,847,89.89a9,9,0,0,0,3.15-3,.4.4,0,0,0-.13-.63.42.42,0,0,0-.65.11,7.71,7.71,0,0,1-2.78,2.72,7.38,7.38,0,0,1-3.78,1,7.67,7.67,0,0,1-5.6-2.44,8,8,0,0,1-2.33-5.76v-.11h16.24c.25,0,.39-.15.44-.45V81.2A8.89,8.89,0,0,0,848.81,75.2Zm-13.88,5.7a8,8,0,0,1,2.63-5.11,7.76,7.76,0,0,1,10.49,0,8,8,0,0,1,2.6,5.11Z"/><circle class="cls-1" cx="732.25" cy="684" r="30"/><path class="cls-1" d="M703.72,417.69a12.06,12.06,0,0,0,1.6-.82A15.05,15.05,0,0,1,703.72,417.69Zm-2.3.8a13.9,13.9,0,0,0,2.3-.8A16.45,16.45,0,0,1,701.42,418.49Zm-11.95-1.74.31.19h0A1.92,1.92,0,0,1,689.47,416.75Z"/><path class="cls-1" d="M156.87,649a78.55,78.55,0,1,0-.07,10c.14-1.82.2-3.65.2-5.5C157,652,157,650.49,156.87,649ZM78.5,722A68.5,68.5,0,1,1,147,653.5,68.58,68.58,0,0,1,78.5,722Z"/><path class="cls-1" d="M1420.5,289a78.58,78.58,0,0,0-78.3,73H936.75V243.33L1040.07,140h127.09a78.5,78.5,0,1,0,0-10H1035.93l-99.18,99.18v-163a50.39,50.39,0,0,0-50.33-50.33H578.08a50.39,50.39,0,0,0-50.33,50.33V142L430.88,73.91A5,5,0,0,0,428,73H167.8a78.45,78.45,0,1,0,.07,10H426.42l101.33,71.24V173.5H474a15.5,15.5,0,0,0,0,31h22.5a15.5,15.5,0,0,1,0,31h-73a15.5,15.5,0,0,0,0,31H527.75V362H339.87a78.55,78.55,0,1,0-.07,10h188V560.12L438.87,649h-282c.09,1.49.13,3,.13,4.5,0,1.85-.06,3.68-.2,5.5H440.94a5,5,0,0,0,3.54-1.46l83.27-83.27V709.84a50.39,50.39,0,0,0,50.33,50.33H886.42a50.39,50.39,0,0,0,50.33-50.33V700.5H1070.5a15.5,15.5,0,0,0,0-31H997a15.5,15.5,0,0,1,0-31h13.5a15.5,15.5,0,0,0,0-31H936.75V546h165.92L1219,612.9c0,.53,0,1.06,0,1.6a78.49,78.49,0,1,0,1-12.56l-113.52-65.27A5,5,0,0,0,1104,536H936.75V372h405.38a78.5,78.5,0,1,0,78.37-83Zm-175-222.5A68.5,68.5,0,1,1,1177,135,68.58,68.58,0,0,1,1245.5,66.5ZM89.5,147A68.5,68.5,0,1,1,158,78.5,68.58,68.58,0,0,1,89.5,147Zm172,288A68.5,68.5,0,1,1,330,366.5,68.58,68.58,0,0,1,261.5,435ZM916.75,709.84a30.36,30.36,0,0,1-30.33,30.33H578.08a30.36,30.36,0,0,1-30.33-30.33V66.16a30.37,30.37,0,0,1,30.33-30.33H886.42a30.37,30.37,0,0,1,30.33,30.33ZM1297.5,546a68.5,68.5,0,1,1-68.5,68.5A68.58,68.58,0,0,1,1297.5,546Zm123-110a68.5,68.5,0,1,1,68.5-68.5A68.58,68.58,0,0,1,1420.5,436Z"/><path class="cls-1" d="M1216.89,125.86c-1.64-1.19-3.88-2.9-7.38-2.9a12.19,12.19,0,0,0-6.59,1.93,8.31,8.31,0,0,0-3.88,5.29,5.23,5.23,0,0,0,.3,2.94,6.17,6.17,0,0,0,2.91,2.84,17.68,17.68,0,0,0,4.39,1.41h.08a12.1,12.1,0,0,1,4.69,1.75,2.77,2.77,0,0,1,.93,1.08,1.9,1.9,0,0,1,.11,1.16,4.3,4.3,0,0,1-2,2.6,8.76,8.76,0,0,1-4.73,1.34,9.79,9.79,0,0,1-6.48-2.79,2,2,0,0,0-2.68.26,1.84,1.84,0,0,0-.18,2.61A12.84,12.84,0,0,0,1205,149a13.26,13.26,0,0,0,7.08-2.05,8.84,8.84,0,0,0,4.06-5.62,5.22,5.22,0,0,0-.3-3.13,6.58,6.58,0,0,0-3-3,17.58,17.58,0,0,0-4.77-1.53H1208a10.75,10.75,0,0,1-4.29-1.6,2.4,2.4,0,0,1-.78-.93,1.47,1.47,0,0,1-.11-1,3.85,3.85,0,0,1,1.79-2.31,7.8,7.8,0,0,1,4.32-1.19c2.2,0,3.8,1.08,5.44,2.27a1.94,1.94,0,0,0,2.64-.52A1.75,1.75,0,0,0,1216.89,125.86Z"/><path class="cls-1" d="M1240.58,146.24l-4.36-21.94a1.7,1.7,0,0,0-1.75-1.34,2.51,2.51,0,0,0-2.2,1.34l-12.11,21.94a1.84,1.84,0,0,0,.71,2.68,2.56,2.56,0,0,0,.71.11,2.53,2.53,0,0,0,2.16-1.34l2.68-4.81h9.09l1,4.81a1.64,1.64,0,0,0,1.67,1.34,2.72,2.72,0,0,0,.75-.11A2.48,2.48,0,0,0,1240.58,146.24Zm-11.89-7.45,4.4-8,1.6,8Z"/><path class="cls-1" d="M1260.24,144.82h-10.09l3.5-19.89a1.66,1.66,0,0,0-1.68-2.05,2.52,2.52,0,0,0-2.42,2.05l-3.87,21.94a1.68,1.68,0,0,0,1.68,2.08,0,0,0,0,0,0,0s0,0,0,0h12.07a2.63,2.63,0,0,0,2.46-2.08A1.69,1.69,0,0,0,1260.24,144.82Z"/><path class="cls-1" d="M1287.13,123H1275a2.55,2.55,0,0,0-2.42,2l-3.87,22a1.69,1.69,0,0,0,1.71,2h12.14a2.6,2.6,0,0,0,2.42-2,1.7,1.7,0,0,0-1.71-2.08h-10.09l1.23-6.85h8.68a2.52,2.52,0,0,0,2.42-2.05,1.65,1.65,0,0,0-1.68-2h-8.72l1.23-6.85h10.1a2.63,2.63,0,0,0,2.42-2.09A1.69,1.69,0,0,0,1287.13,123Z"/><path class="cls-1" d="M1296.67,122.92a2.57,2.57,0,0,0-2.42,2.08l-2.42,13.79a1.68,1.68,0,0,0,1.67,2.08,2.61,2.61,0,0,0,2.46-2.08l2.42-13.79A1.68,1.68,0,0,0,1296.67,122.92ZM1293,144.08a2.57,2.57,0,0,0-2.42,2l-.15.82a1.69,1.69,0,0,0,1.71,2.05,2.55,2.55,0,0,0,2.42-2.05l.15-.82A1.68,1.68,0,0,0,1293,144.08Z"/><path class="cls-1" d="M1277,109a2,2,0,0,1-2,2h-60a2,2,0,0,1,0-4h60A2,2,0,0,1,1277,109Z"/><path class="cls-1" d="M1277,163a2,2,0,0,1-2,2h-60a2,2,0,0,1,0-4h60A2,2,0,0,1,1277,163Z"/><path class="cls-1" d="M701.42,418.49a13.9,13.9,0,0,0,2.3-.8A16.45,16.45,0,0,1,701.42,418.49Zm2.3-.8a12.06,12.06,0,0,0,1.6-.82A15.05,15.05,0,0,1,703.72,417.69Z"/><path class="cls-1" d="M703.72,417.69a13.9,13.9,0,0,1-2.3.8A16.45,16.45,0,0,0,703.72,417.69Z"/><path class="cls-1" d="M705.32,416.87a12.06,12.06,0,0,1-1.6.82A15.05,15.05,0,0,0,705.32,416.87Z"/><circle class="cls-1" cx="732.25" cy="684" r="30"/><path class="cls-1" d="M642.92,74.94a6.93,6.93,0,0,0-5.14-2.16,7.31,7.31,0,0,0-6.89,4.76,7.16,7.16,0,0,0-2.66-3.44,6.94,6.94,0,0,0-4-1.32,7.23,7.23,0,0,0-6.52,3.8V73.26q0-.48-.45-.48t-.45.48v6a7.56,7.56,0,0,0-.07.89V90.54a.44.44,0,0,0,.41.49h.11a.36.36,0,0,0,.26-.11l.07,0,.12-.34V79.89a6.39,6.39,0,0,1,12.77.26V90.54c0,.33.15.49.45.49a.5.5,0,0,0,.37-.15l.08-.19a.24.24,0,0,0,0-.15V79.89a6.39,6.39,0,0,1,6.41-6.18,6.08,6.08,0,0,1,4.47,1.88,6.23,6.23,0,0,1,1.86,4.56V90.54a.51.51,0,0,0,.49.49c.29,0,.44-.16.44-.49V80.15A7.15,7.15,0,0,0,642.92,74.94Z"/><path class="cls-1" d="M672.76,87.42a12.55,12.55,0,0,1-7.86,2.64A12.28,12.28,0,0,1,656,86.47a12,12,0,0,1,0-17.34,12.27,12.27,0,0,1,8.87-3.58,12.5,12.5,0,0,1,7.89,2.65c.2.22.44.19.71-.08s.12-.45-.15-.67a13.5,13.5,0,0,0-8.45-2.87,13.17,13.17,0,0,0-9.56,3.88,13,13,0,0,0,0,18.66A13.36,13.36,0,0,0,664.9,91a13.81,13.81,0,0,0,8.45-2.87c.27-.25.31-.48.11-.69A.49.49,0,0,0,672.76,87.42Z"/><path class="cls-1" d="M694.7,75.46a8.1,8.1,0,0,0-6.11-2.68,8,8,0,0,0-6.09,2.68,9.5,9.5,0,0,0,0,12.89A8,8,0,0,0,688.59,91a8.14,8.14,0,0,0,6.11-2.68,9.47,9.47,0,0,0,0-12.89ZM694,87.7a7.24,7.24,0,0,1-5.44,2.4,7.17,7.17,0,0,1-5.42-2.4,8.56,8.56,0,0,1,0-11.59,7.17,7.17,0,0,1,5.42-2.4,7.24,7.24,0,0,1,5.44,2.4,8.53,8.53,0,0,1,0,11.59Z"/><path class="cls-1" d="M730.34,74.94a6.93,6.93,0,0,0-5.14-2.16,7.31,7.31,0,0,0-6.89,4.76,7.16,7.16,0,0,0-2.66-3.44,6.91,6.91,0,0,0-4-1.32,7.35,7.35,0,0,0-3.86,1,7.25,7.25,0,0,0-2.66,2.78V73.26q0-.48-.45-.48t-.45.48v6a7.56,7.56,0,0,0-.07.89V90.54a.45.45,0,0,0,.41.49h.11a.36.36,0,0,0,.26-.11l.08,0,.11-.34V79.89A6.13,6.13,0,0,1,707,75.51a6.4,6.4,0,0,1,10.83,4.64V90.54c0,.33.15.49.45.49a.5.5,0,0,0,.37-.15l.08-.19a.24.24,0,0,0,0-.15V79.89a6.39,6.39,0,0,1,6.41-6.18,6.08,6.08,0,0,1,4.47,1.88,6.23,6.23,0,0,1,1.86,4.56V90.54A.51.51,0,0,0,732,91c.3,0,.44-.16.44-.49V80.15A7.15,7.15,0,0,0,730.34,74.94Z"/><path class="cls-1" d="M765.76,74.94a6.92,6.92,0,0,0-5.14-2.16,7.33,7.33,0,0,0-6.89,4.76,7.16,7.16,0,0,0-2.66-3.44,6.89,6.89,0,0,0-4-1.32,7.23,7.23,0,0,0-6.52,3.8V73.26q0-.48-.45-.48c-.29,0-.44.16-.44.48v6a8.11,8.11,0,0,0-.08.89V90.54A.45.45,0,0,0,740,91h.11a.36.36,0,0,0,.26-.11l.08,0,.11-.34V79.89a6.39,6.39,0,0,1,12.78.26V90.54c0,.33.15.49.44.49a.52.52,0,0,0,.38-.15l.07-.19s0-.07,0-.15V79.89a6.13,6.13,0,0,1,1.94-4.38,6.19,6.19,0,0,1,4.46-1.8,6.08,6.08,0,0,1,4.47,1.88A6.2,6.2,0,0,1,767,80.15V90.54a.46.46,0,0,0,.15.34.46.46,0,0,0,.33.15c.3,0,.45-.16.45-.49V80.15A7.16,7.16,0,0,0,765.76,74.94Z"/><path class="cls-1" d="M788.5,75.2a8.4,8.4,0,0,0-6.07-2.42,8.22,8.22,0,0,0-6.12,2.66,9.16,9.16,0,0,0,0,12.89,8.48,8.48,0,0,0,6.22,2.7,8.2,8.2,0,0,0,4.19-1.14,8.94,8.94,0,0,0,3.14-3,.39.39,0,0,0-.13-.63.42.42,0,0,0-.65.11,7.68,7.68,0,0,1-2.77,2.72,7.43,7.43,0,0,1-3.78,1,7.68,7.68,0,0,1-5.61-2.44,8,8,0,0,1-2.33-5.76v-.11h16.24q.38,0,.45-.45V81.2A8.9,8.9,0,0,0,788.5,75.2Zm-13.87,5.7a8,8,0,0,1,2.63-5.11,7.75,7.75,0,0,1,10.48,0,8.05,8.05,0,0,1,2.61,5.11Z"/><path class="cls-1" d="M807,72.78q-4.25,0-7.27,4.5a13.22,13.22,0,0,0-1.15,2.16V73.26q0-.48-.45-.48a.39.39,0,0,0-.31.15.48.48,0,0,0-.13.33v8.53a.27.27,0,0,0,0,.22v8.53c0,.33.14.49.44.49s.45-.16.45-.49V82q2.91-8.26,8.42-8.26a.43.43,0,0,0,.48-.49A.42.42,0,0,0,807,72.78Z"/><path class="cls-1" d="M827.3,88.27a8.39,8.39,0,0,1-5.22,1.83,8.25,8.25,0,0,1-6-2.4,8.2,8.2,0,0,1,5.68-14,8.71,8.71,0,0,1,5.53,1.79.42.42,0,0,0,.65-.1.46.46,0,0,0-.06-.65,9.53,9.53,0,0,0-6.09-2,8.85,8.85,0,0,0-6.35,2.68,8.9,8.9,0,0,0,0,12.87,9.39,9.39,0,0,0,6.63,2.7,9.27,9.27,0,0,0,5.81-2,.43.43,0,0,0,0-.65A.41.41,0,0,0,827.3,88.27Z"/><path class="cls-1" d="M848.81,75.2a8.42,8.42,0,0,0-6.07-2.42,8.24,8.24,0,0,0-6.13,2.66,9.19,9.19,0,0,0,0,12.89,8.49,8.49,0,0,0,6.22,2.7A8.17,8.17,0,0,0,847,89.89a9,9,0,0,0,3.15-3,.4.4,0,0,0-.13-.63.42.42,0,0,0-.65.11,7.71,7.71,0,0,1-2.78,2.72,7.38,7.38,0,0,1-3.78,1,7.67,7.67,0,0,1-5.6-2.44,8,8,0,0,1-2.33-5.76v-.11h16.24c.25,0,.39-.15.44-.45V81.2A8.89,8.89,0,0,0,848.81,75.2Zm-13.88,5.7a8,8,0,0,1,2.63-5.11,7.76,7.76,0,0,1,10.49,0,8,8,0,0,1,2.6,5.11Z"/><path class="cls-1" d="M861.25,275.16a5,5,0,0,0-6.09,3.59L844,322l-3.87,14.95L833.57,362,831,372l-3,11.41L721.65,395.32A25.55,25.55,0,0,0,697.5,378h-.24l-1.41-6-2.34-10-21.64-92.14a5,5,0,0,0-2.7-3.36l-7.65-3.68L615.17,240.5a5,5,0,0,0-4.34,9l35.3,17,16.55,8L683.23,362l2.35,10,1.9,8.06a25.49,25.49,0,0,0,.07,46.91l-6.23,28a20.5,20.5,0,1,0,20.17,25h91a20.5,20.5,0,1,0,.25-10H701.24A20.54,20.54,0,0,0,691,457.36l6.3-28.36h.16a25.54,25.54,0,0,0,25.44-23.76L832.56,393a5,5,0,0,0,4.28-3.72L841.31,372l2.59-10,9-34.86,5-19.12,6.94-26.77A5,5,0,0,0,861.25,275.16ZM803.56,470a10.5,10.5,0,1,1-.54,10,10.28,10.28,0,0,1-1-4.5A10.41,10.41,0,0,1,803.56,470ZM692,475.5a10.28,10.28,0,0,1-1,4.5,10.51,10.51,0,1,1-2.28-12.13,10.2,10.2,0,0,1,1.74,2.13A10.41,10.41,0,0,1,692,475.5Zm20.84-69.82c0,.23-.07.47-.12.7a6.69,6.69,0,0,1-.16.75c0,.15-.07.3-.11.45s-.11.39-.17.59q-.18.56-.39,1.08c-.07.2-.16.39-.25.59s-.27.58-.42.86l-.23.42a3.38,3.38,0,0,1-.24.41,8.18,8.18,0,0,1-.45.69c-.16.25-.34.5-.53.74l-.36.45c-.26.31-.53.6-.8.89-.14.14-.28.29-.43.42s-.29.27-.44.4l-.45.39a14.69,14.69,0,0,1-2,1.36,12.06,12.06,0,0,1-1.6.82,13.9,13.9,0,0,1-2.3.8l-.6.14a6,6,0,0,1-.61.12l-.61.1a14.62,14.62,0,0,1-2.1.15c-.3,0-.61,0-.91,0l-.72-.06a5,5,0,0,1-.54-.07l-.49-.08a6.68,6.68,0,0,1-.89-.18,4.37,4.37,0,0,1-.49-.12c-.32-.08-.62-.17-.93-.28s-.61-.22-.9-.34-.63-.27-.94-.42c-.14-.06-.28-.14-.42-.21l-.34-.19-.15-.08-.31-.19a4.66,4.66,0,0,1-.47-.3c-.21-.13-.41-.27-.61-.42l-.37-.28c-.25-.19-.49-.39-.72-.59s-.51-.46-.76-.7-.42-.44-.62-.67-.47-.55-.69-.83-.44-.59-.65-.9-.23-.35-.33-.53a3.79,3.79,0,0,1-.2-.34c-.11-.19-.22-.37-.31-.56s-.23-.46-.33-.69a9.28,9.28,0,0,1-.37-.86c-.06-.15-.12-.3-.17-.46s-.15-.44-.21-.66a3.31,3.31,0,0,1-.12-.42c0-.13-.07-.26-.1-.39a4.54,4.54,0,0,1-.12-.53c-.06-.25-.1-.51-.14-.76s-.08-.52-.1-.78,0-.35,0-.53,0-.29,0-.44,0-.41,0-.61,0-.41,0-.61,0-.29,0-.44,0-.44.06-.66,0-.48.09-.72q.12-.74.3-1.44a13.92,13.92,0,0,1,.43-1.39c.09-.26.19-.52.3-.77a6.28,6.28,0,0,1,.27-.59c.09-.2.19-.4.29-.59s.18-.33.28-.49a12.07,12.07,0,0,1,.74-1.17q.24-.36.51-.69t.63-.75c.22-.25.45-.49.69-.73a15.42,15.42,0,0,1,3.19-2.42l0,0,.63-.34c.18-.1.38-.18.56-.27a15.21,15.21,0,0,1,2.58-.92c.25-.07.5-.12.75-.17a3.25,3.25,0,0,1,.43-.08h0a4.85,4.85,0,0,1,.55-.09c.35,0,.7-.09,1.06-.11l.44,0c.2,0,.41,0,.61,0s.41,0,.61,0l.42,0c.38,0,.75.06,1.12.11l.3.05a3.84,3.84,0,0,1,.59.11,11.26,11.26,0,0,1,1.39.34q.33.09.66.21c.22.07.43.15.64.24s.66.27,1,.43.52.26.77.4l.54.32a3.54,3.54,0,0,1,.41.26s0,0,.06,0c.22.14.44.29.65.45l.32.24a11.64,11.64,0,0,1,1,.85c.22.2.44.41.65.63s.41.43.6.66l.49.6c.15.2.3.39.44.6A12.81,12.81,0,0,1,711,396l.12.22c.06.1.11.2.16.3l0,.07c.09.17.17.34.25.52.16.34.3.69.43,1s.19.52.27.78.15.49.21.74.12.5.17.75a12.94,12.94,0,0,1,.22,1.41c0,.13,0,.26,0,.39a2.69,2.69,0,0,1,0,.4c0,.3,0,.61,0,.92A14.25,14.25,0,0,1,712.84,405.68Z"/><path class="cls-1" d="M807.25,332h-76.5a7.76,7.76,0,0,0-7.75,7.75v29.5a7.63,7.63,0,0,0,.51,2.75,7.76,7.76,0,0,0,7.24,5h76.5a7.76,7.76,0,0,0,7.24-5,7.63,7.63,0,0,0,.51-2.75v-29.5A7.76,7.76,0,0,0,807.25,332ZM809,369.25a1.76,1.76,0,0,1-1.75,1.75h-76.5a1.76,1.76,0,0,1-1.75-1.75v-29.5a1.76,1.76,0,0,1,1.75-1.75h76.5a1.76,1.76,0,0,1,1.75,1.75Z"/><path class="cls-1" d="M819.25,288h-44.5a7.76,7.76,0,0,0-7.75,7.75v19.5a7.76,7.76,0,0,0,7.75,7.75h44.5a7.76,7.76,0,0,0,7.75-7.75v-19.5A7.76,7.76,0,0,0,819.25,288ZM821,315.25a1.76,1.76,0,0,1-1.75,1.75h-44.5a1.76,1.76,0,0,1-1.75-1.75v-19.5a1.76,1.76,0,0,1,1.75-1.75h44.5a1.76,1.76,0,0,1,1.75,1.75Z"/><path class="cls-1" d="M276.74,353.11c-.19.24-.44.54-.74.89h-7a33.47,33.47,0,0,0,3.83-4c3.9-4.8,5.4-8.75,5.63-10.46-1.33.55-4.1,2.38-7.48,6.54a31.87,31.87,0,0,0-4.9,8h-6.2a31.87,31.87,0,0,0-4.9-8c-3.38-4.16-6.15-6-7.48-6.54.23,1.71,1.73,5.66,5.63,10.46a33.47,33.47,0,0,0,3.83,4h-7c-.3-.35-.55-.65-.74-.89-3.67-4.52-9-13.26-5.73-17.29a4.12,4.12,0,0,1,3.29-1.5c2.37,0,5,1.64,7.2,3.53a40,40,0,0,1,4.86,5A43,43,0,0,1,263,349a43,43,0,0,1,4.12-6.08c1.63-2,7.32-8.57,12.06-8.57a4.12,4.12,0,0,1,3.29,1.5C285.75,339.85,280.41,348.59,276.74,353.11Z"/><rect class="cls-1" x="237" y="357" width="23" height="15"/><rect class="cls-1" x="237" y="377" width="23" height="15"/><rect class="cls-1" x="266" y="357" width="23" height="15"/><rect class="cls-1" x="266" y="377" width="23" height="15"/><path class="cls-1" d="M113.17,62.5h-2.06L107,48.16a5.32,5.32,0,0,0-6.6-3.64L54.89,57.62a5.34,5.34,0,0,0-3.65,6.6l5.62,19.52a5.31,5.31,0,0,0,2.55,3.19,5.37,5.37,0,0,0,2.09.65v2.59a4.33,4.33,0,0,0,4.33,4.33h47.34a4.33,4.33,0,0,0,4.33-4.33V66.83A4.33,4.33,0,0,0,113.17,62.5ZM61.5,66.83V85.55a3.22,3.22,0,0,1-1.12-.37,3.33,3.33,0,0,1-1.6-2L53.16,63.66a3.34,3.34,0,0,1,2.28-4.12l45.49-13.1a3.2,3.2,0,0,1,.92-.13,3.38,3.38,0,0,1,1.61.41,3.28,3.28,0,0,1,1.59,2l4,13.78H65.83A4.33,4.33,0,0,0,61.5,66.83ZM95,69.5A1.5,1.5,0,0,1,93.5,71h-8a1.5,1.5,0,0,1,0-3h8A1.5,1.5,0,0,1,95,69.5Zm-15,0A1.5,1.5,0,0,1,78.5,71h-8a1.5,1.5,0,0,1,0-3h8A1.5,1.5,0,0,1,80,69.5Zm-11,8A1.5,1.5,0,0,1,70.5,76h39a1.5,1.5,0,0,1,0,3h-39A1.5,1.5,0,0,1,69,77.5ZM95.5,90h-8a1.5,1.5,0,0,1,0-3h8a1.5,1.5,0,0,1,0,3Zm15,0h-8a1.5,1.5,0,0,1,0-3h8a1.5,1.5,0,0,1,0,3Z"/><path class="cls-1" d="M1333,596h-18v18h-54v18h7a8,8,0,0,0,16,0h35a8,8,0,0,0,16,0h7V614Zm-57,41a5,5,0,1,1,5-5A5,5,0,0,1,1276,637Zm51,0a5,5,0,1,1,5-5A5,5,0,0,1,1327,637Zm-7.42-27V600h10.84l5,10Z"/><rect class="cls-1" x="1271" y="604" width="16" height="8"/><rect class="cls-1" x="1289" y="604" width="23" height="8"/><rect class="cls-1" x="1301" y="594" width="11" height="8"/><rect class="cls-1" x="1288" y="594" width="11" height="8"/><rect class="cls-1" x="1275" y="594" width="11" height="8"/><path class="cls-1" d="M86.34,654.24a5.06,5.06,0,0,1-6.68,0A4.82,4.82,0,0,1,78.5,651a.53.53,0,0,1,.53-.47.51.51,0,0,1,.47.53,3.82,3.82,0,0,0,.9,2.53,4.08,4.08,0,0,0,5.21,0A3.81,3.81,0,0,0,86.5,651a.5.5,0,0,1,1-.06A4.82,4.82,0,0,1,86.34,654.24Z"/><path class="cls-1" d="M86.34,654.24a5.06,5.06,0,0,1-6.68,0A4.82,4.82,0,0,1,78.5,651a.53.53,0,0,1,.53-.47.51.51,0,0,1,.47.53,3.82,3.82,0,0,0,.9,2.53,4.08,4.08,0,0,0,5.21,0A3.81,3.81,0,0,0,86.5,651a.5.5,0,0,1,1-.06A4.82,4.82,0,0,1,86.34,654.24Z"/><path class="cls-1" d="M98.25,635.19C96.9,631.07,94,630,90.32,630H65.68c-3.63,0-6.58,1.07-7.93,5.19L51,673.81c0,2.87,3,5.19,6.58,5.19H98.42c3.63,0,6.58-2.32,6.58-5.19ZM95.1,678.83H70.9a3.7,3.7,0,0,1-3.9-3.46l4-25.74a4.32,4.32,0,0,1,4.7-3.46H90.3a4.32,4.32,0,0,1,4.7,3.46l4,25.74A3.7,3.7,0,0,1,95.1,678.83Z"/><path class="cls-1" d="M88,627.05a1,1,0,1,1-2-.1s.16-4.23-2.32-6.83A7.56,7.56,0,0,0,78,618a7.53,7.53,0,0,0-5.69,2.13C69.82,622.75,70,626.91,70,627a1,1,0,0,1-1,1h0a1,1,0,0,1-1-1c0-.21-.22-5.07,2.85-8.3A9.45,9.45,0,0,1,78,616a9.45,9.45,0,0,1,7.14,2.75C88.21,622,88,626.84,88,627.05Z"/><path class="cls-1" d="M86.34,654.24a5.06,5.06,0,0,1-6.68,0A4.82,4.82,0,0,1,78.5,651a.53.53,0,0,1,.53-.47.51.51,0,0,1,.47.53,3.82,3.82,0,0,0,.9,2.53,4.08,4.08,0,0,0,5.21,0A3.81,3.81,0,0,0,86.5,651a.5.5,0,0,1,1-.06A4.82,4.82,0,0,1,86.34,654.24Z"/><path class="cls-1" d="M1458.7,385.08a2,2,0,0,0-2.55-1.21l-1.46.52-25.1,9a9.53,9.53,0,0,0-8.92-4.45l-12.31-34.36-7.86-21.94a2,2,0,0,0-1-1.13,2,2,0,0,0-1.53-.07l-15,5.36a2,2,0,0,0,1.35,3.77l1.46-.52,11.63-4.17,5.43,15.15,14,39.1a9.5,9.5,0,1,0,14.08,7l26.57-9.52A2,2,0,0,0,1458.7,385.08Zm-35.32,18.51a5.5,5.5,0,0,1-5.14-9.59,5.4,5.4,0,0,1,1.42-.77,2.91,2.91,0,0,1,.39-.12,5.29,5.29,0,0,1,1.46-.2,4,4,0,0,1,.6,0,5.49,5.49,0,0,1,4.59,3.6,5.27,5.27,0,0,1,.31,2A5.5,5.5,0,0,1,1423.38,403.59Z"/><path class="cls-1" d="M1450.92,382a1.28,1.28,0,0,1-.35.18l-19.45,7a1.66,1.66,0,0,1-2.13-1l-3.27-9.1a1.66,1.66,0,0,1,1-2.13l10.47-3.75,9-3.22a1.66,1.66,0,0,1,2.13,1l3.26,9.1A1.65,1.65,0,0,1,1450.92,382Z"/><path class="cls-1" d="M1440.47,368.78l-6.45,2.31-7.36,2.64a1.66,1.66,0,0,1-2.13-1l-2.92-8.16a1.62,1.62,0,0,1,.12-1.38,1.6,1.6,0,0,1,.88-.75l13.81-4.95a1.67,1.67,0,0,1,2.13,1l2.92,8.16A1.67,1.67,0,0,1,1440.47,368.78Z"/></g></g></svg>