<?xml version="1.0" encoding="utf-8"?>
<!-- Generator: Adobe Illustrator 23.0.1, SVG Export Plug-In . SVG Version: 6.00 Build 0)  -->
<svg version="1.1" id="Layer_1" xmlns="http://www.w3.org/2000/svg" xmlns:xlink="http://www.w3.org/1999/xlink" x="0px" y="0px"
	 viewBox="0 0 1102 757" style="enable-background:new 0 0 1102 757;" xml:space="preserve">
<style type="text/css">
	.st0{fill:#E67E22;}
	.st1{fill:#FFFFFF;}
</style>
<title>reports-and-analytics</title>
<g>
	<g id="Layer_2-2">
		<path class="st0" d="M835.5,44.9v281.5l-25,23.8V44.9c0-11-8.9-19.8-19.9-19.9H312.4c-11,0-19.8,8.9-19.9,19.9v462.9l-25,23.8
			V225.3H124.9c-9.3,0.2-17.1-7.2-17.3-16.5c-0.2-9.4,7.2-17.1,16.5-17.3c0.3,0,0.5,0,0.8,0h79.8c9.4,0,16.9-7.6,16.9-16.9
			s-7.6-16.9-16.9-16.9h-24.6c-9.3,0.2-17.1-7.2-17.3-16.5c-0.2-9.4,7.2-17.1,16.5-17.3c0.3,0,0.5,0,0.8,0h87.4V44.9
			c0-24.8,20.1-44.8,44.9-44.9h478.3C815.4,0,835.5,20.1,835.5,44.9z"/>
		<path class="st0" d="M986,653.4L986,653.4c0,9.4-7.6,16.9-16.9,17c0,0,0,0,0,0H835.5v17.3c0,24.8-20.1,44.8-44.9,44.9H312.4
			c-24.8,0-44.8-20.1-44.9-44.9V556.3l25-23.8v155.1c0,11,8.9,19.8,19.9,19.9h478.3c11,0,19.8-8.9,19.9-19.9V374.9l25-23.8v217.6h68
			c9.3-0.2,17.1,7.2,17.3,16.5c0.2,9.4-7.2,17.1-16.5,17.3c-0.3,0-0.5,0-0.8,0h-14.8c-9.4,0-16.9,7.6-16.9,16.9s7.6,16.9,16.9,16.9
			h80.3C978.4,636.4,986,644,986,653.4z"/>
		<path class="st0" d="M755.5,134.5c0,5.5-4.5,10-10,10h-388c-5.5,0-10-4.5-10-10s4.5-10,10-10h388C751,124.5,755.5,129,755.5,134.5
			z"/>
		<path class="st0" d="M755.5,231.1c0,5.5-4.5,10-10,10H473c-5.5,0-10-4.5-10-10s4.5-10,10-10h272.5
			C751,221.1,755.5,225.6,755.5,231.1z"/>
		<path class="st0" d="M755.5,333c0,5.5-4.5,10-10,10h-141c-5.5,0-10-4.5-10-10s4.5-10,10-10h141C751,323,755.5,327.5,755.5,333z"/>
		<path class="st1" d="M810.5,350.2L810.5,350.2l25-23.8v0L810.5,350.2z"/>
		<path class="st1" d="M1099.8,343.4c-0.1-0.2-0.3-0.3-0.4-0.4l-81.5-77.6c22.9-32.5,15.2-77.4-17.3-100.3
			c-32.5-22.9-77.4-15.2-100.3,17.3c-17.4,24.7-17.6,57.8-0.3,82.6l-64.4,61.3v0l-25,23.8v0L644.2,508.5
			c-27.4-24.7-69.1-24.7-96.4,0.1l-68.3-65c22.4-32.8,14-77.6-18.9-100.1c-32.8-22.4-77.6-14-100.1,18.9
			c-16.6,24.4-16.7,56.4-0.2,80.8l-67.8,64.5l-25,23.8L161.9,632.1c-23.5-21.8-59.7-25.8-87.9-7.6c-3.6,2.3-7,5-10.1,7.9l-48.2-45.9
			c-3.7-3.4-9.3-3.4-13,0c-3.4,3.2-3.6,8.5-0.4,12c0.1,0.2,0.3,0.3,0.4,0.4l49.7,47.3c-21.5,33.5-11.8,78,21.7,99.5
			c33.5,21.5,78,11.8,99.5-21.7c15.3-23.8,15.2-54.3-0.2-78.1h0l94.1-89.6l25-23.8l79.6-75.8c27.1,24.3,68.2,24.4,95.4,0.3
			l68.4,65.2c-22,33.1-13,77.8,20.1,99.8c33.1,22,77.8,13,99.8-20.1c16.1-24.2,16-55.6-0.1-79.8l154.6-147.2l25-23.8l76.4-72.7
			c26.9,23.3,66.8,23.5,93.8,0.3l80.6,76.7c3.7,3.4,9.3,3.4,13,0C1102.7,352.2,1102.9,346.9,1099.8,343.4z M113,737
			c-28.7,0-52-23.3-52-52s23.3-52,52-52s52,23.3,52,52C165,713.7,141.7,737,113,737z M464.7,429.5c-3.1,5.2-7,9.8-11.7,13.6
			c-22.2,18.2-55,15-73.2-7.2c-18.2-22.2-15-55,7.2-73.2c22.2-18.2,55-15,73.2,7.2C474.1,386.9,475.9,410.7,464.7,429.5z M596,614
			c-28.7,0-52-23.3-52-52s23.3-52,52-52s52,23.3,52,52C648,590.7,624.7,614,596,614z M1003.1,251.5L1003.1,251.5
			c-3.2,5.1-7.2,9.6-12,13.4c-19,15-45.8,14.9-64.7-0.3c-4.7-3.8-8.7-8.3-11.9-13.5c-15-24.5-7.2-56.5,17.3-71.5
			c24.5-15,56.5-7.2,71.5,17.3C1013.6,213.7,1013.5,234.8,1003.1,251.5z"/>
	</g>
</g>
</svg>
