<svg xmlns="http://www.w3.org/2000/svg" viewBox="0 0 1323 707"><defs><style>.cls-1{fill:#e67e22;}.cls-2{fill:#fff;}</style></defs><title>rich-ecommerce-design</title><g id="Layer_2" data-name="Layer 2"><g id="Layer_1-2" data-name="Layer 1"><path class="cls-1" d="M1305.37,620.58h-83.64c-9.74,0-17.64-8.43-17.64-18.83a19.5,19.5,0,0,1,5.16-13.32,17.08,17.08,0,0,1,12.48-5.51h15.35a17.08,17.08,0,0,0,12.48-5.52,19.48,19.48,0,0,0,5.17-13.32c0-10.4-7.91-18.83-17.65-18.83h-86.26V44.86c0-24.77-18.81-44.86-42-44.86H197.33c-23.2,0-42,20.09-42,44.86V60.25H75.1a17,17,0,0,0-12.47,5.52,19.41,19.41,0,0,0-5.17,13.31c0,10.4,7.9,18.84,17.64,18.84h25.6c9.74,0,17.65,8.43,17.65,18.83a19.5,19.5,0,0,1-5.17,13.32,17.08,17.08,0,0,1-12.48,5.51H17.63A17,17,0,0,0,5.17,141.1,19.44,19.44,0,0,0,0,154.42c0,10.4,7.89,18.83,17.63,18.83H155.32V662.14c0,24.77,18.81,44.86,42,44.86h911.48c23.2,0,42-20.09,42-44.86v-3.89h154.55a17,17,0,0,0,12.46-5.52,19.41,19.41,0,0,0,5.17-13.31C1323,629,1315.11,620.58,1305.37,620.58Zm-178,41.56c0,11-8.34,19.86-18.6,19.86H197.33c-10.25,0-18.6-8.91-18.6-19.86V44.86c0-11,8.35-19.86,18.6-19.86h911.48c10.26,0,18.6,8.91,18.6,19.86Z"/><circle class="cls-1" cx="261" cy="353.5" r="34"/><path class="cls-2" d="M767.5,249.06a7.35,7.35,0,0,0-8.94,5.27l-16.44,63.4-5.68,21.93-9.55,36.79-3.8,14.67-4.34,16.73-156,17.48a37.48,37.48,0,0,0-35.43-25.41h-.35l-2.07-8.81-3.43-14.67L489.69,241.29a7.3,7.3,0,0,0-4-4.93L474.51,231l-68-32.74a7.33,7.33,0,1,0-6.37,13.2l51.78,24.94,24.28,11.69,30.15,128.4,3.44,14.67,2.79,11.82a37.38,37.38,0,0,0,.1,68.81l-9.14,41.14a30.07,30.07,0,1,0,29.59,36.66H666.66a30.08,30.08,0,1,0,.37-14.67H532.78a30.15,30.15,0,0,0-15-18.55l9.24-41.6h.24a37.47,37.47,0,0,0,37.32-34.85l160.8-18a7.33,7.33,0,0,0,6.28-5.46l6.56-25.3,3.8-14.67,13.26-51.14,7.27-28.05L772.76,258A7.32,7.32,0,0,0,767.5,249.06ZM682.87,534.88a15.41,15.41,0,1,1-.79,14.67,15.09,15.09,0,0,1-1.5-6.61A15.25,15.25,0,0,1,682.87,534.88Zm-163.65,8.06a15.22,15.22,0,0,1-1.49,6.61,15.42,15.42,0,1,1-3.35-17.8,15.41,15.41,0,0,1,4.84,11.19ZM527,461.25a24,24,0,1,1,24-24A24,24,0,0,1,527,461.25Z"/><path class="cls-2" d="M688.28,332.44H576.06a11.39,11.39,0,0,0-11.36,11.37v43.27a11.36,11.36,0,0,0,11.36,11.37H688.28a11.36,11.36,0,0,0,11.37-11.37V343.81A11.39,11.39,0,0,0,688.28,332.44Zm2.57,54.64a2.58,2.58,0,0,1-2.57,2.57H576.06a2.58,2.58,0,0,1-2.56-2.57V343.81a2.58,2.58,0,0,1,2.56-2.57H688.28a2.58,2.58,0,0,1,2.57,2.57Z"/><path class="cls-2" d="M705.89,267.9H640.61a11.39,11.39,0,0,0-11.37,11.36v28.61a11.4,11.4,0,0,0,11.37,11.37h65.28a11.4,11.4,0,0,0,11.37-11.37V279.26A11.39,11.39,0,0,0,705.89,267.9Zm2.56,40a2.57,2.57,0,0,1-2.56,2.57H640.61a2.58,2.58,0,0,1-2.57-2.57V279.26a2.58,2.58,0,0,1,2.57-2.56h65.28a2.57,2.57,0,0,1,2.56,2.56Z"/><path class="cls-2" d="M914,65.75H444a19.5,19.5,0,0,0,0,39H914a19.5,19.5,0,0,0,0-39Zm0,34H444a14.5,14.5,0,0,1,0-29H914a14.5,14.5,0,0,1,0,29Z"/><path class="cls-2" d="M1093,210.75a13.76,13.76,0,0,1-13.75,13.75H925.75a13.75,13.75,0,0,1,0-27.5h153.5A13.76,13.76,0,0,1,1093,210.75Z"/><path class="cls-2" d="M1093,271.75a13.76,13.76,0,0,1-13.75,13.75H925.75a13.75,13.75,0,0,1,0-27.5h153.5A13.76,13.76,0,0,1,1093,271.75Z"/><path class="cls-2" d="M1079.25,316.5H925.75a16.25,16.25,0,0,0,0,32.5h153.5a16.25,16.25,0,0,0,0-32.5Zm0,27.5H925.75a11.25,11.25,0,0,1,0-22.5h153.5a11.25,11.25,0,0,1,0,22.5Z"/><path class="cls-2" d="M1079.25,377.5H925.75a16.25,16.25,0,0,0,0,32.5h153.5a16.25,16.25,0,0,0,0-32.5Zm0,27.5H925.75a11.25,11.25,0,0,1,0-22.5h153.5a11.25,11.25,0,0,1,0,22.5Z"/><path class="cls-2" d="M1093,454.75a13.76,13.76,0,0,1-13.75,13.75H925.75a13.75,13.75,0,0,1,0-27.5h153.5A13.76,13.76,0,0,1,1093,454.75Z"/></g></g></svg>