<svg xmlns="http://www.w3.org/2000/svg" viewBox="0 0 820.08 733.52"><defs><style>.cls-1{fill:#e67e22;}.cls-2{fill:#fff;}</style></defs><title>social-commerce_1</title><g id="Layer_2" data-name="Layer 2"><g id="Layer_1-2" data-name="Layer 1"><path class="cls-1" d="M648.18,396.92H582.62a13.82,13.82,0,1,1,0-27.64h12a13.83,13.83,0,1,0,0-27.65H537.58l19.07-73.55a10.83,10.83,0,0,0-21-5.41L476.85,489.5,246.31,515.31A55.36,55.36,0,0,0,194,477.77a4.61,4.61,0,0,0-.52,0l-55-234.39a10.85,10.85,0,0,0-5.86-7.28l-117-56.35a10.83,10.83,0,1,0-9.41,19.5l112.38,54.12,53.75,228.85A55.46,55.46,0,0,0,150,499.63H79.86a13.83,13.83,0,0,0,0,27.65H99.93a13.82,13.82,0,1,1,0,27.64H34.82a13.83,13.83,0,0,0,0,27.65h134.7c.95.48,1.91.92,2.89,1.34l-13.5,60.77a44.42,44.42,0,1,0,43.71,54.16H399.89a44.42,44.42,0,1,0,.54-21.67H202.08A44.54,44.54,0,0,0,180,649.77l13.66-61.46H194a55,55,0,0,0,24.51-5.74,55.7,55.7,0,0,0,25.64-26.31,54.9,54.9,0,0,0,5-19.45l237.58-26.59a10.83,10.83,0,0,0,9.28-8.07l20.1-77.58H648.18a13.83,13.83,0,0,0,0-27.65ZM423.84,677.17a22.76,22.76,0,1,1-1.17,21.67,22.67,22.67,0,0,1,1.17-21.67ZM182.05,689.09a22.28,22.28,0,0,1-2.21,9.75,22.77,22.77,0,1,1-4.94-26.29,21.84,21.84,0,0,1,3.77,4.62A22.49,22.49,0,0,1,182.05,689.09ZM194,567.1a34,34,0,1,1,34-34A34,34,0,0,1,194,567.1Z"/><path class="cls-2" d="M346.72,445.09l-8.05-76.58A17,17,0,0,0,320,353.38l-76.58,8a17,17,0,0,0-15.13,18.69l8,76.58a17,17,0,0,0,16.88,15.22c.6,0,1.2,0,1.81-.09l76.58-8A17,17,0,0,0,346.72,445.09Zm-16.18,8.74-76.58,8a7,7,0,0,1-7.69-6.23l-8-76.58a7,7,0,0,1,6.23-7.69l76.58-8a6.12,6.12,0,0,1,.74,0,7,7,0,0,1,7,6.27l8,76.58A7,7,0,0,1,330.54,453.83Z"/><path class="cls-2" d="M389.94,69.5A16.91,16.91,0,0,0,379.32,62l-75.1-17a17,17,0,0,0-20.34,12.82l-17,75.1a17,17,0,0,0,12.82,20.34l75.1,17a17.33,17.33,0,0,0,3.76.42,17,17,0,0,0,16.58-13.24l17-75.1A16.9,16.9,0,0,0,389.94,69.5Zm-7.55,10.61-17,75.09a7,7,0,0,1-8.37,5.28l-75.1-17a7,7,0,0,1-5.27-8.37l17-75.1A7,7,0,0,1,302,54.72l75.1,17a7,7,0,0,1,5.28,8.37Z"/><path class="cls-2" d="M461.26,272.14l-76.63-7.55a17,17,0,0,0-18.58,15.25l-7.56,76.63a17,17,0,0,0,15.25,18.59l76.63,7.55a16.12,16.12,0,0,0,1.7.08A17,17,0,0,0,469,367.36l7.56-76.63A17,17,0,0,0,461.26,272.14Zm5.3,17.61L459,366.38a7,7,0,0,1-7.65,6.28l-76.63-7.56a7,7,0,0,1-6.28-7.65L376,280.82a7,7,0,0,1,6.95-6.31c.23,0,.47,0,.7,0l76.63,7.56A7,7,0,0,1,466.56,289.75Z"/><path class="cls-2" d="M527.71,145.76a16.88,16.88,0,0,0-10-8.37l-73.41-23.24A17,17,0,0,0,423,125.22l-23.23,73.41A17,17,0,0,0,410.84,220l73.41,23.24a17,17,0,0,0,21.34-11.07l23.24-73.41A16.92,16.92,0,0,0,527.71,145.76Zm-8.42,10-23.24,73.41a7,7,0,0,1-8.78,4.56l-73.41-23.24a7,7,0,0,1-4.56-8.79l23.24-73.41a7,7,0,0,1,8.79-4.56l73.4,23.24a7,7,0,0,1,4.56,8.79Z"/><path class="cls-2" d="M634.59,40.79,567.91,2.29a17,17,0,0,0-23.22,6.22l-38.5,66.68a17,17,0,0,0,6.22,23.22l66.68,38.5a17,17,0,0,0,23.22-6.22L640.81,64A17,17,0,0,0,634.59,40.79ZM632.15,59l-38.5,66.68a7,7,0,0,1-9.56,2.56l-66.68-38.5a7,7,0,0,1-2.56-9.56l38.5-66.68A7,7,0,0,1,562.91,11l66.68,38.5A7,7,0,0,1,632.15,59Z"/><path class="cls-2" d="M716.44,197.94l-56.57-52.23a17,17,0,0,0-24,.95l-52.23,56.57a17,17,0,0,0,.95,24l56.57,52.23A16.85,16.85,0,0,0,652.65,284h.69a16.92,16.92,0,0,0,11.82-5.45L717.39,222a17,17,0,0,0-.95-24Zm-6.39,17.24-52.24,56.57a7,7,0,0,1-9.89.4l-56.57-52.24A7,7,0,0,1,591,210l52.24-56.57a7,7,0,0,1,4.87-2.25h.28a7,7,0,0,1,4.74,1.85l56.57,52.24A7,7,0,0,1,710.05,215.18Z"/><path class="cls-2" d="M818.32,92.49l-34.16-69a17,17,0,0,0-22.77-7.7l-69,34.16a17,17,0,0,0-7.7,22.77l34.16,69a16.9,16.9,0,0,0,9.79,8.57,17.17,17.17,0,0,0,5.46.9,16.88,16.88,0,0,0,7.52-1.77l69-34.16A17,17,0,0,0,818.32,92.49ZM806.19,106.3l-69,34.16a7,7,0,0,1-9.38-3.17l-34.16-69a7,7,0,0,1,3.17-9.38l69-34.16a6.91,6.91,0,0,1,5.35-.35,6.93,6.93,0,0,1,4,3.52l34.16,69A7,7,0,0,1,806.19,106.3Z"/><path class="cls-2" d="M322.12,269.29,302,195a17,17,0,0,0-20.84-12l-74.34,20.09a17,17,0,0,0-12,20.84L215,298.25a17,17,0,0,0,20.84,12l74.34-20.09A17,17,0,0,0,322.12,269.29Zm-14.58,11.19-21.88,5.91-8.06-28.92,10.73-3-2.08-12.36-12,3.35L271.61,236s-1.86-4.25,2.56-5.48l8.21-2.29-3-10.73L266.76,221s-12.35,2.08-8.83,14.71S261.62,249,261.62,249l-10.73,3,3.34,12,10.1-2.82,8,28.83-39.16,10.58a7,7,0,0,1-8.59-4.93l-20.09-74.33a7,7,0,0,1,4.93-8.59l74.33-20.09a7.25,7.25,0,0,1,1.83-.24,7,7,0,0,1,6.76,5.17l20.09,74.33A7,7,0,0,1,307.54,280.48Z"/><path class="cls-2" d="M466.42,172.82a12.82,12.82,0,0,1,1-4,13,13,0,0,1,4.73-5.74,12.75,12.75,0,0,1,6-2.1,12.35,12.35,0,0,1,6.34,1.23,12.9,12.9,0,0,1,5.84,5.85,20.81,20.81,0,0,0,8.45-.74,9.53,9.53,0,0,1-2.78,3.5,9.4,9.4,0,0,1-4,1.84,18.75,18.75,0,0,0,3.82.27,19.16,19.16,0,0,0,3.14-.36,20.23,20.23,0,0,1-4.37,3,19.1,19.1,0,0,1-3.43,1.36,38.19,38.19,0,0,1-4,9.85,37,37,0,0,1-6.61,8.42,34.79,34.79,0,0,1-12.88,7.65,35.58,35.58,0,0,1-11.3,1.62,36.19,36.19,0,0,1-17.23-4.69,35.14,35.14,0,0,1-9.52-8,26.11,26.11,0,0,0,7.48,1.79A26.7,26.7,0,0,0,448.6,192a12.32,12.32,0,0,1-8.34-12,10.42,10.42,0,0,0,2.47,1.16,9.79,9.79,0,0,0,2.25.45A12.68,12.68,0,0,1,439.57,167a9.61,9.61,0,0,0,1.89,1.65,9.79,9.79,0,0,0,2.67,1.22,13.79,13.79,0,0,1-2.54-7.46,11.14,11.14,0,0,1,1.92-7.22,9.93,9.93,0,0,1,2.42-2.32,33.56,33.56,0,0,0,20.49,19.94Z"/><path class="cls-2" d="M598.14,50.8l-22-12.22a15.46,15.46,0,0,0-21,6l-12.23,22a15.47,15.47,0,0,0,6,21l22,12.22a15.45,15.45,0,0,0,21-6l12.23-22A15.48,15.48,0,0,0,598.14,50.8Zm1.62,18.72-12.22,22a10.44,10.44,0,0,1-14.18,4l-22-12.23a10.43,10.43,0,0,1-4-14.18l12.22-22a10.43,10.43,0,0,1,14.18-4l22,12.23A10.42,10.42,0,0,1,599.76,69.52Z"/><path class="cls-2" d="M580.52,56.81a14.32,14.32,0,1,0,5.55,19.48A14.33,14.33,0,0,0,580.52,56.81Zm1.14,17a9.28,9.28,0,1,1-3.59-12.62A9.28,9.28,0,0,1,581.66,73.84Z"/><circle class="cls-2" cx="594.13" cy="63.46" r="3.23"/><rect class="cls-2" x="378.28" y="322.6" width="36.2" height="11.4" transform="translate(30.15 689.94) rotate(-84.27)"/><circle class="cls-2" cx="399.33" cy="298.86" r="6.7"/><path class="cls-2" d="M444.5,325.6,442,351l-11.17-1.12,2.16-21.48c0-.32-.06-.61-.09-.87a8.4,8.4,0,0,0-.38-1.68,6.11,6.11,0,0,0-2.42-3.15,6.28,6.28,0,0,0-5.24-.35,5.93,5.93,0,0,0-2.72,1.73,5.71,5.71,0,0,0-1.13,2.25q-.1.33-.21.72c-.12.44-.25.93-.38,1.48l-2,20.1-11.17-1.12,3.61-36L422,312.59l-.37,3.7a11.84,11.84,0,0,1,2.37-1.86,13.23,13.23,0,0,1,6.38-1.91,13.82,13.82,0,0,1,6.8,1.05c.32.14.81.36,1.39.68A11.28,11.28,0,0,1,443,318.7a12.25,12.25,0,0,1,1.22,4.13A22.56,22.56,0,0,1,444.5,325.6Z"/></g></g></svg>