<svg xmlns="http://www.w3.org/2000/svg" width="594.439" height="511.32" viewBox="0 0 594.439 511.32"><g transform="translate(-0.006)"><g transform="translate(0.006)"><path d="M2200.111,1053.948v26.268h-28.518v83.3h-26.267v-83.3H2116.81v-26.268H2156.7V894.93c1.263.42,2.387.7,3.511.983v158.034Z" transform="translate(-1739.686 -735.492)" fill="#fff"/><path d="M2344.252,0V160.422c-1.125-.281-2.249-.563-3.512-.983V0Z" transform="translate(-1923.722)" fill="#fff"/><path d="M2913.58,377.456a30.545,30.545,0,0,1,7.3,19.806,29.513,29.513,0,0,1-7.163,20.508,35.064,35.064,0,0,1-15.031,9.555c-6.323,2.247-14.188,3.232-23.46,3.232a53.752,53.752,0,0,1-19.524-3.232,48.229,48.229,0,0,1-13.768-8.851c-12.784-11.8-11.1-27.532-11.1-29.079l23.038.424c0,1.122.281,6.462,2.672,10.11,3.372,5.06,9.7,7.586,18.683,7.586,15.172,0,21.913-3.93,21.913-10.253,0-6.743-8.571-10.955-22.479-12.5a82.661,82.661,0,0,1-22.333-5.477,35.857,35.857,0,0,1-13.907-9.416,27.97,27.97,0,0,1-7.586-19.524,31.691,31.691,0,0,1,7.586-21.211c7.445-8.43,19.385-13.064,35.682-13.207V0h3.511V315.926c21.351.424,32.027,10.116,37.226,18.12,5.758,8.853,6.04,19.241,6.04,20.935h-23.037a15.414,15.414,0,0,0-2.531-8.43c-3.371-4.776-10.115-7.586-19.525-7.586-9.832,0-21.072,2.528-21.072,9.832,0,7.164,7.447,11.379,22.476,13.062C2893.775,363.688,2906.133,368.885,2913.58,377.456Z" transform="translate(-2326.447)" fill="#fff"/><rect width="3.511" height="117.058" transform="translate(147.839 0.075)" fill="#fff"/><rect width="3.511" height="117.058" transform="translate(34.285 0.075)" fill="#fff"/><rect width="3.511" height="117.058" transform="translate(281.729 0.075)" fill="#fff"/><path d="M1665.207,381.742a23.069,23.069,0,0,0-3.232-1.828q-33.294-14.329-66.586-28.8a36.958,36.958,0,0,1-3.512-1.543c-7.025-2.95-13.907-5.9-20.932-8.993-15.874-7.023-31.748-14.327-46.5-23.739a122.212,122.212,0,0,1-20.37-15.591,40.778,40.778,0,0,1-12.649-23.461c-2.387-14.47-10.394-22.337-24.864-25.286a51.371,51.371,0,0,0-6.462-.841c-.422,0-.713-.141-1.122-.141a6.567,6.567,0,0,0-2.389.281,29.83,29.83,0,0,0-18.542,7.586,26.307,26.307,0,0,0-4.354,33.572,27.824,27.824,0,0,0,15.731,12.22c2.389.7,4.778,1.548,7.166,2.25,1.265.422,2.389.7,3.511,1.126,15.874,4.914,31.466,9.977,47.2,15.028,7.025,2.387,13.766,5.2,20.65,7.867a13.8,13.8,0,0,1,6.742,5.9,30.483,30.483,0,0,1,4.776,14.188,2.327,2.327,0,0,0,2.108,2.391c16.856,4.074,33.572,8.145,50.29,12.22,1.263.42,2.388.7,3.511.983,15.452,3.652,30.764,7.445,46.216,11.235q9.694,2.533,19.387,5.06a15.216,15.216,0,0,0,3.653.563,3.227,3.227,0,0,0,1.4-.713C1665.766,382.729,1665.626,382.017,1665.207,381.742Zm-189.5-86.536a21.637,21.637,0,0,1-15.594,2.672,25.894,25.894,0,0,1-3.511-.98c-6.462-2.106-12.222-6.743-14.609-13.068-2.672-7.442,0-14.746,7.025-18.4a19.22,19.22,0,0,1,7.586-2.389c1.124,0,2.248-.137,3.371-.137h.141a43.426,43.426,0,0,1,4.778.7c8.707,2.387,15.17,7.165,17.281,16.3C1483.712,286.218,1481.322,291.835,1475.705,295.206Zm73.757,51.275a4.9,4.9,0,0,1-4.778-4.632,4.83,4.83,0,0,1,4.778-4.778,4.706,4.706,0,0,1-.007,9.41Z" transform="translate(-1174.859 -206.71)" fill="#fff"/><path d="M1535.823,761.68c-2.248,1.4-3.934,2.949-6.041,3.793-10.253,3.652-20.369,7.445-30.764,10.675-5.9,1.824-11.8,3.511-17.7,5.345a34.166,34.166,0,0,0-4.073,1.124c-8.851,2.528-17.559,5.054-26.269,7.586-12.5,3.793-20.649,14.892-20.228,27.673.422,11.937,8.99,22.056,21.772,25.006,10.958,2.526,21.072,0,30.2-6.606,5.9-4.212,8.851-10.255,9.692-17.133a35.737,35.737,0,0,1,4.919-14.048c.7-1.126,1.4-2.25,2.247-3.385a55.468,55.468,0,0,1,7.3-8c8.99-8.017,18.965-14.187,29.5-19.809,1.4-.843,2.106-1.684,1.683-3.23C1537.37,767.579,1536.527,764.488,1535.823,761.68Zm-53.942,58.435c-4.354,8.571-12.22,11.8-22.054,12.5a44.935,44.935,0,0,1-6.6-1.267c-10.675-3.511-14.327-14.468-7.865-23.739,5.76-8.288,17.281-12.362,26.971-9.414C1482.583,801.288,1486.8,810.565,1481.881,820.116Z" transform="translate(-1175.839 -625.981)" fill="#fff"/><path d="M2082.94,514.393c4.777,2.25,9.264,4.356,13.625,6.321,3.233,1.546,6.462,3.089,9.693,4.5a3.89,3.89,0,0,0,2.53,0c30.062-13.485,59.983-27.11,90.045-40.6a25.591,25.591,0,0,0,2.673-1.543c.422-.422.563-1.126.985-1.687a4.329,4.329,0,0,0-1.687-.7,19.443,19.443,0,0,0-3.932.7c-18.122,5.058-36.383,10.116-54.506,15.313-19.24,5.621-38.481,11.379-57.735,17.137A7.44,7.44,0,0,0,2082.94,514.393Z" transform="translate(-1711.851 -395.043)" fill="#fff"/><path d="M84.658,1302.134l13.348,19.806a57.563,57.563,0,0,1-38.352,6.179A56.376,56.376,0,0,1,61.2,1217.144q-12.011-13.9-16.015-29.5c-3.371-12.64-1.685-21.634.7-35.259a366.234,366.234,0,0,0,5.058-40.315c1.824-25.427,2.387-37.235-5.478-46.638-4.632-5.9-9.977-7.868-15.733-9.977-5.478-2.106-11.238-4.215-16.855-9.836C2.483,1035.082-1.731,1018.086.655,995.05l3.511.28C1.92,1017.385,5.713,1033.4,15.4,1043.09c5.058,5.2,10.4,7.165,15.592,9.134,5.9,2.106,11.937,4.354,17.281,10.953,8.99,10.962,8.006,24.586,6.182,49.171a362.232,362.232,0,0,1-5.2,40.6c-2.387,13.625-3.791,21.913-.7,33.85,2.81,10.534,8.568,20.645,17,29.92a51.174,51.174,0,0,1,15.309.7,56.138,56.138,0,0,1,33.435,20.087l-19.667,13.2A32.54,32.54,0,0,0,76.512,1240.6a31.782,31.782,0,0,0-24.586,5.058,32.794,32.794,0,0,0-8.71,45.515,32.136,32.136,0,0,0,20.932,13.766A33.058,33.058,0,0,0,84.658,1302.134Z" transform="translate(-0.006 -817.775)" fill="#fff"/><path d="M714.677,1033.018a112.675,112.675,0,0,0,5.619-43.827c-1.126-15.321-4.919-24.16-8.29-31.89-3.23-7.445-6.039-13.907-5.345-24.019,1.123-16.294,9.833-26.408,18.259-36.1,8.569-9.833,16.569-19.1,16.859-33.85.422-16.154-9.264-32.874-28.658-49.588l-2.247,2.672c18.541,16.015,27.675,31.749,27.393,46.919-.281,13.485-7.867,22.337-16.016,31.607-8.849,10.114-17.839,20.648-19.1,38.068-.7,11.1,2.247,17.841,5.619,25.708,3.23,7.445,7.023,16.013,8.008,30.762a111.741,111.741,0,0,1-5.762,43.549,56.482,56.482,0,1,0,3.663-.009Zm21.632,79.508a33.234,33.234,0,0,1-46.638,0,33.051,33.051,0,0,1,0-46.488,33.239,33.239,0,0,1,46.638,0,33.06,33.06,0,0,1,0,46.488Z" transform="translate(-539.549 -668.767)" fill="#fff"/><path d="M1364.19,1155.109c4.214,9.692,2.95,19.809,2.672,21.493l-22.76-3.511c.141-.841.7-5.2-1.122-8.708-2.672-5.2-8.851-8.992-18.261-10.534-9.552-1.407-21.211-.713-22.337,6.592-.984,7.024,5.619,12.36,20.228,16.294,16.157,4.356,27.534,11.379,33.575,21.072a29.863,29.863,0,0,1,4.214,20.649c-.561,3.511-1.826,12.223-10.255,19.105a35.46,35.46,0,0,1-16.3,7.3c-6.592,1.124-14.468.98-23.6-.563a53.96,53.96,0,0,1-18.824-6.04,51.918,51.918,0,0,1-12.36-10.957,35.478,35.478,0,0,1-6.464-12.786,40.719,40.719,0,0,1,0-17.559l22.758,3.793c-.141.985-.844,6.462,1.124,10.4,2.528,5.618,8.288,8.988,17.281,10.392,15.031,2.389,22.195-.419,23.179-6.743,1.124-6.743-6.743-12.22-20.369-15.872a80.382,80.382,0,0,1-21.211-8.712A40.406,40.406,0,0,1,1283,1178.838a28.778,28.778,0,0,1-4.495-20.508c1.685-10.255,6.743-16.435,10.818-19.808,6.882-5.617,16.013-8.569,27.532-8.425,6.741-8.712,9.551-16.579,8.288-23.743-1.265-6.321-5.2-9.833-8.991-13.064-3.652-3.089-7.3-6.321-7.727-11.661-.7-8.149,6.323-13.062,16.157-19.953,9.41-6.741,21.352-15.172,32.029-30.064,6.462-9.129,13.344-18.539,12.781-30.481a29,29,0,0,0-2.807-11.516c.7-1.126,1.4-2.25,2.246-3.385a35.073,35.073,0,0,1,4.074,14.751c.561,13.062-6.6,23.039-13.487,32.731-10.956,15.322-23.6,24.3-32.872,30.764-9.129,6.462-15.17,10.675-14.609,16.855.281,3.934,2.952,6.325,6.464,9.275,4.071,3.545,8.7,7.465,10.109,15.054,1.543,7.727-.985,15.876-7.3,24.728a44.01,44.01,0,0,1,7.163.7C1350.563,1134.594,1360.117,1146.121,1364.19,1155.109Z" transform="translate(-1045.083 -810.526)" fill="#fff"/><path d="M1662.312,853.595c-.843,1.126-1.547,2.25-2.246,3.385-4.215-9.7-12.785-17.281-20.089-22.478a109.934,109.934,0,0,0-11.236-6.6l1.543-3.089a84.388,84.388,0,0,1,13.766,8.568C1650.792,838.145,1657.958,845.029,1662.312,853.595Z" transform="translate(-1338.57 -677.864)" fill="#fff"/></g></g></svg>