<svg xmlns="http://www.w3.org/2000/svg" width="1130" height="829" viewBox="0 0 1130 829"><path d="M929.794,829a660.828,660.828,0,0,1-68.984-3.616,655.762,655.762,0,0,1-67.115-10.627,658.757,658.757,0,0,1-64.943-17.3c-21.055-6.78-42.071-14.736-62.466-23.647C646.077,764.976,626,755,606.6,744.148c-19.257-10.772-38.3-22.661-56.6-35.336-18.2-12.608-36.107-26.3-53.212-40.68-17.051-14.34-33.711-29.713-49.519-45.692-15.792-15.963-31.108-32.91-45.523-50.37-14.432-17.481-28.3-35.89-41.222-54.715-12.966-18.889-25.285-38.648-36.618-58.727-11.394-20.189-22.063-41.185-31.709-62.405-9.719-21.38-18.634-43.5-26.5-65.751-7.938-22.461-15-45.6-20.981-68.763-6.051-23.427-11.152-47.463-15.16-71.442-4.06-24.282-7.1-49.108-9.036-73.788.034-1.167.051-2.346.051-3.507C220.574,50.679,172.317,0,113,0H1243V749.628a678.136,678.136,0,0,1-73.007,33.844,663.011,663.011,0,0,1-76.9,24.9c-13.1,3.369-26.467,6.368-39.738,8.914-13.372,2.565-27,4.738-40.508,6.458-13.621,1.735-27.486,3.057-41.211,3.929C957.8,828.554,943.716,829,929.794,829Z" transform="translate(-113)" fill="#1abc9c"/></svg>