<svg xmlns="http://www.w3.org/2000/svg" width="1130" height="829" viewBox="0 0 1130 829"><path d="M930.067,829a660.762,660.762,0,0,1-68.842-3.6,655.8,655.8,0,0,1-66.981-10.584,658.767,658.767,0,0,1-64.82-17.235c-21.018-6.754-42-14.68-62.355-23.556-20.173-8.795-40.221-18.735-59.589-29.545-19.227-10.731-38.244-22.575-56.521-35.2-18.181-12.562-36.064-26.2-53.151-40.53-17.032-14.286-33.68-29.6-49.479-45.526-15.783-15.906-31.093-32.793-45.505-50.191-14.429-17.419-28.3-35.764-41.229-54.525-12.972-18.824-25.3-38.516-36.651-58.527-11.41-20.121-22.1-41.048-31.771-62.2-9.744-21.309-18.69-43.359-26.59-65.54-7.973-22.387-15.074-45.45-21.106-68.549-6.1-23.354-11.252-47.318-15.32-71.227-4.119-24.211-7.225-48.966-9.232-73.575.1-1.95.144-3.931.144-5.886,0-62.309-48.448-113-108-113h1130V749.733a678.144,678.144,0,0,1-72.966,33.8,662.958,662.958,0,0,1-76.846,24.868c-13.09,3.365-26.451,6.36-39.71,8.9-13.361,2.561-26.98,4.731-40.479,6.449-13.611,1.732-27.466,3.052-41.182,3.923C958.049,828.555,943.979,829,930.067,829Z" transform="translate(-113.068)" fill="#f39c12"/></svg>