<svg xmlns="http://www.w3.org/2000/svg" width="1222.473" height="829.21" viewBox="0 0 1222.473 829.21"><path d="M883.635,0c-24.889,0-50,1.217-74.63,3.617C784.712,5.984,760.284,9.56,736.4,14.246,712.808,18.874,689.17,24.7,666.14,31.555c-22.778,6.782-45.514,14.74-67.578,23.654C576.7,64.04,554.976,74.021,533.993,84.874c-20.833,10.775-41.434,22.666-61.233,35.345-19.694,12.612-39.062,26.3-57.566,40.691-18.446,14.343-36.47,29.72-53.572,45.7-17.085,15.967-33.654,32.919-49.248,50.383-15.613,17.485-30.617,35.9-44.6,54.729-14.027,18.894-27.355,38.658-39.614,58.742-12.327,20.194-23.869,41.2-34.3,62.421C183.346,454.273,173.7,476.4,165.2,498.655c-8.588,22.467-16.224,45.608-22.7,68.78-6.546,23.433-12.064,47.476-16.4,71.46-4.392,24.288-7.681,49.12-9.776,73.807.037,1.167.055,2.347.055,3.508,0,62.309-52.206,113-116.376,113H1222.473V79.392a758.169,758.169,0,0,0-162.17-58.76c-14.169-3.37-28.633-6.37-42.99-8.916-14.467-2.566-29.211-4.739-43.823-6.46-14.736-1.735-29.736-3.057-44.584-3.93C913.928.446,898.7,0,883.635,0Z" transform="translate(1222.473 829.21) rotate(180)" fill="#fff"/></svg>