<svg xmlns="http://www.w3.org/2000/svg" width="748.005" height="264.527" viewBox="0 0 748.005 264.527"><g transform="translate(0.281)"><g transform="translate(-0.281)"><path d="M85.348,543.12c-.31,0-.584-.016-.811-.037H55.079a8.763,8.763,0,0,1-6.494-2.02,8.554,8.554,0,0,1-2.656-4.188l-.051-.18-.03-.184a136.553,136.553,0,0,0-5.375-21.5A137.5,137.5,0,0,0,20.084,476.5a70.053,70.053,0,1,1,99.449,0,136.268,136.268,0,0,0-25.765,60.012l-.031.187-.051.18a8.511,8.511,0,0,1-8.339,6.238Zm-12.3-6.753H84.912l.2.025a2.165,2.165,0,0,0,1.545-.422,1.872,1.872,0,0,0,.523-.784,143.051,143.051,0,0,1,27.129-62.914l.141-.185.165-.166a63.337,63.337,0,1,0-89.61,0l.165.166.141.187a144.235,144.235,0,0,1,21.526,40.583,143.15,143.15,0,0,1,5.6,22.329,1.844,1.844,0,0,0,.523.784,2.139,2.139,0,0,0,1.544.423l.2-.025Z" transform="translate(0.281 -310.451)" fill="#fff"/><path d="M547.827,1814.947a2.891,2.891,0,0,1-.822-.119l-20.94-6.2a2.894,2.894,0,1,1,1.643-5.55l20.939,6.2a2.895,2.895,0,0,1-.82,5.67Z" transform="translate(-455.502 -1567.424)" fill="#fff"/><path d="M385.458,1945.074a2.908,2.908,0,0,1-.823-.12l-20.939-6.2a2.9,2.9,0,1,1,1.642-5.555l20.939,6.2a2.895,2.895,0,0,1-.819,5.67Z" transform="translate(-314.341 -1680.547)" fill="#fff"/><path d="M407.58,1831.64a3.049,3.049,0,0,1-.865-.13L365.25,1819.26a3.048,3.048,0,1,1,1.724-5.846l41.464,12.256a3.048,3.048,0,0,1-.862,5.97Z" transform="translate(-315.597 -1576.401)" fill="#fff"/><path d="M406.668,1891.411a3.058,3.058,0,0,1-.865-.13l-41.465-12.254a3.048,3.048,0,1,1,1.724-5.84l41.464,12.254a3.048,3.048,0,0,1-.862,5.97Z" transform="translate(-314.685 -1628.328)" fill="#fff"/><path d="M3169.313,543.1c-.31,0-.584-.016-.812-.037h-29.458a8.764,8.764,0,0,1-6.494-2.02,8.564,8.564,0,0,1-2.656-4.188l-.051-.18-.03-.184a136.309,136.309,0,0,0-25.763-60.009,70.061,70.061,0,1,1,99.453,0,136.3,136.3,0,0,0-25.766,60.012l-.031.187-.051.18a8.511,8.511,0,0,1-8.339,6.242Zm-12.3-6.749h11.86l.2.025a2.164,2.164,0,0,0,1.544-.422,1.872,1.872,0,0,0,.522-.784,143.034,143.034,0,0,1,27.13-62.913l.14-.185.165-.166a63.337,63.337,0,1,0-89.612,0l.165.166.141.187a143.016,143.016,0,0,1,27.127,62.912,1.856,1.856,0,0,0,.522.784,2.142,2.142,0,0,0,1.545.423l.2-.025Z" transform="translate(-2680.794 -310.434)" fill="#fff"/><path d="M3631.814,1814.948a2.888,2.888,0,0,1-.823-.119l-20.939-6.2a2.894,2.894,0,0,1,1.642-5.55l20.939,6.2a2.895,2.895,0,0,1-.82,5.67Z" transform="translate(-3136.597 -1567.425)" fill="#fff"/><path d="M3469.446,1945.1a2.886,2.886,0,0,1-.822-.12l-20.94-6.195a2.895,2.895,0,1,1,1.642-5.552l20.94,6.2a2.895,2.895,0,0,1-.82,5.67Z" transform="translate(-2995.439 -1680.568)" fill="#fff"/><path d="M3491.579,1831.644a3.062,3.062,0,0,1-.866-.13l-41.464-12.249a3.048,3.048,0,1,1,1.727-5.845l41.465,12.256a3.048,3.048,0,0,1-.862,5.97Z" transform="translate(-2996.704 -1576.406)" fill="#fff"/><path d="M3491.579,1891.66a3.063,3.063,0,0,1-.866-.131l-41.464-12.254a3.048,3.048,0,1,1,1.727-5.845l41.465,12.255a3.048,3.048,0,0,1-.862,5.97Z" transform="translate(-2996.704 -1628.576)" fill="#fff"/><path d="M4738.273,543.1c-.31,0-.584-.016-.812-.037H4708a8.765,8.765,0,0,1-6.494-2.02,8.573,8.573,0,0,1-2.655-4.188l-.051-.18-.031-.184a136.3,136.3,0,0,0-25.763-60.009,70.054,70.054,0,1,1,99.45,0,136.29,136.29,0,0,0-25.766,60.012l-.031.187-.052.18a8.51,8.51,0,0,1-8.338,6.242Zm-12.3-6.749h11.859l.2.025a2.161,2.161,0,0,0,1.544-.422,1.864,1.864,0,0,0,.523-.784,143.026,143.026,0,0,1,27.13-62.913l.14-.185.166-.166a63.337,63.337,0,1,0-89.613,0l.164.166.141.187a143.018,143.018,0,0,1,27.128,62.912,1.866,1.866,0,0,0,.522.784,2.143,2.143,0,0,0,1.546.423l.2-.025Z" transform="translate(-4044.786 -310.434)" fill="#fff"/><path d="M5200.774,1814.948a2.886,2.886,0,0,1-.823-.119l-20.939-6.2a2.894,2.894,0,0,1,1.642-5.55l20.939,6.2a2.895,2.895,0,0,1-.819,5.669Z" transform="translate(-4500.589 -1567.425)" fill="#fff"/><path d="M5038.37,1945.073a2.882,2.882,0,0,1-.822-.12l-20.94-6.195a2.9,2.9,0,1,1,1.644-5.555l20.94,6.2a2.895,2.895,0,0,1-.82,5.67Z" transform="translate(-4359.4 -1680.546)" fill="#fff"/><path d="M5060.539,1831.644a3.058,3.058,0,0,1-.865-.131l-41.465-12.249a3.048,3.048,0,0,1,1.727-5.845l41.465,12.256a3.048,3.048,0,0,1-.862,5.97Z" transform="translate(-4360.695 -1576.406)" fill="#fff"/><path d="M5060.539,1891.66a3.058,3.058,0,0,1-.865-.131l-41.465-12.254a3.048,3.048,0,0,1,1.727-5.845l41.465,12.255a3.048,3.048,0,0,1-.862,5.97Z" transform="translate(-4360.695 -1628.576)" fill="#fff"/><path d="M1709.56,485.755a144.674,144.674,0,0,0-21.578,40.678,142.951,142.951,0,0,0-5.65,22.6,5.406,5.406,0,0,1-1.654,2.613,5.643,5.643,0,0,1-4.242,1.241h-30.584a5.645,5.645,0,0,1-4.24-1.241,5.383,5.383,0,0,1-1.654-2.613,142.76,142.76,0,0,0-5.651-22.6,144.707,144.707,0,0,0-21.575-40.676,68.449,68.449,0,1,1,96.829,0Z" transform="translate(-1384.6 -320.75)" fill="#fff"/><path d="M2128.166,1803.135a2.913,2.913,0,0,1-.823-.12l-20.939-6.2a2.895,2.895,0,1,1,1.642-5.552l20.939,6.2a2.9,2.9,0,0,1-.819,5.67Z" transform="translate(-1829.384 -1557.154)" fill="#fff"/><path d="M1965.806,1933.294a2.9,2.9,0,0,1-.823-.119l-20.939-6.195a2.895,2.895,0,1,1,1.642-5.552l20.939,6.2a2.895,2.895,0,0,1-.819,5.67Z" transform="translate(-1688.234 -1670.31)" fill="#fff"/><path d="M1987.933,1819.849a3.02,3.02,0,0,1-.865-.13l-41.465-12.254a3.048,3.048,0,1,1,1.728-5.845l41.465,12.254a3.049,3.049,0,0,1-.863,5.972Z" transform="translate(-1689.494 -1566.147)" fill="#fff"/><path d="M1987.933,1879.849a3.056,3.056,0,0,1-.865-.131l-41.465-12.254a3.048,3.048,0,1,1,1.728-5.845l41.465,12.254a3.048,3.048,0,0,1-.863,5.97Z" transform="translate(-1689.494 -1618.309)" fill="#fff"/><path d="M2098.226,36.386a2.756,2.756,0,0,1-2.756-2.756V2.756a2.756,2.756,0,1,1,5.513,0V33.629A2.757,2.757,0,0,1,2098.226,36.386Z" transform="translate(-1821.682 0)" fill="#fff"/><path d="M2530.063,250.294a2.757,2.757,0,0,1-1.949-4.7l21.83-21.83a2.758,2.758,0,1,1,3.9,3.9l-21.83,21.83a2.743,2.743,0,0,1-1.949.8Z" transform="translate(-2197.106 -193.828)" fill="#fff"/><path d="M1521.136,250.316a2.743,2.743,0,0,1-1.949-.807l-21.83-21.823a2.757,2.757,0,1,1,3.9-3.9l21.83,21.83a2.757,2.757,0,0,1-1.949,4.7Z" transform="translate(-1301.005 -193.85)" fill="#fff"/></g></g></svg>