<svg xmlns="http://www.w3.org/2000/svg" width="598.933" height="439.773" viewBox="0 0 598.933 439.773"><g transform="translate(-0.002 0.006)"><g transform="translate(0.002 -0.006)"><path d="M2183.9,667.218c-3.935-11.212-8.6-23.14-14.149-35.589-6.363-14.271-13-27.241-19.56-38.893L2199.842,556a269.571,269.571,0,0,1,45.861,90.662Z" transform="translate(-1690.9 -437.234)" fill="#f39c12"/><path d="M1951.665,261.513l-50.306,36.661a406.92,406.92,0,0,0-31.312-33.322c-9.9-9.416-19.6-17.687-28.807-24.926l31.135-49.556a270.243,270.243,0,0,1,79.29,71.143Z" transform="translate(-1447.943 -149.705)" fill="#f39c12"/><path d="M1554.476,49.952l-30.507,48.826a267.584,267.584,0,0,0-77.609-31.861q4.106-25.152,8.211-50.306a233.5,233.5,0,0,1,99.905,33.342Z" transform="translate(-1137.411 -13.061)" fill="#f39c12"/><path d="M1056.95,52.693a247.171,247.171,0,0,0-84.726-.081L962.06,11.205a208.761,208.761,0,0,1,102.231-8.3Q1060.619,27.8,1056.95,52.693Z" transform="translate(-756.56 0.006)" fill="#f39c12"/><path d="M598.977,104.143a256.824,256.824,0,0,0-80.516,34.143q-10.2-13.991-20.4-27.982a200.7,200.7,0,0,1,90-46.8Z" transform="translate(-391.672 -49.935)" fill="#f39c12"/><path d="M1118.9,1260.216a32.668,32.668,0,1,1-32.451-32.581C1104.818,1227.8,1118.984,1242.023,1118.9,1260.216Z" transform="translate(-828.519 -965.404)" fill="#f39c12"/><path d="M250.31,339.885a276.985,276.985,0,0,0-62.552,62.766L165.49,389.144a198.333,198.333,0,0,1,64.359-75.875Z" transform="translate(-130.141 -246.353)" fill="#f39c12"/><path d="M1413.418,589.38q-51.934,71.575-103.874,143.149l-16.614-13.391Z" transform="translate(-1016.755 -463.484)" fill="#f39c12"/><path d="M60.5,719.844A338.938,338.938,0,0,0,29.2,803.79l-19.2-2.9A267.625,267.625,0,0,1,38.884,707.85Z" transform="translate(-7.864 -556.648)" fill="#f39c12"/><path d="M11.139,1279.729a226.358,226.358,0,0,1-9.691-95.669l17.7,3.191a241.2,241.2,0,0,0,3.732,89.6Z" transform="translate(-0.002 -931.138)" fill="#f39c12"/><path d="M963.388,1521.825l-24.137,31.323L919.4,1536.7l25.539-29.55Z" transform="translate(-723.012 -1185.214)" fill="#f39c12"/><path d="M106.616,1744.016A200.6,200.6,0,0,1,62,1661.259l11.584-2.749a287.9,287.9,0,0,0,39.517,80.606Z" transform="translate(-48.757 -1304.243)" fill="#f39c12"/><g transform="translate(461.141 233.767)"><path d="M2185.976,1138.952a1.959,1.959,0,0,1,.6,1.476v25.823a2.19,2.19,0,0,1-.641,1.5,2.083,2.083,0,0,1-1.54.6,2.041,2.041,0,0,1-1.479-.6,2,2,0,0,1-.621-1.5v-11.082h-15.2v11.09a1.963,1.963,0,0,1-.641,1.5,2.117,2.117,0,0,1-1.5.6,2.011,2.011,0,0,1-1.521-.6,2.072,2.072,0,0,1-.577-1.5v-25.829a1.98,1.98,0,0,1,.6-1.455,2.1,2.1,0,0,1,1.54-.6,2.063,2.063,0,0,1,1.478.6,1.944,1.944,0,0,1,.62,1.455v10.793h15.2v-10.793a1.921,1.921,0,0,1,.641-1.455,2.252,2.252,0,0,1,3.038-.021Z" transform="translate(-2162.856 -1138.375)" fill="#f39c12"/><path d="M2319.282,1188.987a10.914,10.914,0,0,1-4.088,4.155,11.658,11.658,0,0,1-11.432,0,10.913,10.913,0,0,1-4.093-4.155,11.978,11.978,0,0,1-1.5-5.994,12.208,12.208,0,0,1,1.5-6.039,10.837,10.837,0,0,1,4.093-4.2,11.658,11.658,0,0,1,11.432,0,10.835,10.835,0,0,1,4.088,4.2,12.211,12.211,0,0,1,1.5,6.039A11.973,11.973,0,0,1,2319.282,1188.987Zm-3.533-10.127a7.032,7.032,0,0,0-12.545,0,8.683,8.683,0,0,0-.963,4.133,8.465,8.465,0,0,0,.963,4.058,7.051,7.051,0,0,0,12.545,0,8.44,8.44,0,0,0,.965-4.058,8.66,8.66,0,0,0-.967-4.133Z" transform="translate(-2269.268 -1164.235)" fill="#f39c12"/><path d="M2445.187,1180.509v11.646a2.017,2.017,0,0,1-.579,1.457,1.949,1.949,0,0,1-1.476.6,1.9,1.9,0,0,1-1.434-.6,2.019,2.019,0,0,1-.579-1.457V1180.55a6.426,6.426,0,0,0-1.156-4.024,4.451,4.451,0,0,0-3.768-1.5,6.466,6.466,0,0,0-3.106.75,5.733,5.733,0,0,0-2.185,2.014,5.084,5.084,0,0,0-.79,2.76v11.605a2.02,2.02,0,0,1-.579,1.457,1.959,1.959,0,0,1-1.476.6,1.923,1.923,0,0,1-1.457-.579,2.047,2.047,0,0,1-.558-1.478v-18.327a2.038,2.038,0,0,1,.577-1.457,1.923,1.923,0,0,1,1.438-.6,1.963,1.963,0,0,1,1.476.6,2.021,2.021,0,0,1,.579,1.457v1.5a9.186,9.186,0,0,1,3.106-2.89,8.207,8.207,0,0,1,4.257-1.177Q2445.189,1171.26,2445.187,1180.509Z" transform="translate(-2369.826 -1164.236)" fill="#f39c12"/><path d="M2558.164,1183.465a2.055,2.055,0,0,1-1.414.534h-15.072a7.434,7.434,0,0,0,2.377,5.011,7.3,7.3,0,0,0,5.073,1.886,7.973,7.973,0,0,0,3.339-.6,8.508,8.508,0,0,0,2.273-1.544,2.4,2.4,0,0,1,1.239-.382,1.622,1.622,0,0,1,1.22.512,1.672,1.672,0,0,1,.491,1.2,2.117,2.117,0,0,1-.854,1.628,10.115,10.115,0,0,1-3.3,2.1,10.84,10.84,0,0,1-4.2.854,12.408,12.408,0,0,1-6.1-1.457,10.1,10.1,0,0,1-4.058-4.059,12.039,12.039,0,0,1-1.436-5.91,13.016,13.016,0,0,1,1.478-6.314,10.7,10.7,0,0,1,3.894-4.178,10.057,10.057,0,0,1,10.345-.041,10.733,10.733,0,0,1,3.845,3.9,11.146,11.146,0,0,1,1.5,5.569,1.843,1.843,0,0,1-.636,1.3Zm-14-7.066a6.627,6.627,0,0,0-2.311,4.174h12.633v-.342a5.233,5.233,0,0,0-2.036-3.725,6.428,6.428,0,0,0-4.133-1.457,6.624,6.624,0,0,0-4.153,1.35Z" transform="translate(-2457.664 -1164.259)" fill="#f39c12"/><path d="M2650.58,1189.543a1.731,1.731,0,0,1,.9-1.457,1.685,1.685,0,0,1,.987-.3,1.948,1.948,0,0,1,1.41.641,9.035,9.035,0,0,0,2.764,2.185,7.934,7.934,0,0,0,3.533.729,6.036,6.036,0,0,0,2.869-.75,2.437,2.437,0,0,0,1.241-2.292,2.472,2.472,0,0,0-1.262-2.228,14.414,14.414,0,0,0-3.7-1.412,27.33,27.33,0,0,1-3.984-1.348,7.142,7.142,0,0,1-2.676-2.057,5.411,5.411,0,0,1-1.089-3.533,5.481,5.481,0,0,1,1.089-3.383,7.293,7.293,0,0,1,2.914-2.269,9.616,9.616,0,0,1,3.96-.812,11.45,11.45,0,0,1,4.09.769,7.678,7.678,0,0,1,3.317,2.35,1.869,1.869,0,0,1,.515,1.241,1.841,1.841,0,0,1-.686,1.329,1.541,1.541,0,0,1-1.068.387,1.606,1.606,0,0,1-1.241-.517,6.1,6.1,0,0,0-2.2-1.585,7.341,7.341,0,0,0-2.892-.553,5.355,5.355,0,0,0-2.76.662,2.4,2.4,0,0,0-1.136,2.247,2.482,2.482,0,0,0,1.307,2.226,16.164,16.164,0,0,0,3.875,1.416,23.852,23.852,0,0,1,3.766,1.281,6.589,6.589,0,0,1,2.527,2.036,5.661,5.661,0,0,1,1.027,3.533,5.472,5.472,0,0,1-1.156,3.488,7.466,7.466,0,0,1-3.018,2.273,10.059,10.059,0,0,1-3.962.79,13.031,13.031,0,0,1-4.988-.94,9.325,9.325,0,0,1-3.875-2.99A2.123,2.123,0,0,1,2650.58,1189.543Z" transform="translate(-2546.4 -1164.234)" fill="#f39c12"/><path d="M2751.414,1157.75v12.763q0,2.137,1.922,2.136a2.989,2.989,0,0,0,.816-.15,3.071,3.071,0,0,1,.812-.149,1.178,1.178,0,0,1,.944.47,1.8,1.8,0,0,1-.643,2.743,4.274,4.274,0,0,1-2.312.641,10.574,10.574,0,0,1-2.593-.3,3.805,3.805,0,0,1-2.1-1.519,6.2,6.2,0,0,1-.921-3.7v-12.93h-2.484a1.831,1.831,0,0,1-1.882-1.884,1.766,1.766,0,0,1,.534-1.328,1.876,1.876,0,0,1,1.348-.513h2.484v-3.6a2.015,2.015,0,0,1,.579-1.457,1.958,1.958,0,0,1,1.479-.6,1.9,1.9,0,0,1,1.431.6,2.006,2.006,0,0,1,.579,1.457v3.595h3.555a1.831,1.831,0,0,1,1.886,1.882,1.751,1.751,0,0,1-.537,1.328,1.854,1.854,0,0,1-1.35.515Z" transform="translate(-2619.059 -1146.231)" fill="#f39c12"/></g></g></g></svg>