<svg xmlns="http://www.w3.org/2000/svg" width="894.108" height="520.387" viewBox="0 0 894.108 520.387"><g transform="translate(0.049 0.042)"><g transform="translate(-0.049 -0.042)"><path d="M660.206,1217.281a2.131,2.131,0,0,1-.386-.034,2.3,2.3,0,0,1-1.879-2.643c.386-2.262.793-4.551,1.192-6.8a2.294,2.294,0,1,1,4.517.811c-.4,2.239-.793,4.514-1.181,6.763a2.3,2.3,0,0,1-2.262,1.905Z" transform="translate(-484.022 -887.199)" fill="#9b59b6"/><path d="M672.653,568.33a2.343,2.343,0,0,1-.447-.042,2.3,2.3,0,0,1-1.808-2.7c.88-4.493,1.816-8.986,2.775-13.4a2.3,2.3,0,1,1,4.493.975c-.954,4.377-1.879,8.856-2.756,13.309A2.3,2.3,0,0,1,672.653,568.33Zm5.286-24.438a2.27,2.27,0,0,1-.529-.061,2.3,2.3,0,0,1-1.707-2.762c1.057-4.453,2.157-8.925,3.288-13.288a2.295,2.295,0,1,1,4.443,1.152c-1.121,4.332-2.22,8.769-3.264,13.19a2.291,2.291,0,0,1-2.244,1.768Zm6.232-24.211a2.3,2.3,0,0,1-2.212-2.907c1.234-4.419,2.527-8.84,3.843-13.143a2.3,2.3,0,1,1,4.39,1.343c-1.3,4.268-2.587,8.655-3.814,13.037a2.294,2.294,0,0,1-2.215,1.67Zm7.265-23.923a2.3,2.3,0,0,1-2.18-3.013c1.438-4.369,2.936-8.721,4.456-12.95a2.3,2.3,0,1,1,4.321,1.554c-1.506,4.186-2.992,8.507-4.416,12.836a2.3,2.3,0,0,1-2.188,1.572Zm8.407-23.545a2.338,2.338,0,0,1-.827-.153,2.3,2.3,0,0,1-1.321-2.97c1.665-4.3,3.4-8.579,5.146-12.707a2.3,2.3,0,0,1,4.229,1.789c-1.728,4.086-3.436,8.317-5.09,12.575a2.3,2.3,0,0,1-2.143,1.467Zm9.694-23.043a2.271,2.271,0,0,1-.954-.209,2.3,2.3,0,0,1-1.134-3.042c1.929-4.229,3.925-8.378,5.936-12.374a2.3,2.3,0,0,1,4.1,2.064c-1.985,3.943-3.964,8.055-5.862,12.22a2.294,2.294,0,0,1-2.1,1.34Zm11.176-22.358a2.266,2.266,0,0,1-1.1-.283,2.3,2.3,0,0,1-.912-3.116c2.241-4.091,4.554-8.095,6.871-11.893a2.3,2.3,0,0,1,3.919,2.379c-2.283,3.742-4.559,7.685-6.766,11.713a2.294,2.294,0,0,1-2.022,1.2ZM877.153,410.6a2.289,2.289,0,0,1-1.969-1.115c-2.378-3.964-4.823-7.794-7.262-11.364a2.3,2.3,0,1,1,3.793-2.587c2.49,3.652,4.982,7.556,7.4,11.6a2.3,2.3,0,0,1-1.966,3.475Zm-143.5-5.164a2.268,2.268,0,0,1-1.279-.394,2.3,2.3,0,0,1-.624-3.171c2.643-3.906,5.336-7.664,8.039-11.19a2.295,2.295,0,0,1,3.639,2.8c-2.643,3.436-5.286,7.136-7.87,10.957a2.291,2.291,0,0,1-1.905,1Zm129.5-15.521a2.289,2.289,0,0,1-1.821-.893c-2.833-3.676-5.735-7.136-8.629-10.286a2.3,2.3,0,0,1,3.38-3.105c2.984,3.245,5.973,6.808,8.885,10.59a2.294,2.294,0,0,1-1.816,3.7ZM748.8,385.568a2.294,2.294,0,0,1-1.728-3.8c3.14-3.6,6.343-6.969,9.551-10.016a2.3,2.3,0,0,1,3.171,3.325c-3.095,2.949-6.211,6.216-9.25,9.71A2.28,2.28,0,0,1,748.8,385.568Zm97.552-14.1a2.286,2.286,0,0,1-1.541-.6,94.372,94.372,0,0,0-10.434-8.248,2.3,2.3,0,0,1,2.574-3.8,98.669,98.669,0,0,1,10.944,8.658,2.3,2.3,0,0,1-1.543,4Zm-79.57-3.2a2.3,2.3,0,0,1-1.419-4.1,93.557,93.557,0,0,1,11.573-7.8,2.3,2.3,0,1,1,2.26,4,88.646,88.646,0,0,0-11,7.418A2.281,2.281,0,0,1,766.785,368.268Zm59.043-10.881a2.31,2.31,0,0,1-.962-.219,49.158,49.158,0,0,0-12.353-4,2.3,2.3,0,1,1,.793-4.525,53.772,53.772,0,0,1,13.513,4.366,2.3,2.3,0,0,1-.973,4.376Zm-37.481-1.509a2.3,2.3,0,0,1-.793-4.453,55.589,55.589,0,0,1,13.8-3.171,2.3,2.3,0,0,1,.428,4.572,51.063,51.063,0,0,0-12.654,2.92,2.267,2.267,0,0,1-.777.127Z" transform="translate(-493.179 -256.201)" fill="#9b59b6"/><path d="M1755.657,309.569a2.3,2.3,0,0,1-2.281-2.048c-.494-4.6-1.018-9.231-1.554-13.764a2.3,2.3,0,0,1,4.559-.529c.529,4.546,1.057,9.194,1.562,13.811a2.294,2.294,0,0,1-2.038,2.527A1.986,1.986,0,0,1,1755.657,309.569Zm-2.968-25.263a2.3,2.3,0,0,1-2.276-2c-.584-4.585-1.2-9.2-1.831-13.727a2.3,2.3,0,0,1,4.54-.624c.632,4.543,1.25,9.179,1.837,13.78a2.291,2.291,0,0,1-1.985,2.566A2.247,2.247,0,0,1,1752.689,284.306Zm-3.486-25.2a2.294,2.294,0,0,1-2.268-1.956c-.684-4.588-1.4-9.189-2.13-13.682a2.3,2.3,0,1,1,4.532-.735c.732,4.511,1.451,9.134,2.138,13.743a2.3,2.3,0,0,1-1.932,2.611,2.467,2.467,0,0,1-.341.018ZM1745.16,234a2.3,2.3,0,0,1-2.26-1.9c-.793-4.567-1.615-9.149-2.453-13.626a2.3,2.3,0,0,1,4.514-.843c.84,4.493,1.67,9.1,2.463,13.687a2.3,2.3,0,0,1-1.871,2.643,2.5,2.5,0,0,1-.394.034ZM1740.508,209a2.294,2.294,0,0,1-2.246-1.85c-.909-4.551-1.85-9.11-2.809-13.552a2.3,2.3,0,0,1,4.493-.967c.962,4.466,1.911,9.049,2.823,13.621a2.3,2.3,0,0,1-1.8,2.7,2.381,2.381,0,0,1-.457.04Zm-5.323-24.874a2.3,2.3,0,0,1-2.236-1.784c-1.039-4.53-2.114-9.057-3.206-13.46a2.3,2.3,0,0,1,4.456-1.1c1.1,4.427,2.18,8.986,3.227,13.537a2.307,2.307,0,0,1-2.241,2.809Zm-6.078-24.7a2.3,2.3,0,0,1-2.22-1.71c-1.189-4.493-2.421-8.986-3.663-13.336a2.3,2.3,0,1,1,4.417-1.261c1.25,4.374,2.489,8.891,3.7,13.423a2.3,2.3,0,0,1-1.633,2.807,2.378,2.378,0,0,1-.6.069Zm-222.584-6.079a2.253,2.253,0,0,1-.888-.182,2.294,2.294,0,0,1-1.227-3c1.808-4.295,3.666-8.6,5.521-12.8a2.3,2.3,0,1,1,4.2,1.85c-1.85,4.17-3.7,8.457-5.489,12.72a2.3,2.3,0,0,1-2.117,1.4Zm215.631-18.386a2.3,2.3,0,0,1-2.194-1.625c-1.364-4.464-2.775-8.893-4.194-13.167a2.295,2.295,0,0,1,4.355-1.448c1.432,4.308,2.854,8.774,4.229,13.272a2.294,2.294,0,0,1-2.2,2.968Zm-205.348-4.924a2.26,2.26,0,0,1-.959-.214,2.294,2.294,0,0,1-1.123-3.045c1.966-4.26,3.964-8.5,5.97-12.6a2.3,2.3,0,0,1,4.128,2.009c-1.982,4.07-3.964,8.28-5.931,12.511a2.294,2.294,0,0,1-2.1,1.321Zm197.38-19.229a2.294,2.294,0,0,1-2.159-1.522c-1.586-4.414-3.206-8.764-4.839-12.929a2.3,2.3,0,0,1,4.273-1.676c1.649,4.21,3.3,8.6,4.886,13.058a2.3,2.3,0,0,1-1.387,2.936,2.339,2.339,0,0,1-.785.119Zm-186.266-3.687a2.266,2.266,0,0,1-1.041-.251,2.294,2.294,0,0,1-1-3.087c2.146-4.21,4.332-8.362,6.491-12.345a2.3,2.3,0,1,1,4.036,2.188c-2.141,3.948-4.308,8.069-6.438,12.242a2.291,2.291,0,0,1-2.056,1.239Zm177.035-20.011a2.3,2.3,0,0,1-2.114-1.4c-1.85-4.329-3.742-8.56-5.645-12.572a2.3,2.3,0,1,1,4.149-1.969c1.929,4.07,3.853,8.357,5.719,12.741a2.294,2.294,0,0,1-2.114,3.2ZM1540.02,84.714a2.3,2.3,0,0,1-1.99-3.436c2.379-4.128,4.77-8.166,7.136-12a2.3,2.3,0,1,1,3.906,2.416c-2.344,3.79-4.72,7.786-7.065,11.869a2.291,2.291,0,0,1-2,1.139Zm154.1-20.614a2.3,2.3,0,0,1-2.048-1.232c-2.193-4.192-4.448-8.224-6.7-11.991a2.3,2.3,0,0,1,3.938-2.36c2.3,3.843,4.6,7.955,6.834,12.223a2.294,2.294,0,0,1-2.03,3.359Zm-140.76-1.07a2.3,2.3,0,0,1-1.911-3.565c2.661-4.009,5.352-7.87,8-11.483a2.3,2.3,0,0,1,3.7,2.717c-2.6,3.552-5.254,7.355-7.876,11.306a2.291,2.291,0,0,1-1.924,1.012Zm14.993-20.566a2.294,2.294,0,0,1-1.781-3.74c3.071-3.792,6.174-7.36,9.218-10.6a2.3,2.3,0,0,1,3.346,3.142c-2.968,3.171-6,6.644-8.986,10.349a2.291,2.291,0,0,1-1.808.838Zm112.775-.209a2.289,2.289,0,0,1-1.9-1c-2.685-3.93-5.439-7.606-8.193-10.923a2.3,2.3,0,0,1,3.536-2.928c2.836,3.436,5.677,7.218,8.438,11.264a2.294,2.294,0,0,1-1.892,3.589Zm-95.438-18.4a2.3,2.3,0,0,1-1.541-4,106.939,106.939,0,0,1,11.079-8.832,2.295,2.295,0,1,1,2.6,3.782,102.253,102.253,0,0,0-10.6,8.457A2.286,2.286,0,0,1,1585.691,23.858Zm79.33-1.234a2.294,2.294,0,0,1-1.609-.661,79.856,79.856,0,0,0-10.307-8.639,2.295,2.295,0,1,1,2.619-3.769,84.344,84.344,0,0,1,10.9,9.136,2.3,2.3,0,0,1-1.609,3.933ZM1606.5,9.41a2.294,2.294,0,0,1-.989-4.366A54.445,54.445,0,0,1,1619.192.5a2.3,2.3,0,1,1,.819,4.517,50.057,50.057,0,0,0-12.524,4.152,2.3,2.3,0,0,1-.986.233Zm37.89-1.321a2.276,2.276,0,0,1-.912-.19,42.019,42.019,0,0,0-12.609-3.346,2.3,2.3,0,0,1,.447-4.583,46.627,46.627,0,0,1,13.989,3.7,2.3,2.3,0,0,1-.914,4.4Z" transform="translate(-1106.674 0.042)" fill="#9b59b6"/><path d="M2477.206,763.007a2.328,2.328,0,0,1-.727-.119,2.3,2.3,0,0,1-1.451-2.907c1.448-4.329,2.936-8.65,4.427-12.842a2.3,2.3,0,1,1,4.326,1.541c-1.48,4.162-2.96,8.457-4.4,12.754A2.3,2.3,0,0,1,2477.206,763.007Zm8.283-23.394a2.265,2.265,0,0,1-.806-.148,2.294,2.294,0,0,1-1.343-2.955c1.61-4.292,3.261-8.555,4.913-12.67a2.3,2.3,0,0,1,4.26,1.71c-1.639,4.083-3.277,8.314-4.876,12.572a2.3,2.3,0,0,1-2.149,1.5Zm9.2-23.048a2.3,2.3,0,0,1-2.114-3.2c1.8-4.229,3.65-8.425,5.489-12.442a2.295,2.295,0,0,1,4.173,1.911c-1.824,3.98-3.653,8.127-5.439,12.329A2.3,2.3,0,0,1,2494.688,716.565Zm10.291-22.58a2.3,2.3,0,0,1-2.059-3.306c2.046-4.176,4.136-8.254,6.21-12.123a2.3,2.3,0,0,1,4.046,2.17c-2.048,3.819-4.112,7.849-6.134,11.972a2.3,2.3,0,0,1-2.064,1.287Zm117.688-14.649a2.3,2.3,0,0,1-2.169-1.549c-1.515-4.392-3.1-8.613-4.7-12.543a2.3,2.3,0,0,1,4.25-1.739c1.641,4.012,3.253,8.312,4.794,12.786a2.291,2.291,0,0,1-1.422,2.907,2.244,2.244,0,0,1-.748.137Zm-106.025-7.247a2.268,2.268,0,0,1-1.155-.315,2.294,2.294,0,0,1-.827-3.137c2.378-4.07,4.786-7.979,7.175-11.628a2.3,2.3,0,1,1,3.84,2.537c-2.344,3.573-4.715,7.4-7.046,11.414a2.3,2.3,0,0,1-1.977,1.128Zm96.72-15.714a2.3,2.3,0,0,1-2.07-1.3,132.351,132.351,0,0,0-6.343-11.679,2.3,2.3,0,1,1,3.914-2.4,136.97,136.97,0,0,1,6.551,12.089,2.291,2.291,0,0,1-1.057,3.063A2.266,2.266,0,0,1,2613.362,656.375Zm-83.162-5.061a2.294,2.294,0,0,1-1.85-3.658c2.868-3.885,5.77-7.482,8.624-10.693a2.3,2.3,0,0,1,3.436,3.05c-2.762,3.108-5.574,6.607-8.362,10.37a2.3,2.3,0,0,1-1.847.925Zm70.283-16.082a2.289,2.289,0,0,1-1.794-.862,54.144,54.144,0,0,0-9.12-9.171,2.295,2.295,0,0,1,2.8-3.639,58.663,58.663,0,0,1,9.91,9.945,2.294,2.294,0,0,1-1.792,3.726Zm-53.887-2.5a2.3,2.3,0,0,1-1.543-4,69.032,69.032,0,0,1,11.179-8.38,2.3,2.3,0,1,1,2.328,3.964,64.1,64.1,0,0,0-10.42,7.823,2.3,2.3,0,0,1-1.544.6Zm34.489-12.339a2.317,2.317,0,0,1-.663-.1,19.652,19.652,0,0,0-3.33-.7,23.025,23.025,0,0,0-2.709-.161h0a25.385,25.385,0,0,0-6.1.772,2.3,2.3,0,1,1-1.1-4.456,29.977,29.977,0,0,1,7.2-.906h0a27.238,27.238,0,0,1,3.259.2,23.977,23.977,0,0,1,4.1.862,2.294,2.294,0,0,1-.661,4.493Z" transform="translate(-1820.82 -452.337)" fill="#9b59b6"/><path d="M3042.832,893.756a2.3,2.3,0,0,1-2.209-1.676c-.626-2.228-1.271-4.437-1.916-6.567a2.294,2.294,0,1,1,4.393-1.322c.655,2.157,1.321,4.4,1.942,6.655a2.273,2.273,0,0,1-2.209,2.91Z" transform="translate(-2235.544 -649.302)" fill="#9b59b6"/><path d="M1446.318,622.738c0,5.365-13.37,9.712-29.864,9.712s-29.864-4.347-29.864-9.712c0-4.757,10.484-8.7,24.34-9.546-1.041-2.008-2.114-4.009-3.171-5.941a2.3,2.3,0,1,1,4.03-2.2q.465.846.922,1.7.357-.888.716-1.776a2.3,2.3,0,0,1,4.258,1.718c-.846,2.1-1.673,4.17-2.529,6.343h1.284C1432.948,613.023,1446.318,617.37,1446.318,622.738Z" transform="translate(-1020.125 -444.071)" fill="#9b59b6"/><path d="M2412.018,1215.293c0,5.365-13.37,9.712-29.864,9.712s-29.864-4.347-29.864-9.712c0-5.021,11.755-9.166,26.819-9.662q-.3-3.2-.613-6.369a3.639,3.639,0,0,1,7.188.75c-.587,1.85-1.176,3.726-1.75,5.587C2399.6,1205.9,2412.018,1210.126,2412.018,1215.293Z" transform="translate(-1730.607 -880.219)" fill="#9b59b6"/><path d="M3038.773,607.976a2.552,2.552,0,0,1-2.162,1.195,2.52,2.52,0,0,1-1.354-.394l-25.68-16.121-25.68,16.121a2.55,2.55,0,1,1-2.717-4.316l23.6-14.823-16.83-10.571a2.55,2.55,0,1,1,2.717-4.316L3006,584.373V450.21l80.527,28.712-73.762,24.214v81.489l15.722-9.871a2.55,2.55,0,1,1,2.714,4.316l-16.83,10.571,23.6,14.824A2.548,2.548,0,0,1,3038.773,607.976Z" transform="translate(-2192.416 -331.216)" fill="#9b59b6"/><path d="M194.7,1262.33h.037v.013l-.021.026-.019.021a.056.056,0,0,0,0,.016h0C194.678,1262.385,194.691,1262.359,194.7,1262.33Zm-35.75,65.212,12.744,7.352-.032.048h0l-12.757-7.347-.124-.079Z" transform="translate(-116.804 -928.707)" fill="#9b59b6"/><path d="M164.253,1134.143v-3.853M45.762,1230.4l-.048.05-.124-.079Zm29.893,22.591v-.164c0,.047,0,.1,0,.164Zm87.055-44.418h0l-.436-.264Zm-.875-.5q-1.321-.756-2.614-1.509ZM152.056,1203.459Zm-45.644-24.827v.428c.005-.143.005-.288.008-.428Zm-2.849,59.091Zm-.053,0Zm-.354-.069Zm.563,3.7h0l-.328-.3Zm-3.732-63.806h0l-.143.061Zm-1.892,58.338h0c-.066.021-.137.04-.2.056C97.96,1235.927,98.031,1235.908,98.095,1235.887Zm-8.425-4.9Zm-.3.074Zm-.048.013h-.011Zm-6.776-64.638c1.411.822,2.83,1.641,4.244,2.463-1.414-.817-2.833-1.639-4.244-2.461l-.024-.016Zm-1.057-1.163h0a.366.366,0,0,1,.026-.082h.037v.013h0l.05.069h-.122Zm-5.827,87.718v-.164a.64.64,0,0,0-.011.164Zm-.042-1.85v-.27a1.181,1.181,0,0,0-.011.272Zm-.042-1.11a3.537,3.537,0,0,0,.013.373q0-.19-.016-.373c0-.172-.013-.346-.021-.529,0,.185.008.359.013.531Zm-7.928-17h0l-.3-.264Zm-3.113.573Zm-.119.082Zm-1.057,74.263.388.071-.388-.069Zm-3.129-7.374a.232.232,0,0,0,0-.074.177.177,0,0,1,0,.074v.238a1.032,1.032,0,0,1-.005-.225Zm-1.723-62.841-.032.047h0ZM55.151,1298.1h0l-5.272-.439Zm-36.8-3.171-5.257-.452h0Zm-13.42,6.39h.016v.148A.317.317,0,0,1,4.935,1301.315Zm98.578-63.605Zm-27.9,13.431v-.18a.682.682,0,0,0,0,.18Zm.042,1.85v-.164a1.556,1.556,0,0,0,0,.161Z" transform="translate(-3.617 -831.563)" fill="#9b59b6"/><path d="M.041,1199.321a168.916,168.916,0,0,0,6.887-15.979,174.356,174.356,0,0,0,10.664-62.786c1.39.986,2.693,1.911,4,2.83l-1.625-.328c2.32,3.158,13.893,9.892,18.894,10.68-3.047-1.771-6.121-3.51-9.147-5.325-2.762-1.66-5.473-3.4-8.209-5.111q1.744.967,3.5,1.927t3.5,1.924c2.336,1.287,4.662,2.579,6.972,3.909,2.73,1.57,5.341,3.338,8.008,5.021l-2.006-.333a38.239,38.239,0,0,0,14.343,8.444c.1.032.351-.418.547-.682h0l1.678.209c1.057-3.919-2.508-3.277-4.207-4.437.082-.634.164-1.276.211-1.639l1.179,1.166c.349-.428.7-.859.838-1.028l1.221.957a4.218,4.218,0,0,0,.684-1.322c.159-1.533.151-3.084.283-4.62.05-.621.193-1.7.468-1.76,2.86-.611,1.3-2.548,1.535-4.458-4.435,0-8.684-.375-12.836.1s-8.267,1.816-12.361,2.767c5.97-15.593,8.721-31.651,7.188-48.628l17.736,10.217c1.1-2.545.1-3.964-1.263-4.517.605-1.173,1.485-2.146,1.586-3.19.219-2.511.058-5.053.079-7.582,0-.642-.1-1.686.219-1.85,1.85-1,1.192-2.643,1.21-4.073.063-5.058.026-10.117.026-15.172h.2v30.887l2.627.6-2.923,1.464c.428,1.85-.97,4,1.39,5.333q5.962,3.364,11.853,6.853A23.017,23.017,0,0,1,77.658,1102a49.172,49.172,0,0,0-.164-31.233l1.916.161a.316.316,0,0,0-.029.079H79.5l.111.156c.124.188.246.389.378.566.024.034.053.069.077.1a.262.262,0,0,0,.042.05v.019l.034.04c.026.026.048.053.079.079h0l.016.016h0l.026.027.021.018.019.013.019.016a1.162,1.162,0,0,0,.1.069q2.114,1.232,4.247,2.46h0l4.247,2.453,4.252,2.45q4.781,2.751,9.564,5.494v0c.119.071.241.14.362.209a8.757,8.757,0,0,0,1.192.426h0v-3.415c.013-2.378.019-4.7-.108-7.006a.2.2,0,0,0-.013-.087,1.118,1.118,0,0,0-.2-.42c-.019-.032-.045-.063-.066-.1a.14.14,0,0,1-.026-.029l-.074-.085a3.074,3.074,0,0,0-.227-.227l-.071-.063c-.042-.037-.087-.077-.135-.111a.8.8,0,0,0-.1-.071c-.04-.032-.082-.063-.122-.09l-.13-.084c-.1-.063-.193-.121-.288-.174l-.143-.071c-.055-.029-.111-.053-.166-.077l-.145-.058h0c-.315-.109-.624-.212-.938-.312l-.4-.127-.1-.029a.809.809,0,0,0-.114-.037l-.148-.045-.444-.132h0c-.309-.093-.616-.177-.928-.264l-.145-.037c-.4-.106-.793-.206-1.195-.3l-.309-.069c-.219-.05-.441-.1-.663-.145s-.37-.079-.555-.116h0l-.264-.053-.264-.05c-.246-.047-.489-.092-.737-.132l-.148-.026-.748-.124h0l-.37-.055H93.74l-.182-.026h-.164l-.135-.018c-.169-.026-.338-.048-.51-.069h0l-.37-.047-.227-.027H92.1l-.64-.071h0l-.288-.026c-.137-.016-.277-.026-.418-.04H90.7c-.264-.024-.529-.048-.793-.066h-.378l-.37-.026-.753-.045h0c-.346-.019-.69-.032-1.036-.042s-.69-.026-1.039-.029H83.583c-.721,0-1.446.034-2.17.063-.423.016-.846.037-1.266.058l-.671.04a.637.637,0,0,0-.048-.069h-.048c.386-1.033.748-2.075,1.16-3.095,2.336-5.814,5.087-11.5,6.9-17.472,1.491-4.908,2.685-10.043,2.3-15.455l14.195,8.023c1.271-2.756-1.646-2.273-2.379-3.549l2.209-.315c.584-5.96,1.4-11.795,1.657-17.657.288-6.562.069-13.148.069-19.427,1.007.312,1.929.674,2.886.87,1.028.214,2.408-.1,3.079.468,1.686,1.44,3.327.78,5.021.452a54.091,54.091,0,0,1,5.753-1.136c2.455-.2,4.939-.048,8.092-.048l-12.231,1.826c.04.264.082.544.122.817,1.448-.143,2.891-.333,4.342-.412a36.435,36.435,0,0,1,4.16-.04c1.374.082,2.733.333,4.1.507-5.413.5-10.7,1.321-15.984,2.114-.959.143-2.569.56-2.8.182-1.562-2.505-3.914-.793-6.039-1.628v33.085c.875.132,1.475.227,2.207.341-3.637,2.55-3.515,4.049.388,6.293,2.968,1.707,5.957,3.377,8.922,5.09.558.323,1.321.648,1.528,1.158.793,1.974,1.345,4.038,2.061,6.044,3.219,8.965,3.806,18.32,4.115,27.713.093,2.828.013,5.661.013,8.491-3.367-9.683-10.254-15.437-19.523-19.523,0,3.61.1,6.708-.042,9.794a3.3,3.3,0,0,0,2.032,3.436c6.123,3.436,12.178,6.969,18.251,10.476a14.708,14.708,0,0,1,1.213.912l-1.834.359c4.839,11.1,5.534,22.816,6.644,34.481,2.939-11.491,4.453-23.022,1.921-34.262.991-.682,1.876-.983,2.254-1.6,5.518-9.012,9.778-18.5,10.553-29.4l13.478,7.646c1.586-2.881-1.057-3.171-2.252-4.361l2.677-.529v-35.729c.436.605.793,1.52,1.247,1.57l.18.021h.034a84.226,84.226,0,0,0,10.072.774c3.988-.037,7.973-.528,11.956-.827a1.736,1.736,0,0,0,.019.309l-10.373,1.3c.019.2.04.389.061.581l9.216-.439c-5.006.719-9.438,1.372-13.875,1.979a6.8,6.8,0,0,1-2.4.032c-1.5-.344-2.971-.793-4.673-1.3v17.281l1.057,2.114h0l31.4,39.441h0l1.739,1.945h0l71.449,79.964,15.812,16.293a38.08,38.08,0,0,1,5.413-1.15c.056.2-6.343,2.056-17.488,5.55-8.594,2.7-15.593,4.99-20.265,6.53a13.947,13.947,0,0,1,5.516,6.417c2.849,6.974-1.657,13.5-2.016,14.007-9.514-7.4-19.76-3.853-29.927-2.336q.875-2.735,1.789-5.5t1.837-5.489L212.223,1220a46.808,46.808,0,0,1-5.521,14.707,44.561,44.561,0,0,1-11.668,13.272,48.077,48.077,0,0,1-28.014,8.93c-25.955.217-51.916.206-77.876.328-4.229.018-8.457.24-12.686.37-24.2-.151-41.907-.32-42.164-.383l-.381-.092-.3-.077-.457-.106h0l-.367-.082-.42-.1c-.264-.069-.547-.143-.814-.222l-.394-.124-.264-.09c-.264-.09-.5-.187-.751-.288-.161-.069-.325-.137-.484-.214-.314-.148-.624-.3-.922-.468h0l-.28-.158-.264-.167-.264-.169-.264-.174h0l-.264-.18c-.087-.061-.172-.121-.264-.185l-.264-.193-.243-.2-.378-.322-.209-.188c-.14-.127-.264-.264-.407-.389l-.219-.219h0c-.061-.058-.119-.116-.174-.177h0c-.034-.037-.066-.074-.1-.111a.546.546,0,0,1-.063-.071,2.841,2.841,0,0,1-.23-.264c-.077-.1-.1-.1-.14-.159l-.034-.042c-.069-.077-.137-.159-.2-.238l-.2-.246-.127-.161c-.061-.074-.119-.151-.177-.23s-.111-.143-.164-.217c-.145-.193-.285-.391-.425-.592l-.182-.264c-.061-.085-.114-.172-.169-.264l-.172-.264-.164-.264q-.1-.166-.2-.333c-.069-.111-.132-.225-.2-.336l-.219-.383c-.1-.169-.19-.344-.283-.529-.066-.127-.135-.264-.2-.381l-.14-.264c-.048-.1-.1-.2-.153-.307-.016-.037-.037-.074-.053-.111-.09-.18-.177-.362-.264-.544-.793-1.686-1.369-3.486-2.135-5.191-.1-.206-.19-.412-.288-.616-.061-.124-.124-.249-.182-.37s-.148-.293-.227-.439l-.085-.161c-.159-.293-.32-.584-.492-.867q-.071-.121-.151-.246c-.19-.317-.4-.631-.608-.935-.159-.225-.314-.447-.478-.661s-.333-.428-.5-.637l-.2-.233-.063-.074h0l-.071-.079-.066-.074-.135-.148h0c-.092-.1-.182-.2-.264-.293s-.188-.193-.283-.288-.145-.146-.219-.214-.148-.14-.222-.206-.148-.137-.222-.2l-.24-.209c-.085-.074-.166-.143-.251-.211l-.106-.085c-.069-.058-.137-.111-.209-.164l-.1-.082-.264-.2-.124-.09-.143-.1-.264-.174-.264-.175c-.19-.122-.383-.238-.576-.349l-.127-.074-.164-.092c-.066-.04-.14-.077-.209-.114s-.185-.1-.283-.148c-.264-.127-.51-.264-.774-.37l-.264-.111-.243-.119c-.156-.079-.312-.161-.465-.246-.2-.111-.394-.23-.581-.351l-.174-.119a8.007,8.007,0,0,1-.663-.5l-.153-.135c-.061-.05-.116-.1-.172-.156l-.169-.177c-.061-.063-.124-.127-.185-.193s-.106-.121-.159-.182c-.114-.132-.222-.264-.325-.409a4.047,4.047,0,0,1-.264-.4c-.082-.132-.161-.264-.233-.4l-.124-.232c-.1-.2-.185-.4-.264-.613-.024-.063-.045-.124-.069-.185s-.045-.122-.063-.185-.053-.18-.079-.264-.061-.222-.087-.336c-.018-.071-.032-.14-.048-.211s-.018-.09-.026-.135c-.016-.087-.034-.177-.048-.264q-.24-1.506-.478-3.018t-.465-3.023q-.28-1.863-.558-3.732c-.018-.1-.032-.2-.045-.3-.143-.957-.283-1.919-.42-2.875q-.233-1.586-.462-3.171a3.571,3.571,0,0,1-.029-.452c0-.066,0-.132,0-.2,0-.145.018-.3.032-.46s.034-.314.055-.481c0-.084.021-.172.029-.264s.021-.18.026-.264v-.137a1.344,1.344,0,0,0,0-.148l54.418,7.109q.116-.9.233-1.781c.019-.145.04-.291.058-.433a.334.334,0,0,1,.024-.151c.021-.172.042-.344.069-.513.029-.214.053-.426.082-.64s.05-.381.071-.571.048-.378.069-.566.037-.3.053-.455l.048-.449c.063-.6.111-1.2.148-1.8v-.24a1.419,1.419,0,0,1,.013-.238.243.243,0,0,0,0-.074v-.029h0v-.019a.321.321,0,0,0-.026-.063c0-.021-.021-.045-.032-.069s-.029-.048-.042-.071a1.541,1.541,0,0,0-.174-.219l-.056-.058a.406.406,0,0,0-.058-.058l-.127-.119a.062.062,0,0,0-.021-.016c-.048-.042-.1-.082-.148-.122l-.124-.092-.132-.085a1.926,1.926,0,0,0-.2-.121c-.034-.019-.063-.037-.1-.053a2.373,2.373,0,0,0-.225-.1l-.1-.034a1.113,1.113,0,0,0-.145-.042l-.135-.024-2.172-.206-1.424-.129c-.473-.045-.943-.087-1.417-.127q-3.362-.293-6.718-.563l-2.114-.172-5.394-.5q-17.905-1.485-35.813-3a1.67,1.67,0,0,1-.264-.045l-.111-.029c-.058-.016-.119-.037-.174-.058-.116-.04-.23-.087-.346-.132l-.172-.066-.1-.037a.425.425,0,0,1,0-.486Zm240.64,5.19c2.661.793,5.214,1.451,7.632,1.979,5.341-1.559,13.214-3.8,22.853-6.343,3.549-.933,8.106-2.114,11.716-3l-14.763-15.212c-11.322-2.643-20.741,1.586-29.835,7.643l-1.2,13.769q1.744.608,3.6,1.163Zm-78.579,14.61,24.383-.917c-3.642-6.224-17.065-10.043-24.988-7.4C161.684,1213.391,161.88,1216.045,162.1,1219.121Zm20.675-45-4.612-2.693C179.486,1174.378,180.469,1174.948,182.777,1174.119Zm-5.989-3.462-4.033-2.342c-.122.172-.24.346-.359.529C173.466,1170.1,174.267,1171.817,176.788,1170.657Zm-5.793-3.325c-2.077-1.221-3.763-2.217-5.783-3.407,1.551,3.153,3.293,4.247,5.783,3.4Zm-7.313-5.225c8.1,4.551,16.121,9.25,23.381,13.441,5.846,14.414,6.343,28.344.793,42.386q3.148.042,6.438-.018c5.93-.116,11.549-.507,16.824-1.081q8.967-2.669,17.937-5.328c.04-.605.063-1.229.077-1.85a43.225,43.225,0,0,0-.973-9.839c2.54,1.152,5.333,2.291,8.37,3.356l1.147-13.167c-.032.021-.069.042-.1.066-9.081-33.537-25.7-63.024-44.156-91.762h0l-1.271-1.586h0l-27.729-34.832,22.728,44.777c15.889,27.972,31.817,55.978,47.936,84.335-13.608-3.734-23.3,3.171-33.006,10.87-.793-33.7-4.963-66.335-16.872-97.716l-22.578-44.5-.264-.547-.3-.592v11.14c0,1.4.264,2.643,2.754,2.479l-2.664,1.62c-.24,3.888-.238,3.882,3.045,5.793,3.029,1.763,6.052,3.534,8.166,4.757,3.277,6.575,5.9,12.519,6.848,18.97.962,6.554,1.7,13.143,2.537,19.715l-.769.2c-3.47-9.35-10.915-14.173-19.932-17.971,0,3,.087,5.521-.032,8.029a2.778,2.778,0,0,0,1.71,2.865c6.1,3.454,12.157,7,18.217,10.529a18.575,18.575,0,0,1,1.7,1.21l-.32.412c-.864-.386-1.723-.774-2.585-1.163-.164.19-.333.378-.5.566,4.229,1.1,4.932,4.6,5.436,7.854,1.176,7.556,2.294,15.149,2.817,22.768.359,5.22-.325,10.51-.529,15.77-.671-.2-.822-.394-.891-.61-3.092-10.159-9.874-17.3-18.764-22.588-1.128-.674-2.889-.455-4.334-.354-.772.05-1.5.735-2.379,1.208,0,2.114.122,4.326-.037,6.512a3.525,3.525,0,0,0,2.125,3.875Zm.983-44.468h0c.042.071.077.14.114.209.243.436.465.825.684,1.163.106.169.209.323.314.468a6.364,6.364,0,0,0,.6.721c.063.066.13.127.193.182a2.654,2.654,0,0,0,.285.227l.079.05a.943.943,0,0,0,.111.064l.106.058a1.682,1.682,0,0,0,.159.071l.122.042a1.841,1.841,0,0,0,.288.071h.116a3.855,3.855,0,0,0,1.85-.375l-1-.592-.642-.38-.439-.264h0l-1.128-.669-1.81-1.057Zm-86.738-46.717-.05-.069h0v-.013H77.84c0,.029-.021.055-.026.082h.122Zm.758,1.031.024.026h.013Zm.19.14h-.024l.024.016c1.411.822,2.83,1.644,4.244,2.461-1.406-.835-2.815-1.654-4.236-2.476Zm18.994,11.163-.65-.38-.2-.116-.729-.431L94.7,1081.4c-.3-.177-.6-.351-.9-.529l-.455-.264-.3-.177h0c.024.082.045.161.071.241s.048.156.071.233a1.643,1.643,0,0,0,.056.156c.021.053.032.1.053.151s.042.116.063.174c.055.143.114.264.177.41a1.863,1.863,0,0,0,.1.206l.058.116a1.339,1.339,0,0,0,.077.132,3.515,3.515,0,0,0,.624.827c.021.024.05.048.074.071l.1.082.1.077a1.753,1.753,0,0,0,.209.135H94.9l.063.032h.013a.633.633,0,0,0,.071.034,1.831,1.831,0,0,0,.209.084l.135.04a.639.639,0,0,0,.122.029.981.981,0,0,0,.122.024.66.66,0,0,0,.124,0,2.3,2.3,0,0,0,.468,0h0a.522.522,0,0,0,.177-.021h.032a1.012,1.012,0,0,0,.217-.037l.2-.045.066-.019h.04l.119-.034a.06.06,0,0,0,.026,0l.053-.016a5.055,5.055,0,0,0,.587-.222l.143-.061Zm34.219,59.387c-.14.264-.285.529-.428.793L158.09,1158.8v-7.281l-5.2-1.742a19.018,19.018,0,0,0,2.413-1.322c.1-.074-.4-.927-.674-1.53h3.581C155.344,1144.088,137.782,1141.361,132.09,1142.643Zm.069,2.191c.09,2.513,2.053,3.7,5.286,3.058Zm6.636,3.811a6.444,6.444,0,0,0,7.569,4.382c-2.733-1.573-5.087-2.939-7.569-4.371Zm8.721,5.045c1.892,4.281,3.637,5.212,6.3,3.626-2.186-1.242-4.244-2.431-6.306-3.615Zm10.661-39.975-2.614-1.509q1.29.761,2.606,1.52Zm-2.886-1.451-3.6-2.1-.677-.394c-.114-.069-.23-.135-.346-.2-.23-.137-.468-.264-.706-.412h0a11.658,11.658,0,0,0,.547,1.2c.034.074.071.143.108.209.09.172.182.328.277.478a.817.817,0,0,0,.056.087h0c.037.055.071.111.108.164.09.129.182.248.264.359l.1.108c.032.037.063.071.1.106a1.6,1.6,0,0,0,.116.114,2.821,2.821,0,0,0,.314.264l.106.069.111.066a.528.528,0,0,0,.085.045l.082.042.085.034.106.042.056.019.05.016a1.535,1.535,0,0,0,.182.045h.056a1.755,1.755,0,0,0,.206.032h.1a5.122,5.122,0,0,0,2.117-.383Zm-9.179-3.866a2.162,2.162,0,0,0,.243.061c.079.018.164.034.248.048l.132.018a1.6,1.6,0,0,0,.164.016,1.128,1.128,0,0,0,.135,0h.925l.177-.021h.193l.143-.024h0l.177-.034-2.664-1.562-.687-.4-.7-.412q-.708-.412-1.451-.851a7.935,7.935,0,0,0,.568,1.192l.071.119c.069.111.137.217.209.317a2.145,2.145,0,0,0,.13.177q.087.116.182.222l.092.106.1.1c.061.063.127.127.193.185a3.872,3.872,0,0,0,.349.283c.029.016.05.034.077.05.1.061.188.116.285.169.045.026.092.05.14.074s.077.037.119.055l.085.034c.032,0,.063.029.1.04A.709.709,0,0,1,146.113,1108.4Zm-.182.108Zm2.476.613Zm-12.363-7.968.127.264c.034.071.071.14.106.209a7.083,7.083,0,0,0,.428.737q.045.075.1.146l.135.19c.032.04.061.077.087.116l.09.111c.032.037.061.074.092.108l.124.137a3.538,3.538,0,0,0,.264.264l.132.119a.932.932,0,0,0,.1.077,1.215,1.215,0,0,0,.114.093c.063.048.124.093.188.135s.114.079.174.116l.174.1.169.084a2.409,2.409,0,0,0,.24.108l.18.069a1.311,1.311,0,0,0,.135.045.739.739,0,0,0,.111.034,1.3,1.3,0,0,0,.156.042l.077.018a1.22,1.22,0,0,1,.153.032,2.39,2.39,0,0,0,.264.045h.114c.1,0,.2.019.3.024h.3l.344-.592Zm24.118,12.868.439.264h0v-5.106a.24.24,0,0,0,0-.045v-.647h0v-.79c0-.706-.021-1.4-.045-2.1a1.673,1.673,0,0,0-.994-1.176c-.431-.148-.925-.312-1.387-.462-.7-.225-1.387-.439-2.085-.645q-2.561-.751-5.169-1.321-2.352-.51-4.741-.856-1.078-.156-2.164-.264c-.481-.055-.967-.1-1.448-.145-.243-.024-.486-.045-.729-.061q-2.608-.206-5.251-.2l19.375,11.2,1.152.663h0l2.608,1.509a1.51,1.51,0,0,1,.441.2Zm-1.118.206h0l-.436-.264Zm-32.3,111.932H138.4a42.925,42.925,0,0,1,5.376,0c4.493.529,7.952-.293,9.052-5.426.114-.529,1.25-1,2-1.229a11.036,11.036,0,0,1,2.423-.182,2.377,2.377,0,0,0,.455-.222c.2-2.479.42-5.1.677-8.232-12.255,2.064-22.57,7.236-31.857,14.649Zm-.447-66.071c.122-.246.248-.492.37-.737l-4.649-2.709c.93,1.937,1.953,3.71,4.268,3.422Zm-20.043,66.071h19.163c0-5.716-10.46-13.867-20.181-15.088.344,5.045.677,10.03,1.017,15.064Zm14.271-70.342-4.472-2.643-.32.529c1.269,1.271,2.114,3.272,4.371,2.817Zm-5.944-3.523-6.443-3.66c1.887,3.338,3.473,4.318,6.433,3.637Zm-9.231-7.357a3.56,3.56,0,0,0,1.755,2.014c8.156,4.781,16.354,9.49,24.539,14.229.764.441,1.493.941,2.873,1.821l-2.534-.2a123.586,123.586,0,0,1-4.295,61.118c1.057-1.9,2.236-3.745,3.171-5.706,3.576-7.527,5.3-15.563,6.155-23.785,1.446-14.007.7-27.845-3.631-41.355-.241-.75-.544-1.483-.822-2.225l-.608.111v5.286c-3.771-13.637-13.359-21.407-26.182-26.693,0,2.379-.053,4.4.04,6.417.021.468.529.917.83,1.374.357-.529.719-1.028.867-1.242.624.484,1.456,1.134,2.352,1.834-1.348.529-2.862,1.11-4.588,1.784a32.618,32.618,0,0,0,.069,5.2Zm-.9-57.614-4.72-3.076a3.489,3.489,0,0,0,1.475,2.823,3.564,3.564,0,0,0,3.235.227Zm-2.55,46.289c.021-.137.045-.264.063-.407s.032-.2.042-.293l.04-.28h0a1.971,1.971,0,0,1,.029-.264c.011-.079.018-.174.026-.264h0a1.1,1.1,0,0,1,.013-.209c0-.137.016-.264.019-.4v-.552a1.288,1.288,0,0,0-.021-.291l-.016-.151a.878.878,0,0,0-.021-.145c-.008-.048-.019-.1-.026-.143s-.019-.084-.029-.127a.21.21,0,0,0,0-.04.364.364,0,0,0-.026-.106c-.011-.034-.024-.087-.037-.13l-.042-.127c-.019-.042-.034-.082-.048-.121a1.229,1.229,0,0,0-.05-.119c0-.018-.019-.034-.026-.05a.377.377,0,0,0-.034-.074,1.061,1.061,0,0,0-.058-.106.708.708,0,0,0-.061-.1.289.289,0,0,0-.024-.037h0a.088.088,0,0,0-.024-.032c-.029-.042-.058-.085-.092-.127s-.053-.069-.085-.1-.066-.082-.1-.119-.09-.09-.137-.135a3.516,3.516,0,0,0-.3-.264l-.148-.1c-.069-.045-.132-.087-.206-.13l-.172-.1c-.137-.071-.277-.137-.431-.206s-.307-.124-.47-.18-.336-.116-.529-.169c-.093-.027-.182-.056-.28-.079h0c-.19-.053-.391-.1-.6-.151-.1-.026-.211-.05-.32-.071l-.391-.082-.293-.058-.669-.122-.127-.021-.344-.064c-.542-.095-1.089-.185-1.633-.264l-.431-.066-.18-.029-1.271-.19-.817-.114-.679-.1-1.646-.217h-.026c-.655-.084-1.321-.169-1.969-.248l-1.3-.164-1.646-.209-1.424-.185-.529-.071-.983-.135a4.415,4.415,0,0,0-.846-.045h-.114a1.594,1.594,0,0,0-.264.05l-.058.018-.058.018h-.021a.2.2,0,0,0-.048.019.188.188,0,0,0-.04.018h0a.923.923,0,0,0-.1.05h0l-.092.061h0l-.066.05a.75.75,0,0,0-.071.061l-.066.063a.605.605,0,0,0-.058.061c-.026.032-.053.066-.077.1a.5.5,0,0,0-.055.077l-.053.082c-.034.058-.074.124-.108.193s-.058.121-.087.188-.074.188-.111.291l-.085.264c-.013.042-.024.085-.034.13a.966.966,0,0,0-.037.132c-.024.079-.042.161-.061.241s-.04.177-.058.264-.019.1-.026.151-.029.151-.042.227v.143a.31.31,0,0,1-.016.111.494.494,0,0,0,0,.153v.1a4.081,4.081,0,0,0,0,.595v.116a3.723,3.723,0,0,0,.061.433c.013.063.029.124.045.188s.04.132.061.2a.21.21,0,0,0,.021.061.656.656,0,0,0,.034.093.755.755,0,0,0,.045.106l.079.172c.032.055.061.111.092.164s.063.108.1.161l.108.159.114.14c.045.056.092.108.143.161s.09.1.137.145l.148.143.172.151c.074.058.143.116.219.174s.153.114.238.172c.04.029.077.058.119.085s.1.069.153.1l.227.143a.025.025,0,0,0,.016,0c.069.045.143.087.217.132l.132.077.151.082.182.1c.906.486,1.813.983,2.714,1.483.412.225.822.454,1.232.684q.722.4,1.44.811l.986.558,1.321.758c.441.264.885.507,1.321.764q1.29.743,2.569,1.488.959.563,1.924,1.12l.97.565,1.9,1.107q1.451.846,2.907,1.681a.532.532,0,0,0,.1.042h.053l.074.019h.085l.151.029h.174c.04-.188.077-.365.108-.529.024-.13.045-.264.071-.375s.029-.188.045-.264.029-.2.042-.3.026-.19.034-.283.013-.111.016-.167a1.156,1.156,0,0,1,.019-.222v-.238a3.148,3.148,0,0,0-.024-.428.2.2,0,0,0-.016-.1.153.153,0,0,0,0-.047.674.674,0,0,0-.013-.072.638.638,0,0,0-.021-.076.341.341,0,0,0-.016-.066c-.018-.066-.042-.129-.063-.19a.483.483,0,0,1-.029-.069.9.9,0,0,0-.074-.14.477.477,0,0,0-.034-.063.8.8,0,0,0-.069-.1.229.229,0,0,0-.04-.053.832.832,0,0,0-.063-.077c-.021-.024-.045-.047-.066-.074a.585.585,0,0,1-.058-.056l-.063-.055-.063-.05-.053-.042h-.016l-.074-.053c-.042-.029-.087-.056-.132-.082a1.012,1.012,0,0,0-.14-.079,2.993,2.993,0,0,0-.344-.169l-.2-.082-.209-.077-.211-.074c-.071-.024-.151-.05-.235-.074s-.143-.045-.214-.066l-.167-.045c-.108-.032-.219-.063-.341-.093l-.362-.1c-.264-.069-.573-.135-.891-.206l-.322-.074v-1.665l.264.264.161.156h0l.1.09.153.127.079.063.058.042a1.926,1.926,0,0,0,.278.164l.1.04.05.016.1.016a.274.274,0,0,0,.093,0,.071.071,0,0,0,.034,0,.269.269,0,0,0,.09-.026l.037-.019a.156.156,0,0,0,.037-.026.142.142,0,0,0,.032-.026.133.133,0,0,0,.034-.032.53.53,0,0,0,.048-.061h0a.54.54,0,0,0,.04-.066l.032-.063.018-.05h0a.278.278,0,0,0,.016-.05.612.612,0,0,0,.034-.119.417.417,0,0,1,.021-.092,1.036,1.036,0,0,0,.019-.1.439.439,0,0,1,0-.058c0-.04,0-.079,0-.122a2.6,2.6,0,0,0,.019-.264v-.1c0-.187,0-.394-.016-.618.37.632.743,1.261,1.115,1.892.338-.579.7-1.144,1-1.739a5.268,5.268,0,0,0,.529-1.342c.016-.074.029-.148.04-.219s.029-.143.04-.214-.037-.148-.026-.222Zm-17.012,3.224.182.032.177.026c.071,0,.137.019.211.024H86.2a1.173,1.173,0,0,0,.137,0h.246a1.693,1.693,0,0,0,.2-.026,1.059,1.059,0,0,0,.2-.029h.063a.082.082,0,0,0,.034,0h0l.085-.018h0l.1-.021h.032l.066-.016a.692.692,0,0,0,.127-.034h.071l-2.614-1.528-5.732-3.436c.092.2.19.394.293.584h0c.1.188.2.373.312.55s.209.333.322.492c.048.077.1.153.159.227l.114.153a3.339,3.339,0,0,0,.264.32c.042.053.085.106.13.153l.156.18q.1.119.214.23l.174.175c.019.021.04.04.058.058s.09.082.132.122l.013.016.169.148c.211.182.431.351.653.507.048.034.092.066.14.1h.024c.061.04.116.079.18.116l.156.092c.053.034.1.061.156.09l.042.024a6.269,6.269,0,0,0,.663.312l.2.082c.079.029.156.055.235.079s.161.053.241.074l.114.029a2.3,2.3,0,0,0,.352.092Zm-.085.048Zm4.229.642c.016.087.026.172.042.264.029.145.058.285.093.423.013.042.024.085.034.127a5.515,5.515,0,0,0,.473,1.181c.016.034.037.066.056.1a2.217,2.217,0,0,0,.132.214,1.813,1.813,0,0,0,.111.167l.119.161a.33.33,0,0,0,.048.058c.037.05.079.1.122.148a2.7,2.7,0,0,0,.188.2c.05.056.108.111.167.164l.129.114h0l.05.042.127.1.108.077a2.873,2.873,0,0,0,.288.193c.063.04.124.074.188.108l.19.1a3.861,3.861,0,0,0,.4.167q.069.029.14.05l.108.034c.106.034.214.063.33.09.077.018.159.034.243.05h.09c.1.018.193.032.291.042h.148c.148,0,.3.018.449.018h.016a3.885,3.885,0,0,0,.457-.018h.037l.177-.019h.071l.166-.024a.144.144,0,0,0,.042,0l.145-.021c.119-.021.24-.042.362-.069l.193-.048.2-.05.206-.058h0l-.674-.4-.418-.248c-.045-.024-.087-.048-.132-.077l-.3-.174c-1.081-.634-2.1-1.232-3.087-1.818l-.682-.4c-.555-.328-1.11-.65-1.665-.98Zm10.693,9.2.328.3h0Zm.2-1.1a.131.131,0,0,0,0-.034.681.681,0,0,0-.016-.071Zm.439.3h0l.6.558.642.6h0c0-.19-.021-.365-.034-.529a1.11,1.11,0,0,0-.013-.211c-.013-.174-.032-.336-.05-.481a.153.153,0,0,0-.013-.077c-.013-.024,0-.048-.013-.071a.531.531,0,0,0-.013-.069c0-.024,0-.047,0-.069a2.372,2.372,0,0,0-.079-.264,1.5,1.5,0,0,0-.106-.24.707.707,0,0,0-.061-.108.758.758,0,0,0-.069-.093l-.016-.026a1.158,1.158,0,0,0-.079-.087.832.832,0,0,0-.1-.1l-.053-.047a1.017,1.017,0,0,0-.114-.09,1,1,0,0,0-.085-.061c-.034-.024-.069-.05-.111-.074a1.484,1.484,0,0,0-.169-.1c-.048-.026-.1-.053-.145-.077-.1-.056-.222-.111-.352-.167a.585.585,0,0,0-.071-.032c-.19-.085-.4-.169-.648-.264l-.264-.1c-.465-.172-1.02-.365-1.678-.592l.362.338.365.336Zm-.354-3.047c-.037.172-.071.352-.111.529h0c.037-.2.077-.38.108-.555Zm-.161.529Zm-.314-.061h0ZM77.69,1216.925c1,.206,1.85,1.208,2.717,1.916a2.115,2.115,0,0,1,.581,1.057c1.535,5.708,5.286,7.4,10.9,6.525,2.841-.436,5.814-.077,8.851-.077.079-1.02.137-1.728.188-2.439q.436-5.912.877-11.819c.1-1.364-.325-2-1.868-2.141-10.611-.983-20.709,1.179-30.591,4.792a10.964,10.964,0,0,0-1.221.774C71.632,1216.008,74.693,1216.3,77.69,1216.925Zm-16.557-3.919c.04-.108.079-.217.122-.328v1h0l.388.069.391.066h0c.077-.085.164-.164.251-.246l.087-.082a1.141,1.141,0,0,0,.085-.079h0a1.017,1.017,0,0,0,.071-.085.241.241,0,0,0,.048-.056l.021-.026a1.032,1.032,0,0,0,.055-.09s0,0,0-.016a.265.265,0,0,0,.019-.04.092.092,0,0,0,.016-.037c.185-.5.365-1,.544-1.506q.544-1.506,1.057-3.015c.045-.127.087-.264.132-.386.129-.375.264-.751.386-1.126s.264-.809.4-1.21.264-.809.4-1.213c.188-.576.375-1.152.558-1.731s.362-1.155.544-1.734c.09-.291.177-.579.264-.87.053-.174.106-.349.161-.529.119-.4.241-.811.359-1.218s.235-.814.354-1.218c.2-.682.386-1.361.571-2.043.108-.381.211-.761.312-1.144q.23-.856.447-1.715c.108-.41.211-.819.312-1.229.137-.547.264-1.094.4-1.644l.285-1.226c.1-.412.188-.827.277-1.24s.182-.83.264-1.242.166-.822.264-1.232c.04-.182.074-.365.108-.544s.074-.365.108-.544v-.034c.019-.087.034-.172.05-.264a.077.077,0,0,0,0-.024c.069-.359.132-.719.2-1.078h0l.222-1.239c.024-.13.048-.264.066-.388a1.239,1.239,0,0,1,.037-.217c.058-.336.114-.674.166-1.012a.9.9,0,0,1,.021-.116.356.356,0,0,1,.019-.116c.034-.2.066-.412.1-.616.063-.431.132-.859.193-1.287.079-.552.156-1.11.23-1.662.066-.484.129-.97.185-1.456.016-.143.034-.286.053-.431.024-.209.05-.418.069-.629.037-.354.077-.706.116-1.057.016-.153.029-.307.045-.46v-.071c.042-.439.085-.877.122-1.321a.975.975,0,0,1,.016-.175h0a.089.089,0,0,1,0-.024c0-.124.021-.249.029-.373.016-.182.032-.362.045-.542.021-.24.037-.484.053-.724s.032-.42.045-.632c.024-.333.042-.669.063-1s.034-.671.053-1a3.664,3.664,0,0,1,.021-.481,4.5,4.5,0,0,0,.019-.457l.034-.978c0-.206.016-.415.021-.624v-5.029h0c0-.18,0-.359-.013-.529a.016.016,0,0,0,0-.016s0,0,0-.019a4.03,4.03,0,0,0-.016-.439v-.082h0v-.362a3.44,3.44,0,0,0-.013-.37,3.5,3.5,0,0,1,0-.373l-.024-.529c0-.174-.019-.346-.029-.529s-.019-.312-.026-.47a.883.883,0,0,0-.013-.185c0-.124-.019-.264-.026-.381-.016-.23-.034-.46-.053-.69s-.045-.529-.069-.777c-.013-.153-.026-.3-.042-.46-.029-.264-.055-.552-.085-.83-.037-.33-.074-.661-.114-.991-.029-.264-.063-.529-.1-.811-.317-2.6-.727-5.191-1.131-7.786-.074-.473-.145-.943-.222-1.419l-.293-1.94c-.026-.188-.055-.378-.082-.566-.045-.309-.09-.624-.132-.936a1.749,1.749,0,0,0-.029-.2c-.029-.217-.058-.436-.09-.655-.042-.317-.085-.634-.122-.951s-.082-.634-.119-.951a1.077,1.077,0,0,0-.026-.185c-.011-.061-.016-.111-.026-.167-.016-.116-.037-.227-.058-.338a.5.5,0,0,0-.029-.124,1.329,1.329,0,0,0-.032-.14.371.371,0,0,0-.029-.106.225.225,0,0,0,0-.045c-.026-.09-.048-.174-.077-.264s-.069-.217-.108-.322-.114-.28-.174-.415a3.117,3.117,0,0,0-.156-.3,1.5,1.5,0,0,0-.082-.14,3.135,3.135,0,0,0-.2-.32c-.056-.077-.111-.153-.174-.23s-.079-.1-.124-.153l-.188-.206-.042-.037a4.751,4.751,0,0,0-.761-.632l-.137-.09a2.4,2.4,0,0,0-.264-.153l-.106-.061c-.119-.063-.238-.124-.365-.185a1.587,1.587,0,0,0-.177-.079h0c-.063-.029-.132-.055-.2-.082s-.122-.05-.185-.074-.172-.066-.264-.1l-.233-.077-.241-.071c-1.321-.378-2.606-.84-4.622-1.5.264,4.21.468,7.849.732,12.276h0l.114-.079h0l.048-.032.169-.122h0l.1-.071h0c.069-.05.132-.1.2-.14s.122-.09.185-.132l.4-.285.14-.1h0l.3.264h0l-.3-.264h0l.182-.132.061-.042.056-.04.056-.037.05-.037h0l.1-.071h0l.034-.029c.048-.032.1-.063.14-.1l.159-.111c.1.1.251.23.433.391h0l.14.124c.14.13.291.264.444.4h0l.486-.56.378-.439.135-.151a1.929,1.929,0,0,0,.034.291.919.919,0,0,0,.013.116.77.77,0,0,0,.019.2c.019.069,0,.108.019.164a2.305,2.305,0,0,0,.032.293c.026.235.05.481.077.724l-1.805.626c-.1.034-.206.069-.309.108l-1.826.632-1.321.46c-.3,16.547-.264,33.207-.225,49.9a.234.234,0,0,1,0,.061q0,3.016.013,6.039v15.429c-.042.114-.085.225-.124.338a.211.211,0,0,1-.013.037Zm-.053-73.893-.085.061.085-.058Zm-.188,74.242a1.1,1.1,0,0,0,.077-.085l.045-.055a.109.109,0,0,0,.018-.029.987.987,0,0,1-.063.084Zm-.148-74h0c.04-.026.079-.053.116-.082h0l-.116.079h0Zm-1.057,74.264.389.069-.389-.071h0Zm-2.7-37.753v1.247c0,.417,0,.793.019,1.195,0,.441.016.88.026,1.322,0,.3.013.6.021.9a5.789,5.789,0,0,0,.021.605c.021.2,0,.4.016.605.013.415.032.833.045,1.247q.055,1.321.122,2.643c.019.293.032.584.05.877s.029.529.048.793c.05.846.108,1.694.169,2.54.034.463.071.925.108,1.385q.225,2.77.529,5.55v-45.88c-.032.338-.066.679-.1,1.02-.026.264-.053.544-.074.817-.042.441-.082.883-.116,1.321-.066.748-.124,1.5-.18,2.244-.024.264-.04.529-.058.793-.034.41-.063.819-.09,1.231-.071.989-.132,1.974-.188,2.963s-.106,1.979-.151,2.971-.085,1.974-.116,2.963c-.029.912-.056,1.824-.071,2.735l-.016.7v1.533q-.021,1.845-.013,3.692Zm-5.508,27.906h0l-5.267-.455Zm-8.954-.859,10.511.906h0c.024-.28.045-.558.071-.838l-42.076-3.341h0c-.016.182-.029.37-.045.552h0L32.014,1202Zm-33.1-2.764,5.257.452-5.257-.455Z" transform="translate(0.049 -737.222)" fill="#9b59b6"/><path d="M214.12,1774.712v-.238a.235.235,0,0,0,0-.074.232.232,0,0,1,0,.074A2.376,2.376,0,0,1,214.12,1774.712Z" transform="translate(-157.519 -1305.445)" fill="#9b59b6"/><path d="M213.86,1773.66a.792.792,0,0,1,.063.151v-.019l-.026-.066A.526.526,0,0,0,213.86,1773.66Z" transform="translate(-157.328 -1304.901)" fill="#9b59b6"/><path d="M53.18,1885.73l.264.307-.2-.233-.063-.074Z" transform="translate(-39.113 -1387.353)" fill="#9b59b6"/><path d="M52.67,1885.15l.135.153-.069-.079C52.715,1885.2,52.694,1885.177,52.67,1885.15Z" transform="translate(-38.737 -1386.926)" fill="#9b59b6"/><path d="M52.15,1884.59l.137.148-.135-.148Z" transform="translate(-38.355 -1386.514)" fill="#9b59b6"/><path d="M4.823,1777.705v-.077a.431.431,0,0,0,0-.061,1.346,1.346,0,0,0,0-.148h0a.562.562,0,0,1-.013.148Z" transform="translate(-3.526 -1307.667)" fill="#9b59b6"/><path d="M159.23,1509.123l12.76,7.347h0l.032-.047-12.746-7.352Z" transform="translate(-117.135 -1110.238)" fill="#9b59b6"/><path d="M272.51,1592.36v-.55c0,.365,0,.729.018,1.092Z" transform="translate(-200.477 -1171.111)" fill="#9b59b6"/><path d="M272.33,1586.55v.27A2.289,2.289,0,0,0,272.33,1586.55Z" transform="translate(-200.345 -1167.241)" fill="#9b59b6"/><path d="M272.12,1581.4c0,.174.013.349.021.529a2.967,2.967,0,0,0,.016.373,3.493,3.493,0,0,0-.013-.373Z" transform="translate(-200.19 -1163.452)" fill="#9b59b6"/><path d="M270.631,1639.87a1.956,1.956,0,0,1-.021.214V1640C270.61,1639.976,270.626,1639.9,270.631,1639.87Z" transform="translate(-199.08 -1206.469)" fill="#9b59b6"/><path d="M270.794,1636.77c-.024.264-.048.547-.074.819.021-.217.042-.436.061-.653C270.778,1636.881,270.794,1636.831,270.794,1636.77Z" transform="translate(-199.16 -1204.189)" fill="#9b59b6"/><path d="M265.89,1673.312c.058-.338.114-.674.169-1.012C266.006,1672.638,265.948,1672.974,265.89,1673.312Z" transform="translate(-195.607 -1230.329)" fill="#9b59b6"/><path d="M241.06,1518l.3.264h0Z" transform="translate(-177.339 -1116.808)" fill="#9b59b6"/><path d="M231.39,1783.481l.016-.037c.04-.108.079-.217.122-.328.143-.391.283-.793.426-1.179.357-1,.714-2.009,1.057-3.016.045-.129.09-.264.132-.386l.383-1.126c-.645,1.9-1.321,3.8-2,5.7-.042.114-.085.225-.124.338A.2.2,0,0,1,231.39,1783.481Z" transform="translate(-170.225 -1307.66)" fill="#9b59b6"/><path d="M230.83,1801l.045-.056a.109.109,0,0,0,.018-.029A1,1,0,0,1,230.83,1801Z" transform="translate(-169.813 -1324.957)" fill="#9b59b6"/><path d="M230.54,1801.325h0a1.1,1.1,0,0,0,.077-.085Z" transform="translate(-169.599 -1325.192)" fill="#9b59b6"/><path d="M230.93,1520.708l.085-.058h0Z" transform="translate(-169.886 -1118.757)" fill="#9b59b6"/><path d="M230,1521.3h0c.04-.027.079-.053.116-.082h0Z" transform="translate(-169.202 -1119.177)" fill="#9b59b6"/><path d="M230,1521.54Z" transform="translate(-169.202 -1119.412)" fill="#9b59b6"/><path d="M226,1802.573h0l.389.069-.389-.071Z" transform="translate(-166.259 -1326.171)" fill="#9b59b6"/><path d="M380.48,1487.7a6.573,6.573,0,0,1,.045.991v-.55a1.325,1.325,0,0,0-.021-.293C380.493,1487.8,380.488,1487.75,380.48,1487.7Z" transform="translate(-279.913 -1094.515)" fill="#9b59b6"/><path d="M380.3,1486.61c.021.093.034.19.048.288A2.421,2.421,0,0,0,380.3,1486.61Z" transform="translate(-279.78 -1093.714)" fill="#9b59b6"/><path d="M378.089,1535.339h0c.037-.188.077-.365.108-.529-.037.172-.071.351-.111.529h-.016Z" transform="translate(-278.14 -1129.175)" fill="#9b59b6"/><path d="M376.44,1536.46h0Z" transform="translate(-276.94 -1130.389)" fill="#9b59b6"/><path d="M388.93,1308.907v0Z" transform="translate(-286.13 -961.409)" fill="#9b59b6"/><path d="M348.34,1264.18l.624.093-.37-.056Z" transform="translate(-256.267 -930.068)" fill="#9b59b6"/><path d="M326.37,1262.2h0Z" transform="translate(-240.103 -928.611)" fill="#9b59b6"/><path d="M298.53,1267l.024.016c1.411.822,2.831,1.644,4.244,2.46-1.414-.822-2.833-1.641-4.244-2.463Z" transform="translate(-219.621 -932.143)" fill="#9b59b6"/><path d="M297.9,1266.52l.024.026h.013Z" transform="translate(-219.157 -931.789)" fill="#9b59b6"/><path d="M294.57,1262.459h.122l-.05-.069h0l-.021.026h0l-.016.021-.013.016h0Z" transform="translate(-216.707 -928.751)" fill="#9b59b6"/><path d="M602,1409.314v0Z" transform="translate(-442.889 -1035.563)" fill="#9b59b6"/><path d="M602,1405.68v0Z" transform="translate(-442.889 -1034.172)" fill="#9b59b6"/><path d="M602,1404.06v.127h0v-.021h0Z" transform="translate(-442.889 -1032.98)" fill="#9b59b6"/><path d="M600.28,1425.53l.436.264h0Z" transform="translate(-441.623 -1048.776)" fill="#9b59b6"/><path d="M588.73,1418.87q1.3.75,2.614,1.509Z" transform="translate(-433.126 -1043.876)" fill="#9b59b6"/><path d="M175,1763.58l5.257.455h0Z" transform="translate(-128.738 -1297.485)" fill="#9b59b6"/><path d="M35.81,1751.58h0l10.513.9Z" transform="translate(-26.333 -1288.656)" fill="#9b59b6"/><path d="M158.77,1509l.122.079,12.76,7.347.034-.045-12.746-7.352Z" transform="translate(-116.797 -1110.186)" fill="#9b59b6"/><path d="M324.44,1511.492h.032l.069-.016.058-.016Z" transform="translate(-238.683 -1111.996)" fill="#9b59b6"/><path d="M325.3,1511.37a.116.116,0,0,0,.034,0,.17.17,0,0,0,.037,0H325.3Z" transform="translate(-239.316 -1111.93)" fill="#9b59b6"/><path d="M321.34,1512.07Z" transform="translate(-236.402 -1112.445)" fill="#9b59b6"/><path d="M321,1512.1Z" transform="translate(-236.152 -1112.467)" fill="#9b59b6"/><path d="M356.68,1529.915l.2-.055h0Z" transform="translate(-262.403 -1125.533)" fill="#9b59b6"/><path d="M561.64,1407.15h0Z" transform="translate(-413.195 -1035.253)" fill="#9b59b6"/><path d="M554.93,1404.6h0Z" transform="translate(-408.259 -1033.377)" fill="#9b59b6"/><path d="M552.27,1404.83Z" transform="translate(-406.302 -1033.547)" fill="#9b59b6"/><path d="M364.07,1309.181l.14-.061h0Z" transform="translate(-267.84 -963.131)" fill="#9b59b6"/><path d="M389.43,1324.39h0" transform="translate(-286.497 -974.365)" fill="#9b59b6"/><path d="M369.74,1315.19h0" transform="translate(-272.011 -967.597)" fill="#9b59b6"/><path d="M378.14,1544.76a.7.7,0,0,0,.029.14.531.531,0,0,0-.013-.069A.7.7,0,0,0,378.14,1544.76Z" transform="translate(-278.191 -1136.495)" fill="#9b59b6"/><path d="M377.48,1549.33l.328.3h0Z" transform="translate(-277.706 -1139.857)" fill="#9b59b6"/></g></g></svg>