<svg xmlns="http://www.w3.org/2000/svg" viewBox="0 0 582.59 715.35"><defs><style>.cls-1{fill:#fff;}</style></defs><title>what-you-need</title><g id="Layer_2" data-name="Layer 2"><g id="Layer_1-2" data-name="Layer 1"><path id="Exclusion_1" data-name="Exclusion 1" class="cls-1" d="M160.11,47.45A145.47,145.47,0,0,0,145.39,59.4a152.89,152.89,0,0,0-13,13.24,8,8,0,0,1,2.37,2.58,150.33,150.33,0,0,0,14.36-11.71,145,145,0,0,0,13.24-13.57c3-3.6,3.87-5.34,4.13-6.06C165.78,44.07,164,44.79,160.11,47.45ZM129.24,80.22a5.55,5.55,0,0,0-.81-1.17,5.22,5.22,0,0,0-1.11-.93,5.81,5.81,0,0,0-2.49-.81l-.52,0a6.55,6.55,0,0,0-3.29.89,6.32,6.32,0,0,0-1.26.91,11.32,11.32,0,0,0-2.48,3.74,12.39,12.39,0,0,0-.87,2.48A5.41,5.41,0,0,1,115,88.13a6,6,0,0,1-1.93,1.32,13.27,13.27,0,0,0,5.67,1.28,12.58,12.58,0,0,0,1.73-.12,13.54,13.54,0,0,0,8-4.37A5.59,5.59,0,0,0,129.24,80.22ZM134.66,358a15.1,15.1,0,1,0,15.11,15.09A15.1,15.1,0,0,0,134.66,358ZM160.11,47.45A145.47,145.47,0,0,0,145.39,59.4a152.89,152.89,0,0,0-13,13.24,8,8,0,0,1,2.37,2.58,150.33,150.33,0,0,0,14.36-11.71,145,145,0,0,0,13.24-13.57c3-3.6,3.87-5.34,4.13-6.06C165.78,44.07,164,44.79,160.11,47.45ZM129.24,80.22a5.55,5.55,0,0,0-.81-1.17,5.22,5.22,0,0,0-1.11-.93,5.81,5.81,0,0,0-2.49-.81l-.52,0a6.55,6.55,0,0,0-3.29.89,6.32,6.32,0,0,0-1.26.91,11.32,11.32,0,0,0-2.48,3.74,12.39,12.39,0,0,0-.87,2.48A5.41,5.41,0,0,1,115,88.13a6,6,0,0,1-1.93,1.32,13.27,13.27,0,0,0,5.67,1.28,12.58,12.58,0,0,0,1.73-.12,13.54,13.54,0,0,0,8-4.37A5.59,5.59,0,0,0,129.24,80.22ZM134.66,358a15.1,15.1,0,1,0,15.11,15.09A15.1,15.1,0,0,0,134.66,358ZM160.11,47.45A145.47,145.47,0,0,0,145.39,59.4a152.89,152.89,0,0,0-13,13.24,8,8,0,0,1,2.37,2.58,150.33,150.33,0,0,0,14.36-11.71,145,145,0,0,0,13.24-13.57c3-3.6,3.87-5.34,4.13-6.06C165.78,44.07,164,44.79,160.11,47.45ZM134.66,358a15.1,15.1,0,1,0,15.11,15.09A15.1,15.1,0,0,0,134.66,358ZM129.24,80.22a5.55,5.55,0,0,0-.81-1.17,5.22,5.22,0,0,0-1.11-.93,5.81,5.81,0,0,0-2.49-.81l-.52,0a6.55,6.55,0,0,0-3.29.89,6.32,6.32,0,0,0-1.26.91,11.32,11.32,0,0,0-2.48,3.74,12.39,12.39,0,0,0-.87,2.48A5.41,5.41,0,0,1,115,88.13a6,6,0,0,1-1.93,1.32,13.27,13.27,0,0,0,5.67,1.28,12.58,12.58,0,0,0,1.73-.12,13.54,13.54,0,0,0,8-4.37A5.59,5.59,0,0,0,129.24,80.22Z"/><path class="cls-1" d="M371.55,66a6.38,6.38,0,0,0-9.41,0,7.1,7.1,0,0,0-1.95,5,7.18,7.18,0,0,0,1.95,5.07,6.32,6.32,0,0,0,9.41,0,7.22,7.22,0,0,0,1.95-5.09A7.07,7.07,0,0,0,371.55,66Zm0,0a6.38,6.38,0,0,0-9.41,0,7.1,7.1,0,0,0-1.95,5,7.18,7.18,0,0,0,1.95,5.07,6.32,6.32,0,0,0,9.41,0,7.22,7.22,0,0,0,1.95-5.09A7.07,7.07,0,0,0,371.55,66Zm0,0a6.38,6.38,0,0,0-9.41,0,7.1,7.1,0,0,0-1.95,5,7.18,7.18,0,0,0,1.95,5.07,6.32,6.32,0,0,0,9.41,0,7.22,7.22,0,0,0,1.95-5.09A7.07,7.07,0,0,0,371.55,66Zm0,0a6.38,6.38,0,0,0-9.41,0,7.1,7.1,0,0,0-1.95,5,7.18,7.18,0,0,0,1.95,5.07,6.32,6.32,0,0,0,9.41,0,7.22,7.22,0,0,0,1.95-5.09A7.07,7.07,0,0,0,371.55,66Zm0,0a6.38,6.38,0,0,0-9.41,0,7.1,7.1,0,0,0-1.95,5,7.18,7.18,0,0,0,1.95,5.07,6.32,6.32,0,0,0,9.41,0,7.22,7.22,0,0,0,1.95-5.09A7.07,7.07,0,0,0,371.55,66Zm0,0a6.38,6.38,0,0,0-9.41,0,7.1,7.1,0,0,0-1.95,5,7.18,7.18,0,0,0,1.95,5.07,6.32,6.32,0,0,0,9.41,0,7.22,7.22,0,0,0,1.95-5.09A7.07,7.07,0,0,0,371.55,66ZM292.5,66a6.39,6.39,0,0,0-9.42,0,7.1,7.1,0,0,0-1.95,5,7.18,7.18,0,0,0,1.95,5.07,6.33,6.33,0,0,0,9.42,0,7.22,7.22,0,0,0,1.95-5.09A7.07,7.07,0,0,0,292.5,66Zm79.05,0a6.38,6.38,0,0,0-9.41,0,7.1,7.1,0,0,0-1.95,5,7.18,7.18,0,0,0,1.95,5.07,6.32,6.32,0,0,0,9.41,0,7.22,7.22,0,0,0,1.95-5.09A7.07,7.07,0,0,0,371.55,66ZM292.5,66a6.39,6.39,0,0,0-9.42,0,7.1,7.1,0,0,0-1.95,5,7.18,7.18,0,0,0,1.95,5.07,6.33,6.33,0,0,0,9.42,0,7.22,7.22,0,0,0,1.95-5.09A7.07,7.07,0,0,0,292.5,66Zm79.05,0a6.38,6.38,0,0,0-9.41,0,7.1,7.1,0,0,0-1.95,5,7.18,7.18,0,0,0,1.95,5.07,6.32,6.32,0,0,0,9.41,0,7.22,7.22,0,0,0,1.95-5.09A7.07,7.07,0,0,0,371.55,66ZM292.5,66a6.39,6.39,0,0,0-9.42,0,7.1,7.1,0,0,0-1.95,5,7.18,7.18,0,0,0,1.95,5.07,6.33,6.33,0,0,0,9.42,0,7.22,7.22,0,0,0,1.95-5.09A7.07,7.07,0,0,0,292.5,66Zm79.05,0a6.38,6.38,0,0,0-9.41,0,7.1,7.1,0,0,0-1.95,5,7.18,7.18,0,0,0,1.95,5.07,6.32,6.32,0,0,0,9.41,0,7.22,7.22,0,0,0,1.95-5.09A7.07,7.07,0,0,0,371.55,66ZM292.5,66a6.39,6.39,0,0,0-9.42,0,7.1,7.1,0,0,0-1.95,5,7.18,7.18,0,0,0,1.95,5.07,6.33,6.33,0,0,0,9.42,0,7.22,7.22,0,0,0,1.95-5.09A7.07,7.07,0,0,0,292.5,66Zm79.05,0a6.38,6.38,0,0,0-9.41,0,7.1,7.1,0,0,0-1.95,5,7.18,7.18,0,0,0,1.95,5.07,6.32,6.32,0,0,0,9.41,0,7.22,7.22,0,0,0,1.95-5.09A7.07,7.07,0,0,0,371.55,66ZM217.77,59.6A10.74,10.74,0,0,0,210,56.35h-3.87v22H210a11,11,0,0,0,7.77-18.71Zm24.18,6A6.47,6.47,0,0,0,237.56,64a6.58,6.58,0,0,0-4.4,1.62,7.19,7.19,0,0,0-2.41,4.18h13.54A6.86,6.86,0,0,0,242,65.62ZM292.5,66a6.39,6.39,0,0,0-9.42,0,7.1,7.1,0,0,0-1.95,5,7.18,7.18,0,0,0,1.95,5.07,6.33,6.33,0,0,0,9.42,0,7.22,7.22,0,0,0,1.95-5.09A7.07,7.07,0,0,0,292.5,66Zm79.05,0a6.38,6.38,0,0,0-9.41,0,7.1,7.1,0,0,0-1.95,5,7.18,7.18,0,0,0,1.95,5.07,6.32,6.32,0,0,0,9.41,0,7.22,7.22,0,0,0,1.95-5.09A7.07,7.07,0,0,0,371.55,66ZM292.5,66a6.39,6.39,0,0,0-9.42,0,7.1,7.1,0,0,0-1.95,5,7.18,7.18,0,0,0,1.95,5.07,6.33,6.33,0,0,0,9.42,0,7.22,7.22,0,0,0,1.95-5.09A7.07,7.07,0,0,0,292.5,66Zm79.05,0a6.38,6.38,0,0,0-9.41,0,7.1,7.1,0,0,0-1.95,5,7.18,7.18,0,0,0,1.95,5.07,6.32,6.32,0,0,0,9.41,0,7.22,7.22,0,0,0,1.95-5.09A7.07,7.07,0,0,0,371.55,66ZM242,65.62A6.47,6.47,0,0,0,237.56,64a6.58,6.58,0,0,0-4.4,1.62,7.19,7.19,0,0,0-2.41,4.18h13.54A6.86,6.86,0,0,0,242,65.62Zm-24.18-6A10.74,10.74,0,0,0,210,56.35h-3.87v22H210a11,11,0,0,0,7.77-18.71Zm0,0A10.74,10.74,0,0,0,210,56.35h-3.87v22H210a11,11,0,0,0,7.77-18.71Zm24.18,6A6.47,6.47,0,0,0,237.56,64a6.58,6.58,0,0,0-4.4,1.62,7.19,7.19,0,0,0-2.41,4.18h13.54A6.86,6.86,0,0,0,242,65.62Zm26.51,147.44a6.33,6.33,0,0,0-9.45,0,7.49,7.49,0,0,0,0,10.17,6.33,6.33,0,0,0,9.45,0,7.49,7.49,0,0,0,0-10.17Zm24-147a6.39,6.39,0,0,0-9.42,0,7.1,7.1,0,0,0-1.95,5,7.18,7.18,0,0,0,1.95,5.07,6.33,6.33,0,0,0,9.42,0,7.22,7.22,0,0,0,1.95-5.09A7.07,7.07,0,0,0,292.5,66Zm79.05,0a6.38,6.38,0,0,0-9.41,0,7.1,7.1,0,0,0-1.95,5,7.18,7.18,0,0,0,1.95,5.07,6.32,6.32,0,0,0,9.41,0,7.22,7.22,0,0,0,1.95-5.09A7.07,7.07,0,0,0,371.55,66Zm-103.09,147a6.33,6.33,0,0,0-9.45,0,7.49,7.49,0,0,0,0,10.17,6.33,6.33,0,0,0,9.45,0,7.49,7.49,0,0,0,0-10.17Zm24-147a6.39,6.39,0,0,0-9.42,0,7.1,7.1,0,0,0-1.95,5,7.18,7.18,0,0,0,1.95,5.07,6.33,6.33,0,0,0,9.42,0,7.22,7.22,0,0,0,1.95-5.09A7.07,7.07,0,0,0,292.5,66Zm79.05,0a6.38,6.38,0,0,0-9.41,0,7.1,7.1,0,0,0-1.95,5,7.18,7.18,0,0,0,1.95,5.07,6.32,6.32,0,0,0,9.41,0,7.22,7.22,0,0,0,1.95-5.09A7.07,7.07,0,0,0,371.55,66ZM242,65.62A6.47,6.47,0,0,0,237.56,64a6.58,6.58,0,0,0-4.4,1.62,7.19,7.19,0,0,0-2.41,4.18h13.54A6.86,6.86,0,0,0,242,65.62Zm-24.18-6A10.74,10.74,0,0,0,210,56.35h-3.87v22H210a11,11,0,0,0,7.77-18.71Zm0,0A10.74,10.74,0,0,0,210,56.35h-3.87v22H210a11,11,0,0,0,7.77-18.71Zm24.18,6A6.47,6.47,0,0,0,237.56,64a6.58,6.58,0,0,0-4.4,1.62,7.19,7.19,0,0,0-2.41,4.18h13.54A6.86,6.86,0,0,0,242,65.62Zm26.51,147.44a6.33,6.33,0,0,0-9.45,0,7.49,7.49,0,0,0,0,10.17,6.33,6.33,0,0,0,9.45,0,7.49,7.49,0,0,0,0-10.17Zm24-147a6.39,6.39,0,0,0-9.42,0,7.1,7.1,0,0,0-1.95,5,7.18,7.18,0,0,0,1.95,5.07,6.33,6.33,0,0,0,9.42,0,7.22,7.22,0,0,0,1.95-5.09A7.07,7.07,0,0,0,292.5,66Zm-1.39,147a6.62,6.62,0,0,0-9.59.09,7,7,0,0,0-2,5.07,7,7,0,0,0,2,5,6.67,6.67,0,0,0,9.59.09,6.93,6.93,0,0,0,2.1-4.83v-.58A7.07,7.07,0,0,0,291.11,213ZM371.55,66a6.38,6.38,0,0,0-9.41,0,7.1,7.1,0,0,0-1.95,5,7.18,7.18,0,0,0,1.95,5.07,6.32,6.32,0,0,0,9.41,0,7.22,7.22,0,0,0,1.95-5.09A7.07,7.07,0,0,0,371.55,66Zm-103.09,147a6.33,6.33,0,0,0-9.45,0,7.49,7.49,0,0,0,0,10.17,6.33,6.33,0,0,0,9.45,0,7.49,7.49,0,0,0,0-10.17Zm22.65,0a6.62,6.62,0,0,0-9.59.09,7,7,0,0,0-2,5.07,7,7,0,0,0,2,5,6.67,6.67,0,0,0,9.59.09,6.93,6.93,0,0,0,2.1-4.83v-.58A7.07,7.07,0,0,0,291.11,213ZM292.5,66a6.39,6.39,0,0,0-9.42,0,7.1,7.1,0,0,0-1.95,5,7.18,7.18,0,0,0,1.95,5.07,6.33,6.33,0,0,0,9.42,0,7.22,7.22,0,0,0,1.95-5.09A7.07,7.07,0,0,0,292.5,66Zm79.05,0a6.38,6.38,0,0,0-9.41,0,7.1,7.1,0,0,0-1.95,5,7.18,7.18,0,0,0,1.95,5.07,6.32,6.32,0,0,0,9.41,0,7.22,7.22,0,0,0,1.95-5.09A7.07,7.07,0,0,0,371.55,66ZM242,65.62A6.47,6.47,0,0,0,237.56,64a6.58,6.58,0,0,0-4.4,1.62,7.19,7.19,0,0,0-2.41,4.18h13.54A6.86,6.86,0,0,0,242,65.62Zm-24.18-6A10.74,10.74,0,0,0,210,56.35h-3.87v22H210a11,11,0,0,0,7.77-18.71Zm0,0A10.74,10.74,0,0,0,210,56.35h-3.87v22H210a11,11,0,0,0,7.77-18.71Zm24.18,6A6.47,6.47,0,0,0,237.56,64a6.58,6.58,0,0,0-4.4,1.62,7.19,7.19,0,0,0-2.41,4.18h13.54A6.86,6.86,0,0,0,242,65.62Zm26.51,147.44a6.33,6.33,0,0,0-9.45,0,7.49,7.49,0,0,0,0,10.17,6.33,6.33,0,0,0,9.45,0,7.49,7.49,0,0,0,0-10.17Zm24-147a6.39,6.39,0,0,0-9.42,0,7.1,7.1,0,0,0-1.95,5,7.18,7.18,0,0,0,1.95,5.07,6.33,6.33,0,0,0,9.42,0,7.22,7.22,0,0,0,1.95-5.09A7.07,7.07,0,0,0,292.5,66Zm-1.39,147a6.62,6.62,0,0,0-9.59.09,7,7,0,0,0-2,5.07,7,7,0,0,0,2,5,6.67,6.67,0,0,0,9.59.09,6.93,6.93,0,0,0,2.1-4.83v-.58A7.07,7.07,0,0,0,291.11,213ZM371.55,66a6.38,6.38,0,0,0-9.41,0,7.1,7.1,0,0,0-1.95,5,7.18,7.18,0,0,0,1.95,5.07,6.32,6.32,0,0,0,9.41,0,7.22,7.22,0,0,0,1.95-5.09A7.07,7.07,0,0,0,371.55,66Zm-103.09,147a6.33,6.33,0,0,0-9.45,0,7.49,7.49,0,0,0,0,10.17,6.33,6.33,0,0,0,9.45,0,7.49,7.49,0,0,0,0-10.17Zm22.65,0a6.62,6.62,0,0,0-9.59.09,7,7,0,0,0-2,5.07,7,7,0,0,0,2,5,6.67,6.67,0,0,0,9.59.09,6.93,6.93,0,0,0,2.1-4.83v-.58A7.07,7.07,0,0,0,291.11,213ZM292.5,66a6.39,6.39,0,0,0-9.42,0,7.1,7.1,0,0,0-1.95,5,7.18,7.18,0,0,0,1.95,5.07,6.33,6.33,0,0,0,9.42,0,7.22,7.22,0,0,0,1.95-5.09A7.07,7.07,0,0,0,292.5,66Zm79.05,0a6.38,6.38,0,0,0-9.41,0,7.1,7.1,0,0,0-1.95,5,7.18,7.18,0,0,0,1.95,5.07,6.32,6.32,0,0,0,9.41,0,7.22,7.22,0,0,0,1.95-5.09A7.07,7.07,0,0,0,371.55,66ZM242,65.62A6.47,6.47,0,0,0,237.56,64a6.58,6.58,0,0,0-4.4,1.62,7.19,7.19,0,0,0-2.41,4.18h13.54A6.86,6.86,0,0,0,242,65.62Zm-24.18-6A10.74,10.74,0,0,0,210,56.35h-3.87v22H210a11,11,0,0,0,7.77-18.71Zm0,0A10.74,10.74,0,0,0,210,56.35h-3.87v22H210a11,11,0,0,0,7.77-18.71Zm24.18,6A6.47,6.47,0,0,0,237.56,64a6.58,6.58,0,0,0-4.4,1.62,7.19,7.19,0,0,0-2.41,4.18h13.54A6.86,6.86,0,0,0,242,65.62Zm26.51,147.44a6.33,6.33,0,0,0-9.45,0,7.49,7.49,0,0,0,0,10.17,6.33,6.33,0,0,0,9.45,0,7.49,7.49,0,0,0,0-10.17Zm24-147a6.39,6.39,0,0,0-9.42,0,7.1,7.1,0,0,0-1.95,5,7.18,7.18,0,0,0,1.95,5.07,6.33,6.33,0,0,0,9.42,0,7.22,7.22,0,0,0,1.95-5.09A7.07,7.07,0,0,0,292.5,66Zm-1.39,147a6.62,6.62,0,0,0-9.59.09,7,7,0,0,0-2,5.07,7,7,0,0,0,2,5,6.67,6.67,0,0,0,9.59.09,6.93,6.93,0,0,0,2.1-4.83v-.58A7.07,7.07,0,0,0,291.11,213Zm56.4,0a6.38,6.38,0,0,0-9.41,0,7.1,7.1,0,0,0-2,5.05,7.18,7.18,0,0,0,2,5.07,6.32,6.32,0,0,0,9.41,0,7.22,7.22,0,0,0,1.95-5.09A7.07,7.07,0,0,0,347.51,213Zm24-147a6.38,6.38,0,0,0-9.41,0,7.1,7.1,0,0,0-1.95,5,7.18,7.18,0,0,0,1.95,5.07,6.32,6.32,0,0,0,9.41,0,7.22,7.22,0,0,0,1.95-5.09A7.07,7.07,0,0,0,371.55,66Zm-24,147a6.38,6.38,0,0,0-9.41,0,7.1,7.1,0,0,0-2,5.05,7.18,7.18,0,0,0,2,5.07,6.32,6.32,0,0,0,9.41,0,7.22,7.22,0,0,0,1.95-5.09A7.07,7.07,0,0,0,347.51,213Zm-79.05,0a6.33,6.33,0,0,0-9.45,0,7.49,7.49,0,0,0,0,10.17,6.33,6.33,0,0,0,9.45,0,7.49,7.49,0,0,0,0-10.17Zm22.65,0a6.62,6.62,0,0,0-9.59.09,7,7,0,0,0-2,5.07,7,7,0,0,0,2,5,6.67,6.67,0,0,0,9.59.09,6.93,6.93,0,0,0,2.1-4.83v-.58A7.07,7.07,0,0,0,291.11,213ZM292.5,66a6.39,6.39,0,0,0-9.42,0,7.1,7.1,0,0,0-1.95,5,7.18,7.18,0,0,0,1.95,5.07,6.33,6.33,0,0,0,9.42,0,7.22,7.22,0,0,0,1.95-5.09A7.07,7.07,0,0,0,292.5,66Zm79.05,0a6.38,6.38,0,0,0-9.41,0,7.1,7.1,0,0,0-1.95,5,7.18,7.18,0,0,0,1.95,5.07,6.32,6.32,0,0,0,9.41,0,7.22,7.22,0,0,0,1.95-5.09A7.07,7.07,0,0,0,371.55,66ZM242,65.62A6.47,6.47,0,0,0,237.56,64a6.58,6.58,0,0,0-4.4,1.62,7.19,7.19,0,0,0-2.41,4.18h13.54A6.86,6.86,0,0,0,242,65.62Zm-24.18-6A10.74,10.74,0,0,0,210,56.35h-3.87v22H210a11,11,0,0,0,7.77-18.71Zm0,0A10.74,10.74,0,0,0,210,56.35h-3.87v22H210a11,11,0,0,0,7.77-18.71Zm24.18,6A6.47,6.47,0,0,0,237.56,64a6.58,6.58,0,0,0-4.4,1.62,7.19,7.19,0,0,0-2.41,4.18h13.54A6.86,6.86,0,0,0,242,65.62Zm19.76,308a6.74,6.74,0,0,0-8.79,0,7.14,7.14,0,0,0-2.41,4.18H264A6.89,6.89,0,0,0,261.71,373.62Zm6.75-160.56a6.33,6.33,0,0,0-9.45,0,7.49,7.49,0,0,0,0,10.17,6.33,6.33,0,0,0,9.45,0,7.49,7.49,0,0,0,0-10.17Zm24-147a6.39,6.39,0,0,0-9.42,0,7.1,7.1,0,0,0-1.95,5,7.18,7.18,0,0,0,1.95,5.07,6.33,6.33,0,0,0,9.42,0,7.22,7.22,0,0,0,1.95-5.09A7.07,7.07,0,0,0,292.5,66Zm-1.39,147a6.62,6.62,0,0,0-9.59.09,7,7,0,0,0-2,5.07,7,7,0,0,0,2,5,6.67,6.67,0,0,0,9.59.09,6.93,6.93,0,0,0,2.1-4.83v-.58A7.07,7.07,0,0,0,291.11,213Zm56.4,0a6.38,6.38,0,0,0-9.41,0,7.1,7.1,0,0,0-2,5.05,7.18,7.18,0,0,0,2,5.07,6.32,6.32,0,0,0,9.41,0,7.22,7.22,0,0,0,1.95-5.09A7.07,7.07,0,0,0,347.51,213Zm24-147a6.38,6.38,0,0,0-9.41,0,7.1,7.1,0,0,0-1.95,5,7.18,7.18,0,0,0,1.95,5.07,6.32,6.32,0,0,0,9.41,0,7.22,7.22,0,0,0,1.95-5.09A7.07,7.07,0,0,0,371.55,66Zm-24,147a6.38,6.38,0,0,0-9.41,0,7.1,7.1,0,0,0-2,5.05,7.18,7.18,0,0,0,2,5.07,6.32,6.32,0,0,0,9.41,0,7.22,7.22,0,0,0,1.95-5.09A7.07,7.07,0,0,0,347.51,213Zm-79.05,0a6.33,6.33,0,0,0-9.45,0,7.49,7.49,0,0,0,0,10.17,6.33,6.33,0,0,0,9.45,0,7.49,7.49,0,0,0,0-10.17Zm22.65,0a6.62,6.62,0,0,0-9.59.09,7,7,0,0,0-2,5.07,7,7,0,0,0,2,5,6.67,6.67,0,0,0,9.59.09,6.93,6.93,0,0,0,2.1-4.83v-.58A7.07,7.07,0,0,0,291.11,213ZM292.5,66a6.39,6.39,0,0,0-9.42,0,7.1,7.1,0,0,0-1.95,5,7.18,7.18,0,0,0,1.95,5.07,6.33,6.33,0,0,0,9.42,0,7.22,7.22,0,0,0,1.95-5.09A7.07,7.07,0,0,0,292.5,66Zm79.05,0a6.38,6.38,0,0,0-9.41,0,7.1,7.1,0,0,0-1.95,5,7.18,7.18,0,0,0,1.95,5.07,6.32,6.32,0,0,0,9.41,0,7.22,7.22,0,0,0,1.95-5.09A7.07,7.07,0,0,0,371.55,66ZM261.71,373.62a6.74,6.74,0,0,0-8.79,0,7.14,7.14,0,0,0-2.41,4.18H264A6.89,6.89,0,0,0,261.71,373.62ZM242,65.62A6.47,6.47,0,0,0,237.56,64a6.58,6.58,0,0,0-4.4,1.62,7.19,7.19,0,0,0-2.41,4.18h13.54A6.86,6.86,0,0,0,242,65.62Zm-24.18-6A10.74,10.74,0,0,0,210,56.35h-3.87v22H210a11,11,0,0,0,7.77-18.71Zm0,0A10.74,10.74,0,0,0,210,56.35h-3.87v22H210a11,11,0,0,0,7.77-18.71Zm24.18,6A6.47,6.47,0,0,0,237.56,64a6.58,6.58,0,0,0-4.4,1.62,7.19,7.19,0,0,0-2.41,4.18h13.54A6.86,6.86,0,0,0,242,65.62Zm19.76,308a6.74,6.74,0,0,0-8.79,0,7.14,7.14,0,0,0-2.41,4.18H264A6.89,6.89,0,0,0,261.71,373.62Zm6.75-160.56a6.33,6.33,0,0,0-9.45,0,7.49,7.49,0,0,0,0,10.17,6.33,6.33,0,0,0,9.45,0,7.49,7.49,0,0,0,0-10.17Zm24-147a6.39,6.39,0,0,0-9.42,0,7.1,7.1,0,0,0-1.95,5,7.18,7.18,0,0,0,1.95,5.07,6.33,6.33,0,0,0,9.42,0,7.22,7.22,0,0,0,1.95-5.09A7.07,7.07,0,0,0,292.5,66Zm-1.39,147a6.62,6.62,0,0,0-9.59.09,7,7,0,0,0-2,5.07,7,7,0,0,0,2,5,6.67,6.67,0,0,0,9.59.09,6.93,6.93,0,0,0,2.1-4.83v-.58A7.07,7.07,0,0,0,291.11,213Zm56.4,0a6.38,6.38,0,0,0-9.41,0,7.1,7.1,0,0,0-2,5.05,7.18,7.18,0,0,0,2,5.07,6.32,6.32,0,0,0,9.41,0,7.22,7.22,0,0,0,1.95-5.09A7.07,7.07,0,0,0,347.51,213Zm24-147a6.38,6.38,0,0,0-9.41,0,7.1,7.1,0,0,0-1.95,5,7.18,7.18,0,0,0,1.95,5.07,6.32,6.32,0,0,0,9.41,0,7.22,7.22,0,0,0,1.95-5.09A7.07,7.07,0,0,0,371.55,66Zm-24,147a6.38,6.38,0,0,0-9.41,0,7.1,7.1,0,0,0-2,5.05,7.18,7.18,0,0,0,2,5.07,6.32,6.32,0,0,0,9.41,0,7.22,7.22,0,0,0,1.95-5.09A7.07,7.07,0,0,0,347.51,213Zm-79.05,0a6.33,6.33,0,0,0-9.45,0,7.49,7.49,0,0,0,0,10.17,6.33,6.33,0,0,0,9.45,0,7.49,7.49,0,0,0,0-10.17Zm22.65,0a6.62,6.62,0,0,0-9.59.09,7,7,0,0,0-2,5.07,7,7,0,0,0,2,5,6.67,6.67,0,0,0,9.59.09,6.93,6.93,0,0,0,2.1-4.83v-.58A7.07,7.07,0,0,0,291.11,213ZM292.5,66a6.39,6.39,0,0,0-9.42,0,7.1,7.1,0,0,0-1.95,5,7.18,7.18,0,0,0,1.95,5.07,6.33,6.33,0,0,0,9.42,0,7.22,7.22,0,0,0,1.95-5.09A7.07,7.07,0,0,0,292.5,66Zm79.05,0a6.38,6.38,0,0,0-9.41,0,7.1,7.1,0,0,0-1.95,5,7.18,7.18,0,0,0,1.95,5.07,6.32,6.32,0,0,0,9.41,0,7.22,7.22,0,0,0,1.95-5.09A7.07,7.07,0,0,0,371.55,66ZM261.71,373.62a6.74,6.74,0,0,0-8.79,0,7.14,7.14,0,0,0-2.41,4.18H264A6.89,6.89,0,0,0,261.71,373.62ZM242,65.62A6.47,6.47,0,0,0,237.56,64a6.58,6.58,0,0,0-4.4,1.62,7.19,7.19,0,0,0-2.41,4.18h13.54A6.86,6.86,0,0,0,242,65.62Zm-24.18-6A10.74,10.74,0,0,0,210,56.35h-3.87v22H210a11,11,0,0,0,7.77-18.71Zm0,0A10.74,10.74,0,0,0,210,56.35h-3.87v22H210a11,11,0,0,0,7.77-18.71Zm24.18,6A6.47,6.47,0,0,0,237.56,64a6.58,6.58,0,0,0-4.4,1.62,7.19,7.19,0,0,0-2.41,4.18h13.54A6.86,6.86,0,0,0,242,65.62Zm19.76,308a6.74,6.74,0,0,0-8.79,0,7.14,7.14,0,0,0-2.41,4.18H264A6.89,6.89,0,0,0,261.71,373.62Zm6.75-160.56a6.33,6.33,0,0,0-9.45,0,7.49,7.49,0,0,0,0,10.17,6.33,6.33,0,0,0,9.45,0,7.49,7.49,0,0,0,0-10.17Zm24-147a6.39,6.39,0,0,0-9.42,0,7.1,7.1,0,0,0-1.95,5,7.18,7.18,0,0,0,1.95,5.07,6.33,6.33,0,0,0,9.42,0,7.22,7.22,0,0,0,1.95-5.09A7.07,7.07,0,0,0,292.5,66Zm-1.39,147a6.62,6.62,0,0,0-9.59.09,7,7,0,0,0-2,5.07,7,7,0,0,0,2,5,6.67,6.67,0,0,0,9.59.09,6.93,6.93,0,0,0,2.1-4.83v-.58A7.07,7.07,0,0,0,291.11,213Zm56.4,0a6.38,6.38,0,0,0-9.41,0,7.1,7.1,0,0,0-2,5.05,7.18,7.18,0,0,0,2,5.07,6.32,6.32,0,0,0,9.41,0,7.22,7.22,0,0,0,1.95-5.09A7.07,7.07,0,0,0,347.51,213Zm24-147a6.38,6.38,0,0,0-9.41,0,7.1,7.1,0,0,0-1.95,5,7.18,7.18,0,0,0,1.95,5.07,6.32,6.32,0,0,0,9.41,0,7.22,7.22,0,0,0,1.95-5.09A7.07,7.07,0,0,0,371.55,66Zm-24,147a6.38,6.38,0,0,0-9.41,0,7.1,7.1,0,0,0-2,5.05,7.18,7.18,0,0,0,2,5.07,6.32,6.32,0,0,0,9.41,0,7.22,7.22,0,0,0,1.95-5.09A7.07,7.07,0,0,0,347.51,213Zm-79.05,0a6.33,6.33,0,0,0-9.45,0,7.49,7.49,0,0,0,0,10.17,6.33,6.33,0,0,0,9.45,0,7.49,7.49,0,0,0,0-10.17Zm22.65,0a6.62,6.62,0,0,0-9.59.09,7,7,0,0,0-2,5.07,7,7,0,0,0,2,5,6.67,6.67,0,0,0,9.59.09,6.93,6.93,0,0,0,2.1-4.83v-.58A7.07,7.07,0,0,0,291.11,213ZM292.5,66a6.39,6.39,0,0,0-9.42,0,7.1,7.1,0,0,0-1.95,5,7.18,7.18,0,0,0,1.95,5.07,6.33,6.33,0,0,0,9.42,0,7.22,7.22,0,0,0,1.95-5.09A7.07,7.07,0,0,0,292.5,66Zm79.05,0a6.38,6.38,0,0,0-9.41,0,7.1,7.1,0,0,0-1.95,5,7.18,7.18,0,0,0,1.95,5.07,6.32,6.32,0,0,0,9.41,0,7.22,7.22,0,0,0,1.95-5.09A7.07,7.07,0,0,0,371.55,66ZM261.71,373.62a6.74,6.74,0,0,0-8.79,0,7.14,7.14,0,0,0-2.41,4.18H264A6.89,6.89,0,0,0,261.71,373.62ZM242,65.62A6.47,6.47,0,0,0,237.56,64a6.58,6.58,0,0,0-4.4,1.62,7.19,7.19,0,0,0-2.41,4.18h13.54A6.86,6.86,0,0,0,242,65.62Zm-24.18-6A10.74,10.74,0,0,0,210,56.35h-3.87v22H210a11,11,0,0,0,7.77-18.71Zm0,0A10.74,10.74,0,0,0,210,56.35h-3.87v22H210a11,11,0,0,0,7.77-18.71Zm24.18,6A6.47,6.47,0,0,0,237.56,64a6.58,6.58,0,0,0-4.4,1.62,7.19,7.19,0,0,0-2.41,4.18h13.54A6.86,6.86,0,0,0,242,65.62Zm19.76,308a6.74,6.74,0,0,0-8.79,0,7.14,7.14,0,0,0-2.41,4.18H264A6.89,6.89,0,0,0,261.71,373.62Zm6.75-160.56a6.33,6.33,0,0,0-9.45,0,7.49,7.49,0,0,0,0,10.17,6.33,6.33,0,0,0,9.45,0,7.49,7.49,0,0,0,0-10.17Zm21.16,317.56a6.75,6.75,0,0,0-8.8,0,7.12,7.12,0,0,0-2.4,4.18H292A6.89,6.89,0,0,0,289.62,530.62ZM292.5,66a6.39,6.39,0,0,0-9.42,0,7.1,7.1,0,0,0-1.95,5,7.18,7.18,0,0,0,1.95,5.07,6.33,6.33,0,0,0,9.42,0,7.22,7.22,0,0,0,1.95-5.09A7.07,7.07,0,0,0,292.5,66Zm-1.39,147a6.62,6.62,0,0,0-9.59.09,7,7,0,0,0-2,5.07,7,7,0,0,0,2,5,6.67,6.67,0,0,0,9.59.09,6.93,6.93,0,0,0,2.1-4.83v-.58A7.07,7.07,0,0,0,291.11,213Zm56.4,0a6.38,6.38,0,0,0-9.41,0,7.1,7.1,0,0,0-2,5.05,7.18,7.18,0,0,0,2,5.07,6.32,6.32,0,0,0,9.41,0,7.22,7.22,0,0,0,1.95-5.09A7.07,7.07,0,0,0,347.51,213Zm1.7,161a6.4,6.4,0,0,0-9.42,0,7.55,7.55,0,0,0,0,10.13,6.33,6.33,0,0,0,9.42,0,7.22,7.22,0,0,0,2-5.09A7.07,7.07,0,0,0,349.21,374ZM371.55,66a6.38,6.38,0,0,0-9.41,0,7.1,7.1,0,0,0-1.95,5,7.18,7.18,0,0,0,1.95,5.07,6.32,6.32,0,0,0,9.41,0,7.22,7.22,0,0,0,1.95-5.09A7.07,7.07,0,0,0,371.55,66Zm-24,147a6.38,6.38,0,0,0-9.41,0,7.1,7.1,0,0,0-2,5.05,7.18,7.18,0,0,0,2,5.07,6.32,6.32,0,0,0,9.41,0,7.22,7.22,0,0,0,1.95-5.09A7.07,7.07,0,0,0,347.51,213Zm1.7,161a6.4,6.4,0,0,0-9.42,0,7.55,7.55,0,0,0,0,10.13,6.33,6.33,0,0,0,9.42,0,7.22,7.22,0,0,0,2-5.09A7.07,7.07,0,0,0,349.21,374ZM289.62,530.62a6.75,6.75,0,0,0-8.8,0,7.12,7.12,0,0,0-2.4,4.18H292A6.89,6.89,0,0,0,289.62,530.62ZM268.46,213.06a6.33,6.33,0,0,0-9.45,0,7.49,7.49,0,0,0,0,10.17,6.33,6.33,0,0,0,9.45,0,7.49,7.49,0,0,0,0-10.17Zm22.65,0a6.62,6.62,0,0,0-9.59.09,7,7,0,0,0-2,5.07,7,7,0,0,0,2,5,6.67,6.67,0,0,0,9.59.09,6.93,6.93,0,0,0,2.1-4.83v-.58A7.07,7.07,0,0,0,291.11,213ZM292.5,66a6.39,6.39,0,0,0-9.42,0,7.1,7.1,0,0,0-1.95,5,7.18,7.18,0,0,0,1.95,5.07,6.33,6.33,0,0,0,9.42,0,7.22,7.22,0,0,0,1.95-5.09A7.07,7.07,0,0,0,292.5,66Zm79.05,0a6.38,6.38,0,0,0-9.41,0,7.1,7.1,0,0,0-1.95,5,7.18,7.18,0,0,0,1.95,5.07,6.32,6.32,0,0,0,9.41,0,7.22,7.22,0,0,0,1.95-5.09A7.07,7.07,0,0,0,371.55,66ZM261.71,373.62a6.74,6.74,0,0,0-8.79,0,7.14,7.14,0,0,0-2.41,4.18H264A6.89,6.89,0,0,0,261.71,373.62ZM242,65.62A6.47,6.47,0,0,0,237.56,64a6.58,6.58,0,0,0-4.4,1.62,7.19,7.19,0,0,0-2.41,4.18h13.54A6.86,6.86,0,0,0,242,65.62Zm-24.18-6A10.74,10.74,0,0,0,210,56.35h-3.87v22H210a11,11,0,0,0,7.77-18.71Zm0,0A10.74,10.74,0,0,0,210,56.35h-3.87v22H210a11,11,0,0,0,7.77-18.71Zm24.18,6A6.47,6.47,0,0,0,237.56,64a6.58,6.58,0,0,0-4.4,1.62,7.19,7.19,0,0,0-2.41,4.18h13.54A6.86,6.86,0,0,0,242,65.62Zm19.76,308a6.74,6.74,0,0,0-8.79,0,7.14,7.14,0,0,0-2.41,4.18H264A6.89,6.89,0,0,0,261.71,373.62Zm6.75-160.56a6.33,6.33,0,0,0-9.45,0,7.49,7.49,0,0,0,0,10.17,6.33,6.33,0,0,0,9.45,0,7.49,7.49,0,0,0,0-10.17Zm21.16,317.56a6.75,6.75,0,0,0-8.8,0,7.12,7.12,0,0,0-2.4,4.18H292A6.89,6.89,0,0,0,289.62,530.62ZM292.5,66a6.39,6.39,0,0,0-9.42,0,7.1,7.1,0,0,0-1.95,5,7.18,7.18,0,0,0,1.95,5.07,6.33,6.33,0,0,0,9.42,0,7.22,7.22,0,0,0,1.95-5.09A7.07,7.07,0,0,0,292.5,66Zm-1.39,147a6.62,6.62,0,0,0-9.59.09,7,7,0,0,0-2,5.07,7,7,0,0,0,2,5,6.67,6.67,0,0,0,9.59.09,6.93,6.93,0,0,0,2.1-4.83v-.58A7.07,7.07,0,0,0,291.11,213Zm42.57,318a6.36,6.36,0,0,0-9.46,0,7.2,7.2,0,0,0-2,5.11,7.11,7.11,0,0,0,2,5.09,6.38,6.38,0,0,0,9.46,0,7.13,7.13,0,0,0,2-5.09A7.23,7.23,0,0,0,333.68,531.05Zm13.83-318a6.38,6.38,0,0,0-9.41,0,7.1,7.1,0,0,0-2,5.05,7.18,7.18,0,0,0,2,5.07,6.32,6.32,0,0,0,9.41,0,7.22,7.22,0,0,0,1.95-5.09A7.07,7.07,0,0,0,347.51,213Zm1.7,161a6.4,6.4,0,0,0-9.42,0,7.55,7.55,0,0,0,0,10.13,6.33,6.33,0,0,0,9.42,0,7.22,7.22,0,0,0,2-5.09A7.07,7.07,0,0,0,349.21,374ZM371.55,66a6.38,6.38,0,0,0-9.41,0,7.1,7.1,0,0,0-1.95,5,7.18,7.18,0,0,0,1.95,5.07,6.32,6.32,0,0,0,9.41,0,7.22,7.22,0,0,0,1.95-5.09A7.07,7.07,0,0,0,371.55,66Zm-24,147a6.38,6.38,0,0,0-9.41,0,7.1,7.1,0,0,0-2,5.05,7.18,7.18,0,0,0,2,5.07,6.32,6.32,0,0,0,9.41,0,7.22,7.22,0,0,0,1.95-5.09A7.07,7.07,0,0,0,347.51,213Zm1.7,161a6.4,6.4,0,0,0-9.42,0,7.55,7.55,0,0,0,0,10.13,6.33,6.33,0,0,0,9.42,0,7.22,7.22,0,0,0,2-5.09A7.07,7.07,0,0,0,349.21,374ZM289.62,530.62a6.75,6.75,0,0,0-8.8,0,7.12,7.12,0,0,0-2.4,4.18H292A6.89,6.89,0,0,0,289.62,530.62ZM268.46,213.06a6.33,6.33,0,0,0-9.45,0,7.49,7.49,0,0,0,0,10.17,6.33,6.33,0,0,0,9.45,0,7.49,7.49,0,0,0,0-10.17Zm22.65,0a6.62,6.62,0,0,0-9.59.09,7,7,0,0,0-2,5.07,7,7,0,0,0,2,5,6.67,6.67,0,0,0,9.59.09,6.93,6.93,0,0,0,2.1-4.83v-.58A7.07,7.07,0,0,0,291.11,213ZM292.5,66a6.39,6.39,0,0,0-9.42,0,7.1,7.1,0,0,0-1.95,5,7.18,7.18,0,0,0,1.95,5.07,6.33,6.33,0,0,0,9.42,0,7.22,7.22,0,0,0,1.95-5.09A7.07,7.07,0,0,0,292.5,66Zm79.05,0a6.38,6.38,0,0,0-9.41,0,7.1,7.1,0,0,0-1.95,5,7.18,7.18,0,0,0,1.95,5.07,6.32,6.32,0,0,0,9.41,0,7.22,7.22,0,0,0,1.95-5.09A7.07,7.07,0,0,0,371.55,66Zm-37.87,465a6.36,6.36,0,0,0-9.46,0,7.2,7.2,0,0,0-2,5.11,7.11,7.11,0,0,0,2,5.09,6.38,6.38,0,0,0,9.46,0,7.13,7.13,0,0,0,2-5.09A7.23,7.23,0,0,0,333.68,531.05Zm-72-157.43a6.74,6.74,0,0,0-8.79,0,7.14,7.14,0,0,0-2.41,4.18H264A6.89,6.89,0,0,0,261.71,373.62ZM242,65.62A6.47,6.47,0,0,0,237.56,64a6.58,6.58,0,0,0-4.4,1.62,7.19,7.19,0,0,0-2.41,4.18h13.54A6.86,6.86,0,0,0,242,65.62Zm-24.18-6A10.74,10.74,0,0,0,210,56.35h-3.87v22H210a11,11,0,0,0,7.77-18.71Zm0,0A10.74,10.74,0,0,0,210,56.35h-3.87v22H210a11,11,0,0,0,7.77-18.71Zm24.18,6A6.47,6.47,0,0,0,237.56,64a6.58,6.58,0,0,0-4.4,1.62,7.19,7.19,0,0,0-2.41,4.18h13.54A6.86,6.86,0,0,0,242,65.62Zm19.76,308a6.74,6.74,0,0,0-8.79,0,7.14,7.14,0,0,0-2.41,4.18H264A6.89,6.89,0,0,0,261.71,373.62Zm6.75-160.56a6.33,6.33,0,0,0-9.45,0,7.49,7.49,0,0,0,0,10.17,6.33,6.33,0,0,0,9.45,0,7.49,7.49,0,0,0,0-10.17Zm21.16,317.56a6.75,6.75,0,0,0-8.8,0,7.12,7.12,0,0,0-2.4,4.18H292A6.89,6.89,0,0,0,289.62,530.62ZM292.5,66a6.39,6.39,0,0,0-9.42,0,7.1,7.1,0,0,0-1.95,5,7.18,7.18,0,0,0,1.95,5.07,6.33,6.33,0,0,0,9.42,0,7.22,7.22,0,0,0,1.95-5.09A7.07,7.07,0,0,0,292.5,66Zm-1.39,147a6.62,6.62,0,0,0-9.59.09,7,7,0,0,0-2,5.07,7,7,0,0,0,2,5,6.67,6.67,0,0,0,9.59.09,6.93,6.93,0,0,0,2.1-4.83v-.58A7.07,7.07,0,0,0,291.11,213Zm42.57,318a6.36,6.36,0,0,0-9.46,0,7.2,7.2,0,0,0-2,5.11,7.11,7.11,0,0,0,2,5.09,6.38,6.38,0,0,0,9.46,0,7.13,7.13,0,0,0,2-5.09A7.23,7.23,0,0,0,333.68,531.05Zm13.83-318a6.38,6.38,0,0,0-9.41,0,7.1,7.1,0,0,0-2,5.05,7.18,7.18,0,0,0,2,5.07,6.32,6.32,0,0,0,9.41,0,7.22,7.22,0,0,0,1.95-5.09A7.07,7.07,0,0,0,347.51,213Zm1.7,161a6.4,6.4,0,0,0-9.42,0,7.55,7.55,0,0,0,0,10.13,6.33,6.33,0,0,0,9.42,0,7.22,7.22,0,0,0,2-5.09A7.07,7.07,0,0,0,349.21,374ZM371.55,66a6.38,6.38,0,0,0-9.41,0,7.1,7.1,0,0,0-1.95,5,7.18,7.18,0,0,0,1.95,5.07,6.32,6.32,0,0,0,9.41,0,7.22,7.22,0,0,0,1.95-5.09A7.07,7.07,0,0,0,371.55,66Zm-24,147a6.38,6.38,0,0,0-9.41,0,7.1,7.1,0,0,0-2,5.05,7.18,7.18,0,0,0,2,5.07,6.32,6.32,0,0,0,9.41,0,7.22,7.22,0,0,0,1.95-5.09A7.07,7.07,0,0,0,347.51,213Zm1.7,161a6.4,6.4,0,0,0-9.42,0,7.55,7.55,0,0,0,0,10.13,6.33,6.33,0,0,0,9.42,0,7.22,7.22,0,0,0,2-5.09A7.07,7.07,0,0,0,349.21,374ZM289.62,530.62a6.75,6.75,0,0,0-8.8,0,7.12,7.12,0,0,0-2.4,4.18H292A6.89,6.89,0,0,0,289.62,530.62ZM268.46,213.06a6.33,6.33,0,0,0-9.45,0,7.49,7.49,0,0,0,0,10.17,6.33,6.33,0,0,0,9.45,0,7.49,7.49,0,0,0,0-10.17Zm22.65,0a6.62,6.62,0,0,0-9.59.09,7,7,0,0,0-2,5.07,7,7,0,0,0,2,5,6.67,6.67,0,0,0,9.59.09,6.93,6.93,0,0,0,2.1-4.83v-.58A7.07,7.07,0,0,0,291.11,213ZM292.5,66a6.39,6.39,0,0,0-9.42,0,7.1,7.1,0,0,0-1.95,5,7.18,7.18,0,0,0,1.95,5.07,6.33,6.33,0,0,0,9.42,0,7.22,7.22,0,0,0,1.95-5.09A7.07,7.07,0,0,0,292.5,66Zm79.05,0a6.38,6.38,0,0,0-9.41,0,7.1,7.1,0,0,0-1.95,5,7.18,7.18,0,0,0,1.95,5.07,6.32,6.32,0,0,0,9.41,0,7.22,7.22,0,0,0,1.95-5.09A7.07,7.07,0,0,0,371.55,66Zm-37.87,465a6.36,6.36,0,0,0-9.46,0,7.2,7.2,0,0,0-2,5.11,7.11,7.11,0,0,0,2,5.09,6.38,6.38,0,0,0,9.46,0,7.13,7.13,0,0,0,2-5.09A7.23,7.23,0,0,0,333.68,531.05Zm-72-157.43a6.74,6.74,0,0,0-8.79,0,7.14,7.14,0,0,0-2.41,4.18H264A6.89,6.89,0,0,0,261.71,373.62ZM242,65.62A6.47,6.47,0,0,0,237.56,64a6.58,6.58,0,0,0-4.4,1.62,7.19,7.19,0,0,0-2.41,4.18h13.54A6.86,6.86,0,0,0,242,65.62Zm-24.18-6A10.74,10.74,0,0,0,210,56.35h-3.87v22H210a11,11,0,0,0,7.77-18.71Zm0,0A10.74,10.74,0,0,0,210,56.35h-3.87v22H210a11,11,0,0,0,7.77-18.71Zm24.18,6A6.47,6.47,0,0,0,237.56,64a6.58,6.58,0,0,0-4.4,1.62,7.19,7.19,0,0,0-2.41,4.18h13.54A6.86,6.86,0,0,0,242,65.62Zm19.76,308a6.74,6.74,0,0,0-8.79,0,7.14,7.14,0,0,0-2.41,4.18H264A6.89,6.89,0,0,0,261.71,373.62Zm6.75-160.56a6.33,6.33,0,0,0-9.45,0,7.49,7.49,0,0,0,0,10.17,6.33,6.33,0,0,0,9.45,0,7.49,7.49,0,0,0,0-10.17Zm21.16,317.56a6.75,6.75,0,0,0-8.8,0,7.12,7.12,0,0,0-2.4,4.18H292A6.89,6.89,0,0,0,289.62,530.62ZM292.5,66a6.39,6.39,0,0,0-9.42,0,7.1,7.1,0,0,0-1.95,5,7.18,7.18,0,0,0,1.95,5.07,6.33,6.33,0,0,0,9.42,0,7.22,7.22,0,0,0,1.95-5.09A7.07,7.07,0,0,0,292.5,66Zm-1.39,147a6.62,6.62,0,0,0-9.59.09,7,7,0,0,0-2,5.07,7,7,0,0,0,2,5,6.67,6.67,0,0,0,9.59.09,6.93,6.93,0,0,0,2.1-4.83v-.58A7.07,7.07,0,0,0,291.11,213Zm42.57,318a6.36,6.36,0,0,0-9.46,0,7.2,7.2,0,0,0-2,5.11,7.11,7.11,0,0,0,2,5.09,6.38,6.38,0,0,0,9.46,0,7.13,7.13,0,0,0,2-5.09A7.23,7.23,0,0,0,333.68,531.05Zm13.83-318a6.38,6.38,0,0,0-9.41,0,7.1,7.1,0,0,0-2,5.05,7.18,7.18,0,0,0,2,5.07,6.32,6.32,0,0,0,9.41,0,7.22,7.22,0,0,0,1.95-5.09A7.07,7.07,0,0,0,347.51,213Zm1.7,161a6.4,6.4,0,0,0-9.42,0,7.55,7.55,0,0,0,0,10.13,6.33,6.33,0,0,0,9.42,0,7.22,7.22,0,0,0,2-5.09A7.07,7.07,0,0,0,349.21,374ZM371.55,66a6.38,6.38,0,0,0-9.41,0,7.1,7.1,0,0,0-1.95,5,7.18,7.18,0,0,0,1.95,5.07,6.32,6.32,0,0,0,9.41,0,7.22,7.22,0,0,0,1.95-5.09A7.07,7.07,0,0,0,371.55,66ZM400,530.62a6.48,6.48,0,0,0-4.4-1.64,6.55,6.55,0,0,0-4.39,1.62,7.14,7.14,0,0,0-2.41,4.18H402.3A6.89,6.89,0,0,0,400,530.62ZM347.51,213a6.38,6.38,0,0,0-9.41,0,7.1,7.1,0,0,0-2,5.05,7.18,7.18,0,0,0,2,5.07,6.32,6.32,0,0,0,9.41,0,7.22,7.22,0,0,0,1.95-5.09A7.07,7.07,0,0,0,347.51,213Zm1.7,161a6.4,6.4,0,0,0-9.42,0,7.55,7.55,0,0,0,0,10.13,6.33,6.33,0,0,0,9.42,0,7.22,7.22,0,0,0,2-5.09A7.07,7.07,0,0,0,349.21,374ZM289.62,530.62a6.75,6.75,0,0,0-8.8,0,7.12,7.12,0,0,0-2.4,4.18H292A6.89,6.89,0,0,0,289.62,530.62ZM268.46,213.06a6.33,6.33,0,0,0-9.45,0,7.49,7.49,0,0,0,0,10.17,6.33,6.33,0,0,0,9.45,0,7.49,7.49,0,0,0,0-10.17Zm22.65,0a6.62,6.62,0,0,0-9.59.09,7,7,0,0,0-2,5.07,7,7,0,0,0,2,5,6.67,6.67,0,0,0,9.59.09,6.93,6.93,0,0,0,2.1-4.83v-.58A7.07,7.07,0,0,0,291.11,213ZM292.5,66a6.39,6.39,0,0,0-9.42,0,7.1,7.1,0,0,0-1.95,5,7.18,7.18,0,0,0,1.95,5.07,6.33,6.33,0,0,0,9.42,0,7.22,7.22,0,0,0,1.95-5.09A7.07,7.07,0,0,0,292.5,66Zm79.05,0a6.38,6.38,0,0,0-9.41,0,7.1,7.1,0,0,0-1.95,5,7.18,7.18,0,0,0,1.95,5.07,6.32,6.32,0,0,0,9.41,0,7.22,7.22,0,0,0,1.95-5.09A7.07,7.07,0,0,0,371.55,66Zm-37.87,465a6.36,6.36,0,0,0-9.46,0,7.2,7.2,0,0,0-2,5.11,7.11,7.11,0,0,0,2,5.09,6.38,6.38,0,0,0,9.46,0,7.13,7.13,0,0,0,2-5.09A7.23,7.23,0,0,0,333.68,531.05Zm66.29-.43a6.48,6.48,0,0,0-4.4-1.64,6.55,6.55,0,0,0-4.39,1.62,7.14,7.14,0,0,0-2.41,4.18H402.3A6.89,6.89,0,0,0,400,530.62Zm-138.26-157a6.74,6.74,0,0,0-8.79,0,7.14,7.14,0,0,0-2.41,4.18H264A6.89,6.89,0,0,0,261.71,373.62ZM242,65.62A6.47,6.47,0,0,0,237.56,64a6.58,6.58,0,0,0-4.4,1.62,7.19,7.19,0,0,0-2.41,4.18h13.54A6.86,6.86,0,0,0,242,65.62Zm-24.18-6A10.74,10.74,0,0,0,210,56.35h-3.87v22H210a11,11,0,0,0,7.77-18.71Zm0,0A10.74,10.74,0,0,0,210,56.35h-3.87v22H210a11,11,0,0,0,7.77-18.71Zm24.18,6A6.47,6.47,0,0,0,237.56,64a6.58,6.58,0,0,0-4.4,1.62,7.19,7.19,0,0,0-2.41,4.18h13.54A6.86,6.86,0,0,0,242,65.62Zm19.76,308a6.74,6.74,0,0,0-8.79,0,7.14,7.14,0,0,0-2.41,4.18H264A6.89,6.89,0,0,0,261.71,373.62Zm6.75-160.56a6.33,6.33,0,0,0-9.45,0,7.49,7.49,0,0,0,0,10.17,6.33,6.33,0,0,0,9.45,0,7.49,7.49,0,0,0,0-10.17Zm21.16,317.56a6.75,6.75,0,0,0-8.8,0,7.12,7.12,0,0,0-2.4,4.18H292A6.89,6.89,0,0,0,289.62,530.62ZM292.5,66a6.39,6.39,0,0,0-9.42,0,7.1,7.1,0,0,0-1.95,5,7.18,7.18,0,0,0,1.95,5.07,6.33,6.33,0,0,0,9.42,0,7.22,7.22,0,0,0,1.95-5.09A7.07,7.07,0,0,0,292.5,66Zm-1.39,147a6.62,6.62,0,0,0-9.59.09,7,7,0,0,0-2,5.07,7,7,0,0,0,2,5,6.67,6.67,0,0,0,9.59.09,6.93,6.93,0,0,0,2.1-4.83v-.58A7.07,7.07,0,0,0,291.11,213Zm42.57,318a6.36,6.36,0,0,0-9.46,0,7.2,7.2,0,0,0-2,5.11,7.11,7.11,0,0,0,2,5.09,6.38,6.38,0,0,0,9.46,0,7.13,7.13,0,0,0,2-5.09A7.23,7.23,0,0,0,333.68,531.05Zm13.83-318a6.38,6.38,0,0,0-9.41,0,7.1,7.1,0,0,0-2,5.05,7.18,7.18,0,0,0,2,5.07,6.32,6.32,0,0,0,9.41,0,7.22,7.22,0,0,0,1.95-5.09A7.07,7.07,0,0,0,347.51,213Zm1.7,161a6.4,6.4,0,0,0-9.42,0,7.55,7.55,0,0,0,0,10.13,6.33,6.33,0,0,0,9.42,0,7.22,7.22,0,0,0,2-5.09A7.07,7.07,0,0,0,349.21,374ZM371.55,66a6.38,6.38,0,0,0-9.41,0,7.1,7.1,0,0,0-1.95,5,7.18,7.18,0,0,0,1.95,5.07,6.32,6.32,0,0,0,9.41,0,7.22,7.22,0,0,0,1.95-5.09A7.07,7.07,0,0,0,371.55,66ZM400,530.62a6.48,6.48,0,0,0-4.4-1.64,6.55,6.55,0,0,0-4.39,1.62,7.14,7.14,0,0,0-2.41,4.18H402.3A6.89,6.89,0,0,0,400,530.62ZM347.51,213a6.38,6.38,0,0,0-9.41,0,7.1,7.1,0,0,0-2,5.05,7.18,7.18,0,0,0,2,5.07,6.32,6.32,0,0,0,9.41,0,7.22,7.22,0,0,0,1.95-5.09A7.07,7.07,0,0,0,347.51,213Zm1.7,161a6.4,6.4,0,0,0-9.42,0,7.55,7.55,0,0,0,0,10.13,6.33,6.33,0,0,0,9.42,0,7.22,7.22,0,0,0,2-5.09A7.07,7.07,0,0,0,349.21,374ZM289.62,530.62a6.75,6.75,0,0,0-8.8,0,7.12,7.12,0,0,0-2.4,4.18H292A6.89,6.89,0,0,0,289.62,530.62ZM268.46,213.06a6.33,6.33,0,0,0-9.45,0,7.49,7.49,0,0,0,0,10.17,6.33,6.33,0,0,0,9.45,0,7.49,7.49,0,0,0,0-10.17Zm22.65,0a6.62,6.62,0,0,0-9.59.09,7,7,0,0,0-2,5.07,7,7,0,0,0,2,5,6.67,6.67,0,0,0,9.59.09,6.93,6.93,0,0,0,2.1-4.83v-.58A7.07,7.07,0,0,0,291.11,213ZM292.5,66a6.39,6.39,0,0,0-9.42,0,7.1,7.1,0,0,0-1.95,5,7.18,7.18,0,0,0,1.95,5.07,6.33,6.33,0,0,0,9.42,0,7.22,7.22,0,0,0,1.95-5.09A7.07,7.07,0,0,0,292.5,66Zm79.05,0a6.38,6.38,0,0,0-9.41,0,7.1,7.1,0,0,0-1.95,5,7.18,7.18,0,0,0,1.95,5.07,6.32,6.32,0,0,0,9.41,0,7.22,7.22,0,0,0,1.95-5.09A7.07,7.07,0,0,0,371.55,66Zm-37.87,465a6.36,6.36,0,0,0-9.46,0,7.2,7.2,0,0,0-2,5.11,7.11,7.11,0,0,0,2,5.09,6.38,6.38,0,0,0,9.46,0,7.13,7.13,0,0,0,2-5.09A7.23,7.23,0,0,0,333.68,531.05Zm66.29-.43a6.48,6.48,0,0,0-4.4-1.64,6.55,6.55,0,0,0-4.39,1.62,7.14,7.14,0,0,0-2.41,4.18H402.3A6.89,6.89,0,0,0,400,530.62Zm-138.26-157a6.74,6.74,0,0,0-8.79,0,7.14,7.14,0,0,0-2.41,4.18H264A6.89,6.89,0,0,0,261.71,373.62ZM242,65.62A6.47,6.47,0,0,0,237.56,64a6.58,6.58,0,0,0-4.4,1.62,7.19,7.19,0,0,0-2.41,4.18h13.54A6.86,6.86,0,0,0,242,65.62Zm-24.18-6A10.74,10.74,0,0,0,210,56.35h-3.87v22H210a11,11,0,0,0,7.77-18.71Zm1.55,471.45a6.37,6.37,0,0,0-9.47,0,7.2,7.2,0,0,0-2,5.11,7.11,7.11,0,0,0,2,5.09,6.39,6.39,0,0,0,9.47,0,7.17,7.17,0,0,0,2-5.09A7.27,7.27,0,0,0,219.32,531.05ZM217.77,59.6A10.74,10.74,0,0,0,210,56.35h-3.87v22H210a11,11,0,0,0,7.77-18.71Zm24.18,6A6.47,6.47,0,0,0,237.56,64a6.58,6.58,0,0,0-4.4,1.62,7.19,7.19,0,0,0-2.41,4.18h13.54A6.86,6.86,0,0,0,242,65.62Zm19.76,308a6.74,6.74,0,0,0-8.79,0,7.14,7.14,0,0,0-2.41,4.18H264A6.89,6.89,0,0,0,261.71,373.62Zm6.75-160.56a6.33,6.33,0,0,0-9.45,0,7.49,7.49,0,0,0,0,10.17,6.33,6.33,0,0,0,9.45,0,7.49,7.49,0,0,0,0-10.17Zm21.16,317.56a6.75,6.75,0,0,0-8.8,0,7.12,7.12,0,0,0-2.4,4.18H292A6.89,6.89,0,0,0,289.62,530.62ZM292.5,66a6.39,6.39,0,0,0-9.42,0,7.1,7.1,0,0,0-1.95,5,7.18,7.18,0,0,0,1.95,5.07,6.33,6.33,0,0,0,9.42,0,7.22,7.22,0,0,0,1.95-5.09A7.07,7.07,0,0,0,292.5,66Zm-1.39,147a6.62,6.62,0,0,0-9.59.09,7,7,0,0,0-2,5.07,7,7,0,0,0,2,5,6.67,6.67,0,0,0,9.59.09,6.93,6.93,0,0,0,2.1-4.83v-.58A7.07,7.07,0,0,0,291.11,213Zm42.57,318a6.36,6.36,0,0,0-9.46,0,7.2,7.2,0,0,0-2,5.11,7.11,7.11,0,0,0,2,5.09,6.38,6.38,0,0,0,9.46,0,7.13,7.13,0,0,0,2-5.09A7.23,7.23,0,0,0,333.68,531.05Zm13.83-318a6.38,6.38,0,0,0-9.41,0,7.1,7.1,0,0,0-2,5.05,7.18,7.18,0,0,0,2,5.07,6.32,6.32,0,0,0,9.41,0,7.22,7.22,0,0,0,1.95-5.09A7.07,7.07,0,0,0,347.51,213Zm1.7,161a6.4,6.4,0,0,0-9.42,0,7.55,7.55,0,0,0,0,10.13,6.33,6.33,0,0,0,9.42,0,7.22,7.22,0,0,0,2-5.09A7.07,7.07,0,0,0,349.21,374ZM371.55,66a6.38,6.38,0,0,0-9.41,0,7.1,7.1,0,0,0-1.95,5,7.18,7.18,0,0,0,1.95,5.07,6.32,6.32,0,0,0,9.41,0,7.22,7.22,0,0,0,1.95-5.09A7.07,7.07,0,0,0,371.55,66ZM400,530.62a6.48,6.48,0,0,0-4.4-1.64,6.55,6.55,0,0,0-4.39,1.62,7.14,7.14,0,0,0-2.41,4.18H402.3A6.89,6.89,0,0,0,400,530.62ZM347.51,213a6.38,6.38,0,0,0-9.41,0,7.1,7.1,0,0,0-2,5.05,7.18,7.18,0,0,0,2,5.07,6.32,6.32,0,0,0,9.41,0,7.22,7.22,0,0,0,1.95-5.09A7.07,7.07,0,0,0,347.51,213Zm1.7,161a6.4,6.4,0,0,0-9.42,0,7.55,7.55,0,0,0,0,10.13,6.33,6.33,0,0,0,9.42,0,7.22,7.22,0,0,0,2-5.09A7.07,7.07,0,0,0,349.21,374ZM289.62,530.62a6.75,6.75,0,0,0-8.8,0,7.12,7.12,0,0,0-2.4,4.18H292A6.89,6.89,0,0,0,289.62,530.62ZM268.46,213.06a6.33,6.33,0,0,0-9.45,0,7.49,7.49,0,0,0,0,10.17,6.33,6.33,0,0,0,9.45,0,7.49,7.49,0,0,0,0-10.17Zm-49.14,318a6.37,6.37,0,0,0-9.47,0,7.2,7.2,0,0,0-2,5.11,7.11,7.11,0,0,0,2,5.09,6.39,6.39,0,0,0,9.47,0,7.17,7.17,0,0,0,2-5.09A7.27,7.27,0,0,0,219.32,531.05Zm71.79-318a6.62,6.62,0,0,0-9.59.09,7,7,0,0,0-2,5.07,7,7,0,0,0,2,5,6.67,6.67,0,0,0,9.59.09,6.93,6.93,0,0,0,2.1-4.83v-.58A7.07,7.07,0,0,0,291.11,213ZM292.5,66a6.39,6.39,0,0,0-9.42,0,7.1,7.1,0,0,0-1.95,5,7.18,7.18,0,0,0,1.95,5.07,6.33,6.33,0,0,0,9.42,0,7.22,7.22,0,0,0,1.95-5.09A7.07,7.07,0,0,0,292.5,66Zm79.05,0a6.38,6.38,0,0,0-9.41,0,7.1,7.1,0,0,0-1.95,5,7.18,7.18,0,0,0,1.95,5.07,6.32,6.32,0,0,0,9.41,0,7.22,7.22,0,0,0,1.95-5.09A7.07,7.07,0,0,0,371.55,66Zm-37.87,465a6.36,6.36,0,0,0-9.46,0,7.2,7.2,0,0,0-2,5.11,7.11,7.11,0,0,0,2,5.09,6.38,6.38,0,0,0,9.46,0,7.13,7.13,0,0,0,2-5.09A7.23,7.23,0,0,0,333.68,531.05Zm66.29-.43a6.48,6.48,0,0,0-4.4-1.64,6.55,6.55,0,0,0-4.39,1.62,7.14,7.14,0,0,0-2.41,4.18H402.3A6.89,6.89,0,0,0,400,530.62Zm-138.26-157a6.74,6.74,0,0,0-8.79,0,7.14,7.14,0,0,0-2.41,4.18H264A6.89,6.89,0,0,0,261.71,373.62ZM242,65.62A6.47,6.47,0,0,0,237.56,64a6.58,6.58,0,0,0-4.4,1.62,7.19,7.19,0,0,0-2.41,4.18h13.54A6.86,6.86,0,0,0,242,65.62Zm-24.18-6A10.74,10.74,0,0,0,210,56.35h-3.87v22H210a11,11,0,0,0,7.77-18.71ZM545.39,171.92H315V108.81H544.87V26.06H315V0H267.57V26.06H70.09L37.71,67.44,69.93,108.6l.17.21H267.57v63.11H0v82.75H267.57v87.5H82.15L51.54,376.23,82,410.11l.16.18H267.57v92.93h-201v63.84h201V715.35H315V567.06H487.32l.15-.17L516,535.14l-28.7-31.92H315V410.29h216V342.18H315V254.67H545.38l.19-.21,37-41.16ZM132,84.48a7.78,7.78,0,0,1-1.58,3.19,14.11,14.11,0,0,1-2.09,2,15.13,15.13,0,0,1-7.45,3.3,14.14,14.14,0,0,1-2,.15h0a16.92,16.92,0,0,1-9.58-3.19,1,1,0,0,1-.18-.17,1.15,1.15,0,0,1-.31-.75,1.19,1.19,0,0,1,1.13-1.24,5.06,5.06,0,0,0,3.5-1.29,3.36,3.36,0,0,0,.8-1.75,15,15,0,0,1,1-2.89,11.6,11.6,0,0,1,4.73-5.72,9.3,9.3,0,0,1,2.93-1.07,8.28,8.28,0,0,1,1.5-.13l.8,0a8.41,8.41,0,0,1,3.51,1.15,7.7,7.7,0,0,1,2.78,3.05A7.85,7.85,0,0,1,132,84.48Zm36.16-38.43a35.81,35.81,0,0,1-3.64,5.1c-1.69,2.06-3.74,4.32-6.08,6.73s-4.95,4.93-7.65,7.4A141.22,141.22,0,0,1,134.92,78a1,1,0,0,1-.3.14,1.18,1.18,0,0,1-1.49-.76,5.4,5.4,0,0,0-1.15-2,5.57,5.57,0,0,0-1.86-1.33,1,1,0,0,1-.4-.29,1.12,1.12,0,0,1-.28-.51,1.19,1.19,0,0,1,.23-1,141.9,141.9,0,0,1,14.11-14.59,145.88,145.88,0,0,1,15.32-12.4,37.57,37.57,0,0,1,5.42-3.16,6.65,6.65,0,0,1,2.44-.65h0a2,2,0,0,1,1.56.62C169.66,43.32,168.49,45.37,168.11,46.05ZM219,76.38a12.32,12.32,0,0,1-9,3.72h-4.86a.88.88,0,0,1-.56-.27.81.81,0,0,1-.24-.6V55.44a.85.85,0,0,1,.26-.62.84.84,0,0,1,.62-.26H210a12.8,12.8,0,0,1,12.76,12.81A12.21,12.21,0,0,1,219,76.38Zm27.17-5.69a.72.72,0,0,1-.26.58.91.91,0,0,1-.62.22H230.64a7.1,7.1,0,0,0,2.16,4.89,6.75,6.75,0,0,0,8.1,1.09,6.68,6.68,0,0,0,2.44-2.37.76.76,0,0,1,1.17-.29.84.84,0,0,1,.29,1.24,8.73,8.73,0,0,1-3.08,3,8.5,8.5,0,0,1-10.29-1.52,9.13,9.13,0,0,1,0-12.64,8.13,8.13,0,0,1,6-2.63,8.23,8.23,0,0,1,6,2.39,9.1,9.1,0,0,1,2.74,5.93Zm16.17,7.93a7.3,7.3,0,0,1-4.5,1.48,10.54,10.54,0,0,1-6.6-2.55.75.75,0,0,1-.11-1.17.82.82,0,0,1,.58-.33.87.87,0,0,1,.66.22,9,9,0,0,0,5.18,2.08,5.68,5.68,0,0,0,3.68-1.1,2.5,2.5,0,0,0,1.33-2.13,2.8,2.8,0,0,0-1.2-2.17,8.57,8.57,0,0,0-3.85-1.39l-.07,0a10.28,10.28,0,0,1-4-1.39,3.54,3.54,0,0,1-1.94-3.21,4.22,4.22,0,0,1,1.94-3.5,7.59,7.59,0,0,1,4.38-1.21,7,7,0,0,1,2.13.35,9.45,9.45,0,0,1,1.64.66c.38.2.9.52,1.55.93a.91.91,0,0,1,.37.58.88.88,0,0,1-.11.66.82.82,0,0,1-.55.36.84.84,0,0,1-.66-.11c-.6-.41-1.06-.71-1.36-.89a7.53,7.53,0,0,0-1.34-.58,4.9,4.9,0,0,0-1.67-.31,5.19,5.19,0,0,0-3.32,1,2.67,2.67,0,0,0-1.21,2,2.35,2.35,0,0,0,1,1.86A8.89,8.89,0,0,0,257.93,70H258a12.85,12.85,0,0,1,4.35,1.46,4,4,0,0,1,2,3.52A4.42,4.42,0,0,1,262.36,78.62ZM161.13,399.46a1.8,1.8,0,0,1-2.53.05l-12-12A18.72,18.72,0,1,1,149.1,385l12,12A1.8,1.8,0,0,1,161.13,399.46Zm82.23-35.38a.83.83,0,0,1-.62.27H235v22.87a.86.86,0,0,1-.26.63.83.83,0,0,1-.62.25.85.85,0,0,1-.87-.88V364.35h-7.7a.83.83,0,0,1-.62-.27.92.92,0,0,1-.25-.64.84.84,0,0,1,.25-.62.85.85,0,0,1,.62-.26h17.15a.85.85,0,0,1,.62.26.84.84,0,0,1,.25.62A.92.92,0,0,1,243.36,364.08Zm22.58,14.61a.72.72,0,0,1-.26.58.89.89,0,0,1-.62.22H250.4a7.09,7.09,0,0,0,2.15,4.89,6.6,6.6,0,0,0,4.78,2,6.52,6.52,0,0,0,3.32-.88,6.61,6.61,0,0,0,2.44-2.37.76.76,0,0,1,1.17-.29.83.83,0,0,1,.29,1.24,8.65,8.65,0,0,1-3.08,3,8.5,8.5,0,0,1-10.29-1.52,9.16,9.16,0,0,1,0-12.64,8.14,8.14,0,0,1,6.06-2.63,8.22,8.22,0,0,1,6,2.39,9.1,9.1,0,0,1,2.74,5.93Zm162.82,165.7h0c.85,0,1.73,0,2.59.11l.69,0a5.78,5.78,0,0,0,3.67-1.28l.77-.61,0,0c.66-.52,1.34-1.06,2-1.61,5.4-4.6,10.43-8.89,15.37-13.12l.75-.64.09-.08h0c1.48-1.26,3-2.56,4.46-3.9a12.05,12.05,0,0,0,4-7,5.58,5.58,0,0,1,4.29-4.6,7.45,7.45,0,0,1,3.78-.08,12.72,12.72,0,0,1,1.24.38l.61.2-.12.07-.14.08-.87.44-.2.1-3.24,1.63a.84.84,0,0,0-.38.43,7.54,7.54,0,0,0-.32,1.57,5.19,5.19,0,0,0,4,5,.61.61,0,0,0,.4-.07c.54-.25,1.09-.52,1.61-.78l.14-.06.57-.28,2.29-1.12a.53.53,0,0,1,0,.12,7.6,7.6,0,0,1-1.58,4.41,5.45,5.45,0,0,1-4.3,2,6,6,0,0,1-3.06-.84,9.13,9.13,0,0,1-3.5-4.17,7.19,7.19,0,0,1-.7-4.69,14.1,14.1,0,0,1,.43-1.4c.08-.22.15-.44.23-.68a6.67,6.67,0,0,0-1.07,3.35,8.85,8.85,0,0,0,2.19,6,6.9,6.9,0,0,0,3,2.21,7.43,7.43,0,0,0,2.38.4l.46,0-.1,0h0l-.19,0-1.2.19h0c-1,.16-2,.32-3,.45a6.32,6.32,0,0,0-3.21,1.31c-1.18.95-2.31,1.9-3.33,2.83l-16.55,15a32.53,32.53,0,0,0-4,4.12,12.08,12.08,0,0,0-2.48,5.28c-.18.91-.41,1.81-.68,2.71a10.07,10.07,0,0,1-.6,1.29.42.42,0,0,1,0-.29,8.42,8.42,0,0,0,.84-4.44,11.73,11.73,0,0,0-4.09-7.85,6.61,6.61,0,0,0-4.54-1.84,8,8,0,0,0-1.46.15l0,0h0A5.09,5.09,0,0,1,428.76,544.39Zm44.38-32a1.07,1.07,0,0,1-.34.5,11.27,11.27,0,0,1-1.23.8c-.72.36-1.45.71-2.17,1.05l-.84.4-.17.07-.09,0a.69.69,0,0,1,.41-.64c.85-.42,1.7-.85,2.53-1.28l1.66-.84Zm-49.81,35.12a5.14,5.14,0,0,1,2.15-2.06,6.65,6.65,0,0,1,2.7-.61,6,6,0,0,1,3.53,1.18,10.82,10.82,0,0,1,3.29,3.94,10.7,10.7,0,0,1,1.33,8,4.43,4.43,0,0,1-3.05,3.4,8.37,8.37,0,0,1-4.41.23,8.25,8.25,0,0,1-2.7-1.09l.1-.06h0l.19-.11,1-.55.17-.1,0,0c1.19-.68,2.42-1.39,3.62-2.1a1.19,1.19,0,0,0,.45-.54,5.73,5.73,0,0,0-.4-4.7,5.39,5.39,0,0,0-3.6-2.83.58.58,0,0,0-.19,0,1,1,0,0,0-.38.08l-4.84,2.37-.08,0-.48.23A10.76,10.76,0,0,1,423.33,547.48Zm3.2,12.61a24,24,0,0,1,5-3.17l.07.06a2,2,0,0,1-.37.35L428.41,559l-.07,0-1.56.9a.66.66,0,0,0-.17.12Zm-37.08-30.24a8.12,8.12,0,0,1,6.05-2.63,8.23,8.23,0,0,1,6,2.39,9.09,9.09,0,0,1,2.73,5.93v.15a.72.72,0,0,1-.25.58.91.91,0,0,1-.62.22H388.66a7.13,7.13,0,0,0,2.15,4.89,6.6,6.6,0,0,0,4.78,2,6.52,6.52,0,0,0,3.32-.88,6.71,6.71,0,0,0,2.45-2.37.75.75,0,0,1,1.16-.29.83.83,0,0,1,.3,1.24,8.68,8.68,0,0,1-3.09,3,8.48,8.48,0,0,1-10.28-1.52,9.13,9.13,0,0,1,0-12.64Zm-20.69,0a8.68,8.68,0,0,1,6.2-2.59,9.3,9.3,0,0,1,6,2,.66.66,0,0,1,.33.54.82.82,0,0,1-.22.66.8.8,0,0,1-1.2.14,7.53,7.53,0,0,0-4.85-1.6,7,7,0,0,0-5,2.11,6.89,6.89,0,0,0-2.17,5.11,6.8,6.8,0,0,0,2.17,5.09,7,7,0,0,0,5,2.1,7.74,7.74,0,0,0,4.87-1.57.82.82,0,0,1,1.22.18c.38.44.31.85-.2,1.24a8.88,8.88,0,0,1-5.62,1.9,9,9,0,0,1-6.51-2.61,8.84,8.84,0,0,1,0-12.68ZM345,528.14a.89.89,0,0,1,.88-.88.79.79,0,0,1,.6.26.86.86,0,0,1,.24.62v1.71a6.65,6.65,0,0,1,5.34-2.59,7.21,7.21,0,0,1,5.33,2.14,7,7,0,0,1,2.13,5.12v9.7a.85.85,0,0,1-.87.88.83.83,0,0,1-.62-.25.86.86,0,0,1-.26-.63v-9.7a5.49,5.49,0,0,0-9.38-3.9,5.57,5.57,0,0,0-1.67,3.9v9.85a.83.83,0,0,1-.84.73h-.22a.86.86,0,0,1-.58-.47.14.14,0,0,1,0-.11l0-.08Zm-22,1.71a8.07,8.07,0,0,1,9.76-1.68,8.61,8.61,0,0,1,2.93,2.56V528.1a.88.88,0,0,1,1.76,0v16.12a.86.86,0,0,1-.26.63.89.89,0,0,1-1.24,0,.86.86,0,0,1-.26-.63v-2.66a8.29,8.29,0,0,1-2.93,2.59,7.8,7.8,0,0,1-3.78,1,7.94,7.94,0,0,1-6-2.63,9.27,9.27,0,0,1,0-12.62Zm37.94-465a8,8,0,0,1,9.7-1.66,8.33,8.33,0,0,1,2.9,2.56V63.1a.8.8,0,0,1,.28-.62.89.89,0,0,1,.62-.26.83.83,0,0,1,.6.26.84.84,0,0,1,.25.62V78.68a8.4,8.4,0,0,1-8.42,8.39,9.26,9.26,0,0,1-3.72-.84c-.49-.34-.61-.73-.37-1.17a.74.74,0,0,1,1.17-.4,6.71,6.71,0,0,0,2.92.66,6.47,6.47,0,0,0,4.72-1.94,6.36,6.36,0,0,0,1.95-4.7V76.49a8,8,0,0,1-6.67,3.5,7.84,7.84,0,0,1-5.95-2.61,9.26,9.26,0,0,1,0-12.55Zm-23.62-1.69a.83.83,0,0,1,.25-.62.85.85,0,0,1,.62-.26.76.76,0,0,1,.6.26.86.86,0,0,1,.24.62v1.71a6.69,6.69,0,0,1,5.35-2.59,7.2,7.2,0,0,1,5.32,2.14,7,7,0,0,1,2.14,5.12v9.71a.85.85,0,0,1-.26.62.87.87,0,0,1-1.49-.62V69.52a5.32,5.32,0,0,0-1.61-3.88A5.23,5.23,0,0,0,344.56,64a5.31,5.31,0,0,0-3.89,1.61,5.58,5.58,0,0,0-1.68,3.9v9.85a.82.82,0,0,1-.84.73h-.22a.88.88,0,0,1-.58-.47.18.18,0,0,1,0-.11l0-.08Zm-10.22-5.88a.85.85,0,0,1,.26-.62.84.84,0,0,1,.62-.25.92.92,0,0,1,.64.25.83.83,0,0,1,.27.62v.84a.94.94,0,0,1-.27.68.9.9,0,0,1-.64.27.83.83,0,0,1-.62-.27,1,1,0,0,1-.26-.68Zm0,5.84a.85.85,0,0,1,.26-.62.87.87,0,0,1,.64-.26.9.9,0,0,1,.64.26.84.84,0,0,1,.25.62V79.23a.83.83,0,0,1-.27.62.92.92,0,0,1-.64.25.84.84,0,0,1-.62-.25.85.85,0,0,1-.26-.62Zm-22.4,0a.84.84,0,0,1,.26-.62.85.85,0,0,1,.62-.26.79.79,0,0,1,.6.26.86.86,0,0,1,.24.62v1.71a6.65,6.65,0,0,1,5.34-2.59,7.21,7.21,0,0,1,5.33,2.14,7,7,0,0,1,2.13,5.12v9.71a.85.85,0,0,1-.87.87.83.83,0,0,1-.62-.25.85.85,0,0,1-.26-.62V69.52a5.31,5.31,0,0,0-1.6-3.88,5.47,5.47,0,0,0-7.77,0,5.58,5.58,0,0,0-1.68,3.9v9.85a.82.82,0,0,1-.84.73h-.22a.86.86,0,0,1-.58-.47.14.14,0,0,1,0-.11l0-.08Zm1.57,303.64a.87.87,0,0,1-.64.27.83.83,0,0,1-.62-.27,1,1,0,0,1-.25-.68v-.84a.85.85,0,0,1,.87-.87.89.89,0,0,1,.64.25.8.8,0,0,1,.28.62v.84A.91.91,0,0,1,306.23,366.78Zm.28,4.32v16.12a.81.81,0,0,1-.28.63.89.89,0,0,1-.64.25.85.85,0,0,1-.87-.88V371.1a.84.84,0,0,1,.25-.62.88.88,0,0,1,.64-.26.87.87,0,0,1,.64.26A.85.85,0,0,1,306.51,371.1ZM303,204.26a.85.85,0,0,1,.26-.62.84.84,0,0,1,.62-.25.92.92,0,0,1,.64.25.83.83,0,0,1,.27.62v.84a.94.94,0,0,1-.27.68.9.9,0,0,1-.64.27.83.83,0,0,1-.62-.27,1,1,0,0,1-.26-.68Zm0,5.84a.85.85,0,0,1,.26-.62.87.87,0,0,1,.64-.26.9.9,0,0,1,.64.26.84.84,0,0,1,.25.62v16.13a.83.83,0,0,1-.27.62.92.92,0,0,1-.64.25.84.84,0,0,1-.62-.25.85.85,0,0,1-.26-.62ZM281.84,64.83a8,8,0,0,1,9.71-1.66,8.33,8.33,0,0,1,2.9,2.56V63.1a.83.83,0,0,1,.27-.62.91.91,0,0,1,.62-.26.87.87,0,0,1,.61.26.89.89,0,0,1,.25.62V78.68a8.4,8.4,0,0,1-8.43,8.39,9.33,9.33,0,0,1-3.72-.84c-.48-.34-.61-.73-.36-1.17a.73.73,0,0,1,1.16-.4,6.74,6.74,0,0,0,2.92.66,6.48,6.48,0,0,0,4.73-1.94,6.36,6.36,0,0,0,1.95-4.7V76.49a8,8,0,0,1-6.68,3.5,7.84,7.84,0,0,1-5.94-2.61,9.25,9.25,0,0,1,0-12.55Zm-1.62,147a8.42,8.42,0,0,1,10-1.68,9,9,0,0,1,3,2.56V202.44a.83.83,0,0,1,.27-.62.93.93,0,0,1,.64-.26.89.89,0,0,1,.88.88v23.79a.85.85,0,0,1-.26.62.84.84,0,0,1-.62.25.92.92,0,0,1-.64-.25.83.83,0,0,1-.27-.62v-2.6a8.62,8.62,0,0,1-3,2.54,8.51,8.51,0,0,1-10-1.68,9.19,9.19,0,0,1,0-12.64ZM270.37,57.26a.85.85,0,0,1,.26-.62.83.83,0,0,1,.62-.25.92.92,0,0,1,.64.25.83.83,0,0,1,.27.62v.84a.94.94,0,0,1-.27.68.9.9,0,0,1-.64.27.81.81,0,0,1-.62-.27,1,1,0,0,1-.26-.68Zm0,5.84a.85.85,0,0,1,.26-.62.91.91,0,0,1,1.27,0,.85.85,0,0,1,.26.62V79.23a.83.83,0,0,1-.27.62.92.92,0,0,1-.64.25.83.83,0,0,1-.62-.25.85.85,0,0,1-.26-.62Zm-38,159a11.61,11.61,0,0,0,15.22.76,1,1,0,0,1,.71-.16.71.71,0,0,1,.56.38.77.77,0,0,1,.22.66.83.83,0,0,1-.32.62,13.18,13.18,0,0,1-8.25,2.77,13,13,0,0,1-9.39-3.78,12.72,12.72,0,0,1,0-18.31,13.08,13.08,0,0,1,9.39-3.81,13.22,13.22,0,0,1,8.25,2.81,1,1,0,0,1,.34.64.69.69,0,0,1-.2.63.77.77,0,0,1-.6.37.86.86,0,0,1-.64-.18,11.65,11.65,0,0,0-15.29.8,11,11,0,0,0,0,15.8ZM199.11,544.22a.86.86,0,0,1-.26.63.89.89,0,0,1-1.24,0,.86.86,0,0,1-.26-.63v-21l-8.17,11.35a.81.81,0,0,1-.73.4h-.07a.85.85,0,0,1-.77-.4l-8.17-11.31v21a.85.85,0,0,1-.87.88.89.89,0,0,1-.64-.25.84.84,0,0,1-.28-.63V520.58a.81.81,0,0,1,.37-.69l.07-.07a.81.81,0,0,1,1.24.22l9.09,12.58,9-12.58a.75.75,0,0,1,.57-.35.94.94,0,0,1,.67.13,1.14,1.14,0,0,1,.41.76Zm23.93,0a.86.86,0,0,1-.26.63.87.87,0,0,1-1.49-.63v-2.66a8.41,8.41,0,0,1-2.94,2.59,7.8,7.8,0,0,1-3.78,1,7.94,7.94,0,0,1-6-2.63,9.27,9.27,0,0,1,0-12.62,8.07,8.07,0,0,1,9.76-1.68,8.74,8.74,0,0,1,2.94,2.56V528.1a.84.84,0,0,1,.25-.62.88.88,0,0,1,1.5.62Zm9.41,0a.83.83,0,0,1-.27.63.92.92,0,0,1-.64.25.83.83,0,0,1-.62-.25.86.86,0,0,1-.26-.63V528.1a.85.85,0,0,1,.26-.62.91.91,0,0,1,1.27,0,.85.85,0,0,1,.26.62Zm0-21.12a.94.94,0,0,1-.27.68.9.9,0,0,1-.64.27.81.81,0,0,1-.62-.27,1,1,0,0,1-.26-.68v-.84a.85.85,0,0,1,.26-.62.83.83,0,0,1,.62-.25.92.92,0,0,1,.64.25.83.83,0,0,1,.27.62Zm23,21.12a.86.86,0,0,1-.26.63.89.89,0,0,1-1.24,0,.86.86,0,0,1-.26-.63v-9.7a5.31,5.31,0,0,0-1.6-3.88,5.47,5.47,0,0,0-7.77,0,5.58,5.58,0,0,0-1.68,3.9v9.85a.82.82,0,0,1-.84.73h-.22a.86.86,0,0,1-.58-.47.14.14,0,0,1,0-.11l0-.08v-16.3a.83.83,0,0,1,.25-.62.85.85,0,0,1,.62-.26.78.78,0,0,1,.6.26.86.86,0,0,1,.24.62v1.71a6.69,6.69,0,0,1,5.35-2.59,7.2,7.2,0,0,1,5.32,2.14,7,7,0,0,1,2.14,5.12Zm13.8-15.52a.84.84,0,0,1-.6.28h-2.3v13a1.14,1.14,0,0,0,.46,1,1.38,1.38,0,0,0,.82.36.92.92,0,0,1,.66.3.87.87,0,0,1,.29.61.86.86,0,0,1-.29.61.93.93,0,0,1-.62.27,3.08,3.08,0,0,1-2.25-.88,3,3,0,0,1-.89-2.22V529h-2.23c-.39,0-.63-.08-.73-.22a1.12,1.12,0,0,1-.14-.59,3,3,0,0,1,0-.51c.08-.29.36-.44.84-.44h2.23v-6.64a.93.93,0,0,1,.89-.87.92.92,0,0,1,.64.27.82.82,0,0,1,.29.6v6.64h2.3a.84.84,0,0,1,.6.28.78.78,0,0,1,0,1.2Zm-5.47-301.6a7.91,7.91,0,0,1-6-2.64,9.23,9.23,0,0,1,0-12.59,8.07,8.07,0,0,1,12,0,9.2,9.2,0,0,1,0,12.59A7.89,7.89,0,0,1,263.73,227.1Zm7.17,157.28a.84.84,0,0,1,1.24-.11,9,9,0,0,0,5.18,2.08,5.7,5.7,0,0,0,3.69-1.1,2.52,2.52,0,0,0,1.33-2.13,2.81,2.81,0,0,0-1.21-2.17,8.57,8.57,0,0,0-3.84-1.39l-.08,0a10.28,10.28,0,0,1-4-1.39,3.53,3.53,0,0,1-1.93-3.21,4.21,4.21,0,0,1,1.93-3.5,7.59,7.59,0,0,1,4.38-1.21,6.88,6.88,0,0,1,2.13.35,9.61,9.61,0,0,1,1.65.66c.37.2.89.52,1.55.93a.94.94,0,0,1,.36.58.88.88,0,0,1-.11.66.8.8,0,0,1-.55.36.81.81,0,0,1-.65-.11c-.61-.41-1.07-.71-1.37-.89a7.38,7.38,0,0,0-1.33-.58,5,5,0,0,0-1.68-.31,5.19,5.19,0,0,0-3.32,1,2.68,2.68,0,0,0-1.2,2,2.35,2.35,0,0,0,1,1.86,8.84,8.84,0,0,0,3.65,1.24h.07a12.8,12.8,0,0,1,4.34,1.46,4,4,0,0,1,2,3.52,4.44,4.44,0,0,1-2,3.68,7.35,7.35,0,0,1-4.51,1.48,10.6,10.6,0,0,1-6.6-2.55A.75.75,0,0,1,270.9,384.38Zm23,151.31a.72.72,0,0,1-.26.58.91.91,0,0,1-.62.22H278.31a7,7,0,0,0,2.15,4.89,6.75,6.75,0,0,0,8.1,1.09A6.68,6.68,0,0,0,291,540.1a.76.76,0,0,1,1.17-.29.84.84,0,0,1,.29,1.24,8.73,8.73,0,0,1-3.08,3,8.5,8.5,0,0,1-10.29-1.52,9.13,9.13,0,0,1,0-12.64,8.14,8.14,0,0,1,6.06-2.63,8.22,8.22,0,0,1,6,2.39,9.1,9.1,0,0,1,2.74,5.93Zm2.2-164a.84.84,0,0,1-.6.28h-2.3v13a1.17,1.17,0,0,0,.46.95,1.38,1.38,0,0,0,.82.36.92.92,0,0,1,.66.3.87.87,0,0,1,.29.61.86.86,0,0,1-.29.61.91.91,0,0,1-.62.27,3.08,3.08,0,0,1-2.25-.88,3,3,0,0,1-.89-2.22V372h-2.22c-.39,0-.64-.08-.73-.22a1,1,0,0,1-.15-.59,2.06,2.06,0,0,1,0-.51c.07-.29.35-.44.84-.44h2.22v-6.64a.93.93,0,0,1,.89-.87.9.9,0,0,1,.64.27.82.82,0,0,1,.29.6v6.64h2.3a.84.84,0,0,1,.6.28.78.78,0,0,1,0,1.2Zm18.52,172.52a.86.86,0,0,1-.26.63.87.87,0,0,1-1.49-.63v-9.7a5.32,5.32,0,0,0-1.61-3.88,5.23,5.23,0,0,0-3.88-1.63,5.31,5.31,0,0,0-3.89,1.61,5.58,5.58,0,0,0-1.68,3.9v9.85a.82.82,0,0,1-.84.73h-.21a.88.88,0,0,1-.59-.47.18.18,0,0,1,0-.11l0-.08v-16.3a.83.83,0,0,1,.25-.62.85.85,0,0,1,.62-.26.8.8,0,0,1,.61.26.9.9,0,0,1,.23.62v1.71a6.69,6.69,0,0,1,5.35-2.59,7.18,7.18,0,0,1,5.32,2.14,7,7,0,0,1,2.14,5.12Zm24-171.39a8,8,0,0,1,9.71-1.66,8.33,8.33,0,0,1,2.9,2.56V371.1a.83.83,0,0,1,.27-.62.91.91,0,0,1,.62-.26.87.87,0,0,1,.61.26.89.89,0,0,1,.25.62v15.58a8.4,8.4,0,0,1-8.43,8.39,9.33,9.33,0,0,1-3.72-.84c-.48-.34-.61-.73-.36-1.17a.73.73,0,0,1,1.16-.4,6.74,6.74,0,0,0,2.92.66,6.48,6.48,0,0,0,4.73-1.94,6.36,6.36,0,0,0,2-4.7v-2.19a8,8,0,0,1-6.68,3.5,7.84,7.84,0,0,1-5.94-2.61,9.25,9.25,0,0,1,0-12.55Zm-23.36-2.31a.85.85,0,0,1,.62-.26.79.79,0,0,1,.6.26.86.86,0,0,1,.24.62v1.71a6.65,6.65,0,0,1,5.34-2.59,7.21,7.21,0,0,1,5.33,2.14,7,7,0,0,1,2.13,5.12v9.7a.85.85,0,0,1-.87.88.83.83,0,0,1-.62-.25.86.86,0,0,1-.26-.63v-9.7a5.31,5.31,0,0,0-1.6-3.88,5.47,5.47,0,0,0-7.77,0,5.54,5.54,0,0,0-1.68,3.9v9.85a.82.82,0,0,1-.84.73h-.22a.86.86,0,0,1-.58-.47.14.14,0,0,1,0-.11l0-.08v-16.3A.84.84,0,0,1,315.19,370.52Zm12.57-144.29a.85.85,0,0,1-.26.62.87.87,0,0,1-1.49-.62v-9.71a5.32,5.32,0,0,0-1.61-3.88,5.23,5.23,0,0,0-3.88-1.63,5.31,5.31,0,0,0-3.89,1.61,5.58,5.58,0,0,0-1.68,3.9v9.85a.82.82,0,0,1-.84.73h-.22a.88.88,0,0,1-.58-.47.18.18,0,0,1,0-.11l0-.08v-16.3a.83.83,0,0,1,.25-.62.85.85,0,0,1,.62-.26.76.76,0,0,1,.6.26.86.86,0,0,1,.24.62v1.71a6.69,6.69,0,0,1,5.35-2.59,7.2,7.2,0,0,1,5.32,2.14,7,7,0,0,1,2.14,5.12Zm23.45-.55a8.4,8.4,0,0,1-8.42,8.39,9.26,9.26,0,0,1-3.72-.84c-.49-.34-.61-.73-.37-1.17a.74.74,0,0,1,1.17-.4,6.71,6.71,0,0,0,2.92.66,6.47,6.47,0,0,0,4.72-1.94,6.36,6.36,0,0,0,1.95-4.7v-2.19a8,8,0,0,1-6.67,3.5,7.84,7.84,0,0,1-6-2.61,9.26,9.26,0,0,1,0-12.55,8,8,0,0,1,9.7-1.66,8.33,8.33,0,0,1,2.9,2.56V210.1a.8.8,0,0,1,.28-.62.87.87,0,0,1,.62-.26.83.83,0,0,1,.6.26.84.84,0,0,1,.25.62Zm83.65,2.14a1.55,1.55,0,0,1,.44,1.08,1.52,1.52,0,0,1-2.59,1.07l-13.18-13.18a1.51,1.51,0,0,1,0-2.14l13.18-13.18a1.52,1.52,0,0,1,1.07-.44h0a1.55,1.55,0,0,1,1.08.44,1.51,1.51,0,0,1,0,2.14l-12.1,12.1Zm24.77-24.11-18.78,25.7a1.42,1.42,0,1,1-2.3-1.68L457.32,202a1.43,1.43,0,0,1,1.13-.55,1.46,1.46,0,0,1,.81.25A1.42,1.42,0,0,1,459.63,203.71Zm19.56,13.09L466,230a1.52,1.52,0,0,1-2.15-2.15l12.1-12.1-12.1-12.09a1.55,1.55,0,0,1-.44-1.08A1.52,1.52,0,0,1,465,201a1.54,1.54,0,0,1,1.07.44l13.17,13.17h0A1.51,1.51,0,0,1,479.19,216.8ZM400,530.62a6.48,6.48,0,0,0-4.4-1.64,6.55,6.55,0,0,0-4.39,1.62,7.14,7.14,0,0,0-2.41,4.18H402.3A6.89,6.89,0,0,0,400,530.62ZM366.84,78.28a6.2,6.2,0,0,0,4.71-2.1,7.22,7.22,0,0,0,1.95-5.09,7.07,7.07,0,0,0-1.95-5,6.38,6.38,0,0,0-9.41,0,7.1,7.1,0,0,0-1.95,5,7.18,7.18,0,0,0,1.95,5.07A6.19,6.19,0,0,0,366.84,78.28Zm-22.34,308a6.2,6.2,0,0,0,4.71-2.1,7.22,7.22,0,0,0,2-5.09,7.07,7.07,0,0,0-2-5,6.4,6.4,0,0,0-9.42,0,7.55,7.55,0,0,0,0,10.13A6.23,6.23,0,0,0,344.5,386.28ZM342.8,211a6.21,6.21,0,0,0-4.7,2.08,7.1,7.1,0,0,0-2,5.05,7.18,7.18,0,0,0,2,5.07,6.32,6.32,0,0,0,9.41,0,7.22,7.22,0,0,0,1.95-5.09,7.07,7.07,0,0,0-1.95-5.05A6.23,6.23,0,0,0,342.8,211ZM329,543.35a6.23,6.23,0,0,0,4.72-2.1,7.13,7.13,0,0,0,2-5.09,7.23,7.23,0,0,0-2-5.11,6.36,6.36,0,0,0-9.46,0,7.2,7.2,0,0,0-2,5.11,7.11,7.11,0,0,0,2,5.09A6.29,6.29,0,0,0,329,543.35Zm-42.63-318a6.49,6.49,0,0,0,4.78-2,6.93,6.93,0,0,0,2.1-4.83v-.58a7.07,7.07,0,0,0-2.1-4.89,6.62,6.62,0,0,0-9.59.09,7,7,0,0,0-2,5.07,7,7,0,0,0,2,5A6.47,6.47,0,0,0,286.33,225.31Zm1.46-147a6.2,6.2,0,0,0,4.71-2.1,7.22,7.22,0,0,0,1.95-5.09,7.07,7.07,0,0,0-1.95-5,6.39,6.39,0,0,0-9.42,0,7.1,7.1,0,0,0-1.95,5,7.18,7.18,0,0,0,1.95,5.07A6.23,6.23,0,0,0,287.79,78.28ZM285.22,529a6.58,6.58,0,0,0-4.4,1.62,7.12,7.12,0,0,0-2.4,4.18H292a6.89,6.89,0,0,0-2.33-4.16A6.52,6.52,0,0,0,285.22,529ZM268.46,213.06a6.33,6.33,0,0,0-9.45,0,7.49,7.49,0,0,0,0,10.17,6.33,6.33,0,0,0,9.45,0,7.49,7.49,0,0,0,0-10.17ZM257.31,372a6.55,6.55,0,0,0-4.39,1.62,7.14,7.14,0,0,0-2.41,4.18H264a6.89,6.89,0,0,0-2.33-4.16A6.5,6.5,0,0,0,257.31,372ZM237.56,64a6.58,6.58,0,0,0-4.4,1.62,7.19,7.19,0,0,0-2.41,4.18h13.54A6.86,6.86,0,0,0,242,65.62,6.47,6.47,0,0,0,237.56,64ZM210,56.35h-3.87v22H210a11,11,0,0,0,7.77-18.71A10.74,10.74,0,0,0,210,56.35Zm4.59,472.59a6.26,6.26,0,0,0-4.74,2.11,7.2,7.2,0,0,0-2,5.11,7.11,7.11,0,0,0,2,5.09,6.39,6.39,0,0,0,9.47,0,7.17,7.17,0,0,0,2-5.09,7.27,7.27,0,0,0-2-5.11A6.24,6.24,0,0,0,214.59,528.94ZM217.77,59.6A10.74,10.74,0,0,0,210,56.35h-3.87v22H210a11,11,0,0,0,7.77-18.71Zm24.18,6A6.47,6.47,0,0,0,237.56,64a6.58,6.58,0,0,0-4.4,1.62,7.19,7.19,0,0,0-2.41,4.18h13.54A6.86,6.86,0,0,0,242,65.62Zm19.76,308a6.74,6.74,0,0,0-8.79,0,7.14,7.14,0,0,0-2.41,4.18H264A6.89,6.89,0,0,0,261.71,373.62ZM400,530.62a6.48,6.48,0,0,0-4.4-1.64,6.55,6.55,0,0,0-4.39,1.62,7.14,7.14,0,0,0-2.41,4.18H402.3A6.89,6.89,0,0,0,400,530.62Zm-66.29.43a6.36,6.36,0,0,0-9.46,0,7.2,7.2,0,0,0-2,5.11,7.11,7.11,0,0,0,2,5.09,6.38,6.38,0,0,0,9.46,0,7.13,7.13,0,0,0,2-5.09A7.23,7.23,0,0,0,333.68,531.05ZM371.55,66a6.38,6.38,0,0,0-9.41,0,7.1,7.1,0,0,0-1.95,5,7.18,7.18,0,0,0,1.95,5.07,6.32,6.32,0,0,0,9.41,0,7.22,7.22,0,0,0,1.95-5.09A7.07,7.07,0,0,0,371.55,66ZM292.5,66a6.39,6.39,0,0,0-9.42,0,7.1,7.1,0,0,0-1.95,5,7.18,7.18,0,0,0,1.95,5.07,6.33,6.33,0,0,0,9.42,0,7.22,7.22,0,0,0,1.95-5.09A7.07,7.07,0,0,0,292.5,66Zm-1.39,147a6.62,6.62,0,0,0-9.59.09,7,7,0,0,0-2,5.07,7,7,0,0,0,2,5,6.67,6.67,0,0,0,9.59.09,6.93,6.93,0,0,0,2.1-4.83v-.58A7.07,7.07,0,0,0,291.11,213Zm-22.65,0a6.33,6.33,0,0,0-9.45,0,7.49,7.49,0,0,0,0,10.17,6.33,6.33,0,0,0,9.45,0,7.49,7.49,0,0,0,0-10.17Zm21.16,317.56a6.75,6.75,0,0,0-8.8,0,7.12,7.12,0,0,0-2.4,4.18H292A6.89,6.89,0,0,0,289.62,530.62ZM349.21,374a6.4,6.4,0,0,0-9.42,0,7.55,7.55,0,0,0,0,10.13,6.33,6.33,0,0,0,9.42,0,7.22,7.22,0,0,0,2-5.09A7.07,7.07,0,0,0,349.21,374Zm-1.7-161a6.38,6.38,0,0,0-9.41,0,7.1,7.1,0,0,0-2,5.05,7.18,7.18,0,0,0,2,5.07,6.32,6.32,0,0,0,9.41,0,7.22,7.22,0,0,0,1.95-5.09A7.07,7.07,0,0,0,347.51,213ZM400,530.62a6.48,6.48,0,0,0-4.4-1.64,6.55,6.55,0,0,0-4.39,1.62,7.14,7.14,0,0,0-2.41,4.18H402.3A6.89,6.89,0,0,0,400,530.62ZM371.55,66a6.38,6.38,0,0,0-9.41,0,7.1,7.1,0,0,0-1.95,5,7.18,7.18,0,0,0,1.95,5.07,6.32,6.32,0,0,0,9.41,0,7.22,7.22,0,0,0,1.95-5.09A7.07,7.07,0,0,0,371.55,66ZM349.21,374a6.4,6.4,0,0,0-9.42,0,7.55,7.55,0,0,0,0,10.13,6.33,6.33,0,0,0,9.42,0,7.22,7.22,0,0,0,2-5.09A7.07,7.07,0,0,0,349.21,374Zm-1.7-161a6.38,6.38,0,0,0-9.41,0,7.1,7.1,0,0,0-2,5.05,7.18,7.18,0,0,0,2,5.07,6.32,6.32,0,0,0,9.41,0,7.22,7.22,0,0,0,1.95-5.09A7.07,7.07,0,0,0,347.51,213Zm-13.83,318a6.36,6.36,0,0,0-9.46,0,7.2,7.2,0,0,0-2,5.11,7.11,7.11,0,0,0,2,5.09,6.38,6.38,0,0,0,9.46,0,7.13,7.13,0,0,0,2-5.09A7.23,7.23,0,0,0,333.68,531.05ZM291.11,213a6.62,6.62,0,0,0-9.59.09,7,7,0,0,0-2,5.07,7,7,0,0,0,2,5,6.67,6.67,0,0,0,9.59.09,6.93,6.93,0,0,0,2.1-4.83v-.58A7.07,7.07,0,0,0,291.11,213ZM292.5,66a6.39,6.39,0,0,0-9.42,0,7.1,7.1,0,0,0-1.95,5,7.18,7.18,0,0,0,1.95,5.07,6.33,6.33,0,0,0,9.42,0,7.22,7.22,0,0,0,1.95-5.09A7.07,7.07,0,0,0,292.5,66Zm-2.88,464.58a6.75,6.75,0,0,0-8.8,0,7.12,7.12,0,0,0-2.4,4.18H292A6.89,6.89,0,0,0,289.62,530.62ZM268.46,213.06a6.33,6.33,0,0,0-9.45,0,7.49,7.49,0,0,0,0,10.17,6.33,6.33,0,0,0,9.45,0,7.49,7.49,0,0,0,0-10.17Zm-6.75,160.56a6.74,6.74,0,0,0-8.79,0,7.14,7.14,0,0,0-2.41,4.18H264A6.89,6.89,0,0,0,261.71,373.62ZM242,65.62A6.47,6.47,0,0,0,237.56,64a6.58,6.58,0,0,0-4.4,1.62,7.19,7.19,0,0,0-2.41,4.18h13.54A6.86,6.86,0,0,0,242,65.62Zm-24.18-6A10.74,10.74,0,0,0,210,56.35h-3.87v22H210a11,11,0,0,0,7.77-18.71Zm0,0A10.74,10.74,0,0,0,210,56.35h-3.87v22H210a11,11,0,0,0,7.77-18.71Zm24.18,6A6.47,6.47,0,0,0,237.56,64a6.58,6.58,0,0,0-4.4,1.62,7.19,7.19,0,0,0-2.41,4.18h13.54A6.86,6.86,0,0,0,242,65.62Zm19.76,308a6.74,6.74,0,0,0-8.79,0,7.14,7.14,0,0,0-2.41,4.18H264A6.89,6.89,0,0,0,261.71,373.62ZM400,530.62a6.48,6.48,0,0,0-4.4-1.64,6.55,6.55,0,0,0-4.39,1.62,7.14,7.14,0,0,0-2.41,4.18H402.3A6.89,6.89,0,0,0,400,530.62Zm-66.29.43a6.36,6.36,0,0,0-9.46,0,7.2,7.2,0,0,0-2,5.11,7.11,7.11,0,0,0,2,5.09,6.38,6.38,0,0,0,9.46,0,7.13,7.13,0,0,0,2-5.09A7.23,7.23,0,0,0,333.68,531.05ZM371.55,66a6.38,6.38,0,0,0-9.41,0,7.1,7.1,0,0,0-1.95,5,7.18,7.18,0,0,0,1.95,5.07,6.32,6.32,0,0,0,9.41,0,7.22,7.22,0,0,0,1.95-5.09A7.07,7.07,0,0,0,371.55,66ZM292.5,66a6.39,6.39,0,0,0-9.42,0,7.1,7.1,0,0,0-1.95,5,7.18,7.18,0,0,0,1.95,5.07,6.33,6.33,0,0,0,9.42,0,7.22,7.22,0,0,0,1.95-5.09A7.07,7.07,0,0,0,292.5,66Zm-1.39,147a6.62,6.62,0,0,0-9.59.09,7,7,0,0,0-2,5.07,7,7,0,0,0,2,5,6.67,6.67,0,0,0,9.59.09,6.93,6.93,0,0,0,2.1-4.83v-.58A7.07,7.07,0,0,0,291.11,213Zm-22.65,0a6.33,6.33,0,0,0-9.45,0,7.49,7.49,0,0,0,0,10.17,6.33,6.33,0,0,0,9.45,0,7.49,7.49,0,0,0,0-10.17Zm21.16,317.56a6.75,6.75,0,0,0-8.8,0,7.12,7.12,0,0,0-2.4,4.18H292A6.89,6.89,0,0,0,289.62,530.62ZM349.21,374a6.4,6.4,0,0,0-9.42,0,7.55,7.55,0,0,0,0,10.13,6.33,6.33,0,0,0,9.42,0,7.22,7.22,0,0,0,2-5.09A7.07,7.07,0,0,0,349.21,374Zm-1.7-161a6.38,6.38,0,0,0-9.41,0,7.1,7.1,0,0,0-2,5.05,7.18,7.18,0,0,0,2,5.07,6.32,6.32,0,0,0,9.41,0,7.22,7.22,0,0,0,1.95-5.09A7.07,7.07,0,0,0,347.51,213ZM400,530.62a6.48,6.48,0,0,0-4.4-1.64,6.55,6.55,0,0,0-4.39,1.62,7.14,7.14,0,0,0-2.41,4.18H402.3A6.89,6.89,0,0,0,400,530.62ZM371.55,66a6.38,6.38,0,0,0-9.41,0,7.1,7.1,0,0,0-1.95,5,7.18,7.18,0,0,0,1.95,5.07,6.32,6.32,0,0,0,9.41,0,7.22,7.22,0,0,0,1.95-5.09A7.07,7.07,0,0,0,371.55,66ZM349.21,374a6.4,6.4,0,0,0-9.42,0,7.55,7.55,0,0,0,0,10.13,6.33,6.33,0,0,0,9.42,0,7.22,7.22,0,0,0,2-5.09A7.07,7.07,0,0,0,349.21,374Zm-1.7-161a6.38,6.38,0,0,0-9.41,0,7.1,7.1,0,0,0-2,5.05,7.18,7.18,0,0,0,2,5.07,6.32,6.32,0,0,0,9.41,0,7.22,7.22,0,0,0,1.95-5.09A7.07,7.07,0,0,0,347.51,213Zm-13.83,318a6.36,6.36,0,0,0-9.46,0,7.2,7.2,0,0,0-2,5.11,7.11,7.11,0,0,0,2,5.09,6.38,6.38,0,0,0,9.46,0,7.13,7.13,0,0,0,2-5.09A7.23,7.23,0,0,0,333.68,531.05ZM291.11,213a6.62,6.62,0,0,0-9.59.09,7,7,0,0,0-2,5.07,7,7,0,0,0,2,5,6.67,6.67,0,0,0,9.59.09,6.93,6.93,0,0,0,2.1-4.83v-.58A7.07,7.07,0,0,0,291.11,213ZM292.5,66a6.39,6.39,0,0,0-9.42,0,7.1,7.1,0,0,0-1.95,5,7.18,7.18,0,0,0,1.95,5.07,6.33,6.33,0,0,0,9.42,0,7.22,7.22,0,0,0,1.95-5.09A7.07,7.07,0,0,0,292.5,66Zm-2.88,464.58a6.75,6.75,0,0,0-8.8,0,7.12,7.12,0,0,0-2.4,4.18H292A6.89,6.89,0,0,0,289.62,530.62ZM268.46,213.06a6.33,6.33,0,0,0-9.45,0,7.49,7.49,0,0,0,0,10.17,6.33,6.33,0,0,0,9.45,0,7.49,7.49,0,0,0,0-10.17Zm-6.75,160.56a6.74,6.74,0,0,0-8.79,0,7.14,7.14,0,0,0-2.41,4.18H264A6.89,6.89,0,0,0,261.71,373.62ZM242,65.62A6.47,6.47,0,0,0,237.56,64a6.58,6.58,0,0,0-4.4,1.62,7.19,7.19,0,0,0-2.41,4.18h13.54A6.86,6.86,0,0,0,242,65.62Zm-24.18-6A10.74,10.74,0,0,0,210,56.35h-3.87v22H210a11,11,0,0,0,7.77-18.71Zm0,0A10.74,10.74,0,0,0,210,56.35h-3.87v22H210a11,11,0,0,0,7.77-18.71Zm24.18,6A6.47,6.47,0,0,0,237.56,64a6.58,6.58,0,0,0-4.4,1.62,7.19,7.19,0,0,0-2.41,4.18h13.54A6.86,6.86,0,0,0,242,65.62Zm19.76,308a6.74,6.74,0,0,0-8.79,0,7.14,7.14,0,0,0-2.41,4.18H264A6.89,6.89,0,0,0,261.71,373.62ZM400,530.62a6.48,6.48,0,0,0-4.4-1.64,6.55,6.55,0,0,0-4.39,1.62,7.14,7.14,0,0,0-2.41,4.18H402.3A6.89,6.89,0,0,0,400,530.62Zm-66.29.43a6.36,6.36,0,0,0-9.46,0,7.2,7.2,0,0,0-2,5.11,7.11,7.11,0,0,0,2,5.09,6.38,6.38,0,0,0,9.46,0,7.13,7.13,0,0,0,2-5.09A7.23,7.23,0,0,0,333.68,531.05ZM371.55,66a6.38,6.38,0,0,0-9.41,0,7.1,7.1,0,0,0-1.95,5,7.18,7.18,0,0,0,1.95,5.07,6.32,6.32,0,0,0,9.41,0,7.22,7.22,0,0,0,1.95-5.09A7.07,7.07,0,0,0,371.55,66ZM292.5,66a6.39,6.39,0,0,0-9.42,0,7.1,7.1,0,0,0-1.95,5,7.18,7.18,0,0,0,1.95,5.07,6.33,6.33,0,0,0,9.42,0,7.22,7.22,0,0,0,1.95-5.09A7.07,7.07,0,0,0,292.5,66Zm-1.39,147a6.62,6.62,0,0,0-9.59.09,7,7,0,0,0-2,5.07,7,7,0,0,0,2,5,6.67,6.67,0,0,0,9.59.09,6.93,6.93,0,0,0,2.1-4.83v-.58A7.07,7.07,0,0,0,291.11,213Zm-22.65,0a6.33,6.33,0,0,0-9.45,0,7.49,7.49,0,0,0,0,10.17,6.33,6.33,0,0,0,9.45,0,7.49,7.49,0,0,0,0-10.17Zm21.16,317.56a6.75,6.75,0,0,0-8.8,0,7.12,7.12,0,0,0-2.4,4.18H292A6.89,6.89,0,0,0,289.62,530.62ZM349.21,374a6.4,6.4,0,0,0-9.42,0,7.55,7.55,0,0,0,0,10.13,6.33,6.33,0,0,0,9.42,0,7.22,7.22,0,0,0,2-5.09A7.07,7.07,0,0,0,349.21,374Zm-1.7-161a6.38,6.38,0,0,0-9.41,0,7.1,7.1,0,0,0-2,5.05,7.18,7.18,0,0,0,2,5.07,6.32,6.32,0,0,0,9.41,0,7.22,7.22,0,0,0,1.95-5.09A7.07,7.07,0,0,0,347.51,213ZM400,530.62a6.48,6.48,0,0,0-4.4-1.64,6.55,6.55,0,0,0-4.39,1.62,7.14,7.14,0,0,0-2.41,4.18H402.3A6.89,6.89,0,0,0,400,530.62ZM371.55,66a6.38,6.38,0,0,0-9.41,0,7.1,7.1,0,0,0-1.95,5,7.18,7.18,0,0,0,1.95,5.07,6.32,6.32,0,0,0,9.41,0,7.22,7.22,0,0,0,1.95-5.09A7.07,7.07,0,0,0,371.55,66ZM349.21,374a6.4,6.4,0,0,0-9.42,0,7.55,7.55,0,0,0,0,10.13,6.33,6.33,0,0,0,9.42,0,7.22,7.22,0,0,0,2-5.09A7.07,7.07,0,0,0,349.21,374Zm-1.7-161a6.38,6.38,0,0,0-9.41,0,7.1,7.1,0,0,0-2,5.05,7.18,7.18,0,0,0,2,5.07,6.32,6.32,0,0,0,9.41,0,7.22,7.22,0,0,0,1.95-5.09A7.07,7.07,0,0,0,347.51,213Zm-13.83,318a6.36,6.36,0,0,0-9.46,0,7.2,7.2,0,0,0-2,5.11,7.11,7.11,0,0,0,2,5.09,6.38,6.38,0,0,0,9.46,0,7.13,7.13,0,0,0,2-5.09A7.23,7.23,0,0,0,333.68,531.05ZM291.11,213a6.62,6.62,0,0,0-9.59.09,7,7,0,0,0-2,5.07,7,7,0,0,0,2,5,6.67,6.67,0,0,0,9.59.09,6.93,6.93,0,0,0,2.1-4.83v-.58A7.07,7.07,0,0,0,291.11,213ZM292.5,66a6.39,6.39,0,0,0-9.42,0,7.1,7.1,0,0,0-1.95,5,7.18,7.18,0,0,0,1.95,5.07,6.33,6.33,0,0,0,9.42,0,7.22,7.22,0,0,0,1.95-5.09A7.07,7.07,0,0,0,292.5,66Zm-2.88,464.58a6.75,6.75,0,0,0-8.8,0,7.12,7.12,0,0,0-2.4,4.18H292A6.89,6.89,0,0,0,289.62,530.62ZM268.46,213.06a6.33,6.33,0,0,0-9.45,0,7.49,7.49,0,0,0,0,10.17,6.33,6.33,0,0,0,9.45,0,7.49,7.49,0,0,0,0-10.17Zm-6.75,160.56a6.74,6.74,0,0,0-8.79,0,7.14,7.14,0,0,0-2.41,4.18H264A6.89,6.89,0,0,0,261.71,373.62ZM242,65.62A6.47,6.47,0,0,0,237.56,64a6.58,6.58,0,0,0-4.4,1.62,7.19,7.19,0,0,0-2.41,4.18h13.54A6.86,6.86,0,0,0,242,65.62Zm-24.18-6A10.74,10.74,0,0,0,210,56.35h-3.87v22H210a11,11,0,0,0,7.77-18.71Zm0,0A10.74,10.74,0,0,0,210,56.35h-3.87v22H210a11,11,0,0,0,7.77-18.71Zm24.18,6A6.47,6.47,0,0,0,237.56,64a6.58,6.58,0,0,0-4.4,1.62,7.19,7.19,0,0,0-2.41,4.18h13.54A6.86,6.86,0,0,0,242,65.62Zm19.76,308a6.74,6.74,0,0,0-8.79,0,7.14,7.14,0,0,0-2.41,4.18H264A6.89,6.89,0,0,0,261.71,373.62Zm72,157.43a6.36,6.36,0,0,0-9.46,0,7.2,7.2,0,0,0-2,5.11,7.11,7.11,0,0,0,2,5.09,6.38,6.38,0,0,0,9.46,0,7.13,7.13,0,0,0,2-5.09A7.23,7.23,0,0,0,333.68,531.05ZM371.55,66a6.38,6.38,0,0,0-9.41,0,7.1,7.1,0,0,0-1.95,5,7.18,7.18,0,0,0,1.95,5.07,6.32,6.32,0,0,0,9.41,0,7.22,7.22,0,0,0,1.95-5.09A7.07,7.07,0,0,0,371.55,66ZM292.5,66a6.39,6.39,0,0,0-9.42,0,7.1,7.1,0,0,0-1.95,5,7.18,7.18,0,0,0,1.95,5.07,6.33,6.33,0,0,0,9.42,0,7.22,7.22,0,0,0,1.95-5.09A7.07,7.07,0,0,0,292.5,66Zm-1.39,147a6.62,6.62,0,0,0-9.59.09,7,7,0,0,0-2,5.07,7,7,0,0,0,2,5,6.67,6.67,0,0,0,9.59.09,6.93,6.93,0,0,0,2.1-4.83v-.58A7.07,7.07,0,0,0,291.11,213Zm-22.65,0a6.33,6.33,0,0,0-9.45,0,7.49,7.49,0,0,0,0,10.17,6.33,6.33,0,0,0,9.45,0,7.49,7.49,0,0,0,0-10.17Zm21.16,317.56a6.75,6.75,0,0,0-8.8,0,7.12,7.12,0,0,0-2.4,4.18H292A6.89,6.89,0,0,0,289.62,530.62ZM349.21,374a6.4,6.4,0,0,0-9.42,0,7.55,7.55,0,0,0,0,10.13,6.33,6.33,0,0,0,9.42,0,7.22,7.22,0,0,0,2-5.09A7.07,7.07,0,0,0,349.21,374Zm-1.7-161a6.38,6.38,0,0,0-9.41,0,7.1,7.1,0,0,0-2,5.05,7.18,7.18,0,0,0,2,5.07,6.32,6.32,0,0,0,9.41,0,7.22,7.22,0,0,0,1.95-5.09A7.07,7.07,0,0,0,347.51,213Zm24-147a6.38,6.38,0,0,0-9.41,0,7.1,7.1,0,0,0-1.95,5,7.18,7.18,0,0,0,1.95,5.07,6.32,6.32,0,0,0,9.41,0,7.22,7.22,0,0,0,1.95-5.09A7.07,7.07,0,0,0,371.55,66ZM349.21,374a6.4,6.4,0,0,0-9.42,0,7.55,7.55,0,0,0,0,10.13,6.33,6.33,0,0,0,9.42,0,7.22,7.22,0,0,0,2-5.09A7.07,7.07,0,0,0,349.21,374Zm-1.7-161a6.38,6.38,0,0,0-9.41,0,7.1,7.1,0,0,0-2,5.05,7.18,7.18,0,0,0,2,5.07,6.32,6.32,0,0,0,9.41,0,7.22,7.22,0,0,0,1.95-5.09A7.07,7.07,0,0,0,347.51,213Zm-13.83,318a6.36,6.36,0,0,0-9.46,0,7.2,7.2,0,0,0-2,5.11,7.11,7.11,0,0,0,2,5.09,6.38,6.38,0,0,0,9.46,0,7.13,7.13,0,0,0,2-5.09A7.23,7.23,0,0,0,333.68,531.05ZM291.11,213a6.62,6.62,0,0,0-9.59.09,7,7,0,0,0-2,5.07,7,7,0,0,0,2,5,6.67,6.67,0,0,0,9.59.09,6.93,6.93,0,0,0,2.1-4.83v-.58A7.07,7.07,0,0,0,291.11,213ZM292.5,66a6.39,6.39,0,0,0-9.42,0,7.1,7.1,0,0,0-1.95,5,7.18,7.18,0,0,0,1.95,5.07,6.33,6.33,0,0,0,9.42,0,7.22,7.22,0,0,0,1.95-5.09A7.07,7.07,0,0,0,292.5,66Zm-2.88,464.58a6.75,6.75,0,0,0-8.8,0,7.12,7.12,0,0,0-2.4,4.18H292A6.89,6.89,0,0,0,289.62,530.62ZM268.46,213.06a6.33,6.33,0,0,0-9.45,0,7.49,7.49,0,0,0,0,10.17,6.33,6.33,0,0,0,9.45,0,7.49,7.49,0,0,0,0-10.17Zm-6.75,160.56a6.74,6.74,0,0,0-8.79,0,7.14,7.14,0,0,0-2.41,4.18H264A6.89,6.89,0,0,0,261.71,373.62ZM242,65.62A6.47,6.47,0,0,0,237.56,64a6.58,6.58,0,0,0-4.4,1.62,7.19,7.19,0,0,0-2.41,4.18h13.54A6.86,6.86,0,0,0,242,65.62Zm-24.18-6A10.74,10.74,0,0,0,210,56.35h-3.87v22H210a11,11,0,0,0,7.77-18.71Zm0,0A10.74,10.74,0,0,0,210,56.35h-3.87v22H210a11,11,0,0,0,7.77-18.71Zm24.18,6A6.47,6.47,0,0,0,237.56,64a6.58,6.58,0,0,0-4.4,1.62,7.19,7.19,0,0,0-2.41,4.18h13.54A6.86,6.86,0,0,0,242,65.62Zm19.76,308a6.74,6.74,0,0,0-8.79,0,7.14,7.14,0,0,0-2.41,4.18H264A6.89,6.89,0,0,0,261.71,373.62ZM371.55,66a6.38,6.38,0,0,0-9.41,0,7.1,7.1,0,0,0-1.95,5,7.18,7.18,0,0,0,1.95,5.07,6.32,6.32,0,0,0,9.41,0,7.22,7.22,0,0,0,1.95-5.09A7.07,7.07,0,0,0,371.55,66ZM292.5,66a6.39,6.39,0,0,0-9.42,0,7.1,7.1,0,0,0-1.95,5,7.18,7.18,0,0,0,1.95,5.07,6.33,6.33,0,0,0,9.42,0,7.22,7.22,0,0,0,1.95-5.09A7.07,7.07,0,0,0,292.5,66Zm-1.39,147a6.62,6.62,0,0,0-9.59.09,7,7,0,0,0-2,5.07,7,7,0,0,0,2,5,6.67,6.67,0,0,0,9.59.09,6.93,6.93,0,0,0,2.1-4.83v-.58A7.07,7.07,0,0,0,291.11,213Zm-22.65,0a6.33,6.33,0,0,0-9.45,0,7.49,7.49,0,0,0,0,10.17,6.33,6.33,0,0,0,9.45,0,7.49,7.49,0,0,0,0-10.17Zm21.16,317.56a6.75,6.75,0,0,0-8.8,0,7.12,7.12,0,0,0-2.4,4.18H292A6.89,6.89,0,0,0,289.62,530.62ZM349.21,374a6.4,6.4,0,0,0-9.42,0,7.55,7.55,0,0,0,0,10.13,6.33,6.33,0,0,0,9.42,0,7.22,7.22,0,0,0,2-5.09A7.07,7.07,0,0,0,349.21,374Zm-1.7-161a6.38,6.38,0,0,0-9.41,0,7.1,7.1,0,0,0-2,5.05,7.18,7.18,0,0,0,2,5.07,6.32,6.32,0,0,0,9.41,0,7.22,7.22,0,0,0,1.95-5.09A7.07,7.07,0,0,0,347.51,213Zm24-147a6.38,6.38,0,0,0-9.41,0,7.1,7.1,0,0,0-1.95,5,7.18,7.18,0,0,0,1.95,5.07,6.32,6.32,0,0,0,9.41,0,7.22,7.22,0,0,0,1.95-5.09A7.07,7.07,0,0,0,371.55,66ZM349.21,374a6.4,6.4,0,0,0-9.42,0,7.55,7.55,0,0,0,0,10.13,6.33,6.33,0,0,0,9.42,0,7.22,7.22,0,0,0,2-5.09A7.07,7.07,0,0,0,349.21,374Zm-1.7-161a6.38,6.38,0,0,0-9.41,0,7.1,7.1,0,0,0-2,5.05,7.18,7.18,0,0,0,2,5.07,6.32,6.32,0,0,0,9.41,0,7.22,7.22,0,0,0,1.95-5.09A7.07,7.07,0,0,0,347.51,213Zm-56.4,0a6.62,6.62,0,0,0-9.59.09,7,7,0,0,0-2,5.07,7,7,0,0,0,2,5,6.67,6.67,0,0,0,9.59.09,6.93,6.93,0,0,0,2.1-4.83v-.58A7.07,7.07,0,0,0,291.11,213ZM292.5,66a6.39,6.39,0,0,0-9.42,0,7.1,7.1,0,0,0-1.95,5,7.18,7.18,0,0,0,1.95,5.07,6.33,6.33,0,0,0,9.42,0,7.22,7.22,0,0,0,1.95-5.09A7.07,7.07,0,0,0,292.5,66Zm-2.88,464.58a6.75,6.75,0,0,0-8.8,0,7.12,7.12,0,0,0-2.4,4.18H292A6.89,6.89,0,0,0,289.62,530.62ZM268.46,213.06a6.33,6.33,0,0,0-9.45,0,7.49,7.49,0,0,0,0,10.17,6.33,6.33,0,0,0,9.45,0,7.49,7.49,0,0,0,0-10.17Zm-6.75,160.56a6.74,6.74,0,0,0-8.79,0,7.14,7.14,0,0,0-2.41,4.18H264A6.89,6.89,0,0,0,261.71,373.62ZM242,65.62A6.47,6.47,0,0,0,237.56,64a6.58,6.58,0,0,0-4.4,1.62,7.19,7.19,0,0,0-2.41,4.18h13.54A6.86,6.86,0,0,0,242,65.62Zm-24.18-6A10.74,10.74,0,0,0,210,56.35h-3.87v22H210a11,11,0,0,0,7.77-18.71Zm0,0A10.74,10.74,0,0,0,210,56.35h-3.87v22H210a11,11,0,0,0,7.77-18.71Zm24.18,6A6.47,6.47,0,0,0,237.56,64a6.58,6.58,0,0,0-4.4,1.62,7.19,7.19,0,0,0-2.41,4.18h13.54A6.86,6.86,0,0,0,242,65.62Zm19.76,308a6.74,6.74,0,0,0-8.79,0,7.14,7.14,0,0,0-2.41,4.18H264A6.89,6.89,0,0,0,261.71,373.62ZM371.55,66a6.38,6.38,0,0,0-9.41,0,7.1,7.1,0,0,0-1.95,5,7.18,7.18,0,0,0,1.95,5.07,6.32,6.32,0,0,0,9.41,0,7.22,7.22,0,0,0,1.95-5.09A7.07,7.07,0,0,0,371.55,66ZM292.5,66a6.39,6.39,0,0,0-9.42,0,7.1,7.1,0,0,0-1.95,5,7.18,7.18,0,0,0,1.95,5.07,6.33,6.33,0,0,0,9.42,0,7.22,7.22,0,0,0,1.95-5.09A7.07,7.07,0,0,0,292.5,66Zm-1.39,147a6.62,6.62,0,0,0-9.59.09,7,7,0,0,0-2,5.07,7,7,0,0,0,2,5,6.67,6.67,0,0,0,9.59.09,6.93,6.93,0,0,0,2.1-4.83v-.58A7.07,7.07,0,0,0,291.11,213Zm-22.65,0a6.33,6.33,0,0,0-9.45,0,7.49,7.49,0,0,0,0,10.17,6.33,6.33,0,0,0,9.45,0,7.49,7.49,0,0,0,0-10.17Zm80.75,161a6.4,6.4,0,0,0-9.42,0,7.55,7.55,0,0,0,0,10.13,6.33,6.33,0,0,0,9.42,0,7.22,7.22,0,0,0,2-5.09A7.07,7.07,0,0,0,349.21,374Zm-1.7-161a6.38,6.38,0,0,0-9.41,0,7.1,7.1,0,0,0-2,5.05,7.18,7.18,0,0,0,2,5.07,6.32,6.32,0,0,0,9.41,0,7.22,7.22,0,0,0,1.95-5.09A7.07,7.07,0,0,0,347.51,213Zm24-147a6.38,6.38,0,0,0-9.41,0,7.1,7.1,0,0,0-1.95,5,7.18,7.18,0,0,0,1.95,5.07,6.32,6.32,0,0,0,9.41,0,7.22,7.22,0,0,0,1.95-5.09A7.07,7.07,0,0,0,371.55,66ZM349.21,374a6.4,6.4,0,0,0-9.42,0,7.55,7.55,0,0,0,0,10.13,6.33,6.33,0,0,0,9.42,0,7.22,7.22,0,0,0,2-5.09A7.07,7.07,0,0,0,349.21,374Zm-1.7-161a6.38,6.38,0,0,0-9.41,0,7.1,7.1,0,0,0-2,5.05,7.18,7.18,0,0,0,2,5.07,6.32,6.32,0,0,0,9.41,0,7.22,7.22,0,0,0,1.95-5.09A7.07,7.07,0,0,0,347.51,213Zm-56.4,0a6.62,6.62,0,0,0-9.59.09,7,7,0,0,0-2,5.07,7,7,0,0,0,2,5,6.67,6.67,0,0,0,9.59.09,6.93,6.93,0,0,0,2.1-4.83v-.58A7.07,7.07,0,0,0,291.11,213ZM292.5,66a6.39,6.39,0,0,0-9.42,0,7.1,7.1,0,0,0-1.95,5,7.18,7.18,0,0,0,1.95,5.07,6.33,6.33,0,0,0,9.42,0,7.22,7.22,0,0,0,1.95-5.09A7.07,7.07,0,0,0,292.5,66Zm-24,147a6.33,6.33,0,0,0-9.45,0,7.49,7.49,0,0,0,0,10.17,6.33,6.33,0,0,0,9.45,0,7.49,7.49,0,0,0,0-10.17Zm-6.75,160.56a6.74,6.74,0,0,0-8.79,0,7.14,7.14,0,0,0-2.41,4.18H264A6.89,6.89,0,0,0,261.71,373.62ZM242,65.62A6.47,6.47,0,0,0,237.56,64a6.58,6.58,0,0,0-4.4,1.62,7.19,7.19,0,0,0-2.41,4.18h13.54A6.86,6.86,0,0,0,242,65.62Zm-24.18-6A10.74,10.74,0,0,0,210,56.35h-3.87v22H210a11,11,0,0,0,7.77-18.71Zm0,0A10.74,10.74,0,0,0,210,56.35h-3.87v22H210a11,11,0,0,0,7.77-18.71Zm24.18,6A6.47,6.47,0,0,0,237.56,64a6.58,6.58,0,0,0-4.4,1.62,7.19,7.19,0,0,0-2.41,4.18h13.54A6.86,6.86,0,0,0,242,65.62Zm19.76,308a6.74,6.74,0,0,0-8.79,0,7.14,7.14,0,0,0-2.41,4.18H264A6.89,6.89,0,0,0,261.71,373.62ZM371.55,66a6.38,6.38,0,0,0-9.41,0,7.1,7.1,0,0,0-1.95,5,7.18,7.18,0,0,0,1.95,5.07,6.32,6.32,0,0,0,9.41,0,7.22,7.22,0,0,0,1.95-5.09A7.07,7.07,0,0,0,371.55,66ZM292.5,66a6.39,6.39,0,0,0-9.42,0,7.1,7.1,0,0,0-1.95,5,7.18,7.18,0,0,0,1.95,5.07,6.33,6.33,0,0,0,9.42,0,7.22,7.22,0,0,0,1.95-5.09A7.07,7.07,0,0,0,292.5,66Zm-1.39,147a6.62,6.62,0,0,0-9.59.09,7,7,0,0,0-2,5.07,7,7,0,0,0,2,5,6.67,6.67,0,0,0,9.59.09,6.93,6.93,0,0,0,2.1-4.83v-.58A7.07,7.07,0,0,0,291.11,213Zm-22.65,0a6.33,6.33,0,0,0-9.45,0,7.49,7.49,0,0,0,0,10.17,6.33,6.33,0,0,0,9.45,0,7.49,7.49,0,0,0,0-10.17Zm79.05,0a6.38,6.38,0,0,0-9.41,0,7.1,7.1,0,0,0-2,5.05,7.18,7.18,0,0,0,2,5.07,6.32,6.32,0,0,0,9.41,0,7.22,7.22,0,0,0,1.95-5.09A7.07,7.07,0,0,0,347.51,213Zm24-147a6.38,6.38,0,0,0-9.41,0,7.1,7.1,0,0,0-1.95,5,7.18,7.18,0,0,0,1.95,5.07,6.32,6.32,0,0,0,9.41,0,7.22,7.22,0,0,0,1.95-5.09A7.07,7.07,0,0,0,371.55,66Zm-24,147a6.38,6.38,0,0,0-9.41,0,7.1,7.1,0,0,0-2,5.05,7.18,7.18,0,0,0,2,5.07,6.32,6.32,0,0,0,9.41,0,7.22,7.22,0,0,0,1.95-5.09A7.07,7.07,0,0,0,347.51,213Zm-56.4,0a6.62,6.62,0,0,0-9.59.09,7,7,0,0,0-2,5.07,7,7,0,0,0,2,5,6.67,6.67,0,0,0,9.59.09,6.93,6.93,0,0,0,2.1-4.83v-.58A7.07,7.07,0,0,0,291.11,213ZM292.5,66a6.39,6.39,0,0,0-9.42,0,7.1,7.1,0,0,0-1.95,5,7.18,7.18,0,0,0,1.95,5.07,6.33,6.33,0,0,0,9.42,0,7.22,7.22,0,0,0,1.95-5.09A7.07,7.07,0,0,0,292.5,66Zm-24,147a6.33,6.33,0,0,0-9.45,0,7.49,7.49,0,0,0,0,10.17,6.33,6.33,0,0,0,9.45,0,7.49,7.49,0,0,0,0-10.17Zm-6.75,160.56a6.74,6.74,0,0,0-8.79,0,7.14,7.14,0,0,0-2.41,4.18H264A6.89,6.89,0,0,0,261.71,373.62ZM242,65.62A6.47,6.47,0,0,0,237.56,64a6.58,6.58,0,0,0-4.4,1.62,7.19,7.19,0,0,0-2.41,4.18h13.54A6.86,6.86,0,0,0,242,65.62Zm-24.18-6A10.74,10.74,0,0,0,210,56.35h-3.87v22H210a11,11,0,0,0,7.77-18.71Zm0,0A10.74,10.74,0,0,0,210,56.35h-3.87v22H210a11,11,0,0,0,7.77-18.71Zm24.18,6A6.47,6.47,0,0,0,237.56,64a6.58,6.58,0,0,0-4.4,1.62,7.19,7.19,0,0,0-2.41,4.18h13.54A6.86,6.86,0,0,0,242,65.62Zm19.76,308a6.74,6.74,0,0,0-8.79,0,7.14,7.14,0,0,0-2.41,4.18H264A6.89,6.89,0,0,0,261.71,373.62ZM371.55,66a6.38,6.38,0,0,0-9.41,0,7.1,7.1,0,0,0-1.95,5,7.18,7.18,0,0,0,1.95,5.07,6.32,6.32,0,0,0,9.41,0,7.22,7.22,0,0,0,1.95-5.09A7.07,7.07,0,0,0,371.55,66ZM292.5,66a6.39,6.39,0,0,0-9.42,0,7.1,7.1,0,0,0-1.95,5,7.18,7.18,0,0,0,1.95,5.07,6.33,6.33,0,0,0,9.42,0,7.22,7.22,0,0,0,1.95-5.09A7.07,7.07,0,0,0,292.5,66Zm-1.39,147a6.62,6.62,0,0,0-9.59.09,7,7,0,0,0-2,5.07,7,7,0,0,0,2,5,6.67,6.67,0,0,0,9.59.09,6.93,6.93,0,0,0,2.1-4.83v-.58A7.07,7.07,0,0,0,291.11,213Zm-22.65,0a6.33,6.33,0,0,0-9.45,0,7.49,7.49,0,0,0,0,10.17,6.33,6.33,0,0,0,9.45,0,7.49,7.49,0,0,0,0-10.17Zm79.05,0a6.38,6.38,0,0,0-9.41,0,7.1,7.1,0,0,0-2,5.05,7.18,7.18,0,0,0,2,5.07,6.32,6.32,0,0,0,9.41,0,7.22,7.22,0,0,0,1.95-5.09A7.07,7.07,0,0,0,347.51,213Zm24-147a6.38,6.38,0,0,0-9.41,0,7.1,7.1,0,0,0-1.95,5,7.18,7.18,0,0,0,1.95,5.07,6.32,6.32,0,0,0,9.41,0,7.22,7.22,0,0,0,1.95-5.09A7.07,7.07,0,0,0,371.55,66Zm-24,147a6.38,6.38,0,0,0-9.41,0,7.1,7.1,0,0,0-2,5.05,7.18,7.18,0,0,0,2,5.07,6.32,6.32,0,0,0,9.41,0,7.22,7.22,0,0,0,1.95-5.09A7.07,7.07,0,0,0,347.51,213Zm-56.4,0a6.62,6.62,0,0,0-9.59.09,7,7,0,0,0-2,5.07,7,7,0,0,0,2,5,6.67,6.67,0,0,0,9.59.09,6.93,6.93,0,0,0,2.1-4.83v-.58A7.07,7.07,0,0,0,291.11,213ZM292.5,66a6.39,6.39,0,0,0-9.42,0,7.1,7.1,0,0,0-1.95,5,7.18,7.18,0,0,0,1.95,5.07,6.33,6.33,0,0,0,9.42,0,7.22,7.22,0,0,0,1.95-5.09A7.07,7.07,0,0,0,292.5,66Zm-24,147a6.33,6.33,0,0,0-9.45,0,7.49,7.49,0,0,0,0,10.17,6.33,6.33,0,0,0,9.45,0,7.49,7.49,0,0,0,0-10.17Zm-6.75,160.56a6.74,6.74,0,0,0-8.79,0,7.14,7.14,0,0,0-2.41,4.18H264A6.89,6.89,0,0,0,261.71,373.62ZM242,65.62A6.47,6.47,0,0,0,237.56,64a6.58,6.58,0,0,0-4.4,1.62,7.19,7.19,0,0,0-2.41,4.18h13.54A6.86,6.86,0,0,0,242,65.62Zm-24.18-6A10.74,10.74,0,0,0,210,56.35h-3.87v22H210a11,11,0,0,0,7.77-18.71Zm0,0A10.74,10.74,0,0,0,210,56.35h-3.87v22H210a11,11,0,0,0,7.77-18.71Zm24.18,6A6.47,6.47,0,0,0,237.56,64a6.58,6.58,0,0,0-4.4,1.62,7.19,7.19,0,0,0-2.41,4.18h13.54A6.86,6.86,0,0,0,242,65.62Zm19.76,308a6.74,6.74,0,0,0-8.79,0,7.14,7.14,0,0,0-2.41,4.18H264A6.89,6.89,0,0,0,261.71,373.62ZM371.55,66a6.38,6.38,0,0,0-9.41,0,7.1,7.1,0,0,0-1.95,5,7.18,7.18,0,0,0,1.95,5.07,6.32,6.32,0,0,0,9.41,0,7.22,7.22,0,0,0,1.95-5.09A7.07,7.07,0,0,0,371.55,66ZM292.5,66a6.39,6.39,0,0,0-9.42,0,7.1,7.1,0,0,0-1.95,5,7.18,7.18,0,0,0,1.95,5.07,6.33,6.33,0,0,0,9.42,0,7.22,7.22,0,0,0,1.95-5.09A7.07,7.07,0,0,0,292.5,66Zm-1.39,147a6.62,6.62,0,0,0-9.59.09,7,7,0,0,0-2,5.07,7,7,0,0,0,2,5,6.67,6.67,0,0,0,9.59.09,6.93,6.93,0,0,0,2.1-4.83v-.58A7.07,7.07,0,0,0,291.11,213Zm-22.65,0a6.33,6.33,0,0,0-9.45,0,7.49,7.49,0,0,0,0,10.17,6.33,6.33,0,0,0,9.45,0,7.49,7.49,0,0,0,0-10.17Zm79.05,0a6.38,6.38,0,0,0-9.41,0,7.1,7.1,0,0,0-2,5.05,7.18,7.18,0,0,0,2,5.07,6.32,6.32,0,0,0,9.41,0,7.22,7.22,0,0,0,1.95-5.09A7.07,7.07,0,0,0,347.51,213Zm24-147a6.38,6.38,0,0,0-9.41,0,7.1,7.1,0,0,0-1.95,5,7.18,7.18,0,0,0,1.95,5.07,6.32,6.32,0,0,0,9.41,0,7.22,7.22,0,0,0,1.95-5.09A7.07,7.07,0,0,0,371.55,66Zm-24,147a6.38,6.38,0,0,0-9.41,0,7.1,7.1,0,0,0-2,5.05,7.18,7.18,0,0,0,2,5.07,6.32,6.32,0,0,0,9.41,0,7.22,7.22,0,0,0,1.95-5.09A7.07,7.07,0,0,0,347.51,213Zm-56.4,0a6.62,6.62,0,0,0-9.59.09,7,7,0,0,0-2,5.07,7,7,0,0,0,2,5,6.67,6.67,0,0,0,9.59.09,6.93,6.93,0,0,0,2.1-4.83v-.58A7.07,7.07,0,0,0,291.11,213ZM292.5,66a6.39,6.39,0,0,0-9.42,0,7.1,7.1,0,0,0-1.95,5,7.18,7.18,0,0,0,1.95,5.07,6.33,6.33,0,0,0,9.42,0,7.22,7.22,0,0,0,1.95-5.09A7.07,7.07,0,0,0,292.5,66Zm-24,147a6.33,6.33,0,0,0-9.45,0,7.49,7.49,0,0,0,0,10.17,6.33,6.33,0,0,0,9.45,0,7.49,7.49,0,0,0,0-10.17Zm-6.75,160.56a6.74,6.74,0,0,0-8.79,0,7.14,7.14,0,0,0-2.41,4.18H264A6.89,6.89,0,0,0,261.71,373.62ZM242,65.62A6.47,6.47,0,0,0,237.56,64a6.58,6.58,0,0,0-4.4,1.62,7.19,7.19,0,0,0-2.41,4.18h13.54A6.86,6.86,0,0,0,242,65.62Zm-24.18-6A10.74,10.74,0,0,0,210,56.35h-3.87v22H210a11,11,0,0,0,7.77-18.71Zm0,0A10.74,10.74,0,0,0,210,56.35h-3.87v22H210a11,11,0,0,0,7.77-18.71Zm24.18,6A6.47,6.47,0,0,0,237.56,64a6.58,6.58,0,0,0-4.4,1.62,7.19,7.19,0,0,0-2.41,4.18h13.54A6.86,6.86,0,0,0,242,65.62Zm129.6.42a6.38,6.38,0,0,0-9.41,0,7.1,7.1,0,0,0-1.95,5,7.18,7.18,0,0,0,1.95,5.07,6.32,6.32,0,0,0,9.41,0,7.22,7.22,0,0,0,1.95-5.09A7.07,7.07,0,0,0,371.55,66ZM292.5,66a6.39,6.39,0,0,0-9.42,0,7.1,7.1,0,0,0-1.95,5,7.18,7.18,0,0,0,1.95,5.07,6.33,6.33,0,0,0,9.42,0,7.22,7.22,0,0,0,1.95-5.09A7.07,7.07,0,0,0,292.5,66Zm-1.39,147a6.62,6.62,0,0,0-9.59.09,7,7,0,0,0-2,5.07,7,7,0,0,0,2,5,6.67,6.67,0,0,0,9.59.09,6.93,6.93,0,0,0,2.1-4.83v-.58A7.07,7.07,0,0,0,291.11,213Zm-22.65,0a6.33,6.33,0,0,0-9.45,0,7.49,7.49,0,0,0,0,10.17,6.33,6.33,0,0,0,9.45,0,7.49,7.49,0,0,0,0-10.17Zm79.05,0a6.38,6.38,0,0,0-9.41,0,7.1,7.1,0,0,0-2,5.05,7.18,7.18,0,0,0,2,5.07,6.32,6.32,0,0,0,9.41,0,7.22,7.22,0,0,0,1.95-5.09A7.07,7.07,0,0,0,347.51,213Zm24-147a6.38,6.38,0,0,0-9.41,0,7.1,7.1,0,0,0-1.95,5,7.18,7.18,0,0,0,1.95,5.07,6.32,6.32,0,0,0,9.41,0,7.22,7.22,0,0,0,1.95-5.09A7.07,7.07,0,0,0,371.55,66Zm-24,147a6.38,6.38,0,0,0-9.41,0,7.1,7.1,0,0,0-2,5.05,7.18,7.18,0,0,0,2,5.07,6.32,6.32,0,0,0,9.41,0,7.22,7.22,0,0,0,1.95-5.09A7.07,7.07,0,0,0,347.51,213Zm-56.4,0a6.62,6.62,0,0,0-9.59.09,7,7,0,0,0-2,5.07,7,7,0,0,0,2,5,6.67,6.67,0,0,0,9.59.09,6.93,6.93,0,0,0,2.1-4.83v-.58A7.07,7.07,0,0,0,291.11,213ZM292.5,66a6.39,6.39,0,0,0-9.42,0,7.1,7.1,0,0,0-1.95,5,7.18,7.18,0,0,0,1.95,5.07,6.33,6.33,0,0,0,9.42,0,7.22,7.22,0,0,0,1.95-5.09A7.07,7.07,0,0,0,292.5,66Zm-24,147a6.33,6.33,0,0,0-9.45,0,7.49,7.49,0,0,0,0,10.17,6.33,6.33,0,0,0,9.45,0,7.49,7.49,0,0,0,0-10.17ZM242,65.62A6.47,6.47,0,0,0,237.56,64a6.58,6.58,0,0,0-4.4,1.62,7.19,7.19,0,0,0-2.41,4.18h13.54A6.86,6.86,0,0,0,242,65.62Zm-24.18-6A10.74,10.74,0,0,0,210,56.35h-3.87v22H210a11,11,0,0,0,7.77-18.71Zm0,0A10.74,10.74,0,0,0,210,56.35h-3.87v22H210a11,11,0,0,0,7.77-18.71Zm24.18,6A6.47,6.47,0,0,0,237.56,64a6.58,6.58,0,0,0-4.4,1.62,7.19,7.19,0,0,0-2.41,4.18h13.54A6.86,6.86,0,0,0,242,65.62Zm129.6.42a6.38,6.38,0,0,0-9.41,0,7.1,7.1,0,0,0-1.95,5,7.18,7.18,0,0,0,1.95,5.07,6.32,6.32,0,0,0,9.41,0,7.22,7.22,0,0,0,1.95-5.09A7.07,7.07,0,0,0,371.55,66ZM292.5,66a6.39,6.39,0,0,0-9.42,0,7.1,7.1,0,0,0-1.95,5,7.18,7.18,0,0,0,1.95,5.07,6.33,6.33,0,0,0,9.42,0,7.22,7.22,0,0,0,1.95-5.09A7.07,7.07,0,0,0,292.5,66Zm-1.39,147a6.62,6.62,0,0,0-9.59.09,7,7,0,0,0-2,5.07,7,7,0,0,0,2,5,6.67,6.67,0,0,0,9.59.09,6.93,6.93,0,0,0,2.1-4.83v-.58A7.07,7.07,0,0,0,291.11,213Zm-22.65,0a6.33,6.33,0,0,0-9.45,0,7.49,7.49,0,0,0,0,10.17,6.33,6.33,0,0,0,9.45,0,7.49,7.49,0,0,0,0-10.17ZM371.55,66a6.38,6.38,0,0,0-9.41,0,7.1,7.1,0,0,0-1.95,5,7.18,7.18,0,0,0,1.95,5.07,6.32,6.32,0,0,0,9.41,0,7.22,7.22,0,0,0,1.95-5.09A7.07,7.07,0,0,0,371.55,66ZM291.11,213a6.62,6.62,0,0,0-9.59.09,7,7,0,0,0-2,5.07,7,7,0,0,0,2,5,6.67,6.67,0,0,0,9.59.09,6.93,6.93,0,0,0,2.1-4.83v-.58A7.07,7.07,0,0,0,291.11,213ZM292.5,66a6.39,6.39,0,0,0-9.42,0,7.1,7.1,0,0,0-1.95,5,7.18,7.18,0,0,0,1.95,5.07,6.33,6.33,0,0,0,9.42,0,7.22,7.22,0,0,0,1.95-5.09A7.07,7.07,0,0,0,292.5,66Zm-24,147a6.33,6.33,0,0,0-9.45,0,7.49,7.49,0,0,0,0,10.17,6.33,6.33,0,0,0,9.45,0,7.49,7.49,0,0,0,0-10.17ZM242,65.62A6.47,6.47,0,0,0,237.56,64a6.58,6.58,0,0,0-4.4,1.62,7.19,7.19,0,0,0-2.41,4.18h13.54A6.86,6.86,0,0,0,242,65.62Zm-24.18-6A10.74,10.74,0,0,0,210,56.35h-3.87v22H210a11,11,0,0,0,7.77-18.71Zm0,0A10.74,10.74,0,0,0,210,56.35h-3.87v22H210a11,11,0,0,0,7.77-18.71Zm24.18,6A6.47,6.47,0,0,0,237.56,64a6.58,6.58,0,0,0-4.4,1.62,7.19,7.19,0,0,0-2.41,4.18h13.54A6.86,6.86,0,0,0,242,65.62Zm129.6.42a6.38,6.38,0,0,0-9.41,0,7.1,7.1,0,0,0-1.95,5,7.18,7.18,0,0,0,1.95,5.07,6.32,6.32,0,0,0,9.41,0,7.22,7.22,0,0,0,1.95-5.09A7.07,7.07,0,0,0,371.55,66ZM292.5,66a6.39,6.39,0,0,0-9.42,0,7.1,7.1,0,0,0-1.95,5,7.18,7.18,0,0,0,1.95,5.07,6.33,6.33,0,0,0,9.42,0,7.22,7.22,0,0,0,1.95-5.09A7.07,7.07,0,0,0,292.5,66Zm-1.39,147a6.62,6.62,0,0,0-9.59.09,7,7,0,0,0-2,5.07,7,7,0,0,0,2,5,6.67,6.67,0,0,0,9.59.09,6.93,6.93,0,0,0,2.1-4.83v-.58A7.07,7.07,0,0,0,291.11,213Zm-22.65,0a6.33,6.33,0,0,0-9.45,0,7.49,7.49,0,0,0,0,10.17,6.33,6.33,0,0,0,9.45,0,7.49,7.49,0,0,0,0-10.17ZM371.55,66a6.38,6.38,0,0,0-9.41,0,7.1,7.1,0,0,0-1.95,5,7.18,7.18,0,0,0,1.95,5.07,6.32,6.32,0,0,0,9.41,0,7.22,7.22,0,0,0,1.95-5.09A7.07,7.07,0,0,0,371.55,66ZM291.11,213a6.62,6.62,0,0,0-9.59.09,7,7,0,0,0-2,5.07,7,7,0,0,0,2,5,6.67,6.67,0,0,0,9.59.09,6.93,6.93,0,0,0,2.1-4.83v-.58A7.07,7.07,0,0,0,291.11,213ZM292.5,66a6.39,6.39,0,0,0-9.42,0,7.1,7.1,0,0,0-1.95,5,7.18,7.18,0,0,0,1.95,5.07,6.33,6.33,0,0,0,9.42,0,7.22,7.22,0,0,0,1.95-5.09A7.07,7.07,0,0,0,292.5,66Zm-24,147a6.33,6.33,0,0,0-9.45,0,7.49,7.49,0,0,0,0,10.17,6.33,6.33,0,0,0,9.45,0,7.49,7.49,0,0,0,0-10.17ZM242,65.62A6.47,6.47,0,0,0,237.56,64a6.58,6.58,0,0,0-4.4,1.62,7.19,7.19,0,0,0-2.41,4.18h13.54A6.86,6.86,0,0,0,242,65.62Zm-24.18-6A10.74,10.74,0,0,0,210,56.35h-3.87v22H210a11,11,0,0,0,7.77-18.71Zm0,0A10.74,10.74,0,0,0,210,56.35h-3.87v22H210a11,11,0,0,0,7.77-18.71Zm24.18,6A6.47,6.47,0,0,0,237.56,64a6.58,6.58,0,0,0-4.4,1.62,7.19,7.19,0,0,0-2.41,4.18h13.54A6.86,6.86,0,0,0,242,65.62Zm129.6.42a6.38,6.38,0,0,0-9.41,0,7.1,7.1,0,0,0-1.95,5,7.18,7.18,0,0,0,1.95,5.07,6.32,6.32,0,0,0,9.41,0,7.22,7.22,0,0,0,1.95-5.09A7.07,7.07,0,0,0,371.55,66ZM292.5,66a6.39,6.39,0,0,0-9.42,0,7.1,7.1,0,0,0-1.95,5,7.18,7.18,0,0,0,1.95,5.07,6.33,6.33,0,0,0,9.42,0,7.22,7.22,0,0,0,1.95-5.09A7.07,7.07,0,0,0,292.5,66Zm79.05,0a6.38,6.38,0,0,0-9.41,0,7.1,7.1,0,0,0-1.95,5,7.18,7.18,0,0,0,1.95,5.07,6.32,6.32,0,0,0,9.41,0,7.22,7.22,0,0,0,1.95-5.09A7.07,7.07,0,0,0,371.55,66ZM292.5,66a6.39,6.39,0,0,0-9.42,0,7.1,7.1,0,0,0-1.95,5,7.18,7.18,0,0,0,1.95,5.07,6.33,6.33,0,0,0,9.42,0,7.22,7.22,0,0,0,1.95-5.09A7.07,7.07,0,0,0,292.5,66ZM242,65.62A6.47,6.47,0,0,0,237.56,64a6.58,6.58,0,0,0-4.4,1.62,7.19,7.19,0,0,0-2.41,4.18h13.54A6.86,6.86,0,0,0,242,65.62Zm-24.18-6A10.74,10.74,0,0,0,210,56.35h-3.87v22H210a11,11,0,0,0,7.77-18.71Zm24.18,6A6.47,6.47,0,0,0,237.56,64a6.58,6.58,0,0,0-4.4,1.62,7.19,7.19,0,0,0-2.41,4.18h13.54A6.86,6.86,0,0,0,242,65.62Zm129.6.42a6.38,6.38,0,0,0-9.41,0,7.1,7.1,0,0,0-1.95,5,7.18,7.18,0,0,0,1.95,5.07,6.32,6.32,0,0,0,9.41,0,7.22,7.22,0,0,0,1.95-5.09A7.07,7.07,0,0,0,371.55,66ZM292.5,66a6.39,6.39,0,0,0-9.42,0,7.1,7.1,0,0,0-1.95,5,7.18,7.18,0,0,0,1.95,5.07,6.33,6.33,0,0,0,9.42,0,7.22,7.22,0,0,0,1.95-5.09A7.07,7.07,0,0,0,292.5,66Zm79.05,0a6.38,6.38,0,0,0-9.41,0,7.1,7.1,0,0,0-1.95,5,7.18,7.18,0,0,0,1.95,5.07,6.32,6.32,0,0,0,9.41,0,7.22,7.22,0,0,0,1.95-5.09A7.07,7.07,0,0,0,371.55,66ZM292.5,66a6.39,6.39,0,0,0-9.42,0,7.1,7.1,0,0,0-1.95,5,7.18,7.18,0,0,0,1.95,5.07,6.33,6.33,0,0,0,9.42,0,7.22,7.22,0,0,0,1.95-5.09A7.07,7.07,0,0,0,292.5,66ZM242,65.62A6.47,6.47,0,0,0,237.56,64a6.58,6.58,0,0,0-4.4,1.62,7.19,7.19,0,0,0-2.41,4.18h13.54A6.86,6.86,0,0,0,242,65.62Zm129.6.42a6.38,6.38,0,0,0-9.41,0,7.1,7.1,0,0,0-1.95,5,7.18,7.18,0,0,0,1.95,5.07,6.32,6.32,0,0,0,9.41,0,7.22,7.22,0,0,0,1.95-5.09A7.07,7.07,0,0,0,371.55,66ZM292.5,66a6.39,6.39,0,0,0-9.42,0,7.1,7.1,0,0,0-1.95,5,7.18,7.18,0,0,0,1.95,5.07,6.33,6.33,0,0,0,9.42,0,7.22,7.22,0,0,0,1.95-5.09A7.07,7.07,0,0,0,292.5,66Zm79.05,0a6.38,6.38,0,0,0-9.41,0,7.1,7.1,0,0,0-1.95,5,7.18,7.18,0,0,0,1.95,5.07,6.32,6.32,0,0,0,9.41,0,7.22,7.22,0,0,0,1.95-5.09A7.07,7.07,0,0,0,371.55,66ZM292.5,66a6.39,6.39,0,0,0-9.42,0,7.1,7.1,0,0,0-1.95,5,7.18,7.18,0,0,0,1.95,5.07,6.33,6.33,0,0,0,9.42,0,7.22,7.22,0,0,0,1.95-5.09A7.07,7.07,0,0,0,292.5,66Zm79.05,0a6.38,6.38,0,0,0-9.41,0,7.1,7.1,0,0,0-1.95,5,7.18,7.18,0,0,0,1.95,5.07,6.32,6.32,0,0,0,9.41,0,7.22,7.22,0,0,0,1.95-5.09A7.07,7.07,0,0,0,371.55,66ZM292.5,66a6.39,6.39,0,0,0-9.42,0,7.1,7.1,0,0,0-1.95,5,7.18,7.18,0,0,0,1.95,5.07,6.33,6.33,0,0,0,9.42,0,7.22,7.22,0,0,0,1.95-5.09A7.07,7.07,0,0,0,292.5,66Zm79.05,0a6.38,6.38,0,0,0-9.41,0,7.1,7.1,0,0,0-1.95,5,7.18,7.18,0,0,0,1.95,5.07,6.32,6.32,0,0,0,9.41,0,7.22,7.22,0,0,0,1.95-5.09A7.07,7.07,0,0,0,371.55,66ZM292.5,66a6.39,6.39,0,0,0-9.42,0,7.1,7.1,0,0,0-1.95,5,7.18,7.18,0,0,0,1.95,5.07,6.33,6.33,0,0,0,9.42,0,7.22,7.22,0,0,0,1.95-5.09A7.07,7.07,0,0,0,292.5,66Zm79.05,0a6.38,6.38,0,0,0-9.41,0,7.1,7.1,0,0,0-1.95,5,7.18,7.18,0,0,0,1.95,5.07,6.32,6.32,0,0,0,9.41,0,7.22,7.22,0,0,0,1.95-5.09A7.07,7.07,0,0,0,371.55,66Zm0,0a6.38,6.38,0,0,0-9.41,0,7.1,7.1,0,0,0-1.95,5,7.18,7.18,0,0,0,1.95,5.07,6.32,6.32,0,0,0,9.41,0,7.22,7.22,0,0,0,1.95-5.09A7.07,7.07,0,0,0,371.55,66Zm0,0a6.38,6.38,0,0,0-9.41,0,7.1,7.1,0,0,0-1.95,5,7.18,7.18,0,0,0,1.95,5.07,6.32,6.32,0,0,0,9.41,0,7.22,7.22,0,0,0,1.95-5.09A7.07,7.07,0,0,0,371.55,66Zm0,0a6.38,6.38,0,0,0-9.41,0,7.1,7.1,0,0,0-1.95,5,7.18,7.18,0,0,0,1.95,5.07,6.32,6.32,0,0,0,9.41,0,7.22,7.22,0,0,0,1.95-5.09A7.07,7.07,0,0,0,371.55,66Z"/></g></g></svg>