<svg xmlns="http://www.w3.org/2000/svg" width="841.14" height="614.273" viewBox="0 0 841.14 614.273"><path d="M1527.994,2841.389a.022.022,0,0,1,.013.009h.011Zm-493.4,89.339a24.309,24.309,0,0,0,1.783,4.719Z" transform="translate(-850.167 -2334.892)" fill="#1abc9c"/><path d="M1046.9,1475.928l-.273.071c-.068.018-.136.036-.2.057s-.159.045-.237.069-.178.055-.266.086c-.12.039-.237.08-.357.123h-.01c-.232.086-.462.178-.688.274s-.456.205-.679.317l-2.882,1.973a13,13,0,0,0-2.382,16.416l.763,1.116,7.325,10.71V1475.9Z" transform="translate(-852.162 -1212.811)" fill="#1abc9c"/><path d="M841.138,549.744h-69a13,13,0,0,0-2.776-1.237,98.943,98.943,0,0,0-10.33-2.455c-9.918-2.045-23.5-4.845-37.571-11.587a121.73,121.73,0,0,1-31.329-21.983,3.17,3.17,0,0,0,.02-1.139c7.645-5.818,13.758-10.842,15.523-12.774a7.42,7.42,0,0,0,1.961-3.743,6.868,6.868,0,0,0-.207-3.105v-.027c-.553-1.909-1.783-10.084-3.642-24.3q.572-1.348,1.26-2.936c2.266-5.218,4.243-9.5,5.645-12.478a15.863,15.863,0,0,0,2.556.535s1.112.119,2.257.119a21.252,21.252,0,1,0-9.9-2.453q-1.233,3.043-2.581,6.169-.963,2.226-1.936,4.383a3.138,3.138,0,0,1-1.31.959c-.429.045-1.069.1-1.834.123a29.11,29.11,0,0,1-9.886-1.6c-7.487-2.217-11.216-3.324-12.954-4.071a65.641,65.641,0,0,1-8.526-4.426q-3.634-7.407-7.635-15.032-6.061-11.53-12.2-22.1a6.6,6.6,0,0,0,.462-5.269,5.8,5.8,0,0,0-4.829-3.993c-10.118-31.689-51.586-158.975-123.307-378.5a37.444,37.444,0,0,0-71.807-.005L414.281,80.141H208.323a24.735,24.735,0,0,0-24.706,24.708V241.14a8.891,8.891,0,0,0-9.5,7.219l-2.139,11.367-2.415.5c-16.273,3.344-27.024,5.553-28.282,5.859h-.036a4.291,4.291,0,0,1-1.865.075,3.541,3.541,0,0,1-.67-.207c-1.3-.549-9.435-4.711-14.389-7.266q1.914-2.7,3.813-5.407h0a5.447,5.447,0,0,1,2.349-.586h.016a20.781,20.781,0,1,0-6.36-3.642,4.991,4.991,0,0,1,.487,1.407,5.061,5.061,0,0,1,0,1.615,269.71,269.71,0,0,0-16.934,22.168c-3.127,4.567-5.986,9.047-8.6,13.4l-.075.1-.059.111a8.606,8.606,0,0,0-1.043,5.661c.4,2.225,1.75,3.733,3.508,5.374,4.834,4.517,8.253,5.813,14.232,10.291,5.068,3.8,5.455,4.991,5.585,5.7.579,3.159-2.414,4.9-6.535,11.23-3.446,5.292-2.674,6.091-6.478,12.715a84.177,84.177,0,0,1-8.145,11.7c-.389.26-.827.651-.827,1.1s.357.84.982,1.194H97.273c-1.446,0-2.617.7-2.617,1.56v6.774c0,.713.8,1.31,1.884,1.5L0,614.273l75.722-.649,23.731-63.076,33.965-90.278,33.965,90.28,17.038,45.277h0l1.783,4.718h0l4.915,13.065,12.023.1h.009a24.757,24.757,0,0,0,5.169.546H495.654A24.736,24.736,0,0,0,520.36,589.55v-38.2H624.4l-3.018,9.35a31.265,31.265,0,0,0-8.289-1.014c-7.025,0-12.722,1.881-12.722,4.2s5.7,4.2,12.722,4.2c6.239,0,11.446-1.487,12.521-3.446l.032-.062.155-.474a.023.023,0,0,1,0-.011l4.111-12.738h71.271l3.26,2.882c-.31,0-.622-.011-.938-.011-7.027,0-12.722,1.879-12.722,4.2s5.7,4.2,12.722,4.2,12.722-1.879,12.722-4.2a2.067,2.067,0,0,0-.87-1.528h0l-6.255-5.54h59.741c2.369.854,2.447,1.455,2.447,1.524s-.075.959-3.03,2.424a71.267,71.267,0,0,1-7.879,3.045c-5.882,2.029-9.776,3.367-9.394,5.956.287,1.943,2.841,2.348,4.07,2.544,1.843.292,4.4.462,7.64.677a186.758,186.758,0,0,1,29.5,3.845,142.957,142.957,0,0,1,18,5.3l.984-2.674a145.8,145.8,0,0,0-18.36-5.4,189,189,0,0,0-29.937-3.907,64.881,64.881,0,0,1-8.556-.873,50.015,50.015,0,0,1,6.979-2.761c6.622-2.282,12.877-4.435,12.835-8.2a3.106,3.106,0,0,0-.39-1.494H841.14ZM124.261,262.572a.43.43,0,0,1,.535.089c7,3.05,12.121,5.253,12.949,5.6a5.939,5.939,0,0,0,1.146.357,6.373,6.373,0,0,0,1.235.121,7.006,7.006,0,0,0,1.718-.221h.029c1.214-.3,12.53-2.622,28.193-5.84l1.426-.291-2.415,12.865-.756.28c-15.088,5.579-25.988,9.61-27.9,10.43l-.025.011a2.982,2.982,0,0,1-1.783.26,2.69,2.69,0,0,1-1.234-.67,71.582,71.582,0,0,1-13.191-22.355.435.435,0,0,1,.073-.635Zm-5.986,65.985c4.071-6.253,6.287-9.385,5.822-13.608-.681-6.184-6.62-10.26-9.448-11.943l-9.121-6.922a53.919,53.919,0,0,0,5.369.522c1.029.048,2.08.029,3.136.016,11.193,2.267,18.573,3.759,20.414,4.066h.027a3.238,3.238,0,0,1,1.936.9,2.376,2.376,0,0,1,.494,1.107v.041a59.181,59.181,0,0,0,2.642,12.02c2.105,6.337,4.619,10.262,6.893,14.38a119.807,119.807,0,0,1,9.161,21.405l.034-.012a.906.906,0,0,0-.164.5c0,.7.939,1.339,2.453,1.783h-43.48c.626-.357.982-.761.982-1.194,0-1.38-3.619-2.5-8.082-2.5-.66,0-1.3.025-1.914.071C110.817,340.158,115.28,333.162,118.275,328.557Zm15.152,38.035,28.209.232-4.563,12.121h-47.3l-4.563-12.121Zm37.719,16.4,5.788,15.079H156.82l5.674-15.079Zm-7.13-4.041,2.758-7.333,2.816,7.333Zm-47.049,19.122-5.672-15.079h44.249l-5.674,15.079Zm31.384,4.041-6.439,17.113H124.926l-6.439-17.113ZM70.274,609.638l-61.737.535,91.528-238.552,29.885,79.415ZM132.98,440.651l-6.54-17.384h13.945l-6.533,17.384ZM183.6,575.22,180.36,566.6H183.6Zm0-12.665H178.84l-4.5-12.006-1.717-4.565h11Zm0-20.612H171.1l-6.44-17.113h18.959Zm0-21.152H163.137l-5.67-15.077h26.15Zm0-19.12H155.946l-6.285-16.706h33.956Zm0-20.747H148.131l-6.44-17.113h41.917Zm0-21.154H140.179l-3.285-8.735,2.387-6.344h44.336Zm0-19.12H140.8l6.54-17.384h36.275Zm0-21.425h-34.76l6.439-17.113h23.173l5.143,13.4Zm0-21.84-13.423-35.015a1.438,1.438,0,0,0,.939-1.2V354.4c0-.747-.891-1.373-2.062-1.524,1.585-.455,2.574-1.1,2.574-1.825,0-1.378-3.619-2.5-8.08-2.5a22.139,22.139,0,0,0-4.726.471c-14.781-36.514-18.182-45.689-18.421-46.949v-.021a5.859,5.859,0,0,0-1.278-2.752,6.632,6.632,0,0,0-4.071-2.118h-.025c-1.374-.23-6.292-1.214-13.419-2.654q-3.79-.995-7.579-1.993-2.749-.725-5.494-1.463c-.93-.251-1.872-.476-2.79-.768a3.16,3.16,0,0,1-1.455-.838c.087-.235.178-.462.267-.681,1.292-3.112,3.5-5.751,5.005-8.752.356-.692.676-1.4,1.014-2.1q2.649-3.658,5.3-7.371,1.793-2.513,3.565-5.02a1.132,1.132,0,0,1,.98-.578,1.2,1.2,0,0,1,.98.556c1.355,2.868,2.948,5.911,4.825,9.064a107.459,107.459,0,0,0,9.03,12.908l.1.105A5.542,5.542,0,0,0,138,289.024a5.2,5.2,0,0,0,1.07.111,6.087,6.087,0,0,0,2.439-.535l.021-.009c1.811-.777,12.312-4.661,26.917-10.061L162.7,309.158a8.891,8.891,0,0,0,7.1,10.378l13.81,2.592Zm517.978,75.249c1.556,11.628,2.544,17.979,3.08,19.838l.011.032a4.067,4.067,0,0,1,.132,1.827,4.737,4.737,0,0,1-1.248,2.317c-1.346,1.474-6.567,5.9-15.015,12.328a2.863,2.863,0,0,0-2.212-.357q-.891-.947-1.765-1.931v-.011c.843-2.615,1.226-5.348,2.107-7.956v-.011a17.524,17.524,0,0,1,2.9-5.321c1.184-1.513,3.364-4.909,7.724-11.7,1.929-2.989,2.383-4.335,4.3-9.054Zm-37.559-18.557a68.278,68.278,0,0,0,13.458,7.041c.66.232,2.4.816,4.456,1.456,3.458,1.07,5.189,1.6,6.6,1.872,2.519.478,5,1.194,7.553,1.471.419.045,1.62.164,2.005.936a1.6,1.6,0,0,1,.03,1.128c-2.244,8.442-8.784,15.927-8.784,15.927a128.682,128.682,0,0,0-11.175,14.9c-1.661-2.26-3.268-4.635-4.8-7.13-4.783-7.8-11.007-26.314-22.309-59.917l-1.337-3.98Zm14.72,52.764h0l-.029-.023Zm-.907-.335h-.011a.021.021,0,0,0-.012-.009ZM483.158,9.03a28.4,28.4,0,1,1-28.4,28.4,28.4,28.4,0,0,1,28.4-28.4ZM445.986,32.318l.027.5a37.815,37.815,0,0,0-.282,4.617,37.412,37.412,0,0,0,1,8.629l1.85,34.084H416.408Zm3.209,59.055,6.8,125.209-139.85,25.7L409.466,91.373Zm-62,228.3c-2.961-.193-7.171-.292-12.517-.3-9.679,0-23.453.3-40.937.9l-.039-1.248c18.236-.633,32.432-.936,42.193-.891,5.426.02,9.606.144,12.424.373,4.207.34,5.036.843,5.1,1.651.062.849-.809,1.321-3.586,1.936-1.97.437-4.635.877-7.726,1.39-5.041.834-10.756,1.783-15.33,3.021-6.239,1.69-7.637,3.209-7.719,4.194-.05.627.439,1.989,4.292,4.029,3.353,1.783,8.651,3.743,15.745,5.858,15.487,4.61,40.161,10.072,73.335,16.234l-.214,1.232c-85.3-15.845-94.71-23.259-94.366-27.452.335-4.1,10.635-6.123,24.065-8.346,2.686-.446,5.225-.868,7.111-1.26a19.43,19.43,0,0,0,2.765-.729A22.766,22.766,0,0,0,387.191,319.668ZM339.436,302.66a226.6,226.6,0,0,0,26.232-24.045l.3-.324.394.194a149.277,149.277,0,0,0,96.861,11.963l.235,1.228a158.4,158.4,0,0,1-29.368,3.228,149.177,149.177,0,0,1-67.855-15.1,227.887,227.887,0,0,1-26.072,23.844,224.6,224.6,0,0,1-27.733,18.5l-.581-1.1a223.386,223.386,0,0,0,27.583-18.387Zm-28.667-49.579a3.132,3.132,0,1,1,3.03-3.13,3.081,3.081,0,0,1-3.03,3.13Zm105.171,79.039a160.413,160.413,0,0,1-16.171-.13c-3.906-.319-5.558-.909-5.7-2.032-.2-1.6,2.611-2.7,10.116-5.169,2.948-.973,6-1.979,8.282-2.98,3.308-1.451,3.406-2.216,3.387-2.355-.009-.094-.207-.945-4.2-1.747a94.02,94.02,0,0,0-12.5-1.3c-9.993-.535-24.555-.6-43.283-.2l-.025-1.248c18.756-.4,33.348-.332,43.37.2,15.442.824,17.688,2.567,17.847,4.162.228,2.284-4.574,4.039-12.512,6.658-2.414.8-4.694,1.547-6.444,2.259-2.212.891-2.7,1.389-2.813,1.558.178.178,1.084.724,5.392,1.011,3.7.244,9.205.255,16.375.029,15.49-.488,39.384-2.1,71.017-4.8l.1,1.248c-32.445,2.756-56.748,4.382-72.231,4.827Zm64.194-56.2c-4.205-.253-8.462-.62-12.656-1.089-7.922-.891-15.9-2.178-23.721-3.833-5.431,3.134-11.064,6.045-16.745,8.653a202.628,202.628,0,0,1-22.423,8.722l-.357-1.2a201.42,201.42,0,0,0,22.291-8.669c5.715-2.626,11.382-5.558,16.842-8.715l.2-.112.221.045c7.852,1.668,15.865,2.968,23.828,3.861,4.169.467,8.407.832,12.592,1.086Zm-23.312-49.475a3.132,3.132,0,1,1,3.03-3.13,3.081,3.081,0,0,1-3.03,3.13Zm-269.3,57.181-.763-1.116a13,13,0,0,1,2.382-16.416l2.882-1.973c.223-.112.449-.217.679-.317s.456-.189.688-.275h.011c.118-.043.235-.084.357-.123.089-.03.178-.059.266-.086s.157-.048.237-.07.134-.039.2-.057.178-.05.273-.071l.114-.028.344-.077c.123-.025.246-.05.371-.071s.209-.037.314-.052l.13-.02a.092.092,0,0,1,.03,0c.091-.014.178-.027.275-.036s.137-.016.207-.021a.892.892,0,0,1,.119-.012h0c.112-.013.223-.021.337-.027.071,0,.144-.011.217-.012.107,0,.214-.011.323-.012s.214,0,.323,0h.344a2.792,2.792,0,0,1,.344.014c.116.014.178,0,.271.016l.178.014h.094a.518.518,0,0,1,.157.016,2.08,2.08,0,0,0,.216.025l.107.012.107.014c.2.027.4.061.6.1a12.989,12.989,0,0,1,9.982,8.786,13,13,0,0,1,19.43-.829h0l2.451,3.585h0a13,13,0,0,1-3.824,15.7l-1.316.891-23.393,16-8.735-12.777Zm7.325,278.931V545.977h38.826l6.358,16.578Zm46.737,4.041,5.786,15.079H194.849V566.6Zm-46.737-24.653V524.831h30.714l6.565,17.113Zm0-21.152V505.714h23.377l5.784,15.079Zm0-19.12V484.965h15.416l6.417,16.706Zm0-20.747V463.812h7.292l6.567,17.113Zm0-21.154V444.8L200.6,459.77Zm13.473,143.272a13.49,13.49,0,0,1-13.474-13.476v-3.85h54.074l6.647,17.327Zm300.8-13.476a13.491,13.491,0,0,1-13.474,13.476H262.528L194.849,426.657V324.215l35.737,6.706a8.891,8.891,0,0,0,10.38-7.1l11.408-60.786a8.893,8.893,0,0,0-7.1-10.38l-50.42-9.46V104.849a13.49,13.49,0,0,1,13.474-13.476h199l-93.594,151.34L302.393,244.8A9.176,9.176,0,0,0,295.2,255.44l21.469,124.678a8.923,8.923,0,0,0,10.3,7.428l163.267-30a9.168,9.168,0,0,0,7.189-10.64L475.962,222.224a8.922,8.922,0,0,0-10.3-7.426l-7.886,1.449L451,91.365h44.66a13.49,13.49,0,0,1,13.474,13.476ZM624.92,549.744H520.36V104.849a24.736,24.736,0,0,0-24.706-24.708H450.376l-1.5-27.664a37.434,37.434,0,0,0,71.593-12.148C589.557,251.814,629.61,374.771,639.6,406.044a5.632,5.632,0,0,0-1.742,6.6,5.73,5.73,0,0,0,5.169,4.005c1.51,4.6,3.078,9.269,5.348,16.022,12.225,36.348,17.826,52.746,22.582,60.5,1.615,2.635,3.314,5.141,5.071,7.521q-.927.738-1.925,1.39L638.45,511.72a2.624,2.624,0,0,0-1.813,1.725Zm5.513,0,10.756-33.334,35.416-9.578a6.6,6.6,0,0,1,.959.134,2.14,2.14,0,0,1,.688.729,2.5,2.5,0,0,1,.223.535l-3.619,18.093a2.629,2.629,0,0,0,.834,2.481l23.681,20.94Zm76.859,0L680.3,525.882l2.2-11.011.187-.936.6-3c.093-.367.194-.733.3-1.1q.43.471.866.93a3.314,3.314,0,0,0,.508,2.285,3.111,3.111,0,0,0,3.184,1.467,124.813,124.813,0,0,0,32.086,22.509c14.385,6.9,28.165,9.742,38.229,11.817q2.326.479,4.292.891Z" fill="#1abc9c"/><path d="M3509.671,3167.2l-.021.066h-.01Z" transform="translate(-2884.022 -2602.625)" fill="#1abc9c"/><path d="M3509.974,3164.54a1.6,1.6,0,0,1-.155.474Z" transform="translate(-2884.17 -2600.439)" fill="#1abc9c"/><path d="M555.52,3088.52h68.36" transform="translate(-456.495 -2537.971)" fill="#1abc9c"/><line x1="9.282" transform="translate(174.335 550.549)" fill="#fff"/><circle cx="21.747" cy="21.747" r="21.747" transform="translate(333.312 536.107)" fill="#1abc9c"/><path d="M3802.552,2841.379h-.011a.02.02,0,0,0-.013-.009Z" transform="translate(-3124.702 -2334.877)" fill="#1abc9c"/><path d="M3802.552,2841.379h-.011a.02.02,0,0,0-.013-.009Z" transform="translate(-3124.702 -2334.877)" fill="#1abc9c"/><path d="M3807.618,2843.193h0l-.028-.023Z" transform="translate(-3128.861 -2336.356)" fill="#1abc9c"/><path d="M1081.05,1478.634c.226-.1.456-.189.688-.275C1081.506,1478.445,1081.276,1478.536,1081.05,1478.634Z" transform="translate(-888.346 -1214.832)" fill="#1abc9c"/><path d="M1085.269,1493.606a12.961,12.961,0,0,1-4.794,7.863l-1.315.891-23.393,16-8.735-12.777-7.328-10.7-.763-1.116a13,13,0,0,1,2.382-16.416l2.882-1.973c.223-.112.449-.217.679-.317s.457-.189.688-.274h.011c.118-.043.235-.084.357-.123.089-.03.178-.059.266-.086s.157-.048.237-.069.134-.039.2-.057l.273-.071.114-.028.344-.077c.123-.025.246-.05.371-.071s.209-.037.314-.052l.13-.02a.1.1,0,0,1,.03,0l.275-.036c.069,0,.137-.016.207-.021l.12-.012h0l.337-.027.217-.013.323-.012h.667a2.764,2.764,0,0,1,.344.014c.116.014.178,0,.271.016l.178.014h.094a.517.517,0,0,1,.157.016l.216.025.107.012.107.014c.2.027.4.061.6.1a12.989,12.989,0,0,1,9.982,8.786,13,13,0,0,1,19.43-.829h0l2.451,3.585h0A12.937,12.937,0,0,1,1085.269,1493.606Z" transform="translate(-852.179 -1211.258)" fill="#1abc9c"/><path d="M1085.269,1493.606a12.961,12.961,0,0,1-4.794,7.863l-1.315.891-23.393,16-8.735-12.777-7.328-10.7-.763-1.116a13,13,0,0,1,2.382-16.416l2.882-1.973c.223-.112.449-.217.679-.317s.457-.189.688-.274h.011c.118-.043.235-.084.357-.123.089-.03.178-.059.266-.086s.157-.048.237-.069.134-.039.2-.057l.273-.071.114-.028.344-.077c.123-.025.246-.05.371-.071s.209-.037.314-.052l.13-.02a.1.1,0,0,1,.03,0l.275-.036c.069,0,.137-.016.207-.021l.12-.012h0l.337-.027.217-.013.323-.012h.667a2.764,2.764,0,0,1,.344.014c.116.014.178,0,.271.016l.178.014h.094a.517.517,0,0,1,.157.016l.216.025.107.012.107.014c.2.027.4.061.6.1a12.989,12.989,0,0,1,9.982,8.786,13,13,0,0,1,19.43-.829h0l2.451,3.585h0A12.937,12.937,0,0,1,1085.269,1493.606Z" transform="translate(-852.179 -1211.258)" fill="#1abc9c"/></svg>