<svg xmlns="http://www.w3.org/2000/svg" viewBox="0 0 558 171"><defs><style>.cls-1{fill:#16a085;}</style></defs><title>cloud-o-greensea</title><g id="Layer_2" data-name="Layer 2"><g id="Layer_1-2" data-name="Layer 1"><path class="cls-1" d="M467,142.5A28.51,28.51,0,0,0,438.5,114h-106a28.5,28.5,0,0,1,0-57h39a28.5,28.5,0,0,0,0-57H28.5a28.5,28.5,0,0,0,0,57h79a28.5,28.5,0,0,1,0,57h-12a28.5,28.5,0,0,0,0,57h343A28.5,28.5,0,0,0,467,142.5Z"/><circle class="cls-1" cx="529.5" cy="142.5" r="28.5"/></g></g></svg>