<svg xmlns="http://www.w3.org/2000/svg" viewBox="0 0 968.54 755.12"><defs><style>.cls-1{fill:#3498db;}.cls-2,.cls-4{fill:#2980b9;}.cls-3{fill:#34495e;}.cls-4{font-size:16.36px;font-family:Quicksand-Bold, Quicksand;font-weight:700;}.cls-5{fill:#fff;stroke:#34495e;stroke-linecap:round;stroke-linejoin:round;stroke-width:2px;}</style></defs><title>smart-energy-lg</title><g id="Layer_2" data-name="Layer 2"><g id="Layer_1-2" data-name="Layer 1"><path class="cls-1" d="M695.37,576.69a2.18,2.18,0,0,1,2-2.4l27.56-2.74h0v0l-.08-27.69a2.18,2.18,0,0,1,2.18-2.2,2.18,2.18,0,0,1,2.19,2.18l.09,29.83a2.18,2.18,0,0,1-.49,1.39h0a2.22,2.22,0,0,1-1.34.63l-29.68,3A2.19,2.19,0,0,1,695.37,576.69Z"/><path class="cls-1" d="M706.22,531.87a2.58,2.58,0,0,0-.42.11l1,.87c.24-.3.48-.6.71-.91A2.62,2.62,0,0,0,706.22,531.87Z"/><polygon class="cls-1" points="733.19 567.38 730.38 564.85 730.32 556.29 737.42 562.7 733.19 567.38"/><path class="cls-1" d="M736.09,566.6a.79.79,0,0,1,.22-.18,4.51,4.51,0,0,1,2.68-.61,3,3,0,0,1,2,.85,2.87,2.87,0,0,1,.69,2,2.63,2.63,0,0,1-.28,1.22,2.35,2.35,0,0,0-.17.51c-.11.57-.07,1.32.18,1.52s.66.05,1.09,0a3.78,3.78,0,0,0,1.61-.7.9.9,0,1,1,1.08,1.44,5.49,5.49,0,0,1-2.39,1,3,3,0,0,1-2.5-.34c-1.23-1-.91-2.91-.84-3.29a3.72,3.72,0,0,1,.29-.88,1,1,0,0,0,.13-.49,1.25,1.25,0,0,0-.22-.78,1.28,1.28,0,0,0-.86-.28,2.78,2.78,0,0,0-1.61.38.9.9,0,0,1-1.23-.33A.89.89,0,0,1,736.09,566.6Z"/><path class="cls-2" d="M647.5,618.77a2.62,2.62,0,0,1,2.93-2.28l33,4.08h0v0l7.24-32.45a2.55,2.55,0,0,1,1-1.58,2.62,2.62,0,0,1,4.07,2.72l-7.79,35a2.58,2.58,0,0,1-.94,1.49h0a2.7,2.7,0,0,1-1.73.39l-35.54-4.4A2.63,2.63,0,0,1,647.5,618.77Z"/><path class="cls-2" d="M673.83,569.77a3.29,3.29,0,0,0-1.75-.61H672a3.22,3.22,0,0,0-1.57.34l-12.25,8.64a1.35,1.35,0,0,1,1.89.33l.19.27,7.73,11a1.36,1.36,0,0,1-.32,1.89L661.43,596a1.35,1.35,0,0,1-1.88-.32L652,584.92l-.34-.48a1.35,1.35,0,0,1,.33-1.88L639.7,591.2a3.23,3.23,0,0,0-.86,1.4,3.15,3.15,0,0,0-.14,1.16,3.25,3.25,0,0,0,.12.7l14.73,20.88,28.52,3.28,6.49-28Zm-19.14,28.6-4.06,2.87a1,1,0,0,1-1.36-.23l-2.87-4.07a1,1,0,0,1,.23-1.36l4.07-2.87a1,1,0,0,1,1.36.23l2.87,4.07A1,1,0,0,1,654.69,598.37Zm21.57-15.21L672.19,586a1,1,0,0,1-1.36-.23L668,581.73a1,1,0,0,1,.24-1.36l4.07-2.87a1,1,0,0,1,1.35.24l2.87,4.07A1,1,0,0,1,676.26,583.16Z"/><polygon class="cls-2" points="694.26 617.89 691.64 614.17 693.84 604.14 700.45 613.52 694.26 617.89"/><path class="cls-2" d="M697.86,617.73a1.4,1.4,0,0,1,.3-.15,5.5,5.5,0,0,1,3.31,0,3.51,3.51,0,0,1,2.12,1.53,3.46,3.46,0,0,1,.29,2.51,3.36,3.36,0,0,1-.65,1.36,2.68,2.68,0,0,0-.34.56c-.28.62-.43,1.52-.19,1.81s.76.25,1.28.27a4.42,4.42,0,0,0,2.07-.39,1.08,1.08,0,0,1,.88,2,6.7,6.7,0,0,1-3.07.58,3.67,3.67,0,0,1-2.84-1.07c-1.18-1.45-.29-3.64-.1-4.07a4.5,4.5,0,0,1,.57-.95,1.14,1.14,0,0,0,.27-.55,1.34,1.34,0,0,0,0-1,1.51,1.51,0,0,0-.94-.55,3.3,3.3,0,0,0-2,0,1.07,1.07,0,0,1-1.35-.71A1.1,1.1,0,0,1,697.86,617.73Z"/><path class="cls-1" d="M600.81,633.64a2,2,0,0,1,2.47-1.3l23.87,7.43h0l9.69-23a2,2,0,0,1,1-1,1.94,1.94,0,0,1,1.6,0,2,2,0,0,1,1,2.58l-10.43,24.83a2,2,0,0,1-.9,1h0a2,2,0,0,1-1.33.05l-25.71-8A2,2,0,0,1,600.81,633.64Z"/><path class="cls-1" d="M872,351.91a3.83,3.83,0,0,0-3.85-3.8l-22.35.13v-1.73a3.84,3.84,0,0,0-3.85-3.81l-43.43.27,0-4.05a3.83,3.83,0,0,0-3.85-3.81l-31,.19a3.61,3.61,0,0,0-1.5.32q-1.44-11.89-3.93-23.48l-77.26,16.58a186.91,186.91,0,0,1,4,46.94c-4.24,103.19-91.33,183.41-194.52,179.17a186.09,186.09,0,0,1-105-37.61l-47.83,62.89a265.27,265.27,0,0,0,46.13,28.09c1.91.91,3.85,1.81,5.79,2.68l-9.73,40.38a1.39,1.39,0,0,0,0,.41,1.64,1.64,0,0,0,1.25,1.57l9.6,2.31a1.64,1.64,0,0,0,1.83-.82,1.68,1.68,0,0,0,.16-.39l1.44-6L413,664l2.51-10.4L433.77,669l2.51-10.39,16.68,15,2.51-10.39,12.68,14,0-.09a1.65,1.65,0,0,0,1.05.28l9.84-.82a1.65,1.65,0,0,0,1.48-1.36,1.48,1.48,0,0,0,0-.42l-.51-6.15,23,8.8-.9-10.66,22.21,8.86-.9-10.65L544,674l-.9-10.66,16.47,9.35-3.77-45a265,265,0,0,0,41.88-13l8,17.25,20.67,6.23L635,618.32l-8.11-17.41-.1-.1q6.07-3.37,12-7a3.15,3.15,0,0,1,.14-1.16,3.23,3.23,0,0,1,.86-1.4L652,582.56a1.35,1.35,0,0,0-.33,1.88l.34.48q4.23-3,8.33-6.18l-.19-.27a1.35,1.35,0,0,0-1.89-.33l12.25-8.64a3.22,3.22,0,0,1,1.57-.34q5.52-4.77,10.78-9.86l1-.93c0,.07.06.12.08.16l2,1.77,13.84,12.49,23.77-2.58.14-23.91-13.79-12.45-2-1.81-.28-.1c-.23.31-.47.61-.71.91l-1-.87a2.58,2.58,0,0,1,.42-.11,2.62,2.62,0,0,1,1.26.07,264.36,264.36,0,0,0,31.73-51.64l28.06,10.54a3.83,3.83,0,0,0,4.93-2.23l1.42-3.79,40.66,15.27a3.83,3.83,0,0,0,4.93-2.24l.61-1.62,20.92,7.86a3.83,3.83,0,0,0,4.93-2.23l3.74-10a3.83,3.83,0,0,0-2.24-4.93l-20.92-7.86.61-1.62a3.83,3.83,0,0,0-2.23-4.93L784,457.28l1.42-3.79a3.83,3.83,0,0,0-.57-3.72l-20.15-3.21.55.21a.86.86,0,0,1,.5,1.11l-.61,1.63A.86.86,0,0,1,764,450l-2.07-.78a.87.87,0,0,1-.51-1.11l.62-1.63a.72.72,0,0,1,.21-.32l-3.6-.57-.48,1.29a.86.86,0,0,1-1.11.51l-2.07-.77a.86.86,0,0,1-.5-1.12l.2-.55-1.84-.29h-.07c.69-2.25,1.33-4.52,1.94-6.8a265,265,0,0,0,9-57.41c0-.52.06-1,.08-1.56,0-.78.06-1.55.08-2.33l23.59,3.76,7.42-.05a3.82,3.82,0,0,0,3.81-3.85l0-4,43.43-.27a3.82,3.82,0,0,0,3.81-3.85v-1.73l22.35-.13a3.83,3.83,0,0,0,3.8-3.85ZM608.86,619.5l-3.39,1.58a.74.74,0,0,1-1-.35l-1.58-3.39a.74.74,0,0,1,.36-1l3.39-1.58a.74.74,0,0,1,1,.35l1.58,3.4A.73.73,0,0,1,608.86,619.5Zm10.53-3.27-5.23,2.42a1,1,0,0,1-1.34-.49l-3.89-8.34c2.36-1.09,4.71-2.21,7-3.37l3.92,8.42A1,1,0,0,1,619.39,616.23Zm7.81-6.07a.73.73,0,0,1-.35,1l-3.4,1.59a.72.72,0,0,1-1-.37L620.9,609a.73.73,0,0,1,.36-1l3.39-1.58a.72.72,0,0,1,1,.36Zm70.26-51.37-2.78,3.08a.81.81,0,0,1-1.14.06l-3.08-2.78a.82.82,0,0,1-.06-1.15l2.78-3.07a.81.81,0,0,1,1.15-.06l3.07,2.77A.81.81,0,0,1,697.46,558.79Zm9.32-7.9-4.28,4.74a1.12,1.12,0,0,1-1.59.08l-5.6-5.05-2.14-1.93c1.68-1.8,3.32-3.63,4.94-5.47l.83-1,2.17,2,5.59,5A1.12,1.12,0,0,1,706.78,550.89Zm1.12-12.28a.82.82,0,0,1,1.15-.06l3.08,2.78a.82.82,0,0,1,.06,1.15l-2.78,3.07a.81.81,0,0,1-1.15.06l-3.08-2.78a.81.81,0,0,1,0-1.14Zm42-80.95.62-1.63a.86.86,0,0,1,1.11-.5l2.07.77a.87.87,0,0,1,.5,1.12l-.61,1.63a.86.86,0,0,1-1.12.5l-2.06-.77A.87.87,0,0,1,749.92,457.66Zm-2.28,6.08.61-1.64a.87.87,0,0,1,1.12-.5l2.06.77a.87.87,0,0,1,.51,1.12l-.61,1.63a.88.88,0,0,1-1.12.51l-2.06-.78A.86.86,0,0,1,747.64,463.74Zm-.26,11.89-.61,1.63a.87.87,0,0,1-1.12.51l-2.07-.78a.86.86,0,0,1-.5-1.11l.61-1.63a.87.87,0,0,1,1.12-.51l2.06.78A.86.86,0,0,1,747.38,475.63Zm2.28-6.07-.61,1.63a.87.87,0,0,1-1.12.51l-2.06-.78a.86.86,0,0,1-.51-1.11l.61-1.63a.87.87,0,0,1,1.12-.51l2.06.78A.86.86,0,0,1,749.66,469.56Zm4.66,8.68-.62,1.63a.86.86,0,0,1-1.11.51l-2.07-.78a.87.87,0,0,1-.5-1.11l.61-1.63a.87.87,0,0,1,1.12-.51l2.06.77A.88.88,0,0,1,754.32,478.24Zm2.28-6.07L756,473.8a.88.88,0,0,1-1.12.51l-2.06-.78a.87.87,0,0,1-.51-1.12l.61-1.63a.87.87,0,0,1,1.12-.5l2.06.77A.87.87,0,0,1,756.6,472.17Zm-2-5.83.61-1.63a.86.86,0,0,1,1.12-.5l2.06.77a.87.87,0,0,1,.51,1.12l-.61,1.63a.87.87,0,0,1-1.12.5l-2.06-.77A.87.87,0,0,1,754.58,466.34Zm6.68,14.51-.62,1.63a.85.85,0,0,1-1.11.5l-2.07-.77a.87.87,0,0,1-.5-1.12l.61-1.63a.87.87,0,0,1,1.12-.5l2.06.77A.88.88,0,0,1,761.26,480.85Zm2.28-6.07-.62,1.63a.86.86,0,0,1-1.11.5l-2.07-.77a.87.87,0,0,1-.5-1.12l.61-1.63a.88.88,0,0,1,1.12-.51l2.06.78A.87.87,0,0,1,763.54,474.78Zm-2-5.83.61-1.63a.87.87,0,0,1,1.12-.51l2.06.78a.86.86,0,0,1,.51,1.11l-.61,1.63a.87.87,0,0,1-1.12.51l-2.06-.77A.87.87,0,0,1,761.52,469Zm6.68,14.5-.62,1.64a.87.87,0,0,1-1.11.5l-2.07-.77a.87.87,0,0,1-.5-1.12l.61-1.63a.87.87,0,0,1,1.11-.51l2.07.78A.87.87,0,0,1,768.2,483.45Zm2.28-6.07-.62,1.63a.86.86,0,0,1-1.11.51l-2.07-.78a.86.86,0,0,1-.5-1.11l.61-1.63a.87.87,0,0,1,1.12-.51l2.06.78A.87.87,0,0,1,770.48,477.38Zm2.28-6.07-.61,1.63a.87.87,0,0,1-1.12.51l-2.06-.78a.86.86,0,0,1-.51-1.11l.61-1.63a.87.87,0,0,1,1.12-.51l2.06.78A.86.86,0,0,1,772.76,471.31Zm-2-5.83.61-1.63a.87.87,0,0,1,1.12-.5l2.06.77a.87.87,0,0,1,.51,1.12l-.61,1.63a.88.88,0,0,1-1.12.51l-2.06-.78A.87.87,0,0,1,770.74,465.48ZM777.42,480l-.62,1.63a.86.86,0,0,1-1.11.51l-2.07-.78a.87.87,0,0,1-.5-1.11l.61-1.63a.87.87,0,0,1,1.12-.51l2.06.77A.88.88,0,0,1,777.42,480Zm2.28-6.07-.62,1.63a.86.86,0,0,1-1.11.51l-2.07-.78a.87.87,0,0,1-.5-1.12l.61-1.63a.87.87,0,0,1,1.12-.5l2.06.77A.87.87,0,0,1,779.7,473.92Zm-2-5.83.61-1.63a.86.86,0,0,1,1.12-.5l2.06.77a.87.87,0,0,1,.51,1.12l-.61,1.63a.87.87,0,0,1-1.12.5l-2.06-.77A.87.87,0,0,1,777.68,468.09Zm6.68,14.51-.62,1.63a.87.87,0,0,1-1.11.5l-2.07-.77a.87.87,0,0,1-.5-1.12l.61-1.63a.87.87,0,0,1,1.11-.5l2.07.77A.88.88,0,0,1,784.36,482.6Zm2.28-6.07-.62,1.63a.86.86,0,0,1-1.11.5l-2.07-.77a.87.87,0,0,1-.5-1.12l.61-1.63a.88.88,0,0,1,1.12-.51l2.06.78A.88.88,0,0,1,786.64,476.53Zm4.65,8.67-.61,1.64a.87.87,0,0,1-1.11.5l-2.07-.77a.87.87,0,0,1-.5-1.12l.61-1.63a.87.87,0,0,1,1.11-.51l2.07.78A.87.87,0,0,1,791.29,485.2Zm2.29-6.07-.62,1.63a.86.86,0,0,1-1.11.51l-2.07-.78a.86.86,0,0,1-.5-1.11l.61-1.63a.87.87,0,0,1,1.12-.51l2.06.78A.87.87,0,0,1,793.58,479.13Zm4.65,8.68-.61,1.63a.86.86,0,0,1-1.11.51l-2.07-.78a.87.87,0,0,1-.51-1.11l.62-1.63a.86.86,0,0,1,1.11-.51l2.07.78A.86.86,0,0,1,798.23,487.81Zm2.29-6.07-.62,1.63a.87.87,0,0,1-1.11.51l-2.07-.78a.87.87,0,0,1-.5-1.11l.61-1.64a.87.87,0,0,1,1.11-.5l2.07.77A.88.88,0,0,1,800.52,481.74Zm4.65,8.68-.61,1.63a.88.88,0,0,1-1.12.51l-2.06-.78a.88.88,0,0,1-.51-1.12l.62-1.63a.86.86,0,0,1,1.11-.5l2.07.77A.87.87,0,0,1,805.17,490.42Zm2.28-6.07-.61,1.63a.87.87,0,0,1-1.11.5l-2.07-.77a.86.86,0,0,1-.5-1.12l.61-1.63a.87.87,0,0,1,1.11-.5l2.07.77A.87.87,0,0,1,807.45,484.35Zm4.66,8.68-.61,1.63a.87.87,0,0,1-1.12.5l-2.06-.77a.88.88,0,0,1-.51-1.12l.62-1.63a.86.86,0,0,1,1.11-.51l2.07.78A.87.87,0,0,1,812.11,493Zm2.28-6.08-.61,1.64a.87.87,0,0,1-1.11.5l-2.07-.77a.88.88,0,0,1-.51-1.12l.62-1.63a.87.87,0,0,1,1.11-.51l2.07.78A.87.87,0,0,1,814.39,487Zm6.94,2.61-.61,1.63a.87.87,0,0,1-1.12.51l-2.06-.78a.87.87,0,0,1-.51-1.11l.62-1.63a.86.86,0,0,1,1.11-.51l2.07.78A.86.86,0,0,1,821.33,489.56Zm18.8,2,.62-1.63a.86.86,0,0,1,1.11-.51l2.07.78a.86.86,0,0,1,.5,1.11l-.61,1.63a.87.87,0,0,1-1.12.51l-2.06-.78A.86.86,0,0,1,840.13,491.56Zm-2.28,6.07.61-1.63a.87.87,0,0,1,1.12-.51l2.06.78a.86.86,0,0,1,.51,1.11l-.61,1.63a.87.87,0,0,1-1.12.51l-2.06-.78A.86.86,0,0,1,837.85,497.63ZM833.19,489l.62-1.63a.86.86,0,0,1,1.11-.51l2.07.78a.87.87,0,0,1,.5,1.11l-.61,1.63a.87.87,0,0,1-1.12.51l-2.06-.77A.88.88,0,0,1,833.19,489ZM830.91,495l.61-1.63a.88.88,0,0,1,1.12-.51l2.07.78a.87.87,0,0,1,.5,1.12l-.61,1.63a.87.87,0,0,1-1.12.5l-2.06-.77A.87.87,0,0,1,830.91,495Zm-4.66-8.68.62-1.63a.86.86,0,0,1,1.11-.5l2.07.77a.87.87,0,0,1,.5,1.12l-.61,1.63a.87.87,0,0,1-1.11.5l-2.07-.77A.88.88,0,0,1,826.25,486.34ZM824,492.41l.62-1.63a.86.86,0,0,1,1.11-.5l2.07.77a.87.87,0,0,1,.5,1.12l-.61,1.63a.88.88,0,0,1-1.12.51l-2.06-.78A.88.88,0,0,1,824,492.41Zm-4.65-8.67.61-1.64a.87.87,0,0,1,1.11-.5l2.07.77a.87.87,0,0,1,.5,1.12l-.61,1.63a.87.87,0,0,1-1.11.51l-2.07-.78A.86.86,0,0,1,819.32,483.74Zm-4.66-8.68.61-1.63a.87.87,0,0,1,1.12-.51l2.06.77a.88.88,0,0,1,.51,1.12l-.62,1.63a.86.86,0,0,1-1.11.51l-2.07-.78A.87.87,0,0,1,814.66,475.06Zm-2.28,6.07.61-1.63a.86.86,0,0,1,1.11-.51l2.07.78a.85.85,0,0,1,.5,1.11l-.61,1.63A.86.86,0,0,1,815,483l-2.07-.78A.86.86,0,0,1,812.38,481.13Zm-4.66-8.68.61-1.63a.87.87,0,0,1,1.12-.51l2.06.78a.87.87,0,0,1,.51,1.11l-.62,1.63a.86.86,0,0,1-1.11.51l-2.07-.78A.86.86,0,0,1,807.72,472.45Zm-2.28,6.07.61-1.63a.87.87,0,0,1,1.11-.51l2.07.78a.88.88,0,0,1,.51,1.12l-.62,1.63a.86.86,0,0,1-1.11.5l-2.07-.77A.87.87,0,0,1,805.44,478.52Zm-4.66-8.68.61-1.63a.88.88,0,0,1,1.12-.51l2.06.78a.87.87,0,0,1,.51,1.12l-.61,1.63a.87.87,0,0,1-1.12.5l-2.07-.77A.87.87,0,0,1,800.78,469.84Zm-2.28,6.07.61-1.63a.87.87,0,0,1,1.12-.5l2.06.77a.88.88,0,0,1,.51,1.12l-.62,1.63a.87.87,0,0,1-1.11.51L799,477A.87.87,0,0,1,798.5,475.91Zm-4.66-8.68.61-1.63a.87.87,0,0,1,1.12-.5l2.06.77a.87.87,0,0,1,.51,1.12l-.61,1.63a.88.88,0,0,1-1.12.51l-2.06-.78A.87.87,0,0,1,793.84,467.23Zm-2.28,6.08.61-1.63a.87.87,0,0,1,1.12-.51l2.06.78a.86.86,0,0,1,.51,1.11l-.62,1.63a.86.86,0,0,1-1.11.51l-2.07-.78A.87.87,0,0,1,791.56,473.31Zm-4.66-8.68.61-1.63a.87.87,0,0,1,1.12-.51l2.06.78a.86.86,0,0,1,.51,1.11l-.61,1.63a.87.87,0,0,1-1.12.51l-2.06-.78A.86.86,0,0,1,786.9,464.63Zm-2.28,6.07.61-1.63a.87.87,0,0,1,1.12-.51l2.06.78a.86.86,0,0,1,.51,1.11l-.61,1.63a.87.87,0,0,1-1.12.51l-2.06-.77A.87.87,0,0,1,784.62,470.7ZM780,462l.61-1.63a.88.88,0,0,1,1.12-.51l2.06.78a.86.86,0,0,1,.51,1.11l-.61,1.64a.87.87,0,0,1-1.12.5l-2.06-.77A.87.87,0,0,1,780,462Zm-4.66-8.68.62-1.63a.86.86,0,0,1,1.11-.51l2.07.78a.87.87,0,0,1,.5,1.12l-.61,1.63a.87.87,0,0,1-1.12.5l-2.06-.77A.88.88,0,0,1,775.3,453.34ZM773,459.41l.61-1.63a.87.87,0,0,1,1.12-.5l2.06.77a.87.87,0,0,1,.51,1.12l-.61,1.63a.87.87,0,0,1-1.12.5l-2.06-.77A.87.87,0,0,1,773,459.41Zm-4.66-8.68.62-1.63a.86.86,0,0,1,1.11-.5l2.07.77a.87.87,0,0,1,.5,1.12l-.61,1.63a.88.88,0,0,1-1.12.51l-2.06-.78A.88.88,0,0,1,768.36,450.73Zm-2.28,6.08.62-1.63a.86.86,0,0,1,1.11-.51l2.07.77a.87.87,0,0,1,.5,1.12l-.61,1.63a.87.87,0,0,1-1.12.51l-2.06-.78A.86.86,0,0,1,766.08,456.81Zm-2.28,6.07.61-1.63a.87.87,0,0,1,1.12-.51l2.06.78a.86.86,0,0,1,.51,1.11l-.61,1.63a.87.87,0,0,1-1.12.51l-2.06-.78A.86.86,0,0,1,763.8,462.88Zm-4.66-8.68.62-1.63a.86.86,0,0,1,1.11-.51l2.07.78a.87.87,0,0,1,.5,1.11l-.61,1.63a.87.87,0,0,1-1.12.51l-2.06-.78A.86.86,0,0,1,759.14,454.2Zm-2.28,6.07.61-1.63a.88.88,0,0,1,1.12-.51l2.06.78a.86.86,0,0,1,.51,1.11l-.61,1.64a.87.87,0,0,1-1.12.5l-2.06-.77A.87.87,0,0,1,756.86,460.27Zm-4-10.31a.87.87,0,0,1,1.11-.51l2.07.78a.87.87,0,0,1,.5,1.12l-.61,1.63a.87.87,0,0,1-1.12.5l-2.06-.77a.88.88,0,0,1-.51-1.12Zm13.92-109.18a.86.86,0,0,1,.86-.87h2.2a.86.86,0,0,1,.87.86v1.74a.86.86,0,0,1-.86.87h-2.2a.86.86,0,0,1-.87-.86Zm0,6.49a.86.86,0,0,1,.86-.87l2.2,0a.87.87,0,0,1,.87.86V349a.87.87,0,0,1-.86.87h-2.2a.86.86,0,0,1-.87-.86Zm0,6.48a.88.88,0,0,1,.87-.87h2.2a.86.86,0,0,1,.87.86v1.74a.86.86,0,0,1-.86.87l-2.2,0a.88.88,0,0,1-.88-.86Zm0,6.49a.87.87,0,0,1,.86-.87l2.21,0a.87.87,0,0,1,.87.87V362a.87.87,0,0,1-.86.87h-2.2a.87.87,0,0,1-.88-.86Zm0,6.49a.88.88,0,0,1,.86-.88H770a.86.86,0,0,1,.87.86v1.74a.88.88,0,0,1-.86.88h-2.21a.88.88,0,0,1-.87-.86ZM770,375.8h-2.21a.87.87,0,0,1-.87-.86v-1.74a.87.87,0,0,1,.86-.87H770a.86.86,0,0,1,.87.86v1.74A.86.86,0,0,1,770,375.8Zm4.13-35.06a.88.88,0,0,1,.86-.88h2.21a.88.88,0,0,1,.87.86v1.74a.88.88,0,0,1-.86.88H775a.86.86,0,0,1-.87-.86Zm0,6.48a.87.87,0,0,1,.86-.87h2.2a.87.87,0,0,1,.88.86v1.74a.87.87,0,0,1-.86.87l-2.21,0a.87.87,0,0,1-.87-.87Zm0,6.49a.86.86,0,0,1,.86-.87l2.2,0a.88.88,0,0,1,.88.86v1.75a.88.88,0,0,1-.87.87h-2.2a.86.86,0,0,1-.87-.86Zm0,6.48a.87.87,0,0,1,.86-.87h2.2a.86.86,0,0,1,.87.86v1.74a.86.86,0,0,1-.86.87l-2.2,0a.87.87,0,0,1-.87-.86Zm0,6.49a.86.86,0,0,1,.86-.87h2.2a.86.86,0,0,1,.87.86v1.74a.86.86,0,0,1-.86.87h-2.2a.86.86,0,0,1-.87-.86Zm3.12,9.08h-2.2a.88.88,0,0,1-.88-.86v-1.74a.87.87,0,0,1,.87-.87l2.2,0a.87.87,0,0,1,.87.86v1.75A.87.87,0,0,1,777.43,375.76Zm4.13-35.07a.87.87,0,0,1,.86-.87h2.21a.86.86,0,0,1,.87.86v1.74a.86.86,0,0,1-.86.87h-2.21a.86.86,0,0,1-.87-.86Zm0,6.49a.86.86,0,0,1,.86-.87l2.21,0a.88.88,0,0,1,.87.86v1.75a.88.88,0,0,1-.86.87h-2.21a.87.87,0,0,1-.87-.86Zm0,6.48a.88.88,0,0,1,.86-.87h2.21a.88.88,0,0,1,.87.86v1.74a.87.87,0,0,1-.86.87l-2.21,0a.87.87,0,0,1-.87-.86Zm0,6.49a.86.86,0,0,1,.86-.87h2.21a.87.87,0,0,1,.87.86v1.74a.87.87,0,0,1-.86.87h-2.21a.86.86,0,0,1-.87-.86Zm0,6.49a.88.88,0,0,1,.86-.88h2.2a.88.88,0,0,1,.88.86v1.74a.88.88,0,0,1-.86.88H782.6a.86.86,0,0,1-.87-.86Zm3.12,9.07-2.2,0a.87.87,0,0,1-.87-.87v-1.74a.86.86,0,0,1,.86-.87h2.2a.87.87,0,0,1,.88.86v1.74A.87.87,0,0,1,784.84,375.71ZM789,340.65a.87.87,0,0,1,.87-.87l2.2,0a.87.87,0,0,1,.87.86v1.75a.87.87,0,0,1-.86.87h-2.2a.88.88,0,0,1-.88-.86Zm0,6.48a.88.88,0,0,1,.86-.87h2.21a.86.86,0,0,1,.87.86v1.74a.86.86,0,0,1-.86.87l-2.2,0a.89.89,0,0,1-.88-.87Zm0,6.49a.87.87,0,0,1,.86-.87l2.21,0a.87.87,0,0,1,.87.87v1.74a.87.87,0,0,1-.86.87h-2.21a.87.87,0,0,1-.87-.86Zm0,6.49a.88.88,0,0,1,.86-.88h2.21a.86.86,0,0,1,.87.86v1.74a.88.88,0,0,1-.86.88H790a.88.88,0,0,1-.87-.86Zm0,6.48a.86.86,0,0,1,.86-.87h2.21a.86.86,0,0,1,.87.86v1.74a.86.86,0,0,1-.86.87H790a.86.86,0,0,1-.87-.86Zm3.13,9.08h-2.21a.86.86,0,0,1-.87-.86v-1.74a.86.86,0,0,1,.86-.87l2.21,0a.88.88,0,0,1,.87.86v1.75A.88.88,0,0,1,792.26,375.67Zm4.17-28.58a.86.86,0,0,1,.86-.87l2.2,0a.87.87,0,0,1,.87.86v1.75a.86.86,0,0,1-.86.87h-2.2a.86.86,0,0,1-.87-.86Zm0,6.48a.87.87,0,0,1,.86-.87h2.2a.86.86,0,0,1,.87.86v1.74a.86.86,0,0,1-.86.87l-2.2,0a.87.87,0,0,1-.87-.86Zm0,6.49a.87.87,0,0,1,.87-.87h2.2a.86.86,0,0,1,.87.86v1.74a.86.86,0,0,1-.86.87h-2.2a.87.87,0,0,1-.88-.86Zm3.13,9.08h-2.2a.88.88,0,0,1-.88-.86v-1.74a.87.87,0,0,1,.86-.87l2.21,0a.87.87,0,0,1,.87.86v1.74A.88.88,0,0,1,799.63,369.14Zm4.21-22.1a.87.87,0,0,1,.86-.87h2.21a.88.88,0,0,1,.87.86v1.74a.87.87,0,0,1-.86.87l-2.21,0a.87.87,0,0,1-.87-.86Zm0,6.49a.86.86,0,0,1,.86-.87l2.2,0a.89.89,0,0,1,.88.87v1.74a.87.87,0,0,1-.86.87h-2.21a.86.86,0,0,1-.87-.86Zm0,6.49a.87.87,0,0,1,.86-.88H807a.88.88,0,0,1,.88.86v1.74a.89.89,0,0,1-.87.88h-2.2a.86.86,0,0,1-.87-.86Zm3.12,9.07-2.2,0a.87.87,0,0,1-.87-.87V366.5a.86.86,0,0,1,.86-.87H807a.86.86,0,0,1,.87.86v1.74A.86.86,0,0,1,807,369.09ZM811.25,347a.87.87,0,0,1,.86-.87l2.21,0a.87.87,0,0,1,.87.87v1.74a.87.87,0,0,1-.86.87h-2.21a.88.88,0,0,1-.87-.86Zm0,6.48a.88.88,0,0,1,.86-.87h2.21a.87.87,0,0,1,.87.86v1.74a.86.86,0,0,1-.86.87l-2.21,0a.88.88,0,0,1-.87-.86Zm0,6.49a.86.86,0,0,1,.86-.87h2.21a.86.86,0,0,1,.87.86v1.74a.87.87,0,0,1-.86.87h-2.21a.86.86,0,0,1-.87-.86Zm3.13,9.08h-2.21a.86.86,0,0,1-.87-.86v-1.74a.86.86,0,0,1,.86-.87l2.21,0a.88.88,0,0,1,.87.86v1.75A.88.88,0,0,1,814.46,369.05Zm4.2-22.1a.88.88,0,0,1,.87-.87h2.2a.86.86,0,0,1,.87.86v1.74a.86.86,0,0,1-.86.87l-2.2,0a.88.88,0,0,1-.88-.86Zm0,6.49a.87.87,0,0,1,.86-.87h2.21a.86.86,0,0,1,.87.86v1.74a.86.86,0,0,1-.86.87h-2.2a.87.87,0,0,1-.88-.86Zm0,6.49a.88.88,0,0,1,.86-.88h2.21a.87.87,0,0,1,.87.86v1.74a.88.88,0,0,1-.86.88h-2.21a.88.88,0,0,1-.87-.86Zm3.13,9.07-2.21,0a.88.88,0,0,1-.87-.87v-1.74a.88.88,0,0,1,.86-.87h2.21a.86.86,0,0,1,.87.86v1.74A.86.86,0,0,1,821.87,369Zm4.21-22.09a.86.86,0,0,1,.86-.87l2.2,0a.89.89,0,0,1,.88.87v1.74a.88.88,0,0,1-.87.87H827a.86.86,0,0,1-.87-.86Zm0,6.49a.87.87,0,0,1,.86-.88h2.2a.86.86,0,0,1,.87.86v1.74a.87.87,0,0,1-.86.88H827a.87.87,0,0,1-.87-.86Zm0,6.48A.86.86,0,0,1,827,359h2.2a.86.86,0,0,1,.87.86v1.74a.86.86,0,0,1-.86.87H827a.86.86,0,0,1-.87-.86Zm3.12,9.08h-2.2a.86.86,0,0,1-.87-.86l0-1.74a.87.87,0,0,1,.87-.87l2.2,0a.87.87,0,0,1,.87.86v1.75A.87.87,0,0,1,829.28,369Zm4.21-22.1a.88.88,0,0,1,.86-.87h2.21a.88.88,0,0,1,.87.86v1.74a.87.87,0,0,1-.86.87l-2.21,0a.87.87,0,0,1-.87-.86Zm0,6.49a.86.86,0,0,1,.86-.87h2.21a.87.87,0,0,1,.87.86v1.74a.87.87,0,0,1-.86.87h-2.21a.86.86,0,0,1-.87-.86Zm0,6.49a.86.86,0,0,1,.86-.87l2.2,0a.88.88,0,0,1,.88.86v1.75a.88.88,0,0,1-.86.87h-2.21a.86.86,0,0,1-.87-.86Zm3.12,9.07-2.2,0a.87.87,0,0,1-.87-.86v-1.75a.86.86,0,0,1,.86-.87h2.2a.88.88,0,0,1,.88.86V368A.87.87,0,0,1,836.69,368.91Zm4.25-15.6a.88.88,0,0,1,.86-.88H844a.87.87,0,0,1,.87.86V355a.88.88,0,0,1-.86.88h-2.21a.88.88,0,0,1-.87-.86Zm3.13,9.07-2.21,0a.88.88,0,0,1-.87-.87v-1.74a.86.86,0,0,1,.86-.87h2.21a.86.86,0,0,1,.87.86v1.74A.86.86,0,0,1,844.07,362.38Zm4.28-9.12a.87.87,0,0,1,.87-.87h2.2a.86.86,0,0,1,.87.86V355a.86.86,0,0,1-.86.87h-2.2a.87.87,0,0,1-.88-.86Zm3.13,9.08h-2.2a.88.88,0,0,1-.88-.86v-1.74a.87.87,0,0,1,.86-.87l2.21,0a.87.87,0,0,1,.87.86v1.75A.87.87,0,0,1,851.48,362.34Zm4.29-9.12a.87.87,0,0,1,.86-.88h2.2a.88.88,0,0,1,.88.86v1.74a.89.89,0,0,1-.87.88h-2.2a.86.86,0,0,1-.87-.86Zm3.12,9.07-2.2,0a.87.87,0,0,1-.87-.87V359.7a.86.86,0,0,1,.86-.87h2.2a.86.86,0,0,1,.87.86v1.74A.86.86,0,0,1,858.89,362.29Zm4.29-9.12a.86.86,0,0,1,.86-.87h2.21a.86.86,0,0,1,.87.86v1.74a.87.87,0,0,1-.86.87h-2.21a.86.86,0,0,1-.87-.86Zm3.13,9.08H864.1a.86.86,0,0,1-.87-.86v-1.74a.86.86,0,0,1,.86-.87l2.21,0a.88.88,0,0,1,.87.86v1.75A.88.88,0,0,1,866.31,362.25Z"/><polygon class="cls-1" points="635.52 639.23 634.08 636.13 637.05 629.01 640.69 636.83 635.52 639.23"/><path class="cls-1" d="M638.21,639.6a.67.67,0,0,1,.24-.07,4.11,4.11,0,0,1,2.45.44,2.62,2.62,0,0,1,1.36,1.41,2.59,2.59,0,0,1-.12,1.9,2.53,2.53,0,0,1-.66.92,1.9,1.9,0,0,0-.32.36c-.3.43-.53,1.08-.39,1.32s.53.28.91.37a3.25,3.25,0,0,0,1.58,0,.81.81,0,1,1,.39,1.58,5,5,0,0,1-2.35,0,2.71,2.71,0,0,1-1.95-1.17c-.69-1.23.26-2.73.46-3a3.47,3.47,0,0,1,.55-.63.89.89,0,0,0,.28-.37,1,1,0,0,0,.09-.72c-.08-.23-.3-.36-.61-.53a2.44,2.44,0,0,0-1.47-.25.82.82,0,0,1-.44-1.55Z"/><rect class="cls-1" x="468.56" y="685.2" width="13.16" height="7.4" rx="2" transform="translate(1006.25 1335.63) rotate(175.2)"/><rect class="cls-1" x="469.73" y="699.13" width="13.16" height="7.4" rx="2" transform="translate(1009.75 1363.35) rotate(175.2)"/><rect class="cls-1" x="470.97" y="713.88" width="13.16" height="7.4" rx="2" transform="translate(1013.46 1392.7) rotate(175.2)"/><rect class="cls-1" x="472.21" y="728.63" width="13.16" height="7.4" rx="2" transform="translate(1017.16 1422.04) rotate(175.2)"/><path class="cls-1" d="M486.51,740.76a4.11,4.11,0,0,1,8-1.49l.09,0h0a7,7,0,0,1,13.83-1.62,8.87,8.87,0,0,1,2.49-.57,9,9,0,0,1,5.41,1.25,9,9,0,1,1,3.9,10.7,9,9,0,0,1-17.57-2.18q0-.42,0-.84l-.45.06a6.91,6.91,0,0,1-1.44,0,5.76,5.76,0,0,1-11.4-.55,7,7,0,0,1,0-1.12A4.12,4.12,0,0,1,486.51,740.76Z"/><rect class="cls-1" x="376.31" y="662.29" width="13.16" height="7.4" rx="2" transform="translate(599.05 1403.16) rotate(-166.45)"/><rect class="cls-1" x="373.03" y="675.88" width="13.16" height="7.4" rx="2" transform="translate(589.4 1429.2) rotate(-166.45)"/><rect class="cls-1" x="369.56" y="690.27" width="13.16" height="7.4" rx="2" transform="translate(579.19 1456.76) rotate(-166.45)"/><rect class="cls-1" x="366.09" y="704.66" width="13.16" height="7.4" rx="2" transform="translate(568.98 1484.33) rotate(-166.45)"/><path class="cls-1" d="M377.35,718.79a4.11,4.11,0,0,1,8.1,1.12h.09a7,7,0,0,1,13.64,2.82,8.52,8.52,0,0,1,2.54.24,9,9,0,0,1,4.74,2.89,9.05,9.05,0,1,1,.34,11.38,9.05,9.05,0,0,1-16-7.6q.1-.4.24-.81a3.43,3.43,0,0,1-.44-.09,6.83,6.83,0,0,1-1.36-.47A5.76,5.76,0,0,1,379,723.11,4.13,4.13,0,0,1,377.35,718.79Z"/><path class="cls-2" d="M918.06,421.91l-33.72-5.37.42-2.61a5.84,5.84,0,0,0-4.85-6.69L814.4,396.8l1-6.11a5.84,5.84,0,0,0-4.85-6.69l-23.06-3.67-23.59-3.76c0,.78,0,1.55-.08,2.33,0,.52,0,1-.08,1.56a265,265,0,0,1-9,57.41c-.61,2.28-1.25,4.55-1.94,6.8h.07l1.84.29,4,.64,3.6.57,2.42.38,20.15,3.21,14.84,2.37a5.86,5.86,0,0,0,6.69-4.86l1-6.11,65.52,10.44a5.84,5.84,0,0,0,6.69-4.85l.42-2.61,33.71,5.37a5.85,5.85,0,0,0,6.69-4.85l2.56-16.06A5.86,5.86,0,0,0,918.06,421.91Zm-117.42-31a1.33,1.33,0,0,1,1.52-1.1l3.32.53a1.32,1.32,0,0,1,1.1,1.51l-.42,2.63a1.32,1.32,0,0,1-1.51,1.1l-3.33-.53a1.32,1.32,0,0,1-1.1-1.51Zm-11.6.84.42-2.62a1.32,1.32,0,0,1,1.51-1.1l3.33.53a1.32,1.32,0,0,1,1.1,1.51l-.42,2.63a1.34,1.34,0,0,1-1.52,1.1l-3.32-.53A1.33,1.33,0,0,1,789,391.77Zm-1.14,7.16a1.32,1.32,0,0,1,1.51-1.1l3.33.53a1.34,1.34,0,0,1,1.1,1.52l-.42,2.62a1.32,1.32,0,0,1-1.51,1.1l-3.33-.53a1.32,1.32,0,0,1-1.1-1.51Zm-10-8.94.42-2.63a1.31,1.31,0,0,1,1.51-1.09l3.33.53a1.32,1.32,0,0,1,1.1,1.51l-.42,2.63a1.34,1.34,0,0,1-1.52,1.1l-3.32-.53A1.33,1.33,0,0,1,777.86,390Zm-1.56,9.79.42-2.63a1.32,1.32,0,0,1,1.51-1.1l3.33.53a1.33,1.33,0,0,1,1.1,1.51l-.42,2.63a1.33,1.33,0,0,1-1.52,1.1l-3.32-.53A1.32,1.32,0,0,1,776.3,399.78Zm-9.62-11.57.41-2.63a1.34,1.34,0,0,1,1.52-1.1l3.33.53a1.32,1.32,0,0,1,1.09,1.52l-.41,2.63a1.34,1.34,0,0,1-1.52,1.1l-3.33-.53A1.32,1.32,0,0,1,766.68,388.21ZM765.12,398l.41-2.62a1.33,1.33,0,0,1,1.52-1.1l3.33.53a1.32,1.32,0,0,1,1.1,1.51l-.42,2.63a1.34,1.34,0,0,1-1.52,1.1l-3.33-.53A1.32,1.32,0,0,1,765.12,398Zm-.3,40.09a1.33,1.33,0,0,1-1.52,1.1l-3.32-.53a1.33,1.33,0,0,1-1.1-1.52l.42-2.63a1.32,1.32,0,0,1,1.51-1.1l3.33.53a1.34,1.34,0,0,1,1.1,1.52Zm1.56-9.79a1.33,1.33,0,0,1-1.52,1.1l-3.32-.53a1.32,1.32,0,0,1-1.1-1.51l.42-2.63a1.32,1.32,0,0,1,1.51-1.1l3.33.53a1.34,1.34,0,0,1,1.1,1.52Zm1.56-9.78a1.34,1.34,0,0,1-1.52,1.1l-3.32-.53a1.33,1.33,0,0,1-1.1-1.52l.42-2.63a1.32,1.32,0,0,1,1.51-1.09l3.33.53a1.32,1.32,0,0,1,1.1,1.51Zm1.56-9.78a1.33,1.33,0,0,1-1.52,1.09l-3.32-.53a1.32,1.32,0,0,1-1.1-1.51l.42-2.63a1.32,1.32,0,0,1,1.51-1.1l3.33.53a1.34,1.34,0,0,1,1.1,1.52Zm6.92,28.5-.42,2.63a1.32,1.32,0,0,1-1.51,1.1l-3.33-.53a1.34,1.34,0,0,1-1.1-1.52l.42-2.62a1.33,1.33,0,0,1,1.52-1.1l3.32.53A1.32,1.32,0,0,1,776.42,437.23Zm1.14-7.15a1.31,1.31,0,0,1-1.51,1.09l-3.33-.53a1.32,1.32,0,0,1-1.1-1.51l.42-2.63a1.32,1.32,0,0,1,1.51-1.1l3.33.53a1.34,1.34,0,0,1,1.1,1.52Zm1.56-9.79a1.33,1.33,0,0,1-1.51,1.1l-3.33-.53a1.34,1.34,0,0,1-1.1-1.52l.42-2.62a1.32,1.32,0,0,1,1.51-1.1l3.33.53a1.32,1.32,0,0,1,1.1,1.51Zm1.56-9.78a1.34,1.34,0,0,1-1.52,1.1l-3.32-.53a1.33,1.33,0,0,1-1.1-1.52l.42-2.63a1.32,1.32,0,0,1,1.51-1.1l3.33.53a1.34,1.34,0,0,1,1.1,1.52ZM787.6,439l-.42,2.63a1.32,1.32,0,0,1-1.51,1.1l-3.33-.53a1.33,1.33,0,0,1-1.1-1.52l.42-2.62a1.33,1.33,0,0,1,1.52-1.1l3.32.53A1.32,1.32,0,0,1,787.6,439Zm1.56-9.78-.42,2.63a1.32,1.32,0,0,1-1.51,1.1l-3.33-.53a1.34,1.34,0,0,1-1.1-1.52l.42-2.63a1.34,1.34,0,0,1,1.52-1.1l3.32.53A1.33,1.33,0,0,1,789.16,429.23Zm1.56-9.78-.42,2.62a1.32,1.32,0,0,1-1.51,1.1l-3.33-.53a1.32,1.32,0,0,1-1.1-1.51l.42-2.63a1.34,1.34,0,0,1,1.52-1.1l3.32.53A1.33,1.33,0,0,1,790.72,419.45Zm1.14-7.16a1.32,1.32,0,0,1-1.51,1.1l-3.33-.53a1.34,1.34,0,0,1-1.1-1.52l.42-2.63a1.31,1.31,0,0,1,1.51-1.09l3.33.53a1.32,1.32,0,0,1,1.1,1.51Zm6.92,28.51-.41,2.62a1.33,1.33,0,0,1-1.52,1.1l-3.33-.53a1.31,1.31,0,0,1-1.09-1.51l.41-2.63a1.34,1.34,0,0,1,1.52-1.1l3.33.53A1.32,1.32,0,0,1,798.78,440.8Zm1.56-9.79-.41,2.63a1.34,1.34,0,0,1-1.52,1.1l-3.33-.53a1.34,1.34,0,0,1-1.1-1.52l.42-2.63a1.32,1.32,0,0,1,1.52-1.09l3.33.53A1.31,1.31,0,0,1,800.34,431Zm1.56-9.78-.42,2.62A1.32,1.32,0,0,1,800,425l-3.33-.53a1.32,1.32,0,0,1-1.1-1.51l.42-2.63a1.34,1.34,0,0,1,1.52-1.1l3.32.53A1.33,1.33,0,0,1,801.9,421.23Zm1.56-9.79-.42,2.63a1.32,1.32,0,0,1-1.51,1.1l-3.33-.53a1.34,1.34,0,0,1-1.1-1.52l.42-2.62a1.33,1.33,0,0,1,1.52-1.1l3.32.53A1.32,1.32,0,0,1,803.46,411.44Zm1.56-9.78-.42,2.63a1.32,1.32,0,0,1-1.51,1.1l-3.33-.54a1.32,1.32,0,0,1-1.1-1.51l.42-2.63a1.34,1.34,0,0,1,1.52-1.1l3.32.53A1.33,1.33,0,0,1,805,401.66Zm6.09,33.76a1.34,1.34,0,0,1-1.52,1.1l-3.32-.53a1.33,1.33,0,0,1-1.1-1.52l.42-2.62a1.32,1.32,0,0,1,1.51-1.1l3.33.53a1.32,1.32,0,0,1,1.1,1.51Zm2-12.41-.41,2.63a1.34,1.34,0,0,1-1.52,1.1l-3.33-.53a1.32,1.32,0,0,1-1.09-1.52l.41-2.63a1.34,1.34,0,0,1,1.52-1.1l3.33.53A1.32,1.32,0,0,1,813.08,423Zm1.56-9.79-.41,2.63a1.33,1.33,0,0,1-1.52,1.1l-3.33-.53a1.32,1.32,0,0,1-1.1-1.51l.42-2.63a1.33,1.33,0,0,1,1.52-1.1l3.33.53A1.31,1.31,0,0,1,814.64,413.22Zm1.56-9.78-.42,2.63a1.32,1.32,0,0,1-1.51,1.1l-3.33-.53a1.34,1.34,0,0,1-1.1-1.52l.42-2.63a1.32,1.32,0,0,1,1.52-1.09l3.32.53A1.32,1.32,0,0,1,816.2,403.44Zm6.09,33.76a1.33,1.33,0,0,1-1.52,1.1l-3.32-.53a1.32,1.32,0,0,1-1.1-1.51l.42-2.63a1.32,1.32,0,0,1,1.51-1.1l3.33.53a1.33,1.33,0,0,1,1.1,1.52Zm1.56-9.78a1.34,1.34,0,0,1-1.52,1.1L819,428a1.33,1.33,0,0,1-1.1-1.52l.42-2.63a1.31,1.31,0,0,1,1.51-1.09l3.33.53a1.32,1.32,0,0,1,1.1,1.51Zm1.56-9.79a1.33,1.33,0,0,1-1.52,1.1l-3.32-.53a1.32,1.32,0,0,1-1.1-1.51l.42-2.63a1.32,1.32,0,0,1,1.51-1.1l3.33.53a1.34,1.34,0,0,1,1.1,1.52Zm1.56-9.78a1.34,1.34,0,0,1-1.52,1.1l-3.33-.53A1.32,1.32,0,0,1,821,406.9l.41-2.62a1.33,1.33,0,0,1,1.52-1.1l3.33.53a1.32,1.32,0,0,1,1.1,1.51Zm6.5,31.13a1.32,1.32,0,0,1-1.51,1.1l-3.33-.53a1.32,1.32,0,0,1-1.1-1.51l.42-2.63a1.32,1.32,0,0,1,1.51-1.1l3.33.53a1.34,1.34,0,0,1,1.1,1.52ZM835,429.2a1.33,1.33,0,0,1-1.51,1.1l-3.33-.53a1.34,1.34,0,0,1-1.1-1.52l.42-2.62a1.32,1.32,0,0,1,1.51-1.1l3.33.53a1.32,1.32,0,0,1,1.1,1.51Zm1.56-9.78a1.32,1.32,0,0,1-1.52,1.09l-3.32-.53a1.32,1.32,0,0,1-1.1-1.51l.42-2.63a1.32,1.32,0,0,1,1.51-1.1l3.33.53a1.34,1.34,0,0,1,1.1,1.52Zm1.56-9.79a1.33,1.33,0,0,1-1.52,1.1l-3.32-.53a1.32,1.32,0,0,1-1.1-1.51l.42-2.63a1.32,1.32,0,0,1,1.51-1.1l3.33.53a1.32,1.32,0,0,1,1.1,1.51Zm6.92,28.51-.42,2.63a1.32,1.32,0,0,1-1.51,1.1l-3.33-.53a1.34,1.34,0,0,1-1.1-1.52l.42-2.63a1.34,1.34,0,0,1,1.52-1.1l3.32.53A1.33,1.33,0,0,1,845.07,438.14Zm1.56-9.79-.42,2.63a1.32,1.32,0,0,1-1.51,1.1l-3.33-.53a1.32,1.32,0,0,1-1.1-1.51l.42-2.63a1.33,1.33,0,0,1,1.52-1.1l3.32.53A1.32,1.32,0,0,1,846.63,428.35Zm1.14-7.15a1.32,1.32,0,0,1-1.51,1.1l-3.33-.53a1.34,1.34,0,0,1-1.1-1.52l.42-2.63a1.31,1.31,0,0,1,1.51-1.09l3.33.53a1.32,1.32,0,0,1,1.1,1.51Zm1.56-9.79a1.32,1.32,0,0,1-1.51,1.1l-3.33-.53a1.32,1.32,0,0,1-1.1-1.51l.42-2.63a1.32,1.32,0,0,1,1.51-1.1l3.33.53a1.34,1.34,0,0,1,1.1,1.52Zm6.92,28.51-.41,2.63a1.34,1.34,0,0,1-1.52,1.1l-3.33-.53a1.34,1.34,0,0,1-1.1-1.52l.42-2.63a1.32,1.32,0,0,1,1.52-1.09l3.33.53A1.32,1.32,0,0,1,856.25,439.92Zm1.56-9.78-.42,2.62a1.32,1.32,0,0,1-1.51,1.1l-3.33-.53a1.32,1.32,0,0,1-1.1-1.51l.42-2.63a1.34,1.34,0,0,1,1.52-1.1l3.32.53A1.33,1.33,0,0,1,857.81,430.14Zm1.56-9.79L859,423a1.32,1.32,0,0,1-1.51,1.1l-3.33-.53A1.34,1.34,0,0,1,853,422l.42-2.62a1.33,1.33,0,0,1,1.52-1.1l3.32.53A1.32,1.32,0,0,1,859.37,420.35Zm1.56-9.78-.42,2.63a1.31,1.31,0,0,1-1.51,1.09l-3.33-.53a1.32,1.32,0,0,1-1.1-1.51l.42-2.63a1.34,1.34,0,0,1,1.52-1.1l3.32.53A1.33,1.33,0,0,1,860.93,410.57ZM867,444.33a1.34,1.34,0,0,1-1.52,1.1l-3.32-.53a1.33,1.33,0,0,1-1.1-1.52l.42-2.62a1.32,1.32,0,0,1,1.51-1.1l3.33.53a1.32,1.32,0,0,1,1.1,1.51Zm2-12.41-.41,2.63a1.32,1.32,0,0,1-1.52,1.09l-3.33-.53a1.31,1.31,0,0,1-1.09-1.51l.41-2.63a1.34,1.34,0,0,1,1.52-1.1l3.33.53A1.32,1.32,0,0,1,869,431.92Zm1.56-9.79-.41,2.63a1.33,1.33,0,0,1-1.52,1.1l-3.33-.53a1.32,1.32,0,0,1-1.1-1.51l.42-2.63a1.33,1.33,0,0,1,1.52-1.1l3.33.53A1.31,1.31,0,0,1,870.55,422.13Zm1.56-9.78-.42,2.63a1.32,1.32,0,0,1-1.51,1.1l-3.33-.53a1.34,1.34,0,0,1-1.1-1.52l.42-2.63a1.34,1.34,0,0,1,1.52-1.1l3.32.53A1.33,1.33,0,0,1,872.11,412.35Zm7.65,24a1.34,1.34,0,0,1-1.52,1.1l-3.32-.53a1.33,1.33,0,0,1-1.1-1.52l.42-2.63a1.32,1.32,0,0,1,1.51-1.1l3.33.54a1.32,1.32,0,0,1,1.1,1.51Zm1.56-9.79a1.33,1.33,0,0,1-1.52,1.1l-3.32-.53a1.32,1.32,0,0,1-1.1-1.51l.42-2.63a1.32,1.32,0,0,1,1.51-1.1l3.33.53a1.34,1.34,0,0,1,1.1,1.52Zm9.62,11.57a1.33,1.33,0,0,1-1.51,1.1l-3.33-.53a1.34,1.34,0,0,1-1.1-1.52l.42-2.62a1.32,1.32,0,0,1,1.51-1.1l3.33.53a1.32,1.32,0,0,1,1.1,1.51Zm1.56-9.78a1.32,1.32,0,0,1-1.52,1.09l-3.32-.53a1.32,1.32,0,0,1-1.1-1.51l.42-2.63a1.32,1.32,0,0,1,1.51-1.1l3.33.53a1.34,1.34,0,0,1,1.1,1.52Zm10,8.93-.42,2.63a1.32,1.32,0,0,1-1.51,1.1l-3.33-.53a1.33,1.33,0,0,1-1.1-1.51l.42-2.63a1.33,1.33,0,0,1,1.52-1.1l3.32.53A1.32,1.32,0,0,1,902.54,437.26Zm1.14-7.15a1.32,1.32,0,0,1-1.51,1.1l-3.33-.53a1.34,1.34,0,0,1-1.1-1.52l.42-2.63a1.32,1.32,0,0,1,1.51-1.1L903,426a1.34,1.34,0,0,1,1.1,1.52Zm10,8.94-.42,2.62a1.32,1.32,0,0,1-1.51,1.1l-3.33-.53a1.32,1.32,0,0,1-1.1-1.51l.42-2.63a1.34,1.34,0,0,1,1.52-1.1l3.32.53A1.33,1.33,0,0,1,913.72,439.05Zm1.56-9.79-.42,2.63a1.32,1.32,0,0,1-1.51,1.1l-3.33-.53a1.34,1.34,0,0,1-1.1-1.52l.42-2.63a1.33,1.33,0,0,1,1.52-1.09l3.32.53A1.32,1.32,0,0,1,915.28,429.26Z"/><path class="cls-1" d="M706.22,531.87a2.58,2.58,0,0,0-.42.11l1,.87c.24-.3.48-.6.71-.91A2.62,2.62,0,0,0,706.22,531.87Z"/><path class="cls-1" d="M652,584.92q-6.5,4.62-13.26,8.84a3.15,3.15,0,0,1,.14-1.16,3.23,3.23,0,0,1,.86-1.4L652,582.56a1.35,1.35,0,0,0-.33,1.88Z"/><path class="cls-1" d="M672,569.16q-5.73,5-11.74,9.58l-.19-.27a1.35,1.35,0,0,0-1.89-.33l12.25-8.64A3.22,3.22,0,0,1,672,569.16Z"/><path class="cls-2" d="M501.42,351.46l-2.14,5.67h4.27ZM520,349.65a2.63,2.63,0,0,0-1.93-.8h-3.24v5.43h3.24a2.7,2.7,0,0,0,2.72-2.7A2.69,2.69,0,0,0,520,349.65Zm0,0a2.63,2.63,0,0,0-1.93-.8h-3.24v5.43h3.24a2.7,2.7,0,0,0,2.72-2.7A2.69,2.69,0,0,0,520,349.65Zm-18.57,1.81-2.14,5.67h4.27Zm0,0-2.14,5.67h4.27ZM520,349.65a2.63,2.63,0,0,0-1.93-.8h-3.24v5.43h3.24a2.7,2.7,0,0,0,2.72-2.7A2.69,2.69,0,0,0,520,349.65Zm3.14,32.7a6.06,6.06,0,0,0-4.45-1.85h-1.63v12.61h1.63a6.11,6.11,0,0,0,4.45-1.86,6,6,0,0,0,1.83-4.44A6.11,6.11,0,0,0,523.13,382.35Zm0,0a6.06,6.06,0,0,0-4.45-1.85h-1.63v12.61h1.63a6.11,6.11,0,0,0,4.45-1.86,6,6,0,0,0,1.83-4.44A6.11,6.11,0,0,0,523.13,382.35ZM520,349.65a2.63,2.63,0,0,0-1.93-.8h-3.24v5.43h3.24a2.7,2.7,0,0,0,2.72-2.7A2.69,2.69,0,0,0,520,349.65Zm-18.57,1.81-2.14,5.67h4.27Zm-4.1,29.85a2.6,2.6,0,0,0-1.93-.81h-3.25v5.44h3.25a2.72,2.72,0,0,0,1.93-4.63Zm4.1-29.85-2.14,5.67h4.27ZM520,349.65a2.63,2.63,0,0,0-1.93-.8h-3.24v5.43h3.24a2.7,2.7,0,0,0,2.72-2.7A2.69,2.69,0,0,0,520,349.65Zm3.14,32.7a6.06,6.06,0,0,0-4.45-1.85h-1.63v12.61h1.63a6.11,6.11,0,0,0,4.45-1.86,6,6,0,0,0,1.83-4.44A6.11,6.11,0,0,0,523.13,382.35Zm0,0a6.06,6.06,0,0,0-4.45-1.85h-1.63v12.61h1.63a6.11,6.11,0,0,0,4.45-1.86,6,6,0,0,0,1.83-4.44A6.11,6.11,0,0,0,523.13,382.35ZM520,349.65a2.63,2.63,0,0,0-1.93-.8h-3.24v5.43h3.24a2.7,2.7,0,0,0,2.72-2.7A2.69,2.69,0,0,0,520,349.65Zm-18.57,1.81-2.14,5.67h4.27Zm-4.1,29.85a2.6,2.6,0,0,0-1.93-.81h-3.25v5.44h3.25a2.72,2.72,0,0,0,1.93-4.63ZM589,348.46a93.09,93.09,0,1,0,2,23.34A93,93,0,0,0,589,348.46Zm-127.22,15.9a11,11,0,0,1-6.75-2.64,1.35,1.35,0,0,1-.49-.92,1.29,1.29,0,0,1,.28-1,1.34,1.34,0,0,1,.92-.49,1.26,1.26,0,0,1,1,.3,7.83,7.83,0,0,0,5,2,5.24,5.24,0,0,0,3.21-.91,2.49,2.49,0,0,0,1.22-2c0-1.34-1.54-2.3-4.64-2.88h0a14.49,14.49,0,0,1-3.56-1.11,5,5,0,0,1-2.2-1.83,4.29,4.29,0,0,1-.7-2.31,4.5,4.5,0,0,1,2-3.77,7.78,7.78,0,0,1,7-1.08,9.51,9.51,0,0,1,1.81.74c.4.23.92.55,1.57,1a1.38,1.38,0,0,1,.57.87,1.27,1.27,0,0,1-.19,1,1.35,1.35,0,0,1-1.88.38,13.92,13.92,0,0,0-2.21-1.26,5,5,0,0,0-2-.43,4.72,4.72,0,0,0-2.85.82,2.26,2.26,0,0,0-1.11,1.74,1.36,1.36,0,0,0,.21.77c.5.81,1.82,1.41,4,1.82H462a16.65,16.65,0,0,1,3.64,1.11q3.27,1.61,3.27,4.43a4.79,4.79,0,0,1-2.16,4A8.26,8.26,0,0,1,461.74,364.36Zm21.91,28.38a1.21,1.21,0,0,1-.13.58v0a1.32,1.32,0,0,1-.5.63,9.45,9.45,0,0,1-6,2.06,9.55,9.55,0,0,1-6.89-2.76,9,9,0,0,1-2.84-6.71,9.1,9.1,0,0,1,2.84-6.74,9.53,9.53,0,0,1,6.89-2.78,9.38,9.38,0,0,1,6,2.06,1.37,1.37,0,0,1,.58,1,1.44,1.44,0,0,1-.29,1.12,1.46,1.46,0,0,1-1,.57,1.48,1.48,0,0,1-1.13-.32,7,7,0,0,0-4.39-1.42,6.35,6.35,0,0,0-4.53,1.9,6.29,6.29,0,0,0,0,9.17A6.62,6.62,0,0,0,477,393a7.11,7.11,0,0,0,3.61-1v-3.61h-3.77a1.44,1.44,0,0,1-1.05-.45,1.47,1.47,0,0,1-.45-1.07,1.39,1.39,0,0,1,.43-1,1.49,1.49,0,0,1,1.07-.42h5.25a1.53,1.53,0,0,1,1.08.42,1.38,1.38,0,0,1,.45,1.05Zm5.18-29.8a1.39,1.39,0,0,1-.43,1,1.43,1.43,0,0,1-1,.44,1.37,1.37,0,0,1-1-.43,1.39,1.39,0,0,1-.42-1V351.83l-3.8,5.28a1.42,1.42,0,0,1-1.19.6h-.05a1.45,1.45,0,0,1-1.22-.6l-3.77-5.28v11.11a1.36,1.36,0,0,1-.43,1,1.42,1.42,0,0,1-1,.43,1.47,1.47,0,0,1-1.46-1.45V347.37a1.45,1.45,0,0,1,1.46-1.45h.07a1.28,1.28,0,0,1,1.16.61l5.25,7.28,5.25-7.28a1.4,1.4,0,0,1,1.19-.61h0a1.57,1.57,0,0,1,1,.45,1.35,1.35,0,0,1,.43,1Zm12.76,32.23a1.5,1.5,0,0,1-1.29.61h0a2.08,2.08,0,0,1-1.87-1.22,7.39,7.39,0,0,1-.56-3.16,2.26,2.26,0,0,0-1.11-1.9,4.37,4.37,0,0,0-1.47-.63h-3.12v5.72a1.37,1.37,0,0,1-.43,1,1.45,1.45,0,0,1-1,.42,1.43,1.43,0,0,1-1.45-1.45V379a1.43,1.43,0,0,1,1.45-1.45h4.72a5.43,5.43,0,0,1,4,1.66,5.68,5.68,0,0,1,1.64,4.14,5.26,5.26,0,0,1-2,4.19,4.56,4.56,0,0,1,1.79,3.83,6.9,6.9,0,0,0,.11,1.56,1.35,1.35,0,0,1,.92.91A1.33,1.33,0,0,1,501.59,395.17Zm3-35.14h-6.4l-1.3,3.43a1.29,1.29,0,0,1-1.28.93,1.41,1.41,0,0,1-1.3-.65,1.47,1.47,0,0,1-.16-1.33L500,346.87a1.51,1.51,0,0,1,.57-.68,1.25,1.25,0,0,1,.83-.24,1.33,1.33,0,0,1,1.4.92l5.82,15.54a1.5,1.5,0,0,1-.15,1.33,1.43,1.43,0,0,1-1.31.65,1.25,1.25,0,0,1-1.25-.93Zm4.56,34.56a1.38,1.38,0,0,1-.44,1,1.45,1.45,0,0,1-1,.42,1.43,1.43,0,0,1-1.45-1.45V379a1.43,1.43,0,0,1,1.45-1.45,1.45,1.45,0,0,1,1,.42,1.38,1.38,0,0,1,.44,1ZM512.31,364a1.39,1.39,0,0,1-.42-1V347.37a1.41,1.41,0,0,1,.42-1,1.4,1.4,0,0,1,1-.42h4.72a5.45,5.45,0,0,1,4,1.66,5.65,5.65,0,0,1,1.65,4.14,5.27,5.27,0,0,1-2.06,4.2,4.55,4.55,0,0,1,1.79,3.82,6.9,6.9,0,0,0,.11,1.56,1.43,1.43,0,0,1,.71,2.22,1.52,1.52,0,0,1-1.29.6h0a2.08,2.08,0,0,1-1.87-1.21,7.44,7.44,0,0,1-.56-3.17,2.28,2.28,0,0,0-1.1-1.9,4.73,4.73,0,0,0-1.48-.63h-3.11v5.73a1.37,1.37,0,0,1-.44,1,1.42,1.42,0,0,1-1,.43A1.37,1.37,0,0,1,512.31,364Zm12.89,29.38a8.88,8.88,0,0,1-6.52,2.7h-3.11a1.43,1.43,0,0,1-1.45-1.45V379a1.43,1.43,0,0,1,1.45-1.45h3.11a9.24,9.24,0,0,1,6.52,15.76Zm15.85-44.93a1.4,1.4,0,0,1-1,.44h-4.19v14.09a1.45,1.45,0,0,1-1.45,1.45,1.37,1.37,0,0,1-1-.43,1.39,1.39,0,0,1-.42-1V348.85h-4.17a1.39,1.39,0,0,1-1-.44,1.43,1.43,0,0,1-.42-1,1.43,1.43,0,0,1,1.45-1.45H540a1.4,1.4,0,0,1,1,.42,1.45,1.45,0,0,1,0,2.07ZM518.68,380.5h-1.63v12.61h1.63a6.11,6.11,0,0,0,4.45-1.86,6,6,0,0,0,1.83-4.44,6.28,6.28,0,0,0-6.28-6.31Zm1.31-27a2.63,2.63,0,0,0,.79-1.91,2.69,2.69,0,0,0-.79-1.93,2.63,2.63,0,0,0-1.93-.8h-3.24v5.43h3.24A2.62,2.62,0,0,0,520,353.49Zm-20.71,3.64h4.27l-2.13-5.67Zm-3.89,23.37h-3.25v5.44h3.25a2.72,2.72,0,0,0,1.93-4.63A2.6,2.6,0,0,0,495.39,380.5Zm6-29-2.14,5.67h4.27ZM520,349.65a2.63,2.63,0,0,0-1.93-.8h-3.24v5.43h3.24a2.7,2.7,0,0,0,2.72-2.7A2.69,2.69,0,0,0,520,349.65Zm3.14,32.7a6.06,6.06,0,0,0-4.45-1.85h-1.63v12.61h1.63a6.11,6.11,0,0,0,4.45-1.86,6,6,0,0,0,1.83-4.44A6.11,6.11,0,0,0,523.13,382.35Zm0,0a6.06,6.06,0,0,0-4.45-1.85h-1.63v12.61h1.63a6.11,6.11,0,0,0,4.45-1.86,6,6,0,0,0,1.83-4.44A6.11,6.11,0,0,0,523.13,382.35ZM520,349.65a2.63,2.63,0,0,0-1.93-.8h-3.24v5.43h3.24a2.7,2.7,0,0,0,2.72-2.7A2.69,2.69,0,0,0,520,349.65Zm-18.57,1.81-2.14,5.67h4.27Zm0,0-2.14,5.67h4.27ZM520,349.65a2.63,2.63,0,0,0-1.93-.8h-3.24v5.43h3.24a2.7,2.7,0,0,0,2.72-2.7A2.69,2.69,0,0,0,520,349.65Zm0,0a2.63,2.63,0,0,0-1.93-.8h-3.24v5.43h3.24a2.7,2.7,0,0,0,2.72-2.7A2.69,2.69,0,0,0,520,349.65Zm-18.57,1.81-2.14,5.67h4.27Zm0,0-2.14,5.67h4.27Zm0,0-2.14,5.67h4.27Z"/><path class="cls-3" d="M196.66,342.5c0,.36,0,.71,0,1.07-.57-.35-1.12-.71-1.62-1.07.5-.36,1.05-.72,1.62-1.07C196.67,341.79,196.66,342.14,196.66,342.5Z"/><path class="cls-3" d="M196.87,346.27a19.3,19.3,0,0,1-2.48.78c-1.64.38-2.78.32-3-.17s.32-1.47,1.54-2.63a20.93,20.93,0,0,1,1.73-1.44c.64.46,1.34.92,2.09,1.36C196.74,344.89,196.79,345.59,196.87,346.27Z"/><path class="cls-3" d="M196.87,338.73c-.08.68-.13,1.38-.16,2.1-.75.44-1.45.9-2.09,1.36a20.93,20.93,0,0,1-1.73-1.44c-1.22-1.16-1.8-2.14-1.54-2.63.15-.28.58-.41,1.22-.41a8.59,8.59,0,0,1,1.82.24A19.3,19.3,0,0,1,196.87,338.73Z"/><path class="cls-3" d="M198.93,345.4c-.53.25-1.06.48-1.58.68,0-.51-.1-1-.13-1.6l.94.52Z"/><path class="cls-3" d="M198.93,339.6l-.77.4-.94.52c0-.56.08-1.09.13-1.6C197.87,339.12,198.4,339.35,198.93,339.6Z"/><path class="cls-3" d="M201.58,346.6c-.42,3.16-1.28,5.15-2.08,5.15s-1.66-2-2.08-5.15c.67-.27,1.37-.57,2.08-.92C200.21,346,200.91,346.33,201.58,346.6Z"/><path class="cls-3" d="M201.58,338.4c-.67.27-1.37.57-2.08.92-.71-.35-1.41-.65-2.08-.92.42-3.16,1.28-5.15,2.08-5.15S201.16,335.24,201.58,338.4Z"/><path class="cls-3" d="M201.78,344.48c0,.56-.08,1.09-.13,1.6-.52-.2-1.05-.43-1.58-.68l.77-.4Z"/><path class="cls-3" d="M201.78,340.52l-.94-.52-.77-.4c.53-.25,1.06-.48,1.58-.68C201.7,339.43,201.75,340,201.78,340.52Z"/><circle class="cls-3" cx="199.5" cy="342.5" r="1.13"/><path class="cls-3" d="M201.81,341.12c-.39-.23-.79-.46-1.2-.68s-.74-.39-1.11-.56c-.37.17-.74.36-1.11.56s-.81.45-1.2.68q0,.67,0,1.38t0,1.38c.39.23.79.46,1.2.68s.74.39,1.11.56c.37-.17.74-.36,1.11-.56s.81-.45,1.2-.68q0-.67,0-1.38T201.81,341.12Zm-2.31,3a1.63,1.63,0,1,1,1.63-1.63A1.63,1.63,0,0,1,199.5,344.13Z"/><path class="cls-3" d="M202.32,343.57c0-.36,0-.71,0-1.07s0-.71,0-1.07c.58.35,1.12.71,1.63,1.07C203.44,342.86,202.9,343.22,202.32,343.57Z"/><path class="cls-3" d="M207.65,346.88c-.26.49-1.4.55-3,.17a19.3,19.3,0,0,1-2.48-.78c.08-.68.13-1.38.16-2.1.75-.44,1.45-.9,2.09-1.36a20.93,20.93,0,0,1,1.73,1.44C207.33,345.41,207.91,346.39,207.65,346.88Z"/><path class="cls-3" d="M206.11,340.75a20.93,20.93,0,0,1-1.73,1.44c-.64-.46-1.34-.92-2.09-1.36,0-.72-.08-1.42-.16-2.1a19.3,19.3,0,0,1,2.48-.78,8.59,8.59,0,0,1,1.82-.24c.64,0,1.07.13,1.22.41C207.91,338.61,207.33,339.59,206.11,340.75Z"/><path class="cls-3" d="M311.17,360.32a186.13,186.13,0,0,1,29.47-93.41l-66.46-42.7a264.24,264.24,0,0,0-37.38,93.4c-1.28.28-2.93.65-4.84,1.05-6.8,1.43-16.77,3.33-24,3.86A172.26,172.26,0,0,1,169.78,321a1.1,1.1,0,0,0-.83-.52,1.14,1.14,0,0,0-.79.25,1.06,1.06,0,0,0-.37.73l-.77,9.12h-.09a7,7,0,0,0-5.31,2.65,4.19,4.19,0,0,0-1.71,1.41,5.36,5.36,0,0,0-1.07-.35A5.76,5.76,0,0,0,154.92,345a6.8,6.8,0,0,0-.46,1.36l-.09.45c-.26-.09-.53-.16-.8-.23a9,9,0,0,0-7.33,16.12,9,9,0,1,0,11.37-.53,8.94,8.94,0,0,0,2.81-4.78,8.56,8.56,0,0,0,.2-2.55,6.9,6.9,0,0,0,4.44-1.08l-.45,5.3a1,1,0,0,0,.25.78,1.12,1.12,0,0,0,.73.39,1,1,0,0,0,.9-.38,172.13,172.13,0,0,1,37.88,5,184.28,184.28,0,0,1,20.26,6.75h0c3,1.17,5.66,2.23,7.45,3a264.39,264.39,0,0,0,18.62,91.55l-33.63,19.67a1.66,1.66,0,0,0-.59,2.25l5,8.52a1.65,1.65,0,0,0,1.87.75,1.4,1.4,0,0,0,.38-.16L229,494l2,24.56,9.22-5.39,1.57,23.85,9.23-5.4.73,22.44,9.23-5.4-1.34,18.88,39.39-23a267.51,267.51,0,0,0,38.42,35.56l47.83-62.89A186.75,186.75,0,0,1,311.17,360.32ZM206.46,343.89c1,1,2.12,2.31,1.63,3.23a1.78,1.78,0,0,1-1.67.67,9.12,9.12,0,0,1-1.93-.25,19.57,19.57,0,0,1-2.43-.76c-.41,3.06-1.28,5.47-2.56,5.47s-2.15-2.41-2.56-5.47a19.57,19.57,0,0,1-2.43.76,9.12,9.12,0,0,1-1.93.25,1.78,1.78,0,0,1-1.67-.67c-.49-.92.62-2.27,1.63-3.23a19,19,0,0,1,1.66-1.39,19,19,0,0,1-1.66-1.39c-1-1-2.12-2.31-1.63-3.23s2.23-.73,3.6-.42a19.57,19.57,0,0,1,2.43.76c.41-3.06,1.28-5.47,2.56-5.47s2.15,2.41,2.56,5.47a19.57,19.57,0,0,1,2.43-.76c1.37-.31,3.1-.5,3.6.42s-.62,2.27-1.63,3.23a19,19,0,0,1-1.66,1.39A19,19,0,0,1,206.46,343.89Z"/><rect class="cls-3" x="204.99" y="491.74" width="7.4" height="13.16" rx="2" transform="translate(-223.03 173.52) rotate(-30.32)"/><rect class="cls-3" x="192.92" y="498.8" width="7.4" height="13.16" rx="2" transform="translate(-228.24 168.39) rotate(-30.32)"/><rect class="cls-3" x="180.14" y="506.28" width="7.4" height="13.16" rx="2" transform="translate(-233.76 162.96) rotate(-30.32)"/><rect class="cls-3" x="167.36" y="513.75" width="7.4" height="13.16" rx="2" transform="translate(-239.28 157.53) rotate(-30.32)"/><path class="cls-3" d="M166.78,530.93a4.11,4.11,0,0,1,4.82,6.61.25.25,0,0,1,0,.07h0a7,7,0,0,1,7.42,11.78,8.92,8.92,0,0,1,1.59,2,9.13,9.13,0,0,1,1.2,5.43,9,9,0,1,1-8,8.13,9,9,0,0,1-5.6-16.8q.36-.21.75-.39c-.09-.12-.17-.25-.25-.38a7.31,7.31,0,0,1-.59-1.31,5.76,5.76,0,0,1-4.42-10.52,5.2,5.2,0,0,1,1-.47A4.11,4.11,0,0,1,166.78,530.93Z"/><path class="cls-2" d="M235.79,413a174.45,174.45,0,0,0-21.12-4.26,137.47,137.47,0,0,0-30.49.11.85.85,0,0,1-.68.39.86.86,0,0,1-.61-.22.84.84,0,0,1-.29-.6l-.53-10.68a7,7,0,0,1-5.18,2.65,7.11,7.11,0,0,1,.68,4.87,7,7,0,0,1-7.5,5.43,8.17,8.17,0,0,1-.19,2.54,9,9,0,0,1-2.82,4.79,9,9,0,1,1-11.37.52A9,9,0,0,1,163,402.4a5.61,5.61,0,0,1,.8.23c0-.16,0-.31.09-.46a7,7,0,0,1,.46-1.36,5.76,5.76,0,0,1,3.92-10.72,5.39,5.39,0,0,1,1.07.36,4.21,4.21,0,0,1,1.71-1.42,7,7,0,0,1,10.54-.48l-.5-10.25a.83.83,0,0,1,.21-.61.88.88,0,0,1,.6-.29.86.86,0,0,1,.71.33A138.57,138.57,0,0,0,213,374.84c3.47-.73,7.68-2,11.63-3.24h0c3,1.17,5.66,2.23,7.45,3A264.29,264.29,0,0,0,235.79,413Z"/><path class="cls-2" d="M246.86,280.18a262,262,0,0,0-10.06,37.43c-1.28.28-2.93.65-4.84,1.05-3.55-1.81-7.3-3.61-10.45-4.83A137.9,137.9,0,0,0,192,306a.85.85,0,0,1-.75.21.87.87,0,0,1-.54-.38.78.78,0,0,1-.12-.65l1.33-6.17a6.92,6.92,0,0,1-3.3-2.68,4.15,4.15,0,0,1-1.58-1.56,4.9,4.9,0,0,1-1.1.25,5.75,5.75,0,0,1-3-11,7,7,0,0,1-.33-1.4c0-.15,0-.3-.05-.45a7.4,7.4,0,0,1-.82.15,9,9,0,0,1-5.88-16.7,9.05,9.05,0,1,1,11.28,1.53,8.92,8.92,0,0,1,2.38,5,8.36,8.36,0,0,1,0,2.55,7,7,0,0,1,6.64,4.66l.78-3.62a.85.85,0,0,1,.37-.54.86.86,0,0,1,.65-.12.84.84,0,0,1,.6.49,138,138,0,0,0,30.07,5.08A156.15,156.15,0,0,0,246.86,280.18Z"/><path class="cls-2" d="M850.3,225.42,814.8,206l4.63-5.64,6.23-21.75-1.69.64-11.83,24.86-2.86.12-.2,2-34.31,1.47-24.45,4.48,23.4-2.15,36.65-.42L809,211.15l-79,26.53q-6.16-11-13.32-21.25l42.47-28.79,2.68,3.28,3.17-4-.93-1.54,4.11,1,18.6,4.16,15.2,5.5-14.49-6.63L762.06,181l2.35-4.21,1.49-14.89-1,.62L760.11,180l-1.85.42.11,1.33-22.16,5-15.38,5.79,15-4.15,23.81-4.59-.72,1.14L712.4,210.52a264.79,264.79,0,0,0-20.84-25l45.69-61.28,1.84-.84L727.27,158.1l-9.33,21.57,11.87-21.83,12.1-32.15,2,.44,1-2.68,27.3-3.49,1.14-1.41-22.61-.86-6.8,2.64-7.36-39.77-6.91-23.08,5.06,23.92,2.35,28.71.67,6.36-2.11-1.71L729,118.68l4.35,4.69-49.18,54.57q-8.22-8.07-17.13-15.39L687.26,113l1.1-.88-2,25.55-2.55,16.23,4.23-16.85,2.58-23.88,1.41,0,.22-2L710.17,104l.53-1.15-15.46,3.37-4.14,3L679.17,83.57l-8.71-14.43,7.61,15.31,6.6,19,1.56,4.2-1.73-.79-3.83,3.81,3.76,2.42-23.34,44.7a264.41,264.41,0,0,0-121.63-52.61L542.33,93l29.31,8,3.81-41.77L517.76,43.49,514,85.26l26,7.09-2.93,12.5a268.66,268.66,0,0,0-63.48-1.76l-3-16.4,36.93-5.4L491.29,32.44,418.6,43.06l16.2,48.86,32.8-4.8,3,16.26a263.26,263.26,0,0,0-66.92,15.84l-4.6-10.62,27.73-10.86.55-.21-21.86-35.8L350.35,83.31l-.55.22,21.86,35.79,25.11-9.83,4.6,10.61A266.89,266.89,0,0,0,274.18,224.21l66.46,42.7a187.06,187.06,0,0,1,340.25,61.81l77.26-16.58a264.14,264.14,0,0,0-22.88-64.51l73.33-32.45,3.11,5.59,5.8-5.11-1-2.54,5.84,2.61,26.55,11.18,21.15,12.27ZM552.08,94.61l-7.68-2.09.77-9.75,7.68,2Zm-7.81-13.12-8.47-2.26.77-9.68L545,71.82Zm1,.26.76-9.67,7.68,2.06-.77,9.67Zm16.27,15.44-8.47-2.31.78-9.79,8.47,2.26Zm-7.61-13.12.77-9.67,8.47,2.27-.77,9.66ZM570.75,99.7l-8.25-2.25.79-9.84,8.36,2.24Zm1-10.86-8.37-2.24.76-9.67,8.49,2.27Zm-6.07-31.26L574.38,60l-.78,8.59L565,66.23Zm7.83,12-.79,8.65-8.5-2.27.69-8.68ZM556.22,55l8.48,2.31L564,66l-8.48-2.27Zm7.71,12-.69,8.68-8.47-2.27.68-8.68ZM547.56,52.65l7.68,2.09-.69,8.7-7.68-2Zm6.91,11.8-.69,8.68-7.68-2.06.69-8.68ZM538.12,50.07l8.46,2.31-.7,8.74-8.46-2.26Zm7.68,12.06-.68,8.68-8.47-2.26.69-8.68ZM528.66,47.5l8.48,2.31-.7,8.78L528,56.33Zm7.7,12.1-.69,8.68L527.19,66l.69-8.69ZM518.65,44.77l9,2.46-.7,8.83-9.15-2.44Zm-.9,9.85,9.16,2.45-.69,8.68L517,63.28Zm6.78,32.49L515,84.52l.87-9.58,9.39,2.51ZM516,73.93l.88-9.65,9.27,2.48-.77,9.68Zm18,15.75-8.47-2.31.77-9.66L534.74,80Zm-7.62-13,.76-9.68,8.48,2.27L534.82,79ZM535,90l.77-9.71,8.47,2.27-.77,9.74ZM400.42,107l-5.2-8.29,7.4-2.93,5.22,8.31Zm-3.09-21.54-4.62-7.37,8.15-3.23,4.62,7.37ZM406,83.08l5.15,8.21L403,94.53l-5.15-8.22Zm-9.64,2.75L389,88.76l-4.62-7.37,7.39-2.93Zm-8.33,3.31-8.15,3.23L375.28,85l8.14-3.24Zm-9.1,3.6L370.8,96l-4.62-7.37,8.15-3.24Zm.54.87,5.15,8.21-8.14,3.24-5.16-8.22Zm.95-.38L388.59,90l5.15,8.21-8.15,3.24Zm9.09-3.61,7.39-2.93,5.16,8.21-7.4,2.94Zm19.25,14.09-5.22-8.32,8.15-3.23,5.24,8.36ZM425.86,97l-8,3.12-5.24-8.37,8-3.19Zm-5.69-9.31-8.06,3.2L407,82.71l8.17-3.24ZM414.6,78.6l-8.18,3.24-4.62-7.37,8.27-3.28ZM405.05,63l4.49,7.36-8.28,3.28-4.61-7.35Zm-9.34,3.65L400.32,74l-8.15,3.24-4.64-7.39Zm-9.13,3.58,4.64,7.4-7.39,2.93-4.66-7.43Zm-8.36,3.27,4.66,7.43-8.14,3.23-4.68-7.46ZM369.11,77l4.68,7.47-8.15,3.23-4.71-7.5Zm-17.84,7L360,80.61l4.71,7.51-8.8,3.48Zm5.16,8.45L365.24,89l4.62,7.37L361,99.88Zm5.06,8.28,8.91-3.53,5.15,8.21-9,3.58Zm10.59,17.33-5-8.2,9-3.58,5.14,8.2Zm10.11-4-5.15-8.2,8.14-3.23,5.17,8.24Zm9.11-3.56-5.17-8.25,8.15-3.23,5.2,8.28Zm81.33-25.18-4-11.63,9.92-1.5,4,11.68Zm2.28-26.72-3.58-10.37,10.93-1.65L485.83,57ZM486.16,58l4,11.52-10.91,1.65-4-11.53Zm-12.25.84L464,60.31,460.4,49.94l9.93-1.5ZM463,60.46,452.05,62.1l-3.57-10.36,10.92-1.65Zm-11.92,1.79L440.12,63.9l-3.57-10.37,10.92-1.64Zm.33,1,4,11.53-10.92,1.65-4-11.53Zm1-.15,10.92-1.65,4,11.53-10.92,1.65Zm11.93-1.8,9.93-1.49,4,11.52-9.93,1.5Zm19.27,22.52-4-11.68,10.91-1.65,4.05,11.74Zm22.6-3.3L495.52,82l-4-11.74,10.79-1.63Zm-4.24-12.77-10.8,1.63-4-11.53,10.94-1.65Zm-4.14-12.5-11,1.65-3.58-10.37,11.09-1.67Zm-7.19-21.66L494,43.86l-11.1,1.67-3.56-10.34Zm-12.24,1.79,3.56,10.34L471,47.33l-3.58-10.39Zm-11.95,1.75L470,47.48,460.07,49l-3.6-10.44Zm-10.95,1.6,3.6,10.44-10.93,1.64-3.61-10.49Zm-11.94,1.74,3.61,10.5-10.92,1.64L432.58,42Zm-23.61,3.45,11.66-1.7,3.63,10.54L423.44,54.5Zm3.84,11.58,11.78-1.77,3.58,10.36-11.91,1.8Zm3.77,11.35L439.45,65l4,11.54-12.06,1.82Zm8,24-3.81-11.48,12.08-1.82,4,11.51Zm13.25-1.94-4-11.51,10.91-1.65,4,11.57Zm11.94-1.74-4-11.57,10.92-1.65,4,11.62Z"/><text class="cls-4" transform="translate(13.86 319.08)">Nuclear<tspan x="0" y="19.63">Power</tspan><tspan x="0" y="39.25">Plant</tspan></text><line class="cls-5" x1="1" y1="266" x2="1" y2="400.59"/><text class="cls-4" transform="translate(819.86 54.08)">Wind<tspan x="0" y="19.63">Power</tspan><tspan x="0" y="39.25">Plant</tspan></text><line class="cls-5" x1="807" y1="1" x2="807" y2="135.59"/><text class="cls-4" transform="translate(92.86 592.08)">Thermal<tspan x="0" y="19.63">Power</tspan><tspan x="0" y="39.25">Plant</tspan></text><line class="cls-5" x1="80" y1="539" x2="80" y2="673.59"/><text class="cls-4" transform="translate(910.86 274.08)">Cities<tspan x="0" y="19.63">and</tspan><tspan x="0" y="39.25">Offices</tspan></text><line class="cls-5" x1="898" y1="221" x2="898" y2="355.59"/><text class="cls-4" transform="translate(261.86 699.41)">Factories</text><line class="cls-5" x1="249" y1="729" x2="249" y2="659"/><text class="cls-4" transform="translate(739.86 659.1)">Smart<tspan x="0" y="19.63">Houses</tspan></text><line class="cls-5" x1="727" y1="610" x2="727" y2="717"/><text class="cls-4" transform="translate(248.86 70.1)">Solar<tspan x="0" y="19.63">Power</tspan></text><line class="cls-5" x1="236" y1="21" x2="236" y2="128"/></g></g></svg>