<svg xmlns="http://www.w3.org/2000/svg" viewBox="0 0 780.44 722.68"><defs><style>.cls-1{fill:#3498db;}.cls-2{fill:#2980b9;}.cls-3{fill:#34495e;}</style></defs><title>smart-energy</title><g id="Layer_2" data-name="Layer 2"><g id="Layer_1-2" data-name="Layer 1"><path class="cls-1" d="M552.82,544.25a2.21,2.21,0,0,1,.56-1.69,2.18,2.18,0,0,1,1.4-.71l27.56-2.74h0v0l-.09-27.69a2.2,2.2,0,0,1,2.18-2.2,2.2,2.2,0,0,1,2.2,2.18l.09,29.83a2.18,2.18,0,0,1-.49,1.39h0a2.19,2.19,0,0,1-1.33.63l-29.68,3A2.19,2.19,0,0,1,552.82,544.25Z"/><path class="cls-1" d="M563.68,499.43a2.58,2.58,0,0,0-.42.11l1,.87c.24-.3.48-.6.71-.91A2.62,2.62,0,0,0,563.68,499.43Z"/><polygon class="cls-1" points="590.65 534.94 587.84 532.4 587.78 523.85 594.88 530.26 590.65 534.94"/><path class="cls-1" d="M593.54,534.16a1,1,0,0,1,.22-.18,4.55,4.55,0,0,1,2.69-.61,2.65,2.65,0,0,1,2.7,2.84,2.76,2.76,0,0,1-.28,1.22,2.35,2.35,0,0,0-.17.51,2,2,0,0,0,.17,1.52c.18.14.67,0,1.09,0a3.68,3.68,0,0,0,1.61-.7.9.9,0,1,1,1.08,1.44,5.39,5.39,0,0,1-2.39,1,3,3,0,0,1-2.5-.34c-1.23-1-.91-2.91-.83-3.29a3.72,3.72,0,0,1,.29-.88,1,1,0,0,0,.12-.49,1.17,1.17,0,0,0-.21-.78,1.3,1.3,0,0,0-.86-.28,2.76,2.76,0,0,0-1.61.38.9.9,0,0,1-1.12-1.38Z"/><path class="cls-2" d="M505,586.33a2.62,2.62,0,0,1,2.93-2.28l33,4.08h0v0l7.23-32.45a2.63,2.63,0,0,1,1.05-1.58,2.68,2.68,0,0,1,2.09-.42,2.63,2.63,0,0,1,2,3.14l-7.79,35a2.64,2.64,0,0,1-.94,1.49h0a2.71,2.71,0,0,1-1.73.39l-35.55-4.4A2.62,2.62,0,0,1,505,586.33Z"/><path class="cls-2" d="M531.29,537.33a3.29,3.29,0,0,0-1.75-.61h0a3.22,3.22,0,0,0-1.57.34l-12.25,8.64a1.35,1.35,0,0,1,1.89.33l.19.27,7.73,11a1.36,1.36,0,0,1-.32,1.89l-6.27,4.41a1.35,1.35,0,0,1-1.88-.32l-7.59-10.76-.34-.48a1.35,1.35,0,0,1,.33-1.88l-12.25,8.64a3.23,3.23,0,0,0-.86,1.4,3.15,3.15,0,0,0-.14,1.16,3.25,3.25,0,0,0,.12.7L511,582.9l28.52,3.28,6.49-28Zm-19.14,28.6-4.06,2.87a1,1,0,0,1-1.36-.23l-2.87-4.07a1,1,0,0,1,.23-1.36l4.07-2.87a1,1,0,0,1,1.36.23l2.87,4.07A1,1,0,0,1,512.15,565.93Zm21.57-15.21-4.07,2.87a1,1,0,0,1-1.36-.23l-2.87-4.07a1,1,0,0,1,.24-1.36l4.07-2.87a1,1,0,0,1,1.35.24l2.87,4.07A1,1,0,0,1,533.72,550.72Z"/><polygon class="cls-2" points="551.72 585.45 549.1 581.73 551.29 571.71 557.91 581.08 551.72 585.45"/><path class="cls-2" d="M555.32,585.29a1.4,1.4,0,0,1,.3-.15,5.47,5.47,0,0,1,3.3,0,3.56,3.56,0,0,1,2.13,1.53,3.44,3.44,0,0,1,.28,2.51,3.24,3.24,0,0,1-.64,1.36,2.68,2.68,0,0,0-.34.56c-.28.62-.43,1.52-.19,1.81s.76.25,1.28.27a4.44,4.44,0,0,0,2.07-.39,1.08,1.08,0,0,1,.88,2,6.7,6.7,0,0,1-3.07.58,3.67,3.67,0,0,1-2.84-1.07c-1.19-1.45-.3-3.64-.11-4.07a5.55,5.55,0,0,1,.57-1,1.07,1.07,0,0,0,.28-.55,1.35,1.35,0,0,0-.05-1,1.48,1.48,0,0,0-.93-.55,3.29,3.29,0,0,0-2,0,1.08,1.08,0,0,1-.94-1.92Z"/><path class="cls-1" d="M458.27,601.2a2,2,0,0,1,1.05-1.21,2,2,0,0,1,1.42-.09l23.87,7.43h0l9.69-23.05a2,2,0,0,1,1-1,1.94,1.94,0,0,1,1.6,0,2,2,0,0,1,1,2.58l-10.44,24.83a2,2,0,0,1-.9,1h0a2,2,0,0,1-1.33,0l-25.71-8A2,2,0,0,1,458.27,601.2Z"/><path class="cls-1" d="M729.44,319.47a3.83,3.83,0,0,0-3.85-3.8l-22.35.13v-1.73a3.84,3.84,0,0,0-3.85-3.81l-43.43.27,0-4a3.83,3.83,0,0,0-3.85-3.81l-31,.19a3.61,3.61,0,0,0-1.5.32q-1.44-11.9-3.93-23.48l-77.26,16.58a186.91,186.91,0,0,1,4,46.94C538.08,446.41,451,526.63,347.8,522.39a186.09,186.09,0,0,1-105-37.61l-47.83,62.89a265.27,265.27,0,0,0,46.13,28.09c1.91.91,3.85,1.81,5.79,2.68l-9.73,40.38a1.39,1.39,0,0,0,0,.41,1.64,1.64,0,0,0,1.25,1.57l9.6,2.31a1.64,1.64,0,0,0,1.83-.82,1.68,1.68,0,0,0,.16-.39l1.44-6,19.07,15.6,2.51-10.4,18.28,15.4,2.51-10.39,16.68,15,2.51-10.39,12.68,14,0-.09a1.65,1.65,0,0,0,1.05.28l9.84-.82a1.65,1.65,0,0,0,1.48-1.36,1.48,1.48,0,0,0,0-.42l-.51-6.15,23,8.8-.9-10.66,22.21,8.86-.9-10.65,20.56,9-.9-10.66,16.47,9.35-3.77-45a265,265,0,0,0,41.88-13l8,17.25,20.67,6.23,8.54-19.82-8.11-17.41-.1-.1q6.07-3.37,12-7a3.15,3.15,0,0,1,.14-1.16,3.23,3.23,0,0,1,.86-1.4l12.25-8.64a1.35,1.35,0,0,0-.33,1.88l.34.48q4.23-3,8.33-6.18l-.19-.27a1.35,1.35,0,0,0-1.89-.33l12.25-8.64a3.22,3.22,0,0,1,1.57-.34q5.52-4.77,10.78-9.86l1-.93.08.16,2,1.77,13.84,12.49,23.77-2.58.14-23.91-13.79-12.45-2-1.81-.28-.1c-.23.31-.47.61-.71.91l-1-.87a2.58,2.58,0,0,1,.42-.11,2.62,2.62,0,0,1,1.26.07,264.36,264.36,0,0,0,31.73-51.64l28.06,10.54a3.83,3.83,0,0,0,4.93-2.23l1.42-3.79,40.66,15.27a3.83,3.83,0,0,0,4.93-2.24l.61-1.62,20.92,7.86a3.83,3.83,0,0,0,4.93-2.23l3.74-10a3.83,3.83,0,0,0-2.24-4.93l-20.92-7.86.61-1.62a3.83,3.83,0,0,0-2.23-4.93l-40.66-15.27,1.42-3.79a3.83,3.83,0,0,0-.57-3.72l-20.15-3.21.55.21a.86.86,0,0,1,.5,1.11l-.61,1.63a.86.86,0,0,1-1.11.51l-2.07-.78a.87.87,0,0,1-.51-1.11l.62-1.63a.72.72,0,0,1,.21-.32l-3.6-.57-.48,1.29a.86.86,0,0,1-1.11.51l-2.07-.77a.86.86,0,0,1-.5-1.12l.2-.55-1.84-.29h-.07c.69-2.25,1.33-4.52,1.94-6.8a265,265,0,0,0,9-57.41c0-.52.06-1,.08-1.56,0-.78.06-1.55.08-2.33l23.59,3.76,7.42-.05a3.82,3.82,0,0,0,3.81-3.85l0-4,43.43-.27a3.82,3.82,0,0,0,3.81-3.85V334.1L725.7,334a3.83,3.83,0,0,0,3.8-3.85ZM466.32,587.06l-3.39,1.58a.74.74,0,0,1-1-.35l-1.58-3.39a.74.74,0,0,1,.36-1l3.39-1.58a.74.74,0,0,1,1,.35l1.58,3.4A.73.73,0,0,1,466.32,587.06Zm10.53-3.27-5.23,2.42a1,1,0,0,1-1.34-.49l-3.89-8.34c2.36-1.09,4.71-2.21,7-3.37l3.92,8.42A1,1,0,0,1,476.85,583.79Zm7.81-6.07a.73.73,0,0,1-.35,1l-3.4,1.59a.72.72,0,0,1-1-.37l-1.58-3.39a.73.73,0,0,1,.36-1l3.39-1.58a.72.72,0,0,1,1,.36Zm70.26-51.37-2.78,3.08a.81.81,0,0,1-1.14.06l-3.08-2.78a.82.82,0,0,1-.06-1.15l2.78-3.07a.81.81,0,0,1,1.15-.06l3.07,2.77A.81.81,0,0,1,554.92,526.35Zm9.32-7.9L560,523.19a1.12,1.12,0,0,1-1.59.08l-5.6-5-2.14-1.93c1.68-1.8,3.32-3.63,4.94-5.47l.83-1,2.17,2,5.59,5A1.12,1.12,0,0,1,564.24,518.45Zm1.12-12.28a.82.82,0,0,1,1.15-.06l3.08,2.78a.82.82,0,0,1,.06,1.15l-2.78,3.07a.81.81,0,0,1-1.15.06l-3.08-2.78a.81.81,0,0,1,0-1.14Zm42-80.95.62-1.63a.86.86,0,0,1,1.11-.5l2.07.77a.87.87,0,0,1,.5,1.12l-.61,1.63a.86.86,0,0,1-1.12.5l-2.06-.77A.87.87,0,0,1,607.38,425.22Zm-2.28,6.08.61-1.64a.87.87,0,0,1,1.12-.5l2.06.77a.87.87,0,0,1,.51,1.12l-.61,1.63a.88.88,0,0,1-1.12.51l-2.06-.78A.86.86,0,0,1,605.1,431.3Zm-.26,11.89-.61,1.63a.87.87,0,0,1-1.12.51l-2.07-.78a.86.86,0,0,1-.5-1.11l.61-1.63a.87.87,0,0,1,1.12-.51l2.06.78A.86.86,0,0,1,604.84,443.19Zm2.28-6.07-.61,1.63a.87.87,0,0,1-1.12.51l-2.06-.78a.86.86,0,0,1-.51-1.11l.61-1.63a.87.87,0,0,1,1.12-.51l2.06.78A.86.86,0,0,1,607.12,437.12Zm4.66,8.68-.62,1.63a.86.86,0,0,1-1.11.51l-2.07-.78a.87.87,0,0,1-.5-1.11l.61-1.63a.87.87,0,0,1,1.12-.51l2.06.77A.88.88,0,0,1,611.78,445.8Zm2.28-6.07-.61,1.63a.88.88,0,0,1-1.12.51l-2.06-.78a.87.87,0,0,1-.51-1.12l.61-1.63a.87.87,0,0,1,1.12-.5l2.06.77A.87.87,0,0,1,614.06,439.73Zm-2-5.83.61-1.63a.86.86,0,0,1,1.12-.5l2.06.77a.87.87,0,0,1,.51,1.12l-.61,1.63a.87.87,0,0,1-1.12.5l-2.06-.77A.87.87,0,0,1,612,433.9Zm6.68,14.51L618.1,450a.85.85,0,0,1-1.11.5l-2.07-.77a.87.87,0,0,1-.5-1.12L615,447a.87.87,0,0,1,1.12-.5l2.06.77A.88.88,0,0,1,618.72,448.41Zm2.28-6.07-.62,1.63a.86.86,0,0,1-1.11.5l-2.07-.77a.87.87,0,0,1-.5-1.12l.61-1.63a.88.88,0,0,1,1.12-.51l2.06.78A.87.87,0,0,1,621,442.34Zm-2-5.83.61-1.63a.87.87,0,0,1,1.12-.51l2.06.78a.86.86,0,0,1,.51,1.11l-.61,1.63a.87.87,0,0,1-1.12.51l-2.06-.77A.87.87,0,0,1,619,436.51Zm6.68,14.5-.62,1.64a.87.87,0,0,1-1.11.5l-2.07-.77a.87.87,0,0,1-.5-1.12l.61-1.63a.87.87,0,0,1,1.11-.51l2.07.78A.87.87,0,0,1,625.66,451Zm2.28-6.07-.62,1.63a.86.86,0,0,1-1.11.51l-2.07-.78a.86.86,0,0,1-.5-1.11l.61-1.63a.87.87,0,0,1,1.12-.51l2.06.78A.87.87,0,0,1,627.94,444.94Zm2.28-6.07-.61,1.63a.87.87,0,0,1-1.12.51l-2.06-.78a.86.86,0,0,1-.51-1.11l.61-1.63a.87.87,0,0,1,1.12-.51l2.06.78A.86.86,0,0,1,630.22,438.87Zm-2-5.83.61-1.63a.87.87,0,0,1,1.12-.5l2.06.77a.87.87,0,0,1,.51,1.12l-.61,1.63a.88.88,0,0,1-1.12.51l-2.06-.78A.87.87,0,0,1,628.2,433Zm6.68,14.51-.62,1.63a.86.86,0,0,1-1.11.51l-2.07-.78a.87.87,0,0,1-.5-1.11l.61-1.63a.87.87,0,0,1,1.12-.51l2.06.77A.88.88,0,0,1,634.88,447.55Zm2.28-6.07-.62,1.63a.86.86,0,0,1-1.11.51l-2.07-.78a.87.87,0,0,1-.5-1.12l.61-1.63a.87.87,0,0,1,1.12-.5l2.06.77A.87.87,0,0,1,637.16,441.48Zm-2-5.83.61-1.63a.86.86,0,0,1,1.12-.5l2.06.77a.87.87,0,0,1,.51,1.12l-.61,1.63a.87.87,0,0,1-1.12.5l-2.06-.77A.87.87,0,0,1,635.14,435.65Zm6.68,14.51-.62,1.63a.87.87,0,0,1-1.11.5l-2.07-.77a.87.87,0,0,1-.5-1.12l.61-1.63a.87.87,0,0,1,1.11-.5l2.07.77A.88.88,0,0,1,641.82,450.16Zm2.28-6.07-.62,1.63a.86.86,0,0,1-1.11.5l-2.07-.77a.87.87,0,0,1-.5-1.12l.61-1.63a.88.88,0,0,1,1.12-.51l2.06.78A.88.88,0,0,1,644.1,444.09Zm4.65,8.67-.61,1.64a.87.87,0,0,1-1.11.5l-2.07-.77a.87.87,0,0,1-.5-1.12l.61-1.63a.87.87,0,0,1,1.11-.51l2.07.78A.87.87,0,0,1,648.75,452.76Zm2.29-6.07-.62,1.63a.86.86,0,0,1-1.11.51l-2.07-.78a.86.86,0,0,1-.5-1.11l.61-1.63a.87.87,0,0,1,1.12-.51l2.06.78A.87.87,0,0,1,651,446.69Zm4.65,8.68-.61,1.63a.86.86,0,0,1-1.11.51l-2.07-.78a.87.87,0,0,1-.51-1.11L652,454a.86.86,0,0,1,1.11-.51l2.07.78A.86.86,0,0,1,655.69,455.37ZM658,449.3l-.62,1.63a.87.87,0,0,1-1.11.51l-2.07-.78a.87.87,0,0,1-.5-1.11l.61-1.64a.87.87,0,0,1,1.11-.5l2.07.77A.88.88,0,0,1,658,449.3Zm4.65,8.68-.61,1.63a.88.88,0,0,1-1.12.51l-2.06-.78a.88.88,0,0,1-.51-1.12l.62-1.63a.86.86,0,0,1,1.11-.5l2.07.77A.87.87,0,0,1,662.63,458Zm2.28-6.07-.61,1.63a.87.87,0,0,1-1.11.5l-2.07-.77a.86.86,0,0,1-.5-1.12l.61-1.63a.87.87,0,0,1,1.11-.5l2.07.77A.87.87,0,0,1,664.91,451.91Zm4.66,8.68-.61,1.63a.87.87,0,0,1-1.12.5l-2.06-.77a.88.88,0,0,1-.51-1.12l.62-1.63a.86.86,0,0,1,1.11-.51l2.07.78A.87.87,0,0,1,669.57,460.59Zm2.28-6.08-.61,1.64a.87.87,0,0,1-1.11.5l-2.07-.77a.88.88,0,0,1-.51-1.12l.62-1.63a.87.87,0,0,1,1.11-.51l2.07.78A.87.87,0,0,1,671.85,454.51Zm6.94,2.61-.61,1.63a.87.87,0,0,1-1.12.51l-2.06-.78a.87.87,0,0,1-.51-1.11l.62-1.63a.86.86,0,0,1,1.11-.51l2.07.78A.86.86,0,0,1,678.79,457.12Zm18.8,2,.62-1.63a.86.86,0,0,1,1.11-.51l2.07.78a.86.86,0,0,1,.5,1.11l-.61,1.63a.87.87,0,0,1-1.12.51l-2.06-.78A.86.86,0,0,1,697.59,459.12Zm-2.28,6.07.61-1.63a.87.87,0,0,1,1.12-.51l2.06.78a.86.86,0,0,1,.51,1.11l-.61,1.63a.87.87,0,0,1-1.12.51l-2.06-.78A.86.86,0,0,1,695.31,465.19Zm-4.66-8.68.62-1.63a.86.86,0,0,1,1.11-.51l2.07.78a.87.87,0,0,1,.5,1.11l-.61,1.63a.87.87,0,0,1-1.12.51l-2.06-.77A.88.88,0,0,1,690.65,456.51Zm-2.28,6.07L689,461a.88.88,0,0,1,1.12-.51l2.07.78a.87.87,0,0,1,.5,1.12l-.61,1.63a.87.87,0,0,1-1.12.5l-2.06-.77A.87.87,0,0,1,688.37,462.58Zm-4.66-8.68.62-1.63a.86.86,0,0,1,1.11-.5l2.07.77a.87.87,0,0,1,.5,1.12l-.61,1.63a.87.87,0,0,1-1.11.5l-2.07-.77A.88.88,0,0,1,683.71,453.9ZM681.43,460l.62-1.63a.86.86,0,0,1,1.11-.5l2.07.77a.87.87,0,0,1,.5,1.12l-.61,1.63a.88.88,0,0,1-1.12.51l-2.06-.78A.88.88,0,0,1,681.43,460Zm-4.65-8.67.61-1.64a.87.87,0,0,1,1.11-.5l2.07.77a.87.87,0,0,1,.5,1.12l-.61,1.63a.87.87,0,0,1-1.11.51l-2.07-.78A.86.86,0,0,1,676.78,451.3Zm-4.66-8.68.61-1.63a.87.87,0,0,1,1.12-.51l2.06.77a.88.88,0,0,1,.51,1.12L675.8,444a.86.86,0,0,1-1.11.51l-2.07-.78A.87.87,0,0,1,672.12,442.62Zm-2.28,6.07.61-1.63a.86.86,0,0,1,1.11-.51l2.07.78a.85.85,0,0,1,.5,1.11l-.61,1.63a.86.86,0,0,1-1.11.51l-2.07-.78A.86.86,0,0,1,669.84,448.69ZM665.18,440l.61-1.63a.87.87,0,0,1,1.12-.51l2.06.78a.87.87,0,0,1,.51,1.11l-.62,1.63a.86.86,0,0,1-1.11.51l-2.07-.78A.86.86,0,0,1,665.18,440Zm-2.28,6.07.61-1.63a.87.87,0,0,1,1.11-.51l2.07.78a.88.88,0,0,1,.51,1.12l-.62,1.63a.86.86,0,0,1-1.11.5l-2.07-.77A.87.87,0,0,1,662.9,446.08Zm-4.66-8.68.61-1.63a.88.88,0,0,1,1.12-.51L662,436a.87.87,0,0,1,.51,1.12l-.61,1.63a.87.87,0,0,1-1.12.5l-2.07-.77A.87.87,0,0,1,658.24,437.4ZM656,443.47l.61-1.63a.87.87,0,0,1,1.12-.5l2.06.77a.88.88,0,0,1,.51,1.12l-.62,1.63a.87.87,0,0,1-1.11.51l-2.07-.78A.87.87,0,0,1,656,443.47Zm-4.66-8.68.61-1.63a.87.87,0,0,1,1.12-.5l2.06.77a.87.87,0,0,1,.51,1.12l-.61,1.63a.88.88,0,0,1-1.12.51l-2.06-.78A.87.87,0,0,1,651.3,434.79ZM649,440.87l.61-1.63a.87.87,0,0,1,1.12-.51l2.06.78a.86.86,0,0,1,.51,1.11l-.62,1.63a.86.86,0,0,1-1.11.51l-2.07-.78A.87.87,0,0,1,649,440.87Zm-4.66-8.68.61-1.63a.87.87,0,0,1,1.12-.51l2.06.78a.86.86,0,0,1,.51,1.11l-.61,1.63a.87.87,0,0,1-1.12.51l-2.06-.78A.86.86,0,0,1,644.36,432.19Zm-2.28,6.07.61-1.63a.87.87,0,0,1,1.12-.51l2.06.78a.86.86,0,0,1,.51,1.11l-.61,1.63a.87.87,0,0,1-1.12.51l-2.06-.77A.87.87,0,0,1,642.08,438.26Zm-4.66-8.68L638,428a.88.88,0,0,1,1.12-.51l2.06.78a.86.86,0,0,1,.51,1.11l-.61,1.64a.87.87,0,0,1-1.12.5l-2.06-.77A.87.87,0,0,1,637.42,429.58Zm-4.66-8.68.62-1.63a.86.86,0,0,1,1.11-.51l2.07.78a.87.87,0,0,1,.5,1.12l-.61,1.63a.87.87,0,0,1-1.12.5l-2.06-.77A.88.88,0,0,1,632.76,420.9ZM630.48,427l.61-1.63a.87.87,0,0,1,1.12-.5l2.06.77a.87.87,0,0,1,.51,1.12l-.61,1.63a.87.87,0,0,1-1.12.5l-2.06-.77A.87.87,0,0,1,630.48,427Zm-4.66-8.68.62-1.63a.86.86,0,0,1,1.11-.5l2.07.77a.87.87,0,0,1,.5,1.12l-.61,1.63a.88.88,0,0,1-1.12.51l-2.06-.78A.88.88,0,0,1,625.82,418.29Zm-2.28,6.08.62-1.63a.86.86,0,0,1,1.11-.51l2.07.77a.87.87,0,0,1,.5,1.12l-.61,1.63a.87.87,0,0,1-1.12.51l-2.06-.78A.86.86,0,0,1,623.54,424.37Zm-2.28,6.07.61-1.63a.87.87,0,0,1,1.12-.51l2.06.78a.86.86,0,0,1,.51,1.11l-.61,1.63a.87.87,0,0,1-1.12.51l-2.06-.78A.86.86,0,0,1,621.26,430.44Zm-4.66-8.68.62-1.63a.86.86,0,0,1,1.11-.51l2.07.78a.87.87,0,0,1,.5,1.11l-.61,1.63a.87.87,0,0,1-1.12.51l-2.06-.78A.86.86,0,0,1,616.6,421.76Zm-2.28,6.07.61-1.63a.88.88,0,0,1,1.12-.51l2.06.78a.86.86,0,0,1,.51,1.11l-.61,1.64a.87.87,0,0,1-1.12.5l-2.06-.77A.87.87,0,0,1,614.32,427.83Zm-4-10.31a.87.87,0,0,1,1.11-.51l2.07.78a.87.87,0,0,1,.5,1.12l-.61,1.63a.87.87,0,0,1-1.12.5l-2.06-.77a.88.88,0,0,1-.51-1.12ZM624.2,308.34a.86.86,0,0,1,.86-.87h2.2a.86.86,0,0,1,.87.86v1.74a.86.86,0,0,1-.86.87h-2.2a.86.86,0,0,1-.87-.86Zm0,6.49a.86.86,0,0,1,.86-.87l2.2,0a.87.87,0,0,1,.87.86v1.75a.87.87,0,0,1-.86.87h-2.2a.86.86,0,0,1-.87-.86Zm0,6.48a.88.88,0,0,1,.87-.87h2.2a.86.86,0,0,1,.87.86V323a.86.86,0,0,1-.86.87l-2.2,0a.88.88,0,0,1-.88-.86Zm0,6.49a.87.87,0,0,1,.86-.87l2.21,0a.87.87,0,0,1,.87.87v1.74a.87.87,0,0,1-.86.87h-2.2a.87.87,0,0,1-.88-.86Zm0,6.49a.88.88,0,0,1,.86-.88h2.21a.86.86,0,0,1,.87.86V336a.88.88,0,0,1-.86.88h-2.21a.88.88,0,0,1-.87-.86Zm3.13,9.07h-2.21a.87.87,0,0,1-.87-.86v-1.74a.87.87,0,0,1,.86-.87h2.21a.86.86,0,0,1,.87.86v1.74A.86.86,0,0,1,627.48,343.36Zm4.13-35.06a.88.88,0,0,1,.86-.88h2.21a.88.88,0,0,1,.87.86V310a.88.88,0,0,1-.86.88h-2.21a.86.86,0,0,1-.87-.86Zm0,6.48a.87.87,0,0,1,.86-.87h2.2a.87.87,0,0,1,.88.86v1.74a.87.87,0,0,1-.86.87l-2.21,0a.87.87,0,0,1-.87-.87Zm0,6.49a.86.86,0,0,1,.86-.87l2.2,0a.88.88,0,0,1,.88.86V323a.88.88,0,0,1-.87.87h-2.2a.86.86,0,0,1-.87-.86Zm0,6.48a.87.87,0,0,1,.86-.87h2.2a.86.86,0,0,1,.87.86v1.74a.86.86,0,0,1-.86.87l-2.2,0a.87.87,0,0,1-.87-.86Zm0,6.49a.86.86,0,0,1,.86-.87h2.2a.86.86,0,0,1,.87.86V336a.86.86,0,0,1-.86.87h-2.2a.86.86,0,0,1-.87-.86Zm3.12,9.08h-2.2a.88.88,0,0,1-.88-.86v-1.74a.87.87,0,0,1,.87-.87l2.2,0a.87.87,0,0,1,.87.86v1.75A.87.87,0,0,1,634.89,343.32ZM639,308.25a.87.87,0,0,1,.86-.87h2.21a.86.86,0,0,1,.87.86V310a.86.86,0,0,1-.86.87H639.9A.86.86,0,0,1,639,310Zm0,6.49a.86.86,0,0,1,.86-.87l2.21,0a.88.88,0,0,1,.87.86v1.75a.88.88,0,0,1-.86.87h-2.21a.87.87,0,0,1-.87-.86Zm0,6.48a.88.88,0,0,1,.86-.87h2.21a.88.88,0,0,1,.87.86v1.74a.87.87,0,0,1-.86.87l-2.21,0a.87.87,0,0,1-.87-.86Zm0,6.49a.86.86,0,0,1,.86-.87h2.21a.87.87,0,0,1,.87.86v1.74a.87.87,0,0,1-.86.87H640a.86.86,0,0,1-.87-.86Zm0,6.49a.88.88,0,0,1,.86-.88h2.2a.88.88,0,0,1,.88.86v1.74a.88.88,0,0,1-.86.88h-2.21a.86.86,0,0,1-.87-.86Zm3.12,9.07-2.2,0a.87.87,0,0,1-.87-.87v-1.74a.86.86,0,0,1,.86-.87h2.2a.87.87,0,0,1,.88.86v1.74A.87.87,0,0,1,642.3,343.27Zm4.13-35.06a.87.87,0,0,1,.87-.87l2.2,0a.87.87,0,0,1,.87.86v1.75a.87.87,0,0,1-.86.87h-2.2a.88.88,0,0,1-.88-.86Zm0,6.48a.88.88,0,0,1,.86-.87h2.21a.86.86,0,0,1,.87.86v1.74a.86.86,0,0,1-.86.87l-2.2,0a.89.89,0,0,1-.88-.87Zm0,6.49a.87.87,0,0,1,.86-.87l2.21,0a.87.87,0,0,1,.87.87v1.74a.87.87,0,0,1-.86.87h-2.21a.87.87,0,0,1-.87-.86Zm0,6.49a.88.88,0,0,1,.86-.88h2.21a.86.86,0,0,1,.87.86v1.74a.88.88,0,0,1-.86.88h-2.21a.88.88,0,0,1-.87-.86Zm0,6.48a.86.86,0,0,1,.86-.87h2.21a.86.86,0,0,1,.87.86v1.74a.86.86,0,0,1-.86.87h-2.21a.86.86,0,0,1-.87-.86Zm3.13,9.08h-2.21a.86.86,0,0,1-.87-.86v-1.74a.86.86,0,0,1,.86-.87l2.21,0a.88.88,0,0,1,.87.86v1.75A.88.88,0,0,1,649.72,343.23Zm4.17-28.58a.86.86,0,0,1,.86-.87l2.2,0a.87.87,0,0,1,.87.86v1.75a.86.86,0,0,1-.86.87h-2.2a.86.86,0,0,1-.87-.86Zm0,6.48a.87.87,0,0,1,.86-.87H657a.86.86,0,0,1,.87.86v1.74a.86.86,0,0,1-.86.87l-2.2,0a.87.87,0,0,1-.87-.86Zm0,6.49a.87.87,0,0,1,.87-.87H657a.86.86,0,0,1,.87.86v1.74a.86.86,0,0,1-.86.87h-2.2a.87.87,0,0,1-.88-.86Zm3.13,9.08h-2.2a.88.88,0,0,1-.88-.86v-1.74a.87.87,0,0,1,.86-.87l2.21,0a.87.87,0,0,1,.87.86v1.74A.88.88,0,0,1,657.09,336.7Zm4.21-22.1a.87.87,0,0,1,.86-.87h2.21a.88.88,0,0,1,.87.86v1.74a.87.87,0,0,1-.86.87l-2.21,0a.87.87,0,0,1-.87-.86Zm0,6.49a.86.86,0,0,1,.86-.87l2.2,0a.89.89,0,0,1,.88.87v1.74a.87.87,0,0,1-.86.87h-2.21a.86.86,0,0,1-.87-.86Zm0,6.49a.87.87,0,0,1,.86-.88h2.2a.88.88,0,0,1,.88.86v1.74a.89.89,0,0,1-.87.88h-2.2a.86.86,0,0,1-.87-.86Zm3.12,9.07-2.2,0a.87.87,0,0,1-.87-.87v-1.74a.86.86,0,0,1,.86-.87h2.2a.86.86,0,0,1,.87.86v1.74A.86.86,0,0,1,664.5,336.65Zm4.21-22.09a.87.87,0,0,1,.86-.87l2.21,0a.87.87,0,0,1,.87.87v1.74a.87.87,0,0,1-.86.87h-2.21a.88.88,0,0,1-.87-.86Zm0,6.48a.88.88,0,0,1,.86-.87h2.21a.87.87,0,0,1,.87.86v1.74a.86.86,0,0,1-.86.87l-2.21,0a.88.88,0,0,1-.87-.86Zm0,6.49a.86.86,0,0,1,.86-.87h2.21a.86.86,0,0,1,.87.86v1.74a.87.87,0,0,1-.86.87h-2.21a.86.86,0,0,1-.87-.86Zm3.13,9.08h-2.21a.86.86,0,0,1-.87-.86V334a.86.86,0,0,1,.86-.87l2.21,0a.88.88,0,0,1,.87.86v1.75A.88.88,0,0,1,671.92,336.61Zm4.2-22.1a.88.88,0,0,1,.87-.87h2.2a.86.86,0,0,1,.87.86v1.74a.86.86,0,0,1-.86.87l-2.2,0a.88.88,0,0,1-.88-.86Zm0,6.49a.87.87,0,0,1,.86-.87h2.21a.86.86,0,0,1,.87.86v1.74a.86.86,0,0,1-.86.87h-2.2a.87.87,0,0,1-.88-.86Zm0,6.49a.88.88,0,0,1,.86-.88h2.21a.87.87,0,0,1,.87.86v1.74a.88.88,0,0,1-.86.88h-2.21a.88.88,0,0,1-.87-.86Zm3.13,9.07-2.21,0a.88.88,0,0,1-.87-.87V334a.88.88,0,0,1,.86-.87h2.21a.86.86,0,0,1,.87.86v1.74A.86.86,0,0,1,679.33,336.56Zm4.21-22.09a.86.86,0,0,1,.86-.87l2.2,0a.89.89,0,0,1,.88.87v1.74a.88.88,0,0,1-.87.87h-2.2a.86.86,0,0,1-.87-.86Zm0,6.49a.87.87,0,0,1,.86-.88h2.2a.86.86,0,0,1,.87.86v1.74a.87.87,0,0,1-.86.88h-2.2a.87.87,0,0,1-.87-.86Zm0,6.48a.86.86,0,0,1,.86-.87h2.2a.86.86,0,0,1,.87.86v1.74a.86.86,0,0,1-.86.87h-2.2a.86.86,0,0,1-.87-.86Zm3.12,9.08h-2.2a.86.86,0,0,1-.87-.86l0-1.74a.87.87,0,0,1,.87-.87l2.2,0a.87.87,0,0,1,.87.86v1.75A.87.87,0,0,1,686.74,336.52Zm4.21-22.1a.88.88,0,0,1,.86-.87H694a.88.88,0,0,1,.87.86v1.74a.87.87,0,0,1-.86.87l-2.21,0a.87.87,0,0,1-.87-.86Zm0,6.49a.86.86,0,0,1,.86-.87h2.21a.87.87,0,0,1,.87.86v1.74a.87.87,0,0,1-.86.87h-2.21a.86.86,0,0,1-.87-.86Zm0,6.49a.86.86,0,0,1,.86-.87l2.2,0a.88.88,0,0,1,.88.86v1.75a.88.88,0,0,1-.86.87h-2.21a.86.86,0,0,1-.87-.86Zm3.12,9.07-2.2,0a.87.87,0,0,1-.87-.86v-1.75a.86.86,0,0,1,.86-.87h2.2a.88.88,0,0,1,.88.86v1.74A.87.87,0,0,1,694.15,336.47Zm4.25-15.6a.88.88,0,0,1,.86-.88h2.21a.87.87,0,0,1,.87.86v1.74a.88.88,0,0,1-.86.88h-2.21a.88.88,0,0,1-.87-.86Zm3.13,9.07-2.21,0a.88.88,0,0,1-.87-.87v-1.74a.86.86,0,0,1,.86-.87h2.21a.86.86,0,0,1,.87.86v1.74A.86.86,0,0,1,701.53,329.94Zm4.28-9.12a.87.87,0,0,1,.87-.87h2.2a.86.86,0,0,1,.87.86v1.74a.86.86,0,0,1-.86.87h-2.2a.87.87,0,0,1-.88-.86Zm3.13,9.08h-2.2a.88.88,0,0,1-.88-.86v-1.74a.87.87,0,0,1,.86-.87l2.21,0a.87.87,0,0,1,.87.86V329A.87.87,0,0,1,708.94,329.9Zm4.29-9.12a.87.87,0,0,1,.86-.88h2.2a.88.88,0,0,1,.88.86v1.74a.89.89,0,0,1-.87.88h-2.2a.86.86,0,0,1-.87-.86Zm3.12,9.07-2.2,0a.87.87,0,0,1-.87-.87v-1.74a.86.86,0,0,1,.86-.87h2.2a.86.86,0,0,1,.87.86V329A.86.86,0,0,1,716.35,329.85Zm4.29-9.12a.86.86,0,0,1,.86-.87h2.21a.86.86,0,0,1,.87.86v1.74a.87.87,0,0,1-.86.87h-2.21a.86.86,0,0,1-.87-.86Zm3.13,9.08h-2.21a.86.86,0,0,1-.87-.86v-1.74a.86.86,0,0,1,.86-.87l2.21,0a.88.88,0,0,1,.87.86v1.75A.88.88,0,0,1,723.77,329.81Z"/><polygon class="cls-1" points="492.98 606.79 491.54 603.69 494.51 596.57 498.14 604.39 492.98 606.79"/><path class="cls-1" d="M495.66,607.16a.72.72,0,0,1,.25-.07,4.08,4.08,0,0,1,2.44.44,2.39,2.39,0,0,1,1.25,3.31,2.53,2.53,0,0,1-.66.92,1.94,1.94,0,0,0-.33.36c-.29.43-.52,1.08-.38,1.32s.53.28.91.37a3.25,3.25,0,0,0,1.58,0,.81.81,0,1,1,.39,1.58,5,5,0,0,1-2.35,0,2.73,2.73,0,0,1-2-1.17c-.68-1.23.27-2.73.47-3a3.47,3.47,0,0,1,.55-.63,1,1,0,0,0,.28-.37,1,1,0,0,0,.09-.72c-.08-.23-.31-.36-.62-.53a2.42,2.42,0,0,0-1.47-.25.82.82,0,0,1-.44-1.55Z"/><rect class="cls-1" x="326.02" y="652.76" width="13.16" height="7.4" rx="2" transform="translate(718.95 1282.79) rotate(175.2)"/><rect class="cls-1" x="327.19" y="666.69" width="13.16" height="7.4" rx="2" transform="translate(722.45 1310.51) rotate(175.2)"/><rect class="cls-1" x="328.43" y="681.44" width="13.16" height="7.4" rx="2" transform="translate(726.16 1339.85) rotate(175.2)"/><rect class="cls-1" x="329.67" y="696.19" width="13.16" height="7.4" rx="2" transform="translate(729.86 1369.2) rotate(175.2)"/><path class="cls-1" d="M344,708.32a4.11,4.11,0,0,1,8-1.49l.08,0h0a7,7,0,0,1,13.83-1.62,8.8,8.8,0,0,1,2.48-.57,9,9,0,0,1,5.42,1.25,9,9,0,1,1,3.9,10.7,9,9,0,0,1-17.57-2.18,7.86,7.86,0,0,1,0-.84l-.45.06a6.91,6.91,0,0,1-1.44,0,5.76,5.76,0,0,1-11.4-.55,7,7,0,0,1,0-1.12A4.12,4.12,0,0,1,344,708.32Z"/><rect class="cls-1" x="233.77" y="629.85" width="13.16" height="7.4" rx="2" transform="translate(325.53 1305.78) rotate(-166.45)"/><rect class="cls-1" x="230.49" y="643.44" width="13.16" height="7.4" rx="2" transform="translate(315.89 1331.82) rotate(-166.45)"/><rect class="cls-1" x="227.02" y="657.83" width="13.16" height="7.4" rx="2" transform="translate(305.68 1359.38) rotate(-166.45)"/><rect class="cls-1" x="223.55" y="672.22" width="13.16" height="7.4" rx="2" transform="translate(295.46 1386.95) rotate(-166.45)"/><path class="cls-1" d="M234.81,686.35a4.11,4.11,0,0,1,8.1,1.12H243a7,7,0,0,1,13.64,2.82,8.52,8.52,0,0,1,2.54.24,9,9,0,0,1,4.74,2.89,9,9,0,1,1,.33,11.38,9,9,0,0,1-16-7.6q.11-.4.24-.81a3.58,3.58,0,0,1-.45-.09,6.73,6.73,0,0,1-1.35-.47,5.76,5.76,0,0,1-10.65-4.11,6.6,6.6,0,0,1,.36-1.06A4.12,4.12,0,0,1,234.81,686.35Z"/><path class="cls-2" d="M775.52,389.47,741.8,384.1l.42-2.61a5.84,5.84,0,0,0-4.85-6.69l-65.51-10.44,1-6.11a5.84,5.84,0,0,0-4.85-6.69l-23.06-3.67-23.59-3.76c0,.78-.05,1.55-.08,2.33,0,.52,0,1-.08,1.56a265,265,0,0,1-9,57.41c-.61,2.28-1.25,4.55-1.94,6.8h.07l1.84.29,4,.64,3.6.57,2.42.38,20.15,3.21,14.84,2.37a5.86,5.86,0,0,0,6.69-4.86l1-6.11,65.52,10.44a5.84,5.84,0,0,0,6.69-4.85l.42-2.61,33.71,5.37a5.85,5.85,0,0,0,6.69-4.85l2.56-16.06A5.86,5.86,0,0,0,775.52,389.47Zm-117.42-31a1.33,1.33,0,0,1,1.52-1.1l3.32.53a1.32,1.32,0,0,1,1.1,1.51l-.42,2.63a1.32,1.32,0,0,1-1.51,1.1l-3.33-.53a1.32,1.32,0,0,1-1.1-1.51Zm-11.6.84.42-2.62a1.32,1.32,0,0,1,1.51-1.1l3.33.53a1.32,1.32,0,0,1,1.1,1.51l-.42,2.63a1.34,1.34,0,0,1-1.52,1.1l-3.32-.53A1.33,1.33,0,0,1,646.5,359.33Zm-1.14,7.16a1.32,1.32,0,0,1,1.51-1.1l3.33.53a1.34,1.34,0,0,1,1.1,1.52l-.42,2.62a1.32,1.32,0,0,1-1.51,1.1l-3.33-.53a1.32,1.32,0,0,1-1.1-1.51Zm-10-8.94.42-2.63a1.31,1.31,0,0,1,1.51-1.09l3.33.53a1.32,1.32,0,0,1,1.1,1.51l-.42,2.63a1.34,1.34,0,0,1-1.52,1.1l-3.32-.53A1.33,1.33,0,0,1,635.32,357.55Zm-1.56,9.79.42-2.63a1.32,1.32,0,0,1,1.51-1.1l3.33.53a1.33,1.33,0,0,1,1.1,1.51l-.42,2.63a1.33,1.33,0,0,1-1.52,1.1l-3.32-.53A1.32,1.32,0,0,1,633.76,367.34Zm-9.62-11.57.41-2.63a1.34,1.34,0,0,1,1.52-1.1l3.33.53a1.32,1.32,0,0,1,1.09,1.52l-.41,2.63a1.34,1.34,0,0,1-1.52,1.1l-3.33-.53A1.32,1.32,0,0,1,624.14,355.77Zm-1.56,9.78.41-2.62a1.33,1.33,0,0,1,1.52-1.1l3.33.53a1.32,1.32,0,0,1,1.1,1.51l-.42,2.63a1.34,1.34,0,0,1-1.52,1.1l-3.33-.53A1.32,1.32,0,0,1,622.58,365.55Zm-.3,40.09a1.33,1.33,0,0,1-1.52,1.1l-3.32-.53a1.33,1.33,0,0,1-1.1-1.52l.42-2.63a1.32,1.32,0,0,1,1.51-1.1l3.33.53a1.34,1.34,0,0,1,1.1,1.52Zm1.56-9.79a1.33,1.33,0,0,1-1.52,1.1l-3.32-.53a1.32,1.32,0,0,1-1.1-1.51l.42-2.63a1.32,1.32,0,0,1,1.51-1.1l3.33.53a1.34,1.34,0,0,1,1.1,1.52Zm1.56-9.78a1.34,1.34,0,0,1-1.52,1.1l-3.32-.53a1.33,1.33,0,0,1-1.1-1.52l.42-2.63a1.32,1.32,0,0,1,1.51-1.09l3.33.53a1.32,1.32,0,0,1,1.1,1.51Zm1.56-9.78a1.33,1.33,0,0,1-1.52,1.09l-3.32-.53a1.32,1.32,0,0,1-1.1-1.51l.42-2.63a1.32,1.32,0,0,1,1.51-1.1l3.33.53a1.34,1.34,0,0,1,1.1,1.52Zm6.92,28.5-.42,2.63a1.32,1.32,0,0,1-1.51,1.1l-3.33-.53a1.34,1.34,0,0,1-1.1-1.52l.42-2.62a1.33,1.33,0,0,1,1.52-1.1l3.32.53A1.32,1.32,0,0,1,633.88,404.79Zm1.14-7.15a1.31,1.31,0,0,1-1.51,1.09l-3.33-.53a1.32,1.32,0,0,1-1.1-1.51l.42-2.63A1.32,1.32,0,0,1,631,393l3.33.53a1.34,1.34,0,0,1,1.1,1.52Zm1.56-9.79a1.33,1.33,0,0,1-1.51,1.1l-3.33-.53a1.34,1.34,0,0,1-1.1-1.52l.42-2.62a1.32,1.32,0,0,1,1.51-1.1l3.33.53a1.32,1.32,0,0,1,1.1,1.51Zm1.56-9.78a1.34,1.34,0,0,1-1.52,1.1l-3.32-.53a1.33,1.33,0,0,1-1.1-1.52l.42-2.63a1.32,1.32,0,0,1,1.51-1.1l3.33.53a1.34,1.34,0,0,1,1.1,1.52Zm6.92,28.5-.42,2.63a1.32,1.32,0,0,1-1.51,1.1l-3.33-.53a1.33,1.33,0,0,1-1.1-1.52l.42-2.62a1.33,1.33,0,0,1,1.52-1.1l3.32.53A1.32,1.32,0,0,1,645.06,406.57Zm1.56-9.78-.42,2.63a1.32,1.32,0,0,1-1.51,1.1l-3.33-.53a1.34,1.34,0,0,1-1.1-1.52l.42-2.63a1.34,1.34,0,0,1,1.52-1.1l3.32.53A1.33,1.33,0,0,1,646.62,396.79Zm1.56-9.78-.42,2.62a1.32,1.32,0,0,1-1.51,1.1l-3.33-.53a1.32,1.32,0,0,1-1.1-1.51l.42-2.63a1.34,1.34,0,0,1,1.52-1.1l3.32.53A1.33,1.33,0,0,1,648.18,387Zm1.14-7.16a1.32,1.32,0,0,1-1.51,1.1l-3.33-.53a1.34,1.34,0,0,1-1.1-1.52l.42-2.63a1.31,1.31,0,0,1,1.51-1.09l3.33.53a1.32,1.32,0,0,1,1.1,1.51Zm6.92,28.51-.41,2.62a1.33,1.33,0,0,1-1.52,1.1l-3.33-.53a1.31,1.31,0,0,1-1.09-1.51l.41-2.63a1.34,1.34,0,0,1,1.52-1.1l3.33.53A1.32,1.32,0,0,1,656.24,408.36Zm1.56-9.79-.41,2.63a1.34,1.34,0,0,1-1.52,1.1l-3.33-.53a1.34,1.34,0,0,1-1.1-1.52l.42-2.63a1.32,1.32,0,0,1,1.52-1.09l3.33.53A1.31,1.31,0,0,1,657.8,398.57Zm1.56-9.78-.42,2.62a1.32,1.32,0,0,1-1.51,1.1L654.1,392a1.32,1.32,0,0,1-1.1-1.51l.42-2.63a1.34,1.34,0,0,1,1.52-1.1l3.32.53A1.33,1.33,0,0,1,659.36,388.79Zm1.56-9.79-.42,2.63a1.32,1.32,0,0,1-1.51,1.1l-3.33-.53a1.34,1.34,0,0,1-1.1-1.52l.42-2.62a1.33,1.33,0,0,1,1.52-1.1l3.32.53A1.32,1.32,0,0,1,660.92,379Zm1.56-9.78-.42,2.63a1.32,1.32,0,0,1-1.51,1.1l-3.33-.54a1.32,1.32,0,0,1-1.1-1.51l.42-2.63a1.34,1.34,0,0,1,1.52-1.1l3.32.53A1.33,1.33,0,0,1,662.48,369.22ZM668.57,403a1.34,1.34,0,0,1-1.52,1.1l-3.32-.53a1.33,1.33,0,0,1-1.1-1.52l.42-2.62a1.32,1.32,0,0,1,1.51-1.1l3.33.53a1.32,1.32,0,0,1,1.1,1.51Zm2-12.41-.41,2.63a1.34,1.34,0,0,1-1.52,1.1l-3.33-.53a1.32,1.32,0,0,1-1.09-1.52l.41-2.63a1.34,1.34,0,0,1,1.52-1.1l3.33.53A1.32,1.32,0,0,1,670.54,390.57Zm1.56-9.79-.41,2.63a1.33,1.33,0,0,1-1.52,1.1l-3.33-.53a1.32,1.32,0,0,1-1.1-1.51l.42-2.63a1.33,1.33,0,0,1,1.52-1.1l3.33.53A1.31,1.31,0,0,1,672.1,380.78Zm1.56-9.78-.42,2.63a1.32,1.32,0,0,1-1.51,1.1l-3.33-.53a1.34,1.34,0,0,1-1.1-1.52l.42-2.63a1.32,1.32,0,0,1,1.52-1.09l3.32.53A1.32,1.32,0,0,1,673.66,371Zm6.09,33.76a1.33,1.33,0,0,1-1.52,1.1l-3.32-.53a1.32,1.32,0,0,1-1.1-1.51l.42-2.63a1.32,1.32,0,0,1,1.51-1.1l3.33.53a1.33,1.33,0,0,1,1.1,1.52Zm1.56-9.78a1.34,1.34,0,0,1-1.52,1.1l-3.32-.53a1.33,1.33,0,0,1-1.1-1.52l.42-2.63a1.31,1.31,0,0,1,1.51-1.09l3.33.53a1.32,1.32,0,0,1,1.1,1.51Zm1.56-9.79a1.33,1.33,0,0,1-1.52,1.1l-3.32-.53a1.32,1.32,0,0,1-1.1-1.51l.42-2.63a1.32,1.32,0,0,1,1.51-1.1l3.33.53a1.34,1.34,0,0,1,1.1,1.52Zm1.56-9.78a1.34,1.34,0,0,1-1.52,1.1l-3.33-.53a1.32,1.32,0,0,1-1.09-1.52l.41-2.62a1.33,1.33,0,0,1,1.52-1.1l3.33.53a1.32,1.32,0,0,1,1.1,1.51Zm6.5,31.13a1.32,1.32,0,0,1-1.51,1.1l-3.33-.53a1.32,1.32,0,0,1-1.1-1.51l.42-2.63a1.32,1.32,0,0,1,1.51-1.1l3.33.53a1.34,1.34,0,0,1,1.1,1.52Zm1.56-9.78a1.33,1.33,0,0,1-1.51,1.1l-3.33-.53a1.34,1.34,0,0,1-1.1-1.52l.42-2.62a1.32,1.32,0,0,1,1.51-1.1l3.33.53a1.32,1.32,0,0,1,1.1,1.51Zm1.56-9.78a1.32,1.32,0,0,1-1.52,1.09l-3.32-.53a1.32,1.32,0,0,1-1.1-1.51l.42-2.63a1.32,1.32,0,0,1,1.51-1.1l3.33.53a1.34,1.34,0,0,1,1.1,1.52Zm1.56-9.79a1.33,1.33,0,0,1-1.52,1.1l-3.32-.53a1.32,1.32,0,0,1-1.1-1.51l.42-2.63a1.32,1.32,0,0,1,1.51-1.1l3.33.53a1.32,1.32,0,0,1,1.1,1.51Zm6.92,28.51-.42,2.63a1.32,1.32,0,0,1-1.51,1.1l-3.33-.53a1.34,1.34,0,0,1-1.1-1.52l.42-2.63a1.34,1.34,0,0,1,1.52-1.1l3.32.53A1.33,1.33,0,0,1,702.53,405.7Zm1.56-9.79-.42,2.63a1.32,1.32,0,0,1-1.51,1.1l-3.33-.53a1.32,1.32,0,0,1-1.1-1.51l.42-2.63a1.33,1.33,0,0,1,1.52-1.1l3.32.53A1.32,1.32,0,0,1,704.09,395.91Zm1.14-7.15a1.32,1.32,0,0,1-1.51,1.1l-3.33-.53a1.34,1.34,0,0,1-1.1-1.52l.42-2.63a1.31,1.31,0,0,1,1.51-1.09l3.33.53a1.32,1.32,0,0,1,1.1,1.51Zm1.56-9.79a1.32,1.32,0,0,1-1.51,1.1l-3.33-.53a1.32,1.32,0,0,1-1.1-1.51l.42-2.63a1.32,1.32,0,0,1,1.51-1.1l3.33.53a1.34,1.34,0,0,1,1.1,1.52Zm6.92,28.51-.41,2.63a1.34,1.34,0,0,1-1.52,1.1l-3.33-.53a1.34,1.34,0,0,1-1.1-1.52l.42-2.63a1.32,1.32,0,0,1,1.52-1.09l3.33.53A1.32,1.32,0,0,1,713.71,407.48Zm1.56-9.78-.42,2.62a1.32,1.32,0,0,1-1.51,1.1l-3.33-.53a1.32,1.32,0,0,1-1.1-1.51l.42-2.63a1.34,1.34,0,0,1,1.52-1.1l3.32.53A1.33,1.33,0,0,1,715.27,397.7Zm1.56-9.79-.42,2.63a1.32,1.32,0,0,1-1.51,1.1l-3.33-.53a1.34,1.34,0,0,1-1.1-1.52l.42-2.62a1.33,1.33,0,0,1,1.52-1.1l3.32.53A1.32,1.32,0,0,1,716.83,387.91Zm1.56-9.78-.42,2.63a1.31,1.31,0,0,1-1.51,1.09l-3.33-.53a1.32,1.32,0,0,1-1.1-1.51l.42-2.63a1.34,1.34,0,0,1,1.52-1.1l3.32.53A1.33,1.33,0,0,1,718.39,378.13Zm6.09,33.76A1.34,1.34,0,0,1,723,413l-3.32-.53a1.33,1.33,0,0,1-1.1-1.52l.42-2.62a1.32,1.32,0,0,1,1.51-1.1l3.33.53a1.32,1.32,0,0,1,1.1,1.51Zm2-12.41-.41,2.63a1.32,1.32,0,0,1-1.52,1.09l-3.33-.53a1.31,1.31,0,0,1-1.09-1.51l.41-2.63a1.34,1.34,0,0,1,1.52-1.1l3.33.53A1.32,1.32,0,0,1,726.45,399.48Zm1.56-9.79-.41,2.63a1.33,1.33,0,0,1-1.52,1.1l-3.33-.53a1.32,1.32,0,0,1-1.1-1.51l.42-2.63a1.33,1.33,0,0,1,1.52-1.1l3.33.53A1.31,1.31,0,0,1,728,389.69Zm1.56-9.78-.42,2.63a1.32,1.32,0,0,1-1.51,1.1l-3.33-.53a1.34,1.34,0,0,1-1.1-1.52l.42-2.63a1.34,1.34,0,0,1,1.52-1.1l3.32.53A1.33,1.33,0,0,1,729.57,379.91Zm7.65,24a1.34,1.34,0,0,1-1.52,1.1l-3.32-.53a1.33,1.33,0,0,1-1.1-1.52l.42-2.63a1.32,1.32,0,0,1,1.51-1.1l3.33.54a1.32,1.32,0,0,1,1.1,1.51Zm1.56-9.79a1.33,1.33,0,0,1-1.52,1.1l-3.32-.53a1.32,1.32,0,0,1-1.1-1.51l.42-2.63a1.32,1.32,0,0,1,1.51-1.1l3.33.53a1.34,1.34,0,0,1,1.1,1.52Zm9.62,11.57a1.33,1.33,0,0,1-1.51,1.1l-3.33-.53a1.34,1.34,0,0,1-1.1-1.52l.42-2.62a1.32,1.32,0,0,1,1.51-1.1l3.33.53a1.32,1.32,0,0,1,1.1,1.51Zm1.56-9.78a1.32,1.32,0,0,1-1.52,1.09l-3.32-.53a1.32,1.32,0,0,1-1.1-1.51l.42-2.63a1.32,1.32,0,0,1,1.51-1.1l3.33.53a1.34,1.34,0,0,1,1.1,1.52Zm10,8.93-.42,2.63a1.32,1.32,0,0,1-1.51,1.1l-3.33-.53a1.33,1.33,0,0,1-1.1-1.51l.42-2.63a1.33,1.33,0,0,1,1.52-1.1l3.32.53A1.32,1.32,0,0,1,760,404.82Zm1.14-7.15a1.32,1.32,0,0,1-1.51,1.1l-3.33-.53a1.34,1.34,0,0,1-1.1-1.52l.42-2.63a1.32,1.32,0,0,1,1.51-1.1l3.33.53a1.34,1.34,0,0,1,1.1,1.52Zm10,8.94-.42,2.62a1.32,1.32,0,0,1-1.51,1.1l-3.33-.53a1.32,1.32,0,0,1-1.1-1.51l.42-2.63a1.34,1.34,0,0,1,1.52-1.1l3.32.53A1.33,1.33,0,0,1,771.18,406.61Zm1.56-9.79-.42,2.63a1.32,1.32,0,0,1-1.51,1.1l-3.33-.53a1.34,1.34,0,0,1-1.1-1.52l.42-2.63a1.33,1.33,0,0,1,1.52-1.09l3.32.53A1.32,1.32,0,0,1,772.74,396.82Z"/><path class="cls-1" d="M563.68,499.43a2.58,2.58,0,0,0-.42.11l1,.87c.24-.3.48-.6.71-.91A2.62,2.62,0,0,0,563.68,499.43Z"/><path class="cls-1" d="M509.42,552.48q-6.5,4.62-13.26,8.84a3.15,3.15,0,0,1,.14-1.16,3.23,3.23,0,0,1,.86-1.4l12.25-8.64a1.35,1.35,0,0,0-.33,1.88Z"/><path class="cls-1" d="M529.49,536.72q-5.73,5-11.74,9.58l-.19-.27a1.35,1.35,0,0,0-1.89-.33l12.25-8.64A3.22,3.22,0,0,1,529.49,536.72Z"/><path class="cls-2" d="M358.88,319l-2.14,5.67H361Zm18.57-1.81a2.63,2.63,0,0,0-1.93-.8h-3.24v5.43h3.24a2.7,2.7,0,0,0,2.72-2.7A2.69,2.69,0,0,0,377.45,317.21Zm0,0a2.63,2.63,0,0,0-1.93-.8h-3.24v5.43h3.24a2.7,2.7,0,0,0,2.72-2.7A2.69,2.69,0,0,0,377.45,317.21ZM358.88,319l-2.14,5.67H361Zm0,0-2.14,5.67H361Zm18.57-1.81a2.63,2.63,0,0,0-1.93-.8h-3.24v5.43h3.24a2.7,2.7,0,0,0,2.72-2.7A2.69,2.69,0,0,0,377.45,317.21Zm3.14,32.7a6.06,6.06,0,0,0-4.45-1.85h-1.63v12.61h1.63a6.11,6.11,0,0,0,4.45-1.86,6,6,0,0,0,1.83-4.44A6.11,6.11,0,0,0,380.59,349.91Zm0,0a6.06,6.06,0,0,0-4.45-1.85h-1.63v12.61h1.63a6.11,6.11,0,0,0,4.45-1.86,6,6,0,0,0,1.83-4.44A6.11,6.11,0,0,0,380.59,349.91Zm-3.14-32.7a2.63,2.63,0,0,0-1.93-.8h-3.24v5.43h3.24a2.7,2.7,0,0,0,2.72-2.7A2.69,2.69,0,0,0,377.45,317.21ZM358.88,319l-2.14,5.67H361Zm-4.1,29.85a2.6,2.6,0,0,0-1.93-.81H349.6v5.44h3.25a2.72,2.72,0,0,0,1.93-4.63Zm4.1-29.85-2.14,5.67H361Zm18.57-1.81a2.63,2.63,0,0,0-1.93-.8h-3.24v5.43h3.24a2.7,2.7,0,0,0,2.72-2.7A2.69,2.69,0,0,0,377.45,317.21Zm3.14,32.7a6.06,6.06,0,0,0-4.45-1.85h-1.63v12.61h1.63a6.11,6.11,0,0,0,4.45-1.86,6,6,0,0,0,1.83-4.44A6.11,6.11,0,0,0,380.59,349.91Zm0,0a6.06,6.06,0,0,0-4.45-1.85h-1.63v12.61h1.63a6.11,6.11,0,0,0,4.45-1.86,6,6,0,0,0,1.83-4.44A6.11,6.11,0,0,0,380.59,349.91Zm-3.14-32.7a2.63,2.63,0,0,0-1.93-.8h-3.24v5.43h3.24a2.7,2.7,0,0,0,2.72-2.7A2.69,2.69,0,0,0,377.45,317.21ZM358.88,319l-2.14,5.67H361Zm-4.1,29.85a2.6,2.6,0,0,0-1.93-.81H349.6v5.44h3.25a2.72,2.72,0,0,0,1.93-4.63ZM446.42,316a93.09,93.09,0,1,0,2,23.34A93,93,0,0,0,446.42,316ZM319.2,331.92a11,11,0,0,1-6.75-2.64,1.35,1.35,0,0,1-.49-.92,1.29,1.29,0,0,1,.28-1,1.34,1.34,0,0,1,.92-.49,1.26,1.26,0,0,1,1,.3,7.83,7.83,0,0,0,5,2,5.24,5.24,0,0,0,3.21-.91,2.49,2.49,0,0,0,1.22-2c0-1.34-1.54-2.3-4.64-2.88h-.05a14.49,14.49,0,0,1-3.56-1.11,5,5,0,0,1-2.2-1.83,4.29,4.29,0,0,1-.7-2.31,4.5,4.5,0,0,1,2-3.77,7.78,7.78,0,0,1,7-1.08,9.51,9.51,0,0,1,1.81.74c.4.23.92.55,1.57,1a1.38,1.38,0,0,1,.57.87,1.27,1.27,0,0,1-.19,1,1.35,1.35,0,0,1-1.88.38,13.92,13.92,0,0,0-2.21-1.26,5,5,0,0,0-2-.43,4.72,4.72,0,0,0-2.85.82,2.26,2.26,0,0,0-1.11,1.74,1.36,1.36,0,0,0,.21.77c.5.81,1.82,1.41,4,1.82h.05a16.65,16.65,0,0,1,3.64,1.11q3.27,1.61,3.27,4.43a4.79,4.79,0,0,1-2.16,4A8.26,8.26,0,0,1,319.2,331.92Zm21.91,28.38a1.21,1.21,0,0,1-.13.58v0a1.32,1.32,0,0,1-.5.63,9.45,9.45,0,0,1-6,2.06,9.55,9.55,0,0,1-6.89-2.76,9,9,0,0,1-2.84-6.71,9.1,9.1,0,0,1,2.84-6.74,9.53,9.53,0,0,1,6.89-2.78,9.38,9.38,0,0,1,6,2.06,1.37,1.37,0,0,1,.58,1,1.44,1.44,0,0,1-.29,1.12,1.46,1.46,0,0,1-1,.57,1.48,1.48,0,0,1-1.13-.32,7,7,0,0,0-4.39-1.42,6.35,6.35,0,0,0-4.53,1.9,6.29,6.29,0,0,0,0,9.17,6.62,6.62,0,0,0,4.74,1.9,7.11,7.11,0,0,0,3.61-1V356h-3.77a1.44,1.44,0,0,1-1.05-.45,1.47,1.47,0,0,1-.45-1.07,1.39,1.39,0,0,1,.43-1,1.49,1.49,0,0,1,1.07-.42h5.25a1.53,1.53,0,0,1,1.08.42,1.38,1.38,0,0,1,.45,1.05Zm5.18-29.8a1.39,1.39,0,0,1-.43,1,1.43,1.43,0,0,1-1,.44,1.37,1.37,0,0,1-1-.43,1.39,1.39,0,0,1-.42-1V319.39l-3.8,5.28a1.42,1.42,0,0,1-1.19.6h-.05a1.45,1.45,0,0,1-1.22-.6l-3.77-5.28V330.5a1.36,1.36,0,0,1-.43,1,1.42,1.42,0,0,1-1,.43,1.47,1.47,0,0,1-1.46-1.45V314.93a1.45,1.45,0,0,1,1.46-1.45h.07a1.28,1.28,0,0,1,1.16.61l5.25,7.28,5.25-7.28a1.4,1.4,0,0,1,1.19-.61h0a1.57,1.57,0,0,1,1,.45,1.35,1.35,0,0,1,.43,1Zm12.76,32.23a1.5,1.5,0,0,1-1.29.61h0a2.08,2.08,0,0,1-1.87-1.22,7.39,7.39,0,0,1-.56-3.16,2.26,2.26,0,0,0-1.11-1.9,4.37,4.37,0,0,0-1.47-.63H349.6v5.72a1.37,1.37,0,0,1-.43,1,1.45,1.45,0,0,1-1,.42,1.43,1.43,0,0,1-1.45-1.45V346.59a1.43,1.43,0,0,1,1.45-1.45h4.72a5.43,5.43,0,0,1,4,1.66,5.68,5.68,0,0,1,1.64,4.14,5.26,5.26,0,0,1-2.05,4.19,4.56,4.56,0,0,1,1.79,3.83,6.9,6.9,0,0,0,.11,1.56,1.35,1.35,0,0,1,.92.91A1.33,1.33,0,0,1,359.05,362.73Zm3-35.14h-6.4l-1.3,3.43a1.29,1.29,0,0,1-1.28.93,1.41,1.41,0,0,1-1.3-.65,1.47,1.47,0,0,1-.16-1.33l5.83-15.54a1.51,1.51,0,0,1,.57-.68,1.25,1.25,0,0,1,.83-.24,1.33,1.33,0,0,1,1.4.92L366.1,330a1.5,1.5,0,0,1-.15,1.33,1.43,1.43,0,0,1-1.31.65,1.25,1.25,0,0,1-1.25-.93Zm4.56,34.56a1.38,1.38,0,0,1-.44,1,1.45,1.45,0,0,1-1,.42,1.43,1.43,0,0,1-1.45-1.45V346.59a1.43,1.43,0,0,1,1.45-1.45,1.45,1.45,0,0,1,1,.42,1.38,1.38,0,0,1,.44,1Zm3.12-30.63a1.39,1.39,0,0,1-.42-1V314.93a1.41,1.41,0,0,1,.42-1,1.4,1.4,0,0,1,1-.42h4.72a5.45,5.45,0,0,1,4,1.66,5.65,5.65,0,0,1,1.65,4.14,5.27,5.27,0,0,1-2.06,4.2,4.55,4.55,0,0,1,1.79,3.82,6.9,6.9,0,0,0,.11,1.56,1.43,1.43,0,0,1,.71,2.22,1.52,1.52,0,0,1-1.29.6h0a2.08,2.08,0,0,1-1.87-1.21,7.44,7.44,0,0,1-.56-3.17,2.28,2.28,0,0,0-1.1-1.9,4.73,4.73,0,0,0-1.48-.63h-3.11v5.73a1.37,1.37,0,0,1-.44,1,1.42,1.42,0,0,1-1,.43A1.37,1.37,0,0,1,369.77,331.52Zm12.89,29.38a8.88,8.88,0,0,1-6.52,2.7H373a1.43,1.43,0,0,1-1.45-1.45V346.59a1.43,1.43,0,0,1,1.45-1.45h3.11a9.24,9.24,0,0,1,6.52,15.76ZM398.51,316a1.4,1.4,0,0,1-1,.44H393.3V330.5a1.45,1.45,0,0,1-1.45,1.45,1.37,1.37,0,0,1-1-.43,1.39,1.39,0,0,1-.42-1V316.41h-4.17a1.39,1.39,0,0,1-1-.44,1.43,1.43,0,0,1-.42-1,1.43,1.43,0,0,1,1.45-1.45h11.26a1.4,1.4,0,0,1,1,.42,1.45,1.45,0,0,1,0,2.07Zm-22.37,32.09h-1.63v12.61h1.63a6.11,6.11,0,0,0,4.45-1.86,6,6,0,0,0,1.83-4.44,6.28,6.28,0,0,0-6.28-6.31Zm1.31-27a2.63,2.63,0,0,0,.79-1.91,2.69,2.69,0,0,0-.79-1.93,2.63,2.63,0,0,0-1.93-.8h-3.24v5.43h3.24A2.62,2.62,0,0,0,377.45,321.05Zm-20.71,3.64H361L358.88,319Zm-3.89,23.37H349.6v5.44h3.25a2.72,2.72,0,0,0,1.93-4.63A2.6,2.6,0,0,0,352.85,348.06Zm6-29-2.14,5.67H361Zm18.57-1.81a2.63,2.63,0,0,0-1.93-.8h-3.24v5.43h3.24a2.7,2.7,0,0,0,2.72-2.7A2.69,2.69,0,0,0,377.45,317.21Zm3.14,32.7a6.06,6.06,0,0,0-4.45-1.85h-1.63v12.61h1.63a6.11,6.11,0,0,0,4.45-1.86,6,6,0,0,0,1.83-4.44A6.11,6.11,0,0,0,380.59,349.91Zm0,0a6.06,6.06,0,0,0-4.45-1.85h-1.63v12.61h1.63a6.11,6.11,0,0,0,4.45-1.86,6,6,0,0,0,1.83-4.44A6.11,6.11,0,0,0,380.59,349.91Zm-3.14-32.7a2.63,2.63,0,0,0-1.93-.8h-3.24v5.43h3.24a2.7,2.7,0,0,0,2.72-2.7A2.69,2.69,0,0,0,377.45,317.21ZM358.88,319l-2.14,5.67H361Zm0,0-2.14,5.67H361Zm18.57-1.81a2.63,2.63,0,0,0-1.93-.8h-3.24v5.43h3.24a2.7,2.7,0,0,0,2.72-2.7A2.69,2.69,0,0,0,377.45,317.21Zm0,0a2.63,2.63,0,0,0-1.93-.8h-3.24v5.43h3.24a2.7,2.7,0,0,0,2.72-2.7A2.69,2.69,0,0,0,377.45,317.21ZM358.88,319l-2.14,5.67H361Zm0,0-2.14,5.67H361Zm0,0-2.14,5.67H361Z"/><path class="cls-3" d="M54.12,310.06c0,.36,0,.71,0,1.07-.57-.35-1.12-.71-1.62-1.07.5-.36,1-.72,1.62-1.07C54.13,309.35,54.12,309.7,54.12,310.06Z"/><path class="cls-3" d="M54.33,313.83a19.3,19.3,0,0,1-2.48.78c-1.64.38-2.78.32-3-.17s.32-1.47,1.54-2.63a20.93,20.93,0,0,1,1.73-1.44c.64.46,1.34.92,2.09,1.36C54.2,312.45,54.25,313.15,54.33,313.83Z"/><path class="cls-3" d="M54.33,306.29c-.08.68-.13,1.38-.16,2.1-.75.44-1.45.9-2.09,1.36a20.93,20.93,0,0,1-1.73-1.44c-1.22-1.16-1.8-2.14-1.54-2.63.15-.28.58-.41,1.22-.41a8.59,8.59,0,0,1,1.82.24A19.3,19.3,0,0,1,54.33,306.29Z"/><path class="cls-3" d="M56.39,313c-.53.25-1.06.48-1.58.68-.05-.51-.1-1-.13-1.6l.94.52Z"/><path class="cls-3" d="M56.39,307.16l-.77.4-.94.52c0-.56.08-1.09.13-1.6C55.33,306.68,55.86,306.91,56.39,307.16Z"/><path class="cls-3" d="M59,314.16c-.42,3.16-1.28,5.15-2.08,5.15s-1.66-2-2.08-5.15c.67-.27,1.37-.57,2.08-.92C57.67,313.59,58.37,313.89,59,314.16Z"/><path class="cls-3" d="M59,306c-.67.27-1.37.57-2.08.92-.71-.35-1.41-.65-2.08-.92.42-3.16,1.28-5.15,2.08-5.15S58.62,302.8,59,306Z"/><path class="cls-3" d="M59.24,312c0,.56-.08,1.09-.13,1.6-.52-.2-1-.43-1.58-.68l.77-.4Z"/><path class="cls-3" d="M59.24,308.08l-.94-.52-.77-.4c.53-.25,1.06-.48,1.58-.68C59.16,307,59.21,307.52,59.24,308.08Z"/><circle class="cls-3" cx="56.96" cy="310.06" r="1.13"/><path class="cls-3" d="M59.27,308.68c-.39-.23-.79-.46-1.2-.68s-.74-.39-1.11-.56c-.37.17-.74.36-1.11.56s-.81.45-1.2.68q0,.68,0,1.38t0,1.38c.39.23.79.46,1.2.68s.74.39,1.11.56c.37-.17.74-.36,1.11-.56s.81-.45,1.2-.68q0-.68,0-1.38T59.27,308.68Zm-2.31,3a1.63,1.63,0,1,1,1.63-1.63A1.63,1.63,0,0,1,57,311.69Z"/><path class="cls-3" d="M59.78,311.13c0-.36,0-.71,0-1.07s0-.71,0-1.07c.58.35,1.12.71,1.63,1.07C60.9,310.42,60.36,310.78,59.78,311.13Z"/><path class="cls-3" d="M65.11,314.44c-.26.49-1.4.55-3,.17a19.3,19.3,0,0,1-2.48-.78c.08-.68.13-1.38.16-2.1.75-.44,1.45-.9,2.09-1.36a20.93,20.93,0,0,1,1.73,1.44C64.79,313,65.37,314,65.11,314.44Z"/><path class="cls-3" d="M63.57,308.31a20.93,20.93,0,0,1-1.73,1.44c-.64-.46-1.34-.92-2.09-1.36,0-.72-.08-1.42-.16-2.1a19.3,19.3,0,0,1,2.48-.78,8.59,8.59,0,0,1,1.82-.24c.64,0,1.07.13,1.22.41C65.37,306.17,64.79,307.15,63.57,308.31Z"/><path class="cls-3" d="M168.63,327.88a186.13,186.13,0,0,1,29.47-93.41l-66.46-42.7a264.24,264.24,0,0,0-37.38,93.4c-1.28.28-2.93.65-4.84,1.05-6.8,1.43-16.77,3.33-24,3.86a172.26,172.26,0,0,1-38.17-1.49,1.1,1.1,0,0,0-.83-.52,1.14,1.14,0,0,0-.79.25,1.06,1.06,0,0,0-.37.73l-.77,9.12h-.09a7,7,0,0,0-5.31,2.65,4.19,4.19,0,0,0-1.71,1.41,5.36,5.36,0,0,0-1.07-.35,5.76,5.76,0,0,0-3.92,10.72,6.8,6.8,0,0,0-.46,1.36l-.09.45c-.26-.09-.53-.16-.8-.23A9,9,0,0,0,3.7,330.3a9,9,0,1,0,11.37-.53A8.94,8.94,0,0,0,17.88,325a8.56,8.56,0,0,0,.2-2.55,6.9,6.9,0,0,0,4.44-1.08l-.45,5.3a1,1,0,0,0,.25.78,1.12,1.12,0,0,0,.73.39,1,1,0,0,0,.9-.38,172.13,172.13,0,0,1,37.88,5,184.28,184.28,0,0,1,20.26,6.75h0c3,1.17,5.66,2.23,7.45,3a264.39,264.39,0,0,0,18.62,91.55L74.54,453.35A1.66,1.66,0,0,0,74,455.6l5,8.52a1.65,1.65,0,0,0,1.87.75,1.4,1.4,0,0,0,.38-.16l5.32-3.11,2,24.56,9.22-5.39,1.57,23.85,9.23-5.4.73,22.44,9.23-5.4-1.34,18.88,39.39-23a267.51,267.51,0,0,0,38.42,35.56l47.83-62.89A186.75,186.75,0,0,1,168.63,327.88ZM63.92,311.45c1,1,2.12,2.31,1.63,3.23a1.78,1.78,0,0,1-1.67.67A9.12,9.12,0,0,1,62,315.1a19.57,19.57,0,0,1-2.43-.76c-.41,3.06-1.28,5.47-2.56,5.47s-2.15-2.41-2.56-5.47a19.57,19.57,0,0,1-2.43.76,9.12,9.12,0,0,1-1.93.25,1.78,1.78,0,0,1-1.67-.67c-.49-.92.62-2.27,1.63-3.23a19,19,0,0,1,1.66-1.39A19,19,0,0,1,50,308.67c-1-1-2.12-2.31-1.63-3.23s2.23-.73,3.6-.42a19.57,19.57,0,0,1,2.43.76c.41-3.06,1.28-5.47,2.56-5.47s2.15,2.41,2.56,5.47A19.57,19.57,0,0,1,62,305c1.37-.31,3.1-.5,3.6.42s-.62,2.27-1.63,3.23a19,19,0,0,1-1.66,1.39A19,19,0,0,1,63.92,311.45Z"/><rect class="cls-3" x="62.44" y="459.3" width="7.4" height="13.16" rx="2" transform="translate(-226.15 97.12) rotate(-30.32)"/><rect class="cls-3" x="50.37" y="466.36" width="7.4" height="13.16" rx="2" transform="translate(-231.36 91.99) rotate(-30.32)"/><rect class="cls-3" x="37.6" y="473.84" width="7.4" height="13.16" rx="2" transform="translate(-236.88 86.56) rotate(-30.32)"/><rect class="cls-3" x="24.82" y="481.31" width="7.4" height="13.16" rx="2" transform="translate(-242.4 81.13) rotate(-30.32)"/><path class="cls-3" d="M24.24,498.49a4.11,4.11,0,0,1,4.81,6.61l.05.07h0A7,7,0,0,1,36.53,517a8.61,8.61,0,0,1,1.58,2,9,9,0,0,1,1.2,5.43,9,9,0,1,1-8,8.13,9,9,0,0,1-5.6-16.8c.24-.14.49-.27.74-.39l-.24-.38a6.13,6.13,0,0,1-.59-1.31,5.75,5.75,0,0,1-4.42-10.52,5.2,5.2,0,0,1,1-.47A4.11,4.11,0,0,1,24.24,498.49Z"/><path class="cls-2" d="M93.25,380.53a174.45,174.45,0,0,0-21.12-4.26,137.47,137.47,0,0,0-30.49.11.85.85,0,0,1-.68.39.86.86,0,0,1-.61-.22.84.84,0,0,1-.29-.6l-.53-10.68a7,7,0,0,1-5.18,2.65,7.11,7.11,0,0,1,.68,4.87,7,7,0,0,1-7.5,5.43,8.17,8.17,0,0,1-.19,2.54,9,9,0,0,1-2.82,4.79,9,9,0,1,1-11.37.52A9,9,0,0,1,20.49,370a5.61,5.61,0,0,1,.8.23c0-.16.05-.31.09-.46a7,7,0,0,1,.46-1.36,5.76,5.76,0,0,1,3.92-10.72,5.39,5.39,0,0,1,1.07.36,4.21,4.21,0,0,1,1.71-1.42,7,7,0,0,1,10.54-.48l-.5-10.25a.83.83,0,0,1,.21-.61.88.88,0,0,1,.6-.29.86.86,0,0,1,.71.33,138.57,138.57,0,0,0,30.36-2.89c3.47-.73,7.68-2,11.63-3.24h0c3,1.17,5.66,2.23,7.45,3A264.29,264.29,0,0,0,93.25,380.53Z"/><path class="cls-2" d="M104.32,247.74a262,262,0,0,0-10.06,37.43c-1.28.28-2.93.65-4.84,1.05-3.55-1.81-7.3-3.61-10.45-4.83a137.9,137.9,0,0,0-29.48-7.79.85.85,0,0,1-.75.21.87.87,0,0,1-.54-.38.78.78,0,0,1-.12-.65l1.33-6.17a6.92,6.92,0,0,1-3.3-2.68,4.15,4.15,0,0,1-1.58-1.56,4.9,4.9,0,0,1-1.1.25,5.75,5.75,0,0,1-3-11,7,7,0,0,1-.33-1.4c0-.15,0-.3,0-.45a7.4,7.4,0,0,1-.82.15,9,9,0,0,1-5.88-16.7,9.05,9.05,0,1,1,11.28,1.53,8.92,8.92,0,0,1,2.38,5,8.36,8.36,0,0,1,0,2.55A7,7,0,0,1,53.66,247l.78-3.62a.85.85,0,0,1,.37-.54.86.86,0,0,1,.65-.12.84.84,0,0,1,.6.49,138,138,0,0,0,30.07,5.08A156.15,156.15,0,0,0,104.32,247.74Z"/><path class="cls-2" d="M707.76,193l-35.5-19.39,4.63-5.64,6.23-21.75-1.69.64L669.6,171.7l-2.86.12-.2,2-34.31,1.47-24.45,4.48,23.4-2.15,36.65-.42-1.37,1.49-79.05,26.53q-6.17-11-13.32-21.25l42.47-28.79,2.68,3.28,3.17-4-.93-1.54,4.11,1,18.6,4.16,15.2,5.5L644.9,157l-25.38-8.45,2.35-4.21,1.49-14.89-1,.62-4.77,17.56-1.85.42.11,1.33-22.16,5-15.38,5.79,15-4.15,23.81-4.59-.72,1.14-46.49,25.54a264.79,264.79,0,0,0-20.84-25l45.69-61.28,1.84-.84-11.82,34.69-9.33,21.57,11.87-21.83,12.1-32.15,2,.44,1-2.68,27.3-3.49,1.14-1.41-22.61-.86-6.8,2.64L594,48.12,587.11,25,592.17,49l2.35,28.71.67,6.36-2.11-1.71-6.67,3.92,4.35,4.69L541.58,145.5q-8.22-8.07-17.13-15.39l20.27-49.53,1.1-.88-2,25.55-2.55,16.23,4.23-16.85,2.58-23.88,1.41,0,.22-2,17.87-7.13.53-1.15L552.7,73.8l-4.14,3L536.63,51.13,527.92,36.7,535.53,52l6.6,19,1.56,4.2L542,74.45l-3.83,3.81,3.76,2.42-23.34,44.7A264.41,264.41,0,0,0,396.92,72.77l2.87-12.22,29.31,8,3.81-41.77L375.22,11.05l-3.8,41.77,26,7.09-2.93,12.5A268.66,268.66,0,0,0,331,70.65l-3-16.4L365,48.85,348.75,0,276.06,10.62l16.2,48.86,32.8-4.8,3,16.26a263.26,263.26,0,0,0-66.92,15.84l-4.6-10.62L284.24,65.3l.55-.21-21.86-35.8L207.81,50.87l-.55.22,21.86,35.79,25.11-9.83,4.6,10.61A266.89,266.89,0,0,0,131.64,191.77l66.46,42.7a187.06,187.06,0,0,1,340.25,61.81l77.26-16.58a264.14,264.14,0,0,0-22.88-64.51l73.33-32.45,3.11,5.59,5.8-5.11-1-2.54,5.84,2.61,26.55,11.18,21.15,12.27ZM409.54,62.17l-7.68-2.09.77-9.75,7.68,2.05Zm-7.81-13.12-8.47-2.26.77-9.68,8.47,2.27Zm1,.26.76-9.67,7.68,2.06-.77,9.67ZM419,64.75l-8.47-2.31.78-9.79,8.47,2.26Zm-7.61-13.12.77-9.67,8.47,2.27-.77,9.66Zm16.83,15.63L420,65l.79-9.84,8.36,2.24Zm1-10.86-8.37-2.24.76-9.67,8.49,2.27Zm-6.07-31.26,8.71,2.37-.78,8.59-8.62-2.31Zm7.83,12-.79,8.65-8.5-2.27.69-8.68ZM413.68,22.56l8.48,2.31-.69,8.66L413,31.26Zm7.71,12-.69,8.68L412.23,41l.68-8.68ZM405,20.21l7.68,2.09L412,31,404.33,29ZM411.93,32l-.69,8.68-7.68-2.06.69-8.68ZM395.58,17.63,404,19.94l-.7,8.74-8.46-2.26Zm7.68,12.06-.68,8.68-8.47-2.26.69-8.68ZM386.12,15.06l8.48,2.31-.7,8.78-8.48-2.26Zm7.7,12.1-.69,8.68-8.48-2.26.69-8.69ZM376.11,12.33l9,2.46-.7,8.83-9.15-2.44Zm-.9,9.85,9.16,2.45-.69,8.68-9.26-2.47ZM382,54.67l-9.5-2.59.87-9.58L382.75,45Zm-8.54-13.18.88-9.65,9.27,2.48L382.83,44Zm18,15.75L383,54.93l.77-9.66,8.47,2.27Zm-7.62-13,.76-9.68,8.48,2.27-.77,9.67Zm8.6,13.25.77-9.71,8.47,2.27-.77,9.74Zm-134.53,17-5.2-8.29,7.4-2.93,5.22,8.31ZM254.79,53l-4.62-7.37,8.15-3.23,4.62,7.37Zm8.69-2.37,5.15,8.21-8.15,3.24-5.15-8.22Zm-9.64,2.75-7.39,2.93L241.83,49,249.22,46Zm-8.33,3.31-8.15,3.23-4.62-7.37,8.14-3.24Zm-9.1,3.6-8.15,3.24-4.62-7.37,8.15-3.24Zm.54.87,5.15,8.21L234,72.62,228.8,64.4Zm1-.38,8.15-3.23,5.15,8.21L243.05,69ZM247,57.18l7.39-2.93,5.16,8.21-7.4,2.94Zm19.25,14.09L261,63l8.15-3.23,5.24,8.36Zm17.08-6.68-8,3.12-5.24-8.37,8-3.19Zm-5.69-9.31-8.06,3.2-5.15-8.21L272.59,47Zm-5.57-9.12-8.18,3.24L259.26,42l8.27-3.28Zm-9.55-15.63L267,37.89l-8.28,3.28-4.61-7.35Zm-9.34,3.65,4.61,7.36-8.15,3.24L245,37.39ZM244,37.76l4.64,7.4-7.39,2.93-4.66-7.43ZM235.68,41l4.66,7.43-8.14,3.23-4.68-7.46Zm-9.11,3.57,4.68,7.47L223.1,55.3l-4.71-7.5Zm-17.84,7,8.72-3.41,4.71,7.51-8.8,3.48ZM213.89,60l8.81-3.49,4.62,7.37-8.9,3.53ZM219,68.31l8.91-3.53L233,73l-9,3.58Zm10.59,17.33-5-8.2,9-3.58,5.14,8.2Zm10.11-4-5.15-8.2,8.14-3.23,5.17,8.24Zm9.11-3.56-5.17-8.25,8.15-3.23,5.2,8.28Zm81.33-25.18-4-11.63,9.92-1.5,4,11.68Zm2.28-26.72-3.58-10.37,10.93-1.65,3.57,10.37Zm11.25-.69,4,11.52L336.68,38.7l-4-11.53Zm-12.25.84-9.93,1.5L317.86,17.5l9.93-1.5ZM320.43,28l-10.92,1.64L305.94,19.3l10.92-1.65Zm-11.92,1.79-10.93,1.65L294,21.09l10.92-1.64Zm.33,1,4,11.53L301.89,44l-4-11.53Zm1-.15L320.76,29l4,11.53-10.92,1.65Zm11.93-1.8,9.93-1.49,4,11.52-9.93,1.5ZM341,51.34l-4-11.68L347.92,38,352,49.75Zm22.6-3.3L353,49.6l-4.05-11.74,10.79-1.63ZM359.4,35.27,348.6,36.9l-4-11.53,10.94-1.65Zm-4.14-12.5-11,1.65-3.58-10.37,11.09-1.67ZM348.07,1.11l3.42,10.31-11.1,1.67L336.83,2.75ZM335.83,2.9l3.56,10.34-10.93,1.65L324.88,4.5ZM323.88,4.65,327.46,15l-9.93,1.5L313.93,6.1Zm-10.95,1.6,3.6,10.44L305.6,18.33,302,7.84ZM301,8l3.61,10.5-10.92,1.64L290,9.59Zm-23.61,3.45L289,9.74l3.63,10.54L280.9,22.06ZM281.22,23,293,21.25l3.58,10.36-11.91,1.8ZM285,34.37l11.92-1.8,4,11.54-12.06,1.82Zm8,24-3.81-11.48,12.08-1.82,4,11.51Zm13.25-1.94-4-11.51,10.91-1.65,4,11.57Zm11.94-1.74-4-11.57,10.92-1.65,4,11.62Z"/></g></g></svg>