<svg xmlns="http://www.w3.org/2000/svg" viewBox="0 0 349.34 291.34"><defs><style>.cls-1,.cls-2,.cls-5,.cls-6,.cls-7,.cls-8{fill:none;}.cls-1,.cls-2,.cls-3,.cls-5,.cls-6,.cls-7,.cls-8,.cls-9{stroke:#fff;}.cls-1,.cls-3,.cls-5,.cls-6,.cls-8,.cls-9{stroke-miterlimit:10;}.cls-1,.cls-2{stroke-width:6px;}.cls-2,.cls-7{stroke-linecap:round;stroke-linejoin:round;}.cls-3,.cls-9{fill:#1abc9c;}.cls-3,.cls-5,.cls-7{stroke-width:3px;}.cls-4{fill:#fff;}.cls-8,.cls-9{stroke-width:5px;}</style></defs><title>f-1</title><g id="Layer_2" data-name="Layer 2"><g id="Layer_2-2" data-name="Layer 2"><rect class="cls-1" x="3" y="3" width="187.2" height="124.3" rx="8.5" ry="8.5"/><line class="cls-2" x1="96.6" y1="129.95" x2="96.6" y2="150.75"/><line class="cls-2" x1="56.6" y1="150.75" x2="138.2" y2="150.75"/><rect class="cls-3" x="153.4" y="57.15" width="57.6" height="97.6" rx="3.83" ry="3.83"/><circle class="cls-4" cx="182.2" cy="140.35" r="4.8"/><path class="cls-5" d="M135.89,50.26c-4.73,27-16.24,41.13-16.24,41.13A62.78,62.78,0,0,1,96.6,109.22a62.78,62.78,0,0,1-23-17.83S62,77.27,57.31,50.26c-.72-4.13-1.6-11.15,1.3-13.71A8.8,8.8,0,0,1,61.86,35c2.69-.88,4.2-.53,6.49-.77A20.91,20.91,0,0,0,75.5,32a34.83,34.83,0,0,0,7.79-5.33c2.66-2,6.77-4,13.31-4s10.65,1.92,13.31,4A34.83,34.83,0,0,0,117.7,32a20.91,20.91,0,0,0,7.15,2.28c2.29.24,3.8-.11,6.49.77a8.8,8.8,0,0,1,3.25,1.52C137.49,39.11,136.61,46.13,135.89,50.26Z"/><path class="cls-6" d="M128,53.4c-3.78,21.6-13,32.9-13,32.9A50.09,50.09,0,0,1,96.6,100.56,50.09,50.09,0,0,1,78.16,86.3S69,75,65.17,53.4c-.58-3.31-1.28-8.92,1-11a7.11,7.11,0,0,1,2.6-1.22c2.15-.7,3.36-.42,5.19-.61a16.78,16.78,0,0,0,5.72-1.83A27.82,27.82,0,0,0,86,34.51c2.13-1.64,5.42-3.22,10.65-3.17s8.52,1.53,10.65,3.17a27.82,27.82,0,0,0,6.23,4.26,16.78,16.78,0,0,0,5.72,1.83c1.83.19,3-.09,5.19.61a7.11,7.11,0,0,1,2.6,1.22C129.31,44.48,128.61,50.09,128,53.4Z"/><polyline class="cls-7" points="81.4 61.95 91.8 72.35 111 53.15"/><circle class="cls-8" cx="295.5" cy="225.96" r="25"/><circle class="cls-8" cx="295.5" cy="225.96" r="9"/><rect class="cls-9" x="242.36" y="228.96" width="104.48" height="59.87" rx="3.52" ry="3.52"/><line class="cls-7" x1="273.5" y1="248.96" x2="317.5" y2="248.96"/><path class="cls-2" d="M246.3,68.82A81.58,81.58,0,0,1,283.7,95c22,27.82,17,60.51,16,66.1"/><polyline class="cls-2" points="262 65.46 244 66.53 252 81.46"/><polyline class="cls-2" points="291.38 145.97 298.86 162.38 309.91 149.54"/><path class="cls-2" d="M199.9,244.66a81.48,81.48,0,0,1-45-7.73c-31.77-15.78-41.12-47.52-42.63-53"/><polyline class="cls-2" points="187.13 254.39 202.96 245.76 189.36 235.66"/><polyline class="cls-2" points="126.25 194.07 112.49 182.41 107.97 198.74"/></g></g></svg>