<svg xmlns="http://www.w3.org/2000/svg" viewBox="0 0 348.1 289.95"><defs><style>.cls-1,.cls-2,.cls-3,.cls-4,.cls-5,.cls-6{fill:none;stroke:#fff;}.cls-1,.cls-3,.cls-4{stroke-miterlimit:10;}.cls-1,.cls-2,.cls-6{stroke-width:6px;}.cls-2,.cls-5{stroke-linecap:round;}.cls-2,.cls-5,.cls-6{stroke-linejoin:round;}.cls-3,.cls-5{stroke-width:5px;}.cls-4{stroke-width:2px;}</style></defs><title>f-3</title><g id="Layer_2" data-name="Layer 2"><g id="Layer_2-2" data-name="Layer 2"><rect class="cls-1" x="3" y="3" width="187.2" height="124.3" rx="8.5" ry="8.5"/><line class="cls-2" x1="96.6" y1="129.95" x2="96.6" y2="150.75"/><line class="cls-2" x1="56.6" y1="150.75" x2="138.2" y2="150.75"/><path class="cls-2" d="M246.3,68.82A81.58,81.58,0,0,1,283.7,95c22,27.82,17,60.51,16,66.1"/><polyline class="cls-2" points="262 65.46 244 66.53 252 81.46"/><polyline class="cls-2" points="291.38 145.97 298.86 162.38 309.91 149.54"/><path class="cls-2" d="M199.9,244.66a81.48,81.48,0,0,1-45-7.73c-31.77-15.78-41.12-47.52-42.63-53"/><polyline class="cls-2" points="187.13 254.39 202.96 245.76 189.36 235.66"/><polyline class="cls-2" points="126.25 194.07 112.49 182.41 107.97 198.74"/><path class="cls-3" d="M344.79,219.93c-5.4,30.83-18.53,46.95-18.53,46.95A71.71,71.71,0,0,1,300,287.22a71.79,71.79,0,0,1-26.31-20.34s-13.12-16.12-18.53-46.95c-.82-4.71-1.82-12.72,1.49-15.64a10,10,0,0,1,3.7-1.74c3.07-1,4.79-.61,7.41-.88a23.69,23.69,0,0,0,8.16-2.6c4.47-2.07,6.87-4.52,8.89-6.08,3-2.34,7.73-4.59,15.19-4.53s12.16,2.19,15.19,4.53c2,1.56,4.42,4,8.9,6.08a23.57,23.57,0,0,0,8.15,2.6c2.62.27,4.34-.12,7.41.88a10,10,0,0,1,3.7,1.74C346.61,207.21,345.61,215.22,344.79,219.93Z"/><path class="cls-4" d="M335.82,223.52C331.5,248.17,321,261.07,321,261.07A57.17,57.17,0,0,1,300,277.34a57.25,57.25,0,0,1-21.05-16.27s-10.5-12.9-14.82-37.55c-.66-3.77-1.46-10.18,1.19-12.52a8.11,8.11,0,0,1,3-1.39c2.46-.8,3.84-.49,5.93-.7a18.78,18.78,0,0,0,6.52-2.09A31.4,31.4,0,0,0,287.8,202c2.43-1.87,6.18-3.67,12.15-3.62s9.73,1.75,12.15,3.62a31.64,31.64,0,0,0,7.12,4.86,18.83,18.83,0,0,0,6.53,2.09c2.09.21,3.46-.1,5.92.7a8,8,0,0,1,3,1.39C337.28,213.34,336.48,219.75,335.82,223.52Z"/><polyline class="cls-5" points="282.61 233.28 294.47 245.14 316.38 223.23"/><path class="cls-6" d="M148,71.5a12.75,12.75,0,0,1-12.75,12.75H58.75a12.75,12.75,0,1,1,9.31-21.47,20.28,20.28,0,0,1,39.44-5.37,15.65,15.65,0,0,1,23.62,2A12.77,12.77,0,0,1,148,71.5Z"/></g></g></svg>