<svg xmlns="http://www.w3.org/2000/svg" viewBox="0 0 319.9 270.49"><defs><style>.cls-1,.cls-2,.cls-3,.cls-4,.cls-6{fill:none;stroke:#fff;}.cls-1,.cls-4{stroke-linecap:round;stroke-linejoin:round;}.cls-1,.cls-6{stroke-width:6px;}.cls-2,.cls-3,.cls-6{stroke-miterlimit:10;}.cls-2,.cls-4{stroke-width:5px;}.cls-3{stroke-width:2px;}.cls-5{fill:#fff;}</style></defs><title>f-4</title><g id="Layer_2" data-name="Layer 2"><g id="Layer_2-2" data-name="Layer 2"><path class="cls-1" d="M218.1,49.36a81.42,81.42,0,0,1,37.4,26.17c22,27.81,17,60.5,16,66.09"/><polyline class="cls-1" points="233.8 46 215.8 47.07 223.8 62"/><polyline class="cls-1" points="263.18 126.51 270.66 142.92 281.71 130.08"/><path class="cls-1" d="M171.7,225.2a81.48,81.48,0,0,1-45-7.73c-31.77-15.79-41.12-47.52-42.63-53"/><polyline class="cls-1" points="158.93 234.93 174.76 226.3 161.16 216.19"/><polyline class="cls-1" points="98.05 174.61 84.29 162.95 79.77 179.28"/><path class="cls-2" d="M316.59,200.47c-5.4,30.82-18.53,46.94-18.53,46.94a71.6,71.6,0,0,1-26.31,20.34,71.68,71.68,0,0,1-26.31-20.34s-13.12-16.12-18.53-46.94c-.82-4.71-1.82-12.72,1.49-15.64a10,10,0,0,1,3.7-1.74c3.07-1,4.79-.61,7.41-.88a23.7,23.7,0,0,0,8.16-2.61c4.47-2.07,6.87-4.52,8.89-6.08,3-2.34,7.73-4.58,15.19-4.52s12.16,2.18,15.19,4.52c2,1.56,4.42,4,8.9,6.08a23.58,23.58,0,0,0,8.15,2.61c2.62.27,4.34-.12,7.41.88a10,10,0,0,1,3.7,1.74C318.41,187.75,317.41,195.76,316.59,200.47Z"/><path class="cls-3" d="M307.62,204.05c-4.32,24.66-14.82,37.56-14.82,37.56a57.39,57.39,0,0,1-21.05,16.27,57.47,57.47,0,0,1-21.05-16.27s-10.5-12.9-14.82-37.56c-.66-3.77-1.46-10.18,1.19-12.51a8.12,8.12,0,0,1,3-1.4c2.46-.79,3.84-.48,5.93-.7a18.77,18.77,0,0,0,6.52-2.08,31.37,31.37,0,0,0,7.12-4.87c2.43-1.87,6.18-3.66,12.15-3.61s9.73,1.74,12.15,3.61a31.61,31.61,0,0,0,7.12,4.87,18.82,18.82,0,0,0,6.53,2.08c2.09.22,3.46-.09,5.92.7a8,8,0,0,1,3,1.4C309.08,193.87,308.28,200.28,307.62,204.05Z"/><polyline class="cls-4" points="254.41 213.81 266.27 225.68 288.19 203.77"/><polyline class="cls-1" points="32.8 110.57 32.8 135 150 135 150 110"/><rect class="cls-5" x="26.8" y="106" width="12" height="16" rx="2.88" ry="2.88"/><rect class="cls-5" x="143.8" y="106" width="12" height="16" rx="2.88" ry="2.88"/><rect class="cls-6" x="121" y="3" width="58.8" height="104.84" rx="8.5" ry="8.5"/><circle class="cls-5" cx="149.8" cy="95" r="5"/><rect class="cls-6" x="3" y="3" width="58.8" height="104.84" rx="8.5" ry="8.5"/><circle class="cls-5" cx="32.8" cy="95" r="5"/></g></g></svg>