<svg xmlns="http://www.w3.org/2000/svg" viewBox="0 0 327.41 200.79"><defs><style>.cls-1,.cls-2,.cls-4{fill:none;}.cls-1,.cls-2,.cls-3,.cls-4{stroke:#fff;}.cls-1,.cls-3,.cls-4{stroke-miterlimit:10;}.cls-1,.cls-2{stroke-width:6px;}.cls-2{stroke-linecap:round;stroke-linejoin:round;}.cls-3{fill:#1abc9c;stroke-width:5px;}.cls-4{stroke-width:2px;}</style></defs><title>f-5</title><g id="Layer_2" data-name="Layer 2"><g id="Layer_2-2" data-name="Layer 2"><rect class="cls-1" x="3" y="3" width="246.8" height="163.88" rx="8.5" ry="8.5"/><line class="cls-2" x1="126.4" y1="170.37" x2="126.4" y2="197.79"/><line class="cls-2" x1="73.66" y1="197.79" x2="181.24" y2="197.79"/><path class="cls-3" d="M323.81,106c-7.39,42.13-25.34,64.17-25.34,64.17a97.83,97.83,0,0,1-36,27.8,97.77,97.77,0,0,1-36-27.8s-17.94-22-25.33-64.17c-1.12-6.44-2.49-17.4,2-21.39a13.86,13.86,0,0,1,5.06-2.38c4.2-1.36,6.56-.83,10.13-1.2,4.41-.43,7.54-1.88,11.15-3.56,6.12-2.83,9.39-6.18,12.16-8.31,4.15-3.2,10.57-6.27,20.77-6.18,10.19-.09,16.62,3,20.76,6.18,2.77,2.13,6,5.48,12.16,8.31,3.62,1.68,6.75,3.13,11.16,3.56,3.57.37,5.92-.16,10.12,1.2a13.78,13.78,0,0,1,5.06,2.38C326.29,88.61,324.92,99.57,323.81,106Z"/><path class="cls-4" d="M311.55,110.9c-5.91,33.71-20.27,51.34-20.27,51.34a78.24,78.24,0,0,1-28.77,22.24,78.24,78.24,0,0,1-28.77-22.24s-14.36-17.63-20.27-51.34c-.9-5.15-2-13.91,1.62-17.11a11.24,11.24,0,0,1,4-1.9c3.36-1.09,5.25-.66,8.11-1a25.74,25.74,0,0,0,8.92-2.85c4.89-2.26,7.51-4.94,9.72-6.65,3.32-2.56,8.46-5,16.62-4.94s13.29,2.38,16.61,4.94c2.21,1.71,4.83,4.39,9.73,6.65a25.68,25.68,0,0,0,8.92,2.85c2.86.3,4.74-.13,8.1,1a11.08,11.08,0,0,1,4.05,1.9C313.54,97,312.44,105.75,311.55,110.9Z"/></g></g></svg>