<svg xmlns="http://www.w3.org/2000/svg" viewBox="0 0 344.97 284.18"><defs><style>.cls-1,.cls-3,.cls-4,.cls-8{fill:none;stroke:#fff;}.cls-1,.cls-3{stroke-miterlimit:10;}.cls-1{stroke-width:4px;}.cls-2,.cls-5,.cls-6,.cls-7{fill:#fff;}.cls-3,.cls-4{stroke-width:6px;}.cls-4,.cls-8{stroke-linecap:round;stroke-linejoin:round;}.cls-5{font-size:27.66px;}.cls-5,.cls-7{font-family:Quicksand-Bold, Quicksand;font-weight:700;}.cls-6{font-size:14.22px;font-family:Quicksand-Regular, Quicksand;}.cls-7{font-size:21.78px;}.cls-8{stroke-width:3px;}</style></defs><title>f-6</title><g id="Layer_2" data-name="Layer 2"><g id="Layer_2-2" data-name="Layer 2"><rect class="cls-1" x="284.17" y="47.18" width="58.8" height="104.84" rx="8.5" ry="8.5"/><circle class="cls-2" cx="312.97" cy="139.18" r="5"/><rect class="cls-3" x="176.99" y="150.2" width="113.16" height="148.8" rx="8.5" ry="8.5" transform="translate(8.98 458.17) rotate(-90)"/><circle class="cls-2" cx="289.75" cy="225.45" r="7.1"/><rect class="cls-3" x="3" y="3" width="199.14" height="132.23" rx="8.5" ry="8.5"/><line class="cls-4" x1="102.57" y1="138.05" x2="102.57" y2="160.18"/><line class="cls-4" x1="60.02" y1="160.18" x2="146.83" y2="160.18"/><text class="cls-5" transform="translate(36.15 74.36)">PRE-TEST</text><text class="cls-6" transform="translate(300.35 87.2)">PRE<tspan x="-5.37" y="17.07">TEST</tspan></text><text class="cls-7" transform="translate(172.67 221.95)">PRE<tspan x="0" y="26.13">TEST</tspan></text><line class="cls-8" x1="223.22" y1="74.43" x2="265.22" y2="74.43"/><circle class="cls-2" cx="244.22" cy="74.43" r="4"/><line class="cls-8" x1="89.22" y1="233.43" x2="131.22" y2="233.43"/><circle class="cls-2" cx="110.22" cy="233.43" r="4"/><line class="cls-8" x1="89.22" y1="191.43" x2="89.22" y2="233.43"/><circle class="cls-2" cx="89.22" cy="212.43" r="4"/><line class="cls-8" x1="328.22" y1="172.43" x2="328.22" y2="214.43"/><circle class="cls-2" cx="328.22" cy="193.43" r="4"/></g></g></svg>