<svg xmlns="http://www.w3.org/2000/svg" viewBox="0 0 7782.68 5879.57"><defs><style>.cls-1{fill:#2980b9;}</style></defs><title>Asset 32</title><g id="Layer_2" data-name="Layer 2"><g id="Connected_Collaboration" data-name="Connected Collaboration"><path class="cls-1" d="M6688.47,5577.29v2.52l.06-.06Z"/><polygon class="cls-1" points="6683.99 5590.65 6683.96 5579.8 6683.97 5577.27 6685.91 5577.26 6685.28 5576.63 6685.93 5577.26 6692.97 5577.2 6693.05 5581.58 6683.99 5590.65"/><path class="cls-1" d="M7249,5651.57c-25.43-59.47-62.41-97.76-82.2-115.29-51.5-45.61-100.11-57.55-167.39-74.07l-1.43-.35c-19-4.68-38.69-9.53-60.79-15.7a1310.43,1310.43,0,0,1-215.42-81.71l-1.08-52.3c2-1.34,4-2.74,6-4.17,13.12-9.39,35.09-25.11,57.58-49.33,27.61-29.74,47.46-63.38,59-100a259.19,259.19,0,0,0,11.72-77.43V4883.75a260.23,260.23,0,1,0-520.45,0v197.41a251.74,251.74,0,0,0,11.74,77.57c13,40.66,36.22,77.23,69.11,108.68a309,309,0,0,0,53.63,41l-.06,58.95a1306.34,1306.34,0,0,1-209.3,78.79c-22.05,6.15-41.65,11-60.62,15.65l-1.6.4c-67.29,16.52-115.9,28.46-167.39,74.07-19.78,17.51-56.76,55.76-82.21,115.29-27.37,64.05-28.83,123.63-25.23,162.33a21.5,21.5,0,0,0,21.5,19.59c.72,0,1.38,0,2-.09a21.62,21.62,0,0,0,19.52-23.53,291.84,291.84,0,0,1,21.93-141.32c22.11-51.71,54-84.79,71.1-99.91,43.51-38.53,85.5-48.85,149.12-64.48,18.83-4.63,40.18-9.87,63.47-16.38a1319,1319,0,0,0,134.24-45.52l-119.31,134.2a22.07,22.07,0,0,0,16.23,36.74l180.68,2.21h.22a21.72,21.72,0,0,0,3.12-.22,348.52,348.52,0,0,1,39.13,43.61,336,336,0,0,1,25.62,39.19c16.64,30.34,27.89,64.26,33.43,100.85a21,21,0,0,0,20.87,17.94h.64a21.12,21.12,0,0,0,20.39-19.2c3.39-37.2,12.44-72,26.88-103.47a299.74,299.74,0,0,1,16.8-31.48,293.78,293.78,0,0,1,36.18-47.22l180.56-2.21a22.07,22.07,0,0,0,16.21-36.74l-123.51-138.93a1325.3,1325.3,0,0,0,145.93,50.25c23.53,6.57,44.79,11.79,63.54,16.39,63.55,15.62,105.54,25.94,149.05,64.47,17.06,15.12,49,48.2,71.1,99.91a292.11,292.11,0,0,1,21.94,141.32,21.61,21.61,0,0,0,19.51,23.53c.64.06,1.31.09,2,.09a21.5,21.5,0,0,0,21.49-19.59c.87-9.26,1.44-19.71,1.44-31.14A333.59,333.59,0,0,0,7249,5651.57Zm-897.7-81.93,109.87-123.57.06,124.92Zm352.07-294.25h0c-2.81,2-5.72,4-8.67,5.92-3.66,2.38-7.43,4.68-11.19,6.83a192.52,192.52,0,0,1-22,10.89,208.63,208.63,0,0,1-42.39,12.29,271.22,271.22,0,0,1-62.54,4.88,20,20,0,1,0-1.45,40.05c3.87.14,7.81.21,11.7.21a310.67,310.67,0,0,0,60.05-5.83,248.54,248.54,0,0,0,50-14.56c.69-.29,1.39-.58,2.09-.89l5,242.05v.67c-1.08,1.07-2.16,2.15-3.22,3.23a334.81,334.81,0,0,0-46.52,59.36,342.1,342.1,0,0,0-19.22,36c-4.6,10-8.74,20.41-12.38,31a325.81,325.81,0,0,0-14.45-29.83,379.37,379.37,0,0,0-28.92-44.32,390.12,390.12,0,0,0-48.3-53l.26-282.86a21.24,21.24,0,0,0-17.06-20.75c-31.61-18.37-87.17-59.42-109.73-130.2a212,212,0,0,1-9.85-65.27V4883.75c0-121.39,98.76-220.14,220.15-220.14a219.92,219.92,0,0,1,220.16,220.14v197.43a218.91,218.91,0,0,1-9.88,65.45C6782.31,5218.91,6727,5258.49,6703.38,5275.39ZM6838,5569.64,6728.11,5571l.06-124.92Z"/><path class="cls-1" d="M4449.63,3136.9c-24.35-57-59.76-93.59-78.7-110.37-49.27-43.64-95.78-55.08-160.16-70.91l-.1,0c-17.47-4.28-37.27-9.14-59.52-15.34a1252.18,1252.18,0,0,1-207.21-78.72v-49.07c2.18-1.48,4.08-2.8,5.88-4.08,17.22-12.32,52.76-37.76,81.17-80h96.2a21.32,21.32,0,0,0,21.3-21.3V2396a316.74,316.74,0,0,0-317-317h-9.41a316.77,316.77,0,0,0-317,317v311.09a21.33,21.33,0,0,0,21.3,21.3h90a270.75,270.75,0,0,0,51.05,55.22,299.85,299.85,0,0,0,35.43,25.15v56.15a1250.67,1250.67,0,0,1-200.19,75.35c-22.1,6.16-42,11-59.54,15.34l-.12,0c-64.36,15.83-110.87,27.27-160.12,70.91-18.93,16.76-54.33,53.38-78.7,110.37a321.19,321.19,0,0,0-24.15,155.41,20.76,20.76,0,0,0,20.76,18.93c.7,0,1.35,0,2-.09a20.86,20.86,0,0,0,18.84-22.72,279,279,0,0,1,21-135.12c21.13-49.43,51.67-81.07,68-95.54,41.58-36.84,81.74-46.7,142.53-61.63,17-4.17,38.14-9.36,60.79-15.7a1261.33,1261.33,0,0,0,127.7-43.25L3528.06,3065a21.31,21.31,0,0,0,15.67,35.46l159.21,2V3109a195.41,195.41,0,0,0,14.63,70.21c11.8,28.78,30.42,54.83,55.34,77.4a265.09,265.09,0,0,0,51,36.13,20.48,20.48,0,0,0,9.78,2.49,20.25,20.25,0,0,0,12-3.9c29.12-21.2,67.85-58.17,87-113.88a208.37,208.37,0,0,0,11.24-68.95v-6.11l159.06-2a21.3,21.3,0,0,0,15.68-35.46l-117.63-132.31a1265.93,1265.93,0,0,0,138.88,47.76c22.51,6.3,42.85,11.29,60.79,15.7,60.79,14.93,100.95,24.79,142.54,61.63,16.31,14.46,46.85,46.1,68,95.54a279.18,279.18,0,0,1,21,135.13,20.91,20.91,0,0,0,18.82,22.71c.63.06,1.28.09,2,.09a20.78,20.78,0,0,0,20.76-18.93c.83-8.86,1.38-18.86,1.38-29.79A319.28,319.28,0,0,0,4449.63,3136.9Zm-901.89-451.12V2396c0-151.29,123.08-274.37,274.37-274.37h9.41c151.29,0,274.37,123.08,274.37,274.37v289.79H4054c2.81-6.73,5.3-13.56,7.43-20.38a247.89,247.89,0,0,0,11.23-74.15V2414.8a20,20,0,0,0,.45-3.32,19.81,19.81,0,0,0-18.76-20.87,383.17,383.17,0,0,1-95.66-17.4,369.93,369.93,0,0,1-84.69-39.16,555.83,555.83,0,0,0,92.45-113.52c2.59-4.23,5.07-8.38,7.37-12.35a19.37,19.37,0,0,0-33.52-19.42c-2.19,3.8-4.5,7.67-6.86,11.49a515.15,515.15,0,0,1-100.7,118.93l-.24.21-.51.44-1,.92-3.61,3.08-.16.13a500.56,500.56,0,0,1-236.49,110.72h-.54l-.41.17-.31.08-.51.11c-.23.05-.46.12-.68.19-.42.12-.83.26-1.25.41l-.22.09a5.85,5.85,0,0,0-.56.22c-.22.08-.44.18-.65.28l-.38.18-.45.23-.23.12-.51.28-.46.28-.17.1-.3.19-.19.13a4.74,4.74,0,0,0-.42.3,2,2,0,0,0-.25.18l-.65.49-.25.21-.3.25a17.39,17.39,0,0,0-1.57,1.53l-.43.48-.4.47-.24.32-.21.27c-.26.35-.5.68-.7,1l-.23.35-.44.74-.3.55a19.52,19.52,0,0,0-1,2.24c-.08.24-.17.49-.25.74l-.12.4a4.08,4.08,0,0,0-.16.54c-.13.46-.23.93-.33,1.45,0,.15,0,.28-.07.39s0,.22-.05.34a2.72,2.72,0,0,0,0,.3,6.62,6.62,0,0,0-.08.66l0,.26c0,.1,0,.2,0,.3,0,.31,0,.63,0,.92V2591.2a240.86,240.86,0,0,0,11.24,74.28c2.17,6.81,4.69,13.61,7.53,20.3Zm43.2,372.62,104.5-117.54.06,118.82Zm336.35-281.52h0c-2.91,2.07-5.7,4-8.33,5.66-3.46,2.25-7,4.44-10.68,6.52a187.21,187.21,0,0,1-21,10.43,200.9,200.9,0,0,1-40.42,11.72l-.12,0a259.33,259.33,0,0,1-59.77,4.66,19.37,19.37,0,0,0-1.43,38.71,297.49,297.49,0,0,0,68.7-5.37,239.43,239.43,0,0,0,47.85-13.95l1.07-.45v273.85a167.22,167.22,0,0,1-9,55.54c-13.83,40.3-40.83,68.8-62,86.09-26-16.17-59.35-44-76.85-86.59a154.74,154.74,0,0,1-11.57-55.4V2798.18a20.54,20.54,0,0,0-16.44-20c-23.51-13.71-56.4-37.73-81-74.88-1.32-2-2.64-4.05-4-6.32-1.79-2.92-3.51-5.89-5.11-8.84a198.19,198.19,0,0,1-14.72-34.42,202.35,202.35,0,0,1-9.42-62.39V2469.81a539,539,0,0,0,229.86-108.6,409.15,409.15,0,0,0,103.79,49.85,422.69,422.69,0,0,0,87.26,17.83v162.33a209.64,209.64,0,0,1-9.44,62.56,204,204,0,0,1-14.42,34.39l-.33.62c-1.45,2.7-3,5.44-4.73,8.36-1.26,2.11-2.59,4.24-4,6.36C3976.18,2741.88,3943.16,2765.52,3927.29,2776.88Zm128.5,281.52-104.55,1.28.05-118.82Z"/><path class="cls-1" d="M4930.91,1093.64c-27-63.27-66.35-104-87.38-122.56-54.73-48.47-106.42-61.18-178-78.76-20.57-5.05-41.85-10.28-66.21-17.07a1393.33,1393.33,0,0,1-229.39-87l-1.16-56c2.3-1.56,4.45-3,6.53-4.54,14-10,37.32-26.72,61.2-52.43,29.35-31.62,50.43-67.38,62.67-106.29a275.45,275.45,0,0,0,12.45-82.3V276.59a276.59,276.59,0,1,0-553.18,0v210a267.79,267.79,0,0,0,12.48,82.47c12.11,38,32.66,72.64,61.08,103.08a325.82,325.82,0,0,0,69.53,56.11l-.06,63.08a1391.86,1391.86,0,0,1-222.91,83.92c-24.35,6.79-45.63,12-66.21,17.07-71.56,17.58-123.25,30.29-178,78.76-21,18.61-60.33,59.28-87.39,122.56-29.11,68.1-30.65,131.43-26.82,172.58a22.59,22.59,0,0,0,22.59,20.59c.65,0,1.34,0,2.13-.1a22.7,22.7,0,0,0,20.5-24.72c-3.35-35.89-2-91.14,23.37-150.49,23.54-55.1,57.54-90.33,75.71-106.42,46.36-41.05,91.06-52,158.72-68.65,20-4.91,42.62-10.47,67.59-17.45a1405.28,1405.28,0,0,0,143.93-48.88L3907,1013.8a23.21,23.21,0,0,0,17.06,38.61l192.25,2.36h.23a23,23,0,0,0,3.4-.26,370,370,0,0,1,41.78,46.54A354.36,354.36,0,0,1,4189,1142.8c17.73,32.27,29.71,68.4,35.61,107.37a22.32,22.32,0,0,0,21.92,18.86h.71a22.18,22.18,0,0,0,21.38-20.15c3.61-39.63,13.24-76.71,28.62-110.2a319,319,0,0,1,17.89-33.52,312.36,312.36,0,0,1,38.62-50.38l192.23-2.36a23.19,23.19,0,0,0,17-38.61L4430.75,865.06A1406.57,1406.57,0,0,0,4587.13,919c25.06,7,47.65,12.55,67.59,17.45,67.66,16.62,112.36,27.6,158.71,68.65,18.17,16.08,52.16,51.29,75.72,106.42,25.39,59.35,26.72,114.6,23.37,150.49a22.74,22.74,0,0,0,20.54,24.72c.75.07,1.44.1,2.09.1a22.59,22.59,0,0,0,22.59-20.59c.92-9.83,1.53-20.93,1.53-33A354.65,354.65,0,0,0,4930.91,1093.64Zm-955.5-87,117.82-132.52.06,134ZM4235.06,42.06a234.32,234.32,0,0,1,234.52,234.53V290q-1.76-2.23-3.59-4.41c-8.59-10.15-17.91-18.51-26.93-26.59-16.53-14.82-32.15-28.82-44.68-54.31a161.53,161.53,0,0,1-15-49.82,18.81,18.81,0,0,0-36.47-3.45c-9.1,27.15-23.24,50.16-42,68.38-34.64,33.57-78.67,44.61-121.26,55.29a423.05,423.05,0,0,1-50.17,9.4c-20.81,2.86-37.24,5.12-62.69,18.74-25.77,13.78-49.17,33.56-66.22,55.93v-82.6C4000.52,147.27,4105.73,42.06,4235.06,42.06Zm115.73,651.48-.72.51-.34.22c-2.86,2-5.54,3.84-8.2,5.57-3.92,2.54-7.91,5-11.88,7.25-3,1.74-6,3.33-8.68,4.73-5.06,2.61-10,4.93-14.75,6.9-19.26,8-34.85,11-45.17,13.09a288.3,288.3,0,0,1-66.59,5.18,21,21,0,0,0-1.55,42c4,.15,8.23.22,12.45.22a329.61,329.61,0,0,0,63.83-6.18,264.32,264.32,0,0,0,53.1-15.49c.84-.34,1.72-.72,2.63-1.11l5.35,258,0,.81c-1.09,1.07-2.17,2.15-3.22,3.23a355.36,355.36,0,0,0-49.74,63.4,363.33,363.33,0,0,0-20.44,38.26,356.92,356.92,0,0,0-13.42,33.69,345.86,345.86,0,0,0-15.64-32.41,400.79,400.79,0,0,0-30.75-47.11,414.06,414.06,0,0,0-51.45-56.44l.28-301.09A22.33,22.33,0,0,0,4128,695c-33.67-19.56-92.91-63.3-116.94-138.73a225.39,225.39,0,0,1-10.5-69.6V449.52A162.55,162.55,0,0,1,4029,383.94c13.91-18.93,33.62-35.81,55.5-47.52,19.47-10.42,31-12,50.08-14.64a459.57,459.57,0,0,0,54.19-10.18c45.19-11.33,96.41-24.18,138.28-64.76a195.87,195.87,0,0,0,29-35.64c1.45,3.45,3,6.84,4.62,10.14,15.75,32,35.7,49.89,53.34,65.7,8.41,7.54,16.37,14.67,23.33,22.88,17.81,21,28.67,49.68,32.29,85.12v91.61a233.6,233.6,0,0,1-10.51,69.72C4434.87,633.32,4376,675.49,4350.79,693.54Zm143.76,313.11-117.88,1.44.06-134Z"/><path class="cls-1" d="M4344,703.61c-4.24,2.76-8.3,5.22-12.1,7.39A17.68,17.68,0,0,1,4344,703.61Z"/><path class="cls-1" d="M4363.15,696.49l-16.71,10.89c-4,2.62-8.17,5.15-12.32,7.53l-17.4,10,6.31-9c2.75-1.42,5.71-3,8.85-4.82a17.68,17.68,0,0,1,12.1-7.39c2.72-1.76,5.49-3.64,8.35-5.66h0Z"/><path class="cls-1" d="M4334.77,1014.46v2.71l.06,0Z"/><polygon class="cls-1" points="4339.37 1018.98 4337.85 1020.45 4330.27 1027.59 4330.27 1014.46 4332.2 1014.44 4331.69 1013.9 4332.22 1014.44 4334.77 1014.41 4339.27 1014.37 4339.37 1018.98"/><path class="cls-1" d="M7757.46,1989c-24.05-56.26-59-92.48-77.75-109.06-48.7-43.14-94.68-54.43-158.33-70.07l-.38-.09c-18.26-4.5-37.15-9.14-58.42-15.07A1238.19,1238.19,0,0,1,7257.91,1717v-53.33c2.62-2,5.19-4.1,7.67-6.17,14.87-12.43,42.3-35.37,67.38-72h105.93a21.12,21.12,0,0,0,21.1-21.1V1257.11A312.95,312.95,0,0,0,7146.8,943.93h-9.3a312.94,312.94,0,0,0-313.17,313.18v307.32a21.12,21.12,0,0,0,21.09,21.1H6946a301.73,301.73,0,0,0,73.7,73.74v61A1235.24,1235.24,0,0,1,6822,1794.73c-21.27,5.93-40.16,10.57-58.42,15.07l-.4.1c-63.63,15.63-109.61,26.92-158.3,70.06-18.72,16.59-53.71,52.81-77.76,109.06a317.35,317.35,0,0,0-23.87,153.56,20.57,20.57,0,0,0,20.57,18.74c.69,0,1.33,0,1.93-.09a20.66,20.66,0,0,0,18.67-22.5,275.75,275.75,0,0,1,20.72-133.46c20.87-48.83,51-80.08,67.14-94.36,41.07-36.38,80.74-46.12,140.79-60.87,17.75-4.36,37.87-9.31,60.06-15.5a1247.4,1247.4,0,0,0,125.94-42.65L6847,1918a21.11,21.11,0,0,0,15.52,35.13l157.22,1.93v6.47a193.62,193.62,0,0,0,14.45,69.39c25.24,61.45,76.7,96.66,105.12,112.17a20.19,20.19,0,0,0,21.58-1.39c28.77-20.94,67-57.46,85.94-112.53a205.53,205.53,0,0,0,11.1-68.12v-6l157.09-1.93a21.11,21.11,0,0,0,15.52-35.13l-116-130.52a1252.09,1252.09,0,0,0,137,47.1c22.27,6.22,42.35,11.15,60.07,15.5,60,14.75,99.71,24.5,140.78,60.87,16.11,14.28,46.27,45.53,67.15,94.36a275.85,275.85,0,0,1,20.71,133.46,20.67,20.67,0,0,0,18.64,22.5c.63.06,1.27.09,2,.09a20.57,20.57,0,0,0,20.57-18.74A317.35,317.35,0,0,0,7757.46,1989Zm-848.2-77.57,103.06-115.92.06,117.17ZM7137.5,986.12h9.3c149.42,0,271,121.57,271,271v286.23h-60.66a304.49,304.49,0,0,0,18.2-49.74,325.68,325.68,0,0,0,10.87-84.13V1250.23a20.4,20.4,0,0,0-20.37-20.37H6913.64c-.61-.06-1.24-.09-1.86-.09a20.49,20.49,0,0,0-20.47,20.46v156.54a323.37,323.37,0,0,0,10.93,85.12,299.26,299.26,0,0,0,19.08,51.45h-54.8V1257.11C6866.52,1107.69,6988.08,986.12,7137.5,986.12Zm101.95,640.1a196.22,196.22,0,0,1-39.15,25.86c-16.67,8.07-30.31,11.21-39.38,13.31a214.67,214.67,0,0,1-58,5.27,20.37,20.37,0,0,0-1.79,40.71c3.71.16,7.54.25,11.37.25a255.65,255.65,0,0,0,57.55-6.53A212.85,212.85,0,0,0,7217.5,1689v272c0,.1,0,.22,0,.35a165.26,165.26,0,0,1-8.94,54.64c-13.63,39.75-40.28,67.89-61.15,85-25.63-16-58.59-43.41-75.87-85.49a153,153,0,0,1-11.42-54.71V1654.43a19.4,19.4,0,0,0-.13-2.26,20.5,20.5,0,0,0-8.92-21.06,264.91,264.91,0,0,1-89.42-98.55,257,257,0,0,1-19.92-51.32,282.47,282.47,0,0,1-9.51-74.4V1270.6h413.24v138.86A285.74,285.74,0,0,1,7336,1483a261.15,261.15,0,0,1-19.58,50.83C7291.36,1582.83,7256.3,1612.13,7239.45,1626.22Zm128.79,285.23-103.11,1.25.06-117.17Z"/><path class="cls-1" d="M2092.14,3387.5a1058.87,1058.87,0,0,0-624.39-763.21c-130.28-55.1-268.65-83-411.25-83s-281,27.94-411.25,83A1060.08,1060.08,0,0,0,83,3186.5c-55.1,130.28-83,268.65-83,411.25A1062.85,1062.85,0,0,0,25.55,3829.7a1051.89,1051.89,0,0,0,187.79,404.75A1063.49,1063.49,0,0,0,364.44,4396a35.82,35.82,0,0,0,3.65,2.81,563.72,563.72,0,0,1,67,53.08,560.22,560.22,0,0,1,179.48,410.19v289.13a37.94,37.94,0,0,0,37.89,37.89h809.87a37.94,37.94,0,0,0,37.89-37.89V4862.11a559.4,559.4,0,0,1,185.13-415.32c18.86-14,37.49-28.8,55.36-44l0,0,.29-.19.19-.2a1060.54,1060.54,0,0,0,271.12-354,1051.43,1051.43,0,0,0,74.55-216.18,1067.75,1067.75,0,0,0,5.25-444.71ZM1693.2,4343.7c-3.92,2.77-7.5,5.36-11,7.91-2.48,1.82-4.94,3.67-7.32,5.48-1.33,1-2.67,2-4,3.05-.75.57-1.49,1.16-2.24,1.74l-1,.81-2.44,1.93-1.16.92q-3.36,2.67-6.68,5.38l-4,3.3c-2.37,2-4.73,4-7,5.9-1.18,1-2.36,2-3.5,3q-2.81,2.45-5.6,4.92l-1.52,1.35-.5.46a632.7,632.7,0,0,0-210.86,472.25v251.24H690.35V4862.11a629.59,629.59,0,0,0-54.92-258.56,631.71,631.71,0,0,0-148.9-207.27,637.58,637.58,0,0,0-74.1-58.94A980.91,980.91,0,0,1,75.78,3597.75c0-540.77,440-980.72,980.72-980.72s980.72,439.95,980.72,980.72A979.92,979.92,0,0,1,1693.2,4343.7Z"/><path class="cls-1" d="M1475.31,5377.38l-836.9,213.46a48.05,48.05,0,0,1-11.8,1.48A47.39,47.39,0,0,1,615,5499l836.9-213.45a47.38,47.38,0,1,1,23.42,91.81Z"/><path class="cls-1" d="M1475.31,5579.38l-836.9,213.46a48.05,48.05,0,0,1-11.8,1.48A47.39,47.39,0,0,1,615,5701l836.9-213.45a47.38,47.38,0,1,1,23.42,91.81Z"/><path class="cls-1" d="M1473.92,5805.63l-284.11,72.47a47.44,47.44,0,0,1-23.44-91.93l284.1-72.46a47.43,47.43,0,1,1,23.45,91.92Z"/><path class="cls-1" d="M902.45,5299.24a46.78,46.78,0,0,1-28.84,21.58L637.74,5381a47.36,47.36,0,0,1-11.72,1.48,47.08,47.08,0,0,1-11.55-92.7l235.87-60.16a47.07,47.07,0,0,1,52.11,69.64Z"/><path class="cls-1" d="M1060.74,2483.24a20,20,0,0,1-20-20v-88.48a20,20,0,0,1,40,0v88.48A20,20,0,0,1,1060.74,2483.24Z"/><path class="cls-1" d="M1060.74,2350.26a24.53,24.53,0,0,0-24.5,24.5v88.48a24.5,24.5,0,0,0,49,0v-88.48A24.53,24.53,0,0,0,1060.74,2350.26Zm15.5,113a15.5,15.5,0,0,1-31,0v-88.48a15.5,15.5,0,0,1,31,0Z"/><path class="cls-1" d="M1060.74,2108.49a20,20,0,0,0-20,20v164.18a20,20,0,0,0,40,0V2128.49A20,20,0,0,0,1060.74,2108.49Zm0-246.26a20,20,0,0,0-20,20v164.18a20,20,0,0,0,40,0V1882.23A20,20,0,0,0,1060.74,1862.23Z"/><path class="cls-1" d="M1060.74,2104a24.53,24.53,0,0,0-24.5,24.5v164.18a24.5,24.5,0,0,0,49,0V2128.49A24.53,24.53,0,0,0,1060.74,2104Zm15.5,188.68a15.5,15.5,0,0,1-31,0V2128.49a15.5,15.5,0,0,1,31,0Zm-15.5-434.94a24.53,24.53,0,0,0-24.5,24.5v164.18a24.5,24.5,0,0,0,49,0V1882.23A24.53,24.53,0,0,0,1060.74,1857.73Zm15.5,188.68a15.5,15.5,0,0,1-31,0V1882.23a15.5,15.5,0,0,1,31,0Z"/><path class="cls-1" d="M1060.74,1820.14a20,20,0,0,1-20-20v-88.48a20,20,0,0,1,20-20l88.48-.21h0a20,20,0,0,1,0,40l-68.52.16v68.53A20,20,0,0,1,1060.74,1820.14Z"/><path class="cls-1" d="M1149.16,1687l-88.48.21a24.53,24.53,0,0,0-24.44,24.5v88.48a24.5,24.5,0,0,0,49,0v-64l64-.15a24.5,24.5,0,1,0-.11-49Zm-72.92,113.19a15.5,15.5,0,0,1-31,0v-88.48a15.52,15.52,0,0,1,15.46-15.5l88.52-.21a15.5,15.5,0,0,1,0,31l-73,.17Z"/><path class="cls-1" d="M1418.35,1690.79h0l-179.42.44a20,20,0,0,0,0,40h0l179.42-.44a20,20,0,0,0,0-40Zm269.13-.65h0l-179.42.43a20,20,0,0,0,0,40h0l179.42-.43a20,20,0,0,0,0-40Zm269.13-.66h0l-179.42.44a20,20,0,0,0,0,40h0l179.42-.44a20,20,0,0,0,0-40Zm269.13-.65h0l-179.42.44a20,20,0,0,0,0,40h0l179.42-.44a20,20,0,0,0,0-40Zm269.13-.65h0l-179.42.43a20,20,0,0,0,0,40h0l179.42-.43a20,20,0,0,0,0-40Zm269.13-.66H2764l-179.42.44a20,20,0,0,0,0,40h0l179.42-.44a20,20,0,0,0,0-40Zm269.13-.65h-.05l-179.42.43a20,20,0,0,0,0,40h.05l179.42-.43a20,20,0,0,0,0-40Zm269.13-.66h-.05l-179.42.44a20,20,0,0,0,0,40h.05l179.42-.44a20,20,0,0,0,0-40Zm269.13-.65h0l-179.42.44a20,20,0,0,0,0,40h.05l179.42-.44a20,20,0,0,0,0-40Zm269.13-.65h-.05l-179.42.43a20,20,0,0,0,0,40h0l179.42-.43a20,20,0,0,0,0-40Zm269.13-.66h0l-179.42.44a20,20,0,0,0,0,40h.05l179.42-.44a20,20,0,0,0,0-40Zm269.13-.65h-.05l-179.42.43a20,20,0,0,0,0,40h0l179.42-.43a20,20,0,0,0,0-40Zm269.13-.66h-.05l-179.42.44a20,20,0,0,0,0,40h.05l179.42-.44a20,20,0,0,0,0-40Zm269.13-.65H4917l-179.42.44a20,20,0,0,0,0,40h.05l179.42-.44a20,20,0,0,0,0-40Zm269.13-.65h-.05l-179.42.43a20,20,0,0,0,0,40h.05l179.42-.43a20,20,0,0,0,0-40Zm269.13-.66h-.05l-179.42.44a20,20,0,0,0,0,40h.05l179.42-.44a20,20,0,0,0,0-40Zm269.13-.65h-.05l-179.42.43a20,20,0,0,0,0,40h.05l179.42-.43a20,20,0,0,0,0-40Zm269.13-.66h-.05l-179.42.44a20,20,0,0,0,0,40h.05l179.42-.44a20,20,0,0,0,0-40Z"/><path class="cls-1" d="M1418.29,1686.29l-179.42.44a24.5,24.5,0,0,0,.05,49h.06l179.42-.44a24.5,24.5,0,0,0-.11-49ZM1239,1726.73h0a15.5,15.5,0,0,1,0-31l179.46-.44a15.5,15.5,0,0,1,0,31Zm448.45-41.09-179.42.43a24.5,24.5,0,0,0,0,49l179.48-.43a24.5,24.5,0,0,0-.11-49Zm-194.87,25a15.52,15.52,0,0,1,15.47-15.54l179.46-.43a15.5,15.5,0,0,1,0,31l-179.45.43v0A15.53,15.53,0,0,1,1492.55,1710.61Zm464-25.63-179.42.44a24.5,24.5,0,0,0,0,49h.06l179.42-.44a24.5,24.5,0,1,0-.11-49Zm-179.32,40.44h0a15.5,15.5,0,0,1,0-31l179.46-.44a15.5,15.5,0,0,1,0,31Zm448.45-41.09-179.42.44a24.5,24.5,0,0,0,0,49l179.48-.44a24.5,24.5,0,1,0-.11-49Zm15.56,24.46a15.52,15.52,0,0,1-15.47,15.54l-179.46.44a15.5,15.5,0,0,1,0-31l179.46-.44A15.54,15.54,0,0,1,2241.24,1708.79Zm253.57-25.11-179.42.43a24.5,24.5,0,0,0,.05,49h.06l179.42-.43a24.5,24.5,0,0,0-.11-49Zm-179.32,40.43h0a15.52,15.52,0,0,1-15.49-15.46,15.5,15.5,0,0,1,15.46-15.54l179.46-.43a15.5,15.5,0,0,1,0,31ZM2763.94,1683l-179.42.44a24.5,24.5,0,0,0,.05,49h.07l179.41-.44a24.5,24.5,0,0,0-.11-49Zm-179.32,40.44h0a15.5,15.5,0,0,1,0-31L2764,1692a15.5,15.5,0,0,1,0,31Zm448.45-41.09-179.42.43a24.5,24.5,0,0,0,0,49l179.48-.43a24.5,24.5,0,0,0-.11-49Zm-194.86,25a15.51,15.51,0,0,1,15.46-15.54l179.46-.43a15.52,15.52,0,0,1,15.49,15.46,15.5,15.5,0,0,1-15.46,15.54l-179.45.43v0A15.52,15.52,0,0,1,2838.21,1707.34Zm464-25.63-179.42.44a24.5,24.5,0,0,0,0,49h.07l179.42-.44a24.5,24.5,0,0,0-.12-49Zm-179.32,40.44h-.05a15.5,15.5,0,0,1,0-31l179.46-.44a15.5,15.5,0,0,1,0,31Zm448.45-41.09-179.42.44a24.5,24.5,0,0,0,.05,49l179.48-.44a24.5,24.5,0,1,0-.11-49Zm-194.86,25a15.5,15.5,0,0,1,15.46-15.53l179.46-.44a15.5,15.5,0,0,1,0,31l-179.45.44v0A15.52,15.52,0,0,1,3376.47,1706Zm464-25.62-179.42.43a24.5,24.5,0,0,0,.05,49h.06l179.42-.43a24.5,24.5,0,0,0-.11-49Zm-179.32,40.43h0a15.49,15.49,0,0,1-11-26.43,15.38,15.38,0,0,1,10.95-4.57l179.46-.43a15.5,15.5,0,0,1,0,31Zm448.45-41.09-179.42.44a24.5,24.5,0,0,0,0,49l179.48-.44a24.5,24.5,0,0,0-.11-49Zm15.55,24.46a15.51,15.51,0,0,1-15.46,15.54l-179.46.44a15.5,15.5,0,0,1,0-31l179.46-.44A15.52,15.52,0,0,1,4125.14,1704.21Zm253.57-25.11-179.42.43a24.5,24.5,0,0,0,.06,49h.06l179.42-.43a24.5,24.5,0,1,0-.12-49Zm-179.31,40.43h0a15.5,15.5,0,0,1,0-31l179.46-.43a15.5,15.5,0,0,1,0,31Zm448.45-41.09-179.42.44a24.5,24.5,0,0,0,0,49h.06l179.42-.44a24.5,24.5,0,1,0-.11-49Zm-179.32,40.44h-.05a15.52,15.52,0,0,1-15.49-15.46,15.5,15.5,0,0,1,15.46-15.54l179.46-.44a15.5,15.5,0,0,1,0,31ZM4917,1677.79l-179.42.44a24.5,24.5,0,0,0,0,49l179.48-.44a24.5,24.5,0,0,0-.11-49Zm-194.86,25a15.48,15.48,0,0,1,15.46-15.53l179.46-.44a15.52,15.52,0,0,1,15.49,15.46,15.5,15.5,0,0,1-15.46,15.54l-179.45.44v0A15.52,15.52,0,0,1,4722.12,1702.76Zm464-25.62-179.42.43a24.5,24.5,0,0,0,.05,49h.06l179.42-.43a24.5,24.5,0,0,0-.11-49Zm-179.32,40.43h-.05a15.5,15.5,0,0,1,0-31l179.46-.43a15.5,15.5,0,0,1,0,31Zm448.45-41.09-179.42.44a24.5,24.5,0,0,0,.05,49l179.49-.44a24.5,24.5,0,1,0-.12-49Zm-194.86,25a15.48,15.48,0,0,1,15.46-15.53l179.46-.44a15.5,15.5,0,0,1,0,31l-179.45.44v0A15.52,15.52,0,0,1,5260.38,1701.45Zm464-25.62-179.42.43a24.5,24.5,0,0,0,.05,49h.07l179.41-.43a24.5,24.5,0,1,0-.11-49Zm-179.32,40.43H5545a15.52,15.52,0,0,1-15.49-15.46,15.5,15.5,0,0,1,15.46-15.54l179.46-.43a15.5,15.5,0,0,1,0,31Zm448.45-41.09-179.42.44a24.5,24.5,0,0,0,.05,49h.07l179.41-.44a24.5,24.5,0,1,0-.11-49Zm15.56,24.47a15.52,15.52,0,0,1-15.47,15.53l-179.46.44a15.5,15.5,0,0,1,0-31l179.46-.44A15.54,15.54,0,0,1,6009.06,1699.64Z"/><path class="cls-1" d="M6261.74,1593.24a103.47,103.47,0,0,0-101.87,86l-76.65.18a20,20,0,0,0,0,40h.05l77.62-.18a103.33,103.33,0,1,0,100.81-126Zm0,166.67a63.34,63.34,0,1,1,63.33-63.34A63.4,63.4,0,0,1,6261.74,1759.91Z"/><path class="cls-1" d="M6261.74,1628.74a67.84,67.84,0,1,0,67.83,67.83A67.91,67.91,0,0,0,6261.74,1628.74Zm0,126.67a58.84,58.84,0,1,1,58.83-58.84A58.9,58.9,0,0,1,6261.74,1755.41Zm0-126.67a67.84,67.84,0,1,0,67.83,67.83A67.91,67.91,0,0,0,6261.74,1628.74Zm0,126.67a58.84,58.84,0,1,1,58.83-58.84A58.9,58.9,0,0,1,6261.74,1755.41Zm0-166.67a108,108,0,0,0-105.61,86l-72.92.17a24.5,24.5,0,0,0,.11,49l74.07-.17a107.83,107.83,0,1,0,104.35-135Zm0,206.67c-45.83,0-86.38-32.44-96.42-77.13l-.79-3.52-81.27.19a15.5,15.5,0,0,1,0-31l80.44-.19.64-3.74a98.83,98.83,0,1,1,97.43,115.39Zm0-166.67a67.84,67.84,0,1,0,67.83,67.83A67.91,67.91,0,0,0,6261.74,1628.74Zm0,126.67a58.84,58.84,0,1,1,58.83-58.84A58.9,58.9,0,0,1,6261.74,1755.41Zm0-126.67a67.84,67.84,0,1,0,67.83,67.83A67.91,67.91,0,0,0,6261.74,1628.74Zm0,126.67a58.84,58.84,0,1,1,58.83-58.84A58.9,58.9,0,0,1,6261.74,1755.41Zm0-126.67a67.84,67.84,0,1,0,67.83,67.83A67.91,67.91,0,0,0,6261.74,1628.74Zm0,126.67a58.84,58.84,0,1,1,58.83-58.84A58.9,58.9,0,0,1,6261.74,1755.41Z"/><path class="cls-1" d="M2253.37,1614.93a20,20,0,0,1-20-20v-88.47a20,20,0,0,1,40,0v88.47A20,20,0,0,1,2253.37,1614.93Z"/><path class="cls-1" d="M2253.37,1482a24.53,24.53,0,0,0-24.5,24.5v88.47a24.5,24.5,0,1,0,49,0v-88.47A24.53,24.53,0,0,0,2253.37,1482Zm15.5,113a15.5,15.5,0,1,1-31,0v-88.47a15.5,15.5,0,0,1,31,0Z"/><path class="cls-1" d="M2253.37,1451.42a20,20,0,0,1-20-20V1281.36a20,20,0,1,1,40,0v150.06A20,20,0,0,1,2253.37,1451.42Z"/><path class="cls-1" d="M2253.37,1256.86a24.53,24.53,0,0,0-24.5,24.5v150.06a24.5,24.5,0,0,0,49,0V1281.36A24.53,24.53,0,0,0,2253.37,1256.86Zm15.5,174.56a15.5,15.5,0,0,1-31,0V1281.36a15.5,15.5,0,1,1,31,0Z"/><path class="cls-1" d="M2253.37,1226.32a20,20,0,0,1-20-20v-88.47a20,20,0,0,1,20-20h88.48a20,20,0,0,1,0,40h-68.48v68.47A20,20,0,0,1,2253.37,1226.32Z"/><path class="cls-1" d="M2341.85,1093.35h-88.48a24.53,24.53,0,0,0-24.5,24.5v88.47a24.5,24.5,0,0,0,49,0v-64h64a24.5,24.5,0,0,0,0-49Zm0,40h-73v73a15.5,15.5,0,0,1-31,0v-88.47a15.51,15.51,0,0,1,15.5-15.5h88.48a15.5,15.5,0,0,1,0,31Z"/><path class="cls-1" d="M3060.18,1097.85H2900.55a20,20,0,0,0,0,40h159.63a20,20,0,0,0,0-40Zm-239.44,0H2661.11a20,20,0,0,0,0,40h159.63a20,20,0,0,0,0-40Zm-239.45,0H2421.66a20,20,0,0,0,0,40h159.63a20,20,0,0,0,0-40Z"/><path class="cls-1" d="M3060.18,1093.35H2900.55a24.5,24.5,0,0,0,0,49h159.63a24.5,24.5,0,0,0,0-49Zm0,40H2900.55a15.5,15.5,0,0,1,0-31h159.63a15.5,15.5,0,0,1,0,31Zm-239.44-40H2661.11a24.5,24.5,0,0,0,0,49h159.63a24.5,24.5,0,0,0,0-49Zm0,40H2661.11a15.5,15.5,0,0,1,0-31h159.63a15.5,15.5,0,0,1,0,31Zm-239.45-40H2421.66a24.5,24.5,0,0,0,0,49h159.63a24.5,24.5,0,0,0,0-49Zm0,40H2421.66a15.5,15.5,0,0,1,0-31h159.63a15.5,15.5,0,0,1,0,31Z"/><path class="cls-1" d="M3324.45,1011.18a103.49,103.49,0,0,0-102,86.67H3140a20,20,0,0,0,0,40h83.77a103.34,103.34,0,1,0,100.68-126.67Zm0,166.67a63.34,63.34,0,1,1,63.33-63.34A63.41,63.41,0,0,1,3324.45,1177.85Z"/><path class="cls-1" d="M3324.45,1046.68a67.84,67.84,0,1,0,67.83,67.83A67.91,67.91,0,0,0,3324.45,1046.68Zm0,126.67a58.84,58.84,0,1,1,58.83-58.84A58.91,58.91,0,0,1,3324.45,1173.35Zm0-126.67a67.84,67.84,0,1,0,67.83,67.83A67.91,67.91,0,0,0,3324.45,1046.68Zm0,126.67a58.84,58.84,0,1,1,58.83-58.84A58.91,58.91,0,0,1,3324.45,1173.35Zm0-166.67a108,108,0,0,0-105.75,86.67H3140a24.5,24.5,0,0,0,0,49h80.26a107.84,107.84,0,1,0,104.19-135.67Zm0,206.67a98.4,98.4,0,0,1-96.3-76.52l-.8-3.48H3140a15.5,15.5,0,0,1,0-31h86.29l.61-3.78a98.84,98.84,0,1,1,97.55,114.78Zm0-166.67a67.84,67.84,0,1,0,67.83,67.83A67.91,67.91,0,0,0,3324.45,1046.68Zm0,126.67a58.84,58.84,0,1,1,58.83-58.84A58.91,58.91,0,0,1,3324.45,1173.35Zm0-126.67a67.84,67.84,0,1,0,67.83,67.83A67.91,67.91,0,0,0,3324.45,1046.68Zm0,126.67a58.84,58.84,0,1,1,58.83-58.84A58.91,58.91,0,0,1,3324.45,1173.35Zm0-126.67a67.84,67.84,0,1,0,67.83,67.83A67.91,67.91,0,0,0,3324.45,1046.68Zm0,126.67a58.84,58.84,0,1,1,58.83-58.84A58.91,58.91,0,0,1,3324.45,1173.35Z"/><path class="cls-1" d="M2138.74,4148.24a20,20,0,0,1,0-40l88.48-.08h0a20,20,0,0,1,0,40l-88.47.08Z"/><path class="cls-1" d="M2227.19,4103.66l-88.47.08a24.5,24.5,0,0,0,0,49h0l88.48-.08a24.5,24.5,0,1,0,0-49Zm0,40-88.47.08h0a15.5,15.5,0,0,1,0-31l88.49-.08a15.49,15.49,0,0,1,11,26.45A15.36,15.36,0,0,1,2227.23,4143.66Z"/><path class="cls-1" d="M2490.42,4107.93h0l-175.47.15a20,20,0,0,0,0,40h0l175.47-.15a20,20,0,0,0,0-40Zm263.21-.24h0l-175.47.16a20,20,0,0,0,0,40h0l175.47-.16a20,20,0,0,0,0-40Zm263.21-.23h0l-175.47.15a20,20,0,0,0,0,40h0l175.47-.15a20,20,0,0,0,0-40Zm263.2-.24h0l-175.48.16a20,20,0,0,0,0,40h0l175.47-.16a20,20,0,0,0,0-40Zm263.21-.24h0l-175.47.16a20,20,0,0,0,0,40h0l175.47-.16a20,20,0,0,0,0-40Zm263.21-.23h0l-175.47.16a20,20,0,0,0,0,40h0l175.48-.16a20,20,0,0,0,0-40Zm263.21-.24h0l-175.47.16a20,20,0,0,0,0,40h0l175.47-.16a20,20,0,0,0,0-40Zm263.2-.23h0l-175.48.16a20,20,0,0,0,0,40h0l175.47-.16a20,20,0,0,0,0-40Zm263.21-.24h0l-175.47.16a20,20,0,0,0,0,40h0l175.47-.16a20,20,0,0,0,0-40Zm263.21-.23h0l-175.47.16a20,20,0,0,0,0,40h0l175.47-.16a20,20,0,0,0,0-40Zm263.2-.24h0l-175.48.16a20,20,0,0,0,0,40h0l175.47-.16a20,20,0,0,0,0-40Zm263.21-.23h0l-175.47.15a20,20,0,0,0,0,40h0l175.47-.15a20,20,0,0,0,0-40Zm263.21-.24h0l-175.47.16a20,20,0,0,0,0,40h0l175.48-.16a20,20,0,0,0,0-40Zm263.21-.23h0l-175.47.16a20,20,0,0,0,0,40h0l175.47-.16a20,20,0,0,0,0-40Zm263.2-.24h0l-175.48.16a20,20,0,0,0,0,40h0l175.47-.16a20,20,0,0,0,0-40Zm263.21-.23h0l-175.47.16a20,20,0,0,0,0,40h0l175.47-.16a20,20,0,0,0,0-40Z"/><path class="cls-1" d="M2490.4,4103.43l-175.47.15a24.5,24.5,0,0,0,0,49h0l175.47-.15a24.5,24.5,0,1,0,0-49Zm0,40-175.47.15h0a15.5,15.5,0,0,1,0-31l175.48-.15a15.5,15.5,0,0,1,0,31Zm263.17-40.24-175.47.16a24.5,24.5,0,0,0,0,49h0l175.47-.16a24.5,24.5,0,1,0,0-49Zm-175.43,40.16h0a15.5,15.5,0,0,1,0-31l175.49-.16a15.5,15.5,0,0,1,0,31ZM3016.81,4103l-175.47.15a24.5,24.5,0,0,0,0,49h0l175.47-.15a24.5,24.5,0,1,0-.05-49Zm0,40-175.47.15h0a15.5,15.5,0,0,1,0-31l175.49-.15a15.5,15.5,0,0,1,0,31ZM3280,4102.72l-175.47.16a24.5,24.5,0,0,0,0,49h0l175.48-.16a24.5,24.5,0,0,0-.05-49Zm0,40-175.47.16h0a15.5,15.5,0,0,1,0-31l175.48-.16a15.5,15.5,0,0,1,0,31Zm263.17-40.24-175.47.16a24.5,24.5,0,0,0,0,49h0l175.47-.16a24.5,24.5,0,1,0,0-49Zm-175.43,40.16h0a15.5,15.5,0,0,1,0-31l175.48-.16a15.5,15.5,0,0,1,11,26.45,15.37,15.37,0,0,1-11,4.55Zm438.64-40.39-175.48.16a24.5,24.5,0,0,0,0,49h0l175.47-.16a24.5,24.5,0,1,0,0-49ZM3631,4142.41h0a15.52,15.52,0,0,1-15.5-15.49,15.5,15.5,0,0,1,15.48-15.51l175.49-.16a15.5,15.5,0,0,1,0,31Zm438.64-40.4-175.47.16a24.5,24.5,0,0,0,0,49h0l175.47-.16a24.5,24.5,0,0,0-.05-49Zm0,40-175.47.16h0a15.5,15.5,0,0,1,0-31l175.49-.16a15.5,15.5,0,0,1,0,31Zm263.17-40.23-175.47.16a24.5,24.5,0,0,0,0,49h0l175.47-.16a24.5,24.5,0,0,0,0-49Zm0,40-175.47.16h0a15.5,15.5,0,0,1,0-31l175.48-.16a15.52,15.52,0,0,1,15.5,15.49,15.5,15.5,0,0,1-15.48,15.51Zm263.17-40.24-175.47.16a24.5,24.5,0,0,0,0,49h0l175.47-.16a24.5,24.5,0,0,0,0-49Zm-175.43,40.16h0a15.5,15.5,0,0,1,0-31l175.49-.16a15.5,15.5,0,0,1,0,31Zm438.64-40.39-175.48.16a24.5,24.5,0,0,0,0,49h0l175.47-.16a24.5,24.5,0,0,0,0-49Zm0,40-175.47.16h0a15.52,15.52,0,0,1-15.49-15.49,15.5,15.5,0,0,1,15.48-15.51l175.49-.16a15.5,15.5,0,0,1,0,31Zm263.17-40.24-175.47.16a24.5,24.5,0,0,0,0,49h0l175.48-.16a24.5,24.5,0,0,0-.05-49Zm0,40-175.47.16h0a15.5,15.5,0,0,1,0-31l175.48-.16a15.5,15.5,0,0,1,0,31Zm263.17-40.23-175.47.15a24.5,24.5,0,0,0,0,49h0l175.47-.15a24.5,24.5,0,0,0,0-49Zm0,40-175.47.15h0a15.5,15.5,0,0,1,0-31l175.48-.15a15.5,15.5,0,0,1,0,31Zm263.17-40.24-175.47.16a24.5,24.5,0,0,0,0,49h0l175.47-.16a24.5,24.5,0,0,0,0-49Zm-175.44,40.16h0a15.52,15.52,0,0,1-15.5-15.49,15.5,15.5,0,0,1,15.48-15.51l175.49-.16a15.5,15.5,0,0,1,0,31Zm438.64-40.39-175.47.16a24.5,24.5,0,0,0-24.48,24.52,24.55,24.55,0,0,0,24.5,24.48h0l175.47-.16a24.5,24.5,0,1,0-.05-49Zm0,40-175.47.16h0a15.5,15.5,0,1,1,0-31l175.49-.16a15.5,15.5,0,0,1,0,31Zm263.17-40.24-175.47.16a24.5,24.5,0,0,0,0,49h0l175.47-.16a24.5,24.5,0,0,0,0-49Zm0,40-175.47.16h0a15.5,15.5,0,0,1,0-31l175.48-.16a15.5,15.5,0,0,1,0,31Zm263.17-40.23-175.47.16a24.5,24.5,0,0,0,0,49h0l175.47-.16a24.5,24.5,0,0,0,0-49Zm-175.43,40.16h0a15.52,15.52,0,0,1-15.5-15.49,15.5,15.5,0,0,1,15.48-15.51l175.49-.16a15.5,15.5,0,0,1,0,31Z"/><path class="cls-1" d="M6614.74,4232.71a20,20,0,0,1-20-20v-68.45l-68.46.06h0a20,20,0,0,1,0-40l88.47-.08h0a20,20,0,0,1,20,20v88.47A20,20,0,0,1,6614.74,4232.71Z"/><path class="cls-1" d="M6632.06,4106.91a24.38,24.38,0,0,0-17.34-7.17l-88.48.08a24.5,24.5,0,0,0,.05,49l63.95-.06v63.95a24.5,24.5,0,1,0,49,0v-88.47A24.34,24.34,0,0,0,6632.06,4106.91Zm-1.82,105.8a15.5,15.5,0,1,1-31,0v-73l-73,.07a15.52,15.52,0,0,1-15.5-15.49,15.5,15.5,0,0,1,15.48-15.51l88.49-.08a15.5,15.5,0,0,1,15.5,15.5Z"/><path class="cls-1" d="M6634.74,4385.93v-75.24a20,20,0,0,0-40,0v75.15a103.32,103.32,0,1,0,40,.09Zm-20.24,164.68a63.34,63.34,0,1,1,63.33-63.33A63.41,63.41,0,0,1,6614.5,4550.61Z"/><path class="cls-1" d="M6614.5,4419.44a67.84,67.84,0,1,0,67.83,67.84A67.91,67.91,0,0,0,6614.5,4419.44Zm0,126.67a58.84,58.84,0,1,1,58.83-58.83A58.9,58.9,0,0,1,6614.5,4546.11Zm0-126.67a67.84,67.84,0,1,0,67.83,67.84A67.91,67.91,0,0,0,6614.5,4419.44Zm0,126.67a58.84,58.84,0,1,1,58.83-58.83A58.9,58.9,0,0,1,6614.5,4546.11Zm24.74-163.81v-71.61a24.5,24.5,0,0,0-49,0v71.51a107.8,107.8,0,1,0,49,.1Zm-24.74,203.81a98.84,98.84,0,0,1-18.9-195.85l3.64-.71v-78.86a15.5,15.5,0,0,1,31,0v78.93l3.62.72a98.84,98.84,0,0,1-19.36,195.77Zm0-166.67a67.84,67.84,0,1,0,67.83,67.84A67.91,67.91,0,0,0,6614.5,4419.44Zm0,126.67a58.84,58.84,0,1,1,58.83-58.83A58.9,58.9,0,0,1,6614.5,4546.11Zm0-126.67a67.84,67.84,0,1,0,67.83,67.84A67.91,67.91,0,0,0,6614.5,4419.44Zm0,126.67a58.84,58.84,0,1,1,58.83-58.83A58.9,58.9,0,0,1,6614.5,4546.11Zm0-126.67a67.84,67.84,0,1,0,67.83,67.84A67.91,67.91,0,0,0,6614.5,4419.44Zm0,126.67a58.84,58.84,0,1,1,58.83-58.83A58.9,58.9,0,0,1,6614.5,4546.11Z"/><path class="cls-1" d="M3830.74,3803.29a20,20,0,0,0-20,20v176.95a20,20,0,0,0,40,0V3823.29A20,20,0,0,0,3830.74,3803.29Z"/><path class="cls-1" d="M3830.74,3798.79a24.53,24.53,0,0,0-24.5,24.5v176.95a24.5,24.5,0,0,0,49,0V3823.29A24.53,24.53,0,0,0,3830.74,3798.79Zm15.5,201.45a15.5,15.5,0,0,1-31,0V3823.29a15.5,15.5,0,0,1,31,0Z"/><path class="cls-1" d="M3831.22,3399.85a103.34,103.34,0,0,0-20.48,204.62v130.34a20,20,0,0,0,40,0V3604.65a103.33,103.33,0,0,0-19.52-204.8Zm0,40a63.33,63.33,0,1,1-63.33,63.33A63.4,63.4,0,0,1,3831.22,3439.85Z"/><path class="cls-1" d="M3831.22,3435.35a67.83,67.83,0,1,0,67.83,67.83A67.91,67.91,0,0,0,3831.22,3435.35Zm0,126.66a58.83,58.83,0,1,1,58.83-58.83A58.9,58.9,0,0,1,3831.22,3562Zm0-126.66a67.83,67.83,0,1,0,67.83,67.83A67.91,67.91,0,0,0,3831.22,3435.35Zm0,126.66a58.83,58.83,0,1,1,58.83-58.83A58.9,58.9,0,0,1,3831.22,3562Zm0-166.66a107.84,107.84,0,0,0-25,212.74v126.72a24.5,24.5,0,0,0,49,0V3608.3a107.83,107.83,0,0,0-24-213Zm15,205.58v133.88a15.5,15.5,0,0,1-31,0v-134l-3.61-.73a98.86,98.86,0,1,1,38.26.17Zm-15-165.58a67.83,67.83,0,1,0,67.83,67.83A67.91,67.91,0,0,0,3831.22,3435.35Zm0,126.66a58.83,58.83,0,1,1,58.83-58.83A58.9,58.9,0,0,1,3831.22,3562Zm0-126.66a67.83,67.83,0,1,0,67.83,67.83A67.91,67.91,0,0,0,3831.22,3435.35Zm0,126.66a58.83,58.83,0,1,1,58.83-58.83A58.9,58.9,0,0,1,3831.22,3562Zm0-126.66a67.83,67.83,0,1,0,67.83,67.83A67.91,67.91,0,0,0,3831.22,3435.35Zm0,126.66a58.83,58.83,0,1,1,58.83-58.83A58.9,58.9,0,0,1,3831.22,3562Z"/></g></g></svg>