<svg xmlns="http://www.w3.org/2000/svg" viewBox="0 0 5393.37 4384.24"><defs><style>.cls-1{fill:#2980b9;}.cls-2{fill:#20a6fe;}</style></defs><title>Asset 33</title><g id="Layer_2" data-name="Layer 2"><g id="UC"><path class="cls-1" d="M3411.11,501.09a314.44,314.44,0,0,0-96.79-91.45c-44.27-26.57-92.24-40-142.57-40s-98.3,13.47-142.57,40a307.22,307.22,0,0,0-43,31.2c-40.94-35.94-91.33-55.57-143.36-55.57-71.68,0-140.25,37.64-183.41,100.69-28.84,42.13-39.5,87-27.84,117,15.55,40.07,70.84,58.88,114.5,67.6,29.72,5.94,63.3,8.94,96.94,8.94a533,533,0,0,0,67-4.13c45.85,54.83,164.85,75,261.67,75,109.6,0,247.58-25.79,275.79-98.49C3462.44,613.44,3448.48,555.68,3411.11,501.09ZM2894.27,647c-47.38,4.81-99.2,2.77-142.3-5.84-50.55-10.1-84.23-28-92.41-49-7.88-20.32,2-56.16,24.63-89.2,37.57-54.88,96.88-87.64,158.66-87.64,43.83,0,86.47,16.36,121.54,46.37a315.49,315.49,0,0,0-32,39.45C2896.56,553.42,2882.25,608.67,2894.27,647Zm525.3-6c-8.9,22.95-39.17,43.48-85.22,57.8-44.69,13.9-102.43,21.55-162.6,21.55s-117.91-7.65-162.6-21.55c-46.05-14.32-76.32-34.85-85.22-57.8-11-28.4,2.33-77.81,33.22-122.94a287.12,287.12,0,0,1,37.78-44.71h0c.91-.89,1.82-1.75,2.75-2.61h0c48.3-45.26,110.17-71.1,174-71.1,83.6,0,163.83,44.28,214.6,118.44C3417.25,563.17,3430.6,612.58,3419.57,641Z"/><path class="cls-1" d="M3171.75,0C3076,0,2998.14,77.88,2998.14,173.6S3076,347.21,3171.75,347.21s173.61-77.88,173.61-173.61S3267.48,0,3171.75,0Zm0,317.21c-79.18,0-143.61-64.42-143.61-143.61S3092.57,30,3171.75,30s143.61,64.42,143.61,143.6S3250.94,317.21,3171.75,317.21Z"/><path class="cls-1" d="M2997.69,470.71c-.29.36-.61.71-.94,1.05a14.66,14.66,0,0,1-1.81,1.56C2995.85,472.43,2996.76,471.57,2997.69,470.71Z"/><path class="cls-1" d="M2842.85,106.78c-74.17,0-134.51,60.34-134.51,134.51s60.34,134.5,134.51,134.5,134.51-60.34,134.51-134.5S2917,106.78,2842.85,106.78Zm0,239a104.51,104.51,0,1,1,104.51-104.5A104.62,104.62,0,0,1,2842.85,345.79Z"/><path class="cls-1" d="M3471,2071.11H2609.34a15,15,0,0,0-14.94,13.78c0,.41-.06.81-.06,1.22v680.38a15,15,0,0,0,15,15H3471a15,15,0,0,0,15-15V2086.11A15,15,0,0,0,3471,2071.11Zm-36,30L3040.17,2496,2962,2417.73l-316.62-316.62Zm-810.67,21.44,305.78,305.78-305.78,305.78Zm25,628.94,302-301.94,78.22,78.22a15,15,0,0,0,21.21,0l78.23-78.23L3431,2751.49Zm806.6-17.38-305.77-305.78L3456,2122.55Z"/><path class="cls-1" d="M1920.37,3176.09H937.53a81.55,81.55,0,0,0-81.46,81.46v523.23a81.55,81.55,0,0,0,81.46,81.46H1414v125H1220.09a15,15,0,0,0,0,30h417.72a15,15,0,0,0,0-30H1444v-125h476.42a81.55,81.55,0,0,0,81.46-81.46V3257.55A81.55,81.55,0,0,0,1920.37,3176.09Zm51.46,604.69a51.52,51.52,0,0,1-51.46,51.46H937.53a51.52,51.52,0,0,1-51.46-51.46V3257.55a51.52,51.52,0,0,1,51.46-51.46h982.84a51.52,51.52,0,0,1,51.46,51.46Z"/><path class="cls-1" d="M2114.31,4361.15l-162.25-302.5a15,15,0,0,0-13.22-7.91h-1046a15,15,0,0,0-13.23,8l-161.75,303.5a15,15,0,0,0,13.23,22.05h0l1370-1a15,15,0,0,0,13.21-22.09ZM761.66,4343.76l140.19-263h1028l141.07,263Z"/><path class="cls-1" d="M2797.73,3052.11H2212.67a15,15,0,0,0-15,15V4369.24a15,15,0,0,0,15,15h585.06a15,15,0,0,0,15-15V3067.11A15,15,0,0,0,2797.73,3052.11Zm-15,1302.13H2227.67V3082.11h555.06Z"/><path class="cls-1" d="M2717.11,3923.86H2292.63a15,15,0,0,0-15,15v42a15,15,0,0,0,15,15h424.48a15,15,0,0,0,15-15v-42A15,15,0,0,0,2717.11,3923.86Zm-15,42H2307.63v-12h394.48Z"/><path class="cls-1" d="M1273.52,3735.74l.74-.58h0Z"/><path class="cls-1" d="M1820.27,3375.44l-11.61-1.31c-10.91-7.13-22.53-13-36.44-13.66-.53,1.29-1,2.52-1.4,3.44-5.91-.16-11.51-4.63-17.32,1a43.55,43.55,0,0,1-4.13-4c-2.45-3.07-6-4.35-9.17-3.05-5.77,2.34-9.47-1.25-13.84-3.35-1.68-.8-3.82-1.94-5.35-1.51-4.87,1.36-8.3-1.76-13.54-3.36l-3.52,6.46-13.69-1.17c-1.21,2.63-3.75,2.59-10.79-1.27l2.75-2.3c-3.28-6-9.45-6.15-13.06-.23-10.6-5.37-21.57-6.44-32.83-1.46a3,3,0,0,1,1.09-1.55c2.12-1.17,4.62-1.9,6.33-3.48s3.87-4.08,4-6.27c.16-2.51-8.59-6.74-11-5.18-3.82,2.47-5.28.37-7.52-2.06-2.83-3.07-6-2.09-7.36,1.92-.43,1.32-.68,2.71-.89,3.59-4,0-7.87-.49-11.59.12-4.57.75-9,2.42-13.48,3.7a6.51,6.51,0,0,0-1.18.52c-1.75,1-2.47,2.09-.36,3.39a9.82,9.82,0,0,0,2.4.71c-.37.53-.75,1.07-1.14,1.6-2.51,0-5.08-.33-7.5.13-1.36.25-3.2,1.63-3.48,2.82-.24,1,1.44,2.49,2.36,3.68,1.36,1.74,2.79,3.41,4.19,5.12-3.37-1.19-5.84-3.1-8.44-4.81a3,3,0,0,0-2.6-.23,3.68,3.68,0,0,0-1.21,2.46,6.28,6.28,0,0,0,.68,2.33,9.12,9.12,0,0,1-4.72-3.18c-.9-1.31-1.11-3.09-1.89-5.4-1.33,2.76-.29,14.29,1,15.31.65.49,1.82.26,2.71.49,1.69.45,3.69.6,4.92,1.63,1.44,1.21,2.2,3.24,3.44,5.22a6,6,0,0,1-1.36-.59c-5.94-5.57-5.93-5.57-9.15,1.62-.13.26-.21.53-.35.78-1.68,3-3.94,3.65-7.64,1.39,1.55-.73,2.81-.93,3.36-1.66,1.14-1.52,2.92-3.52,2.63-5a180.34,180.34,0,0,0-5-18.5c-.4-1.27-2.47-3.09-3.36-2.88-1.36.31-2.63,2-3.45,3.41a22.35,22.35,0,0,0-2,5.36c-.42,1.53-1.15,3.36-.68,4.68.69,1.94,2.43,3.48,3.52,5.3a10.77,10.77,0,0,1,.79,2.95l-.93.62c-4.09-5.66-9.35-7.91-15.92-6.59.15,2.15.27,3.77.39,5.4l-.94.21-1.89-2.48c-3.57,1.07-7,3.37-9.54,2.58-4.71-1.47-7.35,1.11-10.55,3.08-1.44.88-2.76,2-4.87,3.48-.6-4.5-1-8.4-6.65-6.84l3.12,9.45c-1.25-.46-1.81-.9-2.24-.79-2.43.59-4.83,1.3-7.24,2a14.1,14.1,0,0,1,1.14,3.49c.05.79-.73,1.63-.59,1.35-2.39-1.13-4.39-2.92-5.53-2.48-4.25,1.65,1.28,3.17.56,5.06-4.5-2.11-6.22-5.22-5.68-10,1.81.33,3.8,1.28,5.37.83,2.11-.61,3.89-2.31,5.79-3.55-1.17-1.37-2.1-3.23-3.6-4-4.9-2.57-10-4.73-15-7.09-.61-.28-1.5-.75-1.57-1.23-.79-5.35-3.77-2.51-6.15-2.09a15.23,15.23,0,0,0-5.73-1.28c-.32,0-.66,2.13-1,3.32-2.55-.56-5.18-3.21-7.67.1.63,1,1.24,1.88,2.36,3.6-3.22,1.62-6,3.89-9,4.37-5.56.88-7.79,4.87-9.88,9-2.69,5.34-6,9.83-11.91,11.79-3.56,1.17-5.76,4.5-4.82,7.42,1.11,3.44,2.48,6.79,4,10.79,2.15-1,4.19-1.85,6.19-2.8,2.34-1.1,4.17-.73,5.33,1.71,1,2.14,2.12,4.24,2.94,6.46,1.4,3.81,2.08,4.14,4.64.92,1.9-2.4,2.57-5.95,4.76-7.92,3.61-3.25,3.76-5.71.64-9.31-2.85-3.28-1.43-6.39,2.54-8.78,2-1.17,3.21-3.53,4.7-5.43,1-1.32,1.76-3.79,2.87-3.94,1.79-.24,3.79,1,5.31,1.49-1.76,1.82-2.83,2.94-3.92,4.05a14,14,0,0,1-2.08,2.07c-3.64,2.4-4.34,6-1.94,10.53,1.74,3.25,4.93,3.9,9.16,1.86,2.77-1.34,3.3-1,4.3,3-4.1-1.88-7.22-1-9.41,3l2.78,3.07-.73,1.29-5.33-2.68a29.22,29.22,0,0,1-.52,4c-.82,3.18-1.08,8.74-4.5,8-5.35-1.14-9.06,2.48-13.83,2.36-3.61-.08-6.24-2.14-5.22-5.73.23-.81.82-1.5,1.1-2.31.78-2.29-1.36-5.5-2.33-5.45-1,1.77-1.36,3.72-2.29,4-3.26,1.05-2.58,2.66-1.34,4.79,1,1.61,1.68,3.34,2.52,5.07-4.42,2.58-11,1.22-10.85,8.66-6.15-2.4-6.36,9-11.64,5.63l-8.91,5.1c9.15,2.67,8.76,8.4,6.55,15-4-.67-7.75-1.36-11.49-1.89-2.86-.39-4.72,1.39-4.4,3.88.49,3.82,1,7.35-1.91,10.49a2,2,0,0,0-.06,1.91c2.22,1.55,1.66,7.2,6.74,4.67.24-.12,1,.75,1.48,1.22,1.31,1.32,10.34.92,11.31-.67a51.21,51.21,0,0,0,3.09-6c.63-1.43.68-3.23,1.59-4.4,2.29-3,4.91-5.67,8.14-9.28,3.41,2.11,7.6-.12,10.94-2.31,2.81,3.06,4.89,6.07,7.67,8.17,3.62,2.74,7.91,4.65,7.33,10.48l1.39,0,1.68-5.77,4.53,1.08c-1.52-1.72-2.25-2.51-2.92-3.34-3.44-4.23-9.53-5.53-11.76-11.32-.9-2.35-1.14-3.5,1-5a13.34,13.34,0,0,1,1.64,1.33c2.26,2.52,4.42,5.15,6.76,7.59,1.45,1.52,3.68,2.49,4.67,4.21,2.11,3.7,3.58,7.77,5.48,11.61a4,4,0,0,0,2.35,1.9c.53.11,1.33-1.09,2-1.67s1.54-1.21,2.57-2l-3.63-2.62c2.4-4.92,7.14-3.8,10.86-5-.55.92-1,1.76-1.41,2.55-.08.15-.15.31-.22.46-.14.3-.27.59-.39.88-1.88,4.68,0,7,6.77,10.6l2.91-1.79a23.89,23.89,0,0,0,4.6,1.57,30.14,30.14,0,0,0,5.16-.17c.29,1.53,1,2.91.68,4-1,3.34-2,6.83-3.91,9.7-.6.93-3.87-.08-5.86.23-1.64.25-3.17,1.15-5.06,1.89-.77-.45-2.21-2-3.38-1.81-4.25.66-7.1-2.3-10.1-4-3.25-1.84-4.79-1-6.26,1.43-.82,1.34-.92,3.13-1.51,5.32-1.75-.84-3.4-1.69-5.08-2.45-2.8-1.27-5.62-2.5-8.44-3.72-2.44-1.05-4.9-2.07-7.35-3.1l1.61-1c.14-2.51,1-5.3.22-7.46s-3.53-2.48-5.89-1.12a2.65,2.65,0,0,1-1.68.11,28.71,28.71,0,0,0-20.3,3.82c-4.12,2.44-6.73,1.55-10,.07-1.66,2.24-2.81,5.59-4.81,6.19-4,1.19-4.38,3.57-4.85,6.88a12.54,12.54,0,0,1-2.82,6.14c-1.43,1.69-4.25,2.3-5.45,4.06a35.81,35.81,0,0,0-5.37,10.69c-1.18,4.55-2,9.56-1.32,14.15s.42,8-4.21,10.76c2.66,1.46,4.78,2.94,2.81,6.05-.21.34.7,1.51,1.25,2.17s1.46,1.2,2,1.93c4.82,6.25,9.47,12.64,14.53,18.69.77.93,3.44.67,5.1.33,2.23-.46,4.43-2.41,6.46-2.18a19.47,19.47,0,0,0,12.87-3,9.91,9.91,0,0,1,5-1c.9,0,2.53.94,2.58,1.57.39,4.26,3.54,4.56,6.66,5.23a31.26,31.26,0,0,1,4.61,1.63c-.19,3.49.67,7-.71,8.95-2.89,4-.53,5.9,1.79,8.34,1.75,1.83,4.14,3.62,4.75,5.84,1.6,5.82,2.38,11.87,3.62,18.56-.79,1.39-2,3.77-3.44,6-2.78,4.41-2.43,8.67-.16,13.25,2,4,4.73,8.43,4.65,12.62-.13,7,3.92,12.18,5.9,18.21.75,2.27,2.54,4.77,2.07,6.75-.76,3.18.86,4.83,2.78,5.79,1.48.74,3.75.07,5.64-.19a33.5,33.5,0,0,0,5.61-1.27,80.76,80.76,0,0,0,10.45-3.77c1.63-.78,2.8-2.64,4-4.15a35.11,35.11,0,0,0,2.91-4.42c.48-.83.5-2.43,1.1-2.63,3.27-1.12,2.79-3.87,3.26-6.33.23-1.26.85-3.31,1.6-3.47,5.28-1.07,4.38-5.16,4-8.45-.33-2.94-1.91-5.71.89-8.3,2-1.88,3.64-4.42,6-5.82,8-4.84,6.66-6.59,5.76-12.48s-3-11.79-2.94-17.67c.07-7.37,5.12-12.8,10.06-17.91,4-4.18,8.67-8,11.81-12.79,3-4.51,4.33-10.08,6.51-15.47l-2.79-3.4c-1.66.92-3,1.71-4.33,2.4a32.71,32.71,0,0,1-4.24,1.9c-3,1-9.84-1.7-11.14-4.11-3-5.53-6.13-11-9.16-16.49-2.39-4.37-4.71-8.78-7-13.17a1.1,1.1,0,0,1-.14-.83c2.27-4.83-1.81-7.1-4-10.2-1.54-2.22-2.75-4.68-4.35-7.44,2.62,1.64,4.47,2.63,6.11,3.89a10.31,10.31,0,0,1,2.26,2.8c.79,1.27,1.37,2.66,2.1,4,1.63,2.95,3.34,5.86,5,8.82,1,1.74,1.63,3.66,2.72,5.3,3.82,5.7,8.45,11,7.5,18.68-.13,1.1,1.34,2.85,2.5,3.49.64.34,2.18-1.1,3.36-1.64,2.21-1,4.43-1.95,6.68-2.85.91-.36,2-.36,2.8-.79,3-1.52,5.89-3.13,8.74-4.95,7.58-4.83,8.24-4.53,11.91-11.57a5.74,5.74,0,0,1,1.18-1.18c3.14-3.07,2.16-7-1.84-8.82-2.08-.94-3.79-2.74-6-4.41a4.06,4.06,0,0,1-1.25,1.39c-1.7,1-3.55,2.5-5.32,2.51s-4.23-1-3.45-4.18c.12-.53-1.45-1.48-2.25-2.23-2.93-2.77-6.21-5.31-7.16-9.85l5.55.47-.72.78a82.06,82.06,0,0,0,6.58,6.85c3.08,2.58,6.42,2.06,9.43-.6,2,6,9.07,7.89,12.79,4.95l9.87,1.61c.36.32,1.66,1.39,2.9,2.53s3.09,2.31,3.85,3.86c2.71,5.54,3.63,6,9,3.34a21.39,21.39,0,0,1,.34,3.38c-.44,6.06,1.25,11.38,4.31,16.67,2.47,4.26,3.72,9.22,5.62,13.84a21,21,0,0,0,1.82,3c1.12-.74,2.52-1.25,3.32-2.25,3.19-4,3-8.68,2.38-13.43-.18-1.44-.42-3.49.37-4.32,3.15-3.28,6.67-6.18,10.06-9.22,1.75-1.58,4.84-3,5-4.74.48-4.48,3-4.41,5.63-4l3.4-4.32c1.43,2.52,2.41,5,4,6.91,2.75,3.35,5.39,6.41,4.8,11.33-.29,2.33,1.82,3.16,3.82,1.52.8-.67,1.12-1.91,1.66-2.89l1.3.79c.27,1.19,1,2.49.75,3.55-1.3,5.27,2.29,9.33,3.29,14,.4,1.89,3.33,3.52,3.25,5.18a26.08,26.08,0,0,0,1.33,9.63c.09.3.19.6.31.9a32.18,32.18,0,0,0,2.66,5.44c.18.32.39.64.59,1s.36.55.55.82l6,1.52c1.2-5.82,1.34-10.61-3.1-14.45-3-2.58-5.83-5.4-6.41-9.57a22.45,22.45,0,0,1,.13-5.67,3.23,3.23,0,0,1,2.09-.52c1,1.53,1.73,3.21,2.57,4.84a3.81,3.81,0,0,0,.5.64c1.81,0,3.94.36,4.56,1.51.74,1.35.18,3.41.18,5.51,6.11-2.91,9.92-7.46,10.31-11.86a13.45,13.45,0,0,0-5.46-12.71c-4.56-3.56-4.43-5.86-.53-9.54a23.71,23.71,0,0,0,2.62-3.55c.67,1.39,1.25,2.57,2,4.15,3.78-3.63,7.44-6.82,13-5.36.86.23,2.49-.8,3.18-1.7,3.29-4.3,7.29-8.15,9.06-13.5.31-1,1.7-2.06,1.46-2.67-1.72-4.5-.43-9.91-4.59-13.78a10.53,10.53,0,0,1-2.9-6.44c-.08-1,2.82-2.09,4.19-3.35.59-.54,1.21-2,1-2.34a6.07,6.07,0,0,0-3.19-2.15c-.85-.14-1.87,1.3-2.89,1.43a5.5,5.5,0,0,1-3.75-.68c-.72-.56-1.23-2.69-.78-3.23a62.15,62.15,0,0,1,6.06-5.68c.41,2.3.72,4.05,1,6l8.54-2.92.55,1.32-2.1,3.32c4.6,1.54,6,5.46,6.67,9.47.47,3,1.83,4.3,4.57,2.87,3.33-1.74,3.16-4.85,1.79-7.41-1.69-3.16-4.23-5.86-6.08-8.35,1.24-2.15,3.21-4.25,3.67-6.64.61-3.1,2.07-3.75,4.81-4,1.81-.15,4.12-.76,5.2-2,7.15-8.4,9-18.37,7-28.91-1-5.28-5.12-6.57-8.44-3.63l-5.38-4.49a88.26,88.26,0,0,0,4.94-7.46c3.66-6.84,6.5-8.29,14.4-6.94,2.19.37,4.41,1.29,6.09-1.43.25-.42,2.69.43,4.09.81s2.73,1.48,3.82,1.17,2.26-1.77,3-3c.53-.92.1-2.37.6-3.32.82-1.52,1.91-3.78,3.15-4,1.75-.27,3.78,1,5.62,1.75a9.39,9.39,0,0,1,2,1.74l3.51-4.59c2.67,2.76,1,4.25-.64,6.3-2.93,3.7-6.44,7.48-7.73,11.82-1.92,6.42,2.79,11.85,5.2,17.53.26.62,1.31.89,2.42,1.6.94-1.74,1.8-3.17,2.5-4.67,1-2,1.42-4.41,2.73-6.17,2.61-3.52,2.82-7.94,0-10.65-2.39-2.31-2.29-5,.27-7,5.27-4.14,8.25-4.27,13.29-.46,2.06-2.27.86-6.84,5.44-7.45,3-.4,5.88-1.6,9.87-2.75,1.12-4.18-4.8-4.26-7-7.25l4.19-2.82c-.22-2-2.93-4.51.43-5,1.85,2,3,3.89,4.69,4.92a65.8,65.8,0,0,0,9.15,4.39,4,4,0,0,0,2.91,0c.41-.18.47-1.65.31-2.46a10,10,0,0,0-1.52-2.55C1818.58,3379.65,1821.73,3379.31,1820.27,3375.44Zm-307.87,88a11.62,11.62,0,0,1-10.25-2.86,3.63,3.63,0,0,0-2.58-1c-5.11.94-10.17,2.09-16.72,3.49,1.07-4,1-7.9,2.81-9.46a17.43,17.43,0,0,0,5.9-9.82l4.61,6.07-3.94,2.13c.32.63.64,1.26,1,1.89l9.32-2c0-.42-.09-.83-.14-1.25l-3.83-1.41c-.11-.39-.23-.78-.34-1.16l9.58-4.12h0l.51.75-5.19,5.69c3.85,2.59,7.3,4.67,10.43,7.16a1.54,1.54,0,0,1,.19.17,3.62,3.62,0,0,1,.63.84,2.21,2.21,0,0,1,.16.35,2.66,2.66,0,0,1,.21.53,2,2,0,0,1,.11.32.75.75,0,0,1,.05.16,1.55,1.55,0,0,1,0,.23,1.87,1.87,0,0,1,.08.34c0,.14,0,.28.07.42v0c0,.12,0,.23,0,.34s0,.22,0,.32C1515.16,3462.18,1513.44,3463.24,1512.4,3463.41Zm31.22.69-3.2-2.21c1.06,3.9,2.06,7,2.66,10.09.21,1.1-.2,3-.95,3.46-1.41.79-3.61,1.48-4.91.92-5.84-2.52-6.27-5.28-2.35-10.44-2.44-3.29-4.91-6-6.64-9.18a8,8,0,0,1-.66-1.82c-.37-1.54-.39-3.27.25-4a28,28,0,0,1,8.11-5.54,4,4,0,0,1,2.34-.16l.57.09.59.1,1,.14.48,0h0c-.14,1.17-.3,2.5-.31,2.61h0l-.44.39c-.29.27-.57.51-.85.73a4.17,4.17,0,0,1-.4.35l-.43.37-.71.6a12.52,12.52,0,0,0-2.58,2.78c-.42.69.89,2.78,1.83,3.84a7.61,7.61,0,0,0,1.81,1.37l1.13.65c.4.22.81.47,1.26.75l2-.75c.48,1.43,1,2.86,1.43,4.3Zm13.68-10.19c1.18-2.78,2.25-5.53,3.63-8.11.13-.26,3.16.36,3.25.86.54,3,.62,6.16.92,10Zm103.64,118.86h0l0,0,.07.08A.18.18,0,0,0,1660.94,3572.77Z"/><path class="cls-1" d="M1092.92,3411.19s0,0,0,0l.12-.08Z"/><path class="cls-1" d="M1274.26,3735.17h0l.06,0s0,0,0,0l0,0Z"/><path class="cls-1" d="M1334.48,3616a1.82,1.82,0,0,0-.3,1.23c1.7,8.62-2.56,16.17-4.14,23-5.38,3-10.19,5.55-14.89,8.34a3.4,3.4,0,0,0-1.43,2.77c1.23,5.05-3,8.29-4,12.62-.36,1.63-2.35,2.89-4.28,5.1-.51,6-3.26,7.73-12,6.58,1.41,3.06,5.76,6,2.43,9.35-2.45,2.45-6.62,3.17-10.27,4.77-.76,5.9-.89,6.93-4,5.95l-.51-.17-.57-.2-.62-.23-.68-.26h0l-.12.16c-.16.19-.34.4-.3.48,3.27,5.9,3,8.5-2,13.29-2.08,2-2.79,3.23.44,4.55.73.3,1.74,1.63,1.57,2.09-1.12,3-2.55,5.83-3.83,8.74a9.36,9.36,0,0,0-1.16,3.32c0,2.56.27,5.12.44,7.68h0l-.75.58-.87.69-2,1.57c-2.94-3.52-6.17-7.34-9.34-11.21-2-2.41-3.48-5-1.59-8.16.22-.36.65-1,.56-1.1-3.48-3.49.47-6.82.15-10.18-.18-1.79-1.13-3.52-1.77-5.26-.17-.47-.67-.86-.72-1.32-.44-4.06-1-8.11-1.13-12.18a15,15,0,0,1,1-5.68c1.48-3.92,2.76-7.67.65-11.85-.61-1.23-.3-3.09,0-4.58,1.1-5.56,3.08-11,3.36-16.62.31-6.2-.65-12.51-1.58-18.69a6.67,6.67,0,0,0-3.74-4.35c-9.13-3.28-11.48-11.61-14.93-19.18-1.4-3.06-2.86-6.08-4.3-9.12a3.84,3.84,0,0,0-.8-1.4c-3.77-3-3.71-5.24.29-8.07-2.61-5.38-.59-11.63,4.91-16.07,1.09-.89,2.24-2.64,2.14-3.9-.33-4.2-.59-8.62-4.7-11.32-1,1.09-2,3-2.62,2.87a36.5,36.5,0,0,1-7.24-2.74c-.49-.22-.6-1.72-.94-1.74-5.44-.3-4.47-5.87-7.08-8.4a43.65,43.65,0,0,0-6.44-4.94,61.85,61.85,0,0,0-6.26-3.51c-1.72-.89-3.92-2.72-5.19-2.24-4.5,1.7-7.84-.57-11.2-2.5a108,108,0,0,1-11-7.48c-.78-.58-.94-2-1.35-3.06-1.12-2.89-1.72-6.14-3.45-8.6-3.73-5.3-8-10.15-9.8-16.66-.5-1.8-2.63-3.15-4.14-4.84-.66,2.5-.51,2.41,5.18,12.22,2.19,3.79,3.48,8.11,5.18,12.18l-1.57,1c-1.69-1.72-4.69-3.34-4.82-5.17-.36-4.92-3.77-6.64-7.58-8.77,3.18-3.3,1-5.28-.86-8-1.68-2.41-1.74-6-2.49-8.91l-9-8.44,1.15-.68c-1-2.13-2-4.24-2.94-6.42-.54-1.27-1.38-2.74-1.18-4a139.13,139.13,0,0,1,3.49-16.9c1.32-4.43,2.35-8.37-.78-12.48-.82-1.09-.48-3.06-.12-4.83q-3.32-8.09-6.64-16.16l.73-.14c-1.62-1.83-4.45-3.56-4.59-5.49a3.61,3.61,0,0,0-3.6-3.41c-3.22.65-4.41-2-6.3-3.33-2.45-1.74-4.42-4-8.08-3.35-1.35.22-3.3-1.54-4.56-2.81-1.79-1.81-2.44-1.35-3.75.59a31.51,31.51,0,0,1-6,6.36c-.75.63-2.45.1-3.72.1l-.84-1.46,6.53-6.69c-2.22-1.86-3.76-.48-5.16,1.59q-3.62,5.31-7.25,10.61h0l-.79.52-.92.63c-.91.62-1.82,1.25-2.74,1.86s-1.85,1.2-2.81,1.75c-4.53,2.64-9,5.37-13.8,7.56-1.72.79-4.11.12-6.34-.54,6.3-5.38,15.87-5.83,20.14-13.46l-.72-1.42-8.56.6c.43-2.06.83-4,1.23-5.86-2.08.75-3.18,1-3.73.57s-.58-1.68-.5-3.94c0-.8-1.19-1.65-1.73-2.34,1.52-2,2.59-4.15,4.32-5.41s4.13-1.36,6.12-2.26a8.36,8.36,0,0,0,4.1-3.71c-2.49.42-5.28,1.73-7.39,1s-3.21-3.48-4.73-5.29c4.88-5.39,11.46-1.41,17.81-3.88-3.3-1-5.83-1.41-7.94-2.56-1.52-.83-2.48-2.67-3.69-4.06,1.57-.68,3.1-1.84,4.7-1.94,2.68-.17,4.8-.53,5.41-3.6.11-.51.48-1.24.89-1.37,3.25-1.08,6.53-2,9.8-3l5.4-1.68c1.32,4.75,3.8,3.32,6.59.52,1.43,3.74,4.6,2.55,7,3.41,5,1.8,10.27-1.25,15.27,2.21,3.77,2.61,9.07,3,13.76,4.4,2.75-4.72,7.46-7.62,11.12-6.3l-3.16,2.45c.25.32.51.63.76.94l6.29-5.08c2.22,4.64,6.13,4.14,10.29,3.09.73-.18,1.63.37,2.45.58,3.68.9,7.34,1.94,11.06,2.67,2.7.53,5.17.95,3.35,6.24,5.67-6.56,7.59.61,11.07,1.2.62-1.62.81-3.38,1.78-4.29a3.94,3.94,0,0,1,3.75-.48c5,3.32,8.52,3.29,13.91.24,1.3-.73,3.57.24,6.59.56,4.11-2.31,4.14-3.91-1.13-8.15,1.2-1.45,2.22-3.16,3.68-4.29,1.07-.82,3.16-1.6,4-1.09,1.1.64,1.55,2.56,2,4,.81,2.48,1.42,5,2.3,8.2l3.79-4.13c.42,3.55.71,6,1.14,9.67,2.11-3.54,4-6,5.19-8.83s3.37-2.41,5.29-1.53,3.56,2.49,1.63,5a7.45,7.45,0,0,0-.72,2.57c-.41,1.59-.37,4.12-1.31,4.56-1.7.79-4,.36-6,.4-.92,0-2.6-.26-2.66-.06-1.36,5.14-4.65,3-7.81,1.37,0,.39,0,.78,0,1.16l3.83,2.12c0,2.94-.76,5.26-4.38,5.38-.14,0-.36,0-.42,0-4.86,5.62-12.91,8.46-13.9,16.44a34,34,0,0,0,2.87,5.53,10.76,10.76,0,0,0,3.69,2.44c1.78.92,3.69,1.57,5.44,2.51,3.4,1.82,6.73,3.76,10.09,5.64l1.34-1c-.33,2.17-1.08,4.38-.86,6.49s1.41,4.12,2.18,6.16c2.43-1,5.7-.74,5.38-5.07-.26-3.51-.75-7.33,3.66-9.57.83-.42.12-4.22-.17-6.43-.32-2.41-1.79-4.77,1.36-6.68.81-.49.93-3,.55-4.36-1-3.73.58-6.29,2.4-8.39,6.61.87,12.09,3.11,15.24,6.21.47,4.07-.17,8.46,1.27,9.31,5.37,3.14,6.81-2.74,9.47-5.88,2,3.33,3.93,6.19,5.43,9.26.55,1.13-.34,2.93.15,4.13,1.13,2.73,2.89,5,6.87,4.72-1,1.84-1.74,3.12-2.66,4.78,2.53-.63,5.16-2.69,5.85,1.48.78,4.69,0,5.94-4.08,6.5a3.38,3.38,0,0,0-2,.63c-3.71,4.24-8.64,3.25-13.21,2.84-5.06-.46-7.66,3-11.19,5,.22.42.44.84.67,1.26a25.38,25.38,0,0,1,4.43-2.68c1.3-.47,2.86-.23,4.31-.3,0,1.08-.49,2.35-.07,3.19a11.42,11.42,0,0,0,3.24,4.18c1.51,1.05,3.53,1.37,6.18,2.31-4.43,3-7.93,5.48-11.56,7.74a2.58,2.58,0,0,1-2.36-.92,2.83,2.83,0,0,1,.85-2.46c1.75-1.53,3.71-2.83,5.59-4.22l-.85-1.44c-1.46.88-3,1.68-4.36,2.66-3,2.08-5.67,4.58-8.82,6.29-3,1.61-4.11,3.19-2,6-3.11,1.72-6.56,2.92-9,5.2s-3.8,5.53-5.81,8.63c1.8,4.71.87,6.82-4.34,9-8,3.39-10,7.7-8.13,16.68.81,3.89,1.19,7.87,1.9,12.71-5.79-2.73-7.41-6.49-7.42-11.21a7.11,7.11,0,0,0-.15-2.86c-1.49-3.12-11-5.27-13.72-3-.73.6-.78,2-1.28,3.44-2.34.49-5,.7-5.23-4.05l-2.39,3.38-3.07-2.16c-4.67,4.64-10,9-10.08,16.23a30.27,30.27,0,0,0,2.6,12.73c2,4.28,10.89,3.19,13-1.17.43-.89.61-2.35,1.28-2.62a53.65,53.65,0,0,1,6.61-1.81c.26,1.55.87,3.14.68,4.63-.24,1.89-1.37,3.66-1.69,5.55a24.43,24.43,0,0,0-.07,4.71c3.84.77,7.06,1.4,10.21,2-.64,3.69-1.34,6.44-1.56,9.23-.45,5.62,2.61,7.61,8.08,6.78,2.32-.34,5,1.79,7.79,2.89,1-5,5.78-7.72,10.08-10.35,1.58-1,5.33.12,7.23,1.48,4.36,3.14,8.39,5.39,13.8,2.49,1.31-.69,3.3-.1,5-.1l-.92,1.1,11.43,12.54c3.78-2.08,7.14-1.19,10.72,2.78,6.47,7.19,6.55,8.49,1.47,16.9a20.77,20.77,0,0,1,2.66-2.57c.87-.6,2.78-1.32,2.91-1.12,2,3,4.7,1.09,7.09,1.29,1.09.09,2.67.31,3.13,1,2.8,4.43,7.61,2.89,11.44,4.21a24.76,24.76,0,0,1,4.85,2.62c3.64,2.3,6.9,5.27,7.85,9.46.42,1.88-1.2,4.46-2.41,6.41C1339.5,3609.09,1336.9,3612.46,1334.48,3616Z"/><path class="cls-1" d="M1399.33,3311.65c-.69,1-1.19,2.44-2.11,2.78-4.23,1.57-8.58,2.82-13.25,4.3l3.28,1.87-7.72,7.09.68,1.55a26,26,0,0,1,4.76.08,3.75,3.75,0,0,1,2.38,1.82,2.85,2.85,0,0,1-.73,2.51c-4.1,3.87-4.14,3.83,1.34,7-.75,1.27-1.27,2.81-2.32,3.75a45.77,45.77,0,0,1-6.64,4.86c-.68.42-1.93-.2-2.88-.07a11.06,11.06,0,0,0-2.45.92,7.83,7.83,0,0,0,1.39,2.22c.62.49,2.09.28,2.33.78a54.81,54.81,0,0,1,2.18,5.95c-1.72-.24-3.79.05-5.11-.8-4.27-2.79-4.58-2.89-6,1.32l8.66,1.37c-2.24,6.53-10.24,11.19-16.21,9.68-3.21-.82-5.49-.22-6,3.34s-2.66,4.77-5.81,5.12c-2.13.23-4.25.57-6.37.81-2.7.31-4.69,1.09-4.18,4.51.14,1-.54,2.12-1,3.13-1.33,3.09-2.9,6.09-4.07,9.24-1.81,4.92-4,5.55-7.51,2-.45-.45-1.26-.53-1.78-.95-1.78-1.47-4.29-2.67-5.1-4.57-2.35-5.5-4.09-11.26-5.88-17-1-3-.2-5.45,2.87-7.22,1.44-.82,2.25-2.74,3.34-4.16l-3.79-2.53c-.55-.35-1.13-.67-2.61-1.55l4.59-1.27c.45-5.07-2.82-1.54-4.15-1.9-1-4.35-1.57-8.58-2.87-12.59-2.3-7.1-4.85-8.51-12.15-7.34-5,.8-9.54.6-13.4-4.48l7.34-.86c.08-.48.17-1,.25-1.44a19.82,19.82,0,0,0-4.08-.87c-1.4,0-2.79.68-4.2.73-.68,0-1.39-.71-2.09-1.1.39-.66.63-1.66,1.2-1.95,3.9-1.9,7.92-3.54,11.77-5.52a4.15,4.15,0,0,0,2.1-3c-.13-3,1.47-3.37,3.89-3.82a9.77,9.77,0,0,0,5.22-2.9c3.82-4.38,8.55-5.35,13.48-2.3.82-.78,1.68-2.2,2.4-2.13.9.07,1.69,1.38,2.51,2.19s1.57,1.6,3,3.12c.23-2.56.34-3.79.54-6l8.8,1.84c.13-1.24.34-3.26.66-6.19,5,4.21,8.19,1.61,12.39-1.36,3.23-2.28,8.43-1.94,12.8-2.4,1.24-.13,2.63,1,4,1.61l0,1.18-7,2.39c6.65,1.29,13.26-5.36,20.61,1l-20.82,3.58.39,1.76c2.8-.75,5.61-1.51,8.42-2.23s5-.66,3.67,3.87l7.69-3.29.81,1c-1.25,1.72-2.51,3.43-3.77,5.15l.55.8a20.38,20.38,0,0,0,3.6-2c4.48-3.83,9.85-4.21,15.33-4C1397.43,3310.22,1398.37,3311.14,1399.33,3311.65Z"/><path class="cls-1" d="M1775.75,3663.7a2.35,2.35,0,0,1-.5,1.58c-2.9,3.57-5.84,7.1-8.79,10.63-.44.54-1.32,1-1.36,1.56-.5,7.23-7,7.93-11.5,8.83-3.82.75-8.37-1.69-12.44-3.14-.86-.31-1.71-2.58-1.46-3.72.83-3.89-1.18-4.43-4.62-4l2.74-5.76-6.65,6c-2.44-9.17-6.88-11.25-14.76-7.81-1.22.54-2.81.18-4.17.51-1.73.42-4.22.63-4.93,1.8-2.62,4.36-6.53,3.77-10.53,3.8-1.59,0-3.15,1.19-4.76,1.3a9.52,9.52,0,0,1-5.23-.77c-1.08-.64-2.28-3.44-1.89-3.86,5.21-5.68.34-10.91-.47-16.27-.3-2-.88-3.94-1.48-6.59l3.27,1.29c-.21-.62-.34-1-.45-1.32-.73-2.2-1.58-4.36-2.1-6.6a2.51,2.51,0,0,1,1-2.18c4.87-2.19,9.71-4.5,14.75-6.21,5.26-1.78,7.29-3.77,7.84-9.71l1.93,1c2.34-2.78,4.49-5.82,7.15-8.31,1.68-1.56,3.67-1,4.86,1.35a3.3,3.3,0,0,0,2.25,1.41c.37.06,1.27-1.11,1.35-1.79.41-3.82,2.27-5.79,7-4.74-1-1.75-1.61-2.73-2.78-4.71l14.58,3.67-4.51,7.18c3.07,2.13,5.86,4.22,8.83,6,.79.49,2.83.52,3,.1,1-1.92,2.34-4.14,2.2-6.14-.29-4-.5-7.67,2.17-10.94a23.84,23.84,0,0,1,1.92-1.6c.47,2,.83,3.45,1.14,4.9.38,1.8.11,4.17,1.18,5.31,3.19,3.4,4.09,7.28,4.34,11.71.1,1.56,1.7,3.07,2.73,4.52.29.41,1.2.4,1.45.81,1.86,3.07,3.17,6.6,5.51,9.22C1779.75,3648.88,1774.71,3656.54,1775.75,3663.7Z"/><path class="cls-1" d="M1295.9,3375.9c-.27,2.34-1.92,4.58-3.3,6.67-.18.27-2.28-.26-3-.93-1.14-1-1.75-2.62-2.84-3.72a2.11,2.11,0,0,0-3.83,1.58,2.94,2.94,0,0,0,1.38,2.22c5,2.32,5.71,5.45,2,10.31l-4.44-3.73-.57.34,3.28,5.93c-4.75.65-7.22-2.43-9.63-4.57-3.14-2.79-5.63-5.58-10.29-2.95-.67.37-2.57-1.45-3.89-2.26.85-1.28,1.49-2.81,2.63-3.75.74-.6,2.28-.11,3.31-.51,1.81-.7,4.15-1.28,5.08-2.69,1.17-1.8,2-4.72,1.35-6.5-.59-1.54-3.54-2.18-5.94-3.48-.33-.87-.65-2.85-1.76-4.2-.6-.74-2.54-.59-3.84-.46-.9.09-2.29,1.38-2.51,1.17-3.92-3.87-8.65-.73-13.25-1.35.28-1.34.49-2.35.75-3.56-4.46-1-3.76-4.3-2.81-7.36,1.11-3.56,3.55-5.55,8.13-5.27a24.17,24.17,0,0,0-1.23,3.55,13.57,13.57,0,0,0,.1,2.91c.63-.7,1.53-1.29,1.83-2.1.94-2.51,1.92-4.77,5.13-4.92,3.84-.18,4.94,1.35,3.32,4.77-.35.73-.64,1.49-1,2.19,2.22-1.09,4.22-2.43,6.42-3.08,2.88-.85,5.16-.21,6.41,3.19.59,1.62,2.47,2.95,4,4,1.4.92,3.2,1.19,4.79,1.83,5.38,2.15,6,4.17,2.17,9.54,2.42,1.35,4.75,2.6,7,3.94C1292.73,3373.68,1296,3375,1295.9,3375.9Z"/><path class="cls-1" d="M1305.87,3308l-.18,1.56-10.46,2c-1,2.76-1.21,5.2-2.53,6.64-2,2.23-4.44,4.3-8.23,3.41A7.4,7.4,0,0,0,1279,3323c-3.2,2.5-6,5.54-9.13,8.57,1.56,2.51.84,5.4-3.2,5.94a63.14,63.14,0,0,1-14.86-.08c-1.62-.17-3-2.39-4-3.22l11.73-7.23c-.8-2.58-1.39-4.5-2.25-7.29l6.8,2.5c-.22-.44-.43-.88-.64-1.32a19.75,19.75,0,0,1,3.36-2.32c1.72-.73,3.6-1.11,5.23-2.23-5.55-.68-10.72,4.87-16.19.36-1.55-1.28-2.56-3.2-3.67-4.64a59.48,59.48,0,0,1,7.2-3.72,4.71,4.71,0,0,1,3.79.75c2,1.56,3.79,1.56,5.06-.55,1.5-2.47,3.4-2.48,5.87-2,1.29.26,2.74-.37,5.14-.77l1.77,3.19c6.37-8.09,14.13-2.06,20.94-3.48C1303,3305.22,1304.55,3307.08,1305.87,3308Z"/><path class="cls-1" d="M1700,3572.77c.25,1.22,1.34,2.68,1,3.55-1.43,3.25-3.58,6.18-5,9.45-2.13,5-3.36,5.32-7.07,1.13-4.35,2.38-5.94,1.68-8.41-3.28-.92-1.87-2.43-3.44-3.5-5.24-1.63-2.72-.53-4.29,2.69-4.62,1.24-.12,2.43-1.16,3.53-1.94,1.71-1.21,3.36-2.5,5-3.85a31.81,31.81,0,0,0,3.9-3.7,48.68,48.68,0,0,0,3.09-4.68c1,.36,1.54.51,2,.76,1.94,1,3.87,2,5.8,3-1.23,1.59-2.86,3-3.55,4.82C1699,3569.46,1699.67,3571.24,1700,3572.77Z"/><path class="cls-1" d="M1776.41,3604.84c-4.29,2.3-8.07,1.57-10.49-1.54-.88-1.13-1.33-2.82-2.44-3.45s-4.13-1.1-4.38-.63c-2.41,4.59-5.38,4.54-9.43,2.18-1.39-.81-3.55-.28-5-.35.82-2.49,2.41-5.36,1.82-5.91-2.34-2.23-5.34-3.78-8.16-5.48a11.62,11.62,0,0,0-2.71-.85c3.37-2.28,6.12-4.4,9.14-6,1.08-.59,2.91-.3,4.21.13,4.35,1.47,8.62,3.19,13,4a27.56,27.56,0,0,1,3,4c1.32,2.61,5.12,3.87,4.14,7.88-.16.65,1.77,1.89,2.83,2.75C1773.3,3602.64,1774.72,3603.6,1776.41,3604.84Z"/><path class="cls-1" d="M1214.32,3362.47c.43,1.17.87,2.32,1.27,3.39-2.2,4.4-24.61,2.45-31.15-3.17l7.59-1.86.06-.93a29.26,29.26,0,0,1-4.87-.07,10.92,10.92,0,0,1-3-1.61c.91-.66,1.79-1.36,2.73-2s2.5-1.06,3.25-2c2.67-3.34,7.77-4.18,9.81-1.41,3.57-4.83,3.7,2.05,6,1.75,1.4-5.59,2-5.91,6.46-3.39-3.05,5.59,1.67,7.45,5.82,10.17Z"/><path class="cls-1" d="M1540.52,3620.55c-1.18,2.68-1.13,6.19-2.89,8.25-3.69,4.31-1.82,9.86-4.26,14.41-2.76,5.12-5.22,6.41-10.26,3.92-.88-2,2.19-5.14-1.74-6.31a17.77,17.77,0,0,1,1.41-3.63c1.53-2.29,3.48-4,1.39-7.36-2.26-3.69,1.45-7.71,5.38-9.26,2.63-1,4.15-5,6-7.7a6.24,6.24,0,0,0,.42-2.38C1539.65,3611.5,1541.93,3617.3,1540.52,3620.55Z"/><path class="cls-1" d="M1426.21,3428.54a9.83,9.83,0,0,1-6.33,5.26c-2.9.69-5.91,1-9.62,1.55l3.6-5.23-1.56-.57c.17-1.74.33-3.43.53-5.4l4-1.7-7.3-6.47a35.91,35.91,0,0,1,.66-4.55c.49-1.74.76-3.89,1.94-5,1.74-1.62,2.47-.1,2.95,1.76.13.5,2.1.52,3.81.89-.57,1.23-1,2.24-1.36,2.95,1.7,3.23,3.42,6.63,5.28,9.94.66,1.19,1.84,2.09,2.5,3.29C1425.87,3426.26,1426.6,3427.8,1426.21,3428.54Z"/><path class="cls-1" d="M1674,3584.41l-1.36.19c-.45,1.89-.8,3.8-1.41,5.64-.43,1.32-.94,3.2-1.92,3.6s-3-.45-3.73-1.4c-4.28-5.59-9.67-10.33-11.7-17.66-.73-2.67-4.43-4.56-6.88-6.69a27.61,27.61,0,0,0-3.66-2.31c2.16-2.93,3.78-2.76,6.19-.83,1.81,1.45,3.73,2.79,5.67,4.08,1,.65,2,1.29,2.93,1.93s1.89,1.24,2.82,1.88c0,0,0-.05,0-.08l.12.13-.08,0c1.62,2.76,3.19,5.54,4.87,8.26a6.51,6.51,0,0,0,2.31,2.57c.4.19,1.55-1.19,2.68-2.12Z"/><path class="cls-1" d="M1538.2,3358.24c.29.24.36.74.52,1.09-3.22,2.76-6.41,2-8.81-.72-4.52-5-2.08-8.69,1.19-12.86,4.52-5.77,9.5-8.72,16.64-9.53a11.57,11.57,0,0,0,4.57-1.94c2.72-1.67,3.22-1.72,7.14,1.12-1.85.79-3.15,1.24-4.34,1.88-5.6,3-11.41,5.7-16.67,9.21C1533,3350.11,1533.22,3354.07,1538.2,3358.24Z"/><path class="cls-1" d="M1192.74,3350a20.87,20.87,0,0,1-3.37,2.76c-3,1.56-6.27,2.59-9.11,4.37-5.28,3.3-7,3.05-10.41-2.08,1.87-3.16,3.56-6.21,5.46-9.13a5,5,0,0,1,2.52-1.58,21.11,21.11,0,0,1,3.37-.6c2.71,1,5.65,1.86,8.39,3.15C1190.85,3347.52,1191.7,3349,1192.74,3350Z"/><path class="cls-1" d="M1469.71,3330.13a3,3,0,0,1-2.19,1.42,30.14,30.14,0,0,1-4.83-.29c-.29-1.06-.63-2.3-1-3.69-4.65.65-4.16,4.54-4.94,7.84-5-2.65-6.59-5.67-6-9.24-2.2-.13-5.44.6-6.48-.6-1.38-1.59-2.7-5.13.46-6l7,2.08c1.71-1.18,3.18-3,4.6-2.93,1.15,0,2.11,2.42,3.37,3.5a31.74,31.74,0,0,0,4.78,3.22c1.47.84,3.2,1.26,4.58,2.2A2.68,2.68,0,0,1,1469.71,3330.13Z"/><path class="cls-1" d="M1743.84,3473.94c1.14,3.69-.25,6.48-3.1,7.86-2,1-4.86.19-7.51.19,0,.47-.08,1.41-.11,2l-5.07.9-5.21-3,8.78-4.89c.21.28.43.56.64.85.35-1.19.69-2.38,1-3.44.21-.19.33-.38.42-.37,8.16.71,3.85-5.75,5.2-9a25.64,25.64,0,0,1,2-3.27,14.35,14.35,0,0,1,2.21,2.49c.92,1.7,1.6,3.55,2.25,5C1744.77,3470.89,1743.45,3472.68,1743.84,3473.94Z"/><path class="cls-1" d="M1389.63,3386.28c-2,.64-3.94,1.61-5.57,2.29l-8.43-2.61c.15-.68.49-2.21.93-4.22l-4.37.81c-.49-5.15.89-5.91,5.38-4.93,3.14.68,6.64,0,9.94-.4,2.27-.27,4.78-2.19,5.89,1.53A6,6,0,0,1,1389.63,3386.28Z"/><path class="cls-1" d="M1264,3345.09c-.26.35-1.5,0-2.29-.07-3-.24-6.11-1-9-.63-6,.86-11.51-1.59-14.17-7-1.19-2.42,1.11-4.71,5.65-4.66.42.32,2.25,1,2.35,1.9.48,4.65,4,4.69,7.2,5.06,2.25.26,4.63-.42,6.82,0,1.5.29,2.93,1.59,4.07,2.76C1265,3342.84,1264.54,3344.39,1264,3345.09Z"/><path class="cls-1" d="M1254.21,3322.05c-.68,2.58-.69,6.12-4.68,6.33-3.06.16-6.57.22-6.62-4.45,0-.28.06-.76-.06-.81-7.74-3.53.83-5.87.71-8.85,0-.33,1-1,1.64-1C1248.16,3312.94,1254.17,3318.72,1254.21,3322.05Z"/><path class="cls-1" d="M1816.62,3694c-.54,1-.68,1.73-1.09,2-3.4,1.9-3.48,7-8,8-1.12.26-1.57,2.8-2.64,4-1.46,1.65-3,3.49-5,4.28-.71.29-2.92-1.91-3.8-3.36-1.86-3.08.61-4.67,2.77-6.11,3.66-2.45,7.42-4.77,11-7.25.57-.39.64-1.45,1.1-2.07s1.62-2.07,2-1.93A19.58,19.58,0,0,1,1816.62,3694Z"/><path class="cls-1" d="M1715.5,3576.39c-3,.56-6.09.85-9.55,1.26.15.68.47,2.09.71,3.14h4.46l-2,5.09c.86,2,1.92,4.62,3,7.19l-1.81,1.15-4.14-5c-1.89,4.52-2,4.62-5.4-.16-.79-1.13-.58-3.39-.09-4.89.71-2.22,2.7-4.13,3-6.33.46-3.3,2-3.42,4.66-3.15,2.08.22,4.25-.32,7.37-.61C1715.65,3574.38,1715.75,3576.34,1715.5,3576.39Z"/><path class="cls-1" d="M1217.34,3342.57c-4.77.8-8.33,1.44-11.91,2a35.71,35.71,0,0,1-7.52.78c-1-.07-1.8-1.9-2.7-2.93,1.08-.77,2.1-1.61,3.24-2.27,2.28-1.32,5-2.18,6.84-3.91s3-2.72,4.77.07c.64,1,2.2,1.45,3.19,2.31C1214.76,3339.92,1216.13,3341.39,1217.34,3342.57Z"/><path class="cls-1" d="M1306.19,3448l-4.42-1.54-.81,1.11c-.48-1.11-1-2.23-1.54-3.56a13.18,13.18,0,0,1-2,.23c-1.43,0-2.86-.12-4.29-.2.41-1.85.48-3.88,1.33-5.52.73-1.42,2.33-2.39,3.53-3.56,1.63-1.59,3-2.41,3.65.81a2.82,2.82,0,0,0,1.38,1.77C1306.78,3439.3,1308.2,3443.69,1306.19,3448Z"/><path class="cls-1" d="M1825.38,3689.47c-2,1.31-3.51,3.31-5.89,5.64-1.82-.73-3.68-6.14-1.45-8.52,2.85-3.06,2.46-5.57.46-8.65-.61-.94-.56-2.32-1-4.46,5.59,1.93,3.67,10.24,10.22,9.45C1828.77,3685.93,1827.94,3687.79,1825.38,3689.47Z"/><path class="cls-1" d="M1691.57,3602.06c-5-.89-10-1.8-15-2.68a15.36,15.36,0,0,1-3.31-.49,23.79,23.79,0,0,1-3.54-2.26c1.11-1,2.3-2.88,3.3-2.79,4.17.38,8.26,1.58,12.43,2C1688.63,3596.24,1691.22,3596.87,1691.57,3602.06Z"/><path class="cls-1" d="M1409.44,3427c-.09.69-1.81,1.28-2.85,1.73-1.9.81-3.85,1.48-6.31,2.4a74.34,74.34,0,0,1-.58-8.4c.09-2.3,7.17-5.63,9.2-4.54.24.13.62.35.62.54A61.63,61.63,0,0,1,1409.44,3427Z"/><path class="cls-1" d="M1252.78,3526c-1,.69-2,1.8-3,2-2.51.42-5.19,1.35-5.59-3.17-.28-3.11-7.44-5.75-11.82-5-1.07.17-2.12.53-4,1,3.76-5.46,8-3.59,11.78-2.45a60.6,60.6,0,0,1,10.44,4.86C1251.48,3523.75,1252,3525.05,1252.78,3526Z"/><path class="cls-1" d="M1225.28,3358c-2.56.61-7.46-4.3-7.3-7.8l4,2.09a18.6,18.6,0,0,0-.28-3.3c-.88-3,1.46-3.24,3.1-3.07,1.11.11,2.45,1.5,3,2.65s.39,3,.7,4.41C1229.13,3355.82,1227.79,3357.43,1225.28,3358Z"/><path class="cls-1" d="M1746.86,3457.68a13.24,13.24,0,0,0-1.24,1.94,37.51,37.51,0,0,1-5.6-.42c-1-.24-2.65-1.34-2.56-1.77.67-3.52,1.68-7,2.7-10.86a9.93,9.93,0,0,0,1.46,2.79,11.56,11.56,0,0,0,3.83,2.78C1749.26,3453.6,1749.56,3454.49,1746.86,3457.68Z"/><path class="cls-1" d="M1709,3540.13c-2.79-.65-5.12-.89-7.14-1.82-.81-.38-1.46-2.42-1.21-3.46a23.78,23.78,0,0,1,2.68-6.12c.49-.84,1.72-1.83,2.51-1.75a3.22,3.22,0,0,1,2,2.24C1708.35,3532.25,1708.5,3535.35,1709,3540.13Z"/><path class="cls-1" d="M1476.4,3317.05c-3.39,5.63-9.21,7.89-13.09,5.44-1.29-.82-1.8-2.86-2.66-4.34,1.45-.52,2.88-1.4,4.35-1.46,1.79-.08,3.59.71,5.41.81A51.49,51.49,0,0,0,1476.4,3317.05Z"/><path class="cls-1" d="M1709.34,3340.61a5,5,0,0,1-.21,1.1,104.84,104.84,0,0,1-12.35.83c-1.09,0-2.29-2.2-3-3.6-.25-.46.88-2.34,1.2-2.29a21.72,21.72,0,0,1,4.42,1.38,11.94,11.94,0,0,1,1.58.91C1705.6,3332.14,1706.25,3341,1709.34,3340.61Z"/><path class="cls-1" d="M1196.44,3334.45c-.28.68-1.66.88-2.5,1.38-1.25.73-2.48,1.51-3.69,2.31s-2.64,1.83-4.4,3.05l-4.21-3.47a21.32,21.32,0,0,1,3.58-2.91,67.41,67.41,0,0,1,7.78-3.29c1-.35,2.5-.62,3-.12A3.32,3.32,0,0,1,1196.44,3334.45Z"/><path class="cls-1" d="M1229.25,3341.32c-2,1-4.87,1.95-6.72,1.22s-3-3.48-4.31-5.47c-.19-.28,1-1.9,1.11-1.85a32.89,32.89,0,0,1,3.72,1.9c.81-.38,1.93-1.27,3.1-1.35s3.47.35,3.65,1C1230.18,3338.2,1230.07,3340.9,1229.25,3341.32Z"/><path class="cls-1" d="M1742.42,3437.83l-.81,1.12-4.57-1.09c-1.39-5.6-2.72-11-4.14-16.64a12.13,12.13,0,0,1,1.9-.15c.9,3.61,5.43,5.58,4.48,10.12-.21,1,.94,2.26,1.49,3.4S1741.87,3436.76,1742.42,3437.83Z"/><path class="cls-1" d="M1267.88,3529.87c-4.87,2.94-14.58,2.39-16.41-.5l3.68-.29c.91-1.53,2.1-3.94,2.35-3.85C1260.81,3526.47,1264,3528.06,1267.88,3529.87Z"/><path class="cls-1" d="M1751.54,3701.59c-3,0-3.51-2-3.44-4.26.1-3.26,1.39-5.2,5.62-4.7,1.2.92,3.28,1.72,3.42,2.78C1757.51,3698.14,1754,3701.57,1751.54,3701.59Z"/><path class="cls-1" d="M1243.8,3347.7l-12,8.27C1231.39,3346.5,1234.43,3344.33,1243.8,3347.7Z"/><path class="cls-1" d="M1607.62,3318.62c-5.75,2.92-7,2.75-9.44-2.19,2.14-1.34,3.91-2.94,6-3.55a5.28,5.28,0,0,1,4.44,1.29C1609.86,3315.52,1610.07,3317.36,1607.62,3318.62Z"/><path class="cls-1" d="M1228.34,3330.94a20.4,20.4,0,0,1-4.78-.28,9.85,9.85,0,0,1-3.68-2.35c-.86-.79-2.05-2.2-1.82-2.95.31-1,1.84-1.62,3.38-2.82,2.34,1.57,4.61,2.7,6.31,4.4C1228.52,3327.7,1228.17,3329.58,1228.34,3330.94Z"/><path class="cls-1" d="M1715.7,3563.57c-.21-3.49-7.08-4.4-2.38-9.18,1.34-1.37,2.82-3.21,5-1.07C1720.93,3555.89,1720.17,3559.51,1715.7,3563.57Z"/><path class="cls-1" d="M1252.27,3386.18c-1.68,1-3.09,1.93-4.51,2.8-1,.63-2,1.25-3.08,1.87-.75-1.31-2-2.58-2.12-3.94a5.1,5.1,0,0,1,1.74-3.88C1246.89,3381.2,1250.51,3382.72,1252.27,3386.18Z"/><path class="cls-1" d="M1616.7,3324.23c-4.5,2.48-7.68-.36-11.44-1.56C1611.42,3316.49,1612.05,3316.57,1616.7,3324.23Z"/><path class="cls-1" d="M1626.49,3325.62c-1.28,1-2.48,2.5-3.86,2.68-1.6.21-3.36-.79-5-1.26l2.72-6.88Z"/><path class="cls-1" d="M1613.53,3560.8a3.14,3.14,0,0,1-2.3,1.91c-.81.08-2.43-.86-2.49-1.48-.27-2.74-.12-5.53-.12-9C1613.59,3554.35,1614.17,3557.4,1613.53,3560.8Z"/><path class="cls-1" d="M1274.31,3735.13s0,0,0,0h0Z"/><path class="cls-1" d="M1274.33,3735.1l0,0s0,0,0,0Z"/><path class="cls-1" d="M1283.53,3739.38c-2.83-.44-4.72,3.55-7.94,1-2.17-1.69-3.25-2.91-1.38-5.18l.08-.09C1279.29,3732.45,1280.33,3738.05,1283.53,3739.38Z"/><path class="cls-1" d="M1240.15,3328.22c-2.19,1.43-3.63,3.09-4.66,2.86-1.2-.26-2.84-2.2-2.8-3.36s2-2.92,3.13-3S1238.14,3326.5,1240.15,3328.22Z"/><path class="cls-1" d="M1299.72,3729.58l-9.7,2.68c.72-2,1-4.35,1.69-4.47a45.67,45.67,0,0,1,7.77-.17Z"/><path class="cls-1" d="M1724.27,3492.59l-1.15.1c-1.56-1.56-3.66-2.9-4.42-4.79-.32-.79,2.22-2.72,3.46-4.14l1.36.27Z"/><path class="cls-1" d="M1704.47,3518.16c-5.48-1.85-5.77-4.5-1-9.26C1703.83,3512.39,1704.12,3515,1704.47,3518.16Z"/><path class="cls-1" d="M1210.52,3325l-.29,1.84-7.85,1.63c-.27-.45-.53-.9-.79-1.35,1.47-1.15,2.8-2.79,4.46-3.28C1207.32,3323.43,1209,3324.52,1210.52,3325Z"/><path class="cls-1" d="M1226.93,3366.16l-6.06,2.61c-.46-.85-.93-1.69-1.4-2.54,1.54-1.11,3-2.53,4.7-3.14C1224.67,3362.91,1226,3365.07,1226.93,3366.16Z"/><path class="cls-1" d="M1722.74,3339.84l-.27,1.49c-4.6,2.3-7.41,1.66-9.37-2.34Z"/><path class="cls-1" d="M1724,3570v9.73C1719.43,3576.78,1719.43,3576.78,1724,3570Z"/><path class="cls-1" d="M1674.17,3530.29c.88-2.18,1.77-4.35,2.86-7.06C1680.53,3527.54,1679.86,3529.61,1674.17,3530.29Z"/><path class="cls-1" d="M1698,3557.71c-2.55-5.81,2.88-7,4-10.2C1703,3551.52,1700.33,3554,1698,3557.71Z"/><path class="cls-1" d="M1209.24,3329.62c-.47,4.09-4.66,2.83-6.81,5.55C1202.39,3329.37,1202.54,3329.27,1209.24,3329.62Z"/><path class="cls-1" d="M1793.78,3357.69l-6,2.58c-.28-4.12,1.45-5.44,4.23-4.95C1792.72,3355.44,1793.2,3356.87,1793.78,3357.69Z"/><path class="cls-1" d="M1778.89,3589.76c-.63,1.31-.93,3.15-2,3.81-1.35.85-3.29.76-5,1.07-.16-.49-.31-1-.46-1.46l6-4Z"/><path class="cls-1" d="M1744.3,3581.82l-7.35,3.33C1737.49,3579.1,1740,3579.71,1744.3,3581.82Z"/><path class="cls-1" d="M1237.79,3342.61l-5.13,1.13c-.14-.89-.29-1.79-.43-2.68a48.76,48.76,0,0,1,4.93-.83A12.63,12.63,0,0,1,1237.79,3342.61Z"/><path class="cls-1" d="M1781.23,3589.34l-4.43-7.24C1782.13,3583,1783,3584.41,1781.23,3589.34Z"/><path class="cls-1" d="M1714.66,3543l-1.2,2.15-4.62-2.41a14.47,14.47,0,0,1,1.37-2.13A48.89,48.89,0,0,1,1714.66,3543Z"/><path class="cls-1" d="M1093.06,3411.08a1.21,1.21,0,0,1-.1.14l0,0h0l.14-.11Z"/><path class="cls-1" d="M1095.89,3412.6a39,39,0,0,1-2.64,3.46c-.15.16-1.37-.34-1.71-.8a2.18,2.18,0,0,1-.07-1.84,13.74,13.74,0,0,1,1.49-2.2Z"/><path class="cls-1" d="M1810,3639.74l-6.14-4.52C1808.32,3633.46,1809.73,3634.36,1810,3639.74Z"/><path class="cls-1" d="M1237.26,3320c-1.83,1.27-2.7,2.3-3.7,2.43-.68.09-2.13-1.06-2.14-1.68,0-.8,1-2.22,1.67-2.29C1234.11,3318.39,1235.23,3319.22,1237.26,3320Z"/><path class="cls-1" d="M1482.84,3463c1.07-4,1-7.9,2.82-9.46a17.47,17.47,0,0,0,5.89-9.82l4.62,6.07-4,2.13,1,1.89,9.32-2c0-.42-.09-.83-.13-1.25l-3.83-1.41-.35-1.16,9.59-4.11.5.75-5.18,5.69c3.84,2.59,7.3,4.67,10.43,7.16a5.79,5.79,0,0,1,1.6,4c0,.62-1.7,1.68-2.75,1.85a11.6,11.6,0,0,1-10.24-2.86,3.65,3.65,0,0,0-2.59-1C1494.46,3460.46,1489.39,3461.61,1482.84,3463Z"/><path class="cls-1" d="M1534.87,3465.92c-2.45-3.29-4.91-6-6.64-9.18-.88-1.61-1.34-4.78-.41-5.79a27.85,27.85,0,0,1,8.11-5.54c1.23-.62,3.12.09,4.94.22-.14,1.17-.3,2.5-.32,2.61-2.35,2.17-4.3,3.44-5.4,5.23-.42.69.88,2.78,1.83,3.84s2.45,1.65,4.2,2.77l2-.75,1.44,4.3-1,.47-3.2-2.21c1.07,3.9,2.06,7,2.66,10.09.21,1.1-.19,3-1,3.46-1.41.79-3.6,1.48-4.9.92C1531.37,3473.84,1530.94,3471.08,1534.87,3465.92Z"/><path class="cls-1" d="M1565.09,3456.7l-7.79-2.79c1.18-2.78,2.24-5.53,3.62-8.11.14-.26,3.16.36,3.25.86C1564.71,3449.7,1564.8,3452.82,1565.09,3456.7Z"/><path class="cls-1" d="M5390.93,2530.36l-179.26-274.59V1598.4a46.51,46.51,0,0,0-46.46-46.46h-1028a46.52,46.52,0,0,0-46.47,46.46v657.4L3912.42,2530a15,15,0,0,0-.61,15.33,55.22,55.22,0,0,0,18,15.89h0l1442.88-1.13a15,15,0,0,0,13.66-8.84h0a15,15,0,0,0,4.58-20.89Zm-1270.15-932a16.48,16.48,0,0,1,16.47-16.46h1028a16.47,16.47,0,0,1,16.46,16.46v647.27H4120.78Zm-168.14,924.79,161-247.52h1075.2l161.82,247.88Z"/><path class="cls-1" d="M5163.43,2470.58l-122.48-164a15,15,0,0,0-12-6H4293.82a15,15,0,0,0-12,6l-121.87,163.78a15,15,0,0,0,12,24l979.45.22h0a15,15,0,0,0,12-24Zm-961.62-6.24,99.55-133.78h720.05l100.07,134Z"/><path class="cls-1" d="M4480.48,2123.94l.75-.58h0ZM4300,1799.28a.55.55,0,0,1-.09.14s.07-.1.11-.14Zm-.9.6.79-.52h0C4299.65,1799.53,4299.39,1799.71,4299.12,1799.88Z"/><path class="cls-1" d="M5027.25,1763.65l-11.62-1.32c-10.92-7.13-22.53-13-36.44-13.66-.53,1.29-1,2.52-1.4,3.44-5.91-.15-11.52-4.63-17.32,1a42.39,42.39,0,0,1-4.13-4c-2.45-3.07-6-4.35-9.17-3-5.77,2.34-9.47-1.25-13.85-3.34-1.67-.81-3.81-2-5.34-1.52-4.87,1.36-8.3-1.75-13.54-3.36l-3.52,6.46-13.7-1.17c-1.2,2.63-3.74,2.59-10.78-1.27l2.74-2.3c-3.27-6-9.43-6.15-13.05-.23-10.61-5.37-21.57-6.44-32.84-1.46a3.07,3.07,0,0,1,1.1-1.55c2.12-1.17,4.62-1.9,6.33-3.48s3.87-4.08,4-6.27c.16-2.51-8.59-6.74-11-5.18-3.82,2.47-5.28.37-7.51-2-2.84-3.08-6.05-2.1-7.37,1.91-.44,1.32-.68,2.71-.89,3.59-4,0-7.87-.49-11.59.12-4.57.75-9,2.42-13.48,3.7a6.51,6.51,0,0,0-1.18.52c-1.75.95-2.47,2.09-.36,3.39a9.64,9.64,0,0,0,2.41.71l-1.15,1.6c-2.51,0-5.08-.33-7.5.13-1.37.25-3.2,1.63-3.49,2.82-.23,1,1.45,2.49,2.37,3.68,1.36,1.74,2.79,3.42,4.19,5.12-3.37-1.19-5.84-3.1-8.44-4.81a3,3,0,0,0-2.6-.23,3.64,3.64,0,0,0-1.21,2.47,6.29,6.29,0,0,0,.68,2.32,9.16,9.16,0,0,1-4.72-3.18c-.9-1.31-1.12-3.09-1.88-5.4-1.34,2.76-.31,14.29,1,15.31.65.49,1.81.26,2.71.49,1.68.46,3.69.6,4.92,1.63,1.44,1.21,2.2,3.24,3.44,5.22a5.81,5.81,0,0,1-1.36-.59c-5.94-5.57-5.94-5.57-9.15,1.62-.12.26-.21.53-.35.78-1.68,3-3.94,3.65-7.64,1.39,1.55-.73,2.81-.93,3.36-1.66,1.13-1.52,2.92-3.52,2.63-5a182.94,182.94,0,0,0-5-18.5c-.41-1.27-2.47-3.09-3.37-2.88-1.35.31-2.63,2-3.44,3.41a22.35,22.35,0,0,0-2,5.36c-.42,1.53-1.15,3.36-.68,4.68.69,1.94,2.43,3.48,3.52,5.3a10.49,10.49,0,0,1,.78,3l-.92.61c-4.09-5.66-9.35-7.91-15.92-6.59.14,2.15.27,3.78.39,5.4l-1,.21c-.75-1-1.5-2-1.87-2.48-3.57,1.07-7,3.37-9.54,2.59-4.71-1.48-7.36,1.11-10.55,3.07-1.45.88-2.77,2-4.87,3.48-.6-4.5-1-8.4-6.65-6.84,1,3.14,2,6,3.12,9.45-1.25-.46-1.82-.9-2.24-.79-2.44.59-4.83,1.3-7.24,2a14.53,14.53,0,0,1,1.14,3.49c.05.79-.73,1.63-.59,1.35-2.39-1.13-4.39-2.92-5.53-2.48-4.24,1.65,1.28,3.17.56,5.06-4.5-2.11-6.22-5.21-5.69-10,1.81.33,3.8,1.28,5.39.83,2.1-.61,3.88-2.31,5.79-3.55-1.18-1.37-2.11-3.23-3.61-4-4.91-2.57-10-4.73-15-7.09-.62-.28-1.5-.75-1.58-1.23-.79-5.35-3.76-2.51-6.14-2.09a15.28,15.28,0,0,0-5.73-1.28c-.32,0-.65,2.13-1,3.32-2.55-.56-5.18-3.21-7.66.1.62,1,1.23,1.88,2.35,3.6-3.22,1.62-6,3.89-9,4.37-5.56.88-7.79,4.87-9.87,9-2.7,5.34-6,9.83-11.92,11.79-3.56,1.17-5.77,4.5-4.82,7.42,1.11,3.44,2.49,6.79,4,10.79,2.15-1,4.19-1.85,6.19-2.8,2.34-1.1,4.17-.73,5.33,1.71,1,2.14,2.12,4.24,2.94,6.46,1.4,3.81,2.07,4.14,4.64.92,1.9-2.4,2.57-5.95,4.76-7.92,3.61-3.25,3.76-5.71.63-9.31-2.84-3.28-1.42-6.39,2.54-8.78,2-1.17,3.23-3.53,4.71-5.43,1-1.32,1.76-3.79,2.87-3.94,1.79-.24,3.78,1,5.31,1.49-1.77,1.82-2.85,2.94-3.91,4a14.15,14.15,0,0,1-2.1,2.07c-3.63,2.4-4.34,6-1.93,10.53,1.74,3.26,4.93,3.9,9.16,1.86,2.76-1.34,3.3-1,4.3,3-4.1-1.88-7.22-1-9.41,3l2.78,3.07c-.24.43-.49.86-.74,1.29l-5.31-2.68a30.79,30.79,0,0,1-.53,4.05c-.82,3.18-1.08,8.74-4.5,8-5.35-1.14-9.06,2.48-13.84,2.36-3.61-.08-6.23-2.14-5.22-5.73.23-.8.84-1.5,1.11-2.31.78-2.29-1.36-5.5-2.33-5.44-1,1.76-1.36,3.71-2.3,4-3.25,1-2.58,2.66-1.33,4.79.95,1.61,1.67,3.34,2.52,5.07-4.42,2.58-11,1.23-10.85,8.66-6.15-2.4-6.36,9-11.65,5.63l-8.9,5.1c9.13,2.67,8.76,8.41,6.55,15-4-.67-7.75-1.36-11.49-1.88-2.86-.4-4.72,1.38-4.4,3.87.49,3.82,1,7.35-1.91,10.49-.34.38-.37,1.7-.07,1.91,2.23,1.55,1.68,7.2,6.75,4.67.24-.12,1,.75,1.48,1.22,1.31,1.32,10.34.92,11.31-.67a53.53,53.53,0,0,0,3.08-6c.64-1.43.69-3.23,1.58-4.4,2.31-3,4.94-5.67,8.16-9.28,3.41,2.11,7.59-.11,10.94-2.31,2.81,3.06,4.89,6.08,7.67,8.17,3.62,2.74,7.91,4.65,7.33,10.48l1.38,0c.55-1.85,1.08-3.7,1.69-5.77l4.53,1.08c-1.51-1.72-2.25-2.5-2.92-3.34-3.44-4.23-9.53-5.53-11.76-11.32-.9-2.34-1.15-3.5,1-5a14.14,14.14,0,0,1,1.64,1.33c2.27,2.52,4.42,5.15,6.76,7.59,1.45,1.52,3.68,2.49,4.66,4.21,2.12,3.7,3.59,7.77,5.48,11.61a4,4,0,0,0,2.37,1.9c.52.11,1.31-1.09,2-1.67s1.55-1.21,2.58-2l-3.63-2.62c2.4-4.92,7.14-3.8,10.85-5-.54.92-1,1.76-1.4,2.55-.08.15-.15.31-.22.46s-.27.59-.39.88c-1.88,4.68,0,7,6.76,10.6l2.92-1.79a23.89,23.89,0,0,0,4.6,1.57,31.3,31.3,0,0,0,5.17-.16c.29,1.52,1,2.9.67,4-1,3.34-2,6.83-3.91,9.7-.61.93-3.88-.08-5.86.23-1.64.25-3.17,1.15-5.06,1.89-.78-.44-2.21-2-3.38-1.81-4.25.66-7.1-2.3-10.1-4-3.26-1.84-4.8-1-6.26,1.43-.83,1.34-.92,3.13-1.51,5.32-1.75-.84-3.4-1.69-5.09-2.45-2.8-1.27-5.61-2.5-8.44-3.72-2.43-1-4.89-2.07-7.34-3.1l1.61-1c.14-2.51,1-5.3.22-7.46s-3.53-2.48-5.89-1.12a2.65,2.65,0,0,1-1.68.11,28.7,28.7,0,0,0-20.3,3.82c-4.12,2.45-6.73,1.55-10,.07-1.65,2.25-2.81,5.59-4.81,6.19-4,1.19-4.38,3.57-4.84,6.89a12.65,12.65,0,0,1-2.83,6.13c-1.43,1.69-4.25,2.3-5.45,4.06a35.58,35.58,0,0,0-5.37,10.69c-1.18,4.55-2,9.56-1.33,14.15s.43,8-4.21,10.76c2.67,1.46,4.79,2.94,2.82,6-.21.34.7,1.51,1.25,2.17s1.46,1.2,2,1.93c4.82,6.25,9.47,12.65,14.52,18.69.78.93,3.45.68,5.12.33,2.22-.46,4.42-2.41,6.45-2.18a19.54,19.54,0,0,0,12.87-3,9.81,9.81,0,0,1,5-1c.9,0,2.52.94,2.58,1.57.38,4.26,3.54,4.57,6.66,5.23a31.68,31.68,0,0,1,4.61,1.63c-.19,3.49.67,7-.71,9-2.89,4-.53,5.9,1.79,8.34,1.74,1.83,4.14,3.62,4.75,5.84,1.59,5.82,2.38,11.87,3.62,18.56-.8,1.39-2,3.77-3.44,6-2.78,4.41-2.42,8.67-.17,13.25,2,4,4.74,8.43,4.66,12.62-.14,7,3.92,12.18,5.9,18.21.75,2.28,2.54,4.77,2.07,6.75-.76,3.18.86,4.83,2.78,5.79,1.48.74,3.75.07,5.64-.19a33.73,33.73,0,0,0,5.61-1.27,80.23,80.23,0,0,0,10.45-3.77c1.63-.78,2.8-2.64,4-4.15a33.31,33.31,0,0,0,2.9-4.42c.49-.83.52-2.43,1.11-2.63,3.26-1.12,2.79-3.87,3.25-6.33.24-1.26.85-3.31,1.61-3.47,5.28-1.07,4.38-5.16,4-8.45-.33-2.94-1.91-5.71.89-8.3,2-1.88,3.63-4.42,5.93-5.82,8.06-4.84,6.68-6.59,5.78-12.48s-3-11.79-2.94-17.67c.07-7.37,5.12-12.8,10.06-17.91,4-4.18,8.66-8,11.81-12.79,3-4.51,4.33-10.08,6.5-15.47-.82-1-1.88-2.3-2.78-3.4-1.66.93-3,1.71-4.33,2.4a32.71,32.71,0,0,1-4.24,1.9c-3,1-9.84-1.7-11.15-4.11-3-5.53-6.12-11-9.15-16.49-2.39-4.37-4.71-8.78-7.06-13.17a1.14,1.14,0,0,1-.13-.83c2.27-4.83-1.81-7.1-4-10.2-1.55-2.22-2.75-4.68-4.35-7.44,2.62,1.64,4.46,2.63,6.11,3.89a10.31,10.31,0,0,1,2.26,2.8c.79,1.27,1.37,2.66,2.09,4,1.64,3,3.35,5.86,5,8.82,1,1.75,1.63,3.66,2.73,5.3,3.81,5.7,8.43,11,7.5,18.68-.14,1.1,1.33,2.85,2.5,3.49.62.34,2.17-1.1,3.35-1.64,2.21-1,4.44-2,6.69-2.85.89-.36,1.94-.36,2.79-.79,3-1.52,5.89-3.13,8.73-5,7.59-4.83,8.25-4.53,11.92-11.57a5.28,5.28,0,0,1,1.18-1.18c3.14-3.07,2.15-7-1.85-8.82-2.07-.94-3.77-2.74-6-4.4a4.09,4.09,0,0,1-1.27,1.38c-1.69,1-3.52,2.51-5.3,2.51s-4.24-1-3.46-4.18c.13-.53-1.45-1.48-2.24-2.23-2.93-2.77-6.21-5.31-7.16-9.85l5.55.47-.72.78a83.77,83.77,0,0,0,6.58,6.86c3.08,2.57,6.42,2,9.42-.61,2,6,9.08,7.89,12.81,5l9.86,1.62c.36.31,1.66,1.38,2.9,2.52s3.09,2.31,3.85,3.86c2.71,5.54,3.62,6,9,3.34a19.31,19.31,0,0,1,.35,3.38c-.44,6.06,1.25,11.39,4.31,16.67,2.47,4.26,3.73,9.22,5.62,13.84a19.35,19.35,0,0,0,1.82,3c1.12-.74,2.52-1.25,3.31-2.25,3.2-4,3-8.68,2.39-13.43-.18-1.44-.41-3.49.38-4.32,3.14-3.28,6.66-6.18,10.05-9.22,1.75-1.58,4.83-3,5-4.74.48-4.48,3-4.41,5.64-4,1.4-1.79,2.54-3.25,3.39-4.32,1.42,2.52,2.41,5,4,6.91,2.75,3.35,5.38,6.41,4.79,11.34-.28,2.32,1.82,3.15,3.83,1.51.8-.66,1.12-1.91,1.66-2.89.43.26.85.53,1.3.79.27,1.19,1,2.49.75,3.55-1.31,5.27,2.29,9.33,3.29,14,.4,1.89,3.32,3.52,3.25,5.18a26.08,26.08,0,0,0,1.33,9.63c.09.3.2.6.31.9a32.64,32.64,0,0,0,2.66,5.45l.59,1,.54.82h0l0,0,.08.08a.9.9,0,0,0-.05-.09l5.95,1.52c1.2-5.82,1.35-10.6-3.1-14.45-3-2.58-5.83-5.4-6.41-9.56a23,23,0,0,1,.12-5.68,3.28,3.28,0,0,1,2.1-.52c1,1.53,1.73,3.21,2.57,4.84a3.81,3.81,0,0,0,.5.64c1.82,0,3.94.37,4.56,1.51.74,1.35.18,3.41.18,5.51,6.1-2.91,9.92-7.46,10.31-11.86a13.42,13.42,0,0,0-5.47-12.7c-4.55-3.56-4.42-5.87-.51-9.55a24.61,24.61,0,0,0,2.61-3.55c.68,1.4,1.25,2.57,2,4.15,3.79-3.62,7.44-6.82,13-5.36.87.23,2.49-.8,3.18-1.7,3.29-4.3,7.29-8.15,9-13.5.32-1,1.7-2.06,1.47-2.67-1.72-4.5-.43-9.91-4.59-13.77a10.58,10.58,0,0,1-2.9-6.44c-.09-1,2.82-2.1,4.18-3.36.6-.54,1.23-2,1-2.34a6.1,6.1,0,0,0-3.19-2.15c-.85-.14-1.87,1.3-2.89,1.43a5.5,5.5,0,0,1-3.75-.68c-.72-.56-1.24-2.69-.78-3.23a61,61,0,0,1,6.06-5.68l1.06,6,8.52-2.92c.19.44.38.88.56,1.32-.65,1-1.31,2.06-2.1,3.32,4.6,1.54,6,5.46,6.66,9.47.48,3,1.84,4.3,4.58,2.87,3.33-1.74,3.16-4.85,1.79-7.41-1.7-3.16-4.22-5.86-6.08-8.35,1.24-2.15,3.2-4.25,3.67-6.64.61-3.1,2.07-3.75,4.81-4,1.81-.15,4.11-.76,5.2-2,7.15-8.39,9-18.36,7-28.91-1-5.28-5.11-6.57-8.43-3.63l-5.39-4.49c1.69-2.5,3.54-4.85,5-7.46,3.66-6.84,6.5-8.29,14.4-6.94,2.19.37,4.42,1.29,6.09-1.43.25-.42,2.69.43,4.08.81s2.75,1.48,3.83,1.17,2.26-1.77,2.94-3c.54-.92.11-2.37.61-3.32.82-1.51,1.89-3.78,3.14-4,1.75-.27,3.79,1,5.63,1.75a9.39,9.39,0,0,1,2,1.74l3.5-4.59c2.67,2.76,1,4.25-.63,6.3-2.93,3.7-6.44,7.49-7.73,11.82-1.92,6.42,2.79,11.86,5.2,17.53.25.62,1.31.89,2.42,1.6.94-1.74,1.79-3.17,2.5-4.67.94-2,1.42-4.41,2.73-6.17,2.6-3.52,2.83-7.94,0-10.65-2.39-2.31-2.29-5,.27-7,5.28-4.14,8.25-4.27,13.29-.46,2.06-2.26.86-6.84,5.44-7.45,3-.4,5.88-1.6,9.87-2.74,1.12-4.19-4.8-4.27-7-7.26l4.18-2.82c-.21-2-2.92-4.51.45-5,1.84,2,3,3.89,4.67,4.92a67.93,67.93,0,0,0,9.14,4.39,4,4,0,0,0,2.93,0c.41-.18.46-1.65.31-2.46a10.5,10.5,0,0,0-1.51-2.55C5025.54,1767.85,5028.7,1767.51,5027.25,1763.65Zm-307.88,88a12.32,12.32,0,0,1-6.52-.54,9.32,9.32,0,0,1-1-.42,8.7,8.7,0,0,1-.94-.53,12.45,12.45,0,0,1-1.37-1l-.44-.39a4.19,4.19,0,0,0-1.1-.72,2.52,2.52,0,0,0-1.48-.31c-5.11.94-10.17,2.09-16.72,3.49.1-.39.19-.78.28-1.16s.2-1,.29-1.48l.12-.67c0-.22.08-.44.11-.66.08-.46.15-.91.24-1.33l.12-.59a7.18,7.18,0,0,1,.16-.7c.06-.23.12-.45.19-.66s.09-.28.14-.41a1.88,1.88,0,0,1,.12-.3l.12-.26a.57.57,0,0,1,.12-.23c.07-.12.14-.24.22-.36a.18.18,0,0,1,.05-.07,1.49,1.49,0,0,1,.15-.2l0,0,.25-.25a.52.52,0,0,1,.11-.1c.19-.16.38-.32.56-.49l.56-.53c.36-.35.7-.72,1-1.09s.38-.46.56-.7.27-.36.4-.55.27-.4.39-.6.36-.59.53-.89a13.93,13.93,0,0,0,.62-1.29c.21-.45.39-.91.56-1.39a23.07,23.07,0,0,0,.69-2.3l4.62,6.07-3.94,2.13c.32.63.64,1.26,1,1.89l9.31-2c0-.42-.09-.83-.13-1.25l-3.83-1.41c-.12-.39-.23-.77-.34-1.16l9.58-4.11.51.76-.61.66c-1.43,1.55-2.87,3.14-4.58,5,3.85,2.59,7.3,4.67,10.43,7.16a1.54,1.54,0,0,1,.19.17,2.84,2.84,0,0,1,.43.53c.06.08.1.17.16.26a2.29,2.29,0,0,1,.14.27,5.54,5.54,0,0,1,.4,1c0,.13.07.27.1.4s0,.23.07.34.06.33.07.49a5.09,5.09,0,0,1,0,.54C4722.13,1850.38,4720.41,1851.44,4719.37,1851.62Zm31.22.68c-.83-.56-1.65-1.13-3.2-2.21,1.06,3.9,2.06,7,2.66,10.09a2.91,2.91,0,0,1,0,.31,4.17,4.17,0,0,1,0,.93,4.76,4.76,0,0,1-.11.62,2.86,2.86,0,0,1-.07.28,3,3,0,0,1-.13.39,3.73,3.73,0,0,1-.16.35,1.54,1.54,0,0,1-.4.51.41.41,0,0,1-.11.07l-.41.22a9.41,9.41,0,0,1-1.41.56,4.72,4.72,0,0,1-3.08.14c-5.84-2.51-6.27-5.28-2.35-10.44-2.44-3.29-4.91-6-6.63-9.18-.89-1.61-1.35-4.78-.42-5.79a28,28,0,0,1,8.11-5.54.86.86,0,0,1,.28-.11,2.16,2.16,0,0,1,.44-.1,3.5,3.5,0,0,1,.65,0l.62,0,1,.15,1,.16c.32,0,.64.09,1,.11-.14,1.17-.3,2.5-.32,2.62-2.35,2.16-4.3,3.43-5.4,5.22a.61.61,0,0,0-.08.34,1.39,1.39,0,0,0,0,.27,1.92,1.92,0,0,0,.08.3,3.43,3.43,0,0,0,.12.33,9.2,9.2,0,0,0,1,1.79,4.87,4.87,0,0,0,.33.43l.32.38c.95,1.07,2.44,1.66,4.19,2.77l2-.75c.47,1.43,1,2.87,1.43,4.3Zm21.47-7.4-7.79-2.79c.45-1,.87-2.08,1.31-3.11.33-.78.65-1.56,1-2.33.13-.29.25-.57.38-.85s.27-.56.41-.84l.51-1s.05,0,.08,0a2.51,2.51,0,0,1,.54,0l.23,0,.25,0c.23,0,.48.1.73.16l.33.09.39.12a2.28,2.28,0,0,1,.57.29l.08.08s0,0,0,.08c.07.38.13.76.19,1.15.11.76.19,1.54.27,2.34s.13,1.62.19,2.47c.09,1.28.17,2.62.28,4.08Z"/><path class="cls-1" d="M4300,1799.3l-.11.09,0,0Z"/><path class="cls-1" d="M4481.23,2123.36Z"/><path class="cls-1" d="M4481.29,2123.31s0,0,0,0,0,0,0,0h0Z"/><path class="cls-1" d="M4541.45,2004.16a1.83,1.83,0,0,0-.3,1.22c1.7,8.62-2.56,16.17-4.14,23-5.38,3-10.19,5.55-14.88,8.34a3.38,3.38,0,0,0-1.44,2.77c1.23,5-3,8.29-4,12.63-.36,1.62-2.36,2.88-4.29,5.09-.51,6-3.26,7.73-12,6.59,1.41,3.06,5.77,6,2.43,9.34-2.45,2.45-6.62,3.17-10.27,4.77-.75,5.9-.89,6.93-4,6l-.52-.17-.56-.2-.62-.23-.69-.26h0c0,.05-.08.1-.12.16s-.34.4-.3.48c3.28,5.9,3,8.5-2,13.3-2.07,2-2.79,3.22.45,4.54.72.3,1.74,1.63,1.57,2.09-1.12,3-2.56,5.83-3.83,8.74a9.38,9.38,0,0,0-1.17,3.32c0,2.56.27,5.12.44,7.68h0l-.75.58c-.27.23-.56.46-.86.7l-2,1.56c-2.94-3.52-6.17-7.34-9.34-11.21-2-2.41-3.48-5-1.58-8.15.22-.37.64-1,.55-1.11-3.49-3.49.47-6.81.15-10.18-.18-1.79-1.12-3.52-1.76-5.26-.18-.47-.68-.86-.73-1.32-.44-4-1-8.11-1.12-12.18a15,15,0,0,1,1-5.68c1.48-3.92,2.76-7.67.65-11.85-.61-1.23-.3-3.09,0-4.58,1.09-5.56,3.08-11,3.35-16.62.31-6.2-.65-12.51-1.57-18.69a6.69,6.69,0,0,0-3.74-4.35c-9.14-3.28-11.5-11.61-14.94-19.18-1.39-3.06-2.85-6.08-4.29-9.11a4,4,0,0,0-.81-1.41c-3.77-3-3.71-5.24.29-8.07-2.6-5.38-.59-11.63,4.91-16.07,1.09-.89,2.24-2.64,2.14-3.9-.32-4.19-.59-8.62-4.7-11.32-.95,1.09-2,3-2.61,2.88a37.26,37.26,0,0,1-7.25-2.75c-.49-.22-.6-1.72-.93-1.74-5.44-.3-4.48-5.86-7.1-8.4a43.2,43.2,0,0,0-6.43-4.94,61.7,61.7,0,0,0-6.25-3.51c-1.72-.89-3.93-2.72-5.2-2.24-4.5,1.7-7.84-.57-11.2-2.49a109.73,109.73,0,0,1-10.95-7.49c-.77-.58-.94-2-1.34-3.06-1.13-2.89-1.72-6.14-3.45-8.6-3.73-5.3-8-10.15-9.81-16.66-.49-1.8-2.63-3.15-4.13-4.84-.67,2.5-.51,2.41,5.17,12.22,2.2,3.79,3.48,8.11,5.18,12.18l-1.56,1c-1.7-1.72-4.7-3.34-4.83-5.17-.36-4.92-3.77-6.64-7.58-8.77,3.17-3.3,1.06-5.27-.87-8-1.67-2.41-1.73-6-2.48-8.91-2.83-2.67-5.9-5.55-9-8.44l1.17-.68c-1-2.13-2-4.24-3-6.41-.53-1.28-1.37-2.75-1.16-4a137.22,137.22,0,0,1,3.48-16.9c1.33-4.43,2.36-8.37-.78-12.48-.82-1.09-.48-3.06-.12-4.83l-6.63-16.16.73-.14c-1.63-1.83-4.46-3.56-4.6-5.49a3.6,3.6,0,0,0-3.59-3.41c-3.23.65-4.41-2-6.31-3.33-2.45-1.74-4.42-4-8.08-3.35-1.35.22-3.3-1.54-4.55-2.81-1.8-1.81-2.45-1.35-3.76.59a31.78,31.78,0,0,1-6,6.37c-.75.62-2.46.09-3.73.09-.28-.49-.56-1-.83-1.46l6.52-6.69c-2.21-1.86-3.76-.47-5.16,1.59q-3.61,5.31-7.25,10.61h0l-.79.52-.92.63c-.91.62-1.82,1.25-2.74,1.86s-1.85,1.2-2.8,1.75c-4.53,2.64-9.05,5.37-13.8,7.56-1.73.79-4.13.12-6.35-.54,6.3-5.38,15.87-5.83,20.14-13.46l-.72-1.42-8.55.6c.43-2.06.82-4,1.23-5.86-2.09.75-3.18,1-3.74.57s-.57-1.68-.49-3.94c0-.8-1.2-1.65-1.73-2.34,1.51-2,2.58-4.15,4.31-5.41s4.14-1.36,6.12-2.26a8.36,8.36,0,0,0,4.1-3.71c-2.49.42-5.28,1.73-7.39,1s-3.21-3.48-4.72-5.29c4.88-5.39,11.45-1.41,17.81-3.88-3.31-1-5.84-1.41-7.95-2.56-1.52-.83-2.48-2.67-3.68-4.06,1.56-.68,3.1-1.84,4.7-1.94,2.67-.17,4.8-.53,5.41-3.6.1-.51.47-1.24.89-1.37,3.23-1.08,6.52-2,9.79-3l5.4-1.68c1.33,4.75,3.79,3.32,6.58.52,1.45,3.74,4.62,2.55,7,3.41,5,1.8,10.26-1.25,15.27,2.21,3.76,2.61,9.07,3,13.75,4.4,2.76-4.72,7.47-7.62,11.13-6.3l-3.16,2.45.75,1,6.29-5.09c2.22,4.64,6.13,4.14,10.3,3.09.72-.18,1.62.37,2.45.58,3.68.91,7.33,1.94,11.05,2.67,2.7.53,5.17.95,3.35,6.24,5.67-6.56,7.59.61,11.08,1.2.61-1.62.8-3.38,1.78-4.29a3.92,3.92,0,0,1,3.74-.48c5.05,3.32,8.52,3.29,13.92.24,1.29-.73,3.56.24,6.58.56,4.12-2.3,4.15-3.91-1.13-8.14,1.21-1.46,2.22-3.17,3.69-4.3,1.07-.82,3.15-1.6,4-1.09,1.09.64,1.55,2.57,2,4,.8,2.48,1.42,5,2.29,8.2l3.79-4.13c.42,3.55.71,6,1.15,9.67,2.11-3.54,3.94-6,5.18-8.83s3.37-2.41,5.3-1.53,3.55,2.49,1.63,5a7.33,7.33,0,0,0-.73,2.57c-.4,1.58-.37,4.11-1.31,4.55-1.71.79-4,.36-6,.4-.93,0-2.6-.26-2.65-.06-1.37,5.14-4.66,3-7.82,1.37,0,.39,0,.78,0,1.16l3.83,2.12c0,2.94-.76,5.26-4.38,5.38-.14,0-.35,0-.42,0-4.86,5.62-12.9,8.46-13.9,16.44a34.83,34.83,0,0,0,2.87,5.53c.85,1.11,2.39,1.76,3.7,2.44,1.77.92,3.68,1.58,5.44,2.51,3.39,1.82,6.72,3.76,10.08,5.64l1.34-.95c-.32,2.17-1.07,4.38-.85,6.49s1.41,4.12,2.17,6.17c2.44-1,5.7-.74,5.38-5.08-.26-3.51-.75-7.33,3.67-9.56.83-.43.11-4.23-.18-6.44-.31-2.41-1.79-4.76,1.37-6.68.8-.49.92-3,.54-4.36-1-3.73.58-6.29,2.4-8.39,6.61.87,12.09,3.11,15.23,6.21.48,4.08-.16,8.46,1.28,9.31,5.37,3.14,6.81-2.74,9.47-5.88,2,3.33,3.93,6.19,5.43,9.26.55,1.13-.34,2.93.16,4.13,1.12,2.73,2.88,5,6.86,4.72l-2.66,4.78c2.54-.63,5.16-2.69,5.85,1.48.78,4.69,0,5.94-4.08,6.5-.68.1-1.58.18-2,.63-3.72,4.24-8.65,3.25-13.22,2.84-5.06-.46-7.66,3-11.18,5l.66,1.26a25.09,25.09,0,0,1,4.44-2.68c1.3-.47,2.86-.22,4.3-.3,0,1.08-.49,2.35-.06,3.19a11.21,11.21,0,0,0,3.24,4.18c1.5,1,3.52,1.37,6.17,2.31-4.42,3-7.94,5.48-11.56,7.74a2.56,2.56,0,0,1-2.35-.92,2.82,2.82,0,0,1,.84-2.46c1.75-1.53,3.72-2.83,5.59-4.21l-.85-1.45c-1.46.88-3,1.69-4.36,2.66-3,2.08-5.67,4.58-8.82,6.29-3,1.61-4.11,3.19-1.95,6-3.12,1.72-6.57,2.92-9,5.2s-3.79,5.53-5.81,8.64c1.8,4.7.86,6.82-4.35,9-8,3.39-10,7.7-8.12,16.68.81,3.89,1.19,7.87,1.9,12.71-5.79-2.73-7.4-6.49-7.41-11.21a7.29,7.29,0,0,0-.16-2.86c-1.5-3.12-11-5.27-13.72-3-.74.6-.78,2-1.28,3.44-2.34.49-5,.7-5.23-4.05-1,1.43-1.61,2.29-2.38,3.38l-3.08-2.16c-4.67,4.65-10,9.05-10.08,16.23a30.43,30.43,0,0,0,2.61,12.73c2,4.28,10.88,3.2,13-1.16.43-.9.61-2.36,1.28-2.63a54.64,54.64,0,0,1,6.61-1.81c.26,1.55.88,3.14.68,4.63-.24,1.89-1.36,3.66-1.69,5.55a25.25,25.25,0,0,0-.06,4.72l10.2,2c-.64,3.69-1.34,6.44-1.56,9.23-.45,5.62,2.62,7.61,8.09,6.79,2.31-.35,5,1.78,7.78,2.88,1-5,5.78-7.72,10.09-10.35,1.57-1,5.33.12,7.22,1.48,4.36,3.14,8.39,5.39,13.81,2.49,1.3-.69,3.29-.1,5-.1-.3.37-.61.73-.92,1.1q5.73,6.27,11.43,12.54c3.79-2.08,7.15-1.19,10.72,2.78,6.47,7.19,6.56,8.49,1.48,16.9a20.69,20.69,0,0,1,2.65-2.57c.88-.6,2.78-1.31,2.9-1.12,2,3,4.72,1.09,7.1,1.29,1.09.09,2.67.31,3.13,1,2.81,4.43,7.62,2.89,11.44,4.21a25.12,25.12,0,0,1,4.86,2.62c3.63,2.3,6.9,5.27,7.84,9.46.42,1.88-1.2,4.46-2.4,6.41C4546.47,1997.29,4543.87,2000.66,4541.45,2004.16Z"/><path class="cls-1" d="M4606.3,1699.85c-.69,1-1.19,2.44-2.1,2.78-4.24,1.57-8.59,2.82-13.26,4.3l3.28,1.87-7.72,7.09.68,1.55a26.14,26.14,0,0,1,4.77.08,3.73,3.73,0,0,1,2.37,1.82,2.9,2.9,0,0,1-.72,2.52c-4.12,3.86-4.14,3.82,1.33,7-.75,1.27-1.27,2.81-2.31,3.75a45.33,45.33,0,0,1-6.65,4.86c-.68.42-1.92-.2-2.88-.07a11,11,0,0,0-2.44.92,7.41,7.41,0,0,0,1.39,2.22c.61.49,2.08.28,2.32.78a57,57,0,0,1,2.19,6c-1.73-.24-3.79,0-5.11-.8-4.28-2.79-4.58-2.89-6,1.33l8.67,1.36c-2.25,6.53-10.24,11.19-16.22,9.68-3.21-.81-5.49-.22-6,3.34s-2.65,4.77-5.81,5.12c-2.12.23-4.24.57-6.37.81-2.7.31-4.68,1.09-4.18,4.51.15,1-.54,2.12-1,3.13-1.34,3.09-2.91,6.09-4.07,9.24-1.82,4.92-4,5.55-7.52,2-.44-.45-1.26-.53-1.77-1-1.79-1.47-4.3-2.66-5.11-4.57-2.34-5.5-4.08-11.26-5.88-17-.95-3-.2-5.45,2.87-7.22,1.43-.82,2.25-2.74,3.35-4.16l-3.8-2.53c-.55-.35-1.13-.67-2.62-1.55l4.61-1.27c.44-5.06-2.83-1.54-4.16-1.9-1-4.35-1.57-8.58-2.87-12.59-2.3-7.1-4.85-8.5-12.14-7.34-5,.8-9.55.6-13.41-4.48l7.35-.86.24-1.44a20,20,0,0,0-4.08-.87c-1.4,0-2.79.68-4.2.73-.68,0-1.39-.7-2.09-1.1.4-.66.63-1.66,1.21-2,3.89-1.9,7.91-3.54,11.75-5.52a4.14,4.14,0,0,0,2.11-3c-.13-3,1.47-3.37,3.89-3.82a9.79,9.79,0,0,0,5.22-2.89c3.82-4.39,8.55-5.36,13.49-2.31.81-.78,1.67-2.2,2.4-2.13.89.08,1.68,1.38,2.5,2.19s1.57,1.6,3.05,3.12c.23-2.55.34-3.79.53-6l8.8,1.84c.13-1.23.35-3.26.66-6.19,5,4.21,8.19,1.61,12.39-1.36,3.23-2.28,8.43-1.94,12.8-2.4,1.25-.13,2.63,1,4,1.61,0,.39,0,.79,0,1.18l-7,2.4c6.65,1.28,13.27-5.36,20.61,1l-20.81,3.58c.12.58.25,1.17.38,1.76,2.81-.74,5.6-1.51,8.42-2.23s5-.66,3.68,3.87l7.69-3.29c.27.35.53.69.81,1-1.26,1.72-2.52,3.43-3.77,5.15l.55.8a20.65,20.65,0,0,0,3.59-2c4.48-3.83,9.85-4.21,15.33-4C4604.4,1698.42,4605.34,1699.34,4606.3,1699.85Z"/><path class="cls-1" d="M4982.72,2051.91a2.28,2.28,0,0,1-.5,1.58c-2.9,3.56-5.84,7.09-8.78,10.62-.46.54-1.33,1-1.37,1.56-.5,7.23-6.95,7.93-11.5,8.83-3.81.75-8.36-1.69-12.43-3.14-.87-.31-1.71-2.58-1.47-3.72.83-3.89-1.17-4.43-4.61-4,.86-1.83,1.59-3.36,2.73-5.76l-6.65,6c-2.44-9.17-6.87-11.25-14.75-7.8-1.23.53-2.82.17-4.17.5-1.74.42-4.24.63-4.95,1.8-2.6,4.36-6.52,3.77-10.52,3.8-1.59,0-3.15,1.19-4.77,1.3a9.43,9.43,0,0,1-5.21-.77c-1.09-.64-2.29-3.44-1.9-3.86,5.21-5.68.34-10.91-.47-16.27-.29-2-.88-3.94-1.48-6.59l3.27,1.29c-.21-.62-.33-1-.46-1.32-.72-2.2-1.56-4.36-2.09-6.6a2.55,2.55,0,0,1,1-2.18c4.86-2.19,9.7-4.5,14.75-6.21,5.25-1.78,7.28-3.77,7.83-9.71l1.93,1c2.35-2.78,4.5-5.82,7.16-8.31,1.67-1.56,3.66-1,4.85,1.35a3.34,3.34,0,0,0,2.26,1.42c.36,0,1.26-1.12,1.34-1.8.42-3.81,2.27-5.79,7-4.74-1-1.75-1.61-2.73-2.77-4.71l14.58,3.67-4.52,7.18c3.08,2.13,5.87,4.22,8.83,6,.8.49,2.83.52,3,.1,1-1.92,2.35-4.13,2.2-6.14-.29-4-.5-7.67,2.18-10.94a22.66,22.66,0,0,1,1.91-1.6c.46,2,.83,3.45,1.14,4.9.38,1.8.11,4.17,1.18,5.31,3.18,3.4,4.09,7.28,4.35,11.71.08,1.56,1.7,3.07,2.73,4.52.28.41,1.2.4,1.44.81,1.87,3.07,3.16,6.6,5.51,9.23C4986.72,2037.08,4981.68,2044.74,4982.72,2051.91Z"/><path class="cls-1" d="M4502.87,1764.1c-.26,2.34-1.91,4.58-3.29,6.67-.18.27-2.28-.26-3-.93-1.14-1-1.75-2.62-2.84-3.72a3,3,0,0,0-2.54-.82,3,3,0,0,0-1.29,2.4,2.92,2.92,0,0,0,1.39,2.22c5,2.32,5.7,5.45,2,10.31l-4.45-3.73-.56.34c1,1.8,2,3.6,3.27,5.93-4.75.65-7.22-2.42-9.63-4.57-3.14-2.79-5.62-5.58-10.29-3-.66.37-2.58-1.45-3.89-2.26.85-1.28,1.5-2.81,2.63-3.74.74-.61,2.29-.12,3.31-.52,1.81-.7,4.16-1.28,5.08-2.69,1.17-1.8,2-4.71,1.36-6.5-.61-1.54-3.55-2.18-5.95-3.48-.32-.87-.66-2.85-1.75-4.2-.62-.74-2.55-.59-3.85-.46-.89.09-2.29,1.38-2.52,1.17-3.91-3.87-8.64-.73-13.25-1.35.29-1.33.5-2.35.75-3.56-4.45-1-3.75-4.3-2.8-7.36,1.11-3.56,3.55-5.55,8.13-5.26a24.93,24.93,0,0,0-1.23,3.54,14.25,14.25,0,0,0,.1,2.91c.63-.7,1.53-1.29,1.84-2.1.92-2.51,1.91-4.77,5.12-4.92,3.84-.18,4.94,1.35,3.32,4.77-.35.73-.64,1.49-.94,2.19,2.21-1.09,4.21-2.43,6.42-3.08,2.87-.85,5.15-.21,6.4,3.19.6,1.62,2.48,3,4.06,4,1.39.92,3.19,1.19,4.78,1.83,5.38,2.16,6,4.17,2.18,9.54,2.41,1.35,4.74,2.61,7,3.95C4499.7,1761.88,4503,1763.21,4502.87,1764.1Z"/><path class="cls-1" d="M4512.84,1696.18c-.07.52-.12,1-.18,1.57l-10.45,2c-1,2.76-1.23,5.2-2.53,6.64-2.05,2.23-4.45,4.3-8.23,3.41a7.38,7.38,0,0,0-5.47,1.38c-3.21,2.5-6,5.54-9.14,8.57,1.57,2.51.84,5.4-3.2,5.94a63.23,63.23,0,0,1-14.87-.08c-1.61-.17-3-2.39-4-3.22l11.73-7.22c-.79-2.59-1.38-4.51-2.24-7.3l6.79,2.5-.63-1.32a18.7,18.7,0,0,1,3.35-2.31c1.71-.74,3.6-1.12,5.24-2.24-5.55-.68-10.74,4.87-16.2.36-1.54-1.27-2.56-3.2-3.67-4.64a59.55,59.55,0,0,1,7.21-3.72,4.7,4.7,0,0,1,3.78.75c2.05,1.56,3.79,1.56,5.06-.55,1.5-2.47,3.4-2.48,5.87-2,1.29.25,2.74-.38,5.14-.78l1.78,3.19c6.37-8.09,14.13-2.06,20.93-3.48C4510,1693.42,4511.52,1695.28,4512.84,1696.18Z"/><path class="cls-1" d="M4907,1961c.25,1.22,1.34,2.68,1,3.55-1.43,3.25-3.57,6.18-5,9.45-2.13,5-3.35,5.32-7.07,1.13-4.36,2.38-5.94,1.68-8.4-3.28-.93-1.87-2.43-3.44-3.51-5.24-1.63-2.72-.52-4.29,2.7-4.62,1.23-.12,2.43-1.16,3.53-1.94,1.7-1.21,3.35-2.5,4.95-3.85a31.68,31.68,0,0,0,3.89-3.7,48.7,48.7,0,0,0,3.1-4.68c1,.36,1.54.51,2,.76,1.94,1,3.87,2,5.8,3-1.22,1.59-2.86,3-3.55,4.82C4905.94,1957.66,4906.64,1959.44,4907,1961Z"/><path class="cls-1" d="M4983.39,1993c-4.3,2.3-8.08,1.57-10.5-1.54-.87-1.12-1.33-2.82-2.43-3.44-1.26-.71-4.14-1.11-4.39-.64-2.41,4.59-5.37,4.54-9.42,2.18-1.39-.81-3.56-.28-5-.35.82-2.49,2.42-5.36,1.82-5.91-2.34-2.23-5.33-3.78-8.15-5.48a11.85,11.85,0,0,0-2.72-.85c3.37-2.28,6.12-4.4,9.14-6,1.08-.58,2.91-.3,4.21.13,4.36,1.47,8.62,3.2,13,4.05a26.84,26.84,0,0,1,3,4c1.31,2.61,5.12,3.87,4.15,7.88-.17.65,1.77,1.89,2.82,2.75C4980.27,1990.84,4981.7,1991.8,4983.39,1993Z"/><path class="cls-1" d="M4421.29,1750.67l1.27,3.39c-2.2,4.4-24.6,2.45-31.14-3.17L4399,1749c0-.31,0-.62.06-.93a28.34,28.34,0,0,1-4.88-.07,11.06,11.06,0,0,1-3-1.61c.91-.66,1.79-1.36,2.73-2s2.5-1.06,3.25-2c2.67-3.34,7.78-4.18,9.81-1.41,3.56-4.82,3.7,2,5.95,1.76,1.41-5.6,2-5.92,6.47-3.4-3.05,5.6,1.67,7.45,5.81,10.17Z"/><path class="cls-1" d="M4747.48,2008.75c-1.16,2.68-1.11,6.19-2.88,8.25-3.69,4.32-1.81,9.86-4.26,14.41-2.75,5.12-5.22,6.41-10.25,3.93-.88-2,2.18-5.15-1.74-6.32a17.19,17.19,0,0,1,1.4-3.63c1.52-2.29,3.48-4,1.4-7.35-2.27-3.7,1.45-7.72,5.37-9.27,2.63-1,4.15-5,6-7.7.41-.59.29-1.56.42-2.38C4746.62,1999.7,4748.91,2005.5,4747.48,2008.75Z"/><path class="cls-1" d="M4633.18,1816.74a9.83,9.83,0,0,1-6.33,5.26c-2.9.69-5.9,1-9.62,1.55,1.28-1.85,2.44-3.53,3.6-5.23l-1.56-.57c.17-1.74.34-3.42.53-5.4l4-1.7c-2.82-2.49-5.34-4.73-7.29-6.47a38.2,38.2,0,0,1,.65-4.55c.49-1.73.76-3.89,1.94-5,1.75-1.61,2.47-.1,2.95,1.76.13.5,2.11.52,3.82.89-.58,1.23-1,2.24-1.37,3,1.71,3.23,3.42,6.63,5.27,9.94.68,1.19,1.86,2.1,2.52,3.29C4632.84,1814.46,4633.58,1816,4633.18,1816.74Z"/><path class="cls-1" d="M4881,1972.61l-1.35.19c-.46,1.89-.81,3.81-1.41,5.64-.44,1.33-1,3.2-1.93,3.6s-3-.45-3.74-1.4c-4.27-5.59-9.66-10.33-11.68-17.66-.74-2.67-4.44-4.56-6.88-6.69a28.14,28.14,0,0,0-3.67-2.31c2.16-2.93,3.79-2.76,6.19-.83,1.82,1.45,3.73,2.79,5.67,4.08,1,.65,2,1.29,2.93,1.93l2.83,1.88s0,0,0-.06l.08.08,0,0-.07,0c1.61,2.76,3.18,5.54,4.86,8.27a6.62,6.62,0,0,0,2.31,2.56c.4.19,1.55-1.19,2.69-2.12Z"/><path class="cls-1" d="M4745.18,1746.44c.28.24.34.74.51,1.09-3.21,2.76-6.42,2-8.81-.72-4.51-5-2.07-8.69,1.19-12.86,4.52-5.76,9.5-8.72,16.65-9.52a11.86,11.86,0,0,0,4.57-2c2.71-1.67,3.22-1.71,7.14,1.12-1.86.79-3.16,1.24-4.35,1.88-5.6,3-11.41,5.7-16.67,9.21S4740.2,1742.27,4745.18,1746.44Z"/><path class="cls-1" d="M4399.71,1738.23a21.24,21.24,0,0,1-3.36,2.76c-3,1.56-6.28,2.59-9.12,4.37-5.28,3.31-7,3.05-10.4-2.08,1.86-3.16,3.55-6.21,5.44-9.12a4.91,4.91,0,0,1,2.53-1.58,20.27,20.27,0,0,1,3.37-.61c2.72,1,5.66,1.86,8.39,3.15C4397.82,1735.72,4398.68,1737.17,4399.71,1738.23Z"/><path class="cls-1" d="M4676.69,1718.33a3,3,0,0,1-2.21,1.42,29.84,29.84,0,0,1-4.81-.29c-.3-1.06-.65-2.3-1-3.68-4.66.64-4.16,4.53-4.93,7.83-5-2.65-6.59-5.67-6-9.24-2.19-.13-5.43.6-6.47-.6-1.38-1.59-2.7-5.13.46-6l6.95,2.08c1.72-1.18,3.19-3,4.6-2.93,1.15,0,2.11,2.42,3.38,3.5a31.15,31.15,0,0,0,4.77,3.22c1.47.84,3.2,1.26,4.58,2.2A2.66,2.66,0,0,1,4676.69,1718.33Z"/><path class="cls-1" d="M4950.81,1862.14c1.14,3.69-.24,6.48-3.09,7.86-2,1-4.86.19-7.52.19,0,.47-.07,1.42-.1,2l-5.08.9-5.21-3,8.78-4.89c.22.28.43.56.64.85.35-1.19.69-2.38,1-3.44.22-.19.33-.38.43-.36,8.16.7,3.85-5.76,5.2-9a26.76,26.76,0,0,1,2-3.27,14.35,14.35,0,0,1,2.21,2.49c.93,1.7,1.61,3.55,2.26,5C4951.73,1859.09,4950.42,1860.88,4950.81,1862.14Z"/><path class="cls-1" d="M4596.6,1774.48c-2,.64-3.93,1.61-5.56,2.29l-8.44-2.61c.15-.68.49-2.21.92-4.22l-4.36.81c-.49-5.14.89-5.91,5.38-4.93,3.14.68,6.64,0,9.94-.4,2.28-.27,4.78-2.19,5.89,1.53A6,6,0,0,1,4596.6,1774.48Z"/><path class="cls-1" d="M4471,1733.29c-.27.35-1.5,0-2.3-.07-3-.24-6.11-1-9-.62-6,.85-11.5-1.59-14.17-7-1.19-2.42,1.12-4.71,5.66-4.66.41.32,2.25,1,2.34,1.9.48,4.65,4,4.69,7.21,5.06,2.24.26,4.62-.41,6.81,0,1.5.29,2.94,1.59,4.07,2.76C4472,1731,4471.51,1732.59,4471,1733.29Z"/><path class="cls-1" d="M4461.18,1710.25c-.67,2.59-.68,6.12-4.67,6.33-3.06.16-6.58.22-6.62-4.45,0-.28,0-.75-.07-.81-7.74-3.53.84-5.87.7-8.85,0-.34,1-1,1.65-1C4455.13,1701.15,4461.14,1706.92,4461.18,1710.25Z"/><path class="cls-1" d="M5023.59,2082.16c-.54,1-.67,1.73-1.08,2-3.41,1.9-3.49,7-8,8.05-1.12.26-1.57,2.8-2.64,4-1.46,1.65-3,3.49-4.94,4.28-.72.3-2.92-1.91-3.81-3.36-1.86-3.08.61-4.67,2.77-6.11,3.66-2.45,7.42-4.77,11.06-7.25.56-.39.63-1.45,1.1-2.07s1.61-2.07,2-1.93A19.18,19.18,0,0,1,5023.59,2082.16Z"/><path class="cls-1" d="M4922.47,1964.59c-3,.57-6.09.85-9.55,1.26.16.68.48,2.09.71,3.14h4.46l-2,5.09c.85,2.05,1.92,4.62,3,7.19l-1.79,1.15-4.15-5c-1.89,4.52-2,4.62-5.39-.16-.8-1.13-.58-3.39-.1-4.89.71-2.22,2.71-4.13,3-6.33.46-3.3,2-3.42,4.66-3.15,2.09.22,4.25-.32,7.37-.61C4922.62,1962.58,4922.73,1964.54,4922.47,1964.59Z"/><path class="cls-1" d="M4424.32,1730.77c-4.77.8-8.34,1.44-11.92,2a35.71,35.71,0,0,1-7.52.78c-1-.07-1.8-1.9-2.7-2.93,1.08-.77,2.11-1.61,3.24-2.27,2.28-1.32,5-2.18,6.84-3.91s3-2.72,4.76.07c.65,1,2.21,1.45,3.21,2.31C4421.73,1728.12,4423.11,1729.59,4424.32,1730.77Z"/><path class="cls-1" d="M4513.16,1836.19l-4.43-1.54-.8,1.12-1.53-3.57a13.32,13.32,0,0,1-2,.23c-1.43,0-2.86-.12-4.29-.19.41-1.86.49-3.89,1.33-5.53.73-1.42,2.33-2.38,3.54-3.56,1.62-1.59,3-2.41,3.64.81a2.84,2.84,0,0,0,1.39,1.77C4513.76,1827.5,4515.17,1831.89,4513.16,1836.19Z"/><path class="cls-1" d="M5032.36,2077.67c-2,1.31-3.52,3.31-5.9,5.64-1.81-.73-3.67-6.14-1.45-8.52,2.85-3.06,2.47-5.57.46-8.65-.61-.94-.56-2.31-1-4.46,5.59,1.93,3.67,10.24,10.22,9.45C5035.73,2074.13,5034.92,2076,5032.36,2077.67Z"/><path class="cls-1" d="M4898.54,1990.27c-5-.9-10-1.81-15-2.69a15.36,15.36,0,0,1-3.32-.49,23.19,23.19,0,0,1-3.53-2.26c1.1-1,2.29-2.88,3.29-2.79,4.18.38,8.27,1.58,12.43,2C4895.61,1984.44,4898.19,1985.07,4898.54,1990.27Z"/><path class="cls-1" d="M4616.41,1815.19c-.08.68-1.8,1.27-2.85,1.72-1.9.81-3.85,1.48-6.31,2.41a77.08,77.08,0,0,1-.58-8.4c.09-2.31,7.17-5.64,9.2-4.55.25.13.61.35.63.54A63.5,63.5,0,0,1,4616.41,1815.19Z"/><path class="cls-1" d="M4459.75,1914.19c-1,.69-1.95,1.8-3,2-2.51.42-5.19,1.36-5.59-3.17-.27-3.11-7.44-5.75-11.81-5-1.08.18-2.13.54-4.05,1,3.76-5.46,8-3.59,11.78-2.45a60.6,60.6,0,0,1,10.44,4.86C4458.45,1912,4459,1913.25,4459.75,1914.19Z"/><path class="cls-1" d="M4432.25,1746.23c-2.56.62-7.46-4.3-7.3-7.8l4,2.09a18.6,18.6,0,0,0-.28-3.3c-.88-3,1.47-3.24,3.09-3.07,1.13.11,2.46,1.5,3,2.65s.39,3,.7,4.41C4436.1,1744,4434.77,1745.63,4432.25,1746.23Z"/><path class="cls-1" d="M4953.84,1845.88a12.64,12.64,0,0,0-1.25,1.95,38.33,38.33,0,0,1-5.59-.43c-1-.24-2.65-1.34-2.57-1.77.67-3.52,1.69-7,2.71-10.86a10.17,10.17,0,0,0,1.45,2.79,11.66,11.66,0,0,0,3.83,2.78C4956.23,1841.8,4956.52,1842.69,4953.84,1845.88Z"/><path class="cls-1" d="M4915.92,1928.33c-2.78-.65-5.12-.89-7.13-1.82-.81-.38-1.47-2.42-1.21-3.46a23.56,23.56,0,0,1,2.67-6.12c.48-.84,1.72-1.83,2.52-1.75a3.23,3.23,0,0,1,2,2.24C4915.33,1920.46,4915.47,1923.55,4915.92,1928.33Z"/><path class="cls-1" d="M4683.38,1705.25c-3.4,5.64-9.22,7.89-13.11,5.44-1.27-.82-1.79-2.86-2.65-4.34,1.45-.52,2.89-1.4,4.36-1.46,1.78-.07,3.59.71,5.4.81A51.64,51.64,0,0,0,4683.38,1705.25Z"/><path class="cls-1" d="M4916.31,1728.81a4.82,4.82,0,0,1-.21,1.1,104.84,104.84,0,0,1-12.35.83c-1.08,0-2.29-2.2-3-3.6-.24-.46.88-2.34,1.2-2.29a21.53,21.53,0,0,1,4.42,1.38,11.94,11.94,0,0,1,1.58.91C4912.57,1720.34,4913.23,1729.2,4916.31,1728.81Z"/><path class="cls-1" d="M4403.42,1722.65c-.29.68-1.66.88-2.51,1.38-1.25.73-2.48,1.51-3.68,2.31s-2.65,1.83-4.41,3.05l-4.21-3.47a21.79,21.79,0,0,1,3.59-2.91,67.27,67.27,0,0,1,7.77-3.29c.95-.35,2.5-.62,3.05-.12A3.36,3.36,0,0,1,4403.42,1722.65Z"/><path class="cls-1" d="M4436.22,1729.52c-2,1-4.87,2-6.71,1.22s-3-3.48-4.32-5.46c-.19-.29,1-1.91,1.12-1.86a32.81,32.81,0,0,1,3.71,1.9c.81-.38,1.93-1.27,3.1-1.35s3.47.35,3.65,1C4437.16,1726.4,4437,1729.1,4436.22,1729.52Z"/><path class="cls-1" d="M4949.39,1826l-.81,1.11-4.56-1.09c-1.4-5.6-2.73-11-4.15-16.64a12.27,12.27,0,0,1,1.9-.15c.9,3.61,5.43,5.58,4.48,10.12-.2,1,.94,2.27,1.5,3.4S4948.84,1825,4949.39,1826Z"/><path class="cls-1" d="M4474.85,1918.07c-4.87,2.94-14.58,2.39-16.41-.5l3.68-.29c.92-1.53,2.1-3.94,2.35-3.85C4467.79,1914.67,4471,1916.26,4474.85,1918.07Z"/><path class="cls-1" d="M4958.51,2089.79c-2.95,0-3.51-1.95-3.44-4.26.1-3.26,1.4-5.2,5.63-4.7,1.2.92,3.28,1.72,3.42,2.78C4964.48,2086.34,4961,2089.77,4958.51,2089.79Z"/><path class="cls-1" d="M4450.77,1735.9l-12.05,8.27C4438.37,1734.7,4441.41,1732.53,4450.77,1735.9Z"/><path class="cls-1" d="M4814.59,1706.82c-5.74,2.92-7,2.75-9.44-2.19,2.14-1.34,3.91-2.94,6-3.55a5.27,5.27,0,0,1,4.44,1.29C4816.83,1703.72,4817.05,1705.56,4814.59,1706.82Z"/><path class="cls-1" d="M4435.31,1719.14a20,20,0,0,1-4.79-.28,10,10,0,0,1-3.67-2.34c-.85-.8-2.05-2.21-1.83-3,.32-1,1.85-1.62,3.39-2.82,2.35,1.57,4.61,2.71,6.32,4.4C4435.48,1715.9,4435.15,1717.78,4435.31,1719.14Z"/><path class="cls-1" d="M4922.68,1951.77c-.22-3.49-7.08-4.4-2.39-9.18,1.35-1.37,2.82-3.21,5-1.07C4927.9,1944.1,4927.14,1947.71,4922.68,1951.77Z"/><path class="cls-1" d="M4459.25,1774.38l-4.52,2.8-3.07,1.87c-.76-1.31-2-2.58-2.12-3.93a5,5,0,0,1,1.73-3.89C4453.87,1769.4,4457.48,1770.92,4459.25,1774.38Z"/><path class="cls-1" d="M4823.67,1712.43c-4.49,2.48-7.67-.36-11.44-1.56C4818.39,1704.69,4819,1704.77,4823.67,1712.43Z"/><path class="cls-1" d="M4833.46,1713.82c-1.28,1-2.48,2.5-3.86,2.68-1.6.21-3.37-.79-5-1.26.77-2,1.54-3.9,2.73-6.88Z"/><path class="cls-1" d="M4820.5,1949a3.15,3.15,0,0,1-2.29,1.91c-.82.08-2.44-.86-2.5-1.47-.27-2.75-.11-5.54-.11-9C4820.57,1942.55,4821.14,1945.6,4820.5,1949Z"/><path class="cls-1" d="M4490.5,2127.58c-2.83-.44-4.73,3.55-7.94,1-2.17-1.69-3.25-2.91-1.38-5.18l.08-.09C4486.26,2120.65,4487.3,2126.25,4490.5,2127.58Z"/><path class="cls-1" d="M4447.12,1716.42c-2.18,1.43-3.64,3.09-4.66,2.86a4.5,4.5,0,0,1-2.8-3.36c0-1.1,2-2.92,3.13-3S4445.11,1714.7,4447.12,1716.42Z"/><path class="cls-1" d="M4506.7,2117.78l-9.72,2.68c.74-2,1-4.34,1.7-4.46a44.66,44.66,0,0,1,7.77-.18C4506.52,2116.47,4506.61,2117.13,4506.7,2117.78Z"/><path class="cls-1" d="M4931.23,1880.79l-1.14.1c-1.57-1.56-3.66-2.9-4.41-4.78-.32-.8,2.22-2.73,3.46-4.14l1.36.26C4930.73,1875.08,4931,1877.94,4931.23,1880.79Z"/><path class="cls-1" d="M4911.44,1906.36c-5.48-1.85-5.77-4.5-1-9.26C4910.81,1900.59,4911.1,1903.22,4911.44,1906.36Z"/><path class="cls-1" d="M4417.5,1713.17l-.3,1.84-7.85,1.63-.79-1.35c1.46-1.15,2.8-2.79,4.46-3.28C4414.29,1711.64,4416,1712.73,4417.5,1713.17Z"/><path class="cls-1" d="M4433.91,1754.36l-6.06,2.61-1.41-2.54c1.54-1.11,3-2.53,4.71-3.14C4431.64,1751.11,4433,1753.27,4433.91,1754.36Z"/><path class="cls-1" d="M4929.71,1728c-.09.5-.19,1-.27,1.49-4.59,2.3-7.4,1.66-9.37-2.34Z"/><path class="cls-1" d="M4931,1958.22V1968C4926.4,1965,4926.4,1965,4931,1958.22Z"/><path class="cls-1" d="M4881.15,1918.5c.87-2.18,1.76-4.36,2.86-7.07C4887.5,1915.74,4886.83,1917.81,4881.15,1918.5Z"/><path class="cls-1" d="M4905,1945.91c-2.56-5.81,2.87-7,4-10.2C4909.94,1939.72,4907.3,1942.23,4905,1945.91Z"/><path class="cls-1" d="M4416.21,1717.82c-.48,4.09-4.66,2.84-6.8,5.55C4409.36,1717.57,4409.51,1717.47,4416.21,1717.82Z"/><path class="cls-1" d="M5000.76,1745.89l-6,2.58c-.28-4.12,1.46-5.44,4.22-5C4999.7,1743.64,5000.17,1745.07,5000.76,1745.89Z"/><path class="cls-1" d="M4985.86,1978c-.63,1.31-.93,3.15-2,3.81-1.35.85-3.3.76-5,1.07-.16-.49-.31-1-.46-1.46l6.05-4Z"/><path class="cls-1" d="M4951.27,1970l-7.35,3.33C4944.46,1967.3,4946.94,1967.91,4951.27,1970Z"/><path class="cls-1" d="M4444.77,1730.81l-5.13,1.13c-.16-.89-.29-1.78-.44-2.68a48.76,48.76,0,0,1,4.93-.83A14,14,0,0,1,4444.77,1730.81Z"/><path class="cls-1" d="M4988.21,1977.54c-1.54-2.5-2.76-4.51-4.44-7.24C4989.1,1971.21,4989.93,1972.61,4988.21,1977.54Z"/><path class="cls-1" d="M4921.63,1931.15l-1.2,2.15-4.62-2.41a15.39,15.39,0,0,1,1.37-2.13A48.89,48.89,0,0,1,4921.63,1931.15Z"/><path class="cls-1" d="M4300,1799.28s-.07.1-.11.14l-.05,0h0l.11-.09,0,0Z"/><path class="cls-1" d="M4302.87,1800.8a39.08,39.08,0,0,1-2.65,3.46c-.15.16-1.36-.34-1.71-.8a2.18,2.18,0,0,1-.07-1.84,13.74,13.74,0,0,1,1.49-2.2Z"/><path class="cls-1" d="M5017,2027.94l-6.13-4.52C5015.3,2021.66,5016.71,2022.56,5017,2027.94Z"/><path class="cls-1" d="M4444.23,1708.24c-1.82,1.27-2.71,2.3-3.69,2.43-.68.09-2.14-1.06-2.15-1.68,0-.8,1-2.22,1.68-2.29C4441.08,1706.59,4442.2,1707.42,4444.23,1708.24Z"/><path class="cls-1" d="M4689.81,1851.21c1.07-4,.95-7.9,2.81-9.46a17.43,17.43,0,0,0,5.9-9.82l4.62,6.07-4,2.13,1,1.89,9.32-2c0-.42-.09-.83-.14-1.25l-3.83-1.41-.34-1.16,9.59-4.11.5.76-5.19,5.68c3.85,2.59,7.3,4.67,10.44,7.16a5.85,5.85,0,0,1,1.6,4c0,.62-1.7,1.68-2.75,1.86a11.66,11.66,0,0,1-10.24-2.86,3.62,3.62,0,0,0-2.59-1C4701.43,1848.66,4696.36,1849.81,4689.81,1851.21Z"/><path class="cls-1" d="M4741.84,1854.12c-2.45-3.29-4.91-6-6.64-9.18-.88-1.61-1.34-4.78-.41-5.79a27.85,27.85,0,0,1,8.11-5.54c1.23-.61,3.12.09,4.94.22-.14,1.17-.3,2.5-.32,2.62-2.35,2.16-4.3,3.43-5.4,5.22-.42.69.88,2.78,1.83,3.84s2.45,1.66,4.2,2.77l2-.75,1.44,4.3-1,.47-3.2-2.21c1.06,3.9,2.06,7,2.66,10.09.21,1.1-.19,3-.95,3.47-1.41.78-3.6,1.47-4.9.91C4738.34,1862.05,4737.91,1859.28,4741.84,1854.12Z"/><path class="cls-1" d="M4772.06,1844.9l-7.79-2.79c1.18-2.78,2.24-5.53,3.62-8.11.14-.25,3.16.36,3.25.86C4771.68,1837.9,4771.76,1841,4772.06,1844.9Z"/><path class="cls-1" d="M1766.61,826.61H1445.36a44.53,44.53,0,0,0-44.48,44.48V1472a44.53,44.53,0,0,0,44.48,44.48h321.25a44.53,44.53,0,0,0,44.48-44.48V871.09A44.53,44.53,0,0,0,1766.61,826.61ZM1781.09,1472a14.49,14.49,0,0,1-14.48,14.48H1445.36a14.49,14.49,0,0,1-14.48-14.48V871.09a14.5,14.5,0,0,1,14.48-14.48h321.25a14.5,14.5,0,0,1,14.48,14.48Z"/><path class="cls-1" d="M1629.32,1434a23.34,23.34,0,1,1-23.34-23.33A23.34,23.34,0,0,1,1629.32,1434Z"/><path class="cls-1" d="M1606,1261.14a110.26,110.26,0,1,1,110.16-114.73l-31,1.24a79.17,79.17,0,1,0-38.31,71.12l16.05,26.59A110.07,110.07,0,0,1,1606,1261.14Z"/><path class="cls-2" d="M1663.6,1242.59l-15.2-25.19a74.55,74.55,0,0,0,36.35-64.31c0-1,0-2-.06-3.06l29.4-1.19c.05,1.41.08,2.84.08,4.25a104.36,104.36,0,0,1-50.57,89.5Z"/><path class="cls-1" d="M4878.66,3733.62a314.44,314.44,0,0,0-96.79-91.45c-44.27-26.57-92.24-40-142.57-40s-98.3,13.47-142.57,40a314.19,314.19,0,0,0-96.78,91.45c-37.38,54.59-51.34,112.35-36.44,150.74,28.21,72.71,166.2,98.5,275.79,98.5s247.58-25.79,275.79-98.5C4930,3846,4916,3788.21,4878.66,3733.62Zm8.47,139.89c-8.91,22.95-39.17,43.47-85.23,57.8-44.69,13.9-102.43,21.55-162.6,21.55s-117.91-7.65-162.6-21.55c-23-7.17-42.11-15.88-56.54-25.67s-24.23-20.66-28.68-32.13c-11-28.41,2.33-77.81,33.22-122.94,50.77-74.16,131-118.44,214.6-118.44s163.83,44.28,214.6,118.44C4884.8,3795.7,4898.15,3845.1,4887.13,3873.51Z"/><path class="cls-1" d="M4639.3,3232.52c-95.73,0-173.61,77.88-173.61,173.61s77.88,173.61,173.61,173.61,173.61-77.88,173.61-173.61S4735,3232.52,4639.3,3232.52Zm0,317.22c-79.18,0-143.61-64.42-143.61-143.61s64.43-143.61,143.61-143.61,143.61,64.43,143.61,143.61S4718.48,3549.74,4639.3,3549.74Z"/><path class="cls-1" d="M1721.65,2530.63a314.44,314.44,0,0,0-96.79-91.45c-44.27-26.57-92.24-40-142.57-40s-98.3,13.47-142.57,40a314.3,314.3,0,0,0-96.78,91.45c-37.38,54.59-51.34,112.35-36.44,150.74,28.21,72.71,166.2,98.5,275.79,98.5s247.58-25.79,275.79-98.5C1773,2643,1759,2585.22,1721.65,2530.63Zm8.47,139.89c-8.91,22.95-39.17,43.47-85.23,57.8-44.69,13.9-102.43,21.55-162.6,21.55s-117.91-7.65-162.6-21.55c-23-7.17-42.11-15.88-56.54-25.67s-24.23-20.66-28.68-32.13c-11-28.41,2.33-77.81,33.22-122.94,50.77-74.16,131-118.44,214.6-118.44s163.83,44.28,214.6,118.44C1727.79,2592.71,1741.14,2642.11,1730.12,2670.52Z"/><path class="cls-1" d="M1482.29,2029.53c-95.73,0-173.61,77.88-173.61,173.61s77.88,173.61,173.61,173.61,173.61-77.88,173.61-173.61S1578,2029.53,1482.29,2029.53Zm0,317.22c-79.18,0-143.61-64.42-143.61-143.61s64.43-143.61,143.61-143.61S1625.9,2124,1625.9,2203.14,1561.48,2346.75,1482.29,2346.75Z"/><text></text><path class="cls-1" d="M4787.1,285.19c-21.48-12-64.47-21.48-102.25-21.48-123.73,0-201.08,95.36-201.08,200.17,0,70.45,40.37,111.73,96.24,111.73,45.54,0,84.2-22.39,110.86-66.19h1.71c4.27,45.55,33.51,66.19,73.88,66.19,92.81,0,163.27-79.06,163.27-204.51,0-144.34-108.27-248.3-259.5-248.3-194.19,0-321.35,152-321.35,327.36,0,168.41,125.44,270.63,268.07,270.63,61,0,105.68-7.7,157.24-30.92l-15.46-49.82c-34.39,18.05-80.77,27.5-124.61,27.5-128,0-220-81.65-220-225.15,0-164.14,115.17-267.2,246.62-267.2,133.19,0,205.36,86.76,205.36,198.49,0,98.79-46.4,146-83.33,145.18-24.07-.84-30.08-24.07-21.48-74.72ZM4685.69,416.65c-7.73,49.82-41.25,90.19-73,90.19-28.33,0-43-20.64-43-53.25,0-66.18,44.67-122,101.41-122a104.12,104.12,0,0,1,26.62,3.43Z"/><path class="cls-1" d="M0,2122.62a152.1,152.1,0,0,0,140.21,151.64l2.52.18H284.55V2036.26h-33l51.82-60.63L356,2036.26H323v238.18h123q4.65.29,9.38.28a152.11,152.11,0,0,0,.15-304.21q.3-4.71.3-9.5a152.11,152.11,0,1,0-304.22,0q0,4.79.29,9.5A152.11,152.11,0,0,0,0,2122.62Z"/><path class="cls-1" d="M285.27,1709.16a15,15,0,0,1-15-15v-35a15,15,0,0,1,30,0v35A15,15,0,0,1,285.27,1709.16Z"/><path class="cls-1" d="M285.27,1574.61a15,15,0,0,1-15-15v-69.69a15,15,0,0,1,30,0v69.69A15,15,0,0,1,285.27,1574.61Zm0-169.24a15,15,0,0,1-15-15v-69.69a15,15,0,0,1,30,0v69.69A15,15,0,0,1,285.27,1405.37Z"/><path class="cls-1" d="M285.27,1236.12a15,15,0,0,1-15-15v-35a15,15,0,0,1,15-15h35a15,15,0,0,1,0,30h-20v20A15,15,0,0,1,285.27,1236.12Z"/><path class="cls-1" d="M1140.26,1201.12h-67.53a15,15,0,0,1,0-30h67.53a15,15,0,1,1,0,30Zm-164,0H908.73a15,15,0,0,1,0-30h67.53a15,15,0,1,1,0,30Zm-164,0H744.73a15,15,0,0,1,0-30h67.53a15,15,0,0,1,0,30Zm-164,0H580.74a15,15,0,0,1,0-30h67.52a15,15,0,0,1,0,30Zm-164,0H416.74a15,15,0,0,1,0-30h67.53a15,15,0,0,1,0,30Z"/><path class="cls-1" d="M1271.73,1201.12h-35a15,15,0,0,1,0-30h35a15,15,0,0,1,0,30Z"/><path class="cls-1" d="M293.16,2426.48h-.05a15,15,0,0,1-15-15.05l.12-35a15,15,0,0,1,15-14.95h.05a15,15,0,0,1,14.95,15.05l-.12,35A15,15,0,0,1,293.16,2426.48Z"/><path class="cls-1" d="M289.72,3477h-.05A15,15,0,0,1,274.72,3462l.24-72.1a15,15,0,0,1,15-14.95H290A15,15,0,0,1,305,3390l-.24,72.1A15,15,0,0,1,289.72,3477Zm.57-175.09h-.05a15,15,0,0,1-14.95-15l.24-72.1a15,15,0,0,1,15-15h.05a15,15,0,0,1,14.95,15.05l-.24,72.1A15,15,0,0,1,290.29,3302Zm.58-175.1h-.05a15,15,0,0,1-15-15l.24-72.09a15,15,0,0,1,15-14.95h0a15,15,0,0,1,15,15l-.24,72.1A15,15,0,0,1,290.87,3126.85Zm.57-175.09h-.05a15,15,0,0,1-14.95-15.05l.23-72.1a15,15,0,0,1,15-15h.05a15,15,0,0,1,14.95,15.05l-.23,72.1A15,15,0,0,1,291.44,2951.76Zm.57-175.09H292A15,15,0,0,1,277,2761.62l.24-72.1a15,15,0,0,1,15-14.95h.05a15,15,0,0,1,15,15l-.24,72.1A15,15,0,0,1,292,2776.67Zm.57-175.1h-.05a15,15,0,0,1-14.95-15.05l.24-72.09a15,15,0,0,1,15-14.95h.05a15,15,0,0,1,14.95,15l-.24,72.1A15,15,0,0,1,292.58,2601.57Z"/><path class="cls-1" d="M324.27,3615h-35a15,15,0,0,1-15-15l.11-35a15,15,0,0,1,15-15h.05a15,15,0,0,1,14.95,15l-.06,20h19.95a15,15,0,0,1,0,30Z"/><path class="cls-1" d="M604.16,3615H546.54a15,15,0,1,1,0-30h57.62a15,15,0,1,1,0,30Zm-139.95,0H406.59a15,15,0,0,1,0-30h57.62a15,15,0,1,1,0,30Z"/><path class="cls-1" d="M721.48,3615h-35a15,15,0,0,1,0-30h35a15,15,0,0,1,0,30Z"/><path class="cls-1" d="M1824.84,2425h-35a15,15,0,1,1,0-30h35a15,15,0,0,1,0,30Z"/><path class="cls-1" d="M2325.64,2425H2256.9a15,15,0,0,1,0-30h68.74a15,15,0,0,1,0,30Zm-166.93,0H2090a15,15,0,0,1,0-30h68.74a15,15,0,0,1,0,30Zm-166.93,0H1923a15,15,0,1,1,0-30h68.74a15,15,0,1,1,0,30Z"/><path class="cls-1" d="M2458.84,2425h-35a15,15,0,0,1,0-30h35a15,15,0,0,1,0,30Z"/><path class="cls-1" d="M3141.3,923a15,15,0,0,1-15-15V873a15,15,0,1,1,30,0v35A15,15,0,0,1,3141.3,923Z"/><path class="cls-1" d="M3141.3,999.37a15,15,0,0,0-15,15v74.47a15,15,0,1,0,30,0v-74.47A15,15,0,0,0,3141.3,999.37Zm0,361.69a15,15,0,0,0-15,15v74.47a15,15,0,0,0,30,0v-74.47A15,15,0,0,0,3141.3,1361.06Zm0,180.85a15,15,0,0,0-15,15v74.46a15,15,0,0,0,30,0v-74.46A15,15,0,0,0,3141.3,1541.91Zm0,180.84a15,15,0,0,0-15,15v74.47a15,15,0,1,0,30,0v-74.47A15,15,0,0,0,3141.3,1722.75Z"/><path class="cls-1" d="M3156.3,1195.22v74.46a15,15,0,1,1-30,0v-51.75h-25.76a15,15,0,0,1,0-30h27.65a15,15,0,0,1,28.11,7.29Z"/><path class="cls-1" d="M3141.3,1968.6a15,15,0,0,1-15-15v-35a15,15,0,1,1,30,0v35A15,15,0,0,1,3141.3,1968.6Z"/><path class="cls-1" d="M1958.54,1217.93h-35a15,15,0,0,1,0-30h35a15,15,0,0,1,0,30Z"/><path class="cls-1" d="M2998.57,1217.93H2927.2a15,15,0,0,1,0-30h71.37a15,15,0,0,1,0,30Zm-173.34,0h-71.37a15,15,0,0,1,0-30h71.37a15,15,0,0,1,0,30Zm-173.33,0h-71.38a15,15,0,0,1,0-30h71.38a15,15,0,0,1,0,30Zm-173.34,0h-71.38a15,15,0,0,1,0-30h71.38a15,15,0,0,1,0,30Zm-173.34,0h-71.38a15,15,0,0,1,0-30h71.38a15,15,0,0,1,0,30Zm-173.34,0h-71.37a15,15,0,0,1,0-30h71.37a15,15,0,0,1,0,30Z"/><path class="cls-1" d="M3530.23,402.09h-35a15,15,0,0,1,0-30h35a15,15,0,0,1,0,30Z"/><path class="cls-1" d="M4084.09,402.09h-76a15,15,0,1,1,0-30h76a15,15,0,0,1,0,30Zm-184.62,0h-76a15,15,0,0,1,0-30h76a15,15,0,0,1,0,30Zm-184.62,0h-76a15,15,0,0,1,0-30h76a15,15,0,0,1,0,30Z"/><path class="cls-1" d="M4227.69,402.09h-35a15,15,0,0,1,0-30h35a15,15,0,0,1,0,30Z"/><path class="cls-1" d="M4587,851a15,15,0,0,1-15-15V801a15,15,0,0,1,30,0v35A15,15,0,0,1,4587,851Z"/><path class="cls-1" d="M4587,1314.47a15,15,0,0,1-15-15v-63.61a15,15,0,1,1,30,0v63.61A15,15,0,0,1,4587,1314.47Zm0-154.49a15,15,0,0,1-15-15v-63.61a15,15,0,0,1,30,0V1145A15,15,0,0,1,4587,1160Zm0-154.48a15,15,0,0,1-15-15V926.88a15,15,0,0,1,30,0V990.5A15,15,0,0,1,4587,1005.5Z"/><path class="cls-1" d="M4587,1440.35a15,15,0,0,1-15-15v-35a15,15,0,0,1,30,0v35A15,15,0,0,1,4587,1440.35Z"/><path class="cls-1" d="M4635,2704.64a15,15,0,0,1-15-15v-35a15,15,0,1,1,30,0v35A15,15,0,0,1,4635,2704.64Z"/><path class="cls-1" d="M4635,2989.06a15,15,0,0,1-15-15V2915.5a15,15,0,0,1,30,0v58.56A15,15,0,0,1,4635,2989.06Zm0-142.21a15,15,0,0,1-15-15v-58.56a15,15,0,0,1,30,0v58.56A15,15,0,0,1,4635,2846.85Z"/><path class="cls-1" d="M4635,3107.71a15,15,0,0,1-15-15v-35a15,15,0,0,1,30,0v35A15,15,0,0,1,4635,3107.71Z"/><path class="cls-1" d="M2894.35,3533.47h-35a15,15,0,0,1,0-30h35a15,15,0,0,1,0,30Z"/><path class="cls-1" d="M4119.2,3533.47h-72a15,15,0,0,1,0-30h72a15,15,0,0,1,0,30Zm-175,0h-72a15,15,0,0,1,0-30h72a15,15,0,0,1,0,30Zm-175,0h-72a15,15,0,0,1,0-30h72a15,15,0,0,1,0,30Zm-175,0h-72.05a15,15,0,0,1,0-30h72.05a15,15,0,0,1,0,30Zm-175,0h-72.05a15,15,0,0,1,0-30h72.05a15,15,0,0,1,0,30Zm-175,0h-72a15,15,0,0,1,0-30h72a15,15,0,0,1,0,30Zm-175,0h-72a15,15,0,0,1,0-30h72a15,15,0,0,1,0,30Z"/><path class="cls-1" d="M4257.13,3533.47h-35a15,15,0,0,1,0-30h35a15,15,0,0,1,0,30Z"/></g></g></svg>