<?xml version="1.0" encoding="utf-8"?>
<!-- Generator: Adobe Illustrator 23.0.1, SVG Export Plug-In . SVG Version: 6.00 Build 0)  -->
<svg version="1.1" id="Layer_1" xmlns="http://www.w3.org/2000/svg" xmlns:xlink="http://www.w3.org/1999/xlink" x="0px" y="0px"
	 viewBox="0 0 1421.2 899.7" style="enable-background:new 0 0 1421.2 899.7;" xml:space="preserve">
<style type="text/css">
	.st0{fill:#FFFFFF;}
</style>
<g>
	<g>
		<g id="Layer_2-2">
			<path class="st0" d="M1061,354.1c0,0.2,0,0.4,0,0.6h-59.1c-2.2-6.1,0.9-12.9,7.1-15.1c4.2-1.5,8.8-0.6,12.1,2.4
				c3.1-7.6,11.8-11.3,19.4-8.2c5.2,2.1,8.7,6.9,9.2,12.4c1-0.4,2-0.6,3-0.5C1057.2,345.7,1061,349.5,1061,354.1z"/>
			<path class="st0" d="M420,453.1c0,0.2,0,0.4,0,0.6h-59.1c-2.2-6.1,0.9-12.9,7.1-15.1c4.2-1.5,8.8-0.6,12.1,2.4
				c3.1-7.6,11.8-11.3,19.4-8.2c5.2,2.1,8.7,6.9,9.2,12.4c1-0.4,2-0.6,3-0.5C416.2,444.7,420,448.5,420,453.1z"/>
			<path class="st0" d="M574,898.1c0,0.2,0,0.4,0,0.7h-59.1c-2.2-6.1,0.9-12.9,7.1-15.1c4.2-1.5,8.8-0.6,12.1,2.4
				c3.1-7.6,11.8-11.3,19.4-8.2c5.2,2.1,8.7,6.9,9.2,12.4c1-0.4,2-0.6,3-0.5C570.2,889.7,574,893.5,574,898.1z"/>
			<path class="st0" d="M774,832.1c0,0.2,0,0.4,0,0.7h-59.1c-2.2-6.1,0.9-12.9,7.1-15.1c4.2-1.5,8.8-0.6,12.1,2.4
				c3.1-7.6,11.8-11.3,19.4-8.2c5.2,2.1,8.7,6.9,9.2,12.4c1-0.4,2-0.6,3-0.5C770.2,823.7,774,827.5,774,832.1z"/>
			<path class="st0" d="M736,298.1c0,0.2,0,0.4,0,0.6h-59.1c-2.2-6.1,0.9-12.9,7.1-15.1c4.2-1.5,8.8-0.6,12.1,2.4
				c3.1-7.6,11.8-11.3,19.4-8.2c5.2,2.1,8.7,6.9,9.2,12.4c1-0.4,2-0.6,3-0.5C732.2,289.7,736,293.5,736,298.1z"/>
			<path class="st0" d="M1008.7,796.8L1008.7,796.8c-14-30.7-48.4-46.6-80.9-37.4l-36.6-80.5h0.2c17.5,0,31.7-14.2,31.7-31.7V487.9
				h81.1c5.1,0,9.2-4.1,9.2-9.2v-3.4c0-5.1-4.1-9.2-9.2-9.2h-37.1c-5.1,0-9.2-4.1-9.2-9.2v-3.4c0-5.1,4.1-9.2,9.2-9.2h14
				c5.1,0,9.2-4.1,9.2-9.2v-3.4c0-5.1-4.1-9.2-9.2-9.2H923c-1.7-16.2-15.3-28.5-31.6-28.5h-48l16.2-33.9c36,11,74.2-9.2,85.3-45.3
				c11-36-9.2-74.2-45.3-85.3c-36.1-11-74.2,9.2-85.3,45.3c-8.8,28.7,2.2,59.7,27,76.5L821,394.2H584.2l-51.7-113.6
				c31.6-20.6,40.6-62.9,20-94.5c-20.6-31.6-62.9-40.6-94.5-20c-31.6,20.6-40.6,62.9-20,94.5c16.4,25.2,47.3,36.7,76.1,28.4
				L562,394.3h-67.3c-17.5,0-31.7,14.2-31.7,31.7v161.6c-0.3,0-0.6,0-0.9,0h-86.2c-5.1,0-9.2,4.1-9.2,9.2v3.4c0,5.1,4.1,9.2,9.2,9.2
				H413c5,0,9.1,4.1,9.2,9.1v3.4c0,5-4.1,9.1-9.2,9.1h-13.9c-5.1,0-9.2,4.1-9.2,9.2v3.4c0,5.1,4.1,9.2,9.2,9.2h64.4
				c2.2,12.1,11.2,21.8,23.1,25L455.4,743c-36-11-74.2,9.3-85.2,45.3c-11,36,9.3,74.2,45.3,85.2c36,11,74.2-9.3,85.2-45.3
				c8.8-28.7-2.2-59.7-27.1-76.5l34.8-72.8H680v52.8h-92.2c-6.1,0-11,4.9-11,11v4.1c0,6.1,4.9,11,11,11h210.5c6.1,0,11-4.9,11-11
				v-4.1c0-6.1-4.9-11-11-11h-92.2v-52.8H869l40.4,88.9c-31.6,20.5-40.7,62.8-20.1,94.5c20.5,31.6,62.8,40.7,94.5,20.1
				C1012.1,864,1022.7,827.5,1008.7,796.8z M515.4,267.3c-24.3,11.1-53,0.3-64.1-24c-11.1-24.3-0.3-53,24-64.1
				c24.3-11.1,53-0.3,64,24c0,0,0,0,0,0C550.4,227.6,539.7,256.3,515.4,267.3z M479.1,829.1C479.1,829.1,479,829.1,479.1,829.1
				L479.1,829.1c-11.6,24.1-40.4,34.3-64.5,22.8c-24.1-11.5-34.3-40.4-22.8-64.5c11.5-24.1,40.4-34.3,64.5-22.8
				C480.4,776.1,490.6,805,479.1,829.1z M831.2,295c0-7,1.5-14.1,4.7-20.8v0c11.5-24.1,40.4-34.3,64.5-22.8
				c24.1,11.5,34.3,40.4,22.8,64.5c-11.5,24.1-40.4,34.3-64.5,22.8C841.4,330.4,831.2,313.1,831.2,295z M497,654
				c-6.3,0-11.5-5.1-11.5-11.5c0,0,0,0,0,0V427.1c0-6.3,5.1-11.5,11.5-11.5c0,0,0,0,0,0h392.2c6.3,0,11.5,5.1,11.5,11.5c0,0,0,0,0,0
				v215.4c0,6.3-5.1,11.5-11.4,11.5H497z M966.6,869.1L966.6,869.1c-24.3,11.1-53,0.3-64.1-24c-11.1-24.3-0.3-53,24-64
				c24.3-11.1,53-0.3,64.1,24v0C1001.7,829.4,990.9,858,966.6,869.1z"/>
			<path class="st0" d="M826.6,580.9L826.6,580.9c0,1,0,1.9-0.2,2.9H562.7c-10-27.3,4.1-57.6,31.4-67.6c18.6-6.8,39.5-2.6,54,10.9
				c13.8-34,52.5-50.4,86.5-36.7c11.8,4.8,21.9,12.8,29.3,23.2c2.3,3.2,4.3,6.6,5.9,10.1c3.3,6.9,5.3,14.4,6,22
				c19.4-7.3,41.1,2.5,48.4,21.9C825.8,571.9,826.6,576.4,826.6,580.9z"/>
		</g>
	</g>
	<path class="st0" d="M299.1,34.3c0,11.3-9.2,20.4-20.4,20.4h-81.4c-11.3,0-20.4-9.2-20.4-20.4c0-11.3,9.1-20.4,20.4-20.4
		c6.1,0,11.6,2.7,15.3,6.9c1.6-0.6,3.3-0.9,5.1-0.9c0.8,0,1.5,0.1,2.3,0.2C223.2,8.5,233.8,0,246.4,0c10.8,0,20.2,6.3,24.6,15.4
		c2.3-1,4.9-1.5,7.6-1.5C290,13.9,299.1,23.1,299.1,34.3z"/>
	<path class="st0" d="M1421.2,443c0,11.3-9.1,20.4-20.4,20.4h-39c0.5,0.5,0.8,1.1,0.8,1.8v19.2c0,1.4-1.1,2.5-2.5,2.5
		s-2.5-1.1-2.5-2.5v-19.2c0-0.7,0.3-1.4,0.8-1.8h-39c-11.3,0-20.4-9.2-20.4-20.4c0-11.3,9.1-20.4,20.4-20.4c6.1,0,11.6,2.7,15.3,6.9
		c1.6-0.6,3.3-0.9,5.1-0.9c0.8,0,1.5,0.1,2.3,0.2c3.2-11.6,13.8-20.1,26.4-20.1c10.8,0,20.2,6.3,24.6,15.4c2.4-1,4.9-1.5,7.6-1.5
		C1412,422.6,1421.2,431.7,1421.2,443z"/>
	<path class="st0" d="M1236.2,139.8c0,11.3-9.1,20.4-20.4,20.4h-81.4c-11.3,0-20.4-9.2-20.4-20.4c0-11.3,9.1-20.4,20.4-20.4
		c6.1,0,11.6,2.7,15.3,6.9c1.6-0.6,3.3-0.9,5.1-0.9c0.8,0,1.5,0.1,2.3,0.2c3.2-11.6,13.8-20.1,26.4-20.1c10.8,0,20.2,6.3,24.6,15.4
		c2.4-1,4.9-1.5,7.6-1.5C1227.1,119.4,1236.2,128.6,1236.2,139.8z"/>
	<path class="st0" d="M122.2,361.7c0,11.3-9.1,20.4-20.4,20.4H20.4C9.1,382.1,0,373,0,361.7c0-11.3,9.1-20.4,20.4-20.4
		c6.1,0,11.6,2.7,15.3,6.9c1.6-0.6,3.3-0.9,5.1-0.9c0.8,0,1.5,0.1,2.3,0.2c3.2-11.6,13.8-20.1,26.4-20.1c10.8,0,20.2,6.3,24.6,15.4
		c2.4-1,4.9-1.5,7.6-1.5C113.1,341.3,122.2,350.4,122.2,361.7z"/>
	<g>
		<path class="st0" d="M238,428.5c-1.4,0-2.5,1.1-2.5,2.5v20.7c0,1.4,1.1,2.5,2.5,2.5s2.5-1.1,2.5-2.5V431
			C240.5,429.6,239.4,428.5,238,428.5z M238,387.1c-1.4,0-2.5,1.1-2.5,2.5v20.7c0,1.4,1.1,2.5,2.5,2.5s2.5-1.1,2.5-2.5v-20.7
			C240.5,388.2,239.4,387.1,238,387.1z M238,345.7c-1.4,0-2.5,1.1-2.5,2.5v20.7c0,1.4,1.1,2.5,2.5,2.5s2.5-1.1,2.5-2.5v-20.7
			C240.5,346.8,239.4,345.7,238,345.7z M238,304.2c-1.4,0-2.5,1.1-2.5,2.5v20.7c0,1.4,1.1,2.5,2.5,2.5s2.5-1.1,2.5-2.5v-20.7
			C240.5,305.3,239.4,304.2,238,304.2z M238,262.8c-1.4,0-2.5,1.1-2.5,2.5V286c0,1.4,1.1,2.5,2.5,2.5s2.5-1.1,2.5-2.5v-20.7
			C240.5,263.9,239.4,262.8,238,262.8z M238,221.3c-1.4,0-2.5,1.1-2.5,2.5v20.7c0,1.4,1.1,2.5,2.5,2.5s2.5-1.1,2.5-2.5v-20.7
			C240.5,222.5,239.4,221.3,238,221.3z M238,179.9c-1.4,0-2.5,1.1-2.5,2.5v20.7c0,1.4,1.1,2.5,2.5,2.5s2.5-1.1,2.5-2.5v-20.7
			C240.5,181,239.4,179.9,238,179.9z M238,138.5c-1.4,0-2.5,1.1-2.5,2.5v20.7c0,1.4,1.1,2.5,2.5,2.5s2.5-1.1,2.5-2.5V141
			C240.5,139.6,239.4,138.5,238,138.5z M238,97c-1.4,0-2.5,1.1-2.5,2.5v20.7c0,1.4,1.1,2.5,2.5,2.5s2.5-1.1,2.5-2.5V99.5
			C240.5,98.2,239.4,97,238,97z M238,55.6c-1.4,0-2.5,1.1-2.5,2.5v20.7c0,1.4,1.1,2.5,2.5,2.5s2.5-1.1,2.5-2.5V58.1
			C240.5,56.7,239.4,55.6,238,55.6z"/>
	</g>
	<g>
		<path class="st0" d="M63.9,631.1c-1.4,0-2.5-1.1-2.5-2.5v-10c0-1.4,1.1-2.5,2.5-2.5s2.5,1.1,2.5,2.5v10
			C66.4,630,65.3,631.1,63.9,631.1z"/>
		<path class="st0" d="M63.9,462.1c-1.4,0-2.5,1.1-2.5,2.5v19.2c0,1.4,1.1,2.5,2.5,2.5s2.5-1.1,2.5-2.5v-19.2
			C66.4,463.3,65.3,462.1,63.9,462.1z M63.9,577.6c-1.4,0-2.5,1.1-2.5,2.5v19.2c0,1.4,1.1,2.5,2.5,2.5s2.5-1.1,2.5-2.5v-19.2
			C66.4,578.7,65.3,577.6,63.9,577.6z"/>
		<path class="st0" d="M66.4,541.6v19.2c0,1.4-1.1,2.5-2.5,2.5s-2.5-1.1-2.5-2.5v-19.2c0-1.4,1.1-2.5,2.5-2.5S66.4,540.2,66.4,541.6
			z"/>
		<path class="st0" d="M66.4,503.1v19.2c0,1.4-1.1,2.5-2.5,2.5s-2.5-1.1-2.5-2.5v-19.2c0-1.4,1.1-2.5,2.5-2.5S66.4,501.8,66.4,503.1
			z"/>
		<path class="st0" d="M66.4,426.2v19.2c0,1.4-1.1,2.5-2.5,2.5s-2.5-1.1-2.5-2.5v-19.2c0-1.4,1.1-2.5,2.5-2.5S66.4,424.8,66.4,426.2
			z"/>
		<path class="st0" d="M66.4,387.7v19.2c0,1.4-1.1,2.5-2.5,2.5s-2.5-1.1-2.5-2.5v-19.2c0-1.4,1.1-2.5,2.5-2.5S66.4,386.3,66.4,387.7
			z"/>
	</g>
	<g>
		<path class="st0" d="M1175.1,537.5c-1.4,0-2.5-1.1-2.5-2.5v-10c0-1.4,1.1-2.5,2.5-2.5s2.5,1.1,2.5,2.5v10
			C1177.6,536.4,1176.5,537.5,1175.1,537.5z"/>
		<path class="st0" d="M1175.1,482.9c-1.4,0-2.5,1.1-2.5,2.5v19.8c0,1.4,1.1,2.5,2.5,2.5s2.5-1.1,2.5-2.5v-19.8
			C1177.6,484,1176.5,482.9,1175.1,482.9z M1175.1,443.3c-1.4,0-2.5,1.1-2.5,2.5v19.8c0,1.4,1.1,2.5,2.5,2.5s2.5-1.1,2.5-2.5v-19.8
			C1177.6,444.4,1176.5,443.3,1175.1,443.3z M1175.1,403.6c-1.4,0-2.5,1.1-2.5,2.5V426c0,1.4,1.1,2.5,2.5,2.5s2.5-1.1,2.5-2.5v-19.8
			C1177.6,404.8,1176.5,403.6,1175.1,403.6z M1175.1,364c-1.4,0-2.5,1.1-2.5,2.5v19.8c0,1.4,1.1,2.5,2.5,2.5s2.5-1.1,2.5-2.5v-19.8
			C1177.6,365.1,1176.5,364,1175.1,364z M1175.1,324.4c-1.4,0-2.5,1.1-2.5,2.5v19.8c0,1.4,1.1,2.5,2.5,2.5s2.5-1.1,2.5-2.5v-19.8
			C1177.6,325.5,1176.5,324.4,1175.1,324.4z M1175.1,284.7c-1.4,0-2.5,1.1-2.5,2.5V307c0,1.4,1.1,2.5,2.5,2.5s2.5-1.1,2.5-2.5v-19.8
			C1177.6,285.8,1176.5,284.7,1175.1,284.7z M1175.1,245.1c-1.4,0-2.5,1.1-2.5,2.5v19.8c0,1.4,1.1,2.5,2.5,2.5s2.5-1.1,2.5-2.5
			v-19.8C1177.6,246.2,1176.5,245.1,1175.1,245.1z M1175.1,205.5c-1.4,0-2.5,1.1-2.5,2.5v19.8c0,1.4,1.1,2.5,2.5,2.5
			s2.5-1.1,2.5-2.5V208C1177.6,206.6,1176.5,205.5,1175.1,205.5z M1175.1,165.8c-1.4,0-2.5,1.1-2.5,2.5v19.8c0,1.4,1.1,2.5,2.5,2.5
			s2.5-1.1,2.5-2.5v-19.8C1177.6,167,1176.5,165.8,1175.1,165.8z"/>
	</g>
	<g>
		<path class="st0" d="M1360,655.2c-1.4,0-2.5,1.1-2.5,2.5v19.2c0,1.4,1.1,2.5,2.5,2.5s2.5-1.1,2.5-2.5v-19.2
			C1362.5,656.3,1361.4,655.2,1360,655.2z M1360,616.7c-1.4,0-2.5,1.1-2.5,2.5v19.2c0,1.4,1.1,2.5,2.5,2.5s2.5-1.1,2.5-2.5v-19.2
			C1362.5,617.8,1361.4,616.7,1360,616.7z M1360,578.2c-1.4,0-2.5,1.1-2.5,2.5V600c0,1.4,1.1,2.5,2.5,2.5s2.5-1.1,2.5-2.5v-19.2
			C1362.5,579.4,1361.4,578.2,1360,578.2z M1360,539.8c-1.4,0-2.5,1.1-2.5,2.5v19.3c0,1.4,1.1,2.5,2.5,2.5s2.5-1.1,2.5-2.5v-19.3
			C1362.5,540.9,1361.4,539.8,1360,539.8z M1360,501.3c-1.4,0-2.5,1.1-2.5,2.5V523c0,1.4,1.1,2.5,2.5,2.5s2.5-1.1,2.5-2.5v-19.2
			C1362.5,502.4,1361.4,501.3,1360,501.3z"/>
	</g>
	<g>
		<path class="st0" d="M83.6,744.4c-6.5,2.2-13.2,3.3-19.7,3.3c-25.3,0-48.9-15.9-57.6-41.1c-5.3-15.4-4.2-31.9,2.9-46.5
			c7.1-14.6,19.5-25.5,34.9-30.8c1.3-0.5,2.7,0.2,3.2,1.5s-0.3,2.7-1.6,3.2c-14.1,4.8-25.5,14.9-32,28.3
			c-6.5,13.4-7.5,28.5-2.7,42.6c4.8,14.1,14.9,25.5,28.3,32c13.4,6.5,28.5,7.5,42.6,2.7c14.1-4.8,25.5-14.9,32-28.3
			c6.5-13.4,7.5-28.5,2.7-42.6c-0.5-1.3,0.3-2.7,1.6-3.2c1.3-0.4,2.7,0.3,3.2,1.6C132.3,698.9,115.4,733.5,83.6,744.4z"/>
		<path class="st0" d="M92.2,713c0.6,0.6,0.6,1.5,0,2.1c-7.5,7.6-17.6,11.7-28.3,11.7c-10.7,0-20.7-4.1-28.3-11.7
			c-7.6-7.5-11.7-17.6-11.7-28.3s4.2-20.7,11.7-28.3c15.6-15.6,40.9-15.6,56.5,0c0.6,0.6,0.6,1.5,0,2.1c-0.6,0.6-1.5,0.6-2.1,0
			c-14.4-14.4-37.9-14.4-52.3,0c-7,7-10.8,16.3-10.8,26.1S30.8,706,37.8,713c7,7,16.3,10.8,26.1,10.8c9.9,0,19.2-3.8,26.1-10.8
			C90.6,712.5,91.6,712.5,92.2,713z"/>
	</g>
	<g>
		<path class="st0" d="M290.6,609.3c-13.5,15-32.1,23.7-52.2,24.7c-1.3,0.1-2.6,0.1-3.8,0.1c-18.8,0-36.6-6.8-50.6-19.5
			c-1-0.9-1.1-2.5-0.2-3.5c0.9-1,2.5-1.1,3.5-0.2c14,12.6,32,19.1,50.8,18.2c18.8-0.9,36.1-9.1,48.8-23.1c12.6-14,19.1-32,18.2-50.8
			c-0.9-18.8-9.1-36.1-23.1-48.8c-14-12.6-32-19.1-50.8-18.2c-18.8,0.9-36.1,9.1-48.8,23.1c-0.9,1-2.5,1.1-3.5,0.2
			c-1-0.9-1.1-2.5-0.2-3.5c13.5-14.9,32.1-23.7,52.2-24.7c1.6-0.1,3.1-0.1,4.7-0.1c-0.1-0.2-0.1-0.5-0.1-0.7v-10
			c0-1.4,1.1-2.5,2.5-2.5s2.5,1.1,2.5,2.5v10c0,0.3-0.1,0.6-0.2,0.9c16.7,1.2,32.4,7.9,45,19.3c14.9,13.5,23.7,32.1,24.7,52.2
			C311,575,304.1,594.4,290.6,609.3z"/>
		<path class="st0" d="M234.6,608.3c-4.5,0-9.2-0.6-13.7-2c-26.3-7.6-41.5-35.2-33.9-61.5c0.2-0.8,1.1-1.3,1.9-1
			c0.8,0.2,1.3,1.1,1,1.9c-7.1,24.7,7.2,50.6,31.9,57.8c24.7,7.1,50.6-7.2,57.8-31.9c3.5-12,2-24.6-4-35.5
			c-6-10.9-15.9-18.8-27.9-22.3c-0.8-0.2-1.3-1.1-1-1.9c0.2-0.8,1.1-1.3,1.9-1c12.7,3.7,23.3,12.1,29.7,23.7
			c6.4,11.6,7.9,25,4.2,37.8C276.1,594.1,256.2,608.3,234.6,608.3z"/>
	</g>
	<g>
		<path class="st0" d="M1184.8,648.2c-1.1,0-2.1-0.7-2.4-1.8c-0.4-1.3,0.4-2.7,1.7-3.1c11.8-3.4,21.5-11.2,27.4-22
			c5.9-10.7,7.2-23.1,3.8-34.9c-3.4-11.8-11.2-21.5-22-27.4c-10.7-5.9-23.1-7.2-34.9-3.8c-11.8,3.4-21.5,11.2-27.4,22
			c-5.9,10.7-7.2,23.1-3.8,34.9c0.4,1.3-0.4,2.7-1.7,3.1c-1.3,0.4-2.7-0.4-3.1-1.7c-3.8-13-2.3-26.8,4.2-38.7
			c6.5-11.9,17.3-20.6,30.3-24.4c13-3.8,26.8-2.3,38.7,4.2c11.9,6.5,20.6,17.3,24.4,30.3c3.8,13,2.3,26.8-4.2,38.7
			c-6.5,11.9-17.3,20.6-30.3,24.4C1185.2,648.2,1185,648.2,1184.8,648.2z"/>
		<path class="st0" d="M1171.2,632.7c-0.5,0-1,0-1.6,0c-8.9-0.4-17.1-4.3-23.1-10.9c-0.6-0.6-0.5-1.6,0.1-2.1
			c0.6-0.6,1.6-0.5,2.1,0.1c5.5,6,13,9.5,21.1,9.9c8.1,0.4,15.9-2.4,21.9-7.9c6-5.5,9.5-13,9.9-21.1c0.4-8.1-2.4-15.9-7.9-21.9
			s-13-9.5-21.1-9.9c-8.1-0.4-15.9,2.4-21.9,7.9c-0.6,0.6-1.6,0.5-2.1-0.1c-0.6-0.6-0.5-1.6,0.1-2.1c6.6-6,15.1-9.1,24-8.7
			c8.9,0.4,17.1,4.3,23.1,10.9c6,6.6,9.1,15.1,8.7,24c-0.4,8.9-4.3,17.1-10.9,23.1C1187.5,629.6,1179.6,632.7,1171.2,632.7z"/>
	</g>
	<g>
		<path class="st0" d="M1360,708.7c-1.4,0-2.5-1.1-2.5-2.5v-10c0-1.4,1.1-2.5,2.5-2.5s2.5,1.1,2.5,2.5v10
			C1362.5,707.6,1361.4,708.7,1360,708.7z"/>
		<path class="st0" d="M1405.3,784c-0.7,1.2-2.2,1.7-3.4,1c-1.2-0.7-1.7-2.2-1-3.4c12.1-22.2,4-50.1-18.2-62.3
			c-10.8-5.9-23.1-7.2-34.9-3.8c-11.8,3.4-21.5,11.3-27.4,22c-12.1,22.2-4,50.1,18.2,62.3c1.2,0.7,1.7,2.2,1,3.4
			c-0.4,0.8-1.3,1.3-2.2,1.3c-0.4,0-0.8-0.1-1.2-0.3c-24.6-13.5-33.7-44.4-20.2-69c6.5-11.9,17.3-20.6,30.3-24.4
			c4.5-1.3,9-2,13.6-2.1c8.7-0.1,17.3,2,25.1,6.3c11.9,6.5,20.6,17.3,24.4,30.3C1413.4,758.3,1411.9,772.1,1405.3,784z"/>
		<path class="st0" d="M1360.8,793c-0.5,0-1,0-1.6,0c-0.8,0-1.5-0.7-1.4-1.6s0.8-1.5,1.6-1.4c16.7,0.7,31-12.2,31.8-29
			c0.4-8.1-2.4-15.9-7.9-21.9s-13-9.5-21.1-9.9c-8.1-0.4-15.9,2.4-21.9,7.9c-6,5.5-9.5,13-9.9,21.1c0,0.8-0.7,1.5-1.6,1.4
			c-0.8,0-1.5-0.7-1.4-1.6c0.4-8.9,4.3-17.1,10.9-23.1c6.6-6,15.1-9.1,24-8.7c8.9,0.4,17.1,4.3,23.1,10.9c6,6.6,9.1,15.1,8.7,24
			C1393.3,779,1378.5,793,1360.8,793z"/>
	</g>
	<g>
		<path class="st0" d="M68.7,667.6H53.6c-1.5,0-2.7,1.2-2.7,2.7v36.2c0,1.5,1.2,2.7,2.7,2.7h15.1c1.5,0,2.7-1.2,2.7-2.7v-36.2
			C71.4,668.9,70.2,667.6,68.7,667.6z M70.4,706.6c0,1-0.8,1.7-1.7,1.7H53.6c-1,0-1.7-0.8-1.7-1.7v-36.2c0-1,0.8-1.7,1.7-1.7h15.1
			c1,0,1.7,0.8,1.7,1.7V706.6z"/>
		<path class="st0" d="M62.8,703.6c0,1-0.8,1.7-1.7,1.7c-1,0-1.7-0.8-1.7-1.7c0-1,0.8-1.7,1.7-1.7C62.1,701.9,62.8,702.7,62.8,703.6
			z"/>
	</g>
	<g>
		<path class="st0" d="M261.6,537.8h-47.1c-1.5,0-2.7,1.2-2.7,2.7v36.2c0,1.5,1.2,2.7,2.7,2.7h47.1c1.5,0,2.7-1.2,2.7-2.7v-36.2
			C264.3,539,263.1,537.8,261.6,537.8z M263.3,576.8c0,1-0.8,1.7-1.7,1.7h-47.1c-0.9,0-1.7-0.8-1.7-1.7v-36.2c0-0.9,0.8-1.7,1.7-1.7
			h47.1c1,0,1.7,0.8,1.7,1.7V576.8z"/>
		<path class="st0" d="M239.7,573.8c0,1-0.8,1.7-1.7,1.7c-1,0-1.7-0.8-1.7-1.7c0-1,0.8-1.7,1.7-1.7
			C239,572.1,239.7,572.8,239.7,573.8z"/>
	</g>
	<g>
		<path class="st0" d="M1187.1,605.3v-19.5h-31.7v19.5h15.4v4.6h-5c-0.3,0-0.5,0.2-0.5,0.5c0,0.3,0.2,0.5,0.5,0.5h10.9
			c0.3,0,0.5-0.2,0.5-0.5c0-0.3-0.2-0.5-0.5-0.5h-5v-4.6H1187.1z M1156.3,604.3v-17.5h29.7v17.5H1156.3z"/>
	</g>
	<g>
		<path class="st0" d="M1376.7,767.1v-17.3c0-1.6-1.3-2.9-2.9-2.9h-25.9c-1.7,0-3.1,1.4-3.1,3.1v17.1h-4.4v0.5
			c0,2.6,2.1,4.7,4.7,4.7h31.4c2.6,0,4.7-2.1,4.7-4.7v-0.5H1376.7z M1345.8,750c0-1.2,0.9-2.1,2.1-2.1h25.9c1.1,0,1.9,0.9,1.9,1.9
			V767h-29.9V750z M1376.5,771.3h-31.4c-1.9,0-3.4-1.4-3.7-3.2h38.8C1379.9,769.9,1378.4,771.3,1376.5,771.3z"/>
	</g>
</g>
</svg>
