<svg xmlns="http://www.w3.org/2000/svg" viewBox="0 0 874.07 768"><defs><style>.cls-1{fill:#2980b9;}.cls-2{fill:#34495e;}.cls-3{fill:none;}.cls-4{fill:#fff;}</style></defs><title>landing - IOT </title><g id="Layer_2" data-name="Layer 2"><g id="Layer_2-2" data-name="Layer 2"><path class="cls-1" d="M538.07,62a21,21,0,1,0,21,21A21,21,0,0,0,538.07,62Zm0,35.88A14.88,14.88,0,1,1,553,83,14.88,14.88,0,0,1,538.07,97.88Z"/><path class="cls-1" d="M312.07,0a21,21,0,1,0,21,21A21,21,0,0,0,312.07,0Zm0,35.88A14.88,14.88,0,1,1,327,21,14.88,14.88,0,0,1,312.07,35.88Z"/><path class="cls-1" d="M155.07,426a21,21,0,1,0,21,21A21,21,0,0,0,155.07,426Zm0,35.88A14.88,14.88,0,1,1,170,447,14.88,14.88,0,0,1,155.07,461.88Z"/><path class="cls-1" d="M333.07,726a21,21,0,1,0,21,21A21,21,0,0,0,333.07,726Zm0,35.88A14.88,14.88,0,1,1,348,747,14.88,14.88,0,0,1,333.07,761.88Z"/><path class="cls-1" d="M629.07,629a21,21,0,1,0,21,21A21,21,0,0,0,629.07,629Zm0,35.88A14.88,14.88,0,1,1,644,650,14.88,14.88,0,0,1,629.07,664.88Z"/><path class="cls-1" d="M822.5,130.35c0,.22,0,.44,0,.65H763.35a11.82,11.82,0,0,1,19.14-12.7,14.89,14.89,0,0,1,28.62,4.18,8.42,8.42,0,0,1,11.39,7.87Z"/><path class="cls-1" d="M776.07,394a81,81,0,0,0-80.6,73H647.8l-56.12-56.11A160.23,160.23,0,0,0,547,248.8L664.8,131h47.67a80.94,80.94,0,1,0,.21-18H660.73a8.9,8.9,0,0,0-2.08.24h0l-.18,0a9,9,0,0,0-3.61,2.2L533.08,237.26a160,160,0,0,0-241.59,64.5L236.23,246.5a8.91,8.91,0,0,0-3.73-2.24l-.07,0a9,9,0,0,0-2.09-.24h-52a81.06,81.06,0,1,0,.21,18h47.67l58.4,58.39a160.23,160.23,0,0,0,41.88,160.34L209.27,598H161.6a80.94,80.94,0,1,0-.21,18h52a9,9,0,0,0,2.09-.24h0a8.93,8.93,0,0,0,3.76-2.25L340.17,492.56a160.06,160.06,0,0,0,244.77-63l51.15,51.16,1.75,1.75a9,9,0,0,0,3.61,2.2l.18.05h0a8.9,8.9,0,0,0,2.08.24h51.95a81,81,0,1,0,80.39-91Zm17-328.37A57.38,57.38,0,1,1,735.69,123,57.37,57.37,0,0,1,793.07,65.63ZM98,311.37A57.38,57.38,0,1,1,155.38,254,57.37,57.37,0,0,1,98,311.37Zm-17,352A57.38,57.38,0,1,1,138.38,606,57.37,57.37,0,0,1,81,663.37ZM438.07,487a121,121,0,1,1,121-121A121,121,0,0,1,438.07,487Zm338,45.38A57.38,57.38,0,1,1,833.45,475,57.37,57.37,0,0,1,776.07,532.38Z"/><path class="cls-2" d="M822.5,130.35c0,.22,0,.44,0,.65H763.35a11.82,11.82,0,0,1,19.14-12.7,14.89,14.89,0,0,1,28.62,4.18,8.42,8.42,0,0,1,11.39,7.87Z"/><circle class="cls-1" cx="98.07" cy="273" r="3"/><path class="cls-1" d="M110.38,227H85.76a2.68,2.68,0,0,0-2.69,2.69v48.62A2.68,2.68,0,0,0,85.76,281h24.62a2.68,2.68,0,0,0,2.69-2.69V229.69A2.68,2.68,0,0,0,110.38,227Zm-.09,49.92a1.08,1.08,0,0,1-1.08,1.08H86.93a1.08,1.08,0,0,1-1.08-1.08V231.08A1.08,1.08,0,0,1,86.93,230h22.28a1.08,1.08,0,0,1,1.08,1.08Z"/><circle class="cls-2" cx="98.07" cy="273" r="3"/><path class="cls-2" d="M110.38,227H85.76a2.68,2.68,0,0,0-2.69,2.69v48.62A2.68,2.68,0,0,0,85.76,281h24.62a2.68,2.68,0,0,0,2.69-2.69V229.69A2.68,2.68,0,0,0,110.38,227Zm-.09,49.92a1.08,1.08,0,0,1-1.08,1.08H86.93a1.08,1.08,0,0,1-1.08-1.08V231.08A1.08,1.08,0,0,1,86.93,230h22.28a1.08,1.08,0,0,1,1.08,1.08Z"/><path class="cls-3" d="M745.71,463.33l-1.42,1.56m1.42-1.56-1.42,1.56m1.42-1.56-1.42,1.56m1.42-1.56-1.42,1.56m1.42-1.56-1.42,1.56m1.42-1.56-1.42,1.56m1.42-1.56-1.42,1.56m1.42-1.56-1.42,1.56m1.42-1.56-1.42,1.56m1.42-1.56-1.42,1.56m1.42-1.56-1.42,1.56m1.42-1.56-1.42,1.56m1.42-1.56-1.42,1.56"/><path class="cls-3" d="M745.71,463.33l-1.42,1.56"/><path class="cls-4" d="M822.5,130.35c0,.22,0,.44,0,.65H763.35a11.82,11.82,0,0,1,19.14-12.7,14.89,14.89,0,0,1,28.62,4.18,8.42,8.42,0,0,1,11.39,7.87Z"/><circle class="cls-4" cx="98.07" cy="273" r="3"/><path class="cls-4" d="M110.38,227H85.76a2.68,2.68,0,0,0-2.69,2.69v48.62A2.68,2.68,0,0,0,85.76,281h24.62a2.68,2.68,0,0,0,2.69-2.69V229.69A2.68,2.68,0,0,0,110.38,227Zm-.09,49.92a1.08,1.08,0,0,1-1.08,1.08H86.93a1.08,1.08,0,0,1-1.08-1.08V231.08A1.08,1.08,0,0,1,86.93,230h22.28a1.08,1.08,0,0,1,1.08,1.08Z"/><circle class="cls-2" cx="98.07" cy="273" r="3"/><circle class="cls-4" cx="98.07" cy="273" r="3"/><path class="cls-4" d="M97.07,590V588.5H83.57v15h13.5V602a1,1,0,0,1,1-1h8a1,1,0,0,1,1,1v8a1,1,0,0,1-1,1h-8a1,1,0,0,1-1-1V608.5H83.57v15h13.5V622a1,1,0,0,1,1-1h8a1,1,0,0,1,1,1v8a1,1,0,0,1-1,1h-8a1,1,0,0,1-1-1V628.5h-16a2.5,2.5,0,0,1-2.5-2.5V608.5H65.07V610a1,1,0,0,1-1,1h-8a1,1,0,0,1-1-1v-8a1,1,0,0,1,1-1h8a1,1,0,0,1,1,1v1.52h13.5V586a2.49,2.49,0,0,1,2.5-2.5h16V582a1,1,0,0,1,1-1h8a1,1,0,0,1,1,1v8a1,1,0,0,1-1,1h-8A1,1,0,0,1,97.07,590Z"/><path class="cls-4" d="M776.07,446l-20,22v26h40V468Zm6,35h-12V469h12Z"/><path class="cls-4" d="M808.07,466a3,3,0,0,1-3,3,2.89,2.89,0,0,1-1.06-.2l-1.83-2-24.8-27.29a1.77,1.77,0,0,0-2.62,0L750,466.79l-1.83,2a2.89,2.89,0,0,1-1.06.2,3,3,0,0,1-3-3,2.93,2.93,0,0,1,.22-1.11l1.42-1.56,29-32a1.77,1.77,0,0,1,2.62,0l29,32,1.42,1.56A2.93,2.93,0,0,1,808.07,466Z"/><line class="cls-3" x1="745.71" y1="463.33" x2="744.29" y2="464.89"/></g></g></svg>