<svg xmlns="http://www.w3.org/2000/svg" viewBox="0 0 583 200.6"><defs><style>.cls-1{fill:#2980b9;}.cls-2{fill:#fff;}</style></defs><title>connected-car-systems</title><g id="Layer_2" data-name="Layer 2"><g id="Layer_1-2" data-name="Layer 1"><path class="cls-1" d="M164.94,68a1.87,1.87,0,0,0,1.11-2.42,15.16,15.16,0,0,1,19.64-19.44A1.88,1.88,0,1,0,187,42.65a18.92,18.92,0,0,0-24.51,24.27A1.85,1.85,0,0,0,164.94,68Z"/><path class="cls-1" d="M151.63,73a1.88,1.88,0,0,0,1.11-2.42,29.37,29.37,0,0,1,38-37.67,1.9,1.9,0,0,0,2-.43,2,2,0,0,0,.43-.65,1.89,1.89,0,0,0-1.09-2.44,33.14,33.14,0,0,0-42.92,42.51A1.88,1.88,0,0,0,151.63,73Z"/><path class="cls-1" d="M139.29,76.18a1.89,1.89,0,0,0,1.11-2.42A41.4,41.4,0,0,1,194,20.66a1.85,1.85,0,0,0,2-.43,1.88,1.88,0,0,0-.66-3.09,45.17,45.17,0,0,0-58.48,57.93A1.87,1.87,0,0,0,139.29,76.18Z"/><path class="cls-1" d="M126,81.18a1.87,1.87,0,0,0,1.11-2.42,55.61,55.61,0,0,1,72-71.32,1.88,1.88,0,0,0,2-.43,1.8,1.8,0,0,0,.43-.65,1.88,1.88,0,0,0-1.08-2.43,59.37,59.37,0,0,0-76.89,76.16A1.87,1.87,0,0,0,126,81.18Z"/><path class="cls-1" d="M184.68,55.81a6.87,6.87,0,1,0,0,9.71A6.88,6.88,0,0,0,184.68,55.81Zm-2.67,7a3.1,3.1,0,1,1,0-4.39A3.1,3.1,0,0,1,182,62.86Z"/><path class="cls-1" d="M383.71,115.8a31.45,31.45,0,0,0-6.31-3,122.89,122.89,0,0,0-17.71-16.51C352,90.43,336.76,79.05,313.9,74.51q-3-.6-5.9-1c-26.87-3.68-48.66,4.58-58.66,9.25a107.13,107.13,0,0,0-28.53,19.51,102.35,102.35,0,0,0-24,4.51,58.48,58.48,0,0,0-11.26,4.5,49.51,49.51,0,0,0-18,17.27,16.07,16.07,0,0,0-1.5,6.76,18.1,18.1,0,0,0,1.5,6.75,114.68,114.68,0,0,0,5.26,12l2.27,0a24,24,0,0,0,45.53,3H340.41a24,24,0,0,0,46.24-7.2l9.07-.31a15.21,15.21,0,0,0,3-5.26C401.94,134.27,393.27,121.74,383.71,115.8ZM213.76,155.73a17.25,17.25,0,1,1,1.8-7.65A17.22,17.22,0,0,1,213.76,155.73Zm90.38-50.44H226.8a93.3,93.3,0,0,1,24.79-18.77,101.27,101.27,0,0,1,39-10.51,103.46,103.46,0,0,1,13.51,0Zm8.26-.75V79a79.4,79.4,0,0,1,42,25.53Zm67.43,45.59a17.21,17.21,0,1,1,.13-2A15.46,15.46,0,0,1,379.83,150.13Z"/><rect class="cls-2" y="172.6" width="583" height="28" rx="14" transform="translate(583 373.2) rotate(-180)"/></g></g></svg>