<svg xmlns="http://www.w3.org/2000/svg" viewBox="0 0 615.02 332.4"><defs><style>.cls-1{fill:#2980b9;}.cls-2{fill:#fff;}</style></defs><title>control-tower</title><g id="Layer_2" data-name="Layer 2"><g id="Layer_1-2" data-name="Layer 1"><path class="cls-1" d="M579.06,54.23a1.5,1.5,0,0,1-.88-1.93,12.08,12.08,0,0,0-15.65-15.5,1.5,1.5,0,1,1-1.08-2.8A15.09,15.09,0,0,1,581,53.36,1.49,1.49,0,0,1,579.06,54.23Z"/><path class="cls-1" d="M589.68,58.23a1.51,1.51,0,0,1-.89-1.93,23.41,23.41,0,0,0-30.33-30,1.53,1.53,0,0,1-1.6-.34,1.67,1.67,0,0,1-.34-.52,1.51,1.51,0,0,1,.87-1.95,26.42,26.42,0,0,1,34.22,33.89A1.51,1.51,0,0,1,589.68,58.23Z"/><path class="cls-1" d="M599.51,60.74a1.51,1.51,0,0,1-.88-1.93,33,33,0,0,0-42.74-42.34,1.5,1.5,0,0,1-1.6-.34,1.36,1.36,0,0,1-.33-.53,1.5,1.5,0,0,1,.86-1.93,36,36,0,0,1,46.62,46.18A1.49,1.49,0,0,1,599.51,60.74Z"/><path class="cls-1" d="M610.13,64.73a1.5,1.5,0,0,1-.88-1.93A44.34,44.34,0,0,0,551.83,5.93a1.49,1.49,0,0,1-1.59-.34,1.38,1.38,0,0,1-.34-.52,1.49,1.49,0,0,1,.86-1.94,47.34,47.34,0,0,1,61.3,60.72A1.5,1.5,0,0,1,610.13,64.73Z"/><path class="cls-1" d="M571.07,44.5a5.47,5.47,0,1,0,0,7.74A5.48,5.48,0,0,0,571.07,44.5Zm-5.61,5.62a2.47,2.47,0,1,1,3.49,0A2.48,2.48,0,0,1,565.46,50.12Z"/><path class="cls-2" d="M57,172.37a1.46,1.46,0,0,1-.61-.13,19.7,19.7,0,0,1-.17-35.91,1.5,1.5,0,0,1,1.24,2.73,16.7,16.7,0,0,0,.15,30.44,1.5,1.5,0,0,1-.61,2.87Z"/><path class="cls-2" d="M50.85,186.19a1.46,1.46,0,0,1-.61-.13,34.87,34.87,0,0,1-.31-63.55,1.5,1.5,0,0,1,2,.74,1.48,1.48,0,0,1-.74,2,31.87,31.87,0,0,0,.28,58.09,1.5,1.5,0,0,1-.61,2.87Z"/><path class="cls-2" d="M44,197.89a1.46,1.46,0,0,1-.61-.13A47.7,47.7,0,0,1,43,110.81a1.5,1.5,0,0,1,1.25,2.73A44.7,44.7,0,0,0,44.63,195a1.5,1.5,0,0,1-.61,2.87Z"/><path class="cls-2" d="M37.88,211.71a1.49,1.49,0,0,1-.61-.13A62.87,62.87,0,0,1,36.72,97,1.5,1.5,0,0,1,38,99.71a59.87,59.87,0,0,0,.52,109.13,1.5,1.5,0,0,1-.61,2.87Z"/><path class="cls-2" d="M64.32,146.83a6.82,6.82,0,1,0,6.82,6.81A6.82,6.82,0,0,0,64.32,146.83Zm0,10.63a3.82,3.82,0,1,1,3.82-3.82A3.82,3.82,0,0,1,64.32,157.46Z"/><path class="cls-2" d="M210.28,172.37a1.5,1.5,0,0,1-.63-2.87,16.7,16.7,0,0,0-.14-30.44,1.49,1.49,0,0,1-.76-2,1.51,1.51,0,0,1,2-.76,19.7,19.7,0,0,1,.17,35.91A1.51,1.51,0,0,1,210.28,172.37Z"/><path class="cls-2" d="M216.55,186.19a1.5,1.5,0,0,1-.63-2.86,31.87,31.87,0,0,0-.27-58.09,1.5,1.5,0,0,1,1.22-2.74,34.87,34.87,0,0,1,.3,63.56A1.5,1.5,0,0,1,216.55,186.19Z"/><path class="cls-2" d="M223.49,197.89a1.5,1.5,0,0,1-.62-2.86,44.71,44.71,0,0,0-.39-81.49,1.49,1.49,0,0,1-.76-2,1.51,1.51,0,0,1,2-.76,47.7,47.7,0,0,1,.42,87A1.44,1.44,0,0,1,223.49,197.89Z"/><path class="cls-2" d="M229.76,211.71a1.5,1.5,0,0,1-.62-2.86,59.87,59.87,0,0,0-.53-109.13A1.5,1.5,0,0,1,229.84,97a62.87,62.87,0,0,1,.55,114.6A1.58,1.58,0,0,1,229.76,211.71Z"/><path class="cls-2" d="M202.78,148.1a6.82,6.82,0,1,0,6.82,6.81A6.82,6.82,0,0,0,202.78,148.1Zm0,10.63a3.82,3.82,0,1,1,3.82-3.82A3.83,3.83,0,0,1,202.78,158.73Z"/><polygon class="cls-2" points="104.13 258.05 104.09 258.08 104.1 258.03 104.13 258.05"/><path class="cls-2" d="M179.73,330.64l-4-22.71a1,1,0,0,0,0-.17l-1.5-8.55,0-.17-7.9-45.24-8.46-48.45a1.55,1.55,0,0,0,0-.21l-22.72-130a1.5,1.5,0,0,0-1.48-1.24h0a1.5,1.5,0,0,0-1.47,1.25L121.2,139.42a.19.19,0,0,0,0,.08l-3.29,19.39a1.13,1.13,0,0,0,0,.18l-2.82,16.57,0,.17L101.24,256.9a1,1,0,0,0,0,.25.28.28,0,0,0,0,.09l-7.37,43.34,0,.17-.86,5.07a.13.13,0,0,0,0,.06s0,.06,0,.09l-4.2,24.68a1.54,1.54,0,0,0,.33,1.22,1.51,1.51,0,0,0,1.15.53h88.06a1.51,1.51,0,0,0,1.48-1.76Zm-7.58-26-2-1.45,1.52-1.13Zm-1-5.88-3.46,2.56-32.12-23.78,26.79-19.84,1.85,1.36h0ZM133,275.7l-26.37-19.52,26.8-19.83,26.37,19.51Zm30.16-22.33-.85.63L136,234.48l21.17-15.67Zm-9-51.27-17.42-12.9,13.42-9.94Zm-8.22-47-9.27-6.86,7.14-5.29ZM133.62,84.23l9.69,55.4-9.09,6.74L124.31,139Zm-9.87,58.12,7.95,5.88-10.24,7.59Zm-3,17.73,13.49-10,12.54,9.28,2.9,16.57-15.37,11.39-16.16-12Zm-3.16,18.62,14.19,10.51-18.27,13.53ZM112.76,207l21.53-15.94L155,206.39l1.6,9.11-23.12,17.11-22.24-16.46Zm-2.11,12.46,20.28,15-26.12,19.33Zm-6.56,38.61V258l0,0,26.37,19.52L98.33,301.38l-1.42-1.05Zm25.69,71.32H92L95.78,307l2.55-1.89,32.13,23.79Zm-28.93-26.16L133,279.43l32.12,23.78L133,327Zm34,26.16.68-.5,32.17-23.82L172.9,309h0l3.57,20.44Z"/><polygon class="cls-2" points="136.17 329.4 134.82 329.4 135.5 328.9 136.17 329.4"/><path class="cls-2" d="M87.34,128.47H82.83a9.8,9.8,0,0,0-9.78,9.79v29.32a9.79,9.79,0,0,0,9.78,9.78h4.51a9.8,9.8,0,0,0,9.79-9.78V138.26A9.8,9.8,0,0,0,87.34,128.47Zm6.79,39.11a6.79,6.79,0,0,1-6.79,6.78H82.83a6.79,6.79,0,0,1-6.78-6.78V138.26a6.79,6.79,0,0,1,6.78-6.79h4.51a6.8,6.8,0,0,1,6.79,6.79Z"/><path class="cls-2" d="M184.37,128.47h-4.52a9.8,9.8,0,0,0-9.78,9.79v29.32a9.79,9.79,0,0,0,9.78,9.78h4.52a9.79,9.79,0,0,0,9.78-9.78V138.26A9.8,9.8,0,0,0,184.37,128.47Zm6.78,39.11a6.79,6.79,0,0,1-6.78,6.78h-4.52a6.79,6.79,0,0,1-6.78-6.78V138.26a6.79,6.79,0,0,1,6.78-6.79h4.52a6.79,6.79,0,0,1,6.78,6.79Z"/><path class="cls-2" d="M166.32,131a1.51,1.51,0,0,0-1.67.52L149.76,151.4a1.5,1.5,0,0,0,0,1.73l14.89,22.33a1.49,1.49,0,0,0,1.25.66,1.59,1.59,0,0,0,.43-.06,1.51,1.51,0,0,0,1.07-1.44V132.45A1.5,1.5,0,0,0,166.32,131Zm-2,38.64L152.8,152.35,164.35,137Z"/><path class="cls-2" d="M117.48,154,102.6,131.62a1.5,1.5,0,0,0-2.75.83v42.17a1.5,1.5,0,0,0,1,1.43,1.53,1.53,0,0,0,1.67-.53l14.89-19.84A1.49,1.49,0,0,0,117.48,154Zm-14.63,16.17V137.41l11.55,17.32Z"/><path class="cls-2" d="M506.35,216.4H287.83a21.75,21.75,0,0,0-21.74,21.74V331.4h262V238.14A21.75,21.75,0,0,0,506.35,216.4Zm-176.26,73h-32v-32h32Zm41,0h-32v-32h32Zm41,0h-32v-32h32Z"/><path class="cls-2" d="M567.09,227.93V331.4h-26V227.93a11.51,11.51,0,0,1,4.83-9.38v-76a8.17,8.17,0,0,1,4.84-7.46V74.73a3.33,3.33,0,1,1,6.66,0v60.38a8.14,8.14,0,0,1,4.84,7.46v76A11.51,11.51,0,0,1,567.09,227.93Z"/></g></g></svg>