<svg xmlns="http://www.w3.org/2000/svg" viewBox="0 0 280.98 153.96"><defs><style>.cls-1{fill:#2980b9;}.cls-2{fill:#fff;}</style></defs><title>plane</title><g id="Layer_2" data-name="Layer 2"><g id="Layer_1-2" data-name="Layer 1"><path class="cls-1" d="M216.45,44.18a1.49,1.49,0,0,1-2-.74,12.08,12.08,0,0,0-22,.11,1.51,1.51,0,0,1-1.38.89,1.49,1.49,0,0,1-1.36-2.11,15.08,15.08,0,0,1,27.5-.13A1.48,1.48,0,0,1,216.45,44.18Z"/><path class="cls-1" d="M226.78,39.5a1.51,1.51,0,0,1-2-.74A23.42,23.42,0,0,0,182.1,39a1.52,1.52,0,0,1-1.37.89,1.63,1.63,0,0,1-.61-.13,1.51,1.51,0,0,1-.76-2,26.42,26.42,0,0,1,48.16-.23A1.51,1.51,0,0,1,226.78,39.5Z"/><path class="cls-1" d="M235.51,34.32a1.51,1.51,0,0,1-2-.74,33,33,0,0,0-60.16.29,1.5,1.5,0,0,1-2,.75,1.51,1.51,0,0,1-.76-2,36,36,0,0,1,65.63-.31A1.49,1.49,0,0,1,235.51,34.32Z"/><path class="cls-1" d="M245.84,29.63a1.49,1.49,0,0,1-2-.74,44.34,44.34,0,0,0-80.81.39,1.5,1.5,0,0,1-1.37.89,1.46,1.46,0,0,1-.61-.13,1.49,1.49,0,0,1-.76-2,47.33,47.33,0,0,1,86.28-.41A1.5,1.5,0,0,1,245.84,29.63Z"/><path class="cls-1" d="M203.92,43a5.47,5.47,0,1,0,5.47,5.47A5.48,5.48,0,0,0,203.92,43Zm0,7.94a2.47,2.47,0,1,1,2.47-2.47A2.48,2.48,0,0,1,203.92,50.89Z"/><path class="cls-2" d="M81.15,135l-1.87-5.93a.49.49,0,0,0-.62-.33L74.78,130a.51.51,0,0,0-.29.25.5.5,0,0,0,0,.38l1.87,5.93a.5.5,0,0,0,.47.35.4.4,0,0,0,.15,0l3.88-1.22a.49.49,0,0,0,.29-.24A.5.5,0,0,0,81.15,135Zm-4,.74-1.57-5,2.92-.92,1.57,5Zm12-3.4-1.88-5.93a.49.49,0,0,0-.62-.32l-3.88,1.22a.53.53,0,0,0-.29.24.5.5,0,0,0,0,.38l1.87,5.94a.5.5,0,0,0,.48.34.41.41,0,0,0,.15,0L88.79,133a.48.48,0,0,0,.29-.25A.5.5,0,0,0,89.12,132.34Zm-4,.75-1.57-5,2.92-.92,1.57,5Zm42.5-12.69-1.87-5.93a.49.49,0,0,0-.62-.32l-3.88,1.22a.46.46,0,0,0-.29.24.51.51,0,0,0,0,.38l1.88,5.93a.48.48,0,0,0,.47.35.39.39,0,0,0,.15,0l3.88-1.22a.51.51,0,0,0,.29-.25A.5.5,0,0,0,127.59,120.4Zm-4,.75-1.57-5,2.92-.92,1.57,5Zm12-3.4-1.87-5.93a.5.5,0,0,0-.62-.33l-3.88,1.22a.51.51,0,0,0-.29.25.46.46,0,0,0,0,.38l1.87,5.93a.49.49,0,0,0,.47.35l.15,0,3.88-1.22a.51.51,0,0,0,.29-.25A.5.5,0,0,0,135.55,117.75Zm-4,.74-1.57-5,2.92-.92,1.57,5Zm12-3.39-1.87-5.93a.49.49,0,0,0-.62-.33l-3.88,1.22a.49.49,0,0,0-.32.63l1.87,5.93a.49.49,0,0,0,.47.35.4.4,0,0,0,.15,0l3.88-1.22a.53.53,0,0,0,.29-.24A.5.5,0,0,0,143.51,115.1Zm-4,.74-1.57-5,2.92-.92,1.57,5Zm12-3.4-1.88-5.93a.5.5,0,0,0-.62-.33l-3.88,1.23a.46.46,0,0,0-.29.24.5.5,0,0,0,0,.38l1.87,5.93a.48.48,0,0,0,.47.35l.15,0,3.88-1.22a.51.51,0,0,0,.29-.25A.5.5,0,0,0,151.48,112.44Zm-4,.75-1.57-5,2.92-.92,1.57,5Zm12-3.4-1.88-5.93a.49.49,0,0,0-.62-.33l-3.88,1.22a.51.51,0,0,0-.29.25.5.5,0,0,0,0,.38l1.87,5.93a.5.5,0,0,0,.47.35l.15,0,3.88-1.22a.51.51,0,0,0,.29-.25A.5.5,0,0,0,159.44,109.79Zm-4,.74-1.57-5,2.92-.92,1.57,5Zm12-3.4-1.87-5.93a.5.5,0,0,0-.63-.32L161,102.1a.49.49,0,0,0-.32.63l1.87,5.93a.5.5,0,0,0,.48.35.4.4,0,0,0,.15,0l3.87-1.22a.5.5,0,0,0,.29-.24A.53.53,0,0,0,167.4,107.13Zm-4,.75-1.57-5,2.92-.92,1.57,5Zm22.6-6L184.1,95.9a.5.5,0,0,0-.63-.33l-3.87,1.22a.48.48,0,0,0-.29.25.46.46,0,0,0,0,.38l1.87,5.93a.51.51,0,0,0,.48.35l.15,0,3.88-1.22a.5.5,0,0,0,.32-.63Zm-4,.74-1.57-5,2.92-.92,1.57,5Zm12-3.4-1.87-5.93a.49.49,0,0,0-.63-.32l-3.87,1.22a.5.5,0,0,0-.29.24.51.51,0,0,0,0,.38l1.87,5.94a.5.5,0,0,0,.48.34.39.39,0,0,0,.15,0l3.88-1.22a.49.49,0,0,0,.32-.63Zm-4,.75-1.57-5,2.92-.92,1.57,5Zm12-3.4L200,90.59a.5.5,0,0,0-.62-.33l-3.88,1.22a.51.51,0,0,0-.29.25.5.5,0,0,0,0,.38L197.07,98a.49.49,0,0,0,.47.35l.15,0,3.88-1.22a.51.51,0,0,0,.29-.25A.5.5,0,0,0,201.89,96.52Zm-4,.74-1.57-5,2.92-.92,1.57,5ZM231,94l-3.87-12.32a.5.5,0,0,0-.63-.32l-7.06,2.21a.51.51,0,0,0-.29.25.5.5,0,0,0,0,.38L223,96.48a.51.51,0,0,0,.25.29.46.46,0,0,0,.23.06l.15,0,7.06-2.23A.49.49,0,0,0,231,94Zm-7.2,1.75-3.58-11.37,6.1-1.92,3.58,11.36Zm-13.91-1.83L208,87.94a.49.49,0,0,0-.62-.33l-3.88,1.22a.51.51,0,0,0-.29.25.5.5,0,0,0,0,.38L205,95.39a.49.49,0,0,0,.47.35.4.4,0,0,0,.15,0l3.88-1.22a.49.49,0,0,0,.29-.24A.5.5,0,0,0,209.85,93.87Zm-4,.74-1.57-5,2.92-.92,1.57,5Zm12-3.4-1.87-5.93a.49.49,0,0,0-.62-.32l-3.88,1.22a.49.49,0,0,0-.29.24.5.5,0,0,0,0,.38L213,92.73a.48.48,0,0,0,.47.35.39.39,0,0,0,.15,0l3.88-1.22a.51.51,0,0,0,.29-.25A.5.5,0,0,0,217.81,91.21Zm-4,.75-1.57-5,2.92-.92,1.57,5Zm41.86-11.78-4-5.3a.49.49,0,0,0-.58-.17l-6.64,2.66a.52.52,0,0,0-.31.39.53.53,0,0,0,.2.47l5.31,4a.45.45,0,0,0,.3.1h.12L255.37,81a.51.51,0,0,0,.35-.32A.53.53,0,0,0,255.65,80.18Zm-5.6,1.09L245.64,78l5.45-2.18,3.3,4.4Z"/><path class="cls-2" d="M196,108.22a.49.49,0,0,0-.52-.37l-2.36.22c-1.14.12-2.29.24-3.42.38l-.65.08-1.54.2-1.57.21-2.16.33-2.29.38c-.62.1-1.23.21-1.84.33h0l-3.82-12.16a.53.53,0,0,0-.25-.3.5.5,0,0,0-.38,0l-6.24,2a.51.51,0,0,0-.32.63l3.59,11.44h0l-.88.2c-.66.15-1.31.31-2,.48q-3.09.76-6.15,1.66l-1.38.41q-1.26.38-2.52.78c-1.11.35-2.21.71-3.31,1.09s-2.19.76-3.28,1.16c-2.18.79-4.34,1.64-6.48,2.52a69.14,69.14,0,0,1-42.15,1.31.57.57,0,0,0-.26,0c-3.93,1-5.69,1.94-5.69,3.13a1.74,1.74,0,0,0,.64,1.23c2.52,2.32,14,4.9,26.77,4.9,2.51,0,5.07-.1,7.63-.32,4.83-.41,8.36-1.11,24-5.32,10.91-2.93,22.08-6.06,33.11-9.27a6.71,6.71,0,0,0,5.72-4.34A5.36,5.36,0,0,0,196,108.22Zm-26.26-8L175,98.58,178.62,110l-1.75.55h0l-.87.18q-1.2.24-2.37.51l-.36.08Zm25.3,10.61c-.55,1.86-2.47,3.28-5,3.64-11.1,3.23-22.25,6.35-33.16,9.29-15.53,4.18-19,4.88-23.79,5.29-15.11,1.29-30.82-1.73-33.64-4.33-.29-.26-.32-.42-.32-.48s.14-1,4.8-2.14a70.13,70.13,0,0,0,42.66-1.38A166.22,166.22,0,0,1,173,112.36c1.33-.3,2.68-.59,4-.86h0l.15,0a166.67,166.67,0,0,1,18-2.6,4.62,4.62,0,0,1,.07.82A4.06,4.06,0,0,1,195.06,110.86Z"/><path class="cls-2" d="M81.15,135l-1.87-5.93a.49.49,0,0,0-.62-.33L74.78,130a.51.51,0,0,0-.29.25.5.5,0,0,0,0,.38l1.87,5.93a.5.5,0,0,0,.47.35.4.4,0,0,0,.15,0l3.88-1.22a.49.49,0,0,0,.29-.24A.5.5,0,0,0,81.15,135Zm-4,.74-1.57-5,2.92-.92,1.57,5Zm12-3.4-1.88-5.93a.49.49,0,0,0-.62-.32l-3.88,1.22a.53.53,0,0,0-.29.24.5.5,0,0,0,0,.38l1.87,5.94a.5.5,0,0,0,.48.34.41.41,0,0,0,.15,0L88.79,133a.48.48,0,0,0,.29-.25A.5.5,0,0,0,89.12,132.34Zm-4,.75-1.57-5,2.92-.92,1.57,5Zm42.5-12.69-1.87-5.93a.49.49,0,0,0-.62-.32l-3.88,1.22a.46.46,0,0,0-.29.24.51.51,0,0,0,0,.38l1.88,5.93a.48.48,0,0,0,.47.35.39.39,0,0,0,.15,0l3.88-1.22a.51.51,0,0,0,.29-.25A.5.5,0,0,0,127.59,120.4Zm-4,.75-1.57-5,2.92-.92,1.57,5Zm12-3.4-1.87-5.93a.5.5,0,0,0-.62-.33l-3.88,1.22a.51.51,0,0,0-.29.25.46.46,0,0,0,0,.38l1.87,5.93a.49.49,0,0,0,.47.35l.15,0,3.88-1.22a.51.51,0,0,0,.29-.25A.5.5,0,0,0,135.55,117.75Zm-4,.74-1.57-5,2.92-.92,1.57,5Zm12-3.39-1.87-5.93a.49.49,0,0,0-.62-.33l-3.88,1.22a.49.49,0,0,0-.32.63l1.87,5.93a.49.49,0,0,0,.47.35.4.4,0,0,0,.15,0l3.88-1.22a.53.53,0,0,0,.29-.24A.5.5,0,0,0,143.51,115.1Zm-4,.74-1.57-5,2.92-.92,1.57,5Zm12-3.4-1.88-5.93a.5.5,0,0,0-.62-.33l-3.88,1.23a.46.46,0,0,0-.29.24.5.5,0,0,0,0,.38l1.87,5.93a.48.48,0,0,0,.47.35l.15,0,3.88-1.22a.51.51,0,0,0,.29-.25A.5.5,0,0,0,151.48,112.44Zm-4,.75-1.57-5,2.92-.92,1.57,5Zm12-3.4-1.88-5.93a.49.49,0,0,0-.62-.33l-3.88,1.22a.51.51,0,0,0-.29.25.5.5,0,0,0,0,.38l1.87,5.93a.5.5,0,0,0,.47.35l.15,0,3.88-1.22a.51.51,0,0,0,.29-.25A.5.5,0,0,0,159.44,109.79Zm-4,.74-1.57-5,2.92-.92,1.57,5Zm12-3.4-1.87-5.93a.5.5,0,0,0-.63-.32L161,102.1a.49.49,0,0,0-.32.63l1.87,5.93a.5.5,0,0,0,.48.35.4.4,0,0,0,.15,0l3.87-1.22a.5.5,0,0,0,.29-.24A.53.53,0,0,0,167.4,107.13Zm-4,.75-1.57-5,2.92-.92,1.57,5Zm22.6-6L184.1,95.9a.5.5,0,0,0-.63-.33l-3.87,1.22a.48.48,0,0,0-.29.25.46.46,0,0,0,0,.38l1.87,5.93a.51.51,0,0,0,.48.35l.15,0,3.88-1.22a.5.5,0,0,0,.32-.63Zm-4,.74-1.57-5,2.92-.92,1.57,5Zm12-3.4-1.87-5.93a.49.49,0,0,0-.63-.32l-3.87,1.22a.5.5,0,0,0-.29.24.51.51,0,0,0,0,.38l1.87,5.94a.5.5,0,0,0,.48.34.39.39,0,0,0,.15,0l3.88-1.22a.49.49,0,0,0,.32-.63Zm-4,.75-1.57-5,2.92-.92,1.57,5Zm-10.24,10h0c.61-.12,1.22-.23,1.84-.33Zm-8.3,1.75.88-.2h0Zm30.52-15.2L200,90.59a.5.5,0,0,0-.62-.33l-3.88,1.22a.51.51,0,0,0-.29.25.5.5,0,0,0,0,.38L197.07,98a.49.49,0,0,0,.47.35l.15,0,3.88-1.22a.51.51,0,0,0,.29-.25A.5.5,0,0,0,201.89,96.52Zm-4,.74-1.57-5,2.92-.92,1.57,5Zm12-3.39L208,87.94a.49.49,0,0,0-.62-.33l-3.88,1.22a.51.51,0,0,0-.29.25.5.5,0,0,0,0,.38L205,95.39a.49.49,0,0,0,.47.35.4.4,0,0,0,.15,0l3.88-1.22a.49.49,0,0,0,.29-.24A.5.5,0,0,0,209.85,93.87Zm-4,.74-1.57-5,2.92-.92,1.57,5Zm12-3.4-1.87-5.93a.49.49,0,0,0-.62-.32l-3.88,1.22a.49.49,0,0,0-.29.24.5.5,0,0,0,0,.38L213,92.73a.48.48,0,0,0,.47.35.39.39,0,0,0,.15,0l3.88-1.22a.51.51,0,0,0,.29-.25A.5.5,0,0,0,217.81,91.21Zm-4,.75-1.57-5,2.92-.92,1.57,5ZM231,94l-3.87-12.32a.5.5,0,0,0-.63-.32l-7.06,2.21a.51.51,0,0,0-.29.25.5.5,0,0,0,0,.38L223,96.48a.51.51,0,0,0,.25.29.46.46,0,0,0,.23.06l.15,0,7.06-2.23A.49.49,0,0,0,231,94Zm-7.2,1.75-3.58-11.37,6.1-1.92,3.58,11.36Zm31.89-15.52-4-5.3a.49.49,0,0,0-.58-.17l-6.64,2.66a.52.52,0,0,0-.31.39.53.53,0,0,0,.2.47l5.31,4a.45.45,0,0,0,.3.1h.12L255.37,81a.51.51,0,0,0,.35-.32A.53.53,0,0,0,255.65,80.18Zm-5.6,1.09L245.64,78l5.45-2.18,3.3,4.4ZM81.15,135l-1.87-5.93a.49.49,0,0,0-.62-.33L74.78,130a.51.51,0,0,0-.29.25.5.5,0,0,0,0,.38l1.87,5.93a.5.5,0,0,0,.47.35.4.4,0,0,0,.15,0l3.88-1.22a.49.49,0,0,0,.29-.24A.5.5,0,0,0,81.15,135Zm-4,.74-1.57-5,2.92-.92,1.57,5Zm12-3.4-1.88-5.93a.49.49,0,0,0-.62-.32l-3.88,1.22a.53.53,0,0,0-.29.24.5.5,0,0,0,0,.38l1.87,5.94a.5.5,0,0,0,.48.34.41.41,0,0,0,.15,0L88.79,133a.48.48,0,0,0,.29-.25A.5.5,0,0,0,89.12,132.34Zm-4,.75-1.57-5,2.92-.92,1.57,5Zm42.5-12.69-1.87-5.93a.49.49,0,0,0-.62-.32l-3.88,1.22a.46.46,0,0,0-.29.24.51.51,0,0,0,0,.38l1.88,5.93a.48.48,0,0,0,.47.35.39.39,0,0,0,.15,0l3.88-1.22a.51.51,0,0,0,.29-.25A.5.5,0,0,0,127.59,120.4Zm-4,.75-1.57-5,2.92-.92,1.57,5Zm12-3.4-1.87-5.93a.5.5,0,0,0-.62-.33l-3.88,1.22a.51.51,0,0,0-.29.25.46.46,0,0,0,0,.38l1.87,5.93a.49.49,0,0,0,.47.35l.15,0,3.88-1.22a.51.51,0,0,0,.29-.25A.5.5,0,0,0,135.55,117.75Zm-4,.74-1.57-5,2.92-.92,1.57,5Zm12-3.39-1.87-5.93a.49.49,0,0,0-.62-.33l-3.88,1.22a.49.49,0,0,0-.32.63l1.87,5.93a.49.49,0,0,0,.47.35.4.4,0,0,0,.15,0l3.88-1.22a.53.53,0,0,0,.29-.24A.5.5,0,0,0,143.51,115.1Zm-4,.74-1.57-5,2.92-.92,1.57,5Zm12-3.4-1.88-5.93a.5.5,0,0,0-.62-.33l-3.88,1.23a.46.46,0,0,0-.29.24.5.5,0,0,0,0,.38l1.87,5.93a.48.48,0,0,0,.47.35l.15,0,3.88-1.22a.51.51,0,0,0,.29-.25A.5.5,0,0,0,151.48,112.44Zm-4,.75-1.57-5,2.92-.92,1.57,5Zm12-3.4-1.88-5.93a.49.49,0,0,0-.62-.33l-3.88,1.22a.51.51,0,0,0-.29.25.5.5,0,0,0,0,.38l1.87,5.93a.5.5,0,0,0,.47.35l.15,0,3.88-1.22a.51.51,0,0,0,.29-.25A.5.5,0,0,0,159.44,109.79Zm-4,.74-1.57-5,2.92-.92,1.57,5Zm12-3.4-1.87-5.93a.5.5,0,0,0-.63-.32L161,102.1a.49.49,0,0,0-.32.63l1.87,5.93a.5.5,0,0,0,.48.35.4.4,0,0,0,.15,0l3.87-1.22a.5.5,0,0,0,.29-.24A.53.53,0,0,0,167.4,107.13Zm-4,.75-1.57-5,2.92-.92,1.57,5Zm22.6-6L184.1,95.9a.5.5,0,0,0-.63-.33l-3.87,1.22a.48.48,0,0,0-.29.25.46.46,0,0,0,0,.38l1.87,5.93a.51.51,0,0,0,.48.35l.15,0,3.88-1.22a.5.5,0,0,0,.32-.63Zm-4,.74-1.57-5,2.92-.92,1.57,5Zm12-3.4-1.87-5.93a.49.49,0,0,0-.63-.32l-3.87,1.22a.5.5,0,0,0-.29.24.51.51,0,0,0,0,.38l1.87,5.94a.5.5,0,0,0,.48.34.39.39,0,0,0,.15,0l3.88-1.22a.49.49,0,0,0,.32-.63Zm-4,.75-1.57-5,2.92-.92,1.57,5Zm-10.24,10h0c.61-.12,1.22-.23,1.84-.33Zm-8.3,1.75.88-.2h0Zm30.52-15.2L200,90.59a.5.5,0,0,0-.62-.33l-3.88,1.22a.51.51,0,0,0-.29.25.5.5,0,0,0,0,.38L197.07,98a.49.49,0,0,0,.47.35l.15,0,3.88-1.22a.51.51,0,0,0,.29-.25A.5.5,0,0,0,201.89,96.52Zm-4,.74-1.57-5,2.92-.92,1.57,5Zm12-3.39L208,87.94a.49.49,0,0,0-.62-.33l-3.88,1.22a.51.51,0,0,0-.29.25.5.5,0,0,0,0,.38L205,95.39a.49.49,0,0,0,.47.35.4.4,0,0,0,.15,0l3.88-1.22a.49.49,0,0,0,.29-.24A.5.5,0,0,0,209.85,93.87Zm-4,.74-1.57-5,2.92-.92,1.57,5Zm12-3.4-1.87-5.93a.49.49,0,0,0-.62-.32l-3.88,1.22a.49.49,0,0,0-.29.24.5.5,0,0,0,0,.38L213,92.73a.48.48,0,0,0,.47.35.39.39,0,0,0,.15,0l3.88-1.22a.51.51,0,0,0,.29-.25A.5.5,0,0,0,217.81,91.21Zm-4,.75-1.57-5,2.92-.92,1.57,5ZM231,94l-3.87-12.32a.5.5,0,0,0-.63-.32l-7.06,2.21a.51.51,0,0,0-.29.25.5.5,0,0,0,0,.38L223,96.48a.51.51,0,0,0,.25.29.46.46,0,0,0,.23.06l.15,0,7.06-2.23A.49.49,0,0,0,231,94Zm-7.2,1.75-3.58-11.37,6.1-1.92,3.58,11.36Zm31.89-15.52-4-5.3a.49.49,0,0,0-.58-.17l-6.64,2.66a.52.52,0,0,0-.31.39.53.53,0,0,0,.2.47l5.31,4a.45.45,0,0,0,.3.1h.12L255.37,81a.51.51,0,0,0,.35-.32A.53.53,0,0,0,255.65,80.18Zm-5.6,1.09L245.64,78l5.45-2.18,3.3,4.4ZM81.15,135l-1.87-5.93a.49.49,0,0,0-.62-.33L74.78,130a.51.51,0,0,0-.29.25.5.5,0,0,0,0,.38l1.87,5.93a.5.5,0,0,0,.47.35.4.4,0,0,0,.15,0l3.88-1.22a.49.49,0,0,0,.29-.24A.5.5,0,0,0,81.15,135Zm-4,.74-1.57-5,2.92-.92,1.57,5Zm12-3.4-1.88-5.93a.49.49,0,0,0-.62-.32l-3.88,1.22a.53.53,0,0,0-.29.24.5.5,0,0,0,0,.38l1.87,5.94a.5.5,0,0,0,.48.34.41.41,0,0,0,.15,0L88.79,133a.48.48,0,0,0,.29-.25A.5.5,0,0,0,89.12,132.34Zm-4,.75-1.57-5,2.92-.92,1.57,5ZM179.67,110h0c.61-.12,1.22-.23,1.84-.33Zm-8.3,1.75.88-.2h0Zm-43.78,8.68-1.87-5.93a.49.49,0,0,0-.62-.32l-3.88,1.22a.46.46,0,0,0-.29.24.51.51,0,0,0,0,.38l1.88,5.93a.48.48,0,0,0,.47.35.39.39,0,0,0,.15,0l3.88-1.22a.51.51,0,0,0,.29-.25A.5.5,0,0,0,127.59,120.4Zm-4,.75-1.57-5,2.92-.92,1.57,5Zm12-3.4-1.87-5.93a.5.5,0,0,0-.62-.33l-3.88,1.22a.51.51,0,0,0-.29.25.46.46,0,0,0,0,.38l1.87,5.93a.49.49,0,0,0,.47.35l.15,0,3.88-1.22a.51.51,0,0,0,.29-.25A.5.5,0,0,0,135.55,117.75Zm-4,.74-1.57-5,2.92-.92,1.57,5Zm12-3.39-1.87-5.93a.49.49,0,0,0-.62-.33l-3.88,1.22a.49.49,0,0,0-.32.63l1.87,5.93a.49.49,0,0,0,.47.35.4.4,0,0,0,.15,0l3.88-1.22a.53.53,0,0,0,.29-.24A.5.5,0,0,0,143.51,115.1Zm-4,.74-1.57-5,2.92-.92,1.57,5Zm12-3.4-1.88-5.93a.5.5,0,0,0-.62-.33l-3.88,1.23a.46.46,0,0,0-.29.24.5.5,0,0,0,0,.38l1.87,5.93a.48.48,0,0,0,.47.35l.15,0,3.88-1.22a.51.51,0,0,0,.29-.25A.5.5,0,0,0,151.48,112.44Zm-4,.75-1.57-5,2.92-.92,1.57,5Zm12-3.4-1.88-5.93a.49.49,0,0,0-.62-.33l-3.88,1.22a.51.51,0,0,0-.29.25.5.5,0,0,0,0,.38l1.87,5.93a.5.5,0,0,0,.47.35l.15,0,3.88-1.22a.51.51,0,0,0,.29-.25A.5.5,0,0,0,159.44,109.79Zm-4,.74-1.57-5,2.92-.92,1.57,5Zm12-3.4-1.87-5.93a.5.5,0,0,0-.63-.32L161,102.1a.49.49,0,0,0-.32.63l1.87,5.93a.5.5,0,0,0,.48.35.4.4,0,0,0,.15,0l3.87-1.22a.5.5,0,0,0,.29-.24A.53.53,0,0,0,167.4,107.13Zm-4,.75-1.57-5,2.92-.92,1.57,5Zm22.6-6L184.1,95.9a.5.5,0,0,0-.63-.33l-3.87,1.22a.48.48,0,0,0-.29.25.46.46,0,0,0,0,.38l1.87,5.93a.51.51,0,0,0,.48.35l.15,0,3.88-1.22a.5.5,0,0,0,.32-.63Zm-4,.74-1.57-5,2.92-.92,1.57,5Zm12-3.4-1.87-5.93a.49.49,0,0,0-.63-.32l-3.87,1.22a.5.5,0,0,0-.29.24.51.51,0,0,0,0,.38l1.87,5.94a.5.5,0,0,0,.48.34.39.39,0,0,0,.15,0l3.88-1.22a.49.49,0,0,0,.32-.63Zm-4,.75-1.57-5,2.92-.92,1.57,5Zm12-3.4L200,90.59a.5.5,0,0,0-.62-.33l-3.88,1.22a.51.51,0,0,0-.29.25.5.5,0,0,0,0,.38L197.07,98a.49.49,0,0,0,.47.35l.15,0,3.88-1.22a.51.51,0,0,0,.29-.25A.5.5,0,0,0,201.89,96.52Zm-4,.74-1.57-5,2.92-.92,1.57,5ZM231,94l-3.87-12.32a.5.5,0,0,0-.63-.32l-7.06,2.21a.51.51,0,0,0-.29.25.5.5,0,0,0,0,.38L223,96.48a.51.51,0,0,0,.25.29.46.46,0,0,0,.23.06l.15,0,7.06-2.23A.49.49,0,0,0,231,94Zm-7.2,1.75-3.58-11.37,6.1-1.92,3.58,11.36Zm-13.91-1.83L208,87.94a.49.49,0,0,0-.62-.33l-3.88,1.22a.51.51,0,0,0-.29.25.5.5,0,0,0,0,.38L205,95.39a.49.49,0,0,0,.47.35.4.4,0,0,0,.15,0l3.88-1.22a.49.49,0,0,0,.29-.24A.5.5,0,0,0,209.85,93.87Zm-4,.74-1.57-5,2.92-.92,1.57,5Zm12-3.4-1.87-5.93a.49.49,0,0,0-.62-.32l-3.88,1.22a.49.49,0,0,0-.29.24.5.5,0,0,0,0,.38L213,92.73a.48.48,0,0,0,.47.35.39.39,0,0,0,.15,0l3.88-1.22a.51.51,0,0,0,.29-.25A.5.5,0,0,0,217.81,91.21Zm-4,.75-1.57-5,2.92-.92,1.57,5Zm41.86-11.78-4-5.3a.49.49,0,0,0-.58-.17l-6.64,2.66a.52.52,0,0,0-.31.39.53.53,0,0,0,.2.47l5.31,4a.45.45,0,0,0,.3.1h.12L255.37,81a.51.51,0,0,0,.35-.32A.53.53,0,0,0,255.65,80.18Zm-5.6,1.09L245.64,78l5.45-2.18,3.3,4.4Z"/><path class="cls-2" d="M279.52,77.53a.49.49,0,0,0-.19-.16c-1.9-.84-3.56-1.52-5.22-2.12h0a76,76,0,0,0-12.4-3.46,70.5,70.5,0,0,0-18.41-1.08A71.48,71.48,0,0,0,233.88,72l-.34.1c-5,1.38-13.44,3.69-23.54,6.54C152,95,117.06,104.82,77.28,119.82c-6.08,2.3-12.63,4.85-19.46,7.61L14,103.93a.46.46,0,0,0-.38,0l-13.26,4a.47.47,0,0,0-.33.31.51.51,0,0,0,.06.45L23,142.43c-.58.26-1.17.52-1.75.8l-1.07.49a.5.5,0,0,0-.28.55l.69,3.42c.21,1.07.43,2.14.64,3.21a.49.49,0,0,0,.38.39A116.69,116.69,0,0,0,46.23,154h.71a150.9,150.9,0,0,0,25.29-2.66c2-.33,7.16-1.25,13.3-2.66,23.07-5.32,79.08-22.4,79.62-22.56,17.34-4.75,52.29-14.52,91.57-26.54.3-.09,7.48-2.37,21.39-13.36A6.61,6.61,0,0,0,281,81.87,6,6,0,0,0,279.52,77.53Zm-17.9-4.75a73.18,73.18,0,0,1,10.53,2.83l-12.72,3-3.33-4.45,3.52-.88ZM1.3,108.63l12.41-3.73,42.91,23-4,1.66q-4.07,1.68-8.15,3.42l-4.09,1.75q-8.19,3.52-16.39,7.25ZM277.49,85.4c-13.73,10.84-21,13.16-21.07,13.18-39.26,12-74.2,21.78-91.54,26.54-.56.17-56.54,17.23-79.58,22.54C79.19,149.07,74,150,72.06,150.31A149.38,149.38,0,0,1,46.94,153a114.07,114.07,0,0,1-24.78-2.58c-.2-1-.39-1.93-.58-2.89s-.41-2-.61-3l.7-.33,2.3-1c11.36-5.17,22.8-10.09,34-14.64,6.9-2.79,13.51-5.38,19.65-7.7,39.74-15,74.71-24.82,132.64-41.11,10.09-2.84,18.51-5.16,23.54-6.54l.31-.09a68.22,68.22,0,0,1,25-.65l-4,1a.53.53,0,0,0-.35.32.5.5,0,0,0,.08.47l4,5.31a.3.3,0,0,0,.08.08.59.59,0,0,0,.19.11.65.65,0,0,0,.24,0l14.54-3.41c1.57.57,3.14,1.21,4.93,2A5,5,0,0,1,280,81.76,5.78,5.78,0,0,1,277.49,85.4Z"/><path class="cls-2" d="M81.15,135l-1.87-5.93a.49.49,0,0,0-.62-.33L74.78,130a.51.51,0,0,0-.29.25.5.5,0,0,0,0,.38l1.87,5.93a.5.5,0,0,0,.47.35.4.4,0,0,0,.15,0l3.88-1.22a.49.49,0,0,0,.29-.24A.5.5,0,0,0,81.15,135Zm-4,.74-1.57-5,2.92-.92,1.57,5Z"/><path class="cls-2" d="M89.12,132.34l-1.88-5.93a.49.49,0,0,0-.62-.32l-3.88,1.22a.53.53,0,0,0-.29.24.5.5,0,0,0,0,.38l1.87,5.94a.5.5,0,0,0,.48.34.41.41,0,0,0,.15,0L88.79,133a.48.48,0,0,0,.29-.25A.5.5,0,0,0,89.12,132.34Zm-4,.75-1.57-5,2.92-.92,1.57,5Z"/><path class="cls-2" d="M127.59,120.4l-1.87-5.93a.49.49,0,0,0-.62-.32l-3.88,1.22a.46.46,0,0,0-.29.24.51.51,0,0,0,0,.38l1.88,5.93a.48.48,0,0,0,.47.35.39.39,0,0,0,.15,0l3.88-1.22a.51.51,0,0,0,.29-.25A.5.5,0,0,0,127.59,120.4Zm-4,.75-1.57-5,2.92-.92,1.57,5Z"/><path class="cls-2" d="M135.55,117.75l-1.87-5.93a.5.5,0,0,0-.62-.33l-3.88,1.22a.51.51,0,0,0-.29.25.46.46,0,0,0,0,.38l1.87,5.93a.49.49,0,0,0,.47.35l.15,0,3.88-1.22a.51.51,0,0,0,.29-.25A.5.5,0,0,0,135.55,117.75Zm-4,.74-1.57-5,2.92-.92,1.57,5Z"/><path class="cls-2" d="M143.51,115.1l-1.87-5.93a.49.49,0,0,0-.62-.33l-3.88,1.22a.49.49,0,0,0-.32.63l1.87,5.93a.49.49,0,0,0,.47.35.4.4,0,0,0,.15,0l3.88-1.22a.53.53,0,0,0,.29-.24A.5.5,0,0,0,143.51,115.1Zm-4,.74-1.57-5,2.92-.92,1.57,5Z"/><path class="cls-2" d="M151.48,112.44l-1.88-5.93a.5.5,0,0,0-.62-.33l-3.88,1.23a.46.46,0,0,0-.29.24.5.5,0,0,0,0,.38l1.87,5.93a.48.48,0,0,0,.47.35l.15,0,3.88-1.22a.51.51,0,0,0,.29-.25A.5.5,0,0,0,151.48,112.44Zm-4,.75-1.57-5,2.92-.92,1.57,5Z"/><path class="cls-2" d="M159.44,109.79l-1.88-5.93a.49.49,0,0,0-.62-.33l-3.88,1.22a.51.51,0,0,0-.29.25.5.5,0,0,0,0,.38l1.87,5.93a.5.5,0,0,0,.47.35l.15,0,3.88-1.22a.51.51,0,0,0,.29-.25A.5.5,0,0,0,159.44,109.79Zm-4,.74-1.57-5,2.92-.92,1.57,5Z"/><path class="cls-2" d="M167.4,107.13l-1.87-5.93a.5.5,0,0,0-.63-.32L161,102.1a.49.49,0,0,0-.32.63l1.87,5.93a.5.5,0,0,0,.48.35.4.4,0,0,0,.15,0l3.87-1.22a.5.5,0,0,0,.29-.24A.53.53,0,0,0,167.4,107.13Zm-4,.75-1.57-5,2.92-.92,1.57,5Z"/><path class="cls-2" d="M186,101.83,184.1,95.9a.5.5,0,0,0-.63-.33l-3.87,1.22a.48.48,0,0,0-.29.25.46.46,0,0,0,0,.38l1.87,5.93a.51.51,0,0,0,.48.35l.15,0,3.88-1.22a.5.5,0,0,0,.32-.63Zm-4,.74-1.57-5,2.92-.92,1.57,5Z"/><path class="cls-2" d="M193.93,99.17l-1.87-5.93a.49.49,0,0,0-.63-.32l-3.87,1.22a.5.5,0,0,0-.29.24.51.51,0,0,0,0,.38l1.87,5.94a.5.5,0,0,0,.48.34.39.39,0,0,0,.15,0l3.88-1.22a.49.49,0,0,0,.32-.63Zm-4,.75-1.57-5,2.92-.92,1.57,5Z"/><path class="cls-2" d="M201.89,96.52,200,90.59a.5.5,0,0,0-.62-.33l-3.88,1.22a.51.51,0,0,0-.29.25.5.5,0,0,0,0,.38L197.07,98a.49.49,0,0,0,.47.35l.15,0,3.88-1.22a.51.51,0,0,0,.29-.25A.5.5,0,0,0,201.89,96.52Zm-4,.74-1.57-5,2.92-.92,1.57,5Z"/><path class="cls-2" d="M209.85,93.87,208,87.94a.49.49,0,0,0-.62-.33l-3.88,1.22a.51.51,0,0,0-.29.25.5.5,0,0,0,0,.38L205,95.39a.49.49,0,0,0,.47.35.4.4,0,0,0,.15,0l3.88-1.22a.49.49,0,0,0,.29-.24A.5.5,0,0,0,209.85,93.87Zm-4,.74-1.57-5,2.92-.92,1.57,5Z"/><path class="cls-2" d="M217.81,91.21l-1.87-5.93a.49.49,0,0,0-.62-.32l-3.88,1.22a.49.49,0,0,0-.29.24.5.5,0,0,0,0,.38L213,92.73a.48.48,0,0,0,.47.35.39.39,0,0,0,.15,0l3.88-1.22a.51.51,0,0,0,.29-.25A.5.5,0,0,0,217.81,91.21Zm-4,.75-1.57-5,2.92-.92,1.57,5Z"/><path class="cls-2" d="M231,94l-3.87-12.32a.5.5,0,0,0-.63-.32l-7.06,2.21a.51.51,0,0,0-.29.25.5.5,0,0,0,0,.38L223,96.48a.51.51,0,0,0,.25.29.46.46,0,0,0,.23.06l.15,0,7.06-2.23A.49.49,0,0,0,231,94Zm-7.2,1.75-3.58-11.37,6.1-1.92,3.58,11.36Z"/><path class="cls-2" d="M255.65,80.18l-4-5.3a.49.49,0,0,0-.58-.17l-6.64,2.66a.52.52,0,0,0-.31.39.53.53,0,0,0,.2.47l5.31,4a.45.45,0,0,0,.3.1h.12L255.37,81a.51.51,0,0,0,.35-.32A.53.53,0,0,0,255.65,80.18Zm-5.6,1.09L245.64,78l5.45-2.18,3.3,4.4Z"/><path class="cls-2" d="M68.13,139.09l-1.07-1.33a.51.51,0,0,0-.53-.16L38,145.77a.5.5,0,0,0-.12.9l2.23,1.4a.53.53,0,0,0,.27.08l.14,0,27.33-8.25a.5.5,0,0,0,.33-.33A.48.48,0,0,0,68.13,139.09Zm-27.64,8-1.09-.69,27.09-7.77.4.49Z"/></g></g></svg>