<svg xmlns="http://www.w3.org/2000/svg" viewBox="0 0 242.11 248.7"><defs><style>.cls-1{fill:#fff;}.cls-2{fill:#2980b9;}</style></defs><title>satellite-text_1</title><g id="Layer_2" data-name="Layer 2"><g id="Layer_1-2" data-name="Layer 1"><path class="cls-1" d="M136.52,61l-33.4,41.84h0L136.54,61Z"/><path class="cls-1" d="M168,86.11l2.65-3.34,9.25,7.39,9-11.25L136.62,37.18l-9,11.22,9.22,7.36-2.68,3.37L60.11,0,26.69,41.85,100.79,101l-5.33,6.65a50.16,50.16,0,0,0-51,17.42l-.94,1.18,13.38,10.68L62,165.63A13.6,13.6,0,1,0,76.58,175.8l24.92-3.32,20.27,16.18.94-1.17a50.24,50.24,0,0,0,6.21-52.38l5.69-7.15,74.1,59.14,33.4-41.85Zm53.65,46.67L208.76,149.5l-12-9.37,13.55-16.41ZM208,121.85l-13.58,16.43-11.78-9.22,13.12-17Zm-14.58-11.63-13.13,17-12.77-10,13.32-17ZM131.87,47.93l5.22-6.53,47.6,38-5.23,6.56-6.9-5.51-33.81-27ZM116.94,49.2,103.81,66,91,55.8l14-16.19ZM102.58,37.74l-14,16.2L76.83,44.62l13.82-16.4Zm-28.11,5L63.52,34.09,76.29,16.75l12,9.59ZM30.9,41.37,60.58,4.21,73.94,14.88,61.17,32.22,49.46,23,47.6,25.31l11.78,9.33L45.72,53.19Zm17.17,13.7L61.75,36.5l10.79,8.55L57.65,62.72ZM60,64.59,74.89,46.92l11.74,9.29L71.48,73.76Zm13.83,11L89,58.08l13,10.27L87.64,86.65ZM90,88.52l14.33-18.31,8,6.34,1.87-2.35-8-6.35,13.12-16.77,13,10.39h0L110.08,89.35l-7.41,9.29ZM60.46,139.74l19.75,15.75-10.4,11.7a12.88,12.88,0,0,0-4.76-1.51Zm2.91,50.09a10.64,10.64,0,1,1,0-21.27h.11l.27,0a10.23,10.23,0,0,1,5.52,1.76,10.64,10.64,0,0,1,3.94,4.78,10.75,10.75,0,0,1,.79,4.06A10.65,10.65,0,0,1,63.37,189.83Zm12.11-16.9a13.32,13.32,0,0,0-3.18-4l10.25-11.55,15.7,12.53Zm45.81,11.5-73.5-58.66a47,47,0,0,1,65.15-6.27,46.5,46.5,0,0,1,12.88,16.08A47.25,47.25,0,0,1,121.29,184.43Zm11.92-59.51-.94,1.18-4.83,6.07c-.18-.33-.36-.65-.55-1s-.39-.68-.6-1-.41-.67-.62-1-.27-.43-.42-.64-.29-.43-.43-.64-.47-.69-.72-1c-.5-.7-1-1.38-1.56-2-.28-.33-.54-.66-.83-1s-.56-.65-.85-1-.61-.68-.92-1-.86-.88-1.3-1.3-.7-.68-1.06-1-.75-.69-1.14-1c-.18-.17-.36-.32-.55-.48-.35-.3-.7-.6-1.08-.89a49.69,49.69,0,0,0-4.59-3.26l-1.18-.73c-.29-.18-.6-.35-.89-.51a48,48,0,0,0-7.46-3.44l-1-.35-.56-.18-.55-.18,4.52-5.66L136.52,61h0l2.68-3.37h0l29.13,23.26h0L143,112.63l-.94,1.18Zm3.27.7,29.69-37.16,12.33,9.85-13.35,17.06-7.82-6.12-1.85,2.36,7.82,6.12-14.11,18Zm15.06,12,14.13-18.06,12.77,10-14.11,18.26Zm15.13,12.07,14.13-18.28,11.71,9.16-14.8,17.93Zm13.38,10.68,14.83-17.95,12.06,9.44-14.33,18.53Zm28.2,22.49L195,172.28l14.33-18.55,8.21,6.42,1.85-2.36-8.23-6.44L224,134.65l13.85,11.07Z"/><path class="cls-1" d="M132.26,126.09h0l.94-1.18Z"/><path class="cls-1" d="M132.31,61.47,110.08,89.35l22.24-27.87Z"/><path class="cls-1" d="M139.22,57.63h0L168.34,80.9h0Z"/><path class="cls-2" d="M35.52,195.24a1.48,1.48,0,0,1,1,1.86,12.1,12.1,0,0,0,16.66,14.43,1.5,1.5,0,0,1,1.62.23,1.55,1.55,0,0,1,.37.5,1.51,1.51,0,0,1-.73,2,15.09,15.09,0,0,1-20.79-18A1.48,1.48,0,0,1,35.52,195.24Z"/><path class="cls-2" d="M24.66,192a1.51,1.51,0,0,1,1,1.87A23.41,23.41,0,0,0,58,221.77a1.5,1.5,0,0,1,1.61.24,1.47,1.47,0,0,1,.38.5,1.51,1.51,0,0,1-.74,2A26.42,26.42,0,0,1,22.8,193,1.49,1.49,0,0,1,24.66,192Z"/><path class="cls-2" d="M14.68,190.11a1.51,1.51,0,0,1,1,1.87,33,33,0,0,0,45.48,39.39,1.47,1.47,0,0,1,1.61.24,1.45,1.45,0,0,1,.37.5,1.51,1.51,0,0,1-.73,2,36,36,0,0,1-49.6-43A1.49,1.49,0,0,1,14.68,190.11Z"/><path class="cls-2" d="M3.82,186.84a1.49,1.49,0,0,1,1,1.87,44.34,44.34,0,0,0,61.08,52.91,1.49,1.49,0,0,1,1.62.23,1.42,1.42,0,0,1,.37.5,1.49,1.49,0,0,1-.73,2A47.33,47.33,0,0,1,2,187.84,1.49,1.49,0,0,1,3.82,186.84Z"/><path class="cls-2" d="M44.14,204.41a5.47,5.47,0,1,0-.51-7.72A5.48,5.48,0,0,0,44.14,204.41Zm5.23-6a2.47,2.47,0,1,1-3.49.23A2.47,2.47,0,0,1,49.37,198.44Z"/></g></g></svg>