<svg xmlns="http://www.w3.org/2000/svg" viewBox="0 0 271.89 186.5"><defs><style>.cls-1{fill:#fff;}.cls-2{fill:#2980b9;}</style></defs><title>weather-balloon</title><g id="Layer_2" data-name="Layer 2"><g id="Layer_1-2" data-name="Layer 1"><path class="cls-1" d="M150.53,1.62a50.72,50.72,0,0,1,11.92,7.94,61.42,61.42,0,0,1,13.28,18c5.85,12.24,6,23.13,6.1,31.35,0,.4,0,.79,0,1.19s0,.88,0,1.3,0,.83,0,1.25v.18c0,.37,0,.73-.05,1.1s0,.82,0,1.23c-.08,1.61-.21,3.15-.37,4.61-.1,1-.23,2-.36,2.92-.06.42-.11.84-.18,1.25s-.14.86-.21,1.28c-.43,2.51-.9,4.67-1.36,6.47s-.87,3.21-1.18,4.19c-1.18,3.67-3.83,12.06-8.43,17-.33.37-2.58,2.75-5.61,6.1-2.09,2.34-3.14,3.49-3.62,4.14s-1.28,1.71-2,2.89a26.29,26.29,0,0,0-4.09,14.51h-4.95a35.91,35.91,0,0,1,.58-6.43,35,35,0,0,1,1.6-5.89c.67-1.8,1.38-3.36,2-4.76a26.17,26.17,0,0,1,2.89-5.19c1.17-1.59,1.84-2,3-3.71a27.06,27.06,0,0,0,2.64-4.71,94.29,94.29,0,0,0,4.7-12.69c.45-1.56.66-2.48.66-2.48A106.49,106.49,0,0,0,169.79,56a95.74,95.74,0,0,0-4.37-26.48c-1.87-5.77-4.1-12.47-9.49-18.72-2.62-3.05-5.34-6.21-9.9-8.67-1.15-.62-2.6-1.3-3.67-1.85-.9-.1-1.79-.15-2.68-.2a27,27,0,0,1,4.29,4c3.8,4.46,5.26,9.19,6.93,18.07a175.53,175.53,0,0,1,3.72,36.54c-.07,7.18-.58,13.55-1,18.9-.26,3.28-.61,7.12-1.32,11.87-.24,1.63-.48,3.06-.7,4.29a65.43,65.43,0,0,1-1.44,6.43,73.08,73.08,0,0,1-2.55,7.43c-.67,1.6-.81,1.78-1.25,2.84a34.06,34.06,0,0,0-2.25,9.1c-.08.67-.15,1.3-.22,1.91a50.58,50.58,0,0,0-.13,9.29l-3.58-.13a75.29,75.29,0,0,1,.08-10.71,63.06,63.06,0,0,1,1.52-9.7c.59-2.44,1.1-3.88,1.74-7.18.44-2.22.74-4.27.94-6.15a95.82,95.82,0,0,0,.55-9.57c.33-19.12.54-13.41.61-27.46.08-13.4-.13-18.55-.25-21.29-.05-1.28-.36-5.52-1-14,0,0-1-13.26-4-20.66A14.67,14.67,0,0,0,138.14,0c-.5,0-1,0-1.52,0s-1,0-1.53,0A15,15,0,0,0,132.81,4c-3,7.4-4,20.66-4,20.66-.62,8.46-.93,12.7-1,14-.11,2.74-.31,7.89-.24,21.29.07,14.05.28,8.34.62,27.46,0,2.46.1,5.65.53,9.57.21,1.88.52,3.93,1,6.15.64,3.3,1.14,4.74,1.73,7.18a64.32,64.32,0,0,1,1.52,9.7,76.68,76.68,0,0,1,.09,10.71l-3.59.13a50.58,50.58,0,0,0-.13-9.29c-.06-.61-.13-1.24-.22-1.91a33.74,33.74,0,0,0-2.26-9.1c-.43-1.06-.57-1.24-1.23-2.84a74.16,74.16,0,0,1-2.57-7.43c-.25-.89-.78-2.88-1.42-6.43-.23-1.23-.48-2.66-.72-4.29-.7-4.75-1.06-8.59-1.31-11.87-.42-5.35-.93-11.72-1-18.9a175,175,0,0,1,3.71-36.54c1.68-8.88,3.13-13.61,6.93-18.07a27.43,27.43,0,0,1,4.29-4c-.9.05-1.78.1-2.68.2-1.07.55-2.51,1.23-3.67,1.85-4.56,2.46-7.28,5.62-9.9,8.67-5.39,6.25-7.62,13-9.49,18.72A95.36,95.36,0,0,0,103.45,56a106.49,106.49,0,0,0,2.31,28.63s.21.92.66,2.48a94,94,0,0,0,4.69,12.69,28.28,28.28,0,0,0,2.65,4.71c1.22,1.68,1.88,2.12,3,3.71a26.17,26.17,0,0,1,2.89,5.19c.65,1.4,1.37,3,2,4.76a35,35,0,0,1,1.6,5.89,37,37,0,0,1,.57,6.43h-5A26.39,26.39,0,0,0,114.87,116c-.74-1.18-1.45-2.15-2-2.89s-1.53-1.8-3.62-4.14c-3-3.35-5.28-5.73-5.61-6.1-4.61-4.93-7.25-13.32-8.42-17-.32-1-.73-2.4-1.19-4.19a88.35,88.35,0,0,1-2.62-21.59c0-.4,0-.79,0-1.19.11-8.22.26-19.11,6.11-31.35a61.42,61.42,0,0,1,13.28-18,50.91,50.91,0,0,1,11.93-7.94A60.05,60.05,0,0,0,76.6,60a60,60,0,0,0,15.58,40.33,60.55,60.55,0,0,0,10.39,9.1,47.31,47.31,0,0,1,6.49,9,33.43,33.43,0,0,1,4.62,13,32.93,32.93,0,0,1,.19,3.87,29.72,29.72,0,0,1-.63,5.5h-.72l6.11,19.93h.06v7.16h.76l3.14,18.56h28.06l3.14-18.56h.77v-7.16h.05l6.11-19.93H160a30.82,30.82,0,0,1-.61-5.5,29.11,29.11,0,0,1,.19-3.87,33,33,0,0,1,4.62-13,46,46,0,0,1,6.48-9,60.55,60.55,0,0,0,10.39-9.1,59.82,59.82,0,0,0,15-31.86A60.14,60.14,0,0,0,150.53,1.62ZM143.47,142h6.8l-.11,1c-.57,5.54-1.17,11.1-1.76,16.64h-5.49Zm-6.27,0h5.12l-.56,17.63H137.2Zm-1.15,0v17.63h-4.56L130.91,142Zm-6.29,0,.57,17.63h-5.49q-.95-8.81-1.87-17.63Zm-15.68,0h7.73c.62,5.89,1.25,11.75,1.87,17.63h-4.2Zm35.59,43.35h-26.1l-2.86-16.83h31.81Zm4.09-25.72h-4.21c.59-5.5,1.18-11,1.76-16.52l.12-1.11h7.72Z"/><path class="cls-1" d="M141.75,159.63h0l.56-17.63Z"/><path class="cls-2" d="M227.71,71a1.49,1.49,0,0,1,.74-2,12.08,12.08,0,0,0-.11-22,1.51,1.51,0,0,1-.89-1.38,1.49,1.49,0,0,1,2.11-1.36,15.08,15.08,0,0,1,.13,27.5A1.48,1.48,0,0,1,227.71,71Z"/><path class="cls-2" d="M232.39,81.28a1.51,1.51,0,0,1,.74-2,23.42,23.42,0,0,0-.21-42.69,1.52,1.52,0,0,1-.89-1.37,1.63,1.63,0,0,1,.13-.61,1.51,1.51,0,0,1,2-.76A26.42,26.42,0,0,1,234.38,82,1.51,1.51,0,0,1,232.39,81.28Z"/><path class="cls-2" d="M237.57,90a1.51,1.51,0,0,1,.74-2A33,33,0,0,0,238,27.86a1.5,1.5,0,0,1-.75-2,1.51,1.51,0,0,1,2-.76,36,36,0,0,1,.31,65.63A1.49,1.49,0,0,1,237.57,90Z"/><path class="cls-2" d="M242.26,100.34a1.49,1.49,0,0,1,.74-2,44.34,44.34,0,0,0-.39-80.81,1.5,1.5,0,0,1-.89-1.37,1.46,1.46,0,0,1,.13-.61,1.49,1.49,0,0,1,2-.76,47.33,47.33,0,0,1,.41,86.28A1.5,1.5,0,0,1,242.26,100.34Z"/><path class="cls-2" d="M228.94,58.42a5.47,5.47,0,1,0-5.47,5.47A5.48,5.48,0,0,0,228.94,58.42Zm-7.94,0a2.47,2.47,0,1,1,2.47,2.47A2.48,2.48,0,0,1,221,58.42Z"/><path class="cls-2" d="M44.18,44.94a1.49,1.49,0,0,1-.74,2,12.08,12.08,0,0,0,.11,22,1.51,1.51,0,0,1,.89,1.38,1.49,1.49,0,0,1-2.11,1.36,15.08,15.08,0,0,1-.13-27.5A1.48,1.48,0,0,1,44.18,44.94Z"/><path class="cls-2" d="M39.5,34.61a1.51,1.51,0,0,1-.74,2A23.42,23.42,0,0,0,39,79.29a1.52,1.52,0,0,1,.89,1.37,1.63,1.63,0,0,1-.13.61,1.51,1.51,0,0,1-2,.76,26.42,26.42,0,0,1-.23-48.16A1.51,1.51,0,0,1,39.5,34.61Z"/><path class="cls-2" d="M34.32,25.88a1.51,1.51,0,0,1-.74,2A33,33,0,0,0,33.87,88a1.5,1.5,0,0,1,.75,2,1.51,1.51,0,0,1-2,.76,36,36,0,0,1-.31-65.63A1.49,1.49,0,0,1,34.32,25.88Z"/><path class="cls-2" d="M29.63,15.55a1.49,1.49,0,0,1-.74,2,44.34,44.34,0,0,0,.39,80.81,1.5,1.5,0,0,1,.89,1.37,1.46,1.46,0,0,1-.13.61,1.49,1.49,0,0,1-2,.76,47.33,47.33,0,0,1-.41-86.28A1.5,1.5,0,0,1,29.63,15.55Z"/><path class="cls-2" d="M43,57.47A5.47,5.47,0,1,0,48.42,52,5.48,5.48,0,0,0,43,57.47Zm7.94,0A2.47,2.47,0,1,1,48.42,55,2.48,2.48,0,0,1,50.89,57.47Z"/></g></g></svg>