<svg xmlns="http://www.w3.org/2000/svg" width="151.378" height="134.23" viewBox="0 0 151.378 134.23"><path d="M151.561,131.7a194.207,194.207,0,0,1-31.294-31.294A194.265,194.265,0,0,1,90.743,48.335a1.437,1.437,0,0,0-2.174-.663A35.929,35.929,0,0,1,77.423,53V28.7L118.66,14.859,74.407,0V29.718h0V53.7a36.474,36.474,0,0,1-13.178.043,1.437,1.437,0,0,0-1.538.766,260.6,260.6,0,0,1-30.812,47.429,260.375,260.375,0,0,1-27.755,29.04,1.437,1.437,0,0,0,1.916,2.138A263.326,263.326,0,0,0,31.1,103.76q6.461-7.9,12.305-16.318-.069,1.409-.037,2.56a12.736,12.736,0,0,0,.417,3.209,3.217,3.217,0,0,0,1.923,2.352,2.431,2.431,0,0,0,.8.136,4.265,4.265,0,0,0,2.729-1.381A29.255,29.255,0,0,0,51.8,91.3a29.22,29.22,0,0,1,2.652-3.113c.995-.933,1.374-.858,1.39-.854.1.024.354.224.637.82a12.274,12.274,0,0,1,.835,3.034,84.519,84.519,0,0,1,.779,9.283c.135,2.735.262,5.318.553,7.31a11.848,11.848,0,0,0,.64,2.678,2.728,2.728,0,0,0,1.967,1.879,2.2,2.2,0,0,0,.4.036,3.3,3.3,0,0,0,2.476-1.5,18.283,18.283,0,0,0,1.915-3.179c1.265-2.524,2.622-5.883,4.06-9.44,1.46-3.614,2.971-7.349,4.4-10.22a23.887,23.887,0,0,1,2-3.421,3.891,3.891,0,0,1,1.063-1.1,4.049,4.049,0,0,1,.681,1.313A32.918,32.918,0,0,1,79.156,88a28.174,28.174,0,0,0,.988,3.345c.227.564.914,2.28,2.532,2.321h.055c1.669,0,2.416-1.85,2.664-2.462a36.357,36.357,0,0,0,1.191-3.923,38.844,38.844,0,0,1,1.768-5.536c.675-1.511,1.413-2.411,2.133-2.6.585-.154,1.572.488,2.708,1.763a47.564,47.564,0,0,1,3.97,5.593,48.508,48.508,0,0,0,3.027,4.375,7.71,7.71,0,0,0,1.567,1.506,2.612,2.612,0,0,0,2.316.442,2.95,2.95,0,0,0,1.841-2.059,10.973,10.973,0,0,0,.473-2.818c.036-.6.052-1.257.046-1.98A196.2,196.2,0,0,0,118.021,102.2a197.084,197.084,0,0,0,31.758,31.758,1.437,1.437,0,0,0,1.785-2.248ZM103.548,87.137a9.512,9.512,0,0,1-.362,2.726,8.068,8.068,0,0,1-1.155-1.292c-.749-.981-1.577-2.268-2.454-3.631a49.229,49.229,0,0,0-4.242-5.95,10.181,10.181,0,0,0-2.457-2.11,4.082,4.082,0,0,0-3.125-.518c-1.636.431-2.952,1.807-4.024,4.206a40.894,40.894,0,0,0-1.92,5.968c-.3,1.129-.585,2.195-.873,3.032-.071.2-.135.38-.2.528-.035-.094-.071-.2-.111-.313-.238-.708-.459-1.576-.692-2.495a29.815,29.815,0,0,0-1.166-3.872c-.255-.617-1.031-2.493-2.742-2.775-1.127-.185-2.258.372-3.359,1.658a20.338,20.338,0,0,0-2.431,3.849c-1.578,3.051-3.217,7.107-4.8,11.029-1.271,3.146-2.472,6.118-3.587,8.454a25.388,25.388,0,0,1-1.527,2.829,7.593,7.593,0,0,1-.471.654,13.842,13.842,0,0,1-.46-2.48c-.2-1.768-.314-3.973-.429-6.309A86.638,86.638,0,0,0,60.15,90.7a14.826,14.826,0,0,0-1.072-3.782A3.933,3.933,0,0,0,56.5,84.536c-1.879-.438-3.481,1.063-4.005,1.556a30.622,30.622,0,0,0-2.956,3.442c-.7.894-1.355,1.739-1.962,2.382a5.088,5.088,0,0,1-.918.813,8.867,8.867,0,0,1-.427-3.381,56.914,56.914,0,0,1,.506-6.819A263.867,263.867,0,0,0,61.777,56.749a39.378,39.378,0,0,0,5.873.453,38.785,38.785,0,0,0,21.057-6.158,198.054,198.054,0,0,0,14.542,29.771h0A52.121,52.121,0,0,1,103.548,87.137Z" transform="translate(-0.684)" fill="#e74c3c"/></svg>