<svg xmlns="http://www.w3.org/2000/svg" width="145.325" height="171" viewBox="0 0 145.325 171"><g transform="translate(0)"><path d="M506.927,33a40.42,40.42,0,0,0-6-16,61.993,61.993,0,0,0-9-9c-2.611-2.219-5.122-4.749-8-6a27.44,27.44,0,0,0-11-2h0a27.67,27.67,0,0,0-11,2,31.2,31.2,0,0,0-8,5c-3.044,2.558-5.662,6.477-8,10h0a36.7,36.7,0,0,0-6,15h-7V49h3a30.534,30.534,0,0,0,4,10,31.081,31.081,0,0,0,4,5c1.521,3.8,2.963,7.809,5,11a37.946,37.946,0,0,0,10,11,25,25,0,0,0,14,5h0c4.66,0,9.672-1.969,14-5,3.911-2.741,6.819-6.124,10-11a63.082,63.082,0,0,0,7-15,61.621,61.621,0,0,0,3-16c.024-.551,1-1.868,1-3A48.454,48.454,0,0,0,506.927,33Zm-69,15h2a69.413,69.413,0,0,0,2,9C440.426,54.284,438.537,51.043,437.927,48Zm67-4c-.425,9.9-4.35,20.339-10,29-6.252,9.579-14.011,15-22,15h0c-7.9-.05-15.855-5.371-22-15a47.192,47.192,0,0,1-3-5,35.257,35.257,0,0,0,13,6c.165,1.407,1.6,1.757,3,2l6,1c.171.029-.173,1,0,1a3.345,3.345,0,0,0,3-3c.282-1.789-.3-3.7-2-4l-6-1c-.171-.029-.827,0-1,0-1.053.011-2.441.107-3,1a28.238,28.238,0,0,1-15-8,61.454,61.454,0,0,1-4-19c-.187-3.736-.935-15.551,6-26h0c3.085-4.649,11.509-15,25-15h0c12.979.044,21.106,10.106,25,16A41.2,41.2,0,0,1,504.927,44Z" transform="translate(-400.764 0)" fill="#3498db"/><path d="M905.176,1330.047c-2.165,2.8-3.835,6.192-6,9l-7-9c.979-19.844,2.02-39.157,3-59h0l-3-2,3-8h8l2,8-3,2C903.262,1290.935,904.091,1310.159,905.176,1330.047Z" transform="translate(-826.013 -1168.047)" fill="#3498db"/><path d="M692.487,1177.7l-12-5a1.253,1.253,0,0,0-1,0c-.3.145-.913-.322-1,0l-2,9a1.458,1.458,0,0,0,0,1l9,15c.206.353.591,0,1,0,.036,0-.036.005,0,0,.446-.043.852-.577,1-1l6-18C693.686,1178.126,693.041,1177.936,692.487,1177.7Zm-6,17-8-13,2-7,11,4Z" transform="translate(-626.324 -1085.696)" fill="#3498db"/><path d="M1071.282,1181.693l-2-9c-.087-.323-.7.145-1,0a1.252,1.252,0,0,0-1,0l-13,5c-.555.24-.2.43,0,1l6,18c.148.423.554.958,1,1h0c.409,0,.793.353,1,0l9-15A1.467,1.467,0,0,0,1071.282,1181.693Zm-10,13-5-16,11-4,2,7Z" transform="translate(-976.119 -1085.693)" fill="#3498db"/><path d="M48,1289.587c-.229.361-.582.909-1,1-16.076,3.548-30.48,10.607-44,20-.731.507-2.493-.269-3-1s.269-1.493,1-2a129.438,129.438,0,0,1,46-20c.636-.141.627.466,1,1S48.354,1289.038,48,1289.587Z" transform="translate(0.159 -1192.587)" fill="#3498db"/><path d="M1353.858,1309.576c-.507.731-2.269,1.508-3,1-13.52-9.393-27.924-16.452-44-20-.636-.141-1.887-.359-2-1a2.441,2.441,0,0,1,1-2c.359-.231.583-.094,1,0a129.431,129.431,0,0,1,46,20C1353.589,1308.083,1354.365,1308.845,1353.858,1309.576Z" transform="translate(-1208.695 -1192.576)" fill="#3498db"/></g></svg>