<svg xmlns="http://www.w3.org/2000/svg" width="157.984" height="136.057" viewBox="0 0 157.984 136.057"><g transform="translate(0)"><path d="M157.661,1286.508a1.666,1.666,0,0,1-2.324.384,139.752,139.752,0,0,0-51.392-22.876,37.005,37.005,0,0,1-7.446,5.554,35.024,35.024,0,0,1-17.472,4.675H78.7a35.027,35.027,0,0,1-17.442-4.834,37.12,37.12,0,0,1-7.17-5.408,139.765,139.765,0,0,0-51.467,22.888,1.666,1.666,0,1,1-1.941-2.708,143.078,143.078,0,0,1,53.5-23.608,1.664,1.664,0,0,1,.967.082,1.641,1.641,0,0,1,.741.443,33.046,33.046,0,0,0,22.834,9.814h.291A33.031,33.031,0,0,0,102,1261.25a1.649,1.649,0,0,1,.174-.156h0a1.665,1.665,0,0,1,1.591-.521,143.091,143.091,0,0,1,53.5,23.612A1.666,1.666,0,0,1,157.661,1286.508Z" transform="translate(0.016 -1151.147)" fill="#1abc9c"/><path d="M420.99,58.4a1.08,1.08,0,0,0-.312-.55.774.774,0,0,0-.347-.159c-1.008-.2-1.552-.31-1.961.033-.223.187-.281.4-.456.392-.227-.012-.376-.388-.4-.441-.1-.215-.528-.455-1.529-.714v-.4c0-.058.009-1.456-.036-2.826a62.818,62.818,0,0,0-2.9-16.89,64.762,64.762,0,0,0-5.558-12.65,53.35,53.35,0,0,0-7.92-10.8,51.26,51.26,0,0,0-9.9-7.8,37.99,37.99,0,0,0-39.164-.367,47.812,47.812,0,0,0-9.822,7.469c-13.631,13.307-15.146,31.556-15.793,39.346q-.2,2.458-.244,4.936c-.955.252-1.364.485-1.459.694-.023.053-.174.429-.4.441-.174.01-.233-.206-.457-.392-.409-.347-.955-.234-1.961-.033a.774.774,0,0,0-.347.159,1.075,1.075,0,0,0-.312.55,29.222,29.222,0,0,0-.46,9.684s.9,6.372,3.5,10.117a.938.938,0,0,0,.426.347.8.8,0,0,0,.488-.01c.929-.26,1.016-.039,1.377-.291.406-.283.38-.626.688-.686.34-.068.661.3.731.364.423.423,2.07.489,7.454-1.084,0-.061-.009-.122-.014-.182a75.212,75.212,0,0,0,8.056,17.814,47.888,47.888,0,0,0,12.069,13.419,27.075,27.075,0,0,0,15.62,5.558h.4a27.367,27.367,0,0,0,15.563-5.14,47.808,47.808,0,0,0,12.64-13.317A72.612,72.612,0,0,0,406.8,76.833a.017.017,0,0,0,0,.007c5.38,1.572,7.029,1.506,7.453,1.084.069-.069.391-.434.732-.364.308.061.281.4.687.686.36.252.45.028,1.378.291a.791.791,0,0,0,.487.01.938.938,0,0,0,.427-.347c2.6-3.744,3.5-10.117,3.5-10.117A29.32,29.32,0,0,0,420.99,58.4Zm-25.3,34.68c-7.277,11.005-16.374,17.044-25.652,17.044h-.347c-9.206-.15-18.132-6.365-25.133-17.5A72.809,72.809,0,0,1,333.8,58.288c-.288-7.386.44-25.9,13.391-38.264,6.933-6.621,14.522-9.979,22.562-9.979h.011c12.328,0,20.618,8.111,23.343,10.775C406.339,33.763,407,52.485,406.89,57.915A69.134,69.134,0,0,1,395.687,93.084ZM410.02,56.01a64.042,64.042,0,0,0-1.783-13.878,54.6,54.6,0,0,0-4.4-11.975,45.282,45.282,0,0,0-8.616-11.787c-2.95-2.88-11.912-11.646-25.456-11.653h-.013a32.46,32.46,0,0,0-16.188,4.426A43.618,43.618,0,0,0,336.283,29.7a53.552,53.552,0,0,0-4.252,12.5,65.2,65.2,0,0,0-1.4,13.822q-1.028.12-1.887.235.052-1.916.211-3.818c.607-7.289,2.022-24.363,14.492-36.533C351.2,8.316,360.311,4.318,369.8,4.318h.347c14.3.148,23.609,9.271,26.666,12.268a50.3,50.3,0,0,1,7.278,10.006,59.416,59.416,0,0,1,7.786,27.3c.031.921.036,1.883.036,2.352q-.862-.114-1.893-.233Z" transform="translate(-291.357 0.023)" fill="#1abc9c"/><path d="M581.681,587.1c-.2-.029-.4-.052-.594-.069a17.156,17.156,0,0,1-5.82-1.562,21.224,21.224,0,0,0-6.646-1.781c-.614-.069-1.23-.119-1.845-.178h-2.53c-.648.061-1.3.109-1.945.186a19.75,19.75,0,0,0-7.294,2.152c-.481.26-.941.563-1.44.8a3.224,3.224,0,0,1-2.5.188,3.546,3.546,0,0,0-1.07-.187,13.1,13.1,0,0,0-4.377.292,2.45,2.45,0,0,1-1.594-.109,6.125,6.125,0,0,1-1.207-.555,17.641,17.641,0,0,0-6.737-2.392c-.955-.154-1.932-.217-2.9-.322-.108-.012-.216-.033-.325-.049h-2.593c-.129.019-.26.043-.388.056-.725.075-1.456.126-2.177.225a21.286,21.286,0,0,0-6.125,1.795,17.87,17.87,0,0,1-6.074,1.507,1.342,1.342,0,0,0-1.312,1.455,1.437,1.437,0,0,0,1.573,1.166c.232-.009.465-.034.694-.023.694.029.98.333.971.955-.011.764-.036,1.529.009,2.291a16.791,16.791,0,0,0,1.794,6.856,11.85,11.85,0,0,0,7.976,6.268,17.991,17.991,0,0,0,8.8,0,11.889,11.889,0,0,0,6.6-4.132,13.773,13.773,0,0,0,2.145-3.847.521.521,0,0,1,.268-.288,1.427,1.427,0,0,0,1.018-1.183q.328-2.033.684-4.061a1.3,1.3,0,0,0-.727-1.475.379.379,0,0,1-.174-.249,1.351,1.351,0,0,1,1.374-1.526,20.935,20.935,0,0,1,2.721,0,1.369,1.369,0,0,1,1.388,1.464.375.375,0,0,1-.232.347,1.2,1.2,0,0,0-.694,1.315c.229,1.434.473,2.864.723,4.3a1.357,1.357,0,0,0,.961,1.056.577.577,0,0,1,.291.27c.325.684.584,1.4.955,2.06a11.8,11.8,0,0,0,7.767,5.94,18.084,18.084,0,0,0,8.542.08,11.95,11.95,0,0,0,6.98-4.325,13.816,13.816,0,0,0,2.419-4.9,18.882,18.882,0,0,0,.679-6.228c-.041-.678.272-.973,1.028-.993.233-.005.464.023.694.028a1.414,1.414,0,0,0,1.513-1.194A1.343,1.343,0,0,0,581.681,587.1Zm-40.513,11.843c-1.689,3.094-4.512,4.686-8.312,4.956a14.583,14.583,0,0,1-5.315-.5,9.013,9.013,0,0,1-5.6-4.663,15.719,15.719,0,0,1-1.6-7.567,2.862,2.862,0,0,1,1.128-2.231,10.82,10.82,0,0,1,4.207-2.022,22.955,22.955,0,0,1,6.113-.757,20.455,20.455,0,0,1,7.636,1.4,8.448,8.448,0,0,1,2.294,1.351,2.9,2.9,0,0,1,1.149,2.192A15.313,15.313,0,0,1,541.167,598.943Zm33.986-.174c-1.673,3.193-4.523,4.859-8.417,5.133a14.792,14.792,0,0,1-5.126-.452,9.076,9.076,0,0,1-5.871-4.887,14.729,14.729,0,0,1-1.469-5.859c-.034-.583,0-1.17-.012-1.755a2.293,2.293,0,0,1,.71-1.626,8.533,8.533,0,0,1,3.519-2.067,21.627,21.627,0,0,1,7.116-1.1,20.543,20.543,0,0,1,7.734,1.41A8.355,8.355,0,0,1,575.722,589a2.824,2.824,0,0,1,1.049,2.142,15.623,15.623,0,0,1-1.618,7.619Z" transform="translate(-469.562 -532.872)" fill="#1abc9c"/></g></svg>