<svg xmlns="http://www.w3.org/2000/svg" width="118.347" height="122" viewBox="0 0 118.347 122"><g transform="translate(0)"><path d="M652.679,393.775h-9l-1,4a19.013,19.013,0,0,1,2,0c2.167,0,4.39-.154,6,1,1.715,1.155,2,3.34,2,6,0,4.234-2.876,8-9,8-2.765,0-5.74-.335-7-1l1-4a12.517,12.517,0,0,0,5,1c2.2,0,5-1.587,5-4,0-2.345-1.451-3-6-3a18.655,18.655,0,0,0-3,0l1-12h13Z" transform="translate(-596.651 -364.775)" fill="#8e44ad"/><path d="M952.038,454.435v8h7v3h-7v8h-4v-8h-7v-3h7v-8Z" transform="translate(-881.01 -425.435)" fill="#8e44ad"/><path d="M118.207,26c-.47-5.082-4.455-11.939-11-13-4.066-.66-7.918,1.1-11,4V6a5.849,5.849,0,0,0-6-6h-62a5.851,5.851,0,0,0-6,6V17c-3.086-2.915-6.92-4.662-11-4C4.664,14.061.676,20.918.207,26a11.638,11.638,0,0,0,1,5c.569,1.633.849,3.45,2,5a19.268,19.268,0,0,0,8,6c.243.11.661.855,1,1,2.072.885,6.617,2.554,9,5a2.5,2.5,0,0,1,0,4,1.715,1.715,0,0,1-2,0,2.824,2.824,0,0,1-1-2h-3a5.018,5.018,0,0,0,2,4,6.459,6.459,0,0,0,3,1c.874.006,1.275-.512,2-1,.5-.338,1.694-.483,2-1a36.889,36.889,0,0,0,33,27v23h-20v19h44V103h-19V80a36.957,36.957,0,0,0,33-27,2.676,2.676,0,0,0,1,1c.725.489,1.125,1.007,2,1a6.457,6.457,0,0,0,3-1,5.021,5.021,0,0,0,2-4h-2a2.815,2.815,0,0,1-1,2,3.653,3.653,0,0,1-3,0c-.811-.555-.01-1.776,0-2a2.813,2.813,0,0,1,1-2,25.633,25.633,0,0,1,8-5c.339-.145.757-.89,1-1a19.256,19.256,0,0,0,8-6,21.023,21.023,0,0,0,3-5C118.836,29.194,118.365,27.71,118.207,26Zm-96,20a30.808,30.808,0,0,0-9-6c-.326-.14-.779.1-1,0a18.774,18.774,0,0,1-7-6c-2.054-2.769-3.242-5.386-3-8,.388-4.187,3.912-9.175,9-10a11.255,11.255,0,0,1,11,5V43c0,1.046-.085,1.968,0,3Zm56,60v13h-38V106Zm15-63a34.915,34.915,0,0,1-21,32c-4.225,1.789-8.412,2.005-13,2a33.8,33.8,0,0,1-34-34V6c0-2.034.966-3,3-3h62c2.036,0,3,.964,3,3Zm20-9a18.751,18.751,0,0,1-7,6c-.219.1-.672-.14-1,0a30.961,30.961,0,0,0-9,6c.085-1.025,0-1.961,0-3V21a11.3,11.3,0,0,1,11-5c5.088.825,8.612,5.813,9,10C116.45,28.61,115.261,31.23,113.207,34Z" transform="translate(-0.178)" fill="#8e44ad"/></g></svg>