<svg xmlns="http://www.w3.org/2000/svg" width="145" height="142" viewBox="0 0 145 142"><g transform="translate(0 0)"><path d="M351.548,208.793c-.077-.238-.752.035-1,0l-4-1-2-3c-.111-.224.25-1,0-1s-.889.776-1,1l-2,3-4,1c-.247.037.077-.238,0,0s-.179.825,0,1l3,3-1,4c-.032.191-.125.852,0,1s.807,0,1,0c.107,0-.094.051,0,0l4-2,4,2c.222.116-.2.147,0,0s1.042-.753,1-1l-1-4,3-3C351.727,209.62,351.625,209.03,351.548,208.793Zm-4,3c-.154.151-1.037.787-1,1l1,3-3-1c-.191-.1.191-.1,0,0l-3,1v-3c.037-.213.155-.849,0-1l-2-2h3c.214-.032-.1-.806,0-1l2-3,1,3a3.448,3.448,0,0,0,1,1h3Z" transform="translate(-310.081 -187.693)" fill="#34495e"/><path d="M526.539,65.219c-.077-.238-.752.035-1,0l-4-1-2-4c-.111-.224.25,0,0,0s-.889-.224-1,0l-2,4-4,1c-.248.036.077-.238,0,0s-.18.826,0,1l3,3-1,4c-.032.191-.125-.148,0,0s.807,1,1,1c.107,0-.094-.949,0-1l4-2,3,2a1.311,1.311,0,0,0,1,0c.2-.147.043.247,0,0v-4l3-3C526.717,66.046,526.616,65.457,526.539,65.219Zm-7,5a1.7,1.7,0,0,0-1,0l-2,2v-4c.036-.213.155.151,0,0l-2-2,3-1c.214-.032-.1.194,0,0l2-3,1,3c.1.194.786-.031,1,0l3,1-2,2c-.155.151-1.037-.213-1,0l1,4Z" transform="translate(-471.06 -55.12)" fill="#34495e"/><path d="M819.4,4.984c-.077-.238.248.035,0,0l-5-1-1-4c-.111-.224-.75,0-1,0s-.889-.224-1,0l-1,4-5,1c-.248.036.077-.238,0,0s-.18.826,0,1l3,3-1,4c-.032.191-.125.852,0,1s.807,0,1,0c.107,0-.094.051,0,0l4-2,4,2c.221.117-.2.147,0,0s1.043-.753,1-1l-1-4,3-3C819.577,5.811,819.476,5.221,819.4,4.984Zm-7,5c-.192-.1.191-.1,0,0l-3,2v-3c.036-.213.155-.849,0-1l-2-2,3-1c.214-.032.9.194,1,0l1-3,1,3c.094.195.786-.033,1,0l3,1-2,2c-.155.151-.037.787,0,1v3Z" transform="translate(-740.899 0.115)" fill="#34495e"/><path d="M1324.047,208.793c-.077-.238.248.035,0,0l-4-1-2-3c-.111-.224-.75-1-1-1s-.889.776-1,1l-1,3-5,1c-.247.037.077-.238,0,0s-.179.825,0,1l3,3-1,4c-.032.191.875.852,1,1s-.193,0,0,0c.107,0-.094.051,0,0l4-2,4,2a1.315,1.315,0,0,0,1,0c.2-.147.042-.753,0-1l-1-4,3-3C1324.223,209.619,1324.123,209.028,1324.047,208.793Zm-4,3c-.155.151-.037.787,0,1v3l-3-1c-.192-.1.192-.1,0,0l-3,1v-3c.037-.213.155-.849,0-1l-2-2h3c.214-.032.9-.806,1-1l1-3,2,3c.1.194-.214.969,0,1h3Z" transform="translate(-1205.513 -187.693)" fill="#34495e"/><path d="M1123.5,65.219c-.077-.238.248.035,0,0l-4-1-2-4c-.111-.224-.75,0-1,0s.111-.224,0,0l-2,4-4,1c-.248.036-.923-.238-1,0s-.18.826,0,1l3,3-1,4c-.032.191.875-.148,1,0s-.194,1,0,1c.107,0-.094-.949,0-1l4-2,4,2a1.315,1.315,0,0,0,1,0c.2-.147.042.247,0,0l-1-4,3-3C1123.68,66.045,1123.581,65.455,1123.5,65.219Zm-7,5c-.192-.1.191-.1,0,0l-3,2,1-4c.036-.213-.845.151-1,0l-2-2,3-1c.214-.032.9.194,1,0l1-3,2,3c.1.194-.214-.031,0,0l3,1-2,2c-.155.151-.037-.213,0,0v4Z" transform="translate(-1020.985 -55.12)" fill="#34495e"/><path d="M496.741,333.293h0a26.789,26.789,0,0,1-15-5c-3.987-2.957-6.8-6.808-10-12a70.783,70.783,0,0,1-10-33,62.348,62.348,0,0,1,1-15,46.456,46.456,0,0,1,4-11c2.055-4.264,3.8-7.886,7-11a44.482,44.482,0,0,1,8-6,30.353,30.353,0,0,1,15-4h0c12.159.006,19.355,7.364,22,10a43.4,43.4,0,0,1,8,11,51.125,51.125,0,0,1,4,11,68.653,68.653,0,0,1,2,15c-.23,11.364-4.613,24.154-11,34-3.366,5.188-6.836,9.105-11,12A23.5,23.5,0,0,1,496.741,333.293Zm0-94a30.233,30.233,0,0,0-21,9c-11.629,11.314-12.259,28.241-12,35,.4,10.527,4.357,21.851,10,31,6.286,10.191,14.733,15.863,23,16h0c8.329,0,16.465-4.929,23-15a63.419,63.419,0,0,0,10-32h0c.1-4.97-.119-22.157-12-34-2.446-2.438-9.933-10-21-10Z" transform="translate(-424.24 -217.194)" fill="#34495e"/><path d="M144.228,1498.762c-.235.329-.6.934-1,1s-.672-.764-1-1a128.069,128.069,0,0,0-47.037-21,34.928,34.928,0,0,1-7.005,5c-5.007,2.84-10.4,5-16.013,5h0c-5.62-.051-11.031-2.116-16.013-5a37.236,37.236,0,0,1-7.005-5,127.722,127.722,0,0,0-47.037,21c-.685.49-1.512.685-2,0s-.685-1.511,0-2a132.032,132.032,0,0,1,49.038-22,1.932,1.932,0,0,1,1,0h0c.259.073.815.806,1,1a30.607,30.607,0,0,0,21.016,9h0a30.112,30.112,0,0,0,21.016-9c.049-.051-.056.044,0,0h0c.364-.409,1.466-1.115,2-1a132.064,132.064,0,0,1,49.038,22C144.914,1497.25,144.716,1498.076,144.228,1498.762Z" transform="translate(0.329 -1357.766)" fill="#34495e"/></g></svg>