<svg xmlns="http://www.w3.org/2000/svg" width="297" height="159.202" viewBox="0 0 297 159.202"><g transform="translate(-31.346 -51.829)"><g transform="translate(130.217 94.235)"><path d="M483.47,22.539a27.608,27.608,0,0,0-4.1-10.928,42.341,42.341,0,0,0-6.147-6.147c-1.783-1.516-3.5-3.244-5.464-4.1A18.742,18.742,0,0,0,460.248,0h0a18.9,18.9,0,0,0-7.513,1.366,21.307,21.307,0,0,0-5.464,3.415,32.48,32.48,0,0,0-5.464,6.83h0a25.065,25.065,0,0,0-4.1,10.245h-4.781V33.468h2.049a20.854,20.854,0,0,0,2.732,6.83,21.226,21.226,0,0,0,2.732,3.415,46.11,46.11,0,0,0,3.415,7.513,25.919,25.919,0,0,0,6.83,7.513,17.076,17.076,0,0,0,9.562,3.415h0a17.32,17.32,0,0,0,9.562-3.415,25.633,25.633,0,0,0,6.83-7.513,43.082,43.082,0,0,0,4.781-10.245,42.088,42.088,0,0,0,2.049-10.928c.016-.377.683-1.276.683-2.049A33.084,33.084,0,0,0,483.47,22.539ZM436.342,32.785h1.366a47.4,47.4,0,0,0,1.366,6.147A23.444,23.444,0,0,1,436.342,32.785ZM482.1,30.053c-.29,6.761-2.971,13.892-6.83,19.807C471,56.4,465.7,60.105,460.248,60.105h0c-5.393-.034-10.829-3.669-15.026-10.245a32.225,32.225,0,0,1-2.049-3.415,24.081,24.081,0,0,0,8.879,4.1c.113.961,1.094,1.2,2.049,1.366l4.1.683c.117.02-.118.683,0,.683a2.285,2.285,0,0,0,2.049-2.049c.193-1.222-.2-2.53-1.366-2.732l-4.1-.683c-.117-.02-.565,0-.683,0-.719.007-1.667.073-2.049.683a19.287,19.287,0,0,1-10.245-5.464,41.972,41.972,0,0,1-2.732-12.977c-.128-2.552-.639-10.621,4.1-17.758h0c2.107-3.175,7.861-10.245,17.075-10.245h0c8.865.03,14.416,6.9,17.075,10.928A28.143,28.143,0,0,1,482.1,30.053Z" transform="translate(-410.959 0)" fill="#f39c12"/><path d="M901.055,1308.175c-1.478,1.915-2.62,4.229-4.1,6.147l-4.781-6.147c.668-13.554,1.38-26.745,2.049-40.3h0l-2.049-1.366,2.049-5.464h5.464l1.366,5.464-2.049,1.366C899.748,1281.461,900.314,1294.591,901.055,1308.175Z" transform="translate(-846.985 -1197.526)" fill="#f39c12"/><path d="M687.386,1176.074l-8.2-3.415a.856.856,0,0,0-.683,0c-.205.1-.624-.22-.683,0l-1.366,6.147a1,1,0,0,0,0,.683l6.147,10.245c.141.241.4,0,.683,0,.025,0-.025,0,0,0,.3-.029.582-.394.683-.683l4.1-12.294C688.205,1176.368,687.765,1176.238,687.386,1176.074Zm-4.1,11.611-5.464-8.879,1.366-4.781,7.513,2.732Z" transform="translate(-642.196 -1113.237)" fill="#f39c12"/><path d="M1065.8,1178.8l-1.366-6.147c-.059-.22-.478.1-.683,0a.856.856,0,0,0-.683,0l-8.879,3.415c-.379.164-.137.293,0,.683l4.1,12.294c.1.289.378.654.683.683h0c.279,0,.542.241.683,0l6.147-10.245A1,1,0,0,0,1065.8,1178.8Zm-6.83,8.879-3.415-10.928,7.513-2.732,1.366,4.781Z" transform="translate(-1000.801 -1113.233)" fill="#f39c12"/><path d="M32.736,1288.947c-.157.246-.4.621-.683.683-10.98,2.424-20.818,7.245-30.053,13.66-.5.346-1.7-.184-2.049-.683s.184-1.02.683-1.366a88.41,88.41,0,0,1,31.419-13.66c.435-.1.428.318.683.683S32.976,1288.572,32.736,1288.947Z" transform="translate(0.159 -1222.694)" fill="#f39c12"/><path d="M1338.321,1302.562c-.346.5-1.55,1.03-2.049.683-9.235-6.416-19.073-11.237-30.053-13.66-.434-.1-1.289-.245-1.366-.683a1.667,1.667,0,0,1,.683-1.366c.245-.158.4-.064.683,0a88.406,88.406,0,0,1,31.419,13.66C1338.137,1301.542,1338.667,1302.063,1338.321,1302.562Z" transform="translate(-1239.172 -1222.649)" fill="#f39c12"/></g><g transform="translate(31.346 51.829)"><path d="M483.47,22.539a27.608,27.608,0,0,0-4.1-10.928,42.341,42.341,0,0,0-6.147-6.147c-1.783-1.516-3.5-3.244-5.464-4.1A18.742,18.742,0,0,0,460.248,0h0a18.9,18.9,0,0,0-7.513,1.366,21.307,21.307,0,0,0-5.464,3.415,32.48,32.48,0,0,0-5.464,6.83h0a25.065,25.065,0,0,0-4.1,10.245h-4.781V33.468h2.049a20.854,20.854,0,0,0,2.732,6.83,21.226,21.226,0,0,0,2.732,3.415,46.11,46.11,0,0,0,3.415,7.513,25.919,25.919,0,0,0,6.83,7.513,17.076,17.076,0,0,0,9.562,3.415h0a17.32,17.32,0,0,0,9.562-3.415,25.633,25.633,0,0,0,6.83-7.513,43.082,43.082,0,0,0,4.781-10.245,42.088,42.088,0,0,0,2.049-10.928c.016-.377.683-1.276.683-2.049A33.084,33.084,0,0,0,483.47,22.539ZM436.342,32.785h1.366a47.4,47.4,0,0,0,1.366,6.147A23.444,23.444,0,0,1,436.342,32.785ZM482.1,30.053c-.29,6.761-2.971,13.892-6.83,19.807C471,56.4,465.7,60.105,460.248,60.105h0c-5.393-.034-10.829-3.669-15.026-10.245a32.225,32.225,0,0,1-2.049-3.415,24.081,24.081,0,0,0,8.879,4.1c.113.961,1.094,1.2,2.049,1.366l4.1.683c.117.02-.118.683,0,.683a2.285,2.285,0,0,0,2.049-2.049c.193-1.222-.2-2.53-1.366-2.732l-4.1-.683c-.117-.02-.565,0-.683,0-.719.007-1.667.073-2.049.683a19.287,19.287,0,0,1-10.245-5.464,41.972,41.972,0,0,1-2.732-12.977c-.128-2.552-.639-10.621,4.1-17.758h0c2.107-3.175,7.861-10.245,17.075-10.245h0c8.865.03,14.416,6.9,17.075,10.928A28.143,28.143,0,0,1,482.1,30.053Z" transform="translate(-410.959 0)" fill="#f39c12"/><path d="M901.055,1308.175c-1.478,1.915-2.62,4.229-4.1,6.147l-4.781-6.147c.668-13.554,1.38-26.745,2.049-40.3h0l-2.049-1.366,2.049-5.464h5.464l1.366,5.464-2.049,1.366C899.748,1281.461,900.314,1294.591,901.055,1308.175Z" transform="translate(-846.985 -1197.526)" fill="#f39c12"/><path d="M687.386,1176.074l-8.2-3.415a.856.856,0,0,0-.683,0c-.205.1-.624-.22-.683,0l-1.366,6.147a1,1,0,0,0,0,.683l6.147,10.245c.141.241.4,0,.683,0,.025,0-.025,0,0,0,.3-.029.582-.394.683-.683l4.1-12.294C688.205,1176.368,687.765,1176.238,687.386,1176.074Zm-4.1,11.611-5.464-8.879,1.366-4.781,7.513,2.732Z" transform="translate(-642.196 -1113.237)" fill="#f39c12"/><path d="M1065.8,1178.8l-1.366-6.147c-.059-.22-.478.1-.683,0a.856.856,0,0,0-.683,0l-8.879,3.415c-.379.164-.137.293,0,.683l4.1,12.294c.1.289.378.654.683.683h0c.279,0,.542.241.683,0l6.147-10.245A1,1,0,0,0,1065.8,1178.8Zm-6.83,8.879-3.415-10.928,7.513-2.732,1.366,4.781Z" transform="translate(-1000.801 -1113.233)" fill="#f39c12"/><path d="M32.736,1288.947c-.157.246-.4.621-.683.683-10.98,2.424-20.818,7.245-30.053,13.66-.5.346-1.7-.184-2.049-.683s.184-1.02.683-1.366a88.41,88.41,0,0,1,31.419-13.66c.435-.1.428.318.683.683S32.976,1288.572,32.736,1288.947Z" transform="translate(0.159 -1222.694)" fill="#f39c12"/><path d="M1338.321,1302.562c-.346.5-1.55,1.03-2.049.683-9.235-6.416-19.073-11.237-30.053-13.66-.434-.1-1.289-.245-1.366-.683a1.667,1.667,0,0,1,.683-1.366c.245-.158.4-.064.683,0a88.406,88.406,0,0,1,31.419,13.66C1338.137,1301.542,1338.667,1302.063,1338.321,1302.562Z" transform="translate(-1239.172 -1222.649)" fill="#f39c12"/></g><g transform="translate(229.087 51.829)"><path d="M483.47,22.539a27.608,27.608,0,0,0-4.1-10.928,42.341,42.341,0,0,0-6.147-6.147c-1.783-1.516-3.5-3.244-5.464-4.1A18.742,18.742,0,0,0,460.248,0h0a18.9,18.9,0,0,0-7.513,1.366,21.307,21.307,0,0,0-5.464,3.415,32.48,32.48,0,0,0-5.464,6.83h0a25.065,25.065,0,0,0-4.1,10.245h-4.781V33.468h2.049a20.854,20.854,0,0,0,2.732,6.83,21.226,21.226,0,0,0,2.732,3.415,46.11,46.11,0,0,0,3.415,7.513,25.919,25.919,0,0,0,6.83,7.513,17.076,17.076,0,0,0,9.562,3.415h0a17.32,17.32,0,0,0,9.562-3.415,25.633,25.633,0,0,0,6.83-7.513,43.082,43.082,0,0,0,4.781-10.245,42.088,42.088,0,0,0,2.049-10.928c.016-.377.683-1.276.683-2.049A33.084,33.084,0,0,0,483.47,22.539ZM436.342,32.785h1.366a47.4,47.4,0,0,0,1.366,6.147A23.444,23.444,0,0,1,436.342,32.785ZM482.1,30.053c-.29,6.761-2.971,13.892-6.83,19.807C471,56.4,465.7,60.105,460.248,60.105h0c-5.393-.034-10.829-3.669-15.026-10.245a32.225,32.225,0,0,1-2.049-3.415,24.081,24.081,0,0,0,8.879,4.1c.113.961,1.094,1.2,2.049,1.366l4.1.683c.117.02-.118.683,0,.683a2.285,2.285,0,0,0,2.049-2.049c.193-1.222-.2-2.53-1.366-2.732l-4.1-.683c-.117-.02-.565,0-.683,0-.719.007-1.667.073-2.049.683a19.287,19.287,0,0,1-10.245-5.464,41.972,41.972,0,0,1-2.732-12.977c-.128-2.552-.639-10.621,4.1-17.758h0c2.107-3.175,7.861-10.245,17.075-10.245h0c8.865.03,14.416,6.9,17.075,10.928A28.143,28.143,0,0,1,482.1,30.053Z" transform="translate(-410.959 0)" fill="#f39c12"/><path d="M901.055,1308.175c-1.478,1.915-2.62,4.229-4.1,6.147l-4.781-6.147c.668-13.554,1.38-26.745,2.049-40.3h0l-2.049-1.366,2.049-5.464h5.464l1.366,5.464-2.049,1.366C899.748,1281.461,900.314,1294.591,901.055,1308.175Z" transform="translate(-846.985 -1197.526)" fill="#f39c12"/><path d="M687.386,1176.074l-8.2-3.415a.856.856,0,0,0-.683,0c-.205.1-.624-.22-.683,0l-1.366,6.147a1,1,0,0,0,0,.683l6.147,10.245c.141.241.4,0,.683,0,.025,0-.025,0,0,0,.3-.029.582-.394.683-.683l4.1-12.294C688.205,1176.368,687.765,1176.238,687.386,1176.074Zm-4.1,11.611-5.464-8.879,1.366-4.781,7.513,2.732Z" transform="translate(-642.196 -1113.237)" fill="#f39c12"/><path d="M1065.8,1178.8l-1.366-6.147c-.059-.22-.478.1-.683,0a.856.856,0,0,0-.683,0l-8.879,3.415c-.379.164-.137.293,0,.683l4.1,12.294c.1.289.378.654.683.683h0c.279,0,.542.241.683,0l6.147-10.245A1,1,0,0,0,1065.8,1178.8Zm-6.83,8.879-3.415-10.928,7.513-2.732,1.366,4.781Z" transform="translate(-1000.801 -1113.233)" fill="#f39c12"/><path d="M32.736,1288.947c-.157.246-.4.621-.683.683-10.98,2.424-20.818,7.245-30.053,13.66-.5.346-1.7-.184-2.049-.683s.184-1.02.683-1.366a88.41,88.41,0,0,1,31.419-13.66c.435-.1.428.318.683.683S32.976,1288.572,32.736,1288.947Z" transform="translate(0.159 -1222.694)" fill="#f39c12"/><path d="M1338.321,1302.562c-.346.5-1.55,1.03-2.049.683-9.235-6.416-19.073-11.237-30.053-13.66-.434-.1-1.289-.245-1.366-.683a1.667,1.667,0,0,1,.683-1.366c.245-.158.4-.064.683,0a88.406,88.406,0,0,1,31.419,13.66C1338.137,1301.542,1338.667,1302.063,1338.321,1302.562Z" transform="translate(-1239.172 -1222.649)" fill="#f39c12"/></g></g></svg>