<svg xmlns="http://www.w3.org/2000/svg" viewBox="0 0 924.36 720.53"><defs><style>.cls-1{fill:#fff;}</style></defs><title>brain</title><g id="Layer_2" data-name="Layer 2"><g id="Layer_1-2" data-name="Layer 1"><path class="cls-1" d="M278.82,496.86c-72.1,9.09-154,1.22-212.69-45.75-26.46-21.17-46.8-50.73-52.62-84.49A114.79,114.79,0,0,1,18,311.09C24.08,293,34.94,277,45.87,261.5c22.91-32.44,50.13-64,83.61-85.91,6.43-4.21.43-14.6-6.06-10.36-31.5,20.63-57.87,49.34-80.17,79.43-11.72,15.82-23.52,32.21-31.64,50.22A128.41,128.41,0,0,0,.09,352.47C1.48,389,19.18,423,45,448.36c27.33,26.87,63.08,43.7,99.73,53.61,43.43,11.74,89.68,12.49,134.11,6.89,7.56-.95,7.66-13,0-12Z"/><path class="cls-1" d="M162,240.19c-30.2-8.15-29.65-47.46-24-71.75,6.3-27.1,21.09-51.68,40.65-71.29,20.62-20.69,46.57-35.52,74-45.11,27.69-9.67,59-16.47,88.45-14.25C357,39,372.86,44.12,384,55.91c9.68,10.27,15.09,24.59,10.83,38.45-2.27,7.4,9.31,10.56,11.57,3.19,9.33-30.35-15-58.78-42.6-67.62-16.21-5.19-33.74-5.21-50.51-3.44a292.7,292.7,0,0,0-50,9.62C201.69,53.76,144.8,96.62,127.54,160.71c-8.53,31.7-7.79,80.51,31.25,91,7.46,2,10.65-9.55,3.19-11.57Z"/><path class="cls-1" d="M393.54,49.86A224.67,224.67,0,0,1,512,12.29c40.1-1,86.18,7.78,113.88,39.32,14.12,16.08,22.58,38.3,18.9,59.76-1.3,7.56,10.26,10.8,11.57,3.19,3.63-21.12-1.69-42.51-13.47-60.31-12.34-18.64-30.61-31.95-51.07-40.49C550.23-3.61,501.05-3.36,457.9,8A234.31,234.31,0,0,0,387.49,39.5c-6.4,4.26-.4,14.66,6.05,10.36Z"/><path class="cls-1" d="M642.8,60.19c41.87-2.68,85.62-.09,124.19,17.89,33.74,15.73,63,42.61,74.23,78.9,6.39,20.59,6.74,42.51-.35,63-2.54,7.31,9,10.45,11.57,3.19,13.58-39.12,1.83-82.82-24.19-114-26.38-31.57-65.78-50-105.67-57.33-26.31-4.81-53.14-5.35-79.78-3.64-7.66.49-7.72,12.49,0,12Z"/><path class="cls-1" d="M735.49,255.41c28-13.23,57.56-27.16,89.28-26.23,14,.4,28,3.77,40,11.21s20.59,18.9,26.92,31.35c13.8,27.16,20,59.88,20.66,90.14.67,30.05-5.15,60.35-19.64,86.87S856.14,497,828.32,508.94c-7.07,3-1,13.38,6.06,10.36,57.68-24.84,88.4-86.89,89.91-147.38.83-33.39-5.54-68.35-18.9-99-6-13.89-14.5-27.19-26.33-36.88s-26.38-15.53-41.54-17.7c-38.38-5.5-74.22,10.75-108.08,26.73-7,3.29-.9,13.64,6,10.36Z"/><path class="cls-1" d="M818,429.59c6.82,25.43,14.19,52.57,6.45,78.66a59.71,59.71,0,0,1-17.49,28.14c-7.25,6.4-16.14,10.84-24.93,14.72-17.73,7.83-36.93,13.28-52.31,25.56C710.6,591.9,706,615.58,708,638.88a154.09,154.09,0,0,0,30.11,78.64l5.18-9-80.62,0c-6.34,0-12.69.14-19,0-5.14-.13-10.82-.6-14.23-5-7.25-9.32-1.72-23.62-1.33-34.14,1.67-43.9-34.46-78.6-71-96.44-24.09-11.76-50-18.87-75.81-25.83-7.46-2-10.65,9.56-3.19,11.57,43.6,11.76,93.33,24.59,121.61,62.87A86.12,86.12,0,0,1,613.61,649c3.06,10.77,2.73,21.08,1.26,32.08-1.42,10.7-1.46,22.3,6.1,30.91,7.86,9,20,8.52,30.93,8.52l91.43,0c4.16,0,8-5.25,5.18-9-15.25-20.41-25.54-44.59-28.22-70-1.3-12.37-1.48-25.58,3.19-37.32,3.62-9.13,10.41-16.31,18.52-21.64,16.21-10.64,35.38-15.54,52.67-24.06,19.49-9.61,34.18-24.46,40.86-45.48,9.08-28.57,1.51-58.54-6-86.52-2-7.45-13.58-4.29-11.57,3.19Z"/><path class="cls-1" d="M64.38,323.54C75.54,353.93,104,376.17,136.58,378c33.29,1.86,65.76-17.57,79-48.22a83.87,83.87,0,0,0,4.17-55.36c-2-7.44-13.61-4.28-11.57,3.19,7.53,27.69-2.68,59.2-26.62,75.66-23.1,15.9-53.59,17.15-77.35,2A70.83,70.83,0,0,1,76,320.35c-2.63-7.19-14.24-4.09-11.57,3.19Z"/><path class="cls-1" d="M261.77,226.68c14.82-29.79,33.27-63.58,67.17-74.44,28.1-9,60.57,5.51,71.69,33.22,2.84,7.08,14.45,4,11.57-3.19a72.16,72.16,0,0,0-58.9-44.57c-28.93-3.2-55.91,14.3-73.45,36-11.6,14.32-20.27,30.53-28.44,47-3.43,6.89,6.91,13,10.36,6.06Z"/><path class="cls-1" d="M507.31,100.69c-12.58,37.35-1.73,81.12,28.15,107.19,29.49,25.74,71.24,32.56,107.09,16.78a101.81,101.81,0,0,0,46.67-41.8c3.89-6.69-6.48-12.74-10.36-6.05-17,29.26-50.22,47.12-84.07,44.26s-64.71-26.25-75.71-58.59a91.15,91.15,0,0,1-.2-58.6c2.47-7.33-9.12-10.48-11.57-3.19Z"/><path class="cls-1" d="M569.69,228.06c16.31,4.11,22.75,23.75,19.52,38.78-3.55,16.53-17.15,28-33.65,30.25-7.61,1.05-4.37,12.62,3.19,11.57,21.56-3,39.35-20.27,42.6-41.84,3.11-20.55-6.76-44.87-28.47-50.33-7.49-1.89-10.69,9.68-3.19,11.57Z"/><path class="cls-1" d="M461,316.7c-2.31-31-27.59-56.78-57.67-62.74-32.18-6.38-64.62,7.7-87.4,30.14-25.28,24.9-37.39,59.71-42.62,94.11A426.73,426.73,0,0,0,268.84,432c-.41,16.86.24,33.85,3.53,50.43,3.17,16,9.15,31.75,19.1,44.83s23.57,23.2,38.72,29.86c32.42,14.27,70.16,16.27,104.87,11.26,35.41-5.12,69.19-19.51,96.45-42.82A167.4,167.4,0,0,0,564,488.18c9.6-15.13,15.69-31.79,21.15-48.77,5.59-17.41,11-35.11,21.72-50.19a100.73,100.73,0,0,1,35.7-30.63c27-14.1,70.38-19.28,92.77,6.1a35.47,35.47,0,0,1,9.13,22.07c.28,7.7,12.28,7.74,12,0-1.34-36.47-39.52-52.64-71.36-51.56a114.69,114.69,0,0,0-80.74,38c-11.1,12.52-18.44,27.23-24.11,42.87-6.15,17-10.39,34.79-18.31,51.12-14.1,29.07-37.7,52.77-65.82,68.45-31.61,17.63-68.36,24.59-104.33,22.81-31.69-1.57-66.4-9.88-88-34.88-21.41-24.81-23.77-60.34-23-91.6.84-34.35,4-70.41,18.26-102.12,13-28.87,36.46-53.83,67.62-62.61,29.11-8.21,61.75,2.22,76.5,29.74A49.7,49.7,0,0,1,449,316.7c.57,7.65,12.57,7.72,12,0Z"/><path class="cls-1" d="M578.63,422.89c-8.36,39.65,12.06,80.31,49.52,96.26,31.6,13.46,78.89,6.49,90.46-30.77,5.54-17.82.43-37.93-14.74-49.2-6.2-4.61-12.19,5.8-6,10.36,10,7.44,12.76,21.57,9.91,33.16-3.46,14.09-15.22,23.91-28.67,28.24-29.88,9.62-64-5.32-79.91-31.74a73.94,73.94,0,0,1-8.95-53.12c1.59-7.53-10-10.75-11.57-3.19Z"/><path class="cls-1" d="M353.11,388.28c-1,19.3,3.17,38.56,16.56,53.11,12.05,13.09,28.47,20.42,45.85,22.88,19.54,2.76,39.67,1.76,59-1.86,18.27-3.41,35.76-9.92,48.42-24.14,15-16.88,22.41-41.18,14.41-62.95-2.64-7.19-14.25-4.08-11.57,3.19,6.19,16.85,1.56,35.38-9.52,49.16-10.25,12.73-24.29,18.71-39.86,22.14a175.81,175.81,0,0,1-52.32,3.44c-15-1.26-29.11-5.42-40.75-15.34-14.91-12.71-19.21-30.67-18.26-49.63.39-7.72-11.62-7.7-12,0Z"/></g></g></svg>