<svg xmlns="http://www.w3.org/2000/svg" viewBox="0 0 746 846.06"><defs><style>.cls-1{fill:#E67E22;}</style></defs><title>Buildings</title><g id="Layer_2" data-name="Layer 2"><g id="Layer_1-2" data-name="Layer 1"><path class="cls-1" d="M745.93,733.31a14,14,0,0,0-14-14H717.08l-.11-159a14,14,0,0,0-14-14h-6.35l-.05-81.82a14,14,0,0,0-14-14l-39,0a14,14,0,0,0-14,14l.06,81.82h-6.34a14,14,0,0,0-14,14l.11,159H594.56a14,14,0,0,0-13.2,9.35l-.08-123.87a30,30,0,0,0-30-29.94l-31.71,0-.23-340.07a30,30,0,0,0-30-29.95H475.8l-.12-175A30,30,0,0,0,445.69,0L362.32.05a30,30,0,0,0-29.94,30l.12,175H318.93A30,30,0,0,0,289,235l.23,340.08-31.71,0a30,30,0,0,0-29.95,30l.06,80A19.38,19.38,0,0,0,209,671l-20.47,0-.15-219.53A19.35,19.35,0,0,0,169,432.2h-8.76l-.08-113a19.36,19.36,0,0,0-19.36-19.33l-53.82,0A19.36,19.36,0,0,0,67.66,319.3l.08,113H59a19.34,19.34,0,0,0-19.33,19.35l.15,219.53H19.33A19.36,19.36,0,0,0,0,690.53L.11,846.06H746ZM22.43,703.65a4.39,4.39,0,0,1,4.38-4.38h8.8A4.39,4.39,0,0,1,40,703.64v11.15a4.38,4.38,0,0,1-4.37,4.38H26.82a4.38,4.38,0,0,1-4.38-4.37Zm0,37.47a4.38,4.38,0,0,1,4.38-4.38h8.8A4.39,4.39,0,0,1,40,741.11v11.15a4.38,4.38,0,0,1-4.38,4.37h-8.8a4.38,4.38,0,0,1-4.39-4.38Zm0,37.47a4.38,4.38,0,0,1,4.37-4.38h8.82A4.39,4.39,0,0,1,40,778.58l0,11.14a4.39,4.39,0,0,1-4.38,4.39H26.87a4.38,4.38,0,0,1-4.38-4.37Zm13.22,53H26.9a4.38,4.38,0,0,1-4.38-4.38l0-11.14a4.39,4.39,0,0,1,4.38-4.38h8.81a4.39,4.39,0,0,1,4.38,4.38V827.2A4.38,4.38,0,0,1,35.7,831.57ZM55.06,478.81a4.39,4.39,0,0,1,4.38-4.38h8.81a4.39,4.39,0,0,1,4.38,4.38v11.14a4.39,4.39,0,0,1-4.38,4.38H59.45A4.39,4.39,0,0,1,55.07,490Zm0,37.47a4.38,4.38,0,0,1,4.38-4.38h8.8a4.39,4.39,0,0,1,4.38,4.38v11.14a4.39,4.39,0,0,1-4.38,4.39h-8.8a4.39,4.39,0,0,1-4.38-4.37Zm0,37.46a4.38,4.38,0,0,1,4.37-4.37H68.3a4.39,4.39,0,0,1,4.38,4.38v11.14a4.39,4.39,0,0,1-4.38,4.38h-8.8a4.38,4.38,0,0,1-4.39-4.38Zm0,37.48a4.39,4.39,0,0,1,4.38-4.39h8.8a4.4,4.4,0,0,1,4.39,4.37v11.15a4.39,4.39,0,0,1-4.37,4.39H59.53a4.38,4.38,0,0,1-4.38-4.37Zm0,37.47a4.38,4.38,0,0,1,4.37-4.38h8.81a4.38,4.38,0,0,1,4.38,4.38v11.15a4.39,4.39,0,0,1-4.38,4.37h-8.8a4.38,4.38,0,0,1-4.39-4.38Zm0,37.47a4.39,4.39,0,0,1,4.38-4.39h8.81a4.39,4.39,0,0,1,4.37,4.37v11.15a4.39,4.39,0,0,1-4.37,4.39H59.58a4.38,4.38,0,0,1-4.38-4.37Zm0,37.47a4.38,4.38,0,0,1,4.38-4.38h8.8a4.39,4.39,0,0,1,4.38,4.38v11.15a4.39,4.39,0,0,1-4.38,4.37h-8.8a4.37,4.37,0,0,1-4.38-4.38Zm0,37.47a4.39,4.39,0,0,1,4.38-4.39h8.81a4.39,4.39,0,0,1,4.37,4.37l0,11.15a4.39,4.39,0,0,1-4.38,4.39H59.63a4.38,4.38,0,0,1-4.38-4.37Zm0,37.47a4.39,4.39,0,0,1,4.38-4.38h8.81a4.39,4.39,0,0,1,4.38,4.38v11.15a4.39,4.39,0,0,1-4.37,4.37H59.66a4.39,4.39,0,0,1-4.38-4.38Zm17.6,48.6a4.37,4.37,0,0,1-4.37,4.38H59.68a4.39,4.39,0,0,1-4.38-4.38V816a4.4,4.4,0,0,1,4.38-4.39h8.8A4.39,4.39,0,0,1,72.86,816ZM87.75,328.91a4.39,4.39,0,0,1,4.37-4.39h8.81a4.38,4.38,0,0,1,4.38,4.37V340a4.39,4.39,0,0,1-4.38,4.39h-8.8a4.39,4.39,0,0,1-4.39-4.37Zm0,37.46A4.39,4.39,0,0,1,92.15,362H101a4.38,4.38,0,0,1,4.39,4.38v11.14a4.38,4.38,0,0,1-4.37,4.38H92.16a4.39,4.39,0,0,1-4.38-4.38Zm0,37.48a4.39,4.39,0,0,1,4.38-4.39H101a4.38,4.38,0,0,1,4.38,4.37V415a4.39,4.39,0,0,1-4.38,4.39h-8.8A4.39,4.39,0,0,1,87.81,415Zm0,37.46a4.39,4.39,0,0,1,4.38-4.37H101a4.39,4.39,0,0,1,4.38,4.38v11.14a4.39,4.39,0,0,1-4.38,4.38H92.21a4.39,4.39,0,0,1-4.38-4.38Zm0,37.48a4.39,4.39,0,0,1,4.38-4.39H101a4.4,4.4,0,0,1,4.39,4.37v11.15a4.38,4.38,0,0,1-4.37,4.38H92.24a4.39,4.39,0,0,1-4.38-4.38Zm0,37.47a4.38,4.38,0,0,1,4.37-4.38h8.81a4.39,4.39,0,0,1,4.38,4.38v11.14a4.39,4.39,0,0,1-4.38,4.38h-8.8a4.39,4.39,0,0,1-4.39-4.38Zm0,37.47a4.39,4.39,0,0,1,4.38-4.39h8.8a4.4,4.4,0,0,1,4.39,4.37v11.15a4.38,4.38,0,0,1-4.37,4.38H92.29a4.39,4.39,0,0,1-4.38-4.38Zm0,37.47a4.37,4.37,0,0,1,4.37-4.38h8.81a4.39,4.39,0,0,1,4.38,4.38v11.14a4.39,4.39,0,0,1-4.38,4.38h-8.8a4.39,4.39,0,0,1-4.39-4.38Zm0,37.47a4.39,4.39,0,0,1,4.38-4.39h8.81a4.38,4.38,0,0,1,4.37,4.37l0,11.15a4.39,4.39,0,0,1-4.38,4.38H92.34A4.39,4.39,0,0,1,88,639.81Zm0,37.47a4.38,4.38,0,0,1,4.38-4.39h8.8a4.39,4.39,0,0,1,4.38,4.38v11.14a4.39,4.39,0,0,1-4.38,4.38h-8.8A4.39,4.39,0,0,1,88,677.28Zm0,37.46a4.38,4.38,0,0,1,4.37-4.38h8.81a4.38,4.38,0,0,1,4.37,4.38l0,11.15a4.39,4.39,0,0,1-4.38,4.38H92.4A4.39,4.39,0,0,1,88,714.75Zm0,37.48a4.39,4.39,0,0,1,4.38-4.39h8.81a4.38,4.38,0,0,1,4.38,4.37v11.15a4.39,4.39,0,0,1-4.37,4.38H92.42A4.39,4.39,0,0,1,88,752.22Zm0,37.46a4.4,4.4,0,0,1,4.38-4.38h8.8a4.39,4.39,0,0,1,4.39,4.38v11.15a4.38,4.38,0,0,1-4.37,4.38H92.44a4.39,4.39,0,0,1-4.38-4.38Zm13.22,53h-8.8a4.39,4.39,0,0,1-4.38-4.37V816a4.39,4.39,0,0,1,4.37-4.39h8.81a4.38,4.38,0,0,1,4.38,4.37v11.15A4.4,4.4,0,0,1,101.27,831.54Zm19.26-502.66a4.39,4.39,0,0,1,4.38-4.38h8.81a4.38,4.38,0,0,1,4.38,4.37V340a4.39,4.39,0,0,1-4.38,4.38h-8.81a4.39,4.39,0,0,1-4.38-4.38Zm0,37.47a4.39,4.39,0,0,1,4.38-4.38h8.8a4.39,4.39,0,0,1,4.38,4.38v11.15a4.39,4.39,0,0,1-4.38,4.38H125a4.39,4.39,0,0,1-4.38-4.38Zm0,37.47a4.38,4.38,0,0,1,4.37-4.38h8.81a4.38,4.38,0,0,1,4.38,4.37V415a4.39,4.39,0,0,1-4.38,4.38H125a4.39,4.39,0,0,1-4.39-4.38Zm0,37.47a4.39,4.39,0,0,1,4.38-4.38h8.8a4.41,4.41,0,0,1,4.39,4.38v11.15a4.38,4.38,0,0,1-4.37,4.38H125a4.39,4.39,0,0,1-4.38-4.38Zm0,37.48a4.39,4.39,0,0,1,4.37-4.39h8.81a4.38,4.38,0,0,1,4.38,4.37V489.9a4.39,4.39,0,0,1-4.38,4.38H125a4.39,4.39,0,0,1-4.39-4.38Zm0,37.46a4.39,4.39,0,0,1,4.38-4.38h8.8a4.41,4.41,0,0,1,4.39,4.38v11.15a4.38,4.38,0,0,1-4.37,4.38h-8.81a4.39,4.39,0,0,1-4.38-4.38Zm0,37.48a4.38,4.38,0,0,1,4.38-4.39h8.8a4.38,4.38,0,0,1,4.38,4.37v11.15a4.39,4.39,0,0,1-4.38,4.38h-8.8a4.37,4.37,0,0,1-4.38-4.37Zm0,37.46a4.39,4.39,0,0,1,4.38-4.38h8.81a4.39,4.39,0,0,1,4.37,4.38l0,11.15a4.39,4.39,0,0,1-4.38,4.38H125.1a4.39,4.39,0,0,1-4.38-4.38Zm0,37.48a4.38,4.38,0,0,1,4.38-4.39h8.8a4.38,4.38,0,0,1,4.38,4.37v11.15a4.39,4.39,0,0,1-4.37,4.38h-8.81a4.38,4.38,0,0,1-4.38-4.37Zm0,37.46a4.38,4.38,0,0,1,4.37-4.38H134a4.38,4.38,0,0,1,4.37,4.38l0,11.15a4.39,4.39,0,0,1-4.38,4.38h-8.8a4.39,4.39,0,0,1-4.39-4.38Zm0,37.48a4.39,4.39,0,0,1,4.37-4.39H134a4.38,4.38,0,0,1,4.38,4.37v11.15A4.39,4.39,0,0,1,134,719.1h-8.81a4.38,4.38,0,0,1-4.38-4.37Zm0,37.46a4.4,4.4,0,0,1,4.38-4.38H134a4.39,4.39,0,0,1,4.39,4.38v11.15a4.38,4.38,0,0,1-4.37,4.38H125.2a4.39,4.39,0,0,1-4.38-4.38Zm0,37.47a4.39,4.39,0,0,1,4.37-4.38H134a4.38,4.38,0,0,1,4.38,4.37v11.15A4.38,4.38,0,0,1,134,794h-8.8a4.38,4.38,0,0,1-4.38-4.37Zm17.59,48.61a4.38,4.38,0,0,1-4.37,4.38h-8.81a4.38,4.38,0,0,1-4.37-4.38l0-11.15a4.39,4.39,0,0,1,4.38-4.38H134a4.39,4.39,0,0,1,4.39,4.38Zm15-348.39a4.39,4.39,0,0,1,4.38-4.38h8.81a4.4,4.4,0,0,1,4.38,4.38v11.15a4.38,4.38,0,0,1-4.37,4.38h-8.81a4.39,4.39,0,0,1-4.38-4.38Zm0,37.47a4.38,4.38,0,0,1,4.38-4.38h8.8A4.39,4.39,0,0,1,171,516.2v11.15a4.39,4.39,0,0,1-4.38,4.38h-8.8a4.37,4.37,0,0,1-4.38-4.37Zm0,37.47a4.38,4.38,0,0,1,4.37-4.38h8.81a4.39,4.39,0,0,1,4.37,4.38l0,11.15a4.39,4.39,0,0,1-4.38,4.38h-8.81a4.39,4.39,0,0,1-4.38-4.38Zm0,37.47a4.38,4.38,0,0,1,4.38-4.38h8.8a4.39,4.39,0,0,1,4.38,4.38v11.15a4.39,4.39,0,0,1-4.37,4.38h-8.81a4.38,4.38,0,0,1-4.38-4.37Zm0,37.47a4.38,4.38,0,0,1,4.37-4.38h8.81a4.39,4.39,0,0,1,4.38,4.38v11.15a4.39,4.39,0,0,1-4.38,4.38h-8.8a4.39,4.39,0,0,1-4.39-4.37Zm0,37.47a4.39,4.39,0,0,1,4.37-4.38h8.81a4.39,4.39,0,0,1,4.38,4.38v11.15a4.39,4.39,0,0,1-4.37,4.38h-8.81a4.38,4.38,0,0,1-4.38-4.37Zm0,37.47a4.39,4.39,0,0,1,4.38-4.38h8.8a4.39,4.39,0,0,1,4.39,4.38v11.14a4.38,4.38,0,0,1-4.37,4.39H158a4.38,4.38,0,0,1-4.38-4.37Zm0,37.47a4.39,4.39,0,0,1,4.37-4.38h8.81a4.39,4.39,0,0,1,4.38,4.38v11.15a4.39,4.39,0,0,1-4.38,4.38H158a4.38,4.38,0,0,1-4.38-4.37Zm0,37.47a4.39,4.39,0,0,1,4.38-4.38h8.81a4.39,4.39,0,0,1,4.38,4.38v11.14a4.39,4.39,0,0,1-4.38,4.39H158a4.38,4.38,0,0,1-4.37-4.37Zm13.22,53H158a4.39,4.39,0,0,1-4.38-4.38V816a4.39,4.39,0,0,1,4.38-4.38h8.8a4.38,4.38,0,0,1,4.38,4.38v11.15A4.39,4.39,0,0,1,166.84,831.49Zm19.52-128a4.39,4.39,0,0,1,4.38-4.38h8.8a4.39,4.39,0,0,1,4.38,4.38v11.15a4.39,4.39,0,0,1-4.38,4.38h-8.8a4.38,4.38,0,0,1-4.38-4.37Zm0,37.47a4.41,4.41,0,0,1,4.38-4.39h8.81A4.39,4.39,0,0,1,204,741v11.15a4.39,4.39,0,0,1-4.38,4.39h-8.81a4.38,4.38,0,0,1-4.37-4.38Zm0,37.47a4.39,4.39,0,0,1,4.38-4.38h8.8a4.39,4.39,0,0,1,4.39,4.38v11.14A4.39,4.39,0,0,1,199.6,794h-8.8a4.38,4.38,0,0,1-4.38-4.37Zm13.22,53h-8.8a4.4,4.4,0,0,1-4.39-4.38V816a4.4,4.4,0,0,1,4.37-4.39h8.81a4.39,4.39,0,0,1,4.38,4.37v11.15A4.39,4.39,0,0,1,199.63,831.46Zm64.23-206a6.79,6.79,0,0,1,6.78-6.79h13.64a6.8,6.8,0,0,1,6.78,6.78l0,17.27a6.8,6.8,0,0,1-6.78,6.79H270.66a6.79,6.79,0,0,1-6.79-6.78Zm0,58a6.79,6.79,0,0,1,6.78-6.79h13.64a6.79,6.79,0,0,1,6.78,6.78l0,17.27a6.8,6.8,0,0,1-6.78,6.78H270.7a6.79,6.79,0,0,1-6.79-6.78Zm0,58a6.79,6.79,0,0,1,6.77-6.79h13.65a6.8,6.8,0,0,1,6.78,6.78l0,17.27a6.8,6.8,0,0,1-6.78,6.79H270.74a6.79,6.79,0,0,1-6.79-6.78Zm20.48,82.08H270.78a6.79,6.79,0,0,1-6.79-6.78l0-17.26a6.8,6.8,0,0,1,6.78-6.79h13.64a6.79,6.79,0,0,1,6.79,6.78l0,17.27A6.8,6.8,0,0,1,284.42,823.62Zm30-546.48a6.79,6.79,0,0,1,6.78-6.78h13.64a6.79,6.79,0,0,1,6.79,6.78v17.26a6.79,6.79,0,0,1-6.78,6.79H321.21a6.79,6.79,0,0,1-6.79-6.78Zm0,58.05a6.79,6.79,0,0,1,6.78-6.79h13.64a6.81,6.81,0,0,1,6.79,6.78v17.27a6.79,6.79,0,0,1-6.78,6.79H321.25a6.8,6.8,0,0,1-6.79-6.78Zm0,58a6.79,6.79,0,0,1,6.78-6.78h13.64a6.8,6.8,0,0,1,6.79,6.78v17.26a6.79,6.79,0,0,1-6.78,6.79H321.29a6.79,6.79,0,0,1-6.79-6.78Zm0,58a6.79,6.79,0,0,1,6.78-6.79H335a6.81,6.81,0,0,1,6.79,6.78v17.27a6.8,6.8,0,0,1-6.78,6.79H321.33a6.79,6.79,0,0,1-6.79-6.78Zm0,58.05a6.79,6.79,0,0,1,6.78-6.79H335a6.8,6.8,0,0,1,6.79,6.78v17.27a6.8,6.8,0,0,1-6.78,6.78H321.37a6.79,6.79,0,0,1-6.79-6.78Zm0,58a6.79,6.79,0,0,1,6.78-6.79H335a6.8,6.8,0,0,1,6.78,6.78l0,17.27a6.8,6.8,0,0,1-6.78,6.79H321.41a6.79,6.79,0,0,1-6.79-6.78Zm0,58a6.79,6.79,0,0,1,6.78-6.79h13.64a6.79,6.79,0,0,1,6.78,6.78l0,17.27a6.8,6.8,0,0,1-6.78,6.78H321.45a6.79,6.79,0,0,1-6.79-6.78Zm0,58a6.79,6.79,0,0,1,6.77-6.79h13.65a6.8,6.8,0,0,1,6.78,6.78l0,17.27a6.8,6.8,0,0,1-6.78,6.79H321.49a6.79,6.79,0,0,1-6.79-6.78Zm0,58a6.8,6.8,0,0,1,6.78-6.79h13.64a6.79,6.79,0,0,1,6.79,6.78l0,17.27a6.8,6.8,0,0,1-6.78,6.78H321.53a6.79,6.79,0,0,1-6.79-6.78Zm20.49,82.08H321.56a6.79,6.79,0,0,1-6.78-6.78l0-17.27a6.81,6.81,0,0,1,6.78-6.79h13.64a6.8,6.8,0,0,1,6.79,6.78V816.8A6.79,6.79,0,0,1,335.21,823.59ZM365,44.93a6.79,6.79,0,0,1,6.78-6.79h13.64a6.79,6.79,0,0,1,6.79,6.78V62.18A6.79,6.79,0,0,1,385.48,69H371.84a6.8,6.8,0,0,1-6.79-6.78Zm0,58a6.79,6.79,0,0,1,6.78-6.78H385.5a6.79,6.79,0,0,1,6.79,6.78v17.26a6.79,6.79,0,0,1-6.78,6.79H371.88a6.79,6.79,0,0,1-6.79-6.78Zm0,58.05a6.79,6.79,0,0,1,6.78-6.79h13.64a6.79,6.79,0,0,1,6.79,6.78v17.27a6.79,6.79,0,0,1-6.78,6.79H371.92a6.8,6.8,0,0,1-6.79-6.78Zm0,58a6.79,6.79,0,0,1,6.78-6.78h13.64a6.79,6.79,0,0,1,6.79,6.78v17.26a6.79,6.79,0,0,1-6.78,6.79H372a6.79,6.79,0,0,1-6.79-6.78Zm0,58.05a6.79,6.79,0,0,1,6.78-6.79h13.64a6.81,6.81,0,0,1,6.79,6.78v17.27a6.79,6.79,0,0,1-6.78,6.79H372a6.79,6.79,0,0,1-6.79-6.78Zm0,58.05a6.79,6.79,0,0,1,6.78-6.79h13.64a6.8,6.8,0,0,1,6.79,6.78v17.27a6.79,6.79,0,0,1-6.78,6.78H372a6.79,6.79,0,0,1-6.79-6.78Zm0,58a6.79,6.79,0,0,1,6.78-6.79H385.7a6.81,6.81,0,0,1,6.79,6.78v17.27a6.8,6.8,0,0,1-6.78,6.79H372.08a6.79,6.79,0,0,1-6.79-6.78Zm0,58.05a6.79,6.79,0,0,1,6.78-6.79h13.64a6.81,6.81,0,0,1,6.79,6.78V468.5a6.8,6.8,0,0,1-6.78,6.78H372.12a6.79,6.79,0,0,1-6.79-6.78Zm0,58a6.79,6.79,0,0,1,6.78-6.79h13.64a6.8,6.8,0,0,1,6.78,6.78l0,17.27a6.8,6.8,0,0,1-6.78,6.79H372.16a6.79,6.79,0,0,1-6.79-6.78Zm0,58.05a6.79,6.79,0,0,1,6.78-6.79h13.64a6.79,6.79,0,0,1,6.78,6.78l0,17.27a6.8,6.8,0,0,1-6.78,6.78H372.2a6.79,6.79,0,0,1-6.79-6.78Zm0,58a6.79,6.79,0,0,1,6.77-6.79h13.65a6.8,6.8,0,0,1,6.78,6.78l0,17.27a6.8,6.8,0,0,1-6.78,6.79H372.24a6.79,6.79,0,0,1-6.79-6.78Zm0,58a6.8,6.8,0,0,1,6.78-6.79h13.64a6.79,6.79,0,0,1,6.79,6.78l0,17.27a6.8,6.8,0,0,1-6.78,6.78H372.28a6.79,6.79,0,0,1-6.79-6.78Zm0,58a6.81,6.81,0,0,1,6.78-6.79h13.64a6.8,6.8,0,0,1,6.79,6.78v17.27a6.79,6.79,0,0,1-6.77,6.79H372.31a6.79,6.79,0,0,1-6.78-6.78ZM386,823.56H372.35a6.78,6.78,0,0,1-6.78-6.77l0-17.27a6.8,6.8,0,0,1,6.78-6.79H386a6.79,6.79,0,0,1,6.79,6.78v17.27A6.8,6.8,0,0,1,386,823.56ZM415.83,44.89a6.79,6.79,0,0,1,6.78-6.78h13.64A6.79,6.79,0,0,1,443,44.88V62.14a6.79,6.79,0,0,1-6.78,6.79H422.63a6.79,6.79,0,0,1-6.79-6.78Zm0,58.05a6.79,6.79,0,0,1,6.78-6.79h13.64a6.79,6.79,0,0,1,6.79,6.78v17.27a6.79,6.79,0,0,1-6.78,6.79H422.67a6.8,6.8,0,0,1-6.79-6.78Zm0,58a6.79,6.79,0,0,1,6.78-6.78h13.64a6.79,6.79,0,0,1,6.79,6.78v17.26a6.79,6.79,0,0,1-6.78,6.79H422.71a6.79,6.79,0,0,1-6.79-6.78ZM416,219a6.79,6.79,0,0,1,6.78-6.79h13.64a6.81,6.81,0,0,1,6.79,6.78v17.27a6.79,6.79,0,0,1-6.78,6.79H422.75A6.79,6.79,0,0,1,416,236.3Zm0,58a6.79,6.79,0,0,1,6.78-6.79h13.64a6.8,6.8,0,0,1,6.79,6.78v17.27a6.79,6.79,0,0,1-6.78,6.78H422.79a6.79,6.79,0,0,1-6.79-6.78Zm0,58a6.79,6.79,0,0,1,6.78-6.79h13.64a6.81,6.81,0,0,1,6.79,6.78v17.27a6.8,6.8,0,0,1-6.78,6.79H422.83a6.79,6.79,0,0,1-6.79-6.78Zm0,58.05a6.79,6.79,0,0,1,6.78-6.79h13.64a6.81,6.81,0,0,1,6.79,6.78v17.27a6.8,6.8,0,0,1-6.78,6.78H422.87a6.79,6.79,0,0,1-6.79-6.78Zm0,58a6.79,6.79,0,0,1,6.78-6.79h13.64a6.8,6.8,0,0,1,6.78,6.78l0,17.27a6.8,6.8,0,0,1-6.78,6.79H422.91a6.79,6.79,0,0,1-6.79-6.78Zm0,58.05a6.79,6.79,0,0,1,6.78-6.79h13.64a6.79,6.79,0,0,1,6.78,6.78l0,17.27a6.8,6.8,0,0,1-6.78,6.78H423a6.79,6.79,0,0,1-6.79-6.78Zm0,58a6.79,6.79,0,0,1,6.77-6.79h13.65a6.8,6.8,0,0,1,6.78,6.78l0,17.27a6.8,6.8,0,0,1-6.78,6.79H423a6.79,6.79,0,0,1-6.79-6.78Zm0,58.05a6.8,6.8,0,0,1,6.78-6.79h13.64a6.79,6.79,0,0,1,6.79,6.78l0,17.27a6.81,6.81,0,0,1-6.78,6.79H423a6.79,6.79,0,0,1-6.79-6.78Zm0,58A6.81,6.81,0,0,1,423,676.6h13.64a6.8,6.8,0,0,1,6.79,6.78v17.27a6.79,6.79,0,0,1-6.77,6.79H423.06a6.79,6.79,0,0,1-6.78-6.78Zm0,58.05a6.8,6.8,0,0,1,6.78-6.79h13.64a6.79,6.79,0,0,1,6.79,6.78v17.27a6.8,6.8,0,0,1-6.78,6.79H423.1a6.78,6.78,0,0,1-6.78-6.77Zm20.48,82.08H423.14a6.79,6.79,0,0,1-6.78-6.78l0-17.27a6.81,6.81,0,0,1,6.78-6.79h13.64a6.8,6.8,0,0,1,6.79,6.78v17.27A6.79,6.79,0,0,1,436.78,823.52Zm30-546.48a6.79,6.79,0,0,1,6.78-6.79H487.2A6.81,6.81,0,0,1,494,277v17.27a6.8,6.8,0,0,1-6.78,6.79H473.58a6.79,6.79,0,0,1-6.79-6.78Zm0,58a6.79,6.79,0,0,1,6.78-6.79h13.64a6.81,6.81,0,0,1,6.79,6.78v17.27a6.8,6.8,0,0,1-6.78,6.78H473.62a6.79,6.79,0,0,1-6.79-6.78Zm0,58a6.79,6.79,0,0,1,6.78-6.79h13.64a6.8,6.8,0,0,1,6.78,6.78l0,17.27a6.8,6.8,0,0,1-6.78,6.79H473.66a6.79,6.79,0,0,1-6.79-6.78Zm0,58.05a6.79,6.79,0,0,1,6.78-6.79h13.64a6.79,6.79,0,0,1,6.78,6.78l0,17.27a6.8,6.8,0,0,1-6.78,6.78H473.7a6.79,6.79,0,0,1-6.79-6.78Zm0,58a6.79,6.79,0,0,1,6.77-6.79h13.65a6.8,6.8,0,0,1,6.78,6.78l0,17.27a6.8,6.8,0,0,1-6.78,6.79H473.74a6.79,6.79,0,0,1-6.79-6.78Zm0,58a6.8,6.8,0,0,1,6.78-6.79h13.64a6.79,6.79,0,0,1,6.79,6.78l0,17.27a6.81,6.81,0,0,1-6.78,6.79H473.78a6.79,6.79,0,0,1-6.79-6.77Zm0,58a6.81,6.81,0,0,1,6.78-6.79h13.64a6.8,6.8,0,0,1,6.79,6.78v17.27a6.79,6.79,0,0,1-6.77,6.79H473.81a6.79,6.79,0,0,1-6.78-6.78Zm0,58.05a6.8,6.8,0,0,1,6.78-6.79h13.64a6.79,6.79,0,0,1,6.79,6.78v17.27a6.8,6.8,0,0,1-6.78,6.79H473.85a6.78,6.78,0,0,1-6.78-6.77Zm0,58a6.81,6.81,0,0,1,6.78-6.79h13.64a6.8,6.8,0,0,1,6.79,6.78v17.27a6.79,6.79,0,0,1-6.78,6.79H473.89a6.79,6.79,0,0,1-6.78-6.78Zm20.48,82.09H473.93a6.81,6.81,0,0,1-6.79-6.78V799.45a6.8,6.8,0,0,1,6.78-6.79h13.64a6.79,6.79,0,0,1,6.79,6.78V816.7A6.8,6.8,0,0,1,487.57,823.49ZM517.8,625.28a6.8,6.8,0,0,1,6.78-6.79h13.64a6.79,6.79,0,0,1,6.79,6.78v17.27a6.8,6.8,0,0,1-6.78,6.79H524.6a6.8,6.8,0,0,1-6.78-6.78Zm0,58a6.81,6.81,0,0,1,6.78-6.79h13.64a6.8,6.8,0,0,1,6.79,6.78v17.27a6.79,6.79,0,0,1-6.78,6.79H524.64a6.79,6.79,0,0,1-6.78-6.78Zm0,58a6.8,6.8,0,0,1,6.78-6.79H538.3a6.79,6.79,0,0,1,6.79,6.78v17.27a6.8,6.8,0,0,1-6.78,6.79H524.68a6.81,6.81,0,0,1-6.79-6.78Zm20.48,82.08H524.72a6.81,6.81,0,0,1-6.79-6.78V799.41a6.81,6.81,0,0,1,6.78-6.79h13.64a6.8,6.8,0,0,1,6.79,6.78v17.27A6.79,6.79,0,0,1,538.36,823.45Zm59.17-80.53a3.18,3.18,0,0,1,3.17-3.17h6.38a3.18,3.18,0,0,1,3.17,3.16V751a3.18,3.18,0,0,1-3.17,3.17h-6.38a3.17,3.17,0,0,1-3.17-3.17Zm0,27.14a3.16,3.16,0,0,1,3.17-3.17h6.38a3.18,3.18,0,0,1,3.17,3.17v8.08a3.18,3.18,0,0,1-3.17,3.17h-6.37a3.17,3.17,0,0,1-3.18-3.17Zm0,27.14a3.17,3.17,0,0,1,3.16-3.18h6.38a3.17,3.17,0,0,1,3.17,3.17v8.07a3.18,3.18,0,0,1-3.17,3.18h-6.37a3.18,3.18,0,0,1-3.18-3.17Zm9.57,38.37h-6.37a3.17,3.17,0,0,1-3.18-3.17v-8.06a3.19,3.19,0,0,1,3.17-3.18h6.38a3.17,3.17,0,0,1,3.17,3.17v8.07A3.18,3.18,0,0,1,607.14,835.57Zm14-255.48a3.17,3.17,0,0,1,3.17-3.17h6.38a3.17,3.17,0,0,1,3.17,3.17v8.07a3.18,3.18,0,0,1-3.17,3.18h-6.38a3.17,3.17,0,0,1-3.17-3.17Zm0,27.14a3.18,3.18,0,0,1,3.17-3.18h6.38a3.18,3.18,0,0,1,3.17,3.17v8.07a3.18,3.18,0,0,1-3.17,3.18h-6.38a3.18,3.18,0,0,1-3.17-3.17Zm0,27.13a3.18,3.18,0,0,1,3.17-3.17h6.38a3.17,3.17,0,0,1,3.17,3.17v8.06a3.19,3.19,0,0,1-3.17,3.18h-6.38a3.17,3.17,0,0,1-3.18-3.17Zm0,27.14a3.17,3.17,0,0,1,3.17-3.18h6.38a3.18,3.18,0,0,1,3.17,3.17v8.07a3.18,3.18,0,0,1-3.17,3.18H624.4a3.18,3.18,0,0,1-3.18-3.17Zm0,27.14a3.17,3.17,0,0,1,3.17-3.18h6.37a3.18,3.18,0,0,1,3.18,3.17v8.07a3.17,3.17,0,0,1-3.17,3.17h-6.37a3.18,3.18,0,0,1-3.18-3.17Zm0,27.13a3.16,3.16,0,0,1,3.17-3.17h6.37a3.18,3.18,0,0,1,3.17,3.17v8.08a3.18,3.18,0,0,1-3.17,3.17h-6.37a3.18,3.18,0,0,1-3.18-3.16Zm0,27.14a3.18,3.18,0,0,1,3.17-3.17h6.38A3.17,3.17,0,0,1,634,742.9V751a3.18,3.18,0,0,1-3.17,3.17h-6.38a3.18,3.18,0,0,1-3.17-3.17Zm0,27.13a3.18,3.18,0,0,1,3.17-3.17h6.38A3.18,3.18,0,0,1,634,770v8.08a3.18,3.18,0,0,1-3.17,3.17h-6.38a3.17,3.17,0,0,1-3.17-3.17Zm0,27.14a3.17,3.17,0,0,1,3.17-3.17h6.37a3.18,3.18,0,0,1,3.18,3.17v8.08a3.18,3.18,0,0,1-3.17,3.17h-6.38a3.16,3.16,0,0,1-3.17-3.17Zm12.74,35.2a3.17,3.17,0,0,1-3.16,3.18h-6.38a3.17,3.17,0,0,1-3.17-3.17v-8.07a3.19,3.19,0,0,1,3.17-3.18h6.37a3.18,3.18,0,0,1,3.18,3.17Zm10.78-360.85a3.18,3.18,0,0,1,3.17-3.18h6.38a3.17,3.17,0,0,1,3.17,3.17v8.07a3.18,3.18,0,0,1-3.17,3.18H648a3.17,3.17,0,0,1-3.17-3.17Zm0,27.13a3.18,3.18,0,0,1,3.17-3.17h6.38a3.16,3.16,0,0,1,3.17,3.17v8.07a3.17,3.17,0,0,1-3.17,3.17H648a3.17,3.17,0,0,1-3.17-3.17Zm0,27.14a3.17,3.17,0,0,1,3.17-3.17h6.38a3.18,3.18,0,0,1,3.17,3.17v8.08a3.18,3.18,0,0,1-3.17,3.17h-6.38a3.19,3.19,0,0,1-3.18-3.17Zm0,27.14a3.17,3.17,0,0,1,3.17-3.17h6.37a3.19,3.19,0,0,1,3.18,3.17V561a3.17,3.17,0,0,1-3.17,3.17h-6.37a3.18,3.18,0,0,1-3.18-3.17Zm0,27.13a3.18,3.18,0,0,1,3.17-3.17h6.37a3.18,3.18,0,0,1,3.18,3.16v8.08a3.17,3.17,0,0,1-3.17,3.17h-6.37a3.18,3.18,0,0,1-3.18-3.17Zm0,27.14A3.17,3.17,0,0,1,648.1,604h6.37a3.19,3.19,0,0,1,3.18,3.17v8.08a3.18,3.18,0,0,1-3.17,3.17H648.1a3.17,3.17,0,0,1-3.17-3.17Zm0,27.14a3.19,3.19,0,0,1,3.17-3.18h6.38a3.19,3.19,0,0,1,3.18,3.17v8.07a3.19,3.19,0,0,1-3.17,3.18h-6.38a3.18,3.18,0,0,1-3.17-3.17Zm0,27.14a3.18,3.18,0,0,1,3.17-3.18h6.38a3.18,3.18,0,0,1,3.17,3.17v8.07a3.18,3.18,0,0,1-3.17,3.17h-6.38a3.16,3.16,0,0,1-3.17-3.17Zm0,27.13a3.18,3.18,0,0,1,3.17-3.18h6.38a3.18,3.18,0,0,1,3.17,3.17v8.07a3.19,3.19,0,0,1-3.17,3.18h-6.38a3.17,3.17,0,0,1-3.17-3.17Zm0,27.14a3.18,3.18,0,0,1,3.17-3.18h6.38a3.18,3.18,0,0,1,3.17,3.17v8.07a3.18,3.18,0,0,1-3.17,3.17h-6.38a3.17,3.17,0,0,1-3.17-3.17Zm0,27.13a3.16,3.16,0,0,1,3.16-3.17h6.39a3.18,3.18,0,0,1,3.17,3.17V751a3.18,3.18,0,0,1-3.16,3.17H648.2A3.18,3.18,0,0,1,645,751ZM645,770a3.18,3.18,0,0,1,3.17-3.17h6.38a3.17,3.17,0,0,1,3.17,3.17v8.07a3.17,3.17,0,0,1-3.17,3.17h-6.37A3.18,3.18,0,0,1,645,778.1Zm0,27.13a3.18,3.18,0,0,1,3.17-3.17h6.38a3.18,3.18,0,0,1,3.17,3.17v8.08a3.17,3.17,0,0,1-3.17,3.17h-6.38a3.18,3.18,0,0,1-3.17-3.17Zm9.58,38.38h-6.38a3.17,3.17,0,0,1-3.17-3.16V824.3a3.18,3.18,0,0,1,3.17-3.17h6.38a3.17,3.17,0,0,1,3.17,3.17v8.08A3.18,3.18,0,0,1,654.63,835.54Zm14-364a3.18,3.18,0,0,1,3.17-3.17h6.37a3.17,3.17,0,0,1,3.18,3.17v8.06a3.18,3.18,0,0,1-3.17,3.18h-6.37a3.18,3.18,0,0,1-3.18-3.17Zm0,27.14a3.18,3.18,0,0,1,3.17-3.18h6.37a3.18,3.18,0,0,1,3.18,3.17v8.07a3.18,3.18,0,0,1-3.17,3.18h-6.38a3.18,3.18,0,0,1-3.17-3.17Zm0,27.13a3.18,3.18,0,0,1,3.17-3.17h6.38a3.16,3.16,0,0,1,3.17,3.17v8.07a3.17,3.17,0,0,1-3.17,3.17h-6.38a3.17,3.17,0,0,1-3.17-3.17Zm0,27.14a3.17,3.17,0,0,1,3.17-3.17h6.38a3.18,3.18,0,0,1,3.17,3.17V561a3.18,3.18,0,0,1-3.17,3.17h-6.38a3.17,3.17,0,0,1-3.17-3.16Zm0,27.14a3.17,3.17,0,0,1,3.17-3.17h6.38a3.18,3.18,0,0,1,3.17,3.17v8.07a3.17,3.17,0,0,1-3.17,3.17h-6.38a3.17,3.17,0,0,1-3.17-3.17Zm0,27.13a3.18,3.18,0,0,1,3.17-3.17h6.38a3.18,3.18,0,0,1,3.17,3.17v8.08a3.18,3.18,0,0,1-3.17,3.17h-6.38a3.18,3.18,0,0,1-3.18-3.17Zm0,27.14a3.16,3.16,0,0,1,3.17-3.17h6.38a3.18,3.18,0,0,1,3.17,3.17v8.08a3.18,3.18,0,0,1-3.17,3.17h-6.37a3.17,3.17,0,0,1-3.18-3.17Zm0,27.14a3.17,3.17,0,0,1,3.17-3.18h6.37a3.17,3.17,0,0,1,3.17,3.17v8.07a3.18,3.18,0,0,1-3.17,3.18h-6.37a3.18,3.18,0,0,1-3.18-3.17Zm0,27.13a3.17,3.17,0,0,1,3.17-3.17h6.37a3.17,3.17,0,0,1,3.17,3.17v8.07a3.18,3.18,0,0,1-3.17,3.17h-6.37a3.17,3.17,0,0,1-3.18-3.17Zm0,27.14a3.18,3.18,0,0,1,3.16-3.18h6.38a3.18,3.18,0,0,1,3.17,3.17v8.07A3.19,3.19,0,0,1,678.3,727h-6.38a3.18,3.18,0,0,1-3.17-3.17Zm0,27.14a3.19,3.19,0,0,1,3.17-3.18h6.38a3.18,3.18,0,0,1,3.17,3.17v8.07a3.19,3.19,0,0,1-3.17,3.18h-6.38a3.18,3.18,0,0,1-3.17-3.17Zm0,27.13a3.18,3.18,0,0,1,3.17-3.17h6.37A3.19,3.19,0,0,1,681.5,770v8.08a3.17,3.17,0,0,1-3.16,3.17H672a3.17,3.17,0,0,1-3.17-3.16Zm0,27.14A3.17,3.17,0,0,1,672,794h6.37a3.18,3.18,0,0,1,3.18,3.17v8.07a3.18,3.18,0,0,1-3.17,3.18H672a3.17,3.17,0,0,1-3.17-3.17Zm12.74,35.2a3.16,3.16,0,0,1-3.17,3.17H672a3.18,3.18,0,0,1-3.17-3.17v-8.08a3.18,3.18,0,0,1,3.16-3.17h6.38a3.19,3.19,0,0,1,3.18,3.17ZM692.4,580a3.16,3.16,0,0,1,3.17-3.17h6.37a3.19,3.19,0,0,1,3.18,3.17v8.08a3.18,3.18,0,0,1-3.17,3.17h-6.37a3.18,3.18,0,0,1-3.18-3.16Zm0,27.14a3.18,3.18,0,0,1,3.17-3.17H702a3.19,3.19,0,0,1,3.18,3.17v8.07a3.18,3.18,0,0,1-3.17,3.17h-6.38a3.18,3.18,0,0,1-3.17-3.17Zm0,27.13a3.18,3.18,0,0,1,3.17-3.17H702a3.18,3.18,0,0,1,3.17,3.17v8.08a3.18,3.18,0,0,1-3.17,3.17h-6.38a3.17,3.17,0,0,1-3.17-3.17Zm0,27.14a3.17,3.17,0,0,1,3.17-3.17H702a3.18,3.18,0,0,1,3.17,3.17v8.08a3.18,3.18,0,0,1-3.17,3.17h-6.38a3.16,3.16,0,0,1-3.17-3.17Zm3.19,24H702a3.18,3.18,0,0,1,3.17,3.17v8.07a3.19,3.19,0,0,1-3.17,3.18h-6.38a3.17,3.17,0,0,1-3.17-3.17v-8.07A3.19,3.19,0,0,1,695.64,685.41Zm-3.16,30.31a3.18,3.18,0,0,1,3.17-3.17H702a3.18,3.18,0,0,1,3.18,3.17v8.07a3.18,3.18,0,0,1-3.17,3.17h-6.38a3.17,3.17,0,0,1-3.18-3.16Zm0,27.14a3.19,3.19,0,0,1,3.17-3.18h6.38a3.18,3.18,0,0,1,3.17,3.17v8.07a3.18,3.18,0,0,1-3.17,3.18h-6.38a3.18,3.18,0,0,1-3.17-3.17Zm0,27.14a3.19,3.19,0,0,1,3.17-3.18h6.38a3.17,3.17,0,0,1,3.17,3.17v8.07a3.19,3.19,0,0,1-3.17,3.18H695.7a3.18,3.18,0,0,1-3.17-3.17Zm0,27.13a3.18,3.18,0,0,1,3.17-3.17h6.38a3.18,3.18,0,0,1,3.17,3.17v8.08a3.18,3.18,0,0,1-3.17,3.17h-6.38a3.18,3.18,0,0,1-3.17-3.17Zm9.58,38.38h-6.38a3.19,3.19,0,0,1-3.18-3.17v-8.07a3.18,3.18,0,0,1,3.17-3.17h6.38a3.18,3.18,0,0,1,3.17,3.17v8.07A3.19,3.19,0,0,1,702.12,835.51Zm14.13-92.67a3.18,3.18,0,0,1,3.17-3.17h6.37a3.18,3.18,0,0,1,3.18,3.17v8.07a3.17,3.17,0,0,1-3.17,3.17h-6.37a3.18,3.18,0,0,1-3.17-3.17Zm0,27.14a3.19,3.19,0,0,1,3.17-3.18h6.37A3.19,3.19,0,0,1,729,770V778a3.17,3.17,0,0,1-3.17,3.18h-6.37a3.17,3.17,0,0,1-3.17-3.17Zm0,27.14a3.18,3.18,0,0,1,3.17-3.18h6.37a3.18,3.18,0,0,1,3.18,3.17v8.07a3.18,3.18,0,0,1-3.17,3.18h-6.38a3.18,3.18,0,0,1-3.17-3.17Zm9.57,38.37h-6.38a3.18,3.18,0,0,1-3.17-3.17v-8.07a3.18,3.18,0,0,1,3.17-3.17h6.38a3.18,3.18,0,0,1,3.17,3.17v8.08A3.18,3.18,0,0,1,725.86,835.49Z"/></g></g></svg>