<?xml version="1.0" encoding="utf-8"?>
<!-- Generator: Adobe Illustrator 23.0.1, SVG Export Plug-In . SVG Version: 6.00 Build 0)  -->
<svg version="1.1" id="Layer_1" xmlns="http://www.w3.org/2000/svg" xmlns:xlink="http://www.w3.org/1999/xlink" x="0px" y="0px"
	 viewBox="0 0 213.7 204.2" style="enable-background:new 0 0 213.7 204.2;" xml:space="preserve">
<style type="text/css">
	<!--.st0{fill:#16A085;}-->
	.st0{fill:#FFFFFF;}
</style>
<title>preloader-white</title>
<g>
	<g id="Layer_1-2">
		<path class="st0" d="M213.7,121.3V83l-37.8-4.5c-3-8.9-7.8-17.2-14-24.3l15-35L143.7,0l-22.8,30.5c-9.3-1.8-18.8-1.8-28.1,0L70,0
			L36.8,19.2l15,35c-6.2,7.1-11,15.3-14,24.3L0,83v38.3l37.8,4.5c3.1,8.9,7.8,17.2,14,24.3l-15,35L70,204.2l22.8-30.5
			c9.3,1.8,18.8,1.8,28.1,0l22.8,30.5l33.2-19.2l-15-35c6.2-7.1,11-15.4,14.1-24.3L213.7,121.3z M150.7,124c-0.9,1.8-1.9,3.5-3,5.1
			c-8.5,12.8-22.5,20.9-37.9,21.8c-1,0.1-2,0.1-3,0.1s-2,0-3-0.1c-15.3-0.9-29.4-9-37.8-21.8c-1.1-1.7-2.1-3.4-3-5.2
			c-12.1-24.2-2.2-53.6,22-65.7c5.9-2.9,12.3-4.6,18.9-5c1-0.1,2-0.1,3-0.1s2,0,3,0.1c27,1.7,47.5,25,45.8,52
			C155.3,111.8,153.6,118.2,150.7,124L150.7,124z"/>
	</g>
</g>
</svg>
