<svg xmlns="http://www.w3.org/2000/svg" viewBox="0 0 693.3 755"><defs><style>.cls-1{fill:#fff;}</style></defs><title>cogs</title><g id="Layer_2" data-name="Layer 2"><g id="Layer_1-2" data-name="Layer 1"><g id="Layer_1-2-2" data-name="Layer 1-2"><path class="cls-1" d="M378.9,572.65h70.31l8.26-69.39a132.38,132.38,0,0,0,44.61-25.7l64.25,27.53,35.25-60.95-56-41.85a135.61,135.61,0,0,0,0-51.58l56-41.86-35.25-61-64.25,27.54a130.57,130.57,0,0,0-44.61-25.7l-8.26-69.39H378.9l-8.26,69.39A135.55,135.55,0,0,0,326,275.44L261.78,247.9l-35.06,61,56,41.86a135.61,135.61,0,0,0,0,51.58l-56,41.85L262,505.09l64.25-27.53a135.92,135.92,0,0,0,44.61,25.88ZM374,457a79.19,79.19,0,0,1-9.37-5.51,89.8,89.8,0,0,1-40-69.58,79.85,79.85,0,0,1,0-11,89.43,89.43,0,0,1,40-69.39,100,100,0,0,1,9.55-5.51,89.94,89.94,0,0,1,120.61,40.39,91.16,91.16,0,0,1,9.18,34.69c.18,1.84.18,3.67.18,5.51s0,3.67-.18,5.51A90.21,90.21,0,0,1,374,457Z"/></g><g id="Layer_1-2-3" data-name="Layer 1-2"><path class="cls-1" d="M693.3,144.35V98.77l-45-5.36A85.75,85.75,0,0,0,631.66,64.5l17.85-41.65L610,0,582.87,36.29a87.89,87.89,0,0,0-33.44,0L522.3,0,482.79,22.85,500.64,64.5A84.61,84.61,0,0,0,484,93.41l-45,5.36v45.58l45,5.35a87.85,87.85,0,0,0,16.66,28.92l-17.85,41.65L522.3,243l27.13-36.3a87.89,87.89,0,0,0,33.44,0L610,243l39.51-22.85L631.66,178.5a88.16,88.16,0,0,0,16.78-28.92Zm-75,3.21a51.16,51.16,0,0,1-3.57,6.07,58.18,58.18,0,0,1-45.1,25.94,53.16,53.16,0,0,1-7.14,0,58,58,0,0,1-45-25.94,64.8,64.8,0,0,1-3.57-6.19,58.3,58.3,0,0,1,26.18-78.18,58.9,58.9,0,0,1,22.49-6,53.16,53.16,0,0,1,7.14,0,58.46,58.46,0,0,1,48.55,84.25Z"/></g><g id="Layer_1-2-4" data-name="Layer 1-2"><path class="cls-1" d="M693.3,656.35V610.77l-45-5.36a85.75,85.75,0,0,0-16.66-28.91l17.85-41.65L610,512l-27.13,36.29a87.89,87.89,0,0,0-33.44,0L522.3,512l-39.51,22.85,17.85,41.65A84.61,84.61,0,0,0,484,605.41l-45,5.36v45.58l45,5.35a87.85,87.85,0,0,0,16.66,28.92l-17.85,41.65L522.3,755l27.13-36.3a87.89,87.89,0,0,0,33.44,0L610,755l39.51-22.85L631.66,690.5a88.16,88.16,0,0,0,16.78-28.92Zm-75,3.21a51.16,51.16,0,0,1-3.57,6.07,58.18,58.18,0,0,1-45.1,25.94,53.16,53.16,0,0,1-7.14,0,58,58,0,0,1-45-25.94,64.8,64.8,0,0,1-3.57-6.19,58.3,58.3,0,0,1,26.18-78.18,58.9,58.9,0,0,1,22.49-6,53.16,53.16,0,0,1,7.14,0,58.46,58.46,0,0,1,48.55,84.25Z"/></g><g id="Layer_1-2-5" data-name="Layer 1-2"><path class="cls-1" d="M254.3,399.35V353.77l-45-5.36a85.75,85.75,0,0,0-16.66-28.91l17.85-41.65L171,255l-27.13,36.29a87.89,87.89,0,0,0-33.44,0L83.3,255,43.79,277.85,61.64,319.5A84.61,84.61,0,0,0,45,348.41L0,353.77v45.58l45,5.35a87.85,87.85,0,0,0,16.66,28.92L43.79,475.27,83.3,498l27.13-36.3a87.89,87.89,0,0,0,33.44,0L171,498l39.51-22.85L192.66,433.5a88.16,88.16,0,0,0,16.78-28.92Zm-75,3.21a51.16,51.16,0,0,1-3.57,6.07,58.18,58.18,0,0,1-45.1,25.94,53.16,53.16,0,0,1-7.14,0,58,58,0,0,1-45-25.94A64.8,64.8,0,0,1,75,402.44a58.3,58.3,0,0,1,26.18-78.18,58.9,58.9,0,0,1,22.49-5.95,53.16,53.16,0,0,1,7.14,0,58.46,58.46,0,0,1,48.55,84.25Z"/></g></g></g></svg>