<svg xmlns="http://www.w3.org/2000/svg" viewBox="0 0 222.53 292.6"><defs><style>.cls-1{fill:#fff;}</style></defs><title>map-marker</title><g id="Layer_2" data-name="Layer 2"><g id="Layer_1-2" data-name="Layer 1"><g id="marker"><path class="cls-1" d="M218,78.25a97.7,97.7,0,0,0-3.69-10A114.3,114.3,0,0,0,151.75,7.5,111.11,111.11,0,0,0,21.49,45.68,115,115,0,0,0,8.76,68.28a105.44,105.44,0,0,0-8.61,47c.9,16.22,5.63,28.32,11.23,42.68,6.87,17.58,14.21,29.11,25.83,47.16C53,229.63,67.37,247.22,79.88,262.41l2.34,2.83c7.78,9.36,14.86,17.47,20.84,24.13a9.71,9.71,0,0,0,14.38.09q11.55-12.51,21.43-24c13.72-15.94,25.08-30.27,34.22-42.32,11.82-15.6,24.6-33.56,35.93-58.4,9.19-20.15,11.42-31.63,12.35-38.18A113.07,113.07,0,0,0,218,78.25Zm-105.55,93.2a60.64,60.64,0,1,1,60.64-60.64A60.64,60.64,0,0,1,112.45,171.45Z"/><circle class="cls-1" cx="112.45" cy="110.81" r="38.18"/></g></g></g></svg>