<svg xmlns="http://www.w3.org/2000/svg" viewBox="0 0 1000 701.1"><defs><style>.cls-1{fill:#fff;}</style></defs><title>way-to-careers</title><g id="Layer_2" data-name="Layer 2"><g id="Layer_1-2" data-name="Layer 1"><g id="Layer_2-2" data-name="Layer 2-2"><path class="cls-1" d="M659.8,502.2a5.35,5.35,0,0,0-2.8-1.1,4.65,4.65,0,0,0-2.7,1,3.29,3.29,0,0,0-1.2,2h8.1A4.65,4.65,0,0,0,659.8,502.2Zm0,0a5.35,5.35,0,0,0-2.8-1.1,4.65,4.65,0,0,0-2.7,1,3.29,3.29,0,0,0-1.2,2h8.1A4.65,4.65,0,0,0,659.8,502.2Zm0,0a5.35,5.35,0,0,0-2.8-1.1,4.65,4.65,0,0,0-2.7,1,3.29,3.29,0,0,0-1.2,2h8.1A4.65,4.65,0,0,0,659.8,502.2Zm0,0a5.35,5.35,0,0,0-2.8-1.1,4.65,4.65,0,0,0-2.7,1,3.29,3.29,0,0,0-1.2,2h8.1A4.65,4.65,0,0,0,659.8,502.2Zm0,0a5.35,5.35,0,0,0-2.8-1.1,4.65,4.65,0,0,0-2.7,1,3.29,3.29,0,0,0-1.2,2h8.1A4.65,4.65,0,0,0,659.8,502.2Zm0,0a5.35,5.35,0,0,0-2.8-1.1,4.65,4.65,0,0,0-2.7,1,3.29,3.29,0,0,0-1.2,2h8.1A4.65,4.65,0,0,0,659.8,502.2Zm0,0a5.35,5.35,0,0,0-2.8-1.1,4.65,4.65,0,0,0-2.7,1,3.29,3.29,0,0,0-1.2,2h8.1A4.65,4.65,0,0,0,659.8,502.2Zm0,0a5.35,5.35,0,0,0-2.8-1.1,4.65,4.65,0,0,0-2.7,1,3.29,3.29,0,0,0-1.2,2h8.1A4.65,4.65,0,0,0,659.8,502.2Zm0,0a5.35,5.35,0,0,0-2.8-1.1,4.65,4.65,0,0,0-2.7,1,3.29,3.29,0,0,0-1.2,2h8.1A4.65,4.65,0,0,0,659.8,502.2Zm0,0a5.35,5.35,0,0,0-2.8-1.1,4.65,4.65,0,0,0-2.7,1,3.29,3.29,0,0,0-1.2,2h8.1A4.65,4.65,0,0,0,659.8,502.2Zm0,0a5.35,5.35,0,0,0-2.8-1.1,4.65,4.65,0,0,0-2.7,1,3.29,3.29,0,0,0-1.2,2h8.1A4.65,4.65,0,0,0,659.8,502.2Zm88.2.5a3.73,3.73,0,0,0-2.7-1.2,3.57,3.57,0,0,0-2.7,1.2,4.43,4.43,0,0,0-1.1,3,3.76,3.76,0,0,0,1.1,2.8,3.64,3.64,0,0,0,5.4,0,3.91,3.91,0,0,0,1.1-2.9A3.56,3.56,0,0,0,748,502.7Zm0,0a3.73,3.73,0,0,0-2.7-1.2,3.57,3.57,0,0,0-2.7,1.2,4.43,4.43,0,0,0-1.1,3,3.76,3.76,0,0,0,1.1,2.8,3.64,3.64,0,0,0,5.4,0,3.91,3.91,0,0,0,1.1-2.9A3.56,3.56,0,0,0,748,502.7Zm-88.2-.5a5.35,5.35,0,0,0-2.8-1.1,4.65,4.65,0,0,0-2.7,1,3.29,3.29,0,0,0-1.2,2h8.1A4.65,4.65,0,0,0,659.8,502.2Zm0,0a5.35,5.35,0,0,0-2.8-1.1,4.65,4.65,0,0,0-2.7,1,3.29,3.29,0,0,0-1.2,2h8.1A4.65,4.65,0,0,0,659.8,502.2Zm88.2.5a3.73,3.73,0,0,0-2.7-1.2,3.57,3.57,0,0,0-2.7,1.2,4.43,4.43,0,0,0-1.1,3,3.76,3.76,0,0,0,1.1,2.8,3.64,3.64,0,0,0,5.4,0,3.91,3.91,0,0,0,1.1-2.9A3.56,3.56,0,0,0,748,502.7Zm0,0a3.73,3.73,0,0,0-2.7-1.2,3.57,3.57,0,0,0-2.7,1.2,4.43,4.43,0,0,0-1.1,3,3.76,3.76,0,0,0,1.1,2.8,3.64,3.64,0,0,0,5.4,0,3.91,3.91,0,0,0,1.1-2.9A3.56,3.56,0,0,0,748,502.7Zm-88.2-.5a5.35,5.35,0,0,0-2.8-1.1,4.65,4.65,0,0,0-2.7,1,3.29,3.29,0,0,0-1.2,2h8.1A4.65,4.65,0,0,0,659.8,502.2Zm0,0a5.35,5.35,0,0,0-2.8-1.1,4.65,4.65,0,0,0-2.7,1,3.29,3.29,0,0,0-1.2,2h8.1A4.65,4.65,0,0,0,659.8,502.2Zm18.3,76.6a3.86,3.86,0,0,0-5.4,0,5,5,0,0,0,0,6,3.69,3.69,0,0,0,2.7,1.1,3.48,3.48,0,0,0,2.7-1.1,4.14,4.14,0,0,0,1.1-3A3.65,3.65,0,0,0,678.1,578.8Zm18.8.1a3.73,3.73,0,0,0-2.7-1.2,3.42,3.42,0,0,0-2.7,1.2,3.84,3.84,0,0,0-1.1,2.8,3.93,3.93,0,0,0,1.1,2.8,3.73,3.73,0,0,0,2.7,1.2,3.42,3.42,0,0,0,2.7-1.2,3.69,3.69,0,0,0,1.1-2.8A4.3,4.3,0,0,0,696.9,578.9ZM748,502.7a3.73,3.73,0,0,0-2.7-1.2,3.57,3.57,0,0,0-2.7,1.2,4.43,4.43,0,0,0-1.1,3,3.76,3.76,0,0,0,1.1,2.8,3.64,3.64,0,0,0,5.4,0,3.91,3.91,0,0,0,1.1-2.9A3.56,3.56,0,0,0,748,502.7Zm-51.1,76.2a3.73,3.73,0,0,0-2.7-1.2,3.42,3.42,0,0,0-2.7,1.2,3.84,3.84,0,0,0-1.1,2.8,3.93,3.93,0,0,0,1.1,2.8,3.73,3.73,0,0,0,2.7,1.2,3.42,3.42,0,0,0,2.7-1.2,3.69,3.69,0,0,0,1.1-2.8A4.3,4.3,0,0,0,696.9,578.9Zm-18.8-.1a3.86,3.86,0,0,0-5.4,0,5,5,0,0,0,0,6,3.69,3.69,0,0,0,2.7,1.1,3.48,3.48,0,0,0,2.7-1.1,4.14,4.14,0,0,0,1.1-3A3.65,3.65,0,0,0,678.1,578.8ZM748,502.7a3.73,3.73,0,0,0-2.7-1.2,3.57,3.57,0,0,0-2.7,1.2,4.43,4.43,0,0,0-1.1,3,3.76,3.76,0,0,0,1.1,2.8,3.64,3.64,0,0,0,5.4,0,3.91,3.91,0,0,0,1.1-2.9A3.56,3.56,0,0,0,748,502.7Zm-88.2-.5a5.35,5.35,0,0,0-2.8-1.1,4.65,4.65,0,0,0-2.7,1,3.29,3.29,0,0,0-1.2,2h8.1A4.65,4.65,0,0,0,659.8,502.2ZM991.4,684.5H860V639.9h57V610H860V596h60.3l19.3-15-19.3-14.9H805.6V557H704.7V528.6H811l31.5-24.2L809,479.1H563.9v49.4H666.3V557H560.5L527,582.2,542.3,594H481.7v23.5H527v9.9H481.2l-15.5,11.7,15.5,11.7H527v33.7H375.9V464.1h74.5V417.4H375.9V375.7H482V329H375.9V107.3l31.4-35.4L390.6,45.2,430.8,0,305.4,22.3,214,116.4l55.4-8.2V145a8,8,0,1,0,9.6,5.9,7.89,7.89,0,0,0-6.7-6V107.8l5.7-.8,12.2,28.5,64-9.5V329H257.7l-30.3,23.4,30.3,23.4h96.5v41.7H282.1l-22.7,23.4,22.7,23.4h72.1V684.7H8.6A8.54,8.54,0,0,0,0,693.3H0c0,4.3,3.1,7.8,7.2,7.8H992.9c4,0,7.1-3.5,7.1-7.8A8.58,8.58,0,0,0,991.4,684.5ZM616.8,511.1a1.6,1.6,0,0,1-3.2,0V494.2a1.6,1.6,0,0,1,3.2,0Zm17,.1a1.5,1.5,0,0,1-.4,1.1,1.28,1.28,0,0,1-1,.4,1.5,1.5,0,0,1-1.1-.4,1.61,1.61,0,0,1-.5-1.1v-6.8a2.88,2.88,0,0,0-.9-2.1,3,3,0,0,0-4.1,0,2.65,2.65,0,0,0-.8,2.1v6.8a1.61,1.61,0,0,1-.5,1.1,1.5,1.5,0,0,1-2.6-1.1V499.9a1.38,1.38,0,0,1,1.5-1.5,1.42,1.42,0,0,1,1.4.9,5.53,5.53,0,0,1,3-.9,5.82,5.82,0,0,1,4.3,1.8,5.76,5.76,0,0,1,1.8,4.2v6.8ZM645.4,501a1.61,1.61,0,0,1-1.1.5h-.7v8a1.6,1.6,0,0,1,0,3.2,3.34,3.34,0,0,1-2.3-.9,3.17,3.17,0,0,1-.9-2.3v-8h-.8a1.6,1.6,0,0,1,0-3.2h.8v-4.2a1.6,1.6,0,0,1,3.2,0v4.2h.7a1.56,1.56,0,0,1,1.1,2.7Zm18.4,4.2a1.16,1.16,0,0,1-.4,1,1.5,1.5,0,0,1-1.1.4h-9.1a3.47,3.47,0,0,0,1,1.9,4.32,4.32,0,0,0,2.7,1.3,4.23,4.23,0,0,0,3-.7,1.66,1.66,0,0,1,1.2-.5,1.05,1.05,0,0,1,1,.4,1.39,1.39,0,0,1,0,1.9,7.18,7.18,0,0,1-5.1,1.9,6.57,6.57,0,0,1-5-2.1,6.86,6.86,0,0,1-2-5.1,7.27,7.27,0,0,1,2-5.1,6.89,6.89,0,0,1,9.7-.2,6.89,6.89,0,0,1,2.1,4.8v.1ZM402.3,71.5,370.8,107l-11.2,12.7-5.3-9.3-8.5-14.9,42-47.2ZM276.4,103.1l-.6.1,38.6-39,.1-.1h.3a8.9,8.9,0,0,0,3.9-1.2,39.71,39.71,0,0,0,7.4-5.3c1-1,10-9.4,6.8-12.9s-12.4,4.8-13.4,5.7a33.08,33.08,0,0,0-6,6.9,7.92,7.92,0,0,0-1.5,4.2,1.7,1.7,0,0,0,.1.7h0l-41.2,41.7-45.8,6.8L307.4,26,420.1,6,388.4,41.7l-46,51.7Zm38.6-42h0c.3-1.3,2.3-4.7,6.5-8.5s7.8-5.6,9-5.8c-.3,1.3-2.3,4.7-6.5,8.5S316.3,61,315,61.1Zm39.3,60.7L292.8,131l-10.6-24.7,60.1-8.9,12,21.1,1.7,3.1ZM258.8,372.7l-26.4-20.4,26.4-20.4H479v40.7H258.8Zm24.7,88.4-19.7-20.4,19.7-20.4H447.4V461H283.5ZM914,613v23.9H780L764.5,625,780,613Zm-72-3V596h15v14Zm-36.4-40.9H919.3L934.7,581l-15.4,12H805.6ZM705.4,584.8a2.07,2.07,0,0,1,1-.6,2,2,0,0,1,1.1.3,4.71,4.71,0,0,0,3.2,1.3,4.55,4.55,0,0,0,2-.5c.3-.3.5-.5.5-.7s0-.3-.1-.4-.2-.2-.4-.3a6.65,6.65,0,0,0-2.3-.8h0a13.39,13.39,0,0,1-2.6-.8,4,4,0,0,1-1.8-1.6,3.45,3.45,0,0,1-.5-1.8,4.13,4.13,0,0,1,1.7-3.2,6.06,6.06,0,0,1,3.5-1.1,7.42,7.42,0,0,1,4.3,1.6,1.26,1.26,0,0,1,.7,1,1.72,1.72,0,0,1-.2,1.2,1.17,1.17,0,0,1-1,.6,1.72,1.72,0,0,1-1.2-.2,5.64,5.64,0,0,0-2.7-1.1,2.86,2.86,0,0,0-1.7.5c-.3.2-.5.4-.5.6s0,.3.1.4.1.2.3.3a5.61,5.61,0,0,0,2.1.7h0a13.09,13.09,0,0,1,2.8.9,4.31,4.31,0,0,1,1.9,1.6,3.82,3.82,0,0,1-1.2,5.3,6.28,6.28,0,0,1-3.7,1.2,8,8,0,0,1-5.1-2,1.39,1.39,0,0,1-.5-1A2,2,0,0,1,705.4,584.8Zm51.2-76.2a2.07,2.07,0,0,1,1-.6,2,2,0,0,1,1.1.3,4.71,4.71,0,0,0,3.2,1.3,4.55,4.55,0,0,0,2-.5c.3-.3.5-.5.5-.7s0-.3-.1-.4-.2-.2-.4-.3a6.65,6.65,0,0,0-2.3-.8h0a17.31,17.31,0,0,1-2.7-.8,4,4,0,0,1-1.8-1.6,3.45,3.45,0,0,1-.5-1.8,4,4,0,0,1,1.7-3.2,6.06,6.06,0,0,1,3.5-1.1,7.42,7.42,0,0,1,4.3,1.6,1.53,1.53,0,0,1,.7,1,1.72,1.72,0,0,1-.2,1.2,1.33,1.33,0,0,1-1,.6,1.72,1.72,0,0,1-1.2-.2,5.77,5.77,0,0,0-2.6-1.1,2.86,2.86,0,0,0-1.7.5c-.3.2-.5.4-.5.6s0,.3.1.4l.3.3a5.61,5.61,0,0,0,2.1.7h0a11.49,11.49,0,0,1,2.8.9,4.31,4.31,0,0,1,1.9,1.6,3.82,3.82,0,0,1-1.2,5.3,6.18,6.18,0,0,1-3.7,1.1,8,8,0,0,1-5.1-2,1.39,1.39,0,0,1-.5-1A1.37,1.37,0,0,1,756.6,508.6Zm-18.3-8.7a1.27,1.27,0,0,1,.5-1.1,1.37,1.37,0,0,1,1.1-.4,2,2,0,0,1,1.1.3,1,1,0,0,1,.5.8,6.89,6.89,0,0,1,3.9-1.2,6.66,6.66,0,0,1,4.9,2.1,6.86,6.86,0,0,1,2,5.1,7,7,0,0,1-2,5,6.66,6.66,0,0,1-4.9,2.1,6,6,0,0,1-3.8-1.2v5a1.6,1.6,0,0,1-3.2,0V499.9Zm-8-5.7a1.72,1.72,0,0,1,1.6-1.6,2.1,2.1,0,0,1,1.1.4,1.61,1.61,0,0,1,.5,1.1v.6a1.72,1.72,0,0,1-1.6,1.6,1.27,1.27,0,0,1-1.1-.5,1.61,1.61,0,0,1-.5-1.1Zm0,5.8a1.56,1.56,0,0,1,2.6-1.1,1.61,1.61,0,0,1,.5,1.1v11.2a1.61,1.61,0,0,1-.5,1.1,1.5,1.5,0,0,1-1.1.4,1.72,1.72,0,0,1-1.6-1.6V500Zm-17.6-5.8a1.6,1.6,0,0,1,3.2,0v5a7.51,7.51,0,0,1,3.1-.8,6.15,6.15,0,0,1,6.2,6.2v6.5a1.6,1.6,0,0,1-3.2,0v-6.5a3.1,3.1,0,0,0-.9-2.2,2.94,2.94,0,0,0-2.2-.9,2.88,2.88,0,0,0-2.1.9,2.94,2.94,0,0,0-.9,2.2v6.5a1.27,1.27,0,0,1-.5,1.1,1.6,1.6,0,0,1-2.7-1.1Zm-61.6,88.6a1.76,1.76,0,0,1,.9-.8,1.67,1.67,0,0,1,1.2.1,1.42,1.42,0,0,1,.8.9,4.83,4.83,0,0,0,1.4,2,4.15,4.15,0,0,0,2.5.8,3.37,3.37,0,0,0,2.6-1.2,3.78,3.78,0,0,0,1.2-2.8V570.4a1.6,1.6,0,0,1,3.2,0v11.4a6.72,6.72,0,0,1-2.1,5,7,7,0,0,1-9.2.7,6.73,6.73,0,0,1-2.5-3.5A1.28,1.28,0,0,1,651.1,582.8ZM484.7,614.4V597h61.4l12.4,8.7h41.4l-11.5,8.7Zm55.8,3v9.9H530v-9.9Zm-58.3,30.3L470.7,639l11.5-8.7H585.8v17.5H482.2ZM530,684.4V650.8h10.5v33.6Zm13.5,0V650.7h45.4V627.3H543.5v-9.9h45.8l14.5-11h62.4v78ZM668.4,499.9a2.1,2.1,0,0,1,.4-1.1,1.71,1.71,0,0,1,2.2,0,1.43,1.43,0,0,1,.5,1.1v.2a5.23,5.23,0,0,1,1.8-1.3,6.32,6.32,0,0,1,2.1-.5,2,2,0,0,1,1.4.5,1.28,1.28,0,0,1,.4,1,1.5,1.5,0,0,1-.4,1.1,1.61,1.61,0,0,1-1.1.5c-1.8,0-3.2,1.4-4.2,4.3v5.5a1.61,1.61,0,0,1-.5,1.1,1.5,1.5,0,0,1-2.6-1.1Zm11.9,87a6.06,6.06,0,0,1-4.8,2.2,6.51,6.51,0,0,1-4.9-2.1,7.5,7.5,0,0,1,0-10.2,6.66,6.66,0,0,1,4.9-2.1,6.06,6.06,0,0,1,4.8,2.2,7.63,7.63,0,0,1,2,5.1A6.8,6.8,0,0,1,680.3,586.9Zm4.6-84.6a2.65,2.65,0,0,0-.8,2.1v6.8a1.61,1.61,0,0,1-.5,1.1,1.71,1.71,0,0,1-2.2,0,1.61,1.61,0,0,1-.5-1.1V499.9a1.61,1.61,0,0,1,.5-1.1,1.5,1.5,0,0,1,1.1-.4,1.42,1.42,0,0,1,1.4.9,5.29,5.29,0,0,1,3-.9,5.82,5.82,0,0,1,4.3,1.8,5.76,5.76,0,0,1,1.8,4.2v6.8a2.1,2.1,0,0,1-.4,1.1,1.28,1.28,0,0,1-1,.4,1.5,1.5,0,0,1-1.1-.4,1.61,1.61,0,0,1-.5-1.1v-6.8a2.88,2.88,0,0,0-.9-2.1,2.78,2.78,0,0,0-2.1-.8A2.35,2.35,0,0,0,684.9,502.3Zm14.2,84.5a6.66,6.66,0,0,1-4.9,2.1,6.89,6.89,0,0,1-3.9-1.2,4.05,4.05,0,0,1-.5.9,1.78,1.78,0,0,1-1,.4,1.72,1.72,0,0,1-1.6-1.6v-17a1.6,1.6,0,0,1,3.2,0v5.4a6.58,6.58,0,0,1,3.8-1.2,6.51,6.51,0,0,1,4.9,2.1,6.86,6.86,0,0,1,2,5.1A6.63,6.63,0,0,1,699.1,586.8Zm-1-76.1a1.39,1.39,0,0,1-.5-1,2,2,0,0,1,.3-1.1,2.07,2.07,0,0,1,1-.6,2,2,0,0,1,1.1.3,4.67,4.67,0,0,0,3.1,1.3,4.55,4.55,0,0,0,2-.5c.3-.3.5-.5.5-.7s0-.3-.1-.4-.2-.2-.4-.3a6.65,6.65,0,0,0-2.3-.8h0a17.31,17.31,0,0,1-2.7-.8,4,4,0,0,1-1.8-1.6,3.45,3.45,0,0,1-.5-1.8,4,4,0,0,1,1.7-3.2,6.06,6.06,0,0,1,3.5-1.1,7.42,7.42,0,0,1,4.3,1.6,1.17,1.17,0,0,1,.6,1,1.72,1.72,0,0,1-.2,1.2,1.17,1.17,0,0,1-1,.6,1.72,1.72,0,0,1-1.2-.2,5.64,5.64,0,0,0-2.7-1.1,2.86,2.86,0,0,0-1.7.5c-.3.2-.5.4-.5.6s0,.3.1.4.1.2.3.3a5.61,5.61,0,0,0,2.1.7h0a13.09,13.09,0,0,1,2.8.9,4,4,0,0,1,2.5,3.6,3.88,3.88,0,0,1-1.8,3.3,6,6,0,0,1-3.7,1.1A9.82,9.82,0,0,1,698.1,510.7Zm6.6,173.8V606.4H805.6V596H839v14H779l-19.4,15,19.3,14.9h60l.1,44.5H704.7Zm152.3,0H842V639.9h15ZM745.3,509.6a3.42,3.42,0,0,0,2.7-1.2,3.91,3.91,0,0,0,1.1-2.9,4.36,4.36,0,0,0-1.1-2.9,3.73,3.73,0,0,0-2.7-1.2,3.57,3.57,0,0,0-2.7,1.2,4.43,4.43,0,0,0-1.1,3,3.76,3.76,0,0,0,1.1,2.8A3.42,3.42,0,0,0,745.3,509.6Zm-51.1,68.1a3.42,3.42,0,0,0-2.7,1.2,3.84,3.84,0,0,0-1.1,2.8,3.93,3.93,0,0,0,1.1,2.8,3.73,3.73,0,0,0,2.7,1.2,3.42,3.42,0,0,0,2.7-1.2,3.69,3.69,0,0,0,1.1-2.8,4.11,4.11,0,0,0-1.1-2.8A3.73,3.73,0,0,0,694.2,577.7Zm-18.7,0a4,4,0,0,0-2.7,1.1,5,5,0,0,0,0,6,3.69,3.69,0,0,0,2.7,1.1,3.48,3.48,0,0,0,2.7-1.1,4.14,4.14,0,0,0,1.1-3,4.43,4.43,0,0,0-1.1-3A4.47,4.47,0,0,0,675.5,577.7Zm-15.7-75.5a5.35,5.35,0,0,0-2.8-1.1,4.65,4.65,0,0,0-2.7,1,3.29,3.29,0,0,0-1.2,2h8.1A4.65,4.65,0,0,0,659.8,502.2Zm0,0a5.35,5.35,0,0,0-2.8-1.1,4.65,4.65,0,0,0-2.7,1,3.29,3.29,0,0,0-1.2,2h8.1A4.65,4.65,0,0,0,659.8,502.2Zm88.2.5a3.73,3.73,0,0,0-2.7-1.2,3.57,3.57,0,0,0-2.7,1.2,4.43,4.43,0,0,0-1.1,3,3.76,3.76,0,0,0,1.1,2.8,3.64,3.64,0,0,0,5.4,0,3.91,3.91,0,0,0,1.1-2.9A3.56,3.56,0,0,0,748,502.7Zm-69.9,76.1a3.86,3.86,0,0,0-5.4,0,5,5,0,0,0,0,6,3.69,3.69,0,0,0,2.7,1.1,3.48,3.48,0,0,0,2.7-1.1,4.14,4.14,0,0,0,1.1-3A3.65,3.65,0,0,0,678.1,578.8ZM748,502.7a3.73,3.73,0,0,0-2.7-1.2,3.57,3.57,0,0,0-2.7,1.2,4.43,4.43,0,0,0-1.1,3,3.76,3.76,0,0,0,1.1,2.8,3.64,3.64,0,0,0,5.4,0,3.91,3.91,0,0,0,1.1-2.9A3.56,3.56,0,0,0,748,502.7Zm-69.9,76.1a3.86,3.86,0,0,0-5.4,0,5,5,0,0,0,0,6,3.69,3.69,0,0,0,2.7,1.1,3.48,3.48,0,0,0,2.7-1.1,4.14,4.14,0,0,0,1.1-3A3.65,3.65,0,0,0,678.1,578.8Zm-18.3-76.6a5.35,5.35,0,0,0-2.8-1.1,4.65,4.65,0,0,0-2.7,1,3.29,3.29,0,0,0-1.2,2h8.1A4.65,4.65,0,0,0,659.8,502.2Zm0,0a5.35,5.35,0,0,0-2.8-1.1,4.65,4.65,0,0,0-2.7,1,3.29,3.29,0,0,0-1.2,2h8.1A4.65,4.65,0,0,0,659.8,502.2Zm88.2.5a3.73,3.73,0,0,0-2.7-1.2,3.57,3.57,0,0,0-2.7,1.2,4.43,4.43,0,0,0-1.1,3,3.76,3.76,0,0,0,1.1,2.8,3.64,3.64,0,0,0,5.4,0,3.91,3.91,0,0,0,1.1-2.9A3.56,3.56,0,0,0,748,502.7Zm0,0a3.73,3.73,0,0,0-2.7-1.2,3.57,3.57,0,0,0-2.7,1.2,4.43,4.43,0,0,0-1.1,3,3.76,3.76,0,0,0,1.1,2.8,3.64,3.64,0,0,0,5.4,0,3.91,3.91,0,0,0,1.1-2.9A3.56,3.56,0,0,0,748,502.7Zm-88.2-.5a5.35,5.35,0,0,0-2.8-1.1,4.65,4.65,0,0,0-2.7,1,3.29,3.29,0,0,0-1.2,2h8.1A4.65,4.65,0,0,0,659.8,502.2Zm0,0a5.35,5.35,0,0,0-2.8-1.1,4.65,4.65,0,0,0-2.7,1,3.29,3.29,0,0,0-1.2,2h8.1A4.65,4.65,0,0,0,659.8,502.2Zm0,0a5.35,5.35,0,0,0-2.8-1.1,4.65,4.65,0,0,0-2.7,1,3.29,3.29,0,0,0-1.2,2h8.1A4.65,4.65,0,0,0,659.8,502.2Zm0,0a5.35,5.35,0,0,0-2.8-1.1,4.65,4.65,0,0,0-2.7,1,3.29,3.29,0,0,0-1.2,2h8.1A4.65,4.65,0,0,0,659.8,502.2Zm0,0a5.35,5.35,0,0,0-2.8-1.1,4.65,4.65,0,0,0-2.7,1,3.29,3.29,0,0,0-1.2,2h8.1A4.65,4.65,0,0,0,659.8,502.2Zm0,0a5.35,5.35,0,0,0-2.8-1.1,4.65,4.65,0,0,0-2.7,1,3.29,3.29,0,0,0-1.2,2h8.1A4.65,4.65,0,0,0,659.8,502.2Zm0,0a5.35,5.35,0,0,0-2.8-1.1,4.65,4.65,0,0,0-2.7,1,3.29,3.29,0,0,0-1.2,2h8.1A4.65,4.65,0,0,0,659.8,502.2Zm0,0a5.35,5.35,0,0,0-2.8-1.1,4.65,4.65,0,0,0-2.7,1,3.29,3.29,0,0,0-1.2,2h8.1A4.65,4.65,0,0,0,659.8,502.2Zm0,0a5.35,5.35,0,0,0-2.8-1.1,4.65,4.65,0,0,0-2.7,1,3.29,3.29,0,0,0-1.2,2h8.1A4.65,4.65,0,0,0,659.8,502.2Zm0,0a5.35,5.35,0,0,0-2.8-1.1,4.65,4.65,0,0,0-2.7,1,3.29,3.29,0,0,0-1.2,2h8.1A4.65,4.65,0,0,0,659.8,502.2Zm0,0a5.35,5.35,0,0,0-2.8-1.1,4.65,4.65,0,0,0-2.7,1,3.29,3.29,0,0,0-1.2,2h8.1A4.65,4.65,0,0,0,659.8,502.2Zm0,0a5.35,5.35,0,0,0-2.8-1.1,4.65,4.65,0,0,0-2.7,1,3.29,3.29,0,0,0-1.2,2h8.1A4.65,4.65,0,0,0,659.8,502.2Zm0,0a5.35,5.35,0,0,0-2.8-1.1,4.65,4.65,0,0,0-2.7,1,3.29,3.29,0,0,0-1.2,2h8.1A4.65,4.65,0,0,0,659.8,502.2Z"/></g></g></g></svg>