<svg xmlns="http://www.w3.org/2000/svg" viewBox="0 0 415 288"><defs><style>.cls-1{fill:#fff;}.cls-2{fill:#16a085;}</style></defs><title>android-cloud</title><g id="Layer_2" data-name="Layer 2"><g id="Layer_1-2" data-name="Layer 1"><path class="cls-1" d="M415,263.5A24.51,24.51,0,0,1,390.5,288H24.5a24.5,24.5,0,0,1,0-49h35a24.5,24.5,0,0,0,0-49h-17a24.5,24.5,0,0,1,0-49h264a24.5,24.5,0,0,1,0,49h-34a24.5,24.5,0,0,0,0,49h118A24.5,24.5,0,0,1,415,263.5Z"/><path class="cls-2" d="M271.38,94a93.63,93.63,0,0,1-12.57,47H96A94,94,0,1,1,271.38,94Z"/><path class="cls-1" d="M205.75,59.68v44.37a4.47,4.47,0,0,1-4.84,4.85c-1.49,0-3,0-4.47,0-.91,0-1.15.31-1.14,1.16,0,4.33.1,8.65,0,13a10.75,10.75,0,0,1-1,4.37c-1.15,2.32-3.61,3.19-6.54,2.7a5.91,5.91,0,0,1-4.64-5,16.1,16.1,0,0,1-.18-2.78c0-3.91,0-7.83,0-11.74,0-1-.3-1.27-1.27-1.25-2.64.06-5.29.06-7.93,0-1,0-1.35.24-1.34,1.3.06,4.32,0,8.65,0,13a8.29,8.29,0,0,1-.49,2.94c-1.05,2.65-3.94,3.93-7.08,3.28s-4.77-2.65-4.79-5.6c0-4.5,0-9,0-13.52,0-1.88.07-1.58-1.64-1.59h-4.47c-3,0-4.55-1.57-4.56-4.57,0-4.88,0-9.76,0-14.64V58.44H205.7C205.72,58.88,205.75,59.28,205.75,59.68Z"/><path class="cls-1" d="M191.22,34.27c.24-.4.41-.72.61-1,1.38-2.05,2.75-4.08,4.11-6.12.31-.46.76-.95.06-1.44s-1.05,0-1.4.57c-1.45,2.17-2.93,4.31-4.35,6.5a1.08,1.08,0,0,1-1.53.52,31.6,31.6,0,0,0-22-.1,1.29,1.29,0,0,1-1.79-.65c-1.5-2.18-3.05-4.32-4.58-6.47-.33-.47-.67-.8-1.28-.31s-.44.81-.09,1.32c1.32,1.89,2.61,3.81,3.89,5.72.33.48.63,1,1,1.5-8,4.22-13.17,10.41-14.61,19.51h56.52C204.32,44.68,199.25,38.4,191.22,34.27ZM165.46,46.39a3.22,3.22,0,0,1-.3-6.42l.34,0a2.36,2.36,0,0,1,.65.08l.31.07a3.15,3.15,0,0,1,1.07.57,3.22,3.22,0,0,1,1.1,1.82,2.79,2.79,0,0,1,.07.64A3.19,3.19,0,0,1,165.46,46.39Zm24.33,0a3.24,3.24,0,0,1-3.28-3.24c0-.12,0-.22,0-.33a1.66,1.66,0,0,1,0-.22.75.75,0,0,1,0-.16,1.05,1.05,0,0,1,.06-.24c0-.12.08-.23.13-.35l0,0a2.38,2.38,0,0,1,.17-.31,2.44,2.44,0,0,1,.22-.31l.25-.29a2.86,2.86,0,0,1,.47-.39,2.65,2.65,0,0,1,.55-.3,3.05,3.05,0,0,1,.91-.24l.33,0h0l.33,0,.4.07.18,0,.12,0a.85.85,0,0,1,.22.09h0l.24.11a3.47,3.47,0,0,1,.57.37,2.39,2.39,0,0,1,.23.22c.06.05.1.11.15.16s.09.12.14.17a3,3,0,0,1,.49.9.84.84,0,0,1,.05.17,2.07,2.07,0,0,1,.11.55c0,.11,0,.21,0,.33A3.27,3.27,0,0,1,189.79,46.39Z"/><path class="cls-1" d="M221.85,91.38c0,3.43-1.72,5.27-5.12,5.45a11.51,11.51,0,0,1-2.56-.11c-3-.54-4.45-2.26-4.47-5.49,0-8.87-.12-17.74,0-26.6.09-5.4,4-7.14,8.55-5.9,2.18.6,3.52,2.64,3.54,5.27.05,4.66,0,9.31,0,14h0C221.85,82.44,221.86,86.91,221.85,91.38Z"/><path class="cls-1" d="M144.94,92.49a4.43,4.43,0,0,1-3.84,4.19,12.14,12.14,0,0,1-4,0c-2.82-.53-4.18-2.3-4.19-5.21,0-1.84,0-3.69,0-5.53,0-2.66,0-5.33,0-8V73.8q0-4.53,0-9.06c0-4.94,3.57-7.37,8.44-6,2.16.58,3.24,2.26,3.56,4.43A13.22,13.22,0,0,1,145,65v24.8A23.75,23.75,0,0,1,144.94,92.49Z"/></g></g></svg>

