<svg xmlns="http://www.w3.org/2000/svg" viewBox="0 0 415 288"><defs><style>.cls-1{fill:#16a085;}.cls-2{fill:#fff;}</style></defs><title>appstore-cloud</title><g id="Layer_2" data-name="Layer 2"><g id="Layer_1-2" data-name="Layer 1"><path class="cls-1" d="M415,263.5A24.51,24.51,0,0,1,390.5,288H24.5a24.5,24.5,0,0,1,0-49h35a24.5,24.5,0,0,0,0-49h-17a24.5,24.5,0,0,1,0-49h264a24.5,24.5,0,0,1,0,49h-34a24.5,24.5,0,0,0,0,49h118A24.5,24.5,0,0,1,415,263.5Z"/><path class="cls-2" d="M269,94a93.63,93.63,0,0,1-12.57,47H93.53A94,94,0,1,1,269,94Z"/><path class="cls-1" d="M226.13,96.5v1.08c-.09.43-.15.86-.28,1.29a6.09,6.09,0,0,1-4.78,4.7,2.72,2.72,0,0,1-.58.05H211c.1.2.16.34.23.47,1.95,3.48,3.95,7,5.85,10.47a6.25,6.25,0,0,1-4.53,9.35,6,6,0,0,1-5.89-2.29,22.51,22.51,0,0,1-1.79-3q-11.61-20.11-23.2-40.25a17.85,17.85,0,0,1-1.39-4.06,15.85,15.85,0,0,1-.55-4.34,16.64,16.64,0,0,1,3.15-9.83c.51-.72,1.08-1.4,1.67-2.16.11.18.19.28.25.4q9.17,15.92,18.31,31.85a.82.82,0,0,0,.81.47c5.34,0,10.69,0,16,0a6.08,6.08,0,0,1,3.92,1.44,5.9,5.9,0,0,1,2.2,4.05A1.92,1.92,0,0,0,226.13,96.5Z"/><path class="cls-1" d="M162.4,90.18c-.08.14-.15.29-.27.52H182.8a1.66,1.66,0,0,1,.78.21,14.7,14.7,0,0,1,4.56,3.81c2.08,2.77,2,5.69.52,8.67a.53.53,0,0,1-.35.21,1.41,1.41,0,0,1-.41,0q-28.64,0-57.27,0a6.8,6.8,0,0,1-6.15-9.73,6,6,0,0,1,4.37-3.12,5.46,5.46,0,0,1,1.07-.09h16.5a.75.75,0,0,0,.77-.45q10-17.64,19.94-35.27a.73.73,0,0,0,0-.8c-2-3.82-4.09-7.63-6-11.49a6.11,6.11,0,0,1,4.12-8.76,7.25,7.25,0,0,1,6.68,2,1.33,1.33,0,0,1,.27.41l2.72,5,.26.45c.12-.17.21-.29.29-.43,1-1.75,2-3.5,3-5.26a3,3,0,0,1,.93-1,7.61,7.61,0,0,1,4.8-1.54,5.62,5.62,0,0,1,5,3.36,9.59,9.59,0,0,1,.77,5.07,1.61,1.61,0,0,1-.24.65L174.37,69.34Z"/><path class="cls-1" d="M150.71,110.29q-2.86,4.69-5.71,9.39c-.51.83-1,1.66-1.51,2.48a1.47,1.47,0,0,1-.31.38,6.89,6.89,0,0,1-9.54-1.08,6.2,6.2,0,0,1-1-5.58,2.27,2.27,0,0,1,.21-.45c1.66-2.9,3.33-5.8,5-8.71a.82.82,0,0,1,.62-.47l3-.43a14.13,14.13,0,0,1,8.21,3.05c.33.25.63.53,1,.78S150.88,110,150.71,110.29Z"/></g></g></svg>