<svg xmlns="http://www.w3.org/2000/svg" viewBox="0 0 486 291"><defs><style>.cls-1{fill:#16a085;}.cls-2{fill:#fff;}.cls-3{fill:#1abc9c;}.cls-4{fill:#19937b;}</style></defs><title>flutter-cloud</title><g id="Layer_2" data-name="Layer 2"><g id="Layer_1-2" data-name="Layer 1"><path class="cls-1" d="M415,263.5A24.51,24.51,0,0,1,390.5,288H24.5a24.5,24.5,0,0,1,0-49h35a24.5,24.5,0,0,0,0-49h-17a24.5,24.5,0,0,1,0-49h264a24.5,24.5,0,0,1,0,49h-34a24.5,24.5,0,0,0,0,49h118A24.5,24.5,0,0,1,415,263.5Z"/><path class="cls-2" d="M267.91,94a93.63,93.63,0,0,1-12.57,47H92.48A94,94,0,1,1,267.91,94Z"/><polygon class="cls-3" points="215.18 25 148.52 91.66 132.64 75.79 183.44 25 215.18 25"/><polygon class="cls-3" points="215.18 72.3 187.88 99.6 172.17 83.89 183.75 72.3 215.18 72.3"/><rect class="cls-4" x="161.05" y="88.49" width="22.22" height="22.22" transform="translate(-20 150.91) rotate(-45)"/><polygon class="cls-1" points="215.18 126.9 183.75 126.9 172.17 115.31 187.88 99.6 215.18 126.9"/><circle class="cls-2" cx="462" cy="267" r="24"/></g></g></svg>