<svg xmlns="http://www.w3.org/2000/svg" viewBox="0 0 490.5 288"><defs><style>.cls-1{fill:#fff;}.cls-2{fill:#16a085;}</style></defs><title>playstore-cloud</title><g id="Layer_2" data-name="Layer 2"><g id="Layer_1-2" data-name="Layer 1"><path class="cls-1" d="M415,263.5A24.51,24.51,0,0,1,390.5,288H24.5a24.5,24.5,0,0,1,0-49h35a24.5,24.5,0,0,0,0-49h-17a24.5,24.5,0,0,1,0-49h264a24.5,24.5,0,0,1,0,49h-34a24.5,24.5,0,0,0,0,49h118A24.5,24.5,0,0,1,415,263.5Z"/><path class="cls-2" d="M273.93,94a93.63,93.63,0,0,1-12.57,47H98.5A94,94,0,1,1,273.93,94Z"/><path class="cls-1" d="M226.38,79a8.68,8.68,0,0,0-4.47-6.36L203,61.79l-56-32.32a9.35,9.35,0,0,0-5.93-1.36,8.75,8.75,0,0,0-3.42,1.13A7.92,7.92,0,0,0,135,31.7a9.43,9.43,0,0,0-1.66,5.19q0,21.78,0,43.56V124a8.3,8.3,0,0,0,1,4.11,7.71,7.71,0,0,0,1.42,2.16,10.22,10.22,0,0,0,3,1.93,8.63,8.63,0,0,0,7.61-.39c4.65-2.62,9.27-5.32,13.89-8q21.69-12.5,43.36-25l10.1-5.84c2.86-1.65,5.74-3.26,8.56-5A8.7,8.7,0,0,0,226.38,79ZM200.45,96.82,155,123.06l-9.88,5.7a5.35,5.35,0,0,1-4,.66l46.3-46.3,13.37,13.51Zm-13.2-18.53L140.41,31.63a8.46,8.46,0,0,1,1.17-.26,5.58,5.58,0,0,1,3.44.7L175,49.4,200.36,64l.72.42Z"/><circle class="cls-2" cx="466.5" cy="262.5" r="24"/></g></g></svg>