<svg xmlns="http://www.w3.org/2000/svg" viewBox="0 0 108.24 150.89"><defs><style>.cls-1{fill:#d3ab90;}.cls-2{fill:#7f8c8d;}.cls-3{fill:#95a5a6;}.cls-4{fill:#1abc9c;}</style></defs><title>home-graphic-right</title><g id="Layer_2" data-name="Layer 2"><g id="Layer_1-2" data-name="Layer 1"><path class="cls-1" d="M41.69,80.39A7,7,0,0,1,37,85v1.29H33V85a7,7,0,0,1-4.69-4.65A6.9,6.9,0,0,0,33,83.25a5.47,5.47,0,0,0,1,.08h2a5.47,5.47,0,0,0,1-.08A6.9,6.9,0,0,0,41.69,80.39Z"/><path d="M43,73.33v3a7,7,0,0,1-6,6.92,5.47,5.47,0,0,1-1,.08H34a5.47,5.47,0,0,1-1-.08,7,7,0,0,1-6-6.92v-3a7,7,0,0,1,7-7h2A7,7,0,0,1,43,73.33Z"/><path d="M51,147.27v1.12a2.5,2.5,0,0,1-2.5,2.5h-6a2.5,2.5,0,0,1-2.5-2.5v-1.12a2.49,2.49,0,0,1,.8-1.83l-2.25-13.18-3-17.74a1.23,1.23,0,0,1,0-.19h-1a1.49,1.49,0,0,1,0,.21L32.1,132.39,30.44,145A2.51,2.51,0,0,1,32,147.27v1.12a2.5,2.5,0,0,1-2.5,2.5h-6a2.5,2.5,0,0,1-2.5-2.5v-1.12a2.5,2.5,0,0,1,2.5-2.5h.14l1.77-13.27,2.28-17.17H27a2,2,0,0,1-2-2,2,2,0,0,1,2-2H43a2,2,0,0,1,2,2,2,2,0,0,1-2,2h-.67l2.87,16.8,2.34,13.64h1A2.5,2.5,0,0,1,51,147.27Z"/><path class="cls-2" d="M57.44,26.05a17,17,0,0,1-13.73,8.14L76.56,89.6a17,17,0,0,1,13.73-8.13ZM69,61.26a3.42,3.42,0,1,1,1.19-4.68A3.42,3.42,0,0,1,69,61.26Z"/><path class="cls-3" d="M69,61.26a3.42,3.42,0,1,1,1.19-4.68A3.42,3.42,0,0,1,69,61.26Z"/><path class="cls-3" d="M57.44,26.05a17,17,0,0,1-13.73,8.14,17.11,17.11,0,0,1-15.43-26l6,10.08a8,8,0,0,0,10.86,2.84l.07,0,.05,0A8,8,0,0,0,48,10.1L42,0a17.1,17.1,0,0,1,15.42,26Z"/><path class="cls-3" d="M105.72,107.5l-5.39-9.1a8,8,0,0,0-13.74,8.14l5.39,9.1a17.1,17.1,0,0,1-15.42-26s0,0,0,0a17,17,0,0,1,13.73-8.13,17.11,17.11,0,0,1,15.43,26Z"/><path class="cls-1" d="M18.55,78.87l-1.92-1.52a2.5,2.5,0,0,0-3.33,3.71l-8.58-6.8a3.38,3.38,0,0,1-.72.07,4,4,0,1,1,4-4,.76.76,0,0,1,0,.15l10.34,8.19A2.09,2.09,0,0,1,18.55,78.87Z"/><path class="cls-1" d="M70,70.33a4,4,0,0,1-4,4,4.17,4.17,0,0,1-.8-.08l-8.87,7a2.53,2.53,0,0,0,1-2,2.5,2.5,0,0,0-4-2L62,70.4v-.07a4,4,0,1,1,8,0Z"/><path class="cls-4" d="M57.28,79.3a2.53,2.53,0,0,1-1,2l-1.69,1.34L45,90.25v16.2a3.87,3.87,0,0,1-3.88,3.88H28.88A3.87,3.87,0,0,1,25,106.45V90.36L13.53,81.27a2.09,2.09,0,0,1-.22-.2h0a2.52,2.52,0,0,1-.72-1.76,2.5,2.5,0,0,1,4-2l1.92,1.52h0l9.51,7.54a3.59,3.59,0,0,1,.81-.09H41.12a3.26,3.26,0,0,1,.7.07l9.75-7.73,1.66-1.32,0,0a2.5,2.5,0,0,1,4,2Z"/></g></g></svg>