<svg xmlns="http://www.w3.org/2000/svg" viewBox="0 0 313.91 230.29"><defs><style>.cls-1{fill:#2980b9;}.cls-2{fill:#3498db;}.cls-3{fill:#d3ab90;}</style></defs><title>home-graphic-left</title><g id="Layer_2" data-name="Layer 2"><g id="Layer_1-2" data-name="Layer 1"><path class="cls-1" d="M168,230.29a4,4,0,0,1-3-3.86v-.08A31.74,31.74,0,0,1,168,230.29Z"/><path class="cls-2" d="M173,229.79v.5a11.12,11.12,0,0,0-.06-1.16A3.52,3.52,0,0,1,173,229.79Z"/><path class="cls-1" d="M145,87.63V98.29a4,4,0,1,1-8,0v-6a4,4,0,0,0-8,0v15a4,4,0,1,1-8,0v-23a3.18,3.18,0,0,0,0-.62c0-.12,0-.24-.07-.36v0h8A31.91,31.91,0,0,1,145,87.63Z"/><path class="cls-2" d="M161,76.79v17.5a4,4,0,0,1-4,4,3.88,3.88,0,0,1-1-.14,4,4,0,0,1-3-3.86v-12a4,4,0,0,0-8,0v16a4,4,0,1,1-8,0v-6a4,4,0,0,0-8,0v15a4,4,0,1,1-8,0v-23a3.18,3.18,0,0,0,0-.62c0-.12,0-.24-.07-.36v0s0,0,0,0l-.06-.21a1.59,1.59,0,0,0-.07-.2.61.61,0,0,0,0-.12,2.09,2.09,0,0,0-.14-.3,1.28,1.28,0,0,0-.11-.2,3.19,3.19,0,0,0-.26-.38,4.23,4.23,0,0,0-.34-.4A4,4,0,0,0,117,80.29l-.41,0-.48.08h0l-.06,0a2.46,2.46,0,0,0-.29.09h0l-.08,0h0a2.31,2.31,0,0,0-.51.22l-.31.18-.33.25-.26.23,0,0a2.57,2.57,0,0,0-.21.24l-.14.19a.13.13,0,0,0,0,.06l-.12.18a2.56,2.56,0,0,0-.22.4,3.25,3.25,0,0,0-.18.43,1.61,1.61,0,0,0-.09.29s0,0,0,0v0a2.33,2.33,0,0,0-.08.36,3.18,3.18,0,0,0,0,.62v44a4,4,0,0,1-8,0v-21a4,4,0,0,0-8,0v42a4,4,0,0,1-8,0v-65a3.18,3.18,0,0,0,0-.62c0-.12,0-.24-.07-.36v0s0,0,0,0a2.8,2.8,0,0,0-.13-.41,3.23,3.23,0,0,0-.3-.62,3.19,3.19,0,0,0-.26-.38,4.23,4.23,0,0,0-.34-.4A4,4,0,0,0,85,80.29l-.41,0a3.82,3.82,0,0,0-1.49.46l-.31.18-.33.25-.26.23a4,4,0,0,0-1,1.55,1.61,1.61,0,0,0-.09.29s0,0,0,0v0a2.33,2.33,0,0,0-.08.36,3.18,3.18,0,0,0,0,.62v35a4,4,0,1,1-8,0v-23a4,4,0,0,0-8,0v5a4,4,0,1,1-8,0v-13H11.5a11.5,11.5,0,0,1,0-23h138a11.49,11.49,0,0,1,11.42,10.2.59.59,0,0,1,0,.14A11.12,11.12,0,0,1,161,76.79Z"/><path class="cls-1" d="M161,115.41v82.76a32.12,32.12,0,0,1-32.12,32.12H32.12A32.12,32.12,0,0,1,0,198.17V115.41A32.09,32.09,0,0,1,14.91,88.29H57v13a4,4,0,1,0,8,0v-5a4,4,0,1,1,8,0v23a4,4,0,1,0,8,0v-35a3.18,3.18,0,0,1,0-.62,2.33,2.33,0,0,1,.08-.36v0s0,0,0,0a1.61,1.61,0,0,1,.09-.29,4,4,0,0,1,1-1.55l.26-.23.33-.25.31-.18a3.82,3.82,0,0,1,1.49-.46l.41,0a4,4,0,0,1,2.83,1.17,4.23,4.23,0,0,1,.34.4,3.19,3.19,0,0,1,.26.38,3.23,3.23,0,0,1,.3.62,2.8,2.8,0,0,1,.13.41s0,0,0,0v0c0,.12.05.24.07.36a3.18,3.18,0,0,1,0,.62v65a4,4,0,0,0,8,0v-42a4,4,0,1,1,8,0v21a4,4,0,0,0,8,0v-44a3.18,3.18,0,0,1,0-.62,2.33,2.33,0,0,1,.08-.36v0s0,0,0,0a1.61,1.61,0,0,1,.09-.29,3.25,3.25,0,0,1,.18-.43,2.56,2.56,0,0,1,.22-.4l.12-.18a.13.13,0,0,1,0-.06l.14-.19a2.57,2.57,0,0,1,.21-.24l0,0,.26-.23.33-.25.31-.18a2.31,2.31,0,0,1,.51-.22h0l.08,0h0a2.46,2.46,0,0,1,.29-.09l.06,0h0l.48-.08.41,0a4,4,0,0,1,2.83,1.17,4.23,4.23,0,0,1,.34.4,3.19,3.19,0,0,1,.26.38,1.28,1.28,0,0,1,.11.2,2.09,2.09,0,0,1,.14.3.61.61,0,0,1,0,.12,1.59,1.59,0,0,1,.07.2l.06.21s0,0,0,0v0c0,.12.05.24.07.36a3.18,3.18,0,0,1,0,.62v23a4,4,0,1,0,8,0v-15a4,4,0,1,1,8,0v6a4,4,0,1,0,8,0v-16a4,4,0,1,1,8,0v12a4,4,0,0,0,3,3.86A32,32,0,0,1,161,115.41Z"/><path d="M219.39,130.26a4.88,4.88,0,0,0,1.61,2.11,5,5,0,0,0,4,.92v31.5a12.45,12.45,0,0,1-4,9.16v47.84a8.5,8.5,0,0,1-17,0V174a12.45,12.45,0,0,1-4-9.16v-54a12.45,12.45,0,0,1,4-9.16V67.79a8.45,8.45,0,0,1,1.42-4.7A12.51,12.51,0,0,1,200.05,54c2.87,2.08,6.81,3.38,12.17,3.38,5.9,0,10-1.75,12.77-4.14a12.45,12.45,0,0,1-3.65,8.42,12.29,12.29,0,0,1-1.76,1.46,8.45,8.45,0,0,1,1.42,4.7v33.84l.34.32a12.47,12.47,0,0,1,3.66,8.84v12.69a5.08,5.08,0,0,0-2.84.28,4.29,4.29,0,0,0-1.16.67A5,5,0,0,0,219.39,130.26Z"/><path d="M221,124.43v7.94a4.88,4.88,0,0,1-1.61-2.11A5,5,0,0,1,221,124.43Z"/><path d="M225,123.48v9.81a5,5,0,0,1-4-.92,4.88,4.88,0,0,1-1.61-2.11,5,5,0,0,1,1.61-5.83,4.29,4.29,0,0,1,1.16-.67A5.08,5.08,0,0,1,225,123.48Z"/><path class="cls-1" d="M231.21,41.43c-.6,3.09-2,8.19-6.22,11.78-2.81,2.39-6.87,4.12-12.77,4.14-5.36,0-9.3-1.3-12.17-3.38-8-5.76-7.62-17.46-6.19-23.78a10.93,10.93,0,0,1,4.35-1.9,14.43,14.43,0,0,1,11,3c1.95,1.57,2,2.58,5,5,2.43,2,4.53,3.64,6,3s.8-3.27,3-8c1-2.24,1.68-3.61,3-4,1.63-.48,3.46.79,5.32,2.44A40.91,40.91,0,0,1,231.21,41.43Z"/><path class="cls-2" d="M231.53,29.73c-1.86-1.65-3.69-2.92-5.32-2.44-1.32.39-2,1.76-3,4-2.2,4.73-1.44,7.32-3,8s-3.57-1-6-3c-3-2.42-3.05-3.43-5-5a14.43,14.43,0,0,0-11-3,10.93,10.93,0,0,0-4.35,1.9,16.64,16.64,0,0,1,1.64-4.47c4.28-7.57,7.71-4.43,11.42-12.86S202.64,0,202.64,0a30.41,30.41,0,0,1,10,2.86C217.11,5,229.5,13.38,231.53,29.73Z"/><path class="cls-3" d="M296,116.85a7,7,0,0,1-6.81,5.41h-.27v2.36h-5.82v-2.36h-.27a7,7,0,0,1-6.81-5.41,7,7,0,0,0,5.35,2.5h9.28A7,7,0,0,0,296,116.85Z"/><path d="M297.64,101.62v10.73a6.86,6.86,0,0,1-1.65,4.5,7,7,0,0,1-5.35,2.5h-9.28a7,7,0,0,1-5.35-2.5,6.86,6.86,0,0,1-1.65-4.5V101.62a7,7,0,0,1,7-7h9.28A7,7,0,0,1,297.64,101.62Z"/><path class="cls-3" d="M307.78,157.47a5,5,0,1,1-6.53-2.86l.25-.09a1.61,1.61,0,0,1,.29-.09l4.64-7.88,1.51,2a3.36,3.36,0,0,0,4.7.61l.11-.09Z"/><path d="M261.09,194l-.6-.44a.81.81,0,0,1-.1-.09Z"/><path d="M299.93,221.73h-2.6V172.62h1.36a3.31,3.31,0,0,0,3.31-3.31,3.26,3.26,0,0,0-1.61-2.83,3.2,3.2,0,0,0-1.7-.48H272.41a3.25,3.25,0,0,0-1.77.52,2.76,2.76,0,0,0-.57.45,3.31,3.31,0,0,0,1.9,5.62L262.1,186.2l0,0-2.26,3.12a3,3,0,0,0-.08,3.41,2.56,2.56,0,0,0,.2.26,2.31,2.31,0,0,0,.45.43l.7.53.2.15,15.52,11.62-2.15,2.87a2.5,2.5,0,0,0,.5,3.5l2.85,2.13a2.5,2.5,0,0,0,3.5-.5l2.82-3.77,3.41-4.55a1.64,1.64,0,0,0,.14-.22v20.6a2.91,2.91,0,0,0,.23,1.15v0a3.58,3.58,0,0,0,3.56,3.3h8.26a3.57,3.57,0,0,0,3.57-3.57V225.3A3.57,3.57,0,0,0,299.93,221.73ZM287.88,202.3a2.62,2.62,0,0,0-.42-.39l-16.25-12.17,11.25-15.51a3,3,0,0,0,.56-1.61h4.86Z"/><path class="cls-3" d="M249.5,131.48H228A4.94,4.94,0,0,1,225.9,133a4.36,4.36,0,0,1-.9.26,5,5,0,0,1-4-.92,4.88,4.88,0,0,1-1.61-2.11,5,5,0,0,1,1.61-5.83,4.29,4.29,0,0,1,1.16-.67,5.08,5.08,0,0,1,2.84-.28,5,5,0,0,1,2.47,1.29h22a3.38,3.38,0,0,0-2.37,1,3.32,3.32,0,0,0-1,2.37A3.36,3.36,0,0,0,249.5,131.48Z"/><path class="cls-1" d="M313.91,146.15a3.31,3.31,0,0,1-.47,1.7l-.69,1.18-.11.09a3.36,3.36,0,0,1-4.7-.61l-1.51-2-4.93-6.4v14.37l-.25.09a5,5,0,0,0,.19,9.35,5.15,5.15,0,0,1-1.05,2.52,3.2,3.2,0,0,0-1.7-.48H272.41a3.25,3.25,0,0,0-1.77.52,5.31,5.31,0,0,1-1.14-3.31V131.48h-20a3.36,3.36,0,0,1-3.35-3.36,3.32,3.32,0,0,1,1-2.37,3.38,3.38,0,0,1,2.37-1h24.17a5.16,5.16,0,0,1,1.25-.15h21.16A5.41,5.41,0,0,1,301.4,129l11.06,14.36.79,1a3.4,3.4,0,0,1,.64,1.41C313.9,145.94,313.91,146,313.91,146.15Z"/></g></g></svg>