<?xml version="1.0" encoding="utf-8"?>
<!-- Generator: Adobe Illustrator 23.0.1, SVG Export Plug-In . SVG Version: 6.00 Build 0)  -->
<svg version="1.1" id="Layer_1" xmlns="http://www.w3.org/2000/svg" xmlns:xlink="http://www.w3.org/1999/xlink" x="0px" y="0px"
	 viewBox="0 0 973 571.1" style="enable-background:new 0 0 973 571.1;" xml:space="preserve">
<style type="text/css">
	.st0{opacity:0.1;fill:#7F8C8D;}
	.st1{fill:#B7957E;}
	.st2{fill:#E67E22;}
	.st3{fill:#7F8C8D;}
	.st4{fill:#FFFFFF;}
	.st5{fill:#95A5A6;}
	.st6{fill:#2980B9;}
	.st7{fill:#D3AB90;}
	.st8{fill:#3498DB;}
	.st9{fill:#16A085;}
	.st10{fill:none;}
	.st11{fill:#1ABC9C;}
	.st12{fill:#C0392B;}
	.st13{fill:#E74C3C;}
</style>
<path class="st0" d="M899.6,255.2L899.6,255.2c-0.3-0.3-0.7-0.7-1.1-1L718.4,74c-11.5-11.5-30.1-11.5-41.5,0l0,0
	c-11.5,11.5-11.5,30.1,0,41.5L837.3,276L676.8,436.3c-11.5,11.5-11.5,30.1,0,41.5l0,0c11.5,11.5,30.1,11.5,41.5,0L899,297.4
	c0.2-0.2,0.4-0.4,0.6-0.6l0,0c3.9-3.9,6.5-8.7,7.8-13.8C909.7,273.3,907.1,262.7,899.6,255.2z"/>
<title>landing-home</title>
<g>
	<g id="Layer_1-2">
		<path class="st1" d="M628.9,428.8h-0.4c-1.4,0-2.5-1.1-2.5-2.5v-16.7c0-1.4,1.1-2.5,2.5-2.5h0.4c1.4,0,2.5,1.1,2.5,2.5v16.7
			C631.4,427.7,630.3,428.8,628.9,428.8z"/>
		<path class="st1" d="M904.9,342.8L904.9,342.8c1.4-1.3,3.7-1.3,5,0.2l14.6,15.6c1.3,1.4,1.3,3.6-0.2,5l0,0c-1.4,1.3-3.6,1.3-5-0.2
			l-14.6-15.6C903.4,346.4,903.5,344.1,904.9,342.8z"/>
		<path d="M944.6,484.3l-0.5,0.2h-8.8c-2.6-0.2-4.6-2.4-4.4-5c0.1-2.3,1.9-4.1,4.2-4.4l-9-28.4c-0.2-0.7-0.3-1.5-0.2-2.2
			c0-0.1,0-0.3,0-0.4c0-0.3,0.1-0.5,0.2-0.8l5.1-18l0,0l0.1-0.2h9.5c0.9,0,1.7-0.3,2.4-0.8l-5.8,20.5l10,31.5l0.5,1.7
			C948.6,480.6,947.2,483.4,944.6,484.3z"/>
		<path class="st2" d="M316.8,478L135.6,296.8c-11.5-11.5-11.5-30.1,0-41.5l0,0c11.5-11.5,30.1-11.5,41.5,0l181.2,181.2
			c11.5,11.5,11.5,30.1,0,41.5l0,0C346.9,489.4,328.3,489.4,316.8,478z"/>
		<path class="st2" d="M297,389.6l44.3,44.3c1.8,1.8,1.8,4.6,0,6.4l0,0c-1.8,1.8-4.6,1.8-6.4,0L290.6,396c-1.8-1.8-1.8-4.6,0-6.4
			l0,0C292.4,387.9,295.3,387.9,297,389.6z"/>
		<path class="st3" d="M247.2,226.8L198,276l-20.8,20.8c-11.3,11.3-29.6,11.5-41.1,0.4c-0.1-0.1-0.3-0.3-0.4-0.4l0,0
			c-3.5-3.5-6-7.7-7.4-12.4c-0.1-0.5-0.3-0.9-0.4-1.4s-0.2-0.9-0.3-1.4c-1.9-9.6,1.2-19.5,8.1-26.4l70-70L247.2,226.8z"/>
		<circle class="st4" cx="156.5" cy="276.1" r="23"/>
		<path class="st3" d="M164.4,274.5l-11.3,8.9c-1.6,1.2-3.8,1-5-0.6l0,0c-1.2-1.6-1-3.8,0.6-5l11.3-8.9c1.6-1.2,3.8-1,5,0.6l0,0
			C166.2,271,166,273.3,164.4,274.5z"/>
		<path class="st3" d="M596.9,37l-66.3,247.5c-4.2,15.7-20.3,25-36,20.8l0,0c-15.7-4.2-25-20.3-20.8-36l66.3-247.5
			c4.2-15.7,20.3-25,36-20.8l0,0C591.8,5.2,601.1,21.3,596.9,37z"/>
		<path class="st3" d="M516.4,161.7l32.2-120.3c0.6-2.4,3.1-3.8,5.5-3.2l0,0c2.4,0.6,3.8,3.1,3.2,5.5L525.1,164
			c-0.6,2.4-3.1,3.8-5.5,3.2l0,0C517.2,166.6,515.8,164.1,516.4,161.7z"/>
		<path class="st2" d="M407.9,515.6l66.3-247.5c4.2-15.7,20.3-25,36-20.8l0,0c15.7,4.2,25,20.3,20.8,36l-66.3,247.5
			c-4.2,15.7-20.3,25-36,20.8l0,0C413,547.4,403.7,531.3,407.9,515.6z"/>
		<path class="st2" d="M486.7,397l-30.6,114.1c-0.6,2.4-3.1,3.8-5.5,3.2l0,0c-2.4-0.6-3.8-3.1-3.2-5.5L478,394.7
			c0.6-2.4,3.1-3.8,5.5-3.2l0,0C485.9,392.2,487.4,394.6,486.7,397z"/>
		<circle class="st4" cx="502.1" cy="276.4" r="23"/>
		<path class="st3" d="M506.8,282.3l-13.4-5.3c-1.8-0.7-2.7-2.8-2-4.7l0,0c0.7-1.8,2.8-2.7,4.7-2l13.4,5.3c1.8,0.7,2.7,2.8,2,4.7
			l0,0C510.7,282.1,508.7,283,506.8,282.3z"/>
		<path class="st5" d="M973,537.5c0,2.4-2,4.4-4.4,4.4c-1.8,0-3.5-1.1-4.1-2.9l-9.1-24.9H955h-23.8c-2.4,0.1-4.5-1.8-4.6-4.2
			c-0.1-2.4,1.8-4.5,4.2-4.6c0.1,0,0.3,0,0.4,0h21l-11.6-31.9h-16l-4.2,11.6H938c2.4,0,4.4,2,4.4,4.4c0,2.4-2,4.4-4.4,4.4h-20.9
			l-16.5,45.5c-0.6,1.7-2.3,2.9-4.1,2.9c-0.5,0-1-0.1-1.5-0.3c-2.3-0.8-3.5-3.4-2.6-5.7l24.9-68.5c0.1-0.3,0.2-0.5,0.4-0.8l0.1-0.1
			c0.8-1.3,2.2-2.2,3.8-2.1h22.1c1.2,0,2.3,0.5,3.1,1.3c0.1,0.1,0.2,0.2,0.3,0.3l0,0c0.4,0.4,0.7,0.9,0.9,1.5l24.9,68.3
			C972.9,536.5,973,537,973,537.5z"/>
		<path class="st5" d="M81,566.5c0.1,2.4-1.8,4.4-4.3,4.5c-1.9,0.1-3.7-1.2-4.3-3l-9.1-24.9h-0.4H39.2c-2.4,0.1-4.5-1.8-4.6-4.2
			c-0.1-2.4,1.8-4.5,4.2-4.6c0.1,0,0.3,0,0.4,0h21l-11.6-31.9h-16L28.3,514H46c2.4,0,4.4,2,4.4,4.4s-2,4.4-4.4,4.4l0,0H25.1
			L8.6,568.2c-0.6,1.7-2.3,2.9-4.1,2.9c-0.5,0-1-0.1-1.5-0.3c-2.3-0.8-3.5-3.4-2.6-5.7l24.9-68.5c0.1-0.3,0.2-0.5,0.4-0.8l0.1-0.1
			c0.8-1.3,2.2-2.2,3.8-2.1h22.1c1.2,0,2.3,0.5,3.1,1.3c0.1,0.1,0.2,0.2,0.3,0.3l0,0c0.4,0.4,0.7,0.9,0.9,1.5L80.7,565
			C80.9,565.5,81,566,81,566.5z"/>
		<path class="st5" d="M643.7,526.6v3.8h-5.2v-3.8c-0.1-1.4,1-2.6,2.4-2.7c1.4-0.1,2.6,1,2.7,2.4
			C643.7,526.4,643.7,526.5,643.7,526.6z"/>
		<path class="st5" d="M643.7,526.6v3.8h-5.2v-3.8c-0.1-1.4,1-2.6,2.4-2.7c1.4-0.1,2.6,1,2.7,2.4
			C643.7,526.4,643.7,526.5,643.7,526.6z"/>
		<path class="st5" d="M638.6,530.4h5.2v24.1c-0.1,1.4-1.3,2.5-2.7,2.4c-1.3-0.1-2.3-1.1-2.4-2.4V530.4z"/>
		<path class="st5" d="M692.6,526c0,2.4-2,4.4-4.4,4.4h-5.6v24.1c0,0.7-0.3,1.3-0.8,1.8c-0.5,0.5-1.1,0.7-1.8,0.8
			c-1.4,0-2.6-1.2-2.6-2.6l0,0v-24.1h-33.8v-3.8c0.1-1.4-1-2.6-2.4-2.7c-1.4-0.1-2.6,1-2.7,2.4c0,0.1,0,0.2,0,0.3v3.8H633
			c-2.4,0.1-4.5-1.8-4.6-4.2c-0.1-2.4,1.8-4.5,4.2-4.6c0.1,0,0.3,0,0.4,0h55.3C690.7,521.6,692.7,523.6,692.6,526L692.6,526
			L692.6,526z"/>
		<path class="st2" d="M705.5,356.6L644,367.2c-2.4,0.4-4.8-1.2-5.2-3.6l0,0c-0.4-2.4,1.2-4.8,3.6-5.2l61.4-10.7
			c2.4-0.4,4.8,1.2,5.2,3.6l0,0C709.6,353.8,707.9,356.2,705.5,356.6z"/>
		<g>
			<path class="st2" d="M622.5,351.5L874.8,307c16-2.8,31.2,7.8,34,23.8l0,0c2.8,16-7.8,31.2-23.8,34l-252.4,44.5
				c-16,2.8-31.2-7.8-34-23.8l0,0C595.8,369.5,606.5,354.3,622.5,351.5z"/>
			<path class="st3" d="M864.3,78.5l44.5,252.4c2.8,16-7.8,31.2-23.8,34l0,0c-16,2.8-31.2-7.8-34-23.8L806.5,88.7
				c-2.8-16,7.8-31.2,23.8-34l0,0C846.3,51.9,861.5,62.5,864.3,78.5z"/>
		</g>
		<path class="st3" d="M856.2,160.6l-10.9-61.7c-0.4-2.4,1.2-4.8,3.7-5.2l0,0c2.4-0.4,4.8,1.2,5.2,3.7l10.9,61.7
			c0.4,2.4-1.2,4.8-3.7,5.2l0,0C859,164.7,856.6,163.1,856.2,160.6z"/>
		<circle class="st4" cx="879.8" cy="336" r="23"/>
		<path class="st3" d="M886.3,331.3l-6.8,12.7c-0.9,1.7-3.1,2.4-4.9,1.5l0,0c-1.7-0.9-2.4-3.1-1.5-4.9l6.8-12.7
			c0.9-1.7,3.1-2.4,4.9-1.5l0,0C886.6,327.4,887.3,329.6,886.3,331.3z"/>
		<path class="st6" d="M942.6,383.9L942.6,383.9c-1.6,1.6-4.1,1.6-5.6,0l-14.5-14.5c-1.6-1.6-1.6-4.1,0-5.6l0,0
			c1.6-1.6,4.1-1.6,5.6,0l14.5,14.5C944.1,379.8,944.1,382.3,942.6,383.9z"/>
		<path class="st7" d="M904.8,369.9c-2,0.4-3.9-0.8-4.4-2.8l-3.4-15.7c-2.4-1.9-2.8-5.3-1-7.7c1.9-2.4,5.3-2.8,7.7-1
			c1.7,1.4,2.5,3.6,1.9,5.7c-0.2,0.9-0.7,1.7-1.3,2.4l3.2,14.6C908,367.5,906.8,369.4,904.8,369.9
			C904.8,369.9,904.8,369.9,904.8,369.9z"/>
		<path class="st7" d="M938.5,357.1v7.4c0,4.1-2.6,7.7-6.5,9.1v2.4c0,1.2-1,2.2-2.2,2.2c-1.2,0-2.2-1-2.2-2.2v-1.9
			c-4.8-0.6-8.5-4.7-8.5-9.6v-7.4c-0.2-5.3,4-9.8,9.3-9.9c5.3-0.2,9.8,4,9.9,9.3C938.5,356.7,938.5,356.9,938.5,357.1L938.5,357.1z"
			/>
		<path class="st8" d="M944.4,382.4V411c0,3.3-2.7,6-6,6h-16.8c-3.3,0-6-2.7-6-6v-27.5l-13.9-13.9c-1.4-1.7-1.1-4.2,0.6-5.6
			c1.5-1.2,3.5-1.2,5,0l12.8,12.8c0.5-0.1,1-0.2,1.5-0.2h16.8C941.7,376.5,944.3,379.1,944.4,382.4z"/>
		<polygon points="931.3,425 931.1,425.2 931.1,425 		"/>
		<path d="M944.8,420.9c0,2.3-1.8,4.1-4.1,4.1h-9.5l-0.1,0.2l0,0l-17.6,19.2l9.6,26.4c0.3,0.4,0.6,0.9,0.8,1.4
			c0.9,2.5-0.4,5.2-2.8,6.1l-8.3,3c-2.5,0.8-5.2-0.6-5.9-3.1c-0.7-2.3,0.4-4.9,2.7-5.8l1.8-0.7l-9.3-25.6c-0.1-0.3-0.2-0.5-0.2-0.8
			l0,0c-0.8-2-0.4-4.3,1.1-6l13.9-15.2c-1-0.8-1.6-1.9-1.6-3.2c0-2.3,1.8-4.1,4.1-4.1h21.4C942.9,416.9,944.7,418.7,944.8,420.9
			L944.8,420.9z"/>
		<path d="M941.3,355.2v9.8c0,3.7-3,6.8-6.8,6.8s-6.8-3-6.8-6.8v-8.6l-7.4-3.4c-2.7-1.3-3.9-4.6-2.6-7.3s4.6-3.9,7.3-2.6l0,0
			l11.4,5.4c0.4,0.2,0.9,0.5,1.2,0.8l0,0c0.6,0.3,1.1,0.7,1.5,1.2C940.6,351.7,941.3,353.4,941.3,355.2z"/>
		<path class="st9" d="M627.6,424.1l0.4-0.2c1.5-0.5,3.1,0.2,3.6,1.7l7.5,20.7c0.5,1.5-0.2,3.1-1.7,3.6l-0.4,0.2
			c-1.5,0.5-3.1-0.2-3.6-1.7l-7.5-20.7C625.4,426.2,626.1,424.6,627.6,424.1z"/>
		<line class="st10" x1="650.5" y1="524.4" x2="649" y2="524.7"/>
		<path d="M656.6,492.4c-0.1-0.3-0.2-0.6-0.3-0.9l-0.5-1C656.3,491.1,656.5,491.7,656.6,492.4z"/>
		<path d="M656.7,493.5c0-0.3,0-0.7,0-1c0.2,0.7,0.1,1.5-0.1,2.1L656.7,493.5z"/>
		<path d="M675.1,524.2l-5.3,1l-1.7,0.3c-0.2,0-0.4,0-0.5,0l-0.6-0.1c-1.1-0.2-2.1-0.8-2.7-1.7c-0.5-0.8-0.8-1.8-0.6-2.8l3.9-24.1
			l-16.8-19.5l-1.3,0.3l6.4,13l0.5,1c0.1,0.3,0.2,0.6,0.3,0.9l0,0c0,0.3,0,0.7,0,1l-0.1,1.1l-2.9,21.9l0.5-0.1
			c1.8-0.3,3.5,0.9,3.9,2.7c0,0,0,0,0,0l0.1,0.5c0.3,1.8-0.9,3.6-2.7,3.9l-4.9,0.9l-1.5,0.3c-0.1,0-0.3,0-0.4,0l-0.6-0.1
			c-2.2-0.3-3.7-2.3-3.4-4.5l0-0.4l3.3-25.7l-7.3-15c0-0.1-0.1-0.2-0.1-0.2c-0.8-0.4-1.3-1.1-1.5-2l-0.1-0.5
			c-0.3-1.6,0.7-3.1,2.2-3.4l16.4-3.5c1.6-0.3,3.1,0.7,3.4,2.2l0.1,0.5c0.2,1-0.1,2.1-0.9,2.8l15.4,17.8c0.1,0.1,0.1,0.2,0.2,0.3
			v0.1c0.6,0.8,0.8,1.8,0.7,2.8c0,0,0,0.1,0,0.1l0,0.3l-3.4,21l0.7-0.1c1.8-0.4,3.6,0.8,3.9,2.6c0,0,0,0,0,0l0.1,0.5
			C678.1,521.9,677,523.7,675.1,524.2C675.2,524.1,675.2,524.1,675.1,524.2z"/>
		<line class="st10" x1="669.9" y1="525.2" x2="668.2" y2="525.5"/>
		<path class="st7" d="M644,439.7l0.8,1.3c0.4,0.7,0.2,1.7-0.5,2.1c0,0,0,0,0,0l-0.2,0.1c-0.7,0.4-1.7,0.2-2.1-0.6l-0.9-1.5
			c-1,0.2-2.1,0.2-3.1,0c0.1-0.1,0.3-0.1,0.4-0.2l0.7-0.4c0.5-0.3,0.9-0.6,1.2-1l0,0c0.6-0.7,1-1.5,1.1-2.4c0.2-1.1,0-2.2-0.6-3.2
			l-3.5-6l3.7-5.3l0-0.1c0.8,0.6,1.4,1.3,1.9,2.1l3.4,5.8C648,433.6,647.1,437.7,644,439.7z"/>
		<path d="M640.7,434.1c0.6,1,0.8,2.1,0.6,3.2c-0.1,0.9-0.5,1.7-1.1,2.4l0,0c-0.3,0.4-0.7,0.7-1.2,1l-0.7,0.4
			c-0.1,0.1-0.2,0.1-0.4,0.2c-2.2,1-4.9,0.2-6.1-1.9l-4.1-7.1c-1-1.7-0.8-3.7,0.3-5.2l0,0c0.1-0.1,0.2-0.3,0.2-0.4l5.8-8.4
			c1.2-1.8,3.6-2.2,5.4-1l0.5,0.4c1.7,1.2,2.2,3.6,1,5.3l0,0.1l-3.7,5.3L640.7,434.1z"/>
		<path class="st6" d="M312.5,193.1v6c0,3.3-2.7,6-6,6s-6-2.7-6-6v-25.6l6.5-6.5v20.1C307,190.3,309.4,192.9,312.5,193.1z"/>
		<path class="st7" d="M657.1,429c-1.5,0.3-3-0.7-3.2-2.3l-3.3-19c-1.9-1.3-2.4-3.9-1.1-5.8c1.3-1.9,3.9-2.4,5.8-1.1
			c1.8,1.2,2.4,3.6,1.3,5.5c-0.1,0.2-0.3,0.5-0.5,0.7l3.3,18.8C659.6,427.4,658.6,428.8,657.1,429z"/>
		<path class="st11" d="M659.6,428.6l-5.4,16c0.1,0.3,0.2,0.5,0.2,0.8l3.9,18.4c0.7,3.2-1.4,6.4-4.6,7.1L644,473
			c-3.2,0.7-6.4-1.4-7.1-4.6L633,450c-0.7-3.2,1.4-6.4,4.6-7.1l9.7-2.1c0.6-0.1,1.2-0.2,1.8-0.1l4.7-14c0.5-1.5,2.1-2.3,3.5-1.8
			c0,0,0,0,0,0l0.4,0.1C659.3,425.6,660.1,427.2,659.6,428.6z"/>
		<path class="st8" d="M367,94.8v65.3c0,3.3-2.7,6-6,6h-0.5c-3.1-0.2-5.6-2.9-5.5-6v-22c0-3.3-2.7-6-6-6h-0.5
			c-3.1,0.2-5.6,2.9-5.5,6v53c0,3.3-2.7,6-6,6s-6-2.7-6-6v-31c0-3.3-2.7-6-6-6s-6,2.7-6,6v27c0,3.3-2.7,6-6,6h-0.5
			c-3.1-0.2-5.6-2.9-5.5-6V167l-6.5,6.4l0,0l-53.4,53.4l-41.6-41.6L316.8,74.1c11.5-11.5,30.1-11.5,41.5,0
			c5.2,5.2,8.2,12.1,8.6,19.4v0.1C367,94,367,94.4,367,94.8z"/>
		<path class="st1" d="M52.4,382.3l-0.7-0.7c-1.4-1.3-1.5-3.6-0.2-5l17.3-18.5c1.3-1.4,3.6-1.5,5-0.2l0.7,0.7c1.4,1.3,1.5,3.6,0.2,5
			l-17.3,18.5C56.1,383.6,53.8,383.7,52.4,382.3z"/>
		<path d="M318.9,289.5c0,1.2-0.5,2.3-1.3,3.2l-45.3,45.3c-0.7,0.7-1.6,1.2-2.6,1.3l0,0c-0.4,0.1-0.8,0.2-1.2,0.2
			c-0.6,0-1.2-0.1-1.8-0.4l-110.8-48.6l-8.9,8.9c-0.8-1.3-1.7-2.5-2.8-3.6c-1.1-1.1-2.2-2-3.5-2.8l10.9-10.9c1-0.9,2.3-1.4,3.6-1.3
			h0.3c0.6,0,1.2,0.1,1.8,0.4l110.7,48.6l40.2-40.2l-10.9-10.9c2.5-1.7,4.7-3.8,6.4-6.4l14.1,14.1
			C318.5,287.1,319,288.3,318.9,289.5z"/>
		<path class="st6" d="M303.5,272.2c-6.9,10.4-20.8,13.2-31.2,6.4c-1.3-0.8-2.4-1.8-3.5-2.9L146.5,153.4c-8.8-8.8-8.8-23,0-31.8
			s23-8.8,31.8,0l0,0l122.3,122.3C308.2,251.4,309.4,263.3,303.5,272.2z"/>
		<path d="M144.1,322.5l-48.7,48.7c-7.8,7-19.8,6.4-26.8-1.4c-6.5-7.2-6.5-18.2,0-25.5l48.7-48.7c7.4-7.4,19.4-7.4,26.8,0
			c1.1,1.1,2,2.3,2.8,3.6C151.4,306.8,150.3,316.4,144.1,322.5z"/>
		<path class="st12" d="M57.8,378.8l0.2,1.1c0.4,2.2-1.1,4.2-3.3,4.6L28,388.7c-2.2,0.4-4.2-1.1-4.6-3.3l-0.2-1.1
			c-0.4-2.2,1.1-4.2,3.3-4.6l26.7-4.4C55.4,375.1,57.4,376.6,57.8,378.8z"/>
		<path class="st7" d="M89.4,361.9c-0.7,1.8-2.3,3.2-4.2,3.7L73,383.3c-1.1,1.7-3.4,2.1-5.1,0.9c0,0,0,0,0,0l-0.8-0.6
			c-1.7-1.1-2.1-3.4-0.9-5.1c0,0,0,0,0,0l11.6-16.8c-1.2-3.2,0.4-6.8,3.7-8.1s6.8,0.4,8.1,3.7C90.1,358.8,90,360.4,89.4,361.9
			L89.4,361.9z"/>
		<path d="M30.8,424h-3.6c0.3-0.1,0.6-0.1,0.9-0.1h1.5c0.2,0,0.4,0,0.6,0L30.8,424z"/>
		<path d="M30.8,424h-0.4v-0.1L30.8,424z"/>
		<path class="st7" d="M46.5,356.3v11.1c0,5.3-4.3,9.6-9.6,9.6v2.4c0,1.2-1,2.2-2.2,2.2c0,0,0,0,0,0h-0.6c-1.2,0-2.2-1-2.2-2.2l0,0
			v-2.7c-4.3-1.1-7.3-4.9-7.3-9.4v-11c0-5.3,4.3-9.6,9.6-9.6h2.7C42.2,346.7,46.5,351,46.5,356.3L46.5,356.3z"/>
		<path class="st13" d="M70.9,385l-21,5.9v28.9c0,3.3-2.7,6-6,6H27.5c-3.3,0-6-2.7-6-6v-34.1c0-3.3,2.7-6,6-6h16.5
			c1.8,0,3.5,0.8,4.7,2.2l19.9-5.6c2.1-0.6,4.3,0.6,4.9,2.8l0.3,1C74.3,382.2,73,384.4,70.9,385z"/>
		<path d="M60.2,459.9c0.4-1.3,0.3-2.8-0.3-4l-11-23.1c1.4-0.7,2.3-2.1,2.3-3.7V428c0-2.2-1.9-4-4.1-4H25.6c-2.2,0-4,1.8-4.1,4v1.1
			c0,1,0.3,1.9,1,2.7l0.2,24.3c-0.1,0.3-0.1,0.7-0.2,1l-1.8,29.3c0,0.3,0,0.6,0,0.9c-0.6,0.8-1,1.8-1,2.9v1.3c0,2.6,2.1,4.7,4.7,4.7
			h11.4c1.4,0,2.6-0.6,3.5-1.6c0.8,1.1,2.1,1.8,3.5,1.9l11.3,0.7c2.6,0.1,4.8-1.8,5-4.4l0.1-1.3c0.2-2.6-1.8-4.8-4.4-5l-3.4-0.2
			l8.6-23.5C60.3,461.9,60.4,460.9,60.2,459.9L60.2,459.9z M37.8,486c-0.6-0.3-1.3-0.5-2-0.5h-2.2l1.7-26.5c0.2-0.5,0.3-1.1,0.3-1.6
			l-0.2-22.8l12,25.1L37.8,486z"/>
		<path d="M45.8,352.7l-9,4.2v10.7c0,3.7-3,6.8-6.7,6.8c0,0,0,0,0,0h-1.9c-3.7,0-6.7-3-6.7-6.8v-13.1c0-3,2-5.6,4.9-6.5l14.2-6.7
			c2.7-1.3,6-0.1,7.3,2.6c0,0,0,0,0,0l0.6,1.4C49.7,348.2,48.5,351.4,45.8,352.7z"/>
		<path class="st6" d="M360.5,166.1v17c0,3.3-2.7,6-6,6s-6-2.7-6-6v-51h0.5c3.3,0,6,2.7,6,6v22C355,163.3,357.4,165.9,360.5,166.1z"
			/>
		<path class="st8" d="M367,94.1v0.7c0-0.4,0-0.8,0-1.3C367,93.8,367,93.9,367,94.1z"/>
	</g>
</g>
</svg>
