<svg xmlns="http://www.w3.org/2000/svg" viewBox="0 0 928 1005"><defs><style>.cls-1{fill:#34495e;}.cls-2{fill:#2980b9;}</style></defs><title>consumer-electronics_1</title><g id="Layer_2" data-name="Layer 2"><g id="Layer_1-2" data-name="Layer 1"><path class="cls-1" d="M787.66,59H722.34A11.36,11.36,0,0,0,711,70.34V204.66A11.36,11.36,0,0,0,722.34,216h65.32A11.36,11.36,0,0,0,799,204.66V70.34A11.36,11.36,0,0,0,787.66,59ZM795,204.66a7.34,7.34,0,0,1-7.34,7.34H722.34a7.34,7.34,0,0,1-7.34-7.34V70.34A7.34,7.34,0,0,1,722.34,63H740a5,5,0,0,0,5,5h20a5,5,0,0,0,5-5h17.66A7.34,7.34,0,0,1,795,70.34Z"/><circle class="cls-1" cx="755" cy="203" r="5"/><path class="cls-2" d="M763.17,141.6a.52.52,0,0,1-.67-.25,5.53,5.53,0,0,0-10.08.05.51.51,0,0,1-.46.3.53.53,0,0,1-.2,0,.5.5,0,0,1-.25-.66,6.53,6.53,0,0,1,11.9-.06A.5.5,0,0,1,763.17,141.6Z"/><path class="cls-2" d="M767.75,139.52a.5.5,0,0,1-.66-.25,10.56,10.56,0,0,0-19.25.09.5.5,0,0,1-.46.3.48.48,0,0,1-.2,0,.49.49,0,0,1-.25-.66,11.55,11.55,0,0,1,21.07-.1A.51.51,0,0,1,767.75,139.52Z"/><path class="cls-2" d="M771.63,137.22A.52.52,0,0,1,771,137a14.81,14.81,0,0,0-27,.13.49.49,0,0,1-.45.3.54.54,0,0,1-.21-.05.5.5,0,0,1-.25-.66,15.81,15.81,0,0,1,28.82-.13A.49.49,0,0,1,771.63,137.22Z"/><path class="cls-2" d="M776.21,135.14a.52.52,0,0,1-.67-.25,19.83,19.83,0,0,0-36.16.18.5.5,0,0,1-.46.29.51.51,0,0,1-.2,0,.49.49,0,0,1-.25-.66,20.84,20.84,0,0,1,38-.18A.51.51,0,0,1,776.21,135.14Z"/><path class="cls-2" d="M757.67,141.36a2.27,2.27,0,1,0,2.26,2.27A2.27,2.27,0,0,0,757.67,141.36Zm0,3.53a1.27,1.27,0,1,1,1.26-1.26A1.27,1.27,0,0,1,757.67,144.89Z"/><path class="cls-1" d="M845.78,420H777.22A14.24,14.24,0,0,0,763,434.22v42.56A14.24,14.24,0,0,0,777.22,491H788v23a1,1,0,0,0,.66.94,1,1,0,0,0,1.11-.3L809.6,491h36.18A14.24,14.24,0,0,0,860,476.78V434.22A14.24,14.24,0,0,0,845.78,420ZM858,476.78A12.23,12.23,0,0,1,845.78,489H808.67L807,491l-17,20.25V489H777.22A12.23,12.23,0,0,1,765,476.78V434.22A12.23,12.23,0,0,1,777.22,422h68.56A12.23,12.23,0,0,1,858,434.22Z"/><path class="cls-2" d="M830.21,456.14a.52.52,0,0,1-.67-.25A19.87,19.87,0,0,0,812,444.31h-.5a20.25,20.25,0,0,0-3.5.31,19.9,19.9,0,0,0-14.62,11.46.5.5,0,0,1-.46.29.51.51,0,0,1-.2,0,.49.49,0,0,1-.25-.66A20.86,20.86,0,0,1,808,443.6a20.42,20.42,0,0,1,3.5-.3h.5a20.91,20.91,0,0,1,18.46,12.17A.51.51,0,0,1,830.21,456.14Z"/><path class="cls-2" d="M825.63,458.22A.52.52,0,0,1,825,458a14.81,14.81,0,0,0-13-8.63,4.35,4.35,0,0,0-.51,0,14.5,14.5,0,0,0-3.49.42,14.83,14.83,0,0,0-10,8.36.49.49,0,0,1-.45.3.54.54,0,0,1-.21,0,.5.5,0,0,1-.25-.66,15.87,15.87,0,0,1,11-9,15.56,15.56,0,0,1,3.49-.39H812a15.83,15.83,0,0,1,13.87,9.23A.49.49,0,0,1,825.63,458.22Z"/><path class="cls-2" d="M821.75,460.52a.5.5,0,0,1-.66-.25,10.62,10.62,0,0,0-9.09-6.15,4.52,4.52,0,0,0-.52,0,10.39,10.39,0,0,0-3.48.6,10.56,10.56,0,0,0-6.16,5.66.5.5,0,0,1-.46.3.48.48,0,0,1-.2,0,.49.49,0,0,1-.25-.66,11.56,11.56,0,0,1,10.55-6.86,4.52,4.52,0,0,1,.52,0,11.58,11.58,0,0,1,10,6.74A.51.51,0,0,1,821.75,460.52Z"/><path class="cls-2" d="M817.17,462.6a.52.52,0,0,1-.67-.25,5.54,5.54,0,0,0-4.5-3.2,4.58,4.58,0,0,0-.53,0,5.5,5.5,0,0,0-3.47,1.23,5.36,5.36,0,0,0-1.58,2,.51.51,0,0,1-.46.3.53.53,0,0,1-.2-.05.5.5,0,0,1-.25-.66,6.63,6.63,0,0,1,2.49-2.87,6.51,6.51,0,0,1,3.47-1,4.58,4.58,0,0,1,.53,0,6.55,6.55,0,0,1,5.41,3.78A.5.5,0,0,1,817.17,462.6Z"/><path class="cls-2" d="M151.63,898.45a1,1,0,0,1-1.33-.49,13,13,0,0,0-23.68.11,1,1,0,0,1-.91.59,1,1,0,0,1-.41-.09,1,1,0,0,1-.5-1.32,15,15,0,0,1,27.32-.13A1,1,0,0,1,151.63,898.45Z"/><path class="cls-2" d="M162.26,893.63a1,1,0,0,1-1.33-.5,24.65,24.65,0,0,0-44.94.22,1,1,0,0,1-.91.59,1,1,0,0,1-.41-.09,1,1,0,0,1-.5-1.32,26.65,26.65,0,0,1,48.58-.23A1,1,0,0,1,162.26,893.63Z"/><path class="cls-2" d="M171.25,888.29a1,1,0,0,1-1.32-.49,34.52,34.52,0,0,0-62.93.3,1,1,0,0,1-.91.59,1,1,0,0,1-.41-.09,1,1,0,0,1-.51-1.32,36.53,36.53,0,0,1,66.58-.32A1,1,0,0,1,171.25,888.29Z"/><path class="cls-2" d="M181.88,883.47a1,1,0,0,1-1.32-.5,46.19,46.19,0,0,0-84.19.41,1,1,0,0,1-.91.59,1,1,0,0,1-.41-.09,1,1,0,0,1-.51-1.32,48.19,48.19,0,0,1,87.83-.42A1,1,0,0,1,181.88,883.47Z"/><path class="cls-2" d="M139,898.21A5.09,5.09,0,1,0,144,903.3,5.1,5.1,0,0,0,139,898.21Zm0,8.18A3.09,3.09,0,1,1,142,903.3,3.1,3.1,0,0,1,139,906.39Z"/><path class="cls-1" d="M243.45,788H23.55A23.57,23.57,0,0,0,0,811.55v143.9A23.57,23.57,0,0,0,23.55,979H132v22H62a2,2,0,0,0,0,4H207a2,2,0,0,0,0-4H136V979H243.45A23.57,23.57,0,0,0,267,955.45V811.55A23.57,23.57,0,0,0,243.45,788ZM263,955.45A19.57,19.57,0,0,1,243.45,975H23.55A19.57,19.57,0,0,1,4,955.45V811.55A19.57,19.57,0,0,1,23.55,792h219.9A19.57,19.57,0,0,1,263,811.55Z"/><path class="cls-2" d="M821,890.68a1.49,1.49,0,0,1-2-.74,12.08,12.08,0,0,0-22,.11,1.51,1.51,0,0,1-1.38.89,1.49,1.49,0,0,1-1.36-2.11,15.08,15.08,0,0,1,27.5-.13A1.48,1.48,0,0,1,821,890.68Z"/><path class="cls-2" d="M831.3,886a1.51,1.51,0,0,1-2-.74,23.42,23.42,0,0,0-42.69.21,1.52,1.52,0,0,1-1.37.89,1.63,1.63,0,0,1-.61-.13,1.51,1.51,0,0,1-.76-2A26.42,26.42,0,0,1,832,884,1.51,1.51,0,0,1,831.3,886Z"/><path class="cls-2" d="M840,880.82a1.51,1.51,0,0,1-2-.74,33,33,0,0,0-60.16.29,1.5,1.5,0,0,1-2,.75,1.51,1.51,0,0,1-.76-2,36,36,0,0,1,65.63-.31A1.49,1.49,0,0,1,840,880.82Z"/><path class="cls-2" d="M850.36,876.13a1.49,1.49,0,0,1-2-.74,44.34,44.34,0,0,0-80.81.39,1.5,1.5,0,0,1-1.37.89,1.46,1.46,0,0,1-.61-.13,1.49,1.49,0,0,1-.76-2,47.33,47.33,0,0,1,86.28-.41A1.5,1.5,0,0,1,850.36,876.13Z"/><path class="cls-2" d="M808.44,889.45a5.47,5.47,0,1,0,5.47,5.47A5.48,5.48,0,0,0,808.44,889.45Zm0,7.94a2.47,2.47,0,1,1,2.47-2.47A2.48,2.48,0,0,1,808.44,897.39Z"/><path class="cls-1" d="M696,788V953H928V788ZM924,949H700V809H924Zm0-144H700V792H924Z"/><circle class="cls-1" cx="707" cy="799" r="3"/><circle class="cls-1" cx="717" cy="799" r="3"/><circle class="cls-1" cx="727" cy="799" r="3"/><circle class="cls-1" cx="244" cy="82" r="6"/><path class="cls-2" d="M157.84,99.9a1.49,1.49,0,0,1-2-.74,12.5,12.5,0,0,0-22.77.11,1.5,1.5,0,0,1-1.37.89,1.46,1.46,0,0,1-.61-.13,1.49,1.49,0,0,1-.76-2,15.5,15.5,0,0,1,28.24-.14A1.51,1.51,0,0,1,157.84,99.9Z"/><path class="cls-2" d="M168.47,95.08a1.49,1.49,0,0,1-2-.74,24.16,24.16,0,0,0-44,.21,1.5,1.5,0,0,1-2.74-1.22,27.16,27.16,0,0,1,49.5-.24A1.51,1.51,0,0,1,168.47,95.08Z"/><path class="cls-2" d="M177.46,89.74a1.49,1.49,0,0,1-2-.74,34,34,0,0,0-62,.3,1.5,1.5,0,0,1-1.37.89,1.42,1.42,0,0,1-.61-.13,1.49,1.49,0,0,1-.76-2,37,37,0,0,1,67.48-.32A1.5,1.5,0,0,1,177.46,89.74Z"/><path class="cls-2" d="M188.09,84.92a1.49,1.49,0,0,1-2-.74,45.69,45.69,0,0,0-83.27.4,1.5,1.5,0,0,1-1.37.89,1.46,1.46,0,0,1-.61-.13,1.49,1.49,0,0,1-.76-2,48.69,48.69,0,0,1,88.74-.43A1.51,1.51,0,0,1,188.09,84.92Z"/><path class="cls-2" d="M145,98.71a5.59,5.59,0,1,0,5.59,5.59A5.6,5.6,0,0,0,145,98.71Zm0,8.18a2.59,2.59,0,1,1,2.59-2.59A2.59,2.59,0,0,1,145,106.89Z"/><path class="cls-1" d="M257.66,0H43.34A11.36,11.36,0,0,0,32,11.34V142.66A11.36,11.36,0,0,0,43.34,154H155v7a2,2,0,0,0,4,0v-7h98.66A11.36,11.36,0,0,0,269,142.66V11.34A11.36,11.36,0,0,0,257.66,0ZM265,142.66a7.34,7.34,0,0,1-7.34,7.34H43.34A7.34,7.34,0,0,1,36,142.66V11.34A7.34,7.34,0,0,1,43.34,4H257.66A7.34,7.34,0,0,1,265,11.34Z"/><path class="cls-2" d="M162.49,543.64a1,1,0,0,1-1.32-.49,8.45,8.45,0,0,0-15.41.07,1,1,0,0,1-.91.6,1,1,0,0,1-.41-.09,1,1,0,0,1-.51-1.32,10.46,10.46,0,0,1,19.06-.09A1,1,0,0,1,162.49,543.64Z"/><path class="cls-2" d="M169.67,540.39a1,1,0,0,1-1.32-.5,16.34,16.34,0,0,0-29.77.15,1,1,0,0,1-.91.59,1,1,0,0,1-.41-.09,1,1,0,0,1-.51-1.32,18.34,18.34,0,0,1,33.42-.16A1,1,0,0,1,169.67,540.39Z"/><path class="cls-2" d="M175.75,536.78a1,1,0,0,1-1.33-.49,23,23,0,0,0-41.91.2,1,1,0,0,1-.92.59,1,1,0,0,1-.4-.08,1,1,0,0,1-.51-1.32,25,25,0,0,1,45.56-.22A1,1,0,0,1,175.75,536.78Z"/><path class="cls-2" d="M182.93,533.53a1,1,0,0,1-1.33-.5,30.87,30.87,0,0,0-56.27.27,1,1,0,0,1-.92.59,1,1,0,0,1-.4-.08,1,1,0,0,1-.51-1.32,32.87,32.87,0,0,1,59.92-.29A1,1,0,0,1,182.93,533.53Z"/><path class="cls-2" d="M153.79,542.87a3.76,3.76,0,1,0,3.76,3.76A3.76,3.76,0,0,0,153.79,542.87Zm0,5.52a1.76,1.76,0,1,1,1.76-1.76A1.76,1.76,0,0,1,153.79,548.39Z"/><path class="cls-1" d="M193.21,476H112.79A12.81,12.81,0,0,0,100,488.79v85.42A12.81,12.81,0,0,0,112.79,587h80.42A12.81,12.81,0,0,0,206,574.21V488.79A12.81,12.81,0,0,0,193.21,476ZM202,574.21a8.81,8.81,0,0,1-8.79,8.79H112.79a8.81,8.81,0,0,1-8.79-8.79V488.79a8.81,8.81,0,0,1,8.79-8.79h80.42a8.81,8.81,0,0,1,8.79,8.79Z"/><path class="cls-1" d="M214,518.5v27a2.5,2.5,0,0,1-5,0v-27a2.5,2.5,0,1,1,5,0Z"/><path class="cls-1" d="M115.16,593l15.43,43h44.82l15.43-43Zm57.43,39H133.41l-12.57-35h64.32Z"/><path class="cls-1" d="M175.41,426H159v-2a2,2,0,0,0-4,0v2H130.59l-15.43,43h75.68Zm-42,4h39.18l12.57,35H120.84Z"/><path class="cls-2" d="M488.63,345.45a1,1,0,0,1-1.33-.5,13,13,0,0,0-23.68.12,1,1,0,0,1-.91.59,1,1,0,0,1-.41-.09,1,1,0,0,1-.5-1.32,15,15,0,0,1,27.32-.13A1,1,0,0,1,488.63,345.45Z"/><path class="cls-2" d="M499.26,340.63a1,1,0,0,1-1.33-.5,24.65,24.65,0,0,0-44.94.22,1,1,0,0,1-.91.59,1,1,0,0,1-.41-.09,1,1,0,0,1-.5-1.32,26.65,26.65,0,0,1,48.58-.23A1,1,0,0,1,499.26,340.63Z"/><path class="cls-2" d="M508.25,335.29a1,1,0,0,1-1.32-.49,34.52,34.52,0,0,0-62.93.3,1,1,0,0,1-.91.59,1,1,0,0,1-.41-.09,1,1,0,0,1-.51-1.32,36.53,36.53,0,0,1,66.58-.32A1,1,0,0,1,508.25,335.29Z"/><path class="cls-2" d="M518.88,330.47a1,1,0,0,1-1.32-.5,46.19,46.19,0,0,0-84.19.41,1,1,0,0,1-.91.59,1,1,0,0,1-.41-.09,1,1,0,0,1-.51-1.32,48.19,48.19,0,0,1,87.83-.42A1,1,0,0,1,518.88,330.47Z"/><path class="cls-2" d="M476,345.21A5.09,5.09,0,1,0,481,350.3,5.1,5.1,0,0,0,476,345.21Zm0,8.18A3.09,3.09,0,1,1,479,350.3,3.1,3.1,0,0,1,476,353.39Z"/><path class="cls-1" d="M577.72,385a15.23,15.23,0,0,0,.28-2.89V331h7a2,2,0,0,0,0-4h-7V275.89A14.91,14.91,0,0,0,563.11,261H390.89A14.91,14.91,0,0,0,376,275.89V327h-2a2,2,0,0,0,0,4h2v51.11a15.23,15.23,0,0,0,.28,2.89H359v2a18,18,0,0,0,18,18H577a18,18,0,0,0,18-18v-2ZM380,275.89A10.91,10.91,0,0,1,390.89,265H563.11A10.91,10.91,0,0,1,574,275.89V382.11a11,11,0,0,1-.39,2.89H380.39a11,11,0,0,1-.39-2.89ZM577,401H377a14,14,0,0,1-13.86-12H590.86A14,14,0,0,1,577,401Z"/><path class="cls-2" d="M812,462.39l-.33,0a2.27,2.27,0,0,0,0,4.53l.32,0h0a2.26,2.26,0,0,0,0-4.47Zm0,3.45a1.26,1.26,0,1,1,.93-1.21A1.26,1.26,0,0,1,812,465.84Z"/><path class="cls-1" d="M157,363.56a2,2,0,0,0-2,2v29.22a2,2,0,0,0,4,0V365.56A2,2,0,0,0,157,363.56Zm0-58.45a2,2,0,0,0-2,2v29.22a2,2,0,0,0,4,0V307.11A2,2,0,0,0,157,305.11Zm0-58.44a2,2,0,0,0-2,2v29.22a2,2,0,0,0,4,0V248.67A2,2,0,0,0,157,246.67Zm0-58.45a2,2,0,0,0-2,2v29.22a2,2,0,0,0,4,0V190.22A2,2,0,0,0,157,188.22Z"/><path class="cls-1" d="M340.43,327H306.86a2,2,0,0,0,0,4h33.57a2,2,0,1,0,0-4Zm-67.14,0H239.71a2,2,0,0,0,0,4h33.58a2,2,0,0,0,0-4Zm-67.15,0H172.57a2,2,0,0,0,0,4h33.57a2,2,0,0,0,0-4Z"/><path class="cls-1" d="M755,244a2,2,0,0,1-2-2V227a2,2,0,0,1,4,0v15A2,2,0,0,1,755,244Z"/><path class="cls-1" d="M755,296.67a2,2,0,0,1-2-2V268.33a2,2,0,1,1,4,0v26.34A2,2,0,0,1,755,296.67Z"/><path class="cls-1" d="M767,329a2,2,0,0,1-2,2H735a2,2,0,0,1,0-4h18v-6a2,2,0,0,1,4,0v6h8A2,2,0,0,1,767,329Z"/><path class="cls-1" d="M645,327H615a2,2,0,0,0,0,4h30a2,2,0,0,0,0-4Zm60,0H675a2,2,0,0,0,0,4h30a2,2,0,0,0,0-4Z"/><path class="cls-1" d="M810,346a2,2,0,0,1-2-2V331H795a2,2,0,0,1,0-4h15a2,2,0,0,1,2,2v15A2,2,0,0,1,810,346Z"/><path class="cls-1" d="M810,740.67a2,2,0,0,0-2,2v30.66a2,2,0,0,0,4,0V742.67A2,2,0,0,0,810,740.67Zm0-61.34a2,2,0,0,0-2,2V712a2,2,0,0,0,4,0V681.33A2,2,0,0,0,810,679.33Zm0-122.66a2,2,0,0,0-2,2v30.66a2,2,0,0,0,4,0V558.67A2,2,0,0,0,810,556.67Zm0-61.34a2,2,0,0,0-2,2V528a2,2,0,0,0,4,0V497.33A2,2,0,0,0,810,495.33Zm0-122.66a2,2,0,0,0-2,2v30.66a2,2,0,0,0,4,0V374.67A2,2,0,0,0,810,372.67Z"/><path class="cls-1" d="M699.29,647H672.14a2,2,0,1,0,0,4h27.15a2,2,0,0,0,0-4Zm54.28,0H726.43a2,2,0,1,0,0,4h27.14a2,2,0,1,0,0-4Z"/><path class="cls-1" d="M812,620v30.67a2,2,0,0,1-4,.32H780.71a2,2,0,0,1,0-4H808V620a2,2,0,0,1,4,0Z"/><path class="cls-1" d="M645,651H630a2,2,0,0,1,0-4h15a2,2,0,0,1,0,4Z"/><path class="cls-1" d="M675.6,875H649.2a2,2,0,0,0,0,4h26.4a2,2,0,0,0,0-4Zm-52.8,0H596.4a2,2,0,0,0,0,4h26.4a2,2,0,0,0,0-4Z"/><path class="cls-1" d="M570,879H555a2,2,0,0,1-2-2V862a2,2,0,0,1,4,0v13h13a2,2,0,0,1,0,4Z"/><path class="cls-1" d="M555,794.8a2,2,0,0,0-2,2v32.6a2,2,0,1,0,4,0V796.8A2,2,0,0,0,555,794.8Zm0-65.2a2,2,0,0,0-2,2v32.6a2,2,0,0,0,4,0V731.6A2,2,0,0,0,555,729.6Z"/><path class="cls-1" d="M538.15,751H507.31a2,2,0,1,0,0,4h30.84a2,2,0,1,0,0-4Zm-61.69,0H445.62a2,2,0,1,0,0,4h30.84a2,2,0,1,0,0-4Zm-61.69,0H383.92a2,2,0,0,0,0,4h30.85a2,2,0,0,0,0-4Zm-61.69,0H322.23a2,2,0,0,0,0,4h30.85a2,2,0,0,0,0-4Zm-61.7,0H260.54a2,2,0,1,0,0,4h30.84a2,2,0,1,0,0-4Zm-61.69,0H198.85a2,2,0,0,0,0,4h30.84a2,2,0,1,0,0-4Z"/><path class="cls-1" d="M151,739v30a2,2,0,0,1-4,0V739a2,2,0,0,1,4,0Z"/><path class="cls-1" d="M170,753a2,2,0,0,1-2,2H153a2,2,0,0,1,0-4h15A2,2,0,0,1,170,753Z"/><path class="cls-1" d="M149,677a2,2,0,0,0-2,2v30a2,2,0,0,0,4,0V679A2,2,0,0,0,149,677Z"/><path class="cls-2" d="M545.85,601.82a1,1,0,0,1-.41-.09,1,1,0,0,1-.51-1.32,10.46,10.46,0,0,1,19.06-.09,1,1,0,0,1-1.82.83,8.45,8.45,0,0,0-15.41.07A1,1,0,0,1,545.85,601.82Z"/><path class="cls-2" d="M538.67,598.63a1,1,0,0,1-.41-.09,1,1,0,0,1-.51-1.32,18.34,18.34,0,0,1,33.42-.16,1,1,0,0,1-.5,1.33,1,1,0,0,1-1.32-.5,16.34,16.34,0,0,0-29.77.15A1,1,0,0,1,538.67,598.63Z"/><path class="cls-2" d="M532.59,595.08a1,1,0,0,1-.4-.08,1,1,0,0,1-.51-1.32,25,25,0,0,1,45.56-.22,1,1,0,0,1-1.82.83,23,23,0,0,0-41.91.2A1,1,0,0,1,532.59,595.08Z"/><path class="cls-2" d="M525.41,591.89a1,1,0,0,1-.4-.08,1,1,0,0,1-.51-1.32,32.87,32.87,0,0,1,59.92-.29,1,1,0,1,1-1.82.83,30.87,30.87,0,0,0-56.27.27A1,1,0,0,1,525.41,591.89Z"/><path class="cls-2" d="M554.79,600.87a3.76,3.76,0,1,0,3.76,3.76A3.76,3.76,0,0,0,554.79,600.87Zm0,5.52a1.76,1.76,0,1,1,1.76-1.76A1.76,1.76,0,0,1,554.79,606.39Z"/><path class="cls-1" d="M555,659.5a1.58,1.58,0,0,1-.81-.23l-66-42a1.5,1.5,0,0,1,.81-2.77H621a1.5,1.5,0,0,1,.81,2.77l-66,42A1.58,1.58,0,0,1,555,659.5Zm-60.85-42L555,656.22l60.85-38.72Z"/><path class="cls-1" d="M621,701.5H489a1.5,1.5,0,0,1-1.5-1.5V624a1.51,1.51,0,0,1,2.31-1.27L555,664.22l65.19-41.49A1.51,1.51,0,0,1,622.5,624v76A1.5,1.5,0,0,1,621,701.5Zm-130.5-3h129V626.73l-63.69,40.54a1.53,1.53,0,0,1-1.62,0L490.5,626.73Z"/></g></g></svg>