<svg xmlns="http://www.w3.org/2000/svg" viewBox="0 0 980.92 660.77"><defs><style>.cls-1,.cls-4{fill:#fff;}.cls-2{fill:#f39c12;}.cls-2,.cls-5{stroke:#fff;}.cls-2,.cls-4,.cls-5{stroke-miterlimit:10;}.cls-2,.cls-4{stroke-width:2px;}.cls-3{fill:#e67e22;}.cls-4{stroke:#c6801a;}.cls-5{fill:none;}</style></defs><title>1</title><g id="Layer_2" data-name="Layer 2"><g id="Layer_2-2" data-name="Layer 2"><path class="cls-1" d="M585.33,24.91l-3.47-1a5.74,5.74,0,0,0-4.38.19l-1.14,1.15-.39.8a16.2,16.2,0,0,0-1.8,7,3.86,3.86,0,0,0,3,4.18,42.79,42.79,0,0,0,4.6,1.25c7.9,1.6,11,13.29,5,18.68a48.39,48.39,0,0,0-3.43,3.44,3.72,3.72,0,0,0-.74,4.49,14.3,14.3,0,0,0,6.14,6.15,3.68,3.68,0,0,0,4.42-.65c.86-.75,1.62-1.62,2.45-2.39,1-.94,2-1.89,3.11-2.73,4.25-3.29,14.61-1.44,16.54,6.26.42,1.69.84,3.38,1.39,5a3.81,3.81,0,0,0,4.13,2.93,15.46,15.46,0,0,0,7.16-1.87,3.92,3.92,0,0,0,2.22-4.81,44.24,44.24,0,0,0-1.2-4.52c-2.58-7.7,6-16.29,13.71-13.71a39.6,39.6,0,0,0,4.52,1.2,3.88,3.88,0,0,0,4.76-2.15,15.53,15.53,0,0,0,1.92-7.15,3.89,3.89,0,0,0-3-4.25c-1.42-.46-2.88-.82-4.34-1.18-4.39-1.08-6.9-3.94-8-8.25a10.31,10.31,0,0,1,3-10.69c1-1,2.07-2,3-3.07a3.94,3.94,0,0,0,.55-5.33,15.43,15.43,0,0,0-5.18-5.17,3.92,3.92,0,0,0-5.26.54c-1.17,1.08-2.31,2.2-3.38,3.38-5.35,5.9-16.92,2.83-18.58-5-.32-1.5-.73-3-1.19-4.44C610.7.8,609.33-.11,606.76,0a11.37,11.37,0,0,0-1.43.16,18.58,18.58,0,0,0-5.92,2l-1.28,1.27a6.9,6.9,0,0,0,.1,4.82c.26.9.5,1.79.76,2.69,1.44,4.91-.3,8.75-4,11.9A10,10,0,0,1,585.33,24.91Zm40.16,3.43a16.28,16.28,0,1,1-23,.09A16.27,16.27,0,0,1,625.49,28.34Z"/><path class="cls-1" d="M88,602.71,91,608.18c1.31,2.33,2.94,4.33,5.63,5.16h2.83c.49-.18,1-.36,1.47-.52a28,28,0,0,0,10.85-6.42c2.75-2.68,3.21-5.42,1.46-8.84a75.64,75.64,0,0,0-4.13-7.22c-7.76-11.73,2.78-30,16.86-29.21,2.81.16,5.65.1,8.48,0,3.1-.14,5.48-1.59,6.44-4.63a24.88,24.88,0,0,0,0-15.15c-.92-3-3.21-4.46-6.26-4.66-2-.13-4,0-6-.07-2.4-.09-4.82-.15-7.2-.46C112.22,535,101.72,519.9,108.83,508c1.56-2.6,3.13-5.2,4.5-7.91,1.7-3.4,1.22-6.08-1.48-8.71a26.93,26.93,0,0,0-11.14-6.52c-3.84-1.15-6.51-.16-8.67,3.19A72.77,72.77,0,0,0,88,495.13c-6.33,12.67-27.51,12.66-33.82,0A74,74,0,0,0,50,488.06c-2.14-3.3-4.77-4.31-8.52-3.21a26.82,26.82,0,0,0-11.18,6.45c-2.83,2.72-3.3,5.48-1.51,9,1.19,2.32,2.55,4.57,3.9,6.81,4.09,6.75,3.64,13.38-.33,20-3.82,6.41-9.34,9.68-16.85,9.53-2.51-.06-5-.09-7.54,0-4,.16-6.29,2-7.25,5.91a26.73,26.73,0,0,0,0,12.76c1,3.86,3.2,5.68,7.15,5.82,2.77.1,5.56.14,8.33,0,13.88-.68,24.36,17.37,16.75,29.09-1.45,2.24-2.78,4.57-4,6.93-2.07,4-1.51,6.81,1.81,9.83a20.94,20.94,0,0,0,2,1.56,32.49,32.49,0,0,0,9.82,4.8h3.14c2.84-1.16,4.44-3.51,5.83-6.07.78-1.42,1.59-2.82,2.36-4.25,4.3-7.83,11.17-10.42,19.67-9.68A17.38,17.38,0,0,1,88,602.71ZM42.65,549c.16-15.86,12.83-28.54,28.36-28.4,15.79.15,28.53,12.79,28.42,28.19-.12,15.86-12.78,28.61-28.29,28.49C55.28,577.11,42.5,564.42,42.65,549Z"/><path class="cls-1" d="M121.64,199.42l2.26-1.27a4.08,4.08,0,0,0,2.13-2.32v-1.17l-.21-.61a11.72,11.72,0,0,0-2.65-4.48,2.78,2.78,0,0,0-3.65-.6,30.23,30.23,0,0,0-3,1.71c-4.84,3.2-12.38-1.15-12.06-7a34,34,0,0,0,0-3.5,2.66,2.66,0,0,0-1.91-2.66,10.34,10.34,0,0,0-6.25,0,2.66,2.66,0,0,0-1.92,2.59c0,.81,0,1.64,0,2.46,0,1-.06,2-.19,3-.49,3.84-6.7,8.17-11.6,5.23-1.08-.64-2.15-1.29-3.27-1.85a2.73,2.73,0,0,0-3.59.61,11.11,11.11,0,0,0-2.7,4.6,2.82,2.82,0,0,0,1.32,3.57,30.16,30.16,0,0,0,2.91,1.69c5.23,2.61,5.23,11.35,0,14a30.16,30.16,0,0,0-2.91,1.69A2.8,2.8,0,0,0,73,218.58a11,11,0,0,0,2.67,4.62,2.79,2.79,0,0,0,3.7.62c1-.49,1.88-1,2.81-1.61a8.18,8.18,0,0,1,12.2,7.09c0,1,0,2.07,0,3.11a2.83,2.83,0,0,0,2.44,3,11.14,11.14,0,0,0,5.26,0,2.8,2.8,0,0,0,2.4-3c0-1.14.06-2.29,0-3.43-.29-5.73,7.16-10,12-6.92.92.6,1.88,1.15,2.86,1.66a2.94,2.94,0,0,0,4.06-.75,8.44,8.44,0,0,0,.64-.81,13.27,13.27,0,0,0,2-4.05v-1.3a5,5,0,0,0-2.5-2.4l-1.76-1c-3.23-1.77-4.3-4.61-4-8.12A7.17,7.17,0,0,1,121.64,199.42ZM99.46,218.11a11.72,11.72,0,1,1,11.67-11.75A11.69,11.69,0,0,1,99.46,218.11Z"/><path class="cls-1" d="M106.52,359.51l.9-.5a1.69,1.69,0,0,0,.85-.93v-.47l-.09-.24a4.53,4.53,0,0,0-1.06-1.79,1.1,1.1,0,0,0-1.45-.24,12.63,12.63,0,0,0-1.19.68,3.26,3.26,0,0,1-4.82-2.78,12.89,12.89,0,0,0,0-1.39,1.07,1.07,0,0,0-.76-1.07,4.1,4.1,0,0,0-2.5,0,1.06,1.06,0,0,0-.77,1c0,.33,0,.66,0,1s0,.79-.08,1.18a3.29,3.29,0,0,1-4.63,2.09c-.43-.25-.86-.51-1.3-.74a1.1,1.1,0,0,0-1.44.25,4.43,4.43,0,0,0-1.08,1.83,1.14,1.14,0,0,0,.53,1.43c.38.24.76.47,1.16.67a3.27,3.27,0,0,1,0,5.58c-.4.2-.78.43-1.16.67a1.13,1.13,0,0,0-.53,1.41A4.49,4.49,0,0,0,88.15,369a1.12,1.12,0,0,0,1.48.25c.38-.2.75-.42,1.12-.64a3.27,3.27,0,0,1,4.88,2.83c0,.41,0,.83,0,1.24a1.11,1.11,0,0,0,1,1.19,4.39,4.39,0,0,0,2.1,0,1.12,1.12,0,0,0,1-1.18,12.52,12.52,0,0,0,0-1.37,3.27,3.27,0,0,1,4.8-2.76,13,13,0,0,0,1.14.66,1.17,1.17,0,0,0,1.62-.3,4,4,0,0,0,.26-.32,5.42,5.42,0,0,0,.79-1.62v-.52a2,2,0,0,0-1-1l-.7-.39a3.06,3.06,0,0,1-1.6-3.24A2.88,2.88,0,0,1,106.52,359.51ZM97.66,367a4.68,4.68,0,1,1,4.66-4.7A4.68,4.68,0,0,1,97.66,367Z"/><path class="cls-1" d="M516.82,501.19l.9-.51a1.57,1.57,0,0,0,.85-.92v-.47a2.25,2.25,0,0,0-.08-.24,4.66,4.66,0,0,0-1.06-1.79A1.11,1.11,0,0,0,516,497c-.4.21-.8.43-1.19.68a3.26,3.26,0,0,1-4.81-2.78,13.08,13.08,0,0,0,0-1.4,1.09,1.09,0,0,0-.77-1.06,4.07,4.07,0,0,0-2.49,0,1.05,1.05,0,0,0-.77,1c0,.33,0,.66,0,1s0,.8-.08,1.19a3.29,3.29,0,0,1-4.63,2.09c-.43-.26-.86-.52-1.31-.74a1.1,1.1,0,0,0-1.43.24,4.4,4.4,0,0,0-1.08,1.84,1.13,1.13,0,0,0,.53,1.43,12.06,12.06,0,0,0,1.16.67,3.27,3.27,0,0,1,0,5.58,12.06,12.06,0,0,0-1.16.67,1.11,1.11,0,0,0-.53,1.4,4.46,4.46,0,0,0,1.06,1.85,1.13,1.13,0,0,0,1.48.25c.38-.2.75-.42,1.12-.65a3,3,0,0,1,3.3.06,3,3,0,0,1,1.57,2.77c0,.42,0,.83,0,1.25a1.14,1.14,0,0,0,1,1.19,4.39,4.39,0,0,0,2.1,0,1.12,1.12,0,0,0,1-1.18c0-.46,0-.92,0-1.37a3.26,3.26,0,0,1,4.79-2.76,13.13,13.13,0,0,0,1.15.66,1.17,1.17,0,0,0,1.62-.3,3.92,3.92,0,0,0,.25-.32,5.3,5.3,0,0,0,.79-1.62v-.52a2,2,0,0,0-1-1l-.71-.39a3.06,3.06,0,0,1-1.59-3.24A2.86,2.86,0,0,1,516.82,501.19ZM508,508.66a4.68,4.68,0,1,1,4.66-4.7A4.69,4.69,0,0,1,508,508.66Z"/><path class="cls-1" d="M317.64,610.55l.91-.51a1.64,1.64,0,0,0,.85-.92v-.47l-.09-.24a4.53,4.53,0,0,0-1.06-1.79,1.1,1.1,0,0,0-1.45-.24,12.63,12.63,0,0,0-1.19.68,3.26,3.26,0,0,1-4.82-2.78,13.08,13.08,0,0,0,0-1.4,1.06,1.06,0,0,0-.77-1.06,4.07,4.07,0,0,0-2.49,0,1.06,1.06,0,0,0-.77,1c0,.33,0,.66,0,1s0,.8-.08,1.19a3.29,3.29,0,0,1-4.63,2.09c-.43-.26-.86-.52-1.31-.74a1.1,1.1,0,0,0-1.43.24,4.4,4.4,0,0,0-1.08,1.84,1.13,1.13,0,0,0,.53,1.43c.38.24.76.47,1.16.67a3.27,3.27,0,0,1,0,5.58,12.06,12.06,0,0,0-1.16.67,1.11,1.11,0,0,0-.53,1.4,4.46,4.46,0,0,0,1.06,1.85,1.13,1.13,0,0,0,1.48.25c.38-.2.75-.42,1.12-.65a3.27,3.27,0,0,1,4.87,2.83c0,.42,0,.83,0,1.25a1.13,1.13,0,0,0,1,1.19,4.39,4.39,0,0,0,2.1,0,1.12,1.12,0,0,0,1-1.18c0-.46,0-.92,0-1.37a3.26,3.26,0,0,1,4.8-2.76c.36.24.75.45,1.14.66a1.17,1.17,0,0,0,1.62-.3,4,4,0,0,0,.26-.32,5.54,5.54,0,0,0,.79-1.62v-.52a2,2,0,0,0-1-1l-.7-.39a3.05,3.05,0,0,1-1.6-3.24A2.86,2.86,0,0,1,317.64,610.55ZM308.78,618a4.68,4.68,0,1,1,4.66-4.7A4.69,4.69,0,0,1,308.78,618Z"/><path class="cls-1" d="M760.86,589.32l.9-.51a1.62,1.62,0,0,0,.85-.93v-.46l-.09-.24a4.56,4.56,0,0,0-1-1.79,1.1,1.1,0,0,0-1.46-.24,10.75,10.75,0,0,0-1.19.68,3.27,3.27,0,0,1-4.82-2.78,13.08,13.08,0,0,0,0-1.4,1.07,1.07,0,0,0-.76-1.06,4.1,4.1,0,0,0-2.5,0,1.07,1.07,0,0,0-.77,1c0,.32,0,.65,0,1a11.7,11.7,0,0,1-.07,1.19,3.3,3.3,0,0,1-4.64,2.09c-.43-.26-.86-.52-1.3-.74a1.11,1.11,0,0,0-1.44.24,4.38,4.38,0,0,0-1.07,1.84,1.11,1.11,0,0,0,.52,1.42,11.47,11.47,0,0,0,1.17.68,3.26,3.26,0,0,1,0,5.57c-.4.2-.78.44-1.16.68a1.12,1.12,0,0,0-.53,1.4,4.38,4.38,0,0,0,1.07,1.84,1.1,1.1,0,0,0,1.47.25c.39-.19.76-.42,1.13-.64a3.26,3.26,0,0,1,4.87,2.83c0,.42,0,.83,0,1.24a1.13,1.13,0,0,0,1,1.2,4.43,4.43,0,0,0,2.11,0,1.12,1.12,0,0,0,1-1.18c0-.46,0-.92,0-1.37a3.26,3.26,0,0,1,4.79-2.77,13,13,0,0,0,1.14.66,1.17,1.17,0,0,0,1.62-.29,2.91,2.91,0,0,0,.26-.33,5.37,5.37,0,0,0,.79-1.61v-.52a2,2,0,0,0-1-1l-.7-.39a3.07,3.07,0,0,1-1.6-3.24A2.87,2.87,0,0,1,760.86,589.32ZM752,596.79a4.68,4.68,0,1,1,4.66-4.7A4.67,4.67,0,0,1,752,596.79Z"/><path class="cls-1" d="M709.83,354.84l.91-.51a1.65,1.65,0,0,0,.85-.93v-.46l-.09-.25a4.53,4.53,0,0,0-1.06-1.79,1.12,1.12,0,0,0-1.46-.24,11.7,11.7,0,0,0-1.18.69,3.27,3.27,0,0,1-4.82-2.78,13.08,13.08,0,0,0,0-1.4,1.06,1.06,0,0,0-.77-1.06,4.15,4.15,0,0,0-2.49,0,1.07,1.07,0,0,0-.77,1c0,.32,0,.65,0,1s0,.79-.08,1.19a3.29,3.29,0,0,1-4.63,2.09c-.43-.26-.86-.52-1.31-.74a1.07,1.07,0,0,0-1.43.24,4.4,4.4,0,0,0-1.08,1.84,1.12,1.12,0,0,0,.53,1.42,10.35,10.35,0,0,0,1.16.68,3.26,3.26,0,0,1,0,5.57,10.35,10.35,0,0,0-1.16.68,1.11,1.11,0,0,0-.53,1.4,4.36,4.36,0,0,0,1.06,1.84,1.11,1.11,0,0,0,1.48.25c.38-.19.75-.42,1.12-.64a3,3,0,0,1,3.3.05,3,3,0,0,1,1.57,2.78c0,.41,0,.83,0,1.24a1.13,1.13,0,0,0,1,1.2,4.27,4.27,0,0,0,2.1,0,1.11,1.11,0,0,0,1-1.17q0-.69,0-1.38a3.27,3.27,0,0,1,4.8-2.76,11.66,11.66,0,0,0,1.14.66,1.18,1.18,0,0,0,1.62-.29l.26-.33a5.54,5.54,0,0,0,.79-1.62v-.51a2,2,0,0,0-1-1c-.24-.12-.47-.26-.7-.38a3.06,3.06,0,0,1-1.6-3.25A2.86,2.86,0,0,1,709.83,354.84ZM701,362.3a4.68,4.68,0,1,1,4.66-4.69A4.67,4.67,0,0,1,701,362.3Z"/><path class="cls-1" d="M440.44,159.41l1.82-1a3.34,3.34,0,0,0,1.71-1.87v-.94c-.06-.16-.12-.32-.17-.48a9.5,9.5,0,0,0-2.13-3.61,2.24,2.24,0,0,0-2.94-.48,23.46,23.46,0,0,0-2.39,1.37c-3.89,2.58-10-.92-9.7-5.59.05-.94,0-1.88,0-2.82a2.16,2.16,0,0,0-1.54-2.14,8.3,8.3,0,0,0-5,0,2.14,2.14,0,0,0-1.54,2.08c0,.65,0,1.32,0,2s-.05,1.59-.15,2.38c-.39,3.09-5.39,6.57-9.33,4.21-.86-.51-1.73-1-2.63-1.49a2.2,2.2,0,0,0-2.89.49,8.94,8.94,0,0,0-2.16,3.7,2.26,2.26,0,0,0,1.06,2.87,23.74,23.74,0,0,0,2.34,1.36c4.21,2.1,4.2,9.13,0,11.23A22.56,22.56,0,0,0,402.4,172a2.26,2.26,0,0,0-1.07,2.83,9,9,0,0,0,2.14,3.71,2.25,2.25,0,0,0,3,.5c.77-.39,1.51-.84,2.26-1.29a6.58,6.58,0,0,1,9.81,5.7c0,.83,0,1.67,0,2.5a2.27,2.27,0,0,0,2,2.4,8.9,8.9,0,0,0,4.23,0,2.25,2.25,0,0,0,1.93-2.37c0-.92.05-1.85,0-2.77-.22-4.6,5.77-8.08,9.66-5.56a22.88,22.88,0,0,0,2.3,1.33,2.36,2.36,0,0,0,3.26-.6,6.73,6.73,0,0,0,.52-.65,10.92,10.92,0,0,0,1.59-3.25v-1.05a4,4,0,0,0-2-1.93l-1.42-.79c-2.59-1.42-3.45-3.7-3.21-6.52A5.78,5.78,0,0,1,440.44,159.41Zm-17.84,15A9.42,9.42,0,1,1,432,165,9.4,9.4,0,0,1,422.6,174.44Z"/><path class="cls-1" d="M542.66,647.42l1.86.52a3.09,3.09,0,0,0,2.35-.1l.61-.62.21-.43a8.48,8.48,0,0,0,1-3.75,2.06,2.06,0,0,0-1.6-2.24,23.07,23.07,0,0,0-2.47-.67c-4.23-.86-5.92-7.13-2.68-10,.64-.57,1.25-1.2,1.84-1.84a2,2,0,0,0,.39-2.41,7.76,7.76,0,0,0-3.29-3.3,2,2,0,0,0-2.37.35c-.46.41-.87.87-1.31,1.29s-1.08,1-1.67,1.46c-2.28,1.76-7.83.77-8.87-3.36-.22-.9-.45-1.81-.74-2.69a2,2,0,0,0-2.21-1.57,8.29,8.29,0,0,0-3.84,1,2.1,2.1,0,0,0-1.19,2.58,22.69,22.69,0,0,0,.64,2.42c1.38,4.13-3.22,8.73-7.35,7.35a22.74,22.74,0,0,0-2.42-.65A2.09,2.09,0,0,0,507,631.9a8.24,8.24,0,0,0-1,3.83,2.1,2.1,0,0,0,1.62,2.28c.77.24,1.55.44,2.33.63a6.1,6.1,0,0,1,2.69,10.16c-.56.53-1.11,1.07-1.64,1.64a2.11,2.11,0,0,0-.29,2.85,8.1,8.1,0,0,0,2.78,2.77,2.1,2.1,0,0,0,2.82-.28c.62-.58,1.24-1.18,1.81-1.81,2.87-3.17,9.07-1.52,10,2.68a24.38,24.38,0,0,0,.64,2.37,2.18,2.18,0,0,0,2.52,1.75,6.48,6.48,0,0,0,.77-.09,10,10,0,0,0,3.18-1.09l.68-.68a3.78,3.78,0,0,0,0-2.59c-.14-.48-.27-1-.41-1.44-.77-2.63.16-4.69,2.17-6.38A5.34,5.34,0,0,1,542.66,647.42Zm-21.52-1.84a8.72,8.72,0,1,1,12.33,0A8.7,8.7,0,0,1,521.14,645.58Z"/><path class="cls-2" d="M848.37,262.17c-27.53-31.29-63.53-47.3-104.21-53.75-3.23-.51-6.43-1.34-9.63-2H707.84c-28.44,4.92-55.35,14.06-76.92,33.76-17.73,16.19-34,34-50.42,51.6-12.3,13.21-23.79,27.17-35.38,40.47-21.33-20.17-41.37-40.49-62.87-59.11-32.2-27.86-67.59-50.44-110.53-58.33-97.61-17.95-192.26,46.72-205,145.22-14.94,115.69,83.93,214.32,207.39,180,36.22-10.07,62.84-35.42,86.37-63.62,15.12-18.11,29.16-37.1,43-54.89C562.27,474.35,613.73,537.27,699,548.88h28.91c24.77-4.65,48.46-12,70.76-24.27C894.81,471.42,919.52,343.05,848.37,262.17ZM477.6,435.66C456.36,463.5,433,489.05,401.7,506c-75.1,40.77-164.95-3.6-178.58-88.24-1.18-7.27-1.94-14.63-2.87-21.95.49-50.64,41.3-96.41,93.4-105.08,31.27-5.2,58.05,4.11,80.84,24.62,27.22,24.46,53.6,49.92,79.89,75.41C497.75,413.46,498.31,408.5,477.6,435.66Zm245.7,33.53c-27,.34-50.26-9.85-69.45-27.68-30.87-28.74-60.49-58.83-90.63-88.34-5.09-5-6.91-10.52-2.42-16.79,24.37-33.78,50.32-66,87.6-86.71,41.32-22.91,83-22.71,123.45,1.29,41.23,24.42,61.87,62.2,62.22,109.6C834.52,417.55,780.88,469,723.3,469.19Z"/><path class="cls-3" d="M887.83,199.26a61.59,61.59,0,0,1-11,15.32c-2.61,2.63-5.52,4.95-8.34,7.36a6.68,6.68,0,0,1-4.74,1.5,2.29,2.29,0,0,0-1.26.46c-3.45,2.5-6.87,5-10.32,7.53a2.75,2.75,0,0,0-1.2,1.93c-.7,4.19-1.38,8.39-2.18,12.57a37.94,37.94,0,0,1-1.47,5.2,4.82,4.82,0,0,1-9.11-3.15c1.8-4.73,2.5-9.69,3.24-14.64.19-1.25.45-2.49.76-3.71a9.06,9.06,0,0,1,3.38-5.13c2.61-2,5.13-4.09,8-6.36-3-.84-5.69-1.62-8.41-2.31a2.38,2.38,0,0,0-1.55.28c-3.19,1.67-6.37,3.36-9.52,5.11-2.14,1.2-4.18,2.57-6.32,3.77a4.78,4.78,0,0,1-5.62-.74,4.7,4.7,0,0,1-1-5.56,5.06,5.06,0,0,1,1.82-2.06c5.15-2.91,10.35-5.72,15.53-8.56a13.78,13.78,0,0,1,11-1.08c3.52,1,7.11,1.87,10.64,2.87a2.55,2.55,0,0,0,2.39-.4,52.43,52.43,0,0,0,11.07-10.11,1.7,1.7,0,0,1,1.84-.59c2.64.32,5.29.64,7.94.7a3.76,3.76,0,0,0,3.84-2.78,3.61,3.61,0,0,0-1.31-4.14,5,5,0,0,0-2.79-.83,21.4,21.4,0,0,1-12.54-3.38,2.25,2.25,0,0,1-.72-.78,41.79,41.79,0,0,1-5.36-16.21,3.39,3.39,0,0,1,3-3.74,3.49,3.49,0,0,1,3.89,3.07,62.76,62.76,0,0,0,1.34,6.23A26.22,26.22,0,0,0,881,190.19a2.5,2.5,0,0,0,1.51.57A5.73,5.73,0,0,1,887.83,199.26Z"/><path class="cls-3" d="M898.58,182.44a9.14,9.14,0,1,1-9.13-9.16A9.14,9.14,0,0,1,898.58,182.44Z"/><path class="cls-3" d="M883.51,199c-.67.08-1.36.09-1.9.13a30.61,30.61,0,0,1-18.09-6.67,43.44,43.44,0,0,1-8.87-9.29,3.46,3.46,0,1,1,5.58-4c3.6,4.92,7.87,9,13.58,11.42a19.76,19.76,0,0,0,9.08,1.62,3.42,3.42,0,0,1,4,3.18C887,197.19,885.65,198.71,883.51,199Z"/><path class="cls-1" d="M846.21,259c.24.49.49,1,.89,1.82a24.18,24.18,0,0,1-2.47-.26,2.35,2.35,0,0,0-2.48.89,1.73,1.73,0,0,1-1.39.39c-1.51-.26-3-.63-4.49-1-.66-.17-1.51,0-1.72-1.1,0-.26-.68-.46-1.07-.6s-1.26,0-1.2-1c0-.14-.51-.31-.78-.48-.92-.54-1.93-1-2.39-2l.15-.4,4.19,1.09a13.52,13.52,0,0,1-1.07-1.43,3.63,3.63,0,0,1-.22-1,4.18,4.18,0,0,1,1-.06,6.08,6.08,0,0,1,1.31.49,17.41,17.41,0,0,0,11.7.95c1.07-.24,1.38.13,1.19,1.6l1.31.11C848.18,258.25,847,258.45,846.21,259Z"/><path class="cls-1" d="M860.29,167.51h-.43a25,25,0,0,0-15.59,6.14c-1.57,1.32-2.91,2.9-4.4,4.31a3.86,3.86,0,0,1-1.23.49c.07-.43,0-1,.24-1.28,4.68-5.6,10.44-9.46,17.76-10.67a22.45,22.45,0,0,1,3.66-.26c.38,0,1.05.41,1.08.69C861.46,167.69,860.78,167.53,860.29,167.51Z"/><path class="cls-1" d="M846.78,165.62a6,6,0,0,1-1.07.73,25.86,25.86,0,0,0-9.84,6.32,26.74,26.74,0,0,0-6,9.3,2.83,2.83,0,0,1-.4.88.89.89,0,0,1-.74.21c-.16,0-.33-.35-.38-.56a1.19,1.19,0,0,1,.14-.62,27.78,27.78,0,0,1,16.43-16.64,2.15,2.15,0,0,1,.94-.22C846.12,165.05,846.34,165.32,846.78,165.62Z"/><path class="cls-1" d="M830.74,252.69c-.35-.16-.83-.21-1-.48-1.75-2.19-2.07-4.78-1.86-7.47,0-.22.41-.4.62-.61.15.21.41.4.45.63a7.66,7.66,0,0,1,0,1.27,8.9,8.9,0,0,0,1.69,5.56C830.81,251.84,830.71,252.32,830.74,252.69Z"/><path class="cls-1" d="M826.33,248.68c-.25-.18-.66-.32-.71-.54-.31-1.2-.52-2.41-.71-3.38.18-1.26.27-2.25.49-3.2.07-.32.49-.55.75-.82a2.45,2.45,0,0,1,.23,1,11.45,11.45,0,0,0,.17,6.09C826.63,248,826.41,248.39,826.33,248.68Z"/><path class="cls-3" d="M909.05,466.7a5.81,5.81,0,0,0,2,1.93q7.62,4.56,15.34,9a1.71,1.71,0,0,1,1,1.55c.36,4.88.78,9.75,1.17,14.62,0,.23,0,.46,0,.85l-2.73-2q-1.86-1.41-3.7-2.84a4.45,4.45,0,0,0-5.12-.36q-8.51,4.55-16.93,9.2a5,5,0,0,0-.64,8.49,4.9,4.9,0,0,0,5.62.22c4.21-2.29,8.43-4.58,12.62-6.92a1.53,1.53,0,0,1,2,.13c3.25,2.55,6.55,5,9.83,7.55a7.35,7.35,0,0,0,6.39,1.26,17.54,17.54,0,0,0,3.54-1.41c4.46-2.14,8.91-4.32,13.36-6.48l.56-.21c-.59,2.11-1.13,4.09-1.68,6.06-.33,1.18-.68,2.37-1,3.56a2.79,2.79,0,0,0,.69,2.9c3.14,3.36,6.22,6.78,9.32,10.19a8.12,8.12,0,0,1,.94,1.3,3.85,3.85,0,0,0,4.54,1.7,3.78,3.78,0,0,0,2.59-4.09,2.14,2.14,0,0,0-.49-1.08q-4.82-5.25-9.68-10.47a1.2,1.2,0,0,1-.32-1.37c1.78-5.58,3.52-11.17,5.27-16.76a10.15,10.15,0,0,0,.32-4.1q-1.38-14.25-2.75-28.48c-.07-.73-.11-1.47-.24-2.19a3.84,3.84,0,0,0-7.62.91c.43,4.87.92,9.73,1.38,14.6.21,2.22.42,4.43.64,6.65a.65.65,0,0,1-.39.77l-16.23,8.14a4.93,4.93,0,0,1-.49.18c0-.33-.06-.6-.08-.87-.37-4.62-.74-9.23-1.08-13.85a5.3,5.3,0,0,0-2.82-4.44L916.05,460a5.11,5.11,0,0,0-6.13.61A4.86,4.86,0,0,0,909.05,466.7Z"/><path class="cls-3" d="M966.05,487.88a8.09,8.09,0,1,0,11.31-2.32A8.12,8.12,0,0,0,966.05,487.88Z"/><line class="cls-4" x1="205.98" y1="355.74" x2="226.2" y2="355.74"/><line class="cls-4" x1="168.56" y1="388.91" x2="188.78" y2="388.91"/><line class="cls-4" x1="186.99" y1="459.9" x2="207.21" y2="459.9"/><line class="cls-4" x1="205.27" y1="435.39" x2="225.49" y2="435.39"/><line class="cls-4" x1="212.45" y1="471.2" x2="232.67" y2="471.2"/><line class="cls-4" x1="173.39" y1="415.74" x2="193.62" y2="415.74"/><path class="cls-5" d="M955.12,428.12c4.78-20.39,5.21-42.43,0-66.61"/><path class="cls-5" d="M939.25,356.75c1.47,15.26,2.31,30.59,0,46.21"/><path class="cls-5" d="M925.89,345.54c2.39,26.33,2.89,49.93,0,68.64"/><path class="cls-3" d="M232.54,404.06a4,4,0,0,0-1.48-.42l-15.35,1.15a26.24,26.24,0,0,1-5.26-19.35l8.31-9.36a3.75,3.75,0,0,0,1.47-1.37,3.64,3.64,0,0,0,.53-2V353.89c-1.22-2.67-3.78-3.57-5.16-2.82s-1.36,2.74-1.36,2.92q-.27,9.47-.53,18.93l-8.2,6.21a9.12,9.12,0,0,1-3.58.84,8.73,8.73,0,0,1-1.67-.11,7.36,7.36,0,1,0-8.22,3.33,31.42,31.42,0,0,0-3.47,3.2,30.85,30.85,0,0,0-5.88,9.15l-3.9-9.26a3.12,3.12,0,0,0-4.41-1,3,3,0,0,0-.74,3.47l6.73,14.94a3.54,3.54,0,0,0,2.42.63,3.44,3.44,0,0,0,2.1-1.06l5.79-7.78c1.23,3.91,8.1,18.23,8.1,18.23l-5.05,7.85s-10,26.36-13,35.66a4.62,4.62,0,0,0,4.2,2.73,4.74,4.74,0,0,0,3.68-2q3.8-10.35,7.58-20.71a40.12,40.12,0,0,1,16.3-19.36A38.18,38.18,0,0,1,225.6,413l-1.79,18.82a3.48,3.48,0,0,0,6.41.53l4.32-26.09A4.39,4.39,0,0,0,232.54,404.06Z"/><circle class="cls-3" cx="549.81" cy="239.6" r="6.87"/><path class="cls-3" d="M553.27,248.17c1.7-.71,7.35-4.42,11-6.63l7.09-9.57a2.66,2.66,0,0,1,4.25,2.2q-4.15,5.42-8.29,10.84c-1.68.85-5.5,4.36-8.3,11.27-1.65,4.1-1.4,10.58-1.2,12.61,2.82,5.8,3.56,8.45,6.38,14.25a7.07,7.07,0,0,1-1,4.67l-8.72,9.71a3,3,0,0,1-3.76.07,3,3,0,0,1,.29-4.46l8-9-7.22-8.08a165.23,165.23,0,0,0-10.14,38.06,3.09,3.09,0,1,1-6-1.35c1.87-7.17,1.94-15.51,3-17.93,2.43-5.69,4.9-14.12,4.89-26A124.29,124.29,0,0,0,538.78,255a126.85,126.85,0,0,0-14.67-26.29,3.8,3.8,0,0,1-1.28-4.25c.79-1.61,3.28-1.31,5.58.33,3.4,4.8,4.7,5.58,8.1,10.37,1.75,4.3,6.94,12.55,9.57,13.21A12.7,12.7,0,0,0,553.27,248.17Z"/></g></g></svg>