<svg xmlns="http://www.w3.org/2000/svg" viewBox="0 0 816.02 551.06"><defs><style>.cls-1{fill:#3498db;}.cls-13,.cls-14,.cls-2{fill:#fff;}.cls-3{fill:#b7957e;}.cls-4{fill:#d6d6d6;}.cls-5{fill:#16a085;}.cls-6{fill:#d3ab90;}.cls-7{fill:#1abc9c;}.cls-8{fill:#2880b2;}.cls-9{fill:#2980b9;}.cls-10{fill:#d1342c;}.cls-11,.cls-15{fill:none;}.cls-12{fill:#e74c3c;}.cls-13,.cls-14,.cls-15{stroke:#3498db;stroke-miterlimit:10;}.cls-13{stroke-width:3px;}.cls-15{stroke-width:0.75px;}</style></defs><title>2-sm</title><g id="Layer_2" data-name="Layer 2"><g id="Layer_2-2" data-name="Layer 2"><circle class="cls-1" cx="432.32" cy="514.86" r="15.98"/><circle class="cls-2" cx="432.32" cy="514.86" r="12.47"/><circle class="cls-1" cx="735.06" cy="393.12" r="15.98"/><circle class="cls-2" cx="735.06" cy="393.12" r="12.47"/><circle class="cls-1" cx="148.29" cy="457.89" r="15.98"/><circle class="cls-2" cx="148.29" cy="457.89" r="12.47"/><circle class="cls-1" cx="294.11" cy="271.45" r="15.98"/><circle class="cls-2" cx="294.11" cy="271.45" r="12.47"/><circle class="cls-1" cx="524.06" cy="210.35" r="15.98"/><circle class="cls-2" cx="524.06" cy="210.35" r="12.47"/><circle class="cls-1" cx="524.06" cy="90.61" r="15.98"/><circle class="cls-2" cx="524.06" cy="90.61" r="12.47"/><circle class="cls-1" cx="253.24" cy="220.17" r="15.98"/><circle class="cls-2" cx="253.24" cy="220.17" r="12.47"/><circle class="cls-1" cx="143.11" cy="69.43" r="5.18"/><circle class="cls-2" cx="143.11" cy="69.43" r="4.04"/><circle class="cls-1" cx="42.82" cy="108.62" r="5.18"/><circle class="cls-2" cx="42.82" cy="108.62" r="4.04"/><circle class="cls-1" cx="482.49" cy="341.33" r="5.18"/><circle class="cls-2" cx="482.49" cy="341.33" r="4.04"/><circle class="cls-1" cx="524.06" cy="441.55" r="5.18"/><circle class="cls-2" cx="524.06" cy="441.55" r="4.04"/><circle class="cls-1" cx="751.04" cy="498.88" r="5.18"/><circle class="cls-2" cx="751.04" cy="498.88" r="4.04"/><circle class="cls-1" cx="240.77" cy="368.88" r="5.18"/><circle class="cls-2" cx="240.77" cy="368.88" r="4.04"/><circle class="cls-1" cx="225.24" cy="138.61" r="5.18"/><circle class="cls-2" cx="225.24" cy="138.61" r="4.04"/><circle class="cls-1" cx="424.03" cy="44.05" r="5.18"/><circle class="cls-2" cx="424.03" cy="44.05" r="4.04"/><circle class="cls-1" cx="573.78" cy="33.68" r="5.18"/><circle class="cls-2" cx="573.78" cy="33.68" r="4.04"/><circle class="cls-1" cx="782.91" cy="103.08" r="5.18"/><circle class="cls-2" cx="782.91" cy="103.08" r="4.04"/><circle class="cls-1" cx="214.88" cy="486.44" r="5.18"/><circle class="cls-2" cx="214.88" cy="486.44" r="4.04"/><path id="Rectangle_631" data-name="Rectangle 631" class="cls-3" d="M606.18,150.58h0a3.54,3.54,0,0,1,5,.16l14.69,15.68a3.53,3.53,0,0,1-.16,5h0a3.53,3.53,0,0,1-5-.16L606,155.58A3.53,3.53,0,0,1,606.18,150.58Z"/><path class="cls-3" d="M385.18,269.8a4,4,0,1,0-6.75,2.81v14.66a2.79,2.79,0,0,0,2.79,2.79h0a2.79,2.79,0,0,0,2.79-2.79V272.61A4,4,0,0,0,385.18,269.8Z"/><path class="cls-3" d="M33.22,367.91a2.77,2.77,0,1,0-4.95-1.24l-6.12,8.22a2,2,0,0,0,.4,2.73h0a2,2,0,0,0,2.73-.4L31.4,369A2.77,2.77,0,0,0,33.22,367.91Z"/><polygon class="cls-4" points="11.34 345.27 202.39 203.38 216.91 264.83 425.84 122.94 431.67 196.68 653.37 68.19 613.3 22.39 790.06 7.86 724.97 163.16 686.57 111.73 396.26 280.86 387.68 212.79 187.49 340.43 174.46 287.17 11.34 379.9 11.34 345.27"/><polygon class="cls-2" points="0 337.41 191.05 195.52 205.57 256.97 414.5 115.08 420.33 188.81 642.03 60.33 601.96 14.52 778.72 0 713.63 155.3 675.23 103.87 384.92 273 376.34 204.93 176.15 332.57 163.12 279.31 0 372.04 0 337.41"/><rect id="Rectangle_646" data-name="Rectangle 646" class="cls-5" x="382.03" y="284.23" width="6.28" height="28.78" rx="3.14" transform="translate(-78.9 149.75) rotate(-20)"/><g id="Group_650" data-name="Group 650"><g id="Group_648" data-name="Group 648"><path id="Path_236" data-name="Path 236" class="cls-6" d="M397.14,301.35l.79,1.37a1.59,1.59,0,0,1-.56,2.17h0l-.22.13a1.61,1.61,0,0,1-2.19-.58l-.92-1.6a7.09,7.09,0,0,1-3.24,0l.4-.2.68-.4a4.71,4.71,0,0,0,1.25-1h0a5,5,0,0,0,.55-5.73l-3.6-6.2,3.85-5.54.05-.07a6.74,6.74,0,0,1,1.93,2.15l3.5,6A7.06,7.06,0,0,1,397.14,301.35Z"/></g><g id="Group_649" data-name="Group 649"><path id="Path_237" data-name="Path 237" d="M393.66,295.53a4.77,4.77,0,0,1,.6,3.28,4.88,4.88,0,0,1-1.15,2.45h0a4.7,4.7,0,0,1-1.24,1l-.69.4a2.81,2.81,0,0,1-.39.19,5,5,0,0,1-6.37-2l-4.3-7.43a4.94,4.94,0,0,1,.32-5.45l0,0a2.8,2.8,0,0,1,.25-.41l6.06-8.74a4,4,0,0,1,5.6-1h0l.53.37a4,4,0,0,1,1.06,5.53l0,.07-3.85,5.55Z"/></g></g><g id="Group_651" data-name="Group 651"><path id="Path_239" data-name="Path 239" class="cls-6" d="M410.78,290.32a2.89,2.89,0,0,1-3.35-2.35h0l-3.48-19.8a4.35,4.35,0,1,1,6.25-1.46,4.25,4.25,0,0,1-.5.7L413.13,287a2.87,2.87,0,0,1-2.33,3.34Z"/></g><path id="Path_240" data-name="Path 240" class="cls-7" d="M413.35,289.85l-5.59,16.66a5.91,5.91,0,0,1,.24.82l4.05,19.16a6.22,6.22,0,0,1-4.79,7.38L397.14,336a6.25,6.25,0,0,1-7.39-4.8l-4.05-19.17a6.24,6.24,0,0,1,4.8-7.38l10.12-2.14a5.94,5.94,0,0,1,1.88-.1l4.9-14.58a2.9,2.9,0,0,1,3.66-1.85l0,0,.43.14A2.9,2.9,0,0,1,413.35,289.85Z"/><rect class="cls-8" x="293.65" y="377.95" width="136.11" height="159.86"/><rect class="cls-1" x="286.65" y="391.19" width="136.11" height="159.86"/><rect class="cls-8" x="7" y="434.27" width="136.11" height="104.35"/><rect class="cls-1" y="446.7" width="136.11" height="104.35"/><rect class="cls-8" x="573.78" y="284.8" width="136.11" height="256.25"/><rect class="cls-1" x="566.78" y="294.8" width="136.11" height="256.25"/><path id="Path_219" data-name="Path 219" d="M646.05,292.71l-.53.16h-8.89a4.75,4.75,0,0,1-.19-9.5l-9.07-28.5a5.44,5.44,0,0,1-.23-2.23c0-.13,0-.26,0-.39a4,4,0,0,1,.17-.78l5.09-18.05h0l.06-.22h9.58a4.15,4.15,0,0,0,2.43-.79L638.69,253l10.08,31.68.54,1.69a5,5,0,0,1-3.25,6.31Z"/><path id="Rectangle_645" data-name="Rectangle 645" class="cls-9" d="M644,191.88h0a4,4,0,0,1-5.64,0l-14.6-14.6a4,4,0,0,1,0-5.64h0a4,4,0,0,1,5.64,0l14.6,14.6A4,4,0,0,1,644,191.88Z"/><path id="Path_227" data-name="Path 227" class="cls-6" d="M606,177.8a3.7,3.7,0,0,1-4.39-2.8l-3.46-15.74a5.54,5.54,0,1,1,7.4-.56l3.25,14.71A3.69,3.69,0,0,1,606,177.8Z"/><path id="Path_228" data-name="Path 228" class="cls-6" d="M640,165v7.43a9.68,9.68,0,0,1-6.48,9.13v2.38a2.18,2.18,0,0,1-4.36,0V182a9.65,9.65,0,0,1-8.5-9.6V165a9.67,9.67,0,1,1,19.34,0Z"/><path id="Path_229" data-name="Path 229" class="cls-1" d="M645.8,190.43v28.65a6,6,0,0,1-6,6H622.88a6,6,0,0,1-6-6h0V191.47l-14-14a4,4,0,1,1,5.55-5.74l.09.1,12.8,12.81a5.15,5.15,0,0,1,1.56-.21H639.8A6,6,0,0,1,645.8,190.43Z"/><path id="Path_231" data-name="Path 231" d="M646.2,229.1a4.12,4.12,0,0,1-4.12,4.1h-9.57l-.06.22h0l-17.7,19.3,9.64,26.49a4.64,4.64,0,0,1,.77,1.35,4.76,4.76,0,0,1-2.85,6.09l-8.29,3a4.76,4.76,0,0,1-3.35-8.91l.1,0,1.86-.68-9.35-25.71a4.76,4.76,0,0,1-.23-.82h0a5.64,5.64,0,0,1,1.06-6l14-15.24a4.05,4.05,0,0,1-1.57-3.22,4.09,4.09,0,0,1,4.09-4.11h21.5a4.11,4.11,0,0,1,4.12,4.11Z"/><path id="Path_232" data-name="Path 232" d="M642.76,163.06V173a6.78,6.78,0,0,1-13.56.21v-8.81l-7.38-3.46a5.52,5.52,0,0,1,4.69-10L638,156.3a5.16,5.16,0,0,1,1.23.79h0a6.94,6.94,0,0,1,3.53,6Z"/><rect id="Rectangle_646-2" data-name="Rectangle 646" class="cls-10" x="12.64" y="380.93" width="20.12" height="4.39" rx="2.2" transform="translate(-360.16 356.2) rotate(-82.59)"/><g id="Group_650-2" data-name="Group 650"><g id="Group_648-2" data-name="Group 648"><path id="Path_236-2" data-name="Path 236" class="cls-6" d="M25.89,384.31l.76.8a1.1,1.1,0,0,1,0,1.56h0l-.12.13a1.13,1.13,0,0,1-1.58,0l-.89-.94a4.8,4.8,0,0,1-2.2.54l.24-.19.4-.38a3.74,3.74,0,0,0,.68-.9h0a3.4,3.4,0,0,0,.38-1.85,3.33,3.33,0,0,0-.94-2.13l-3.45-3.63,1.71-4.4s0,0,0-.06A4.94,4.94,0,0,1,22.53,374l3.36,3.53A5,5,0,0,1,25.89,384.31Z"/></g><g id="Group_649-2" data-name="Group 649"><path id="Path_237-2" data-name="Path 237" d="M22.58,380.91a3.48,3.48,0,0,1,.56,4h0a3.56,3.56,0,0,1-.68.9l-.4.38-.24.2a3.46,3.46,0,0,1-4.65-.32L13,381.71a3.46,3.46,0,0,1-.66-3.76s0,0,0,0a2.83,2.83,0,0,1,.11-.31l2.7-6.93a2.8,2.8,0,0,1,3.64-1.6h0l.42.16a2.83,2.83,0,0,1,1.62,3.59s0,0,0,.06l-1.71,4.39Z"/></g></g><g id="Group_647" data-name="Group 647"><path id="Path_235" data-name="Path 235" d="M429.5,389.23l-5.46,1-1.72.34a5,5,0,0,1-.56-.06l-.66-.1a4.15,4.15,0,0,1-2.78-1.8,4.09,4.09,0,0,1-.64-2.94l4-25.07-17.5-20.23-1.39.3,6.61,13.58.52,1.05a4.49,4.49,0,0,1,.32.89s0,0,0,0a4,4,0,0,1,0,1.09l-.15,1.14-3,22.78.53-.1a3.46,3.46,0,0,1,4,2.78v0l.11.54a3.5,3.5,0,0,1-2.8,4l-5.09.91-1.58.29-.46,0-.65-.08a4.15,4.15,0,0,1-3.57-4.64l.05-.44,3.49-26.77-7.6-15.58a1.89,1.89,0,0,1-.11-.25,3,3,0,0,1-1.53-2l-.11-.47a3,3,0,0,1,2.31-3.55l17-3.61a3,3,0,0,1,3.55,2.31l.1.47a3,3,0,0,1-1,2.87l16.05,18.54c.07.09.11.17.17.26l.05.09a4.1,4.1,0,0,1,.71,2.92.31.31,0,0,0,0,.1l-.05.34L427.31,382l.78-.14a3.45,3.45,0,0,1,4.06,2.74h0l.11.54A3.49,3.49,0,0,1,429.5,389.23Z"/><g id="Group_646" data-name="Group 646"><line id="Line_81" data-name="Line 81" class="cls-11" x1="424.03" y1="390.28" x2="422.32" y2="390.61"/></g></g><g id="Group_651-2" data-name="Group 651"><path id="Path_239-2" data-name="Path 239" class="cls-6" d="M32.13,380a2,2,0,0,1-1.8-2.22h0l1.5-14a3,3,0,1,1,4.48.22,2.45,2.45,0,0,1-.47.38l-1.48,13.8a2,2,0,0,1-2.22,1.8Z"/></g><path id="Path_240-2" data-name="Path 240" class="cls-12" d="M35,373.85,34,386.09a2.9,2.9,0,0,1,.29.52l6.55,14.95a4.36,4.36,0,0,1-2.06,5.8l-8.53,2.1a4.35,4.35,0,0,1-5.8-2.06l-4.55-14a4.36,4.36,0,0,1,2.07-5.8l6.53-3.1a4.27,4.27,0,0,1,1.26-.38l1-10.71a2,2,0,0,1,2.19-1.84h0l.32,0A2,2,0,0,1,35,373.85Z"/><path id="Path_219-2" data-name="Path 219" d="M27.75,447.44a3,3,0,0,1-2-3.81l.32-1,6.1-19.16L28.69,411a2.48,2.48,0,0,0,1.46.48H36l0,.13h0l3.08,10.92a2.46,2.46,0,0,1,.1.47,1.64,1.64,0,0,1,0,.23,3.23,3.23,0,0,1-.14,1.35L33.57,441.8a2.88,2.88,0,0,1-.12,5.75H28.08l-.32-.1Z"/><path id="Path_231-2" data-name="Path 231" d="M26.72,412.12a2.49,2.49,0,0,1,1.66-3.1l12.44-3.76h0a2.48,2.48,0,0,1,2.74,3.8l10.75,6.37A3.44,3.44,0,0,1,56,418.7h0a2.9,2.9,0,0,1,0,.51l-.91,16.52,1.19.06h.06a2.88,2.88,0,0,1-.38,5.74l-5.32-.3a2.87,2.87,0,0,1-2.71-3,2.61,2.61,0,0,1,.2-.91l1-17-13.62-8.07h0l-.07-.12-5.54,1.67a2.49,2.49,0,0,1-3.1-1.65Z"/><circle class="cls-1" cx="319.27" cy="58.56" r="50.05"/><circle class="cls-2" cx="319.27" cy="58.56" r="39.06"/><path class="cls-1" d="M294.11,64.13l1.49-.53-1.48-1.1,1.29-.47-1-.74.31-.11c3.1-1,6.2-2,9.29-3.09a115,115,0,0,0,15.78-6.91c4.18-2.18,8.28-4.53,12.33-7a1.37,1.37,0,0,0,.18-.16h.12a2.68,2.68,0,0,0,.28.18l15.86,8.56.27.16-.54.4.69.4-1.28.9,1.28.73-1.28.91L349,57a2.77,2.77,0,0,1-.25.19c-6.54,4.59-13.21,8.94-20.11,12.91A185.17,185.17,0,0,1,312,78.64a2,2,0,0,0-.25.14h-.11a2.18,2.18,0,0,0-.22-.21L294.41,66l-.29-.23,1.48-.52Zm18.48-7.73a.45.45,0,0,0-.51,0,89,89,0,0,1-9.51,3.76l-.49.15a5,5,0,0,1,.07,5l6.44,4.62a5.67,5.67,0,0,1,2.84-1.1,5.74,5.74,0,0,1,4.6,1.44c.12.1.2.18.37.09l9.66-4.64.08-.06-.64-.44ZM345,55.51l-1.5,1-8.68,5.39c-.26.16-.26.16-.2.58l10.44-6.84Zm2.6-.18a.66.66,0,0,0-.93,0q-5.78,4-11.74,7.72a.59.59,0,0,0-.36.68c0,.08,0,.17,0,.33,4.46-2.77,8.79-5.67,13.07-8.67C347.62,55.35,347.61,55.34,347.61,55.33ZM334.56,65.2c0,.15,0,.3,0,.5C339,62.92,343.37,60,347.64,57c-.42-.38-.47-.38-.9-.08-3.93,2.71-7.9,5.33-11.95,7.83A.4.4,0,0,0,334.56,65.2ZM334.05,61a.38.38,0,0,0,.48,0c2.48-1.48,4.91-3,7.26-4.72l.25-.19a6.3,6.3,0,0,1-.14-5.46l-.83-.47-4.47-2.56a.3.3,0,0,0-.38,0,7.55,7.55,0,0,1-7.38.46.3.3,0,0,0-.26,0l-7.79,4.09,0,.07,2.41,1.59ZM303.33,71.12c1.12,1,2.22,2,3.38,3s2.63,2,4,3c.3.24.63.45.93.7a.41.41,0,0,0,.48.06c3.73-1.67,7.39-3.5,11-5.45,1.17-.64,2.33-1.31,3.51-1.94a.53.53,0,0,0,.35-.64,2.51,2.51,0,0,1,0-.39l-.33.18c-4.79,2.68-9.67,5.16-14.66,7.4a.5.5,0,0,1-.57-.06c-2.78-2.08-5.57-4.14-8.35-6.21l-.21-.13,0,0Zm-1.2-2.55c1.05.94,2.07,1.92,3.16,2.82s2.41,1.85,3.63,2.77c.89.67,1.8,1.33,2.7,2a.36.36,0,0,0,.43,0c5-2.23,9.88-4.76,14.66-7.47a.35.35,0,0,0,.22-.39,4.86,4.86,0,0,1,0-.55l-.36.19c-4.78,2.68-9.65,5.16-14.64,7.38a.46.46,0,0,1-.54-.07l-9.14-6.79-.23-.15-.06.08A1.13,1.13,0,0,1,302.13,68.57Zm-1.05-2.37c1,.93,2,1.88,3.09,2.76.84.7,1.73,1.32,2.6,2l4.85,3.6a.37.37,0,0,0,.41.07c5-2.24,9.89-4.77,14.68-7.49.23-.12.22-.13.18-.73l-.32.17c-4.74,2.55-9.57,4.9-14.5,7a.47.47,0,0,1-.54,0l-10.38-7.4-.23-.14,0,0Z"/><path class="cls-1" d="M311.26,58.2a7,7,0,0,0,3.59,6.38,10.29,10.29,0,0,0,4.9,1.44,14.11,14.11,0,0,0,4.59-.5l-12.95-8.66A13.44,13.44,0,0,0,311.26,58.2Z"/><path class="cls-1" d="M322.75,52.09l12.27,8a6.12,6.12,0,0,0,.1-2.29,6.53,6.53,0,0,0-3.6-4.94,10,10,0,0,0-4.19-1.18A13.84,13.84,0,0,0,322.75,52.09Z"/><circle class="cls-1" cx="39.21" cy="211.16" r="33.28"/><circle class="cls-2" cx="39.21" cy="211.16" r="25.97"/><circle class="cls-13" cx="39.21" cy="211.16" r="14.01"/><circle class="cls-13" cx="39.21" cy="211.16" r="9.01"/><line class="cls-14" x1="39.21" y1="211.16" x2="53.22" y2="197.15"/><polyline class="cls-15" points="50.31 195.49 50.31 200.06 54.63 200.06"/><polyline class="cls-15" points="51.76 194.05 51.76 198.61 56.07 198.61"/><polyline class="cls-15" points="53.12 192.69 53.12 197.25 57.43 197.25"/><circle class="cls-1" cx="39.21" cy="211.16" r="0.81"/><circle class="cls-1" cx="790.06" cy="279.28" r="25.96"/><circle class="cls-2" cx="790.06" cy="279.28" r="20.26"/><path class="cls-1" d="M785.8,283.42a1.19,1.19,0,0,1,0,1.56,1,1,0,0,1-.69.32,1,1,0,0,1-.71-.32L780,280.05a.14.14,0,0,1-.07-.11l-.05,0a1.21,1.21,0,0,1,0-.14.09.09,0,0,1,0-.07s0-.09,0-.1,0-.07,0-.09v-.12s0-.05,0-.11v-.2s0-.06,0-.07,0-.09,0-.14,0,0,0,0a1,1,0,0,1,.08-.15s0,0,0,0a.74.74,0,0,1,.09-.12l4.39-4.94a1,1,0,0,1,1.4,0,1.19,1.19,0,0,1,0,1.56l-3.7,4.14Z"/><path class="cls-1" d="M787.23,285.42l3.82-13.21c.19-.63.69-.93,1.14-.65a1.47,1.47,0,0,1,.44,1.6l-3.82,13.23c-.15.48-.47.75-.8.75a.53.53,0,0,1-.31-.09A1.46,1.46,0,0,1,787.23,285.42Z"/><path class="cls-1" d="M800.23,279.91h0a.63.63,0,0,1-.11.13L795.72,285a1,1,0,0,1-.7.32.94.94,0,0,1-.7-.32,1.19,1.19,0,0,1,0-1.56l3.69-4.14-3.69-4.14a1.19,1.19,0,0,1,0-1.56,1,1,0,0,1,1.4,0l4.38,4.94a1.1,1.1,0,0,1,.11.12s0,0,0,0a.93.93,0,0,1,.07.15s0,0,0,0,0,.08,0,.15,0,0,0,.06v.12l0,.08s0,.07,0,.09v.14s0,0,0,0,0,.12,0,.16,0,0,0,.05A1.58,1.58,0,0,1,800.23,279.91Z"/></g></g></svg>