<svg xmlns="http://www.w3.org/2000/svg" viewBox="0 0 1202.71 723.73"><defs><style>.cls-1{fill:#3498db;}.cls-13,.cls-14,.cls-2{fill:#fff;}.cls-3{fill:#b7957e;}.cls-4{fill:#d6d6d6;}.cls-5{fill:#16a085;}.cls-6{fill:#d3ab90;}.cls-7{fill:#1abc9c;}.cls-8{fill:#2880b2;}.cls-9{fill:#2980b9;}.cls-10{fill:#d1342c;}.cls-11,.cls-15{fill:none;}.cls-12{fill:#e74c3c;}.cls-13,.cls-14,.cls-15{stroke:#3498db;stroke-miterlimit:10;}.cls-13{stroke-width:3px;}.cls-15{stroke-width:0.75px;}</style></defs><title>2</title><g id="Layer_2" data-name="Layer 2"><g id="Layer_2-2" data-name="Layer 2"><circle class="cls-1" cx="459.57" cy="681.78" r="24.08"/><circle class="cls-2" cx="459.57" cy="681.78" r="18.79"/><circle class="cls-1" cx="711.91" cy="586.36" r="15.98"/><circle class="cls-2" cx="711.91" cy="586.36" r="12.47"/><circle class="cls-1" cx="875.89" cy="170.86" r="15.98"/><circle class="cls-2" cx="875.89" cy="170.86" r="12.47"/><circle class="cls-1" cx="1041.74" cy="50.17" r="15.98"/><circle class="cls-2" cx="1041.74" cy="50.17" r="12.47"/><circle class="cls-1" cx="830.74" cy="50.17" r="7.79"/><circle class="cls-2" cx="830.74" cy="50.17" r="6.08"/><circle class="cls-1" cx="538.37" cy="183.33" r="7.79"/><circle class="cls-2" cx="538.37" cy="183.33" r="6.08"/><circle class="cls-1" cx="384.29" cy="191.12" r="7.79"/><circle class="cls-2" cx="384.29" cy="191.12" r="6.08"/><circle class="cls-1" cx="150.52" cy="316.61" r="7.79"/><circle class="cls-2" cx="150.52" cy="316.61" r="6.08"/><circle class="cls-1" cx="25.05" cy="498.11" r="7.79"/><circle class="cls-2" cx="25.05" cy="498.11" r="6.08"/><circle class="cls-1" cx="216.93" cy="562.73" r="7.79"/><circle class="cls-2" cx="216.93" cy="562.73" r="6.08"/><circle class="cls-1" cx="403.09" cy="582.36" r="7.79"/><circle class="cls-2" cx="403.09" cy="582.36" r="6.08"/><circle class="cls-1" cx="552.24" cy="526.73" r="7.79"/><circle class="cls-2" cx="552.24" cy="526.73" r="6.08"/><circle class="cls-1" cx="714.69" cy="492.36" r="7.79"/><circle class="cls-2" cx="714.69" cy="492.36" r="6.08"/><circle class="cls-1" cx="969.81" cy="433.05" r="7.79"/><circle class="cls-2" cx="969.81" cy="433.05" r="6.08"/><circle class="cls-1" cx="738.85" cy="692.7" r="7.79"/><circle class="cls-2" cx="738.85" cy="692.7" r="6.08"/><circle class="cls-1" cx="1001.18" cy="681.78" r="7.79"/><circle class="cls-2" cx="1001.18" cy="681.78" r="6.08"/><circle class="cls-1" cx="1169.47" cy="400.54" r="7.79"/><circle class="cls-2" cx="1169.47" cy="400.54" r="6.08"/><circle class="cls-1" cx="1185.45" cy="144.31" r="7.79"/><circle class="cls-2" cx="1185.45" cy="144.31" r="6.08"/><circle class="cls-1" cx="1139.53" cy="60.65" r="7.79"/><circle class="cls-2" cx="1139.53" cy="60.65" r="6.08"/><circle class="cls-1" cx="1185.45" cy="246.81" r="15.98"/><circle class="cls-2" cx="1185.45" cy="246.81" r="12.47"/><circle class="cls-1" cx="490.54" cy="467.48" r="15.98"/><circle class="cls-2" cx="490.54" cy="467.48" r="12.47"/><circle class="cls-1" cx="969.81" cy="562.73" r="15.98"/><circle class="cls-2" cx="969.81" cy="562.73" r="12.47"/><circle class="cls-1" cx="996.5" cy="335.7" r="15.98"/><circle class="cls-2" cx="996.5" cy="335.7" r="12.47"/><circle class="cls-1" cx="170.37" cy="657.7" r="24.08"/><circle class="cls-2" cx="170.37" cy="657.7" r="18.79"/><circle class="cls-1" cx="661.21" cy="310.08" r="24.08"/><circle class="cls-2" cx="661.21" cy="310.08" r="18.79"/><path id="Rectangle_631" data-name="Rectangle 631" class="cls-3" d="M859.44,326.14h0a3.54,3.54,0,0,1,5,.17L879.13,342a3.54,3.54,0,0,1-.16,5h0a3.54,3.54,0,0,1-5-.16l-14.69-15.68A3.54,3.54,0,0,1,859.44,326.14Z"/><polygon class="cls-4" points="17.26 599.07 308.1 383.07 330.2 476.61 648.25 260.61 657.13 372.86 994.63 177.27 933.63 107.54 1202.71 85.43 1103.63 321.84 1045.16 243.56 603.22 501.01 590.16 397.4 285.42 591.7 265.57 510.63 17.26 651.79 17.26 599.07"/><path class="cls-3" d="M587.55,484.2A4,4,0,1,0,580.8,487v14.67a2.79,2.79,0,0,0,2.79,2.78h0a2.79,2.79,0,0,0,2.79-2.78V487A4,4,0,0,0,587.55,484.2Z"/><path class="cls-3" d="M268.25,567.14a2.77,2.77,0,1,0-5-1.24l-6.12,8.23a1.94,1.94,0,0,0,.41,2.72h0a1.93,1.93,0,0,0,2.72-.4l6.12-8.22A2.76,2.76,0,0,0,268.25,567.14Z"/><polygon class="cls-2" points="0 587.1 290.83 371.1 312.94 464.65 630.99 248.65 639.87 360.9 977.37 165.31 916.37 95.58 1185.45 73.47 1086.37 309.87 1027.9 231.59 585.96 489.05 572.9 385.43 268.16 579.73 248.31 498.66 0 639.83 0 587.1"/><rect id="Rectangle_646" data-name="Rectangle 646" class="cls-5" x="584.4" y="498.63" width="6.28" height="28.78" rx="3.14" transform="translate(-140.03 231.89) rotate(-20)"/><g id="Group_650" data-name="Group 650"><g id="Group_648" data-name="Group 648"><path id="Path_236" data-name="Path 236" class="cls-6" d="M599.51,515.75l.79,1.38a1.57,1.57,0,0,1-.57,2.16h0l-.22.13a1.61,1.61,0,0,1-2.19-.58l-.92-1.6a7.09,7.09,0,0,1-3.24,0,2.38,2.38,0,0,0,.39-.2l.69-.39a4.73,4.73,0,0,0,1.24-1h0a5,5,0,0,0,.56-5.73l-3.6-6.2,3.85-5.54.05-.07a6.74,6.74,0,0,1,1.93,2.15l3.5,6A7.06,7.06,0,0,1,599.51,515.75Z"/></g><g id="Group_649" data-name="Group 649"><path id="Path_237" data-name="Path 237" d="M596,509.93a4.79,4.79,0,0,1,.6,3.29,4.89,4.89,0,0,1-1.15,2.44h0a4.59,4.59,0,0,1-1.25,1l-.68.4-.39.2a5,5,0,0,1-6.37-2l-4.3-7.43a4.94,4.94,0,0,1,.32-5.45l0,0a3.45,3.45,0,0,1,.25-.41l6.06-8.74a4,4,0,0,1,5.59-1h0l.53.37a4,4,0,0,1,1.06,5.53s0,.05-.06.07l-3.84,5.55Z"/></g></g><g id="Group_651" data-name="Group 651"><path id="Path_239" data-name="Path 239" class="cls-6" d="M613.15,504.72a2.9,2.9,0,0,1-3.36-2.35h0l-3.48-19.8a4.35,4.35,0,1,1,6.25-1.46,4.25,4.25,0,0,1-.5.7l3.44,19.56a2.87,2.87,0,0,1-2.33,3.34Z"/></g><path id="Path_240" data-name="Path 240" class="cls-7" d="M615.72,504.25l-5.59,16.66a4.76,4.76,0,0,1,.23.82l4.06,19.16a6.22,6.22,0,0,1-4.79,7.38l-10.12,2.15a6.24,6.24,0,0,1-7.39-4.8l-4-19.17a6.22,6.22,0,0,1,4.8-7.37L603,516.93a5.94,5.94,0,0,1,1.88-.1l4.89-14.58a2.9,2.9,0,0,1,3.67-1.84h0l.43.14A2.91,2.91,0,0,1,615.72,504.25Z"/><rect class="cls-8" x="520.24" y="592.97" width="194.46" height="120.77"/><rect class="cls-8" x="10" y="670.65" width="194.46" height="43.09"/><rect class="cls-8" x="265.12" y="629.83" width="194.46" height="83.91"/><rect class="cls-8" x="775.35" y="457.48" width="194.46" height="256.25"/><rect class="cls-1" x="510.24" y="602.97" width="194.46" height="120.77"/><rect class="cls-1" y="680.65" width="194.46" height="43.09"/><rect class="cls-1" x="255.12" y="639.83" width="194.46" height="83.91"/><rect class="cls-1" x="765.35" y="467.48" width="194.46" height="256.25"/><path id="Path_219" data-name="Path 219" d="M899.31,468.27l-.53.17h-8.89a4.76,4.76,0,0,1-.19-9.51l-9.07-28.5a5.44,5.44,0,0,1-.23-2.23c0-.13,0-.26,0-.39a4.08,4.08,0,0,1,.17-.77L885.7,409h0l.06-.22h9.58a4,4,0,0,0,2.43-.79L892,428.58,902,460.27l.54,1.69a5,5,0,0,1-3.25,6.31Z"/><path id="Rectangle_645" data-name="Rectangle 645" class="cls-9" d="M897.3,367.44h0a4,4,0,0,1-5.64,0l-14.6-14.6a4,4,0,0,1,0-5.64h0a4,4,0,0,1,5.64,0l14.6,14.6A4,4,0,0,1,897.3,367.44Z"/><path id="Path_227" data-name="Path 227" class="cls-6" d="M859.3,353.37a3.7,3.7,0,0,1-4.39-2.8l-3.46-15.74a5.54,5.54,0,1,1,7.4-.57L862.1,349A3.7,3.7,0,0,1,859.3,353.37Z"/><path id="Path_228" data-name="Path 228" class="cls-6" d="M893.21,340.54V348a9.66,9.66,0,0,1-6.48,9.13v2.38a2.18,2.18,0,1,1-4.36,0v-1.93a9.67,9.67,0,0,1-8.5-9.61v-7.43a9.67,9.67,0,1,1,19.34,0Z"/><path id="Path_229" data-name="Path 229" class="cls-1" d="M899.06,366v28.64a6,6,0,0,1-6,6H876.14a6,6,0,0,1-6-6h0V367l-14-14a4,4,0,1,1,5.55-5.74l.09.09,12.8,12.81a5.87,5.87,0,0,1,1.56-.21h16.92A6,6,0,0,1,899.06,366Z"/><path id="Path_231" data-name="Path 231" d="M899.46,404.66a4.12,4.12,0,0,1-4.12,4.1h-9.57l-.06.22h0L868,428.3l9.64,26.48a4.69,4.69,0,0,1,.77,1.36,4.76,4.76,0,0,1-2.85,6.09l-8.29,3a4.75,4.75,0,0,1-3.35-8.9l.1,0,1.86-.67-9.35-25.72a5.39,5.39,0,0,1-.23-.81h0a5.66,5.66,0,0,1,1.06-6l14-15.24a4,4,0,0,1-1.57-3.21,4.1,4.1,0,0,1,4.09-4.12h21.5a4.11,4.11,0,0,1,4.12,4.12Z"/><path id="Path_232" data-name="Path 232" d="M896,338.62v9.9a6.78,6.78,0,0,1-13.56.2v-8.8l-7.38-3.47a5.51,5.51,0,0,1,4.69-10l11.48,5.39a5.53,5.53,0,0,1,1.23.8h0a6.88,6.88,0,0,1,3.53,6Z"/><rect id="Rectangle_646-2" data-name="Rectangle 646" class="cls-10" x="247.66" y="580.17" width="20.12" height="4.39" rx="2.2" transform="translate(-353.03 762.79) rotate(-82.59)"/><g id="Group_650-2" data-name="Group 650"><g id="Group_648-2" data-name="Group 648"><path id="Path_236-2" data-name="Path 236" class="cls-6" d="M260.91,583.54l.76.8a1.11,1.11,0,0,1,0,1.57h0l-.13.13a1.13,1.13,0,0,1-1.58,0l-.89-.94a4.93,4.93,0,0,1-2.19.55l.23-.2.4-.38a3.14,3.14,0,0,0,.68-.9h0a3.35,3.35,0,0,0,.38-1.84,3.31,3.31,0,0,0-.94-2.14l-3.45-3.63,1.72-4.4s0,0,0-.05a4.68,4.68,0,0,1,1.66,1.15l3.36,3.53A4.94,4.94,0,0,1,260.91,583.54Z"/></g><g id="Group_649-2" data-name="Group 649"><path id="Path_237-2" data-name="Path 237" d="M257.6,580.14a3.33,3.33,0,0,1,.94,2.14,3.4,3.4,0,0,1-.38,1.85h0a3.1,3.1,0,0,1-.68.89l-.4.38a1.43,1.43,0,0,1-.23.2,3.47,3.47,0,0,1-4.66-.32l-4.13-4.35a3.46,3.46,0,0,1-.67-3.76v0a3,3,0,0,1,.1-.32l2.7-6.93a2.82,2.82,0,0,1,3.64-1.6h0l.42.16a2.81,2.81,0,0,1,1.62,3.59s0,0,0,.06l-1.72,4.39Z"/></g></g><g id="Group_647" data-name="Group 647"><path id="Path_235" data-name="Path 235" d="M631.87,603.63l-5.47,1-1.71.34-.56,0-.66-.11a4.13,4.13,0,0,1-2.78-1.8,4.08,4.08,0,0,1-.64-2.94l4-25.07-17.5-20.23-1.39.31,6.61,13.57.52,1a5,5,0,0,1,.32.89s0,0,0,0a4.42,4.42,0,0,1,0,1.09l-.15,1.14-3,22.78.53-.1a3.46,3.46,0,0,1,4,2.78v0l.11.54a3.5,3.5,0,0,1-2.8,4l-5.09.91-1.58.29a3.55,3.55,0,0,1-.46,0l-.65-.08a4.14,4.14,0,0,1-3.57-4.64l.05-.44,3.49-26.77L596,556.63a2.56,2.56,0,0,1-.11-.24,3,3,0,0,1-1.53-2l-.11-.47a3,3,0,0,1,2.31-3.55l17-3.61a3,3,0,0,1,3.55,2.31l.1.47a3,3,0,0,1-1,2.87l16,18.54c.07.09.11.18.17.27l0,.08a4.1,4.1,0,0,1,.71,2.92.31.31,0,0,0,0,.1l-.05.34-3.5,21.8.77-.15a3.47,3.47,0,0,1,4.07,2.74h0l.11.54A3.49,3.49,0,0,1,631.87,603.63Z"/><g id="Group_646" data-name="Group 646"><line id="Line_81" data-name="Line 81" class="cls-11" x1="626.4" y1="604.68" x2="624.69" y2="605.01"/></g></g><g id="Group_651-2" data-name="Group 651"><path id="Path_239-2" data-name="Path 239" class="cls-6" d="M267.16,579.19a2,2,0,0,1-1.8-2.23h0l1.5-14a3,3,0,1,1,4.48.23,2.84,2.84,0,0,1-.47.37l-1.49,13.8a2,2,0,0,1-2.21,1.8Z"/></g><path id="Path_240-2" data-name="Path 240" class="cls-12" d="M270.07,573.08,269,585.32a4.4,4.4,0,0,1,.3.52l6.54,14.95a4.36,4.36,0,0,1-2.06,5.8l-8.53,2.1a4.36,4.36,0,0,1-5.8-2.06l-4.55-14a4.36,4.36,0,0,1,2.07-5.79l6.53-3.11a4.25,4.25,0,0,1,1.26-.37l1-10.71a2,2,0,0,1,2.19-1.85h0l.32,0A2,2,0,0,1,270.07,573.08Z"/><path id="Path_219-2" data-name="Path 219" d="M262.78,646.68a3,3,0,0,1-2-3.82l.32-1,6.1-19.15-3.53-12.47a2.51,2.51,0,0,0,1.47.48H271l0,.13h0l3.08,10.91a2.46,2.46,0,0,1,.1.47l0,.24a3.37,3.37,0,0,1-.14,1.34L268.59,641a2.88,2.88,0,0,1-.11,5.75h-5.37l-.32-.1Z"/><path id="Path_231-2" data-name="Path 231" d="M261.75,611.35a2.48,2.48,0,0,1,1.66-3.1l12.44-3.76h0a2.48,2.48,0,0,1,2.74,3.8l10.75,6.37a3.43,3.43,0,0,1,1.66,3.28h0a2.9,2.9,0,0,1,0,.51L290.1,635l1.2.07h.06a2.88,2.88,0,1,1-.38,5.74l-5.33-.3a2.86,2.86,0,0,1-2.5-3.94l.94-17-13.62-8.08h0l-.08-.12L264.85,613a2.5,2.5,0,0,1-3.1-1.66Z"/><circle class="cls-1" cx="89.87" cy="420.61" r="24.08"/><circle class="cls-2" cx="89.87" cy="420.61" r="18.79"/><circle class="cls-1" cx="403.09" cy="340.69" r="24.08"/><circle class="cls-2" cx="403.09" cy="340.69" r="18.79"/><circle class="cls-1" cx="661.21" cy="85.43" r="85.43"/><circle class="cls-2" cx="661.21" cy="85.43" r="66.67"/><path class="cls-1" d="M618.27,94.93l2.54-.9c-.86-.64-1.66-1.23-2.53-1.89l2.2-.79c-.59-.44-1.12-.82-1.73-1.26l.54-.2c5.29-1.75,10.59-3.45,15.85-5.27a196.16,196.16,0,0,0,26.94-11.79c7.14-3.72,14.13-7.74,21-11.9a1.69,1.69,0,0,0,.32-.28h.2a5,5,0,0,0,.48.32l27.06,14.61.47.27c-.31.23-.59.44-.92.67l1.17.7-2.18,1.54L711.91,80l-2.2,1.55,2.18,1.23-.43.33c-11.16,7.83-22.55,15.26-34.32,22a313.18,313.18,0,0,1-28.43,14.55,4.06,4.06,0,0,0-.41.25h-.2c-.13-.12-.24-.26-.38-.37L618.78,98.11l-.49-.39,2.51-.9Zm31.54-13.19a.79.79,0,0,0-.87-.08,149.51,149.51,0,0,1-16.23,6.42l-.84.26a8.48,8.48,0,0,1,.12,8.53l11,7.9a9.71,9.71,0,0,1,4.85-1.89,9.81,9.81,0,0,1,7.85,2.46c.2.18.34.31.63.16l16.49-7.92.14-.11-1.1-.75Zm55.33-1.53c-.85.56-1.69,1.13-2.55,1.66q-7.4,4.62-14.81,9.21c-.45.27-.45.26-.36,1l17.82-11.67A1.62,1.62,0,0,1,705.14,80.21Zm4.43-.29a1.09,1.09,0,0,0-1.57,0q-9.86,6.87-20,13.17a1,1,0,0,0-.62,1.15,3.33,3.33,0,0,1,0,.57c7.61-4.73,15-9.67,22.31-14.79C709.59,79.94,709.59,79.93,709.57,79.92ZM687.31,96.76c0,.26,0,.51,0,.86,7.62-4.75,15-9.68,22.33-14.81-.72-.64-.81-.65-1.55-.14-6.7,4.63-13.48,9.11-20.39,13.37A.67.67,0,0,0,687.31,96.76Zm-.87-7.12a.66.66,0,0,0,.82,0c4.22-2.53,8.37-5.19,12.39-8.06l.43-.32a10.77,10.77,0,0,1-.25-9.32l-1.41-.81c-2.54-1.45-5.09-2.9-7.62-4.36a.5.5,0,0,0-.65,0,12.9,12.9,0,0,1-12.6.78.54.54,0,0,0-.45,0q-6.65,3.48-13.29,7s0,0-.08.1l4.12,2.72Q677.15,83.5,686.44,89.64ZM634,106.86c1.92,1.69,3.79,3.45,5.77,5.06,2.2,1.79,4.5,3.43,6.75,5.14.53.4,1.08.77,1.59,1.19a.69.69,0,0,0,.83.09c6.37-2.84,12.62-6,18.77-9.3,2-1.08,4-2.23,6-3.3a.93.93,0,0,0,.61-1.1,3.36,3.36,0,0,1,0-.65l-.56.3c-8.18,4.58-16.51,8.81-25,12.62a.83.83,0,0,1-1-.1q-7.11-5.31-14.25-10.59l-.35-.23,0,.07Zm-2-4.35c1.79,1.61,3.53,3.29,5.39,4.81s4.11,3.17,6.19,4.73c1.53,1.15,3.08,2.28,4.61,3.44a.62.62,0,0,0,.74.08c8.54-3.81,16.85-8.12,25-12.75a.61.61,0,0,0,.37-.67c0-.28,0-.57,0-.94l-.62.33c-8.16,4.57-16.47,8.8-25,12.59a.78.78,0,0,1-.92-.11l-15.61-11.59-.38-.26-.11.13A3.37,3.37,0,0,1,632,102.51Zm-1.8-4c1.76,1.58,3.48,3.2,5.28,4.71,1.42,1.19,2.94,2.25,4.43,3.36,2.76,2,5.53,4.09,8.28,6.15a.6.6,0,0,0,.7.11c8.56-3.82,16.88-8.14,25.06-12.78.38-.21.38-.22.31-1.24l-.56.29c-8.09,4.34-16.32,8.35-24.74,12a.8.8,0,0,1-.92-.09L630.28,98.32c-.12-.09-.26-.17-.39-.25l-.06.08Z"/><path class="cls-1" d="M647.54,84.81a11.93,11.93,0,0,0,6.12,10.89A17.7,17.7,0,0,0,662,98.17a24.08,24.08,0,0,0,7.82-.86c-7.38-5-14.69-9.83-22.1-14.79C647.68,83.34,647.55,84.08,647.54,84.81Z"/><path class="cls-1" d="M667.15,74.38,688.1,88a10.51,10.51,0,0,0,.16-3.9,11.16,11.16,0,0,0-6.14-8.45,17.2,17.2,0,0,0-7.16-2A23.77,23.77,0,0,0,667.15,74.38Z"/><circle class="cls-1" cx="261.25" cy="265.76" r="56.8"/><circle class="cls-2" cx="261.25" cy="265.76" r="44.32"/><circle class="cls-13" cx="261.25" cy="265.76" r="23.91"/><circle class="cls-13" cx="261.25" cy="265.76" r="15.38"/><line class="cls-14" x1="261.25" y1="265.76" x2="285.17" y2="241.84"/><polyline class="cls-15" points="280.2 239.02 280.2 246.81 287.57 246.81"/><polyline class="cls-15" points="282.67 236.54 282.67 244.34 290.04 244.34"/><polyline class="cls-15" points="284.99 234.22 284.99 242.02 292.36 242.02"/><circle class="cls-1" cx="261.25" cy="265.76" r="1.38"/><circle class="cls-1" cx="1065.61" cy="438.69" r="59.92"/><circle class="cls-2" cx="1065.61" cy="438.69" r="46.76"/><path class="cls-1" d="M1055.78,448.24a2.74,2.74,0,0,1,0,3.6,2.19,2.19,0,0,1-1.58.72,2.29,2.29,0,0,1-1.66-.72l-10.11-11.39a.29.29,0,0,1-.18-.24.63.63,0,0,0-.11-.08,1.35,1.35,0,0,1-.11-.32.22.22,0,0,1-.11-.16c0-.08,0-.2-.07-.24s-.07-.16-.07-.2v-.28c0-.08,0-.12,0-.24s0-.16,0-.2v-.28c0-.08.07-.12.07-.16s0-.2.07-.32,0,0,0-.08a3,3,0,0,1,.18-.36s0-.08.07-.08a.77.77,0,0,1,.22-.28l10.11-11.4a2.18,2.18,0,0,1,3.24,0,2.74,2.74,0,0,1,0,3.6l-8.53,9.56Z"/><path class="cls-1" d="M1059.08,452.84l8.82-30.48c.43-1.46,1.58-2.14,2.63-1.51s1.44,2.3,1,3.71l-8.82,30.53a2.12,2.12,0,0,1-1.84,1.73,1.27,1.27,0,0,1-.72-.21C1059.12,456,1058.65,454.31,1059.08,452.84Z"/><path class="cls-1" d="M1089.08,440.13a0,0,0,0,1,0,0,1.58,1.58,0,0,1-.25.28l-10.11,11.39a2.18,2.18,0,0,1-3.24,0,2.74,2.74,0,0,1,0-3.6l8.53-9.55-8.53-9.56a2.74,2.74,0,0,1,0-3.6,2.18,2.18,0,0,1,3.24,0l10.11,11.4a1.58,1.58,0,0,1,.25.28s0,.08,0,.08c.07.16.14.24.18.36s0,0,0,.08a1.66,1.66,0,0,0,.1.36s0,0,0,.12v.28s0,.16,0,.2,0,.16,0,.2v.32s0,0,0,.08a2.64,2.64,0,0,0-.1.36s0,0,0,.12S1089.15,440,1089.08,440.13Z"/></g></g></svg>