<svg xmlns="http://www.w3.org/2000/svg" viewBox="0 0 729.79 572.71"><defs><style>.cls-1,.cls-4{fill:none;stroke-miterlimit:10;}.cls-1{stroke:#fff;stroke-width:2px;}.cls-2{fill:#fff;}.cls-3{fill:#e64c3c;}.cls-4{stroke:#e64c3c;}</style></defs><title>3-sm_1</title><g id="Layer_2" data-name="Layer 2"><g id="Layer_2-2" data-name="Layer 2"><line class="cls-1" x1="304.72" y1="302.24" x2="304.72" y2="360.24"/><rect class="cls-2" x="206.74" y="105.18" width="164.61" height="199.41" rx="4.01"/><rect class="cls-2" x="46.03" y="355.94" width="324.97" height="173.74" rx="8.14"/><polyline class="cls-1" points="370.81 510.84 610.29 510.84 610.29 413.2"/><circle class="cls-3" cx="240.94" cy="145.7" r="16.06"/><circle class="cls-4" cx="282.71" cy="392.84" r="16.06"/><circle class="cls-4" cx="335.7" cy="432.57" r="16.06"/><circle class="cls-4" cx="282.71" cy="472.29" r="16.06"/><circle class="cls-3" cx="252.57" cy="207.97" r="27.69"/><rect class="cls-3" x="266.65" y="135.52" width="80.13" height="2.41" rx="1.2"/><rect class="cls-3" x="266.65" y="142.28" width="80.13" height="2.41" rx="1.2"/><rect class="cls-3" x="266.65" y="148.65" width="50.5" height="2.41" rx="1.2"/><line class="cls-4" x1="289.51" y1="186.28" x2="347.72" y2="186.28"/><line class="cls-4" x1="289.51" y1="198.05" x2="347.72" y2="198.05"/><line class="cls-4" x1="289.51" y1="210.15" x2="347.72" y2="210.15"/><line class="cls-4" x1="289.51" y1="222.26" x2="347.72" y2="222.26"/><line class="cls-4" x1="289.51" y1="233.65" x2="324.28" y2="233.65"/><line class="cls-4" x1="69.54" y1="465.95" x2="240.94" y2="465.95"/><line class="cls-4" x1="69.54" y1="477.71" x2="210.14" y2="477.71"/><line class="cls-4" x1="69.54" y1="489.82" x2="240.94" y2="489.82"/><line class="cls-4" x1="69.54" y1="501.92" x2="210.14" y2="501.92"/><line class="cls-4" x1="69.54" y1="513.32" x2="171.94" y2="513.32"/><rect class="cls-3" x="278.43" y="263.24" width="19.28" height="19.28"/><rect class="cls-3" x="251.96" y="263.24" width="19.28" height="19.28"/><rect class="cls-3" x="224.88" y="263.24" width="19.28" height="19.28"/><rect class="cls-3" x="305.99" y="263.24" width="19.28" height="19.28"/><rect class="cls-3" x="332.48" y="263.24" width="19.28" height="19.28"/><rect class="cls-4" x="69.54" y="378.33" width="171.4" height="70.3"/><polyline class="cls-4" points="82.02 436.72 116.03 413.48 146.65 422.84 180.66 399.31 206.74 411.78 234.52 389.67"/><circle class="cls-4" cx="82.94" cy="390.73" r="5.17"/><line class="cls-4" x1="312.76" y1="385.56" x2="351.76" y2="385.56"/><line class="cls-4" x1="312.76" y1="392.84" x2="345.85" y2="392.84"/><line class="cls-4" x1="312.76" y1="399.87" x2="339.33" y2="399.87"/><line class="cls-4" x1="312.76" y1="465.13" x2="351.76" y2="465.13"/><line class="cls-4" x1="312.76" y1="472.42" x2="345.85" y2="472.42"/><line class="cls-4" x1="312.76" y1="479.45" x2="339.33" y2="479.45"/><line class="cls-4" x1="266.65" y1="425.41" x2="305.65" y2="425.41"/><line class="cls-4" x1="272.55" y1="432.69" x2="305.65" y2="432.69"/><line class="cls-4" x1="279.07" y1="439.72" x2="305.65" y2="439.72"/><circle class="cls-2" cx="392.31" cy="32.13" r="4.14"/><circle class="cls-2" cx="402.94" cy="3.13" r="3.13"/><circle class="cls-2" cx="397.63" cy="115.68" r="5.31"/><circle class="cls-2" cx="257.48" cy="80.22" r="0.47"/><circle class="cls-2" cx="182.08" cy="187.37" r="4.82"/><circle class="cls-2" cx="164.79" cy="236.22" r="7.94"/><circle class="cls-2" cx="217.83" cy="336.62" r="9.32"/><circle class="cls-2" cx="392.09" cy="331.24" r="7.72"/><circle class="cls-2" cx="413.78" cy="473.81" r="7.86"/><circle class="cls-2" cx="485.01" cy="539.81" r="5.01"/><circle class="cls-2" cx="304.72" cy="564.8" r="5.95"/><circle class="cls-2" cx="3.04" cy="454.64" r="3.04"/><circle class="cls-2" cx="39.78" cy="330.43" r="3.12"/><circle class="cls-2" cx="131.66" cy="565.78" r="6.94"/><path class="cls-2" d="M550.71,335.53s6,3.32,8.92,7.25c3.16,4.31,3.92,8.68,4.46,12.26a210.23,210.23,0,0,1,2.22,24.53c.48,27.44,1.66,31.85,3.91,36.23,1.53,3,4.44,8.52,10.59,12.26,5.55,3.39,11.4,3.9,17.83,4.46a212.66,212.66,0,0,0,22.3,0c6.43-.56,12.29-1.07,17.84-4.46,6.14-3.74,9.05-9.26,10.59-12.26,2.24-4.38,3.42-8.79,3.9-36.23A209.08,209.08,0,0,1,655.5,355c.54-3.58,1.29-8,4.46-12.26,2.89-3.93,8.92-7.25,8.92-7.25Z"/><circle class="cls-2" cx="572.29" cy="104.79" r="32.5"/><circle class="cls-2" cx="636.29" cy="291.79" r="32.5"/><circle class="cls-2" cx="622.29" cy="175.79" r="40.5"/><path class="cls-2" d="M652.79,73.29a25,25,0,1,0,25,25A25,25,0,0,0,652.79,73.29ZM638,87.69a2.9,2.9,0,1,1,2.89,2.89A2.89,2.89,0,0,1,638,87.69Zm6.72,18.49a2.93,2.93,0,1,1,2.93-2.93A2.93,2.93,0,0,1,644.72,106.18ZM653.46,83a2.33,2.33,0,1,1,2.33-2.33A2.33,2.33,0,0,1,653.46,83ZM660,116.12a4.79,4.79,0,1,1,4.78-4.78A4.78,4.78,0,0,1,660,116.12Zm3-18.33a5.25,5.25,0,1,1,5.25-5.25A5.25,5.25,0,0,1,663,97.79Z"/><circle class="cls-2" cx="534.79" cy="206.29" r="25"/><circle class="cls-2" cx="704.79" cy="175.29" r="25"/><path class="cls-2" d="M559.79,244.29a25,25,0,1,0,25,25A25,25,0,0,0,559.79,244.29Zm-17,37.5a4,4,0,1,1,4-4A4,4,0,0,1,542.79,281.79Zm14.5,7.5a2.5,2.5,0,1,1,2.5-2.5A2.5,2.5,0,0,1,557.29,289.29Zm-.5-17a10,10,0,1,1,10-10A10,10,0,0,1,556.79,272.29Zm10.25,9.5a1.75,1.75,0,1,1,1.75-1.75A1.75,1.75,0,0,1,567,281.79Zm6.48-29.5a2.27,2.27,0,1,1-2.27,2.27A2.27,2.27,0,0,1,573.52,252.29Zm.78,23a2.49,2.49,0,1,1,2.49-2.49A2.48,2.48,0,0,1,574.3,275.27Z"/><path class="cls-2" d="M681.79,228.29a21,21,0,1,0,21,21A21,21,0,0,0,681.79,228.29Zm-12.5,20a2.51,2.51,0,1,1,2.51-2.51A2.5,2.5,0,0,1,669.29,248.31Zm6,18a3.5,3.5,0,1,1,3.5-3.5A3.5,3.5,0,0,1,675.29,266.29Zm10.89-8.73a1.14,1.14,0,1,1,1.13-1.14A1.14,1.14,0,0,1,686.18,257.56Zm-3.88-9.25a5,5,0,1,1,5-5A5,5,0,0,1,682.3,248.31ZM695,262.79a2.21,2.21,0,1,1,2.21-2.2A2.21,2.21,0,0,1,695,262.79Zm3.25-11A3.75,3.75,0,1,1,702,248,3.75,3.75,0,0,1,698.24,251.79Z"/><path class="cls-2" d="M521.79,123.29a21,21,0,1,0,21,21A21,21,0,0,0,521.79,123.29Zm-7,8a2.5,2.5,0,1,1-2.5,2.5A2.5,2.5,0,0,1,514.82,131.29Zm-4.53,16a3.22,3.22,0,1,1,3.21,3.21A3.21,3.21,0,0,1,510.29,147.29Zm6,11.5a1.44,1.44,0,1,1,1.43-1.44A1.43,1.43,0,0,1,516.26,158.79Zm15.53-29.5a2,2,0,1,1-2,2A2,2,0,0,1,531.79,129.29Zm-5.5,27.77a1.29,1.29,0,1,1,1.29-1.29A1.29,1.29,0,0,1,526.29,157.06Zm1.85-9.34a6.22,6.22,0,1,1,6.21-6.22A6.21,6.21,0,0,1,528.14,147.72Zm7.84,6.33a1.88,1.88,0,1,1,1.89-1.88A1.88,1.88,0,0,1,536,154.05Z"/><circle class="cls-2" cx="495.79" cy="175.29" r="7"/><circle class="cls-2" cx="497.79" cy="200.29" r="7"/><circle class="cls-2" cx="519.79" cy="243.29" r="11"/><circle class="cls-2" cx="504.29" cy="221.79" r="5.5"/><circle class="cls-2" cx="515.79" cy="176.29" r="9"/><circle class="cls-2" cx="499.29" cy="159.79" r="3.5"/><circle class="cls-2" cx="552.29" cy="170.79" r="7.5"/><circle class="cls-2" cx="558.29" cy="148.79" r="10.5"/><circle class="cls-2" cx="571.79" cy="179.29" r="6"/><circle class="cls-2" cx="583.79" cy="216.29" r="11"/><circle class="cls-2" cx="563.29" cy="227.79" r="2.5"/><circle class="cls-2" cx="544.79" cy="239.29" r="5"/><circle class="cls-2" cx="562.79" cy="188.29" r="2"/><circle class="cls-2" cx="567.29" cy="203.79" r="2.5"/><circle class="cls-2" cx="580.29" cy="195.79" r="4.5"/><circle class="cls-2" cx="606.79" cy="225.29" r="5"/><circle class="cls-2" cx="577.79" cy="240.29" r="3"/><circle class="cls-2" cx="591.29" cy="238.79" r="2.5"/><circle class="cls-2" cx="600.79" cy="267.29" r="8"/><circle class="cls-2" cx="618.79" cy="252.29" r="9"/><circle class="cls-2" cx="627.29" cy="227.79" r="1.5"/><circle class="cls-2" cx="639.29" cy="222.79" r="2.5"/><circle class="cls-2" cx="637.79" cy="243.29" r="6"/><circle class="cls-2" cx="662.79" cy="208.29" r="6"/><circle class="cls-2" cx="651.79" cy="252.29" r="2"/><circle class="cls-2" cx="657.79" cy="228.29" r="5"/><circle class="cls-2" cx="697.29" cy="220.79" r="7.5"/><circle class="cls-2" cx="711.29" cy="237.79" r="4.5"/><circle class="cls-2" cx="714.79" cy="222.29" r="3"/><circle class="cls-2" cx="724.29" cy="205.79" r="4.5"/><circle class="cls-2" cx="708.29" cy="206.79" r="3.5"/><circle class="cls-2" cx="676.29" cy="218.79" r="2.5"/><circle class="cls-2" cx="677.29" cy="203.79" r="1.5"/><circle class="cls-2" cx="690.79" cy="206.29" r="2"/><circle class="cls-2" cx="671.79" cy="188.29" r="5"/><circle class="cls-2" cx="666.79" cy="159.29" r="1"/><circle class="cls-2" cx="670.79" cy="172.29" r="2"/><circle class="cls-2" cx="675.79" cy="163.29" r="3"/><circle class="cls-2" cx="682.29" cy="138.79" r="5.5"/><circle class="cls-2" cx="671.79" cy="149.29" r="3"/><circle class="cls-2" cx="686.79" cy="123.29" r="4"/><circle class="cls-2" cx="702.29" cy="139.79" r="7.5"/><circle class="cls-2" cx="685.29" cy="151.79" r="2.5"/><circle class="cls-2" cx="687.79" cy="105.29" r="6"/><circle class="cls-2" cx="700.79" cy="119.29" r="3"/><circle class="cls-2" cx="713.79" cy="134.29" r="2"/><circle class="cls-2" cx="708.29" cy="121.79" r="1.5"/><circle class="cls-2" cx="654.29" cy="137.79" r="8.5"/><circle class="cls-2" cx="622.29" cy="122.79" r="5.5"/><circle class="cls-2" cx="584.79" cy="143.29" r="3"/><circle class="cls-2" cx="576.79" cy="160.29" r="5"/><circle class="cls-2" cx="575.29" cy="144.79" r="1.5"/><circle class="cls-2" cx="566.79" cy="166.29" r="3"/><circle class="cls-2" cx="594.79" cy="138.29" r="2"/><circle class="cls-2" cx="605.29" cy="131.79" r="4.5"/><circle class="cls-2" cx="608.79" cy="117.29" r="3"/><circle class="cls-2" cx="617.79" cy="108.29" r="6"/><circle class="cls-2" cx="623.79" cy="93.29" r="3"/><circle class="cls-2" cx="611.29" cy="91.79" r="4.5"/><circle class="cls-2" cx="610.29" cy="100.79" r="1.5"/><circle class="cls-2" cx="602.29" cy="77.79" r="2.5"/><circle class="cls-2" cx="613.29" cy="81.79" r="4.5"/><circle class="cls-2" cx="625.29" cy="74.79" r="3.5"/><circle class="cls-2" cx="624.29" cy="84.79" r="2.5"/><circle class="cls-2" cx="584.29" cy="70.79" r="2.5"/><circle class="cls-2" cx="594.79" cy="71.29" r="4"/><circle class="cls-2" cx="605.29" cy="67.79" r="3.5"/><circle class="cls-2" cx="616.79" cy="70.29" r="4"/><circle class="cls-2" cx="635.79" cy="71.29" r="4"/><circle class="cls-2" cx="634.79" cy="122.29" r="2"/><circle class="cls-2" cx="635.79" cy="133.29" r="2"/><circle class="cls-2" cx="642.79" cy="127.29" r="1"/><circle class="cls-2" cx="668.29" cy="127.79" r="3.5"/><circle class="cls-2" cx="679.29" cy="118.79" r="2.5"/><circle class="cls-2" cx="669.79" cy="137.29" r="1"/><circle class="cls-2" cx="569.79" cy="308.29" r="5"/><circle class="cls-2" cx="592.79" cy="310.29" r="10"/><circle class="cls-2" cx="588.29" cy="287.79" r="3.5"/><circle class="cls-2" cx="598.29" cy="282.79" r="2.5"/><circle class="cls-2" cx="577.29" cy="297.79" r="4.5"/><circle class="cls-2" cx="558.29" cy="300.79" r="3.5"/><circle class="cls-2" cx="568.79" cy="323.29" r="6"/><circle class="cls-2" cx="607.29" cy="320.79" r="2.5"/><circle class="cls-2" cx="593.29" cy="251.79" r="3.5"/><circle class="cls-2" cx="605.29" cy="238.79" r="4.5"/><circle class="cls-2" cx="526.29" cy="263.79" r="4.5"/><circle class="cls-2" cx="505.29" cy="231.79" r="1.5"/><circle class="cls-2" cx="505.29" cy="210.79" r="1.5"/><circle class="cls-2" cx="507.29" cy="190.79" r="1.5"/><circle class="cls-2" cx="493.79" cy="187.29" r="2"/><circle class="cls-2" cx="537.29" cy="250.79" r="1.5"/><circle class="cls-2" cx="552.79" cy="231.29" r="2"/><circle class="cls-2" cx="565.29" cy="239.79" r="2.5"/><circle class="cls-2" cx="671.29" cy="273.79" r="4.5"/><circle class="cls-2" cx="585.29" cy="328.79" r="4.5"/><circle class="cls-2" cx="620.29" cy="328.79" r="3.5"/><circle class="cls-2" cx="648.29" cy="326.79" r="1.5"/><circle class="cls-2" cx="658.29" cy="263.79" r="2.5"/><circle class="cls-2" cx="644.29" cy="231.79" r="2.5"/><circle class="cls-2" cx="617.79" cy="222.29" r="2"/><circle class="cls-2" cx="618.29" cy="236.79" r="1.5"/><circle class="cls-2" cx="526.29" cy="118.79" r="4.5"/><circle class="cls-2" cx="532.79" cy="103.29" r="2"/><circle class="cls-2" cx="538.79" cy="125.29" r="2"/><circle class="cls-2" cx="536.29" cy="111.79" r="1.5"/><circle class="cls-2" cx="546.29" cy="132.79" r="0.5"/><circle class="cls-2" cx="538.29" cy="167.79" r="1.5"/><circle class="cls-2" cx="545.29" cy="158.79" r="2.5"/><circle class="cls-2" cx="531.29" cy="173.79" r="1.5"/><circle class="cls-2" cx="539.79" cy="176.29" r="1"/><path class="cls-3" d="M540.56,205.09A20.21,20.21,0,0,1,535.89,216l-3.44-.22a21.42,21.42,0,0,1-2.79-20.09,10.22,10.22,0,0,1,9.34-.55A20,20,0,0,1,540.56,205.09Z"/><path class="cls-3" d="M538.05,193.51a8.44,8.44,0,0,0-7.38.22,24.28,24.28,0,0,1,1.83-3.14,25.27,25.27,0,0,1,2-2.51,14,14,0,0,1,2,2.46A14.59,14.59,0,0,1,538.05,193.51Z"/><path class="cls-3" d="M543.29,219.18a2.23,2.23,0,0,1-2.54,1.06l-3.06-5a13,13,0,0,0,1.83-2.48,13.46,13.46,0,0,0,1.39-3.52l2.21,1C543.18,213.24,543.23,216.21,543.29,219.18Z"/><path class="cls-3" d="M531,215.68l-3.06,5a2.28,2.28,0,0,1-1.66-.19,2.24,2.24,0,0,1-.87-.87q.08-4.46.16-8.9l2.21-1a13.46,13.46,0,0,0,1.39,3.52A13.87,13.87,0,0,0,531,215.68Z"/><path class="cls-3" d="M535.83,219.64a8.06,8.06,0,0,1-.79,2.92.82.82,0,0,1-.68.52.84.84,0,0,1-.82-.49,8.1,8.1,0,0,1-.79-2.7A7.8,7.8,0,0,1,533,217a2.27,2.27,0,0,0,1.31.44,2.36,2.36,0,0,0,1.34-.41A8.18,8.18,0,0,1,535.83,219.64Z"/><path class="cls-3" d="M651.31,282.58c-.56.47-1.14.95-1.74,1.47a20.9,20.9,0,0,0-4.06-2.76l-1.12,3.1-2.11-.76,1.18-3.27a20.7,20.7,0,0,0-6-1.34v3.59h-2.24V279a20.69,20.69,0,0,0-6.27,1.19l1.23,3.42-2.11.77-1.2-3.33a21.27,21.27,0,0,0-5,3.35l2.45,3.05-1.75,1.41L620.3,286a21.3,21.3,0,0,0-3.22,4.83l3.42,1.76-1,2-3.26-1.68a20.78,20.78,0,0,0-1.2,7h-2.25a23.15,23.15,0,0,1,38.55-17.29Z"/><path class="cls-3" d="M659.07,299.87h-2.25a20.86,20.86,0,0,0-1.17-6.92l-2.71,1.73-1.21-1.9,3-1.94a21.18,21.18,0,0,0-2.46-3.92c.51-.62,1-1.22,1.44-1.79A23,23,0,0,1,659.07,299.87Z"/><path class="cls-3" d="M653.79,282.66l-1,1.33-1.41,1.77-1.75,2.16q-2.13,2.59-4.29,5.16c-.72.86-1.45,1.71-2.17,2.56s-1.45,1.71-2.19,2.55c-1.49,1.67-3,3.31-4.64,4.83l-.2.17-.13.1-.21.11-.14.05-.14,0a1.33,1.33,0,0,1-.28,0,1.9,1.9,0,0,1-1.34-.62,3.15,3.15,0,0,1-.22-.29.59.59,0,0,1,0-.08l-.06-.09-.09-.21a2.05,2.05,0,0,1-.09-.43v-.21h0s0-.07,0-.1a1.6,1.6,0,0,1,0-.21,1.65,1.65,0,0,1,.4-.66c1.47-1.68,3.07-3.24,4.7-4.77.82-.76,1.65-1.51,2.48-2.26s1.66-1.5,2.5-2.24q2.5-2.23,5-4.44l2.13-1.83,1.72-1.45,1.28-1.07Z"/><path class="cls-3" d="M633.86,302.89a3.15,3.15,0,0,1-.22-.29A3.15,3.15,0,0,0,633.86,302.89Z"/><path class="cls-3" d="M633.64,302.6a3.15,3.15,0,0,0,.22.29A3.15,3.15,0,0,1,633.64,302.6Z"/><polygon class="cls-3" points="605.52 156.06 602.76 156.06 602.76 188.3 602.76 191.11 605.52 191.11 637.48 191.11 637.48 188.3 605.52 188.3 605.52 156.06"/><rect class="cls-3" x="608.92" y="166.86" width="5.44" height="17.85"/><rect class="cls-3" x="616.86" y="156.21" width="5.44" height="28.51"/><rect class="cls-3" x="624.8" y="170.94" width="5.44" height="13.77"/><rect class="cls-3" x="632.73" y="175.53" width="5.44" height="9.18"/><path class="cls-3" d="M581.6,97.88a1.48,1.48,0,0,0-.82-2.72,1.49,1.49,0,0,0-1.36.89A13.4,13.4,0,0,0,573,93.82V92.73h3.45V90.58h-9v2.15h3.45v1.1h.06a13.42,13.42,0,1,0,10.71,4ZM572,118.44a11.26,11.26,0,1,1,11.25-11.26A11.26,11.26,0,0,1,572,118.44Z"/><polygon class="cls-3" points="572.51 101.89 571.43 101.89 571.43 107.41 575.08 111.05 575.84 110.29 572.51 106.96 572.51 101.89"/><path class="cls-3" d="M579.32,105.75a1.1,1.1,0,1,0,1.09,1.09A1.09,1.09,0,0,0,579.32,105.75Z"/><path class="cls-3" d="M564.65,105.75a1.1,1.1,0,1,0,1.1,1.09A1.09,1.09,0,0,0,564.65,105.75Z"/><path class="cls-3" d="M572,113.08a1.1,1.1,0,1,0,1.1,1.1A1.09,1.09,0,0,0,572,113.08Z"/><path class="cls-3" d="M572,100.61a1.1,1.1,0,1,0-1.09-1.1A1.1,1.1,0,0,0,572,100.61Z"/><polygon class="cls-3" points="695.12 167.84 691.74 173.59 694.61 175.36 697.99 169.76 695.12 167.84"/><path class="cls-3" d="M698,171l-2.42,4.34,2,2.22,1.31-1.52s1.81-.72,2,1.52c0,0,2.07-.89,2.11,1.69,0,0,1.64-1,1.79,1.06,0,0,1.93-.55,1.56,1.55l-1.39,1.5.55.88,1.14.08,5.71-5.62-6-5.42-2.72,3s-2.52.77-2.73-2.37l2.29-3Z"/><path class="cls-3" d="M701.6,173.92s-.14,2.18,1.87,1.69l2.89-3.32,6,5.49,2-2.12L711.76,171l-7.55-.27Z"/><polygon class="cls-3" points="714.79 168.07 712.34 169.45 712.34 170.68 715.15 175.56 718.2 173.77 714.79 168.07"/><path class="cls-3" d="M697,179.1l2.07-2.36s1.3-.44,1.31,1.25l-2,2.37S696.93,181,697,179.1Z"/><path class="cls-3" d="M699.31,180.37l1.87-2.16s1.17-.41,1.18,1.14l-1.77,2.17S699.25,182.14,699.31,180.37Z"/><path class="cls-3" d="M701.23,181.64l1.87-2s1.17-.38,1.19,1.06l-1.77,2S701.17,183.27,701.23,181.64Z"/><path class="cls-3" d="M703.38,182.49l1.48-1.58s.92-.29.93.84l-1.39,1.59S703.33,183.79,703.38,182.49Z"/></g></g></svg>