<svg xmlns="http://www.w3.org/2000/svg" viewBox="0 0 1153.58 665.38"><defs><style>.cls-1,.cls-4,.cls-5{fill:none;stroke-miterlimit:10;}.cls-1{stroke:#fff;}.cls-1,.cls-5{stroke-width:2px;}.cls-2{fill:#fff;}.cls-3{fill:#e64c3c;}.cls-4,.cls-5{stroke:#e64c3c;}</style></defs><title>3</title><g id="Layer_2" data-name="Layer 2"><g id="Layer_2-2" data-name="Layer 2"><line class="cls-1" x1="370.81" y1="234.51" x2="428.81" y2="234.51"/><line class="cls-1" x1="516.81" y1="314.51" x2="516.81" y2="371.51"/><line class="cls-1" x1="428.81" y1="485.51" x2="370.81" y2="485.51"/><rect class="cls-2" x="206.74" y="197.85" width="164.61" height="199.41" rx="4.01"/><rect class="cls-2" x="429.35" y="114.85" width="175.85" height="199.41" rx="2.57"/><rect class="cls-2" x="429" y="370.53" width="324.97" height="173.74" rx="6.08"/><rect class="cls-2" x="46.03" y="448.61" width="324.97" height="173.74" rx="8.14"/><polyline class="cls-1" points="370.81 603.51 972.81 603.51 972.81 427.51"/><path class="cls-2" d="M913.73,329.75s6,3.32,8.91,7.25c3.17,4.31,3.93,8.68,4.46,12.26a208.91,208.91,0,0,1,2.23,24.53c.48,27.44,1.66,31.84,3.9,36.23,1.54,3,4.45,8.52,10.6,12.26,5.55,3.39,11.4,3.9,17.83,4.46a212.66,212.66,0,0,0,22.3,0c6.43-.56,12.28-1.07,17.84-4.46,6.14-3.74,9.05-9.26,10.59-12.26,2.24-4.39,3.42-8.79,3.9-36.23a208.91,208.91,0,0,1,2.23-24.53c.54-3.58,1.29-7.95,4.46-12.26,2.89-3.93,8.92-7.25,8.92-7.25Z"/><circle class="cls-2" cx="935.31" cy="99.01" r="32.5"/><circle class="cls-2" cx="999.31" cy="286.01" r="32.5"/><circle class="cls-2" cx="985.31" cy="170.01" r="40.5"/><path class="cls-2" d="M1015.81,67.51a25,25,0,1,0,25,25A25,25,0,0,0,1015.81,67.51ZM1001,81.91a2.9,2.9,0,1,1,2.89,2.89A2.89,2.89,0,0,1,1001,81.91Zm6.72,18.49a2.93,2.93,0,1,1,2.93-2.93A2.93,2.93,0,0,1,1007.74,100.4Zm8.74-23.23a2.33,2.33,0,1,1,2.33-2.33A2.33,2.33,0,0,1,1016.48,77.17Zm6.55,33.17a4.79,4.79,0,1,1,4.78-4.78A4.78,4.78,0,0,1,1023,110.34Zm3-18.33a5.25,5.25,0,1,1,5.25-5.25A5.25,5.25,0,0,1,1026.06,92Z"/><circle class="cls-2" cx="897.81" cy="200.51" r="25"/><circle class="cls-2" cx="1067.81" cy="169.51" r="25"/><path class="cls-2" d="M922.81,238.51a25,25,0,1,0,25,25A25,25,0,0,0,922.81,238.51Zm-17,37.5a4,4,0,1,1,4-4A4,4,0,0,1,905.81,276Zm14.5,7.5a2.5,2.5,0,1,1,2.5-2.5A2.5,2.5,0,0,1,920.31,283.51Zm-.5-17a10,10,0,1,1,10-10A10,10,0,0,1,919.81,266.51Zm10.25,9.5a1.75,1.75,0,1,1,1.75-1.75A1.75,1.75,0,0,1,930.06,276Zm6.48-29.5a2.27,2.27,0,1,1-2.27,2.27A2.27,2.27,0,0,1,936.54,246.51Zm.78,23a2.49,2.49,0,1,1,2.49-2.49A2.48,2.48,0,0,1,937.32,269.49Z"/><path class="cls-2" d="M1044.81,222.51a21,21,0,1,0,21,21A21,21,0,0,0,1044.81,222.51Zm-12.5,20a2.51,2.51,0,1,1,2.51-2.51A2.5,2.5,0,0,1,1032.31,242.53Zm6,18a3.5,3.5,0,1,1,3.5-3.5A3.5,3.5,0,0,1,1038.31,260.51Zm10.89-8.73a1.14,1.14,0,1,1,1.13-1.14A1.14,1.14,0,0,1,1049.2,251.78Zm-3.88-9.25a5,5,0,1,1,5-5A5,5,0,0,1,1045.32,242.53ZM1058,257a2.21,2.21,0,1,1,2.21-2.2A2.21,2.21,0,0,1,1058,257Zm3.25-11a3.75,3.75,0,1,1,3.75-3.75A3.75,3.75,0,0,1,1061.26,246Z"/><path class="cls-2" d="M884.81,117.51a21,21,0,1,0,21,21A21,21,0,0,0,884.81,117.51Zm-7,8a2.5,2.5,0,1,1-2.5,2.5A2.5,2.5,0,0,1,877.84,125.51Zm-4.53,16a3.22,3.22,0,1,1,3.21,3.21A3.21,3.21,0,0,1,873.31,141.51Zm6,11.5a1.44,1.44,0,1,1,1.43-1.44A1.43,1.43,0,0,1,879.28,153Zm15.53-29.5a2,2,0,1,1-2,2A2,2,0,0,1,894.81,123.51Zm-5.5,27.77A1.29,1.29,0,1,1,890.6,150,1.29,1.29,0,0,1,889.31,151.28Zm1.85-9.34a6.22,6.22,0,1,1,6.21-6.22A6.21,6.21,0,0,1,891.16,141.94Zm7.84,6.33a1.88,1.88,0,1,1,1.89-1.88A1.88,1.88,0,0,1,899,148.27Z"/><circle class="cls-2" cx="858.81" cy="169.51" r="7"/><circle class="cls-2" cx="860.81" cy="194.51" r="7"/><circle class="cls-2" cx="882.81" cy="237.51" r="11"/><circle class="cls-2" cx="867.31" cy="216.01" r="5.5"/><circle class="cls-2" cx="878.81" cy="170.51" r="9"/><circle class="cls-2" cx="862.31" cy="154.01" r="3.5"/><circle class="cls-2" cx="915.31" cy="165.01" r="7.5"/><circle class="cls-2" cx="921.31" cy="143.01" r="10.5"/><circle class="cls-2" cx="934.81" cy="173.51" r="6"/><circle class="cls-2" cx="946.81" cy="210.51" r="11"/><circle class="cls-2" cx="926.31" cy="222.01" r="2.5"/><circle class="cls-2" cx="907.81" cy="233.51" r="5"/><circle class="cls-2" cx="925.81" cy="182.51" r="2"/><circle class="cls-2" cx="930.31" cy="198.01" r="2.5"/><circle class="cls-2" cx="943.31" cy="190.01" r="4.5"/><circle class="cls-2" cx="969.81" cy="219.51" r="5"/><circle class="cls-2" cx="940.81" cy="234.51" r="3"/><circle class="cls-2" cx="954.31" cy="233.01" r="2.5"/><circle class="cls-2" cx="963.81" cy="261.51" r="8"/><circle class="cls-2" cx="981.81" cy="246.51" r="9"/><circle class="cls-2" cx="990.31" cy="222.01" r="1.5"/><circle class="cls-2" cx="1002.31" cy="217.01" r="2.5"/><circle class="cls-2" cx="1000.81" cy="237.51" r="6"/><circle class="cls-2" cx="1025.81" cy="202.51" r="6"/><circle class="cls-2" cx="1014.81" cy="246.51" r="2"/><circle class="cls-2" cx="1020.81" cy="222.51" r="5"/><circle class="cls-2" cx="1060.31" cy="215.01" r="7.5"/><circle class="cls-2" cx="1074.31" cy="232.01" r="4.5"/><circle class="cls-2" cx="1077.81" cy="216.51" r="3"/><circle class="cls-2" cx="1087.31" cy="200.01" r="4.5"/><circle class="cls-2" cx="1071.31" cy="201.01" r="3.5"/><circle class="cls-2" cx="1039.31" cy="213.01" r="2.5"/><circle class="cls-2" cx="1040.31" cy="198.01" r="1.5"/><circle class="cls-2" cx="1053.81" cy="200.51" r="2"/><circle class="cls-2" cx="1034.81" cy="182.51" r="5"/><circle class="cls-2" cx="1029.81" cy="153.51" r="1"/><circle class="cls-2" cx="1033.81" cy="166.51" r="2"/><circle class="cls-2" cx="1038.81" cy="157.51" r="3"/><circle class="cls-2" cx="1045.31" cy="133.01" r="5.5"/><circle class="cls-2" cx="1034.81" cy="143.51" r="3"/><circle class="cls-2" cx="1049.81" cy="117.51" r="4"/><circle class="cls-2" cx="1065.31" cy="134.01" r="7.5"/><circle class="cls-2" cx="1048.31" cy="146.01" r="2.5"/><circle class="cls-2" cx="1050.81" cy="99.51" r="6"/><circle class="cls-2" cx="1063.81" cy="113.51" r="3"/><circle class="cls-2" cx="1076.81" cy="128.51" r="2"/><circle class="cls-2" cx="1071.31" cy="116.01" r="1.5"/><circle class="cls-2" cx="1017.31" cy="132.01" r="8.5"/><circle class="cls-2" cx="985.31" cy="117.01" r="5.5"/><circle class="cls-2" cx="947.81" cy="137.51" r="3"/><circle class="cls-2" cx="939.81" cy="154.51" r="5"/><circle class="cls-2" cx="938.31" cy="139.01" r="1.5"/><circle class="cls-2" cx="929.81" cy="160.51" r="3"/><circle class="cls-2" cx="957.81" cy="132.51" r="2"/><circle class="cls-2" cx="968.31" cy="126.01" r="4.5"/><circle class="cls-2" cx="971.81" cy="111.51" r="3"/><circle class="cls-2" cx="980.81" cy="102.51" r="6"/><circle class="cls-2" cx="986.81" cy="87.51" r="3"/><circle class="cls-2" cx="974.31" cy="86.01" r="4.5"/><circle class="cls-2" cx="973.31" cy="95.01" r="1.5"/><circle class="cls-2" cx="965.31" cy="72.01" r="2.5"/><circle class="cls-2" cx="976.31" cy="76.01" r="4.5"/><circle class="cls-2" cx="988.31" cy="69.01" r="3.5"/><circle class="cls-2" cx="987.31" cy="79.01" r="2.5"/><circle class="cls-2" cx="947.31" cy="65.01" r="2.5"/><circle class="cls-2" cx="957.81" cy="65.51" r="4"/><circle class="cls-2" cx="968.31" cy="62.01" r="3.5"/><circle class="cls-2" cx="979.81" cy="64.51" r="4"/><circle class="cls-2" cx="998.81" cy="65.51" r="4"/><circle class="cls-2" cx="997.81" cy="116.51" r="2"/><circle class="cls-2" cx="998.81" cy="127.51" r="2"/><circle class="cls-2" cx="1005.81" cy="121.51" r="1"/><circle class="cls-2" cx="1031.31" cy="122.01" r="3.5"/><circle class="cls-2" cx="1042.31" cy="113.01" r="2.5"/><circle class="cls-2" cx="1032.81" cy="131.51" r="1"/><circle class="cls-2" cx="932.81" cy="302.51" r="5"/><circle class="cls-2" cx="955.81" cy="304.51" r="10"/><circle class="cls-2" cx="951.31" cy="282.01" r="3.5"/><circle class="cls-2" cx="961.31" cy="277.01" r="2.5"/><circle class="cls-2" cx="940.31" cy="292.01" r="4.5"/><circle class="cls-2" cx="921.31" cy="295.01" r="3.5"/><circle class="cls-2" cx="931.81" cy="317.51" r="6"/><circle class="cls-2" cx="970.31" cy="315.01" r="2.5"/><circle class="cls-2" cx="956.31" cy="246.01" r="3.5"/><circle class="cls-2" cx="968.31" cy="233.01" r="4.5"/><circle class="cls-2" cx="889.31" cy="258.01" r="4.5"/><circle class="cls-2" cx="868.31" cy="226.01" r="1.5"/><circle class="cls-2" cx="868.31" cy="205.01" r="1.5"/><circle class="cls-2" cx="870.31" cy="185.01" r="1.5"/><circle class="cls-2" cx="856.81" cy="181.51" r="2"/><circle class="cls-2" cx="900.31" cy="245.01" r="1.5"/><circle class="cls-2" cx="915.81" cy="225.51" r="2"/><circle class="cls-2" cx="928.31" cy="234.01" r="2.5"/><circle class="cls-2" cx="1034.31" cy="268.01" r="4.5"/><circle class="cls-2" cx="948.31" cy="323.01" r="4.5"/><circle class="cls-2" cx="983.31" cy="323.01" r="3.5"/><circle class="cls-2" cx="1011.31" cy="321.01" r="1.5"/><circle class="cls-2" cx="1021.31" cy="258.01" r="2.5"/><circle class="cls-2" cx="1007.31" cy="226.01" r="2.5"/><circle class="cls-2" cx="980.81" cy="216.51" r="2"/><circle class="cls-2" cx="981.31" cy="231.01" r="1.5"/><circle class="cls-2" cx="889.31" cy="113.01" r="4.5"/><circle class="cls-2" cx="895.81" cy="97.51" r="2"/><circle class="cls-2" cx="901.81" cy="119.51" r="2"/><circle class="cls-2" cx="899.31" cy="106.01" r="1.5"/><circle class="cls-2" cx="909.31" cy="127.01" r="0.5"/><circle class="cls-2" cx="901.31" cy="162.01" r="1.5"/><circle class="cls-2" cx="908.31" cy="153.01" r="2.5"/><circle class="cls-2" cx="894.31" cy="168.01" r="1.5"/><circle class="cls-2" cx="902.81" cy="170.51" r="1"/><circle class="cls-3" cx="240.94" cy="238.37" r="16.06"/><circle class="cls-4" cx="282.71" cy="485.51" r="16.06"/><circle class="cls-4" cx="335.7" cy="525.23" r="16.06"/><circle class="cls-4" cx="282.71" cy="564.96" r="16.06"/><circle class="cls-3" cx="252.57" cy="300.63" r="27.69"/><circle class="cls-4" cx="557.48" cy="161.51" r="27.69"/><rect class="cls-3" x="266.65" y="228.18" width="80.13" height="2.41" rx="1.2"/><rect class="cls-3" x="266.65" y="234.94" width="80.13" height="2.41" rx="1.2"/><rect class="cls-3" x="266.65" y="241.32" width="50.5" height="2.41" rx="1.2"/><line class="cls-4" x1="289.51" y1="278.95" x2="347.72" y2="278.95"/><line class="cls-4" x1="289.51" y1="290.71" x2="347.72" y2="290.71"/><line class="cls-4" x1="289.51" y1="302.82" x2="347.72" y2="302.82"/><line class="cls-4" x1="289.51" y1="314.92" x2="347.72" y2="314.92"/><line class="cls-4" x1="289.51" y1="326.32" x2="324.28" y2="326.32"/><line class="cls-4" x1="69.54" y1="558.61" x2="240.94" y2="558.61"/><line class="cls-4" x1="69.54" y1="570.38" x2="210.14" y2="570.38"/><line class="cls-4" x1="69.54" y1="582.48" x2="240.94" y2="582.48"/><line class="cls-4" x1="69.54" y1="594.59" x2="210.14" y2="594.59"/><line class="cls-4" x1="69.54" y1="605.98" x2="171.94" y2="605.98"/><rect class="cls-3" x="278.43" y="355.91" width="19.28" height="19.28"/><rect class="cls-3" x="251.96" y="355.91" width="19.28" height="19.28"/><rect class="cls-3" x="224.88" y="355.91" width="19.28" height="19.28"/><rect class="cls-3" x="305.99" y="355.91" width="19.28" height="19.28"/><rect class="cls-3" x="332.48" y="355.91" width="19.28" height="19.28"/><rect class="cls-4" x="69.54" y="471" width="171.4" height="70.3"/><polyline class="cls-4" points="82.02 529.39 116.03 506.15 146.65 515.51 180.66 491.97 206.74 504.44 234.52 482.33"/><circle class="cls-4" cx="82.94" cy="483.4" r="5.17"/><line class="cls-4" x1="312.76" y1="478.22" x2="351.76" y2="478.22"/><line class="cls-4" x1="312.76" y1="485.51" x2="345.85" y2="485.51"/><line class="cls-4" x1="312.76" y1="492.54" x2="339.33" y2="492.54"/><line class="cls-4" x1="312.76" y1="557.8" x2="351.76" y2="557.8"/><line class="cls-4" x1="312.76" y1="565.08" x2="345.85" y2="565.08"/><line class="cls-4" x1="312.76" y1="572.11" x2="339.33" y2="572.11"/><line class="cls-4" x1="266.65" y1="518.07" x2="305.65" y2="518.07"/><line class="cls-4" x1="272.55" y1="525.36" x2="305.65" y2="525.36"/><line class="cls-4" x1="279.07" y1="532.39" x2="305.65" y2="532.39"/><circle class="cls-2" cx="392.31" cy="124.79" r="4.14"/><circle class="cls-2" cx="402.94" cy="95.8" r="3.13"/><circle class="cls-2" cx="448.87" cy="92.53" r="3.27"/><circle class="cls-2" cx="567.31" cy="84.35" r="3.4"/><circle class="cls-2" cx="639.5" cy="114.85" r="7.18"/><circle class="cls-2" cx="397.63" cy="208.34" r="5.31"/><circle class="cls-2" cx="257.48" cy="172.89" r="0.47"/><circle class="cls-2" cx="182.08" cy="280.04" r="4.82"/><circle class="cls-2" cx="164.79" cy="328.89" r="7.94"/><circle class="cls-2" cx="217.83" cy="429.29" r="9.32"/><circle class="cls-2" cx="392.09" cy="423.91" r="7.72"/><circle class="cls-2" cx="413.78" cy="566.47" r="7.86"/><circle class="cls-2" cx="485.01" cy="632.48" r="5.01"/><circle class="cls-2" cx="304.72" cy="657.46" r="5.95"/><circle class="cls-2" cx="3.04" cy="547.31" r="3.04"/><circle class="cls-2" cx="39.78" cy="423.09" r="3.12"/><circle class="cls-2" cx="131.66" cy="658.44" r="6.94"/><circle class="cls-2" cx="490.42" cy="343.34" r="3.62"/><circle class="cls-2" cx="598.94" cy="331.5" r="5.18"/><circle class="cls-2" cx="541.7" cy="355.44" r="3.12"/><circle class="cls-2" cx="698.5" cy="343.34" r="7.14"/><circle class="cls-2" cx="841.56" cy="42.89" r="2.98"/><circle class="cls-2" cx="966.31" cy="13.5" r="13.5"/><circle class="cls-2" cx="1121.58" cy="54.18" r="8.32"/><circle class="cls-2" cx="1137.58" cy="239.51" r="16"/><circle class="cls-2" cx="802.16" cy="168.51" r="18"/><circle class="cls-2" cx="865.22" cy="467.81" r="10.41"/><circle class="cls-2" cx="1104.45" cy="410.81" r="17.14"/><circle class="cls-4" cx="490.58" cy="430.89" r="9.15"/><path class="cls-4" d="M506.57,463.38c0,8.77-31.78,8.77-31.78,0a15.89,15.89,0,0,1,31.78,0Z"/><circle class="cls-3" cx="557.41" cy="149.17" r="6.93"/><path class="cls-3" d="M569.52,173.79c0,6.65-24.08,6.65-24.08,0a12,12,0,1,1,24.08,0Z"/><circle class="cls-3" cx="557.48" cy="428.8" r="10.43"/><path class="cls-3" d="M575.7,465.83c0,10-36.22,10-36.22,0a18.11,18.11,0,1,1,36.22,0Z"/><circle class="cls-4" cx="624.41" cy="430.89" r="9.15"/><path class="cls-4" d="M640.4,463.38c0,8.77-31.78,8.77-31.78,0a15.89,15.89,0,1,1,31.78,0Z"/><circle class="cls-4" cx="690.73" cy="430.89" r="9.15"/><path class="cls-4" d="M706.71,463.38c0,8.77-31.78,8.77-31.78,0a15.89,15.89,0,1,1,31.78,0Z"/><rect class="cls-4" x="524.73" y="396.22" width="65.54" height="99.78" rx="6.66"/><rect class="cls-4" x="448.87" y="208.06" width="69.04" height="60.89" rx="4.9"/><circle class="cls-3" cx="734.24" cy="380.78" r="2.62"/><circle class="cls-3" cx="742.3" cy="380.78" r="2.62"/><circle class="cls-3" cx="726.14" cy="380.78" r="2.62"/><line class="cls-5" x1="527.75" y1="507.72" x2="587.24" y2="507.72"/><line class="cls-4" x1="534.46" y1="519.44" x2="580.54" y2="519.44"/><line class="cls-4" x1="534.46" y1="526.81" x2="580.54" y2="526.81"/><line class="cls-4" x1="601.37" y1="486.65" x2="647.45" y2="486.65"/><line class="cls-4" x1="601.37" y1="494.02" x2="647.45" y2="494.02"/><line class="cls-4" x1="467.39" y1="486.65" x2="513.46" y2="486.65"/><line class="cls-4" x1="467.39" y1="494.02" x2="513.46" y2="494.02"/><line class="cls-4" x1="667.69" y1="486.65" x2="713.76" y2="486.65"/><line class="cls-4" x1="667.69" y1="494.02" x2="713.76" y2="494.02"/><line class="cls-4" x1="452.33" y1="138.32" x2="510.53" y2="138.32"/><line class="cls-4" x1="452.33" y1="150.09" x2="510.53" y2="150.09"/><line class="cls-4" x1="452.33" y1="162.19" x2="510.53" y2="162.19"/><line class="cls-4" x1="452.33" y1="174.29" x2="510.53" y2="174.29"/><line class="cls-4" x1="452.33" y1="185.69" x2="487.1" y2="185.69"/><line class="cls-4" x1="459.32" y1="218.51" x2="503.55" y2="218.51"/><line class="cls-4" x1="459.32" y1="227.45" x2="503.55" y2="227.45"/><line class="cls-4" x1="459.32" y1="236.65" x2="503.55" y2="236.65"/><line class="cls-4" x1="459.32" y1="245.85" x2="503.55" y2="245.85"/><line class="cls-4" x1="459.32" y1="254.51" x2="485.74" y2="254.51"/><polyline class="cls-4" points="541.7 238.51 554.75 251.56 583.98 222.32"/><circle class="cls-3" cx="351.78" cy="457.4" r="2.62"/><circle class="cls-3" cx="359.84" cy="457.4" r="2.62"/><circle class="cls-3" cx="343.68" cy="457.4" r="2.62"/><circle class="cls-3" cx="353.76" cy="205.65" r="2.62"/><circle class="cls-3" cx="361.82" cy="205.65" r="2.62"/><circle class="cls-3" cx="345.66" cy="205.65" r="2.62"/><circle class="cls-3" cx="588.17" cy="123.27" r="2.62"/><circle class="cls-3" cx="596.23" cy="123.27" r="2.62"/><circle class="cls-3" cx="580.07" cy="123.27" r="2.62"/><path class="cls-3" d="M903.4,199a20.21,20.21,0,0,1-4.67,11l-3.44-.22a21.38,21.38,0,0,1-2.78-20.09,10.21,10.21,0,0,1,4.15-1.36,10.38,10.38,0,0,1,5.18.81A20,20,0,0,1,903.4,199Z"/><path class="cls-3" d="M900.89,187.44a8.42,8.42,0,0,0-7.37.22,22.18,22.18,0,0,1,3.85-5.65,14.62,14.62,0,0,1,3.52,5.43Z"/><path class="cls-3" d="M906.13,213.1a2.25,2.25,0,0,1-.87.87,2.33,2.33,0,0,1-1.67.2l-3.06-5a13.38,13.38,0,0,0,3.22-6l2.22,1Q906,208.65,906.13,213.1Z"/><path class="cls-3" d="M893.82,209.61c-1,1.65-2,3.31-3.05,5a2.32,2.32,0,0,1-1.67-.2,2.11,2.11,0,0,1-.87-.87c0-3,.11-5.93.16-8.9l2.21-1a13.69,13.69,0,0,0,1.39,3.52A14,14,0,0,0,893.82,209.61Z"/><path class="cls-3" d="M898.68,213.57a8.37,8.37,0,0,1-.8,2.92.79.79,0,0,1-.68.51.81.81,0,0,1-.82-.49,8.1,8.1,0,0,1-.79-2.7,7.94,7.94,0,0,1,.22-2.89,2.36,2.36,0,0,0,1.31.43,2.25,2.25,0,0,0,1.34-.41A8.53,8.53,0,0,1,898.68,213.57Z"/><path class="cls-3" d="M1014.15,276.51l-1.74,1.46a20.86,20.86,0,0,0-4.06-2.75l-1.11,3.09-2.12-.76,1.18-3.26a20.72,20.72,0,0,0-6-1.35v3.59h-2.25V272.9a20.68,20.68,0,0,0-6.27,1.18l1.23,3.43-2.11.76L989.7,275a20.87,20.87,0,0,0-5,3.34l2.45,3.06-1.76,1.4-2.29-2.85a21.08,21.08,0,0,0-3.22,4.83l3.42,1.75-1,2-3.27-1.67a20.68,20.68,0,0,0-1.2,7H975.6a23.15,23.15,0,0,1,38.55-17.28Z"/><path class="cls-3" d="M1021.91,293.79h-2.24a20.8,20.8,0,0,0-1.18-6.91l-2.71,1.72-1.2-1.89,3-1.94a21.67,21.67,0,0,0-2.45-3.92c.5-.63,1-1.22,1.43-1.8A23,23,0,0,1,1021.91,293.79Z"/><path class="cls-3" d="M1016.63,276.58c-.34.45-.69.89-1,1.33-.46.6-.94,1.19-1.41,1.78s-1.16,1.44-1.75,2.15q-2.13,2.61-4.29,5.17c-.72.86-1.45,1.71-2.17,2.56s-1.45,1.71-2.19,2.54c-1.49,1.67-3,3.31-4.64,4.84l-.19.17-.14.09a1,1,0,0,1-.2.11l-.14.05-.15,0a1.33,1.33,0,0,1-.28,0,1.87,1.87,0,0,1-1.34-.63,3,3,0,0,1-.22-.28s0,0,0-.08l-.06-.1a1.67,1.67,0,0,1-.08-.2,1.57,1.57,0,0,1-.09-.43.41.41,0,0,1,0-.11v-.1h0s0-.06,0-.1a.78.78,0,0,1,0-.21,1.72,1.72,0,0,1,.4-.66c1.48-1.68,3.08-3.23,4.7-4.77.82-.76,1.65-1.51,2.48-2.26s1.66-1.5,2.5-2.24q2.5-2.24,5-4.43l2.13-1.83,1.72-1.45,1.29-1.07Z"/><path class="cls-3" d="M996.7,296.81a3,3,0,0,1-.22-.28A3,3,0,0,0,996.7,296.81Z"/><path class="cls-3" d="M996.48,296.53a3,3,0,0,0,.22.28A3,3,0,0,1,996.48,296.53Z"/><polygon class="cls-3" points="968.37 149.98 965.6 149.98 965.6 182.23 965.6 185.03 968.37 185.03 1000.32 185.03 1000.32 182.23 968.37 182.23 968.37 149.98"/><rect class="cls-3" x="971.76" y="160.79" width="5.44" height="17.85"/><rect class="cls-3" x="979.7" y="150.13" width="5.44" height="28.51"/><rect class="cls-3" x="987.64" y="164.87" width="5.44" height="13.77"/><rect class="cls-3" x="995.58" y="169.46" width="5.44" height="9.18"/><path class="cls-3" d="M944.45,91.81A1.49,1.49,0,1,0,942.26,90a13.19,13.19,0,0,0-6.44-2.23v-1.1h3.45V84.51h-9v2.14h3.44v1.1h.06a13.42,13.42,0,1,0,10.72,4.06Zm-9.64,20.55a11.26,11.26,0,1,1,11.25-11.25A11.27,11.27,0,0,1,934.81,112.36Z"/><polygon class="cls-3" points="935.35 95.81 934.27 95.81 934.27 101.33 937.92 104.98 938.68 104.22 935.35 100.89 935.35 95.81"/><path class="cls-3" d="M942.16,99.67a1.1,1.1,0,1,0,1.09,1.1A1.1,1.1,0,0,0,942.16,99.67Z"/><path class="cls-3" d="M927.5,99.67a1.1,1.1,0,1,0,1.09,1.1A1.1,1.1,0,0,0,927.5,99.67Z"/><path class="cls-3" d="M934.83,107a1.1,1.1,0,1,0,1.09,1.09A1.09,1.09,0,0,0,934.83,107Z"/><path class="cls-3" d="M934.83,94.53a1.1,1.1,0,1,0-1.1-1.09A1.09,1.09,0,0,0,934.83,94.53Z"/><polygon class="cls-3" points="1057.96 161.76 1054.58 167.52 1057.45 169.28 1060.84 163.68 1057.96 161.76"/><path class="cls-3" d="M1060.84,164.94l-2.43,4.34,2,2.22,1.31-1.51s1.81-.72,2,1.51c0,0,2.07-.88,2.11,1.69,0,0,1.64-1,1.79,1.06,0,0,1.93-.54,1.56,1.55l-1.38,1.5.54.89,1.15.07,5.7-5.61-6-5.42-2.71,3.05s-2.53.77-2.74-2.37l2.3-3Z"/><path class="cls-3" d="M1064.44,167.84s-.14,2.19,1.87,1.69l2.89-3.31,6,5.48,2-2.12-2.62-4.7-7.55-.28Z"/><polygon class="cls-3" points="1077.64 161.99 1075.18 163.38 1075.18 164.6 1077.99 169.48 1081.04 167.69 1077.64 161.99"/><path class="cls-3" d="M1059.84,173l2.07-2.36s1.3-.44,1.31,1.25l-2,2.37S1059.78,175,1059.84,173Z"/><path class="cls-3" d="M1062.15,174.29l1.87-2.16s1.17-.4,1.18,1.14l-1.76,2.18S1062.09,176.06,1062.15,174.29Z"/><path class="cls-3" d="M1064.07,175.56l1.87-2s1.18-.37,1.19,1.06l-1.77,2S1064,177.2,1064.07,175.56Z"/><path class="cls-3" d="M1066.22,176.42l1.48-1.58s.92-.3.93.84l-1.39,1.58S1066.18,177.71,1066.22,176.42Z"/></g></g></svg>