<svg xmlns="http://www.w3.org/2000/svg" viewBox="0 0 791.06 572.71"><defs><style>.cls-1,.cls-4{fill:none;stroke-miterlimit:10;}.cls-1{stroke:#fff;stroke-width:2px;}.cls-2{fill:#fff;}.cls-3{fill:#e74c3c;}.cls-4{stroke:#e74c3c;}</style></defs><title>3-sm</title><g id="Layer_2" data-name="Layer 2"><g id="Layer_2-2" data-name="Layer 2"><line class="cls-1" x1="304.72" y1="302.24" x2="304.72" y2="360.24"/><rect class="cls-2" x="206.74" y="105.18" width="164.61" height="199.41" rx="4.01"/><rect class="cls-2" x="46.03" y="355.94" width="324.97" height="173.74" rx="8.14"/><polyline class="cls-1" points="370.81 510.84 610.29 510.84 610.29 413.2"/><circle class="cls-3" cx="240.94" cy="145.7" r="16.06"/><circle class="cls-4" cx="282.71" cy="392.84" r="16.06"/><circle class="cls-4" cx="335.7" cy="432.57" r="16.06"/><circle class="cls-4" cx="282.71" cy="472.29" r="16.06"/><circle class="cls-3" cx="252.57" cy="207.97" r="27.69"/><rect class="cls-3" x="266.65" y="135.52" width="80.13" height="2.41" rx="1.2"/><rect class="cls-3" x="266.65" y="142.28" width="80.13" height="2.41" rx="1.2"/><rect class="cls-3" x="266.65" y="148.65" width="50.5" height="2.41" rx="1.2"/><line class="cls-4" x1="289.51" y1="186.28" x2="347.72" y2="186.28"/><line class="cls-4" x1="289.51" y1="198.05" x2="347.72" y2="198.05"/><line class="cls-4" x1="289.51" y1="210.15" x2="347.72" y2="210.15"/><line class="cls-4" x1="289.51" y1="222.26" x2="347.72" y2="222.26"/><line class="cls-4" x1="289.51" y1="233.65" x2="324.28" y2="233.65"/><line class="cls-4" x1="69.54" y1="465.95" x2="240.94" y2="465.95"/><line class="cls-4" x1="69.54" y1="477.71" x2="210.14" y2="477.71"/><line class="cls-4" x1="69.54" y1="489.82" x2="240.94" y2="489.82"/><line class="cls-4" x1="69.54" y1="501.92" x2="210.14" y2="501.92"/><line class="cls-4" x1="69.54" y1="513.32" x2="171.94" y2="513.32"/><rect class="cls-3" x="278.43" y="263.24" width="19.28" height="19.28"/><rect class="cls-3" x="251.96" y="263.24" width="19.28" height="19.28"/><rect class="cls-3" x="224.88" y="263.24" width="19.28" height="19.28"/><rect class="cls-3" x="305.99" y="263.24" width="19.28" height="19.28"/><rect class="cls-3" x="332.48" y="263.24" width="19.28" height="19.28"/><rect class="cls-4" x="69.54" y="378.33" width="171.4" height="70.3"/><polyline class="cls-4" points="82.02 436.72 116.03 413.48 146.65 422.84 180.66 399.31 206.74 411.78 234.52 389.67"/><circle class="cls-4" cx="82.94" cy="390.73" r="5.17"/><line class="cls-4" x1="312.76" y1="385.56" x2="351.76" y2="385.56"/><line class="cls-4" x1="312.76" y1="392.84" x2="345.85" y2="392.84"/><line class="cls-4" x1="312.76" y1="399.87" x2="339.33" y2="399.87"/><line class="cls-4" x1="312.76" y1="465.13" x2="351.76" y2="465.13"/><line class="cls-4" x1="312.76" y1="472.42" x2="345.85" y2="472.42"/><line class="cls-4" x1="312.76" y1="479.45" x2="339.33" y2="479.45"/><line class="cls-4" x1="266.65" y1="425.41" x2="305.65" y2="425.41"/><line class="cls-4" x1="272.55" y1="432.69" x2="305.65" y2="432.69"/><line class="cls-4" x1="279.07" y1="439.72" x2="305.65" y2="439.72"/><circle class="cls-2" cx="392.31" cy="32.13" r="4.14"/><circle class="cls-2" cx="402.94" cy="3.13" r="3.13"/><circle class="cls-2" cx="397.63" cy="115.68" r="5.31"/><circle class="cls-2" cx="257.48" cy="80.22" r="0.47"/><circle class="cls-2" cx="182.08" cy="187.37" r="4.82"/><circle class="cls-2" cx="164.79" cy="236.22" r="7.94"/><circle class="cls-2" cx="217.83" cy="336.62" r="9.32"/><circle class="cls-2" cx="392.09" cy="331.24" r="7.72"/><circle class="cls-2" cx="413.78" cy="473.81" r="7.86"/><circle class="cls-2" cx="485.01" cy="539.81" r="5.01"/><circle class="cls-2" cx="304.72" cy="564.8" r="5.95"/><circle class="cls-2" cx="3.04" cy="454.64" r="3.04"/><circle class="cls-2" cx="39.78" cy="330.43" r="3.12"/><circle class="cls-2" cx="131.66" cy="565.78" r="6.94"/><path class="cls-2" d="M551.21,334.8s6,3.31,8.92,7.24c3.16,4.31,3.92,8.68,4.46,12.27a210,210,0,0,1,2.22,24.52c.48,27.45,1.66,31.85,3.91,36.23,1.53,3,4.44,8.52,10.59,12.27,5.55,3.38,11.4,3.89,17.83,4.46a212.66,212.66,0,0,0,22.3,0c6.43-.57,12.29-1.08,17.84-4.46,6.14-3.75,9.05-9.27,10.59-12.27,2.24-4.38,3.42-8.78,3.9-36.23A208.84,208.84,0,0,1,656,354.31c.54-3.59,1.29-8,4.46-12.27,2.89-3.93,8.92-7.24,8.92-7.24Z"/><circle class="cls-2" cx="572.79" cy="104.05" r="32.5"/><circle class="cls-2" cx="636.79" cy="291.05" r="32.5"/><circle class="cls-2" cx="622.79" cy="175.05" r="40.5"/><circle class="cls-2" cx="653.29" cy="97.55" r="25"/><circle class="cls-2" cx="535.29" cy="205.55" r="25"/><circle class="cls-2" cx="705.29" cy="174.55" r="25"/><circle class="cls-2" cx="560.29" cy="268.55" r="25"/><circle class="cls-2" cx="682.29" cy="248.55" r="21"/><circle class="cls-2" cx="522.29" cy="143.55" r="21"/><circle class="cls-2" cx="496.29" cy="174.55" r="7"/><circle class="cls-2" cx="498.29" cy="199.55" r="7"/><circle class="cls-2" cx="520.29" cy="242.55" r="11"/><circle class="cls-2" cx="504.79" cy="221.05" r="5.5"/><circle class="cls-2" cx="516.29" cy="175.55" r="9"/><circle class="cls-2" cx="499.79" cy="159.05" r="3.5"/><circle class="cls-2" cx="552.79" cy="170.05" r="7.5"/><circle class="cls-2" cx="558.79" cy="148.05" r="10.5"/><circle class="cls-2" cx="572.29" cy="178.55" r="6"/><circle class="cls-2" cx="584.29" cy="215.55" r="11"/><circle class="cls-2" cx="563.79" cy="227.05" r="2.5"/><circle class="cls-2" cx="545.29" cy="238.55" r="5"/><circle class="cls-2" cx="563.29" cy="187.55" r="2"/><circle class="cls-2" cx="567.79" cy="203.05" r="2.5"/><circle class="cls-2" cx="580.79" cy="195.05" r="4.5"/><circle class="cls-2" cx="607.29" cy="224.55" r="5"/><circle class="cls-2" cx="578.29" cy="239.55" r="3"/><circle class="cls-2" cx="591.79" cy="238.05" r="2.5"/><circle class="cls-2" cx="601.29" cy="266.55" r="8"/><circle class="cls-2" cx="619.29" cy="251.55" r="9"/><circle class="cls-2" cx="627.79" cy="227.05" r="1.5"/><circle class="cls-2" cx="639.79" cy="222.05" r="2.5"/><circle class="cls-2" cx="638.29" cy="242.55" r="6"/><circle class="cls-2" cx="663.29" cy="207.55" r="6"/><circle class="cls-2" cx="652.29" cy="251.55" r="2"/><circle class="cls-2" cx="658.29" cy="227.55" r="5"/><circle class="cls-2" cx="697.79" cy="220.05" r="7.5"/><circle class="cls-2" cx="711.79" cy="237.05" r="4.5"/><circle class="cls-2" cx="715.29" cy="221.55" r="3"/><circle class="cls-2" cx="724.79" cy="205.05" r="4.5"/><circle class="cls-2" cx="708.79" cy="206.05" r="3.5"/><circle class="cls-2" cx="676.79" cy="218.05" r="2.5"/><circle class="cls-2" cx="677.79" cy="203.05" r="1.5"/><circle class="cls-2" cx="691.29" cy="205.55" r="2"/><circle class="cls-2" cx="672.29" cy="187.55" r="5"/><circle class="cls-2" cx="667.29" cy="158.55" r="1"/><circle class="cls-2" cx="671.29" cy="171.55" r="2"/><circle class="cls-2" cx="676.29" cy="162.55" r="3"/><circle class="cls-2" cx="682.79" cy="138.05" r="5.5"/><circle class="cls-2" cx="672.29" cy="148.55" r="3"/><circle class="cls-2" cx="687.29" cy="122.55" r="4"/><circle class="cls-2" cx="702.79" cy="139.05" r="7.5"/><circle class="cls-2" cx="685.79" cy="151.05" r="2.5"/><circle class="cls-2" cx="688.29" cy="104.55" r="6"/><circle class="cls-2" cx="701.29" cy="118.55" r="3"/><circle class="cls-2" cx="714.29" cy="133.55" r="2"/><circle class="cls-2" cx="708.79" cy="121.05" r="1.5"/><circle class="cls-2" cx="654.79" cy="137.05" r="8.5"/><circle class="cls-2" cx="622.79" cy="122.05" r="5.5"/><circle class="cls-2" cx="585.29" cy="142.55" r="3"/><circle class="cls-2" cx="577.29" cy="159.55" r="5"/><circle class="cls-2" cx="575.79" cy="144.05" r="1.5"/><circle class="cls-2" cx="567.29" cy="165.55" r="3"/><circle class="cls-2" cx="595.29" cy="137.55" r="2"/><circle class="cls-2" cx="605.79" cy="131.05" r="4.5"/><circle class="cls-2" cx="609.29" cy="116.55" r="3"/><circle class="cls-2" cx="618.29" cy="107.55" r="6"/><circle class="cls-2" cx="624.29" cy="92.55" r="3"/><circle class="cls-2" cx="611.79" cy="91.05" r="4.5"/><circle class="cls-2" cx="610.79" cy="100.05" r="1.5"/><circle class="cls-2" cx="602.79" cy="77.05" r="2.5"/><circle class="cls-2" cx="613.79" cy="81.05" r="4.5"/><circle class="cls-2" cx="625.79" cy="74.05" r="3.5"/><circle class="cls-2" cx="624.79" cy="84.05" r="2.5"/><circle class="cls-2" cx="584.79" cy="70.05" r="2.5"/><circle class="cls-2" cx="595.29" cy="70.55" r="4"/><circle class="cls-2" cx="605.79" cy="67.05" r="3.5"/><circle class="cls-2" cx="617.29" cy="69.55" r="4"/><circle class="cls-2" cx="636.29" cy="70.55" r="4"/><circle class="cls-2" cx="635.29" cy="121.55" r="2"/><circle class="cls-2" cx="636.29" cy="132.55" r="2"/><circle class="cls-2" cx="643.29" cy="126.55" r="1"/><circle class="cls-2" cx="668.79" cy="127.05" r="3.5"/><circle class="cls-2" cx="679.79" cy="118.05" r="2.5"/><circle class="cls-2" cx="670.29" cy="136.55" r="1"/><circle class="cls-2" cx="570.29" cy="307.55" r="5"/><circle class="cls-2" cx="593.29" cy="309.55" r="10"/><circle class="cls-2" cx="588.79" cy="287.05" r="3.5"/><circle class="cls-2" cx="598.79" cy="282.05" r="2.5"/><circle class="cls-2" cx="577.79" cy="297.05" r="4.5"/><circle class="cls-2" cx="558.79" cy="300.05" r="3.5"/><circle class="cls-2" cx="569.29" cy="322.55" r="6"/><circle class="cls-2" cx="607.79" cy="320.05" r="2.5"/><circle class="cls-2" cx="593.79" cy="251.05" r="3.5"/><circle class="cls-2" cx="605.79" cy="238.05" r="4.5"/><circle class="cls-2" cx="526.79" cy="263.05" r="4.5"/><circle class="cls-2" cx="505.79" cy="231.05" r="1.5"/><circle class="cls-2" cx="505.79" cy="210.05" r="1.5"/><circle class="cls-2" cx="507.79" cy="190.05" r="1.5"/><circle class="cls-2" cx="494.29" cy="186.55" r="2"/><circle class="cls-2" cx="537.79" cy="250.05" r="1.5"/><circle class="cls-2" cx="553.29" cy="230.55" r="2"/><circle class="cls-2" cx="565.79" cy="239.05" r="2.5"/><circle class="cls-2" cx="671.79" cy="273.05" r="4.5"/><circle class="cls-2" cx="585.79" cy="328.05" r="4.5"/><circle class="cls-2" cx="620.79" cy="328.05" r="3.5"/><circle class="cls-2" cx="648.79" cy="326.05" r="1.5"/><circle class="cls-2" cx="658.79" cy="263.05" r="2.5"/><circle class="cls-2" cx="644.79" cy="231.05" r="2.5"/><circle class="cls-2" cx="618.29" cy="221.55" r="2"/><circle class="cls-2" cx="618.79" cy="236.05" r="1.5"/><circle class="cls-2" cx="526.79" cy="118.05" r="4.5"/><circle class="cls-2" cx="533.29" cy="102.55" r="2"/><circle class="cls-2" cx="539.29" cy="124.55" r="2"/><circle class="cls-2" cx="536.79" cy="111.05" r="1.5"/><circle class="cls-2" cx="546.79" cy="132.05" r="0.5"/><circle class="cls-2" cx="538.79" cy="167.05" r="1.5"/><circle class="cls-2" cx="545.79" cy="158.05" r="2.5"/><circle class="cls-2" cx="531.79" cy="173.05" r="1.5"/><circle class="cls-2" cx="540.29" cy="175.55" r="1"/><circle class="cls-2" cx="479.04" cy="47.93" r="2.98"/><circle class="cls-2" cx="603.79" cy="18.55" r="13.5"/><circle class="cls-2" cx="759.06" cy="59.23" r="8.32"/><circle class="cls-2" cx="775.06" cy="244.55" r="16"/><circle class="cls-2" cx="439.64" cy="173.55" r="18"/><circle class="cls-2" cx="502.71" cy="472.86" r="10.41"/><circle class="cls-2" cx="741.93" cy="415.85" r="17.14"/></g></g></svg>