<svg xmlns="http://www.w3.org/2000/svg" viewBox="0 0 516 634"><defs><style>.cls-1{fill:#c0392b;}</style></defs><title>case-study</title><g id="Layer_2" data-name="Layer 2"><g id="Layer_1-2" data-name="Layer 1"><path class="cls-1" d="M465.83,0H50.17A50.17,50.17,0,0,0,0,50.17V583.83A50.17,50.17,0,0,0,50.17,634H465.83A50.17,50.17,0,0,0,516,583.83V50.17A50.17,50.17,0,0,0,465.83,0ZM147,75a77,77,0,1,1-77,77A77,77,0,0,1,147,75ZM440.43,539.43A18.92,18.92,0,0,1,427,545H89a19,19,0,0,1,0-38H427a19,19,0,0,1,13.43,32.43Zm0-104A18.92,18.92,0,0,1,427,441H89a19,19,0,0,1,0-38H427a19,19,0,0,1,13.43,32.43Zm0-104A18.92,18.92,0,0,1,427,337H89a19,19,0,0,1,0-38H427a19,19,0,0,1,13.43,32.43Z"/></g></g></svg>