<svg xmlns="http://www.w3.org/2000/svg" viewBox="0 0 658 492.25"><defs><style>.cls-1{fill:#2980b9;}</style></defs><title>clients-say</title><g id="Layer_2" data-name="Layer 2"><g id="Layer_1-2" data-name="Layer 1"><path class="cls-1" d="M292,99a99,99,0,0,1-182.24,53.61L172,117.5,96.3,77.71A99,99,0,0,1,292,99Z"/><path class="cls-1" d="M250.8,422.25H0c0-106.59,86.41-193,193-193a192.65,192.65,0,0,1,152.27,74.41C302.69,331.08,269.23,372.69,250.8,422.25Z"/><path class="cls-1" d="M564,169.13a99,99,0,0,1-182.24,53.61L444,187.63l-75.7-39.79A99,99,0,0,1,564,169.13Z"/><path class="cls-1" d="M658,492.25H272a193,193,0,1,1,386,0Z"/></g></g></svg>