<svg xmlns="http://www.w3.org/2000/svg" viewBox="0 0 1027.67 902.5"><defs><style>.cls-1{fill:#2980b9;}.cls-2{fill:none;stroke:#34495e;stroke-linecap:round;stroke-linejoin:round;stroke-width:30px;}</style></defs><title>numbers-talk</title><g id="Layer_2" data-name="Layer 2"><g id="Layer_1-2" data-name="Layer 1"><path class="cls-1" d="M129.5,553.5H248.83a35.33,35.33,0,0,1,35.33,35.33V902.5a0,0,0,0,1,0,0h-190a0,0,0,0,1,0,0V588.83A35.33,35.33,0,0,1,129.5,553.5Z"/><path class="cls-1" d="M471.5,658.5H590.83a35.33,35.33,0,0,1,35.33,35.33V902.5a0,0,0,0,1,0,0h-190a0,0,0,0,1,0,0V693.83A35.33,35.33,0,0,1,471.5,658.5Z"/><path class="cls-1" d="M813.5,345.5H932.83a35.33,35.33,0,0,1,35.33,35.33V902.5a0,0,0,0,1,0,0h-190a0,0,0,0,1,0,0V380.83A35.33,35.33,0,0,1,813.5,345.5Z"/><polyline class="cls-2" points="15 513.63 375.17 255.5 584.91 358.27 1007.58 21.87"/><polyline class="cls-2" points="867.67 15 1012.67 17 997.67 156"/></g></g></svg>