<svg xmlns="http://www.w3.org/2000/svg" viewBox="0 0 930 492"><defs><style>.cls-1{fill:#c0392b;}</style></defs><title>our-clients</title><g id="Layer_2" data-name="Layer 2"><g id="Layer_1-2" data-name="Layer 1"><circle class="cls-1" cx="737" cy="99" r="99"/><path class="cls-1" d="M930,422H679.2c-18.43-49.56-51.89-91.17-94.47-118.59A192.65,192.65,0,0,1,737,229C843.59,229,930,315.41,930,422Z"/><circle class="cls-1" cx="193" cy="99" r="99"/><path class="cls-1" d="M250.8,422H0C0,315.41,86.41,229,193,229a192.65,192.65,0,0,1,152.27,74.41C302.69,330.83,269.23,372.44,250.8,422Z"/><circle class="cls-1" cx="465" cy="169" r="99"/><path class="cls-1" d="M658,492H272a193,193,0,1,1,386,0Z"/></g></g></svg>