<svg xmlns="http://www.w3.org/2000/svg" viewBox="0 0 616.55 103.66"><defs><style>.cls-1{fill:#fff;}</style></defs><title>full-logo-white </title><g id="Layer_2" data-name="Layer 2"><g id="Layer_1-2" data-name="Layer 1"><path class="cls-1" d="M84.76,35.76,70.91,49.62,33.19,11.9,43.72,1.38a4.72,4.72,0,0,1,6.67,0Z"/><path class="cls-1" d="M98.91,51.83v0c0,.06,0,.13,0,.19a4.73,4.73,0,0,1-1.37,3.08L87,65.68l-36.58,36.6a5.83,5.83,0,0,1-.55.46,4.4,4.4,0,0,1-.39.26l-.21.12-.2.1-.32.13a3.19,3.19,0,0,1-.33.11,4.68,4.68,0,0,1-1.34.2,4.73,4.73,0,0,1-1.34-.2,4.44,4.44,0,0,1-.85-.34,4.86,4.86,0,0,1-1.14-.84L33.19,91.75,73.12,51.83,87,38,97.53,48.52A4.73,4.73,0,0,1,98.9,51.6,1.77,1.77,0,0,1,98.91,51.83Z"/><path class="cls-1" d="M9.24,41.33l9.06,9.05L43,25.74l-6.88-6.88a3.07,3.07,0,0,0-4.36,0Z"/><path class="cls-1" d="M0,51.83V52a3.08,3.08,0,0,0,.9,2l6.9,6.89L31.71,84.8a3.65,3.65,0,0,0,.36.31l.25.16.14.08.13.07.21.08.21.07a3,3,0,0,0,1.76,0,2.87,2.87,0,0,0,.55-.22,3,3,0,0,0,.75-.55L43,77.92,16.85,51.83l-9-9.06L.9,49.67a3.07,3.07,0,0,0-.9,2Z"/><circle class="cls-1" cx="89.93" cy="94.68" r="8.98"/><path class="cls-1" d="M141.22,80.13V19.63A5.6,5.6,0,0,1,146.86,14H159A34.42,34.42,0,0,1,184.28,24.5a34.69,34.69,0,0,1,10.46,25.38,34.69,34.69,0,0,1-10.46,25.38A34.42,34.42,0,0,1,159,85.77h-12.1a5.62,5.62,0,0,1-5.64-5.64ZM152.6,25.37v49H159a23.85,23.85,0,0,0,17.27-7.22,23.53,23.53,0,0,0,7.13-17.28,23.71,23.71,0,0,0-7.13-17.33A23.46,23.46,0,0,0,159,25.37Z"/><path class="cls-1" d="M260,58.8a4.75,4.75,0,0,1-1.49,3.64,5.58,5.58,0,0,1-3.95,1.38h-32.6a12.29,12.29,0,0,0,3.49,6.77q3.27,3.8,9.58,4.56a15,15,0,0,0,10.92-2.51A5.37,5.37,0,0,1,250,71a4.29,4.29,0,0,1,3.59,1.33q2.86,3.18,0,6.67a25.57,25.57,0,0,1-18.1,6.71,24.09,24.09,0,0,1-17.94-7.53,25.94,25.94,0,0,1,0-36.14A23.32,23.32,0,0,1,235,34.5a24,24,0,0,1,17.28,6.72A24.73,24.73,0,0,1,260,58.29ZM235.24,44.24a14.48,14.48,0,0,0-9.54,3.69,13.35,13.35,0,0,0-4.3,7.18h29c-.61-2.39-2.27-4.72-5-7A17.73,17.73,0,0,0,235.24,44.24Z"/><path class="cls-1" d="M292.86,85.35c-1.16-.54-1.83-1-2-1.38a3.25,3.25,0,0,0-.36-.67c-.2-.06-.37-.34-.51-.82L273.38,42.7a4.78,4.78,0,0,1-.05-4.05,5.55,5.55,0,0,1,3-2.92,4.32,4.32,0,0,1,3.9,0,5.74,5.74,0,0,1,3,3L295,66.59l11.9-27.89a5.34,5.34,0,0,1,2.82-3,4.75,4.75,0,0,1,4.1,0,5.55,5.55,0,0,1,3,2.92,4.78,4.78,0,0,1-.05,4.05L299.94,82.48a2.23,2.23,0,0,1-.41.72,4.62,4.62,0,0,0-.41.46,5.92,5.92,0,0,1-.67.67,5.92,5.92,0,0,0-.67.67,1,1,0,0,1-.51.35h-.21v.11a1.94,1.94,0,0,0-.82.2H296a4,4,0,0,1-1,.11,3.93,3.93,0,0,1-1-.11h-.2a3.69,3.69,0,0,0-.82-.2v-.11Z"/><path class="cls-1" d="M367.6,40.14a5.27,5.27,0,0,1,2.31,3.43,5.71,5.71,0,0,1-.66,4.16,5.27,5.27,0,0,1-3.44,2.3,5.18,5.18,0,0,1-4.15-.87q-5.75-3.79-9.49-3.79a9.61,9.61,0,0,0-6.1,1.84c-1.09.76-1.64,1.42-1.64,2a2.48,2.48,0,0,0,.26,1.28,3.29,3.29,0,0,0,1.08.93Q348,53,353.25,53.88l.1.1h.11a43.12,43.12,0,0,1,9.94,3.08,14.38,14.38,0,0,1,6.67,5.64,13.73,13.73,0,0,1,2.15,7.07q0,7.19-6.46,11.89a22.92,22.92,0,0,1-13.33,4.11q-9.54-.1-18.25-7.08a5.2,5.2,0,0,1-1.9-3.64,5.53,5.53,0,0,1,4.87-6,5.19,5.19,0,0,1,4,1.23q5.53,4.62,11.28,4.51a12.72,12.72,0,0,0,7-1.94c1.23-1,1.85-1.9,1.85-2.62a2.66,2.66,0,0,0-.31-1.49,3.4,3.4,0,0,0-1.33-1.23c-1.64-1.16-4.38-2.11-8.21-2.87h-.1a38,38,0,0,1-9.48-3A16,16,0,0,1,335.31,56a12.13,12.13,0,0,1-1.75-6.46q0-6.66,6.05-11.28a21.93,21.93,0,0,1,12.67-3.79Q359.41,34.5,367.6,40.14Z"/><path class="cls-1" d="M393.13,85.77a5.62,5.62,0,0,1-5.64-5.64V19.63A5.6,5.6,0,0,1,393.13,14a5.6,5.6,0,0,1,4.05,1.64,5.37,5.37,0,0,1,1.7,4V74.38h27.78a5.7,5.7,0,0,1,0,11.39Z"/><path class="cls-1" d="M445.68,78.28a25.5,25.5,0,0,1-7-18.1,25.66,25.66,0,0,1,7-18.14,22.78,22.78,0,0,1,17.38-7.54A23.13,23.13,0,0,1,476.7,39a6.45,6.45,0,0,1,1.94-3.23,5.15,5.15,0,0,1,3.54-1.28,5,5,0,0,1,3.69,1.64,5.4,5.4,0,0,1,1.59,3.9V80.33a5.24,5.24,0,0,1-1.59,3.85,5.06,5.06,0,0,1-3.69,1.59,5.27,5.27,0,0,1-3.54-1.24,6.12,6.12,0,0,1-1.94-3.17,23.19,23.19,0,0,1-13.64,4.41A22.87,22.87,0,0,1,445.68,78.28Zm3.95-18.1a15.05,15.05,0,0,0,3.74,10.41,12.32,12.32,0,0,0,9.64,4.2,12.64,12.64,0,0,0,9.74-4.2,14.78,14.78,0,0,0,3.84-10.36,15,15,0,0,0-3.89-10.45A12.55,12.55,0,0,0,463,45.47a12.28,12.28,0,0,0-9.59,4.26A15.12,15.12,0,0,0,449.63,60.18Z"/><path class="cls-1" d="M518.63,80.33a5,5,0,0,1-1.74,3.85,5.72,5.72,0,0,1-3.95,1.59,5.43,5.43,0,0,1-5.38-5.44V39.93A5.48,5.48,0,0,1,518,37.68a20,20,0,0,1,10.87-3.18,21.44,21.44,0,0,1,21.43,21.33v24.5a5.31,5.31,0,0,1-1.54,3.85A5,5,0,0,1,545,85.77a5.33,5.33,0,0,1-3.84-1.59,5.13,5.13,0,0,1-1.64-3.85V55.83a9.85,9.85,0,0,0-3.13-7.34,10.42,10.42,0,0,0-7.49-3,9.9,9.9,0,0,0-7.33,3,10.09,10.09,0,0,0-3,7.34Z"/><path class="cls-1" d="M616.55,58.8a4.75,4.75,0,0,1-1.49,3.64,5.58,5.58,0,0,1-3.95,1.38h-32.6A12.28,12.28,0,0,0,582,70.59q3.28,3.8,9.59,4.56a15,15,0,0,0,10.92-2.51A5.36,5.36,0,0,1,606.6,71a4.3,4.3,0,0,1,3.59,1.33q2.87,3.18,0,6.67a25.59,25.59,0,0,1-18.1,6.71,24.09,24.09,0,0,1-17.94-7.53,25.94,25.94,0,0,1,0-36.14,23.31,23.31,0,0,1,17.48-7.54,24.07,24.07,0,0,1,17.28,6.72,24.73,24.73,0,0,1,7.64,17.07ZM591.84,44.24a14.48,14.48,0,0,0-9.54,3.69A13.43,13.43,0,0,0,578,55.11h29c-.62-2.39-2.27-4.72-5-7A17.73,17.73,0,0,0,591.84,44.24Z"/></g></g></svg>