<svg xmlns="http://www.w3.org/2000/svg" viewBox="0 0 213.72 204.24"><defs><style>.cls-1{fill:#fff;}</style></defs><title>preloader-white</title><g id="Layer_2" data-name="Layer 2"><g id="Layer_1-2" data-name="Layer 1"><path class="cls-1" d="M213.72,121.28V83l-37.79-4.5a72.54,72.54,0,0,0-14-24.3l15-35L143.7,0,120.91,30.47a73.58,73.58,0,0,0-28.06,0L70,0,36.84,19.16l15,35a72.6,72.6,0,0,0-14,24.26L0,83v38.32l37.79,4.52a72.74,72.74,0,0,0,14,24.26l-15,35L70,204.24l22.81-30.47a73.58,73.58,0,0,0,28.06,0l22.81,30.47,33.18-19.16-15-35a72.73,72.73,0,0,0,14.05-24.3Zm-63,2.75a47.71,47.71,0,0,1-3,5.14A48.94,48.94,0,0,1,109.85,151c-1,.06-2,.09-3,.09s-2,0-3-.09A48.94,48.94,0,0,1,66,129.17,48.18,48.18,0,0,1,63,124a49,49,0,0,1,40.93-70.74c1-.06,2-.09,3-.09s2,0,3,.09A49,49,0,0,1,150.7,124Z"/></g></g></svg>