<svg xmlns="http://www.w3.org/2000/svg" width="1920" height="1080" viewBox="0 0 1920 1080">
  <g id="Group_2143" data-name="Group 2143" transform="translate(-16053 -4391)">
    <rect id="Rectangle_1628" data-name="Rectangle 1628" width="1920" height="1080" transform="translate(16053 4391)" fill="#fff"/>
    <g id="Polygon_3" data-name="Polygon 3" transform="translate(17500.6 4815.237) rotate(30)" fill="#fff" opacity="0.5">
      <path d="M 43.04750823974609 42.5 L 6.952499866485596 42.5 C 5.684969902038574 42.5 4.550859928131104 41.84408187866211 3.918760061264038 40.74541091918945 C 3.286659955978394 39.6467399597168 3.289639949798584 38.33662033081055 3.926719903945923 37.24082946777344 L 21.97422027587891 6.199120044708252 C 22.60796928405762 5.109070301055908 23.73909950256348 4.458290100097656 25 4.458290100097656 C 26.26090049743652 4.458290100097656 27.39203071594238 5.109070301055908 28.02577972412109 6.199120044708252 L 46.07329177856445 37.24082946777344 C 46.71036911010742 38.33662033081055 46.71334075927734 39.6467399597168 46.08124160766602 40.74541091918945 C 45.44913864135742 41.84408187866211 44.31504058837891 42.5 43.04750823974609 42.5 Z" stroke="none"/>
      <path d="M 25 4.958290100097656 C 23.91922950744629 4.958290100097656 22.9496898651123 5.516101837158203 22.40648078918457 6.450431823730469 L 4.358970642089844 37.49214172363281 C 3.812900543212891 38.43138885498047 3.810348510742188 39.55435180664063 4.352149963378906 40.49607086181641 C 4.893951416015625 41.43777847290039 5.866039276123047 42 6.952491760253906 42 L 43.04750061035156 42 C 44.13394927978516 42 45.10604858398438 41.43777847290039 45.64785003662109 40.49605941772461 C 46.18965148925781 39.55435180664063 46.18709945678711 38.43138885498047 45.64102172851563 37.49214172363281 L 27.59351921081543 6.450431823730469 C 27.0503101348877 5.516101837158203 26.08077049255371 4.958290100097656 25 4.958290100097656 M 25 3.958293914794922 C 26.34345054626465 3.958293914794922 27.68689918518066 4.621463775634766 28.45803070068359 5.947811126708984 L 46.50553131103516 36.98952102661133 C 48.055908203125 39.65616989135742 46.1320915222168 43 43.04750061035156 43 L 6.952491760253906 43 C 3.867908477783203 43 1.944091796875 39.65616989135742 3.494461059570313 36.98952102661133 L 21.54196929931641 5.947811126708984 C 22.31310081481934 4.621463775634766 23.65654945373535 3.958293914794922 25 3.958293914794922 Z" stroke="none" fill="#232323"/>
    </g>
    <g id="Polygon_5" data-name="Polygon 5" transform="translate(16985.6 4815.237) rotate(30)" fill="#fff" opacity="0.5">
      <path d="M 43.04750823974609 42.5 L 6.952499866485596 42.5 C 5.684969902038574 42.5 4.550859928131104 41.84408187866211 3.918760061264038 40.74541091918945 C 3.286659955978394 39.6467399597168 3.289639949798584 38.33662033081055 3.926719903945923 37.24082946777344 L 21.97422027587891 6.199120044708252 C 22.60796928405762 5.109070301055908 23.73909950256348 4.458290100097656 25 4.458290100097656 C 26.26090049743652 4.458290100097656 27.39203071594238 5.109070301055908 28.02577972412109 6.199120044708252 L 46.07329177856445 37.24082946777344 C 46.71036911010742 38.33662033081055 46.71334075927734 39.6467399597168 46.08124160766602 40.74541091918945 C 45.44913864135742 41.84408187866211 44.31504058837891 42.5 43.04750823974609 42.5 Z" stroke="none"/>
      <path d="M 25 4.958290100097656 C 23.91922950744629 4.958290100097656 22.9496898651123 5.516101837158203 22.40648078918457 6.450431823730469 L 4.358970642089844 37.49214172363281 C 3.812900543212891 38.43138885498047 3.810348510742188 39.55435180664063 4.352149963378906 40.49607086181641 C 4.893951416015625 41.43777847290039 5.866039276123047 42 6.952491760253906 42 L 43.04750061035156 42 C 44.13394927978516 42 45.10604858398438 41.43777847290039 45.64785003662109 40.49605941772461 C 46.18965148925781 39.55435180664063 46.18709945678711 38.43138885498047 45.64102172851563 37.49214172363281 L 27.59351921081543 6.450431823730469 C 27.0503101348877 5.516101837158203 26.08077049255371 4.958290100097656 25 4.958290100097656 M 25 3.958293914794922 C 26.34345054626465 3.958293914794922 27.68689918518066 4.621463775634766 28.45803070068359 5.947811126708984 L 46.50553131103516 36.98952102661133 C 48.055908203125 39.65616989135742 46.1320915222168 43 43.04750061035156 43 L 6.952491760253906 43 C 3.867908477783203 43 1.944091796875 39.65616989135742 3.494461059570313 36.98952102661133 L 21.54196929931641 5.947811126708984 C 22.31310081481934 4.621463775634766 23.65654945373535 3.958293914794922 25 3.958293914794922 Z" stroke="none" fill="#232323"/>
    </g>
    <g id="Polygon_4" data-name="Polygon 4" transform="translate(16570.619 5070.831) rotate(-45)" fill="#fff" opacity="0.5">
      <path d="M 43.04750823974609 42.5 L 6.952499866485596 42.5 C 5.684969902038574 42.5 4.550859928131104 41.84408187866211 3.918760061264038 40.74541091918945 C 3.286659955978394 39.6467399597168 3.289639949798584 38.33662033081055 3.926719903945923 37.24082946777344 L 21.97422027587891 6.199120044708252 C 22.60796928405762 5.109070301055908 23.73909950256348 4.458290100097656 25 4.458290100097656 C 26.26090049743652 4.458290100097656 27.39203071594238 5.109070301055908 28.02577972412109 6.199120044708252 L 46.07329177856445 37.24082946777344 C 46.71036911010742 38.33662033081055 46.71334075927734 39.6467399597168 46.08124160766602 40.74541091918945 C 45.44913864135742 41.84408187866211 44.31504058837891 42.5 43.04750823974609 42.5 Z" stroke="none"/>
      <path d="M 25 4.958290100097656 C 23.91922950744629 4.958290100097656 22.9496898651123 5.516101837158203 22.40648078918457 6.450431823730469 L 4.358970642089844 37.49214172363281 C 3.812900543212891 38.43138885498047 3.810348510742188 39.55435180664063 4.352149963378906 40.49607086181641 C 4.893951416015625 41.43777847290039 5.866039276123047 42 6.952491760253906 42 L 43.04750061035156 42 C 44.13394927978516 42 45.10604858398438 41.43777847290039 45.64785003662109 40.49605941772461 C 46.18965148925781 39.55435180664063 46.18709945678711 38.43138885498047 45.64102172851563 37.49214172363281 L 27.59351921081543 6.450431823730469 C 27.0503101348877 5.516101837158203 26.08077049255371 4.958290100097656 25 4.958290100097656 M 25 3.958293914794922 C 26.34345054626465 3.958293914794922 27.68689918518066 4.621463775634766 28.45803070068359 5.947811126708984 L 46.50553131103516 36.98952102661133 C 48.055908203125 39.65616989135742 46.1320915222168 43 43.04750061035156 43 L 6.952491760253906 43 C 3.867908477783203 43 1.944091796875 39.65616989135742 3.494461059570313 36.98952102661133 L 21.54196929931641 5.947811126708984 C 22.31310081481934 4.621463775634766 23.65654945373535 3.958293914794922 25 3.958293914794922 Z" stroke="none" fill="#232323"/>
    </g>
    <line id="Line_230" data-name="Line 230" x2="29" y2="29" transform="translate(17693 4646.356)" fill="none" stroke="#232323" stroke-width="1" opacity="0.5"/>
    <line id="Line_231" data-name="Line 231" x2="29" y2="29" transform="translate(16495 4604.356)" fill="none" stroke="#232323" stroke-width="1" opacity="0.5"/>
    <path id="Path_5301" data-name="Path 5301" d="M0,0H29V29" transform="translate(17711 4477.356)" fill="none" stroke="#232323" stroke-width="1" opacity="0.5"/>
    <path id="Path_5302" data-name="Path 5302" d="M0,0H29V29" transform="matrix(-0.656, -0.755, 0.755, -0.656, 16444.07, 5311.313)" fill="none" stroke="#232323" stroke-width="1" opacity="0.5"/>
    <path id="Path_5304" data-name="Path 5304" d="M0,0H29V29" transform="translate(17620.604 5091.896) rotate(-31)" fill="none" stroke="#232323" stroke-width="1" opacity="0.5"/>
    <path id="Path_5303" data-name="Path 5303" d="M0,0H29V29" transform="matrix(-0.966, 0.259, -0.259, -0.966, 16176.26, 5418.109)" fill="none" stroke="#232323" stroke-width="1" opacity="0.5"/>
    <line id="Line_232" data-name="Line 232" y1="40" x2="40" transform="translate(16259 4877.356)" fill="none" stroke="#232323" stroke-width="1" opacity="0.5"/>
    <line id="Line_233" data-name="Line 233" y1="40" x2="40" transform="translate(16734 4795.356)" fill="none" stroke="#232323" stroke-width="1" opacity="0.5"/>
    <line id="Line_234" data-name="Line 234" x2="59.5" y2="23.144" transform="translate(17029 4532.356)" fill="none" stroke="#232323" stroke-width="1" opacity="0.5"/>
    <g id="Ellipse_610" data-name="Ellipse 610" transform="translate(16509.5 4768.856)" fill="#fff" stroke="#232323" stroke-width="1" opacity="0.5">
      <circle cx="15" cy="15" r="15" stroke="none"/>
      <circle cx="15" cy="15" r="14.5" fill="none"/>
    </g>
    <g id="Ellipse_611" data-name="Ellipse 611" transform="translate(16153.5 5169.856)" fill="#fff" stroke="#232323" stroke-width="1" opacity="0.5">
      <circle cx="23" cy="23" r="23" stroke="none"/>
      <circle cx="23" cy="23" r="22.5" fill="none"/>
    </g>
    <g id="Ellipse_612" data-name="Ellipse 612" transform="translate(17693.5 5215.856)" fill="#fff" stroke="#232323" stroke-width="1" opacity="0.5">
      <circle cx="23" cy="23" r="23" stroke="none"/>
      <circle cx="23" cy="23" r="22.5" fill="none"/>
    </g>
    <g id="Ellipse_613" data-name="Ellipse 613" transform="translate(17739.5 4940.856)" fill="#fff" stroke="#232323" stroke-width="1" opacity="0.5">
      <circle cx="14" cy="14" r="14" stroke="none"/>
      <circle cx="14" cy="14" r="13.5" fill="none"/>
    </g>
    <g id="Ellipse_614" data-name="Ellipse 614" transform="translate(17322.5 4527.856)" fill="#fff" stroke="#232323" stroke-width="1" opacity="0.5">
      <circle cx="14" cy="14" r="14" stroke="none"/>
      <circle cx="14" cy="14" r="13.5" fill="none"/>
    </g>
    <g id="Ellipse_615" data-name="Ellipse 615" transform="translate(16885.5 5116.856)" fill="#fff" stroke="#232323" stroke-width="1" opacity="0.5">
      <circle cx="14" cy="14" r="14" stroke="none"/>
      <circle cx="14" cy="14" r="13.5" fill="none"/>
    </g>
    <g id="Rectangle_1629" data-name="Rectangle 1629" transform="translate(17413.5 5084.856)" fill="#fff" stroke="#232323" stroke-width="1" opacity="0.5">
      <rect width="32" height="32" stroke="none"/>
      <rect x="0.5" y="0.5" width="31" height="31" fill="none"/>
    </g>
    <g id="Rectangle_1630" data-name="Rectangle 1630" transform="translate(17233.645 5335) rotate(30)" fill="#fff" stroke="#232323" stroke-width="1" opacity="0.5">
      <rect width="32" height="32" stroke="none"/>
      <rect x="0.5" y="0.5" width="31" height="31" fill="none"/>
    </g>
    <g id="Rectangle_1632" data-name="Rectangle 1632" transform="translate(17166.645 5095) rotate(30)" fill="#fff" stroke="#232323" stroke-width="1" opacity="0.5">
      <rect width="32" height="32" stroke="none"/>
      <rect x="0.5" y="0.5" width="31" height="31" fill="none"/>
    </g>
    <g id="Rectangle_1631" data-name="Rectangle 1631" transform="translate(16769.645 4484) rotate(30)" fill="#fff" stroke="#232323" stroke-width="1" opacity="0.5">
      <rect width="32" height="32" stroke="none"/>
      <rect x="0.5" y="0.5" width="31" height="31" fill="none"/>
    </g>
    <g id="Asset_4" data-name="Asset 4" transform="translate(16636.254 5304.889)" opacity="0.5">
      <g id="Layer_1" data-name="Layer 1" transform="translate(0.519 0.502)">
        <path id="Path_5300" data-name="Path 5300" d="M40.993,32.882a24.553,24.553,0,0,1-34.724,0A19.648,19.648,0,0,1,6.27,5.1a15.715,15.715,0,0,1,22.223,0,12.571,12.571,0,0,1,0,17.778,10.058,10.058,0,0,1-14.223,0,8.045,8.045,0,0,1,0-11.378,6.436,6.436,0,0,1,9.1,0,5.148,5.148,0,0,1,0,7.281,4.118,4.118,0,0,1-5.826,0,3.294,3.294,0,0,1,0-4.66" transform="translate(-0.519 -0.502)" fill="none" stroke="#000" stroke-miterlimit="10" stroke-width="1"/>
      </g>
    </g>
    <g id="Asset_4-2" data-name="Asset 4" transform="matrix(-0.966, -0.259, 0.259, -0.966, 17578.807, 5370.145)" opacity="0.5">
      <g id="Layer_1-2" data-name="Layer 1" transform="translate(0.519 0.502)">
        <path id="Path_5300-2" data-name="Path 5300" d="M40.993,32.882a24.553,24.553,0,0,1-34.724,0A19.648,19.648,0,0,1,6.27,5.1a15.715,15.715,0,0,1,22.223,0,12.571,12.571,0,0,1,0,17.778,10.058,10.058,0,0,1-14.223,0,8.045,8.045,0,0,1,0-11.378,6.436,6.436,0,0,1,9.1,0,5.148,5.148,0,0,1,0,7.281,4.118,4.118,0,0,1-5.826,0,3.294,3.294,0,0,1,0-4.66" transform="translate(-0.519 -0.502)" fill="none" stroke="#000" stroke-miterlimit="10" stroke-width="1"/>
      </g>
    </g>
    <g id="Asset_4-3" data-name="Asset 4" transform="matrix(-0.966, -0.259, 0.259, -0.966, 17358.643, 4769.37)" opacity="0.5">
      <g id="Layer_1-3" data-name="Layer 1" transform="translate(0.519 0.502)">
        <path id="Path_5300-3" data-name="Path 5300" d="M62.976,50.469a37.889,37.889,0,0,1-53.583,0,30.319,30.319,0,0,1,0-42.866,24.25,24.25,0,0,1,34.293,0,19.4,19.4,0,0,1,0,27.434,15.521,15.521,0,0,1-21.948,0,12.414,12.414,0,0,1,0-17.558,9.931,9.931,0,0,1,14.046,0,7.945,7.945,0,0,1,0,11.236,6.354,6.354,0,0,1-8.99,0,5.083,5.083,0,0,1,0-7.191" transform="translate(-0.519 -0.502)" fill="none" stroke="#000" stroke-miterlimit="10" stroke-width="1"/>
      </g>
    </g>
    <g id="Asset_4-4" data-name="Asset 4" transform="translate(16198.976 4650.924) rotate(-90)" opacity="0.5">
      <g id="Layer_1-4" data-name="Layer 1" transform="translate(0.519 0.502)">
        <path id="Path_5300-4" data-name="Path 5300" d="M62.976,50.469a37.889,37.889,0,0,1-53.583,0,30.319,30.319,0,0,1,0-42.866,24.25,24.25,0,0,1,34.293,0,19.4,19.4,0,0,1,0,27.434,15.521,15.521,0,0,1-21.948,0,12.414,12.414,0,0,1,0-17.558,9.931,9.931,0,0,1,14.046,0,7.945,7.945,0,0,1,0,11.236,6.354,6.354,0,0,1-8.99,0,5.083,5.083,0,0,1,0-7.191" transform="translate(-0.519 -0.502)" fill="none" stroke="#000" stroke-miterlimit="10" stroke-width="1"/>
      </g>
    </g>
  </g>
</svg>
